ISO-10303-21;
HEADER;
FILE_DESCRIPTION (( 'STEP AP203' ),
    '1' );
FILE_NAME ('2106 Series 8mm REX e-clip.STEP_Default_sldprt.STEP',
    '2025-03-08T04:49:37',
    ( '' ),
    ( '' ),
    'SwSTEP 2.0',
    'SolidWorks 2024',
    '' );
FILE_SCHEMA (( 'CONFIG_CONTROL_DESIGN' ));
ENDSEC;

DATA;
#1 = DIRECTION ( 'NONE',  ( -1.000000000000000000, 0.000000000000000000, 0.000000000000000000 ) ) ;
#2 = DIRECTION ( 'NONE',  ( 1.000000000000000000, 0.000000000000000000, 0.000000000000000000 ) ) ;
#3 = EDGE_LOOP ( 'NONE', ( #737, #30, #510, #486 ) ) ;
#4 = DIRECTION ( 'NONE',  ( 0.000000000000000000, 0.000000000000000000, 1.000000000000000000 ) ) ;
#5 = ADVANCED_FACE ( 'NONE', ( #148 ), #271, .T. ) ;
#6 = EDGE_LOOP ( 'NONE', ( #168, #720, #323, #197 ) ) ;
#7 = AXIS2_PLACEMENT_3D ( 'NONE', #428, #736, #133 ) ;
#8 = AXIS2_PLACEMENT_3D ( 'NONE', #653, #287, #54 ) ;
#9 = CARTESIAN_POINT ( 'NONE',  ( -0.3499999999999999778, -4.101243703684635200, 3.680683037435204863 ) ) ;
#10 = ORIENTED_EDGE ( 'NONE', *, *, #778, .F. ) ;
#11 = CARTESIAN_POINT ( 'NONE',  ( 0.3500000000000065281, -4.577045822871290248, 4.107694187173195566 ) ) ;
#12 = ORIENTED_EDGE ( 'NONE', *, *, #383, .F. ) ;
#13 = CARTESIAN_POINT ( 'NONE',  ( 0.3499999999999999778, -4.101243703684635200, 3.680683037435204863 ) ) ;
#14 = LINE ( 'NONE', #307, #310 ) ;
#15 = VERTEX_POINT ( 'NONE', #597 ) ;
#16 = EDGE_CURVE ( 'NONE', #238, #745, #42, .T. ) ;
#17 = CARTESIAN_POINT ( 'NONE',  ( -0.3499999999999999778, 0.000000000000000000, 0.000000000000000000 ) ) ;
#18 = ADVANCED_FACE ( 'NONE', ( #672 ), #777, .T. ) ;
#19 = AXIS2_PLACEMENT_3D ( 'NONE', #454, #34, #703 ) ;
#20 = PERSON ( 'UNSPECIFIED', 'UNSPECIFIED', 'UNSPECIFIED', ('UNSPECIFIED'), ('UNSPECIFIED'), ('UNSPECIFIED') ) ;
#21 = EDGE_CURVE ( 'NONE', #507, #335, #411, .T. ) ;
#22 = CYLINDRICAL_SURFACE ( 'NONE', #650, 0.6393169625647951992 ) ;
#23 = ORIENTED_EDGE ( 'NONE', *, *, #403, .F. ) ;
#24 = APPLICATION_CONTEXT ( 'configuration controlled 3d designs of mechanical parts and assemblies' ) ;
#25 = DIRECTION ( 'NONE',  ( 1.000000000000000000, 0.000000000000000000, 0.000000000000000000 ) ) ;
#26 = DIRECTION ( 'NONE',  ( 1.000000000000000000, 0.000000000000000000, 0.000000000000000000 ) ) ;
#27 = ORIENTED_EDGE ( 'NONE', *, *, #280, .T. ) ;
#28 = CALENDAR_DATE ( 2025, 7, 3 ) ;
#29 = FACE_OUTER_BOUND ( 'NONE', #708, .T. ) ;
#30 = ORIENTED_EDGE ( 'NONE', *, *, #383, .T. ) ;
#31 = PERSON_AND_ORGANIZATION ( #20, #746 ) ;
#32 = SECURITY_CLASSIFICATION ( '', '', #97 ) ;
#33 = VECTOR ( 'NONE', #573, 1000.000000000000000 ) ;
#34 = DIRECTION ( 'NONE',  ( -1.000000000000000000, 0.000000000000000000, 0.000000000000000000 ) ) ;
#35 = CC_DESIGN_APPROVAL ( #601, ( #91 ) ) ;
#36 = VERTEX_POINT ( 'NONE', #237 ) ;
#37 = APPROVAL_ROLE ( '' ) ;
#38 = CARTESIAN_POINT ( 'NONE',  ( 0.3499999999999999778, 0.000000000000000000, 0.000000000000000000 ) ) ;
#39 = ORIENTED_EDGE ( 'NONE', *, *, #733, .F. ) ;
#40 = ADVANCED_FACE ( 'NONE', ( #485 ), #600, .F. ) ;
#41 = CARTESIAN_POINT ( 'NONE',  ( 0.3499999999999999778, -1.060660171779821859, -2.806243040080455220 ) ) ;
#42 = LINE ( 'NONE', #240, #785 ) ;
#43 = DIRECTION ( 'NONE',  ( 1.000000000000000000, 0.000000000000000000, 0.000000000000000000 ) ) ;
#44 = DIRECTION ( 'NONE',  ( -1.000000000000000000, 0.000000000000000000, 0.000000000000000000 ) ) ;
#45 = EDGE_CURVE ( 'NONE', #729, #105, #784, .T. ) ;
#46 = VECTOR ( 'NONE', #467, 1000.000000000000000 ) ;
#47 = CYLINDRICAL_SURFACE ( 'NONE', #398, 3.000000000000000000 ) ;
#48 = VECTOR ( 'NONE', #741, 999.9999999999998863 ) ;
#49 = VERTEX_POINT ( 'NONE', #473 ) ;
#50 = APPROVAL_DATE_TIME ( #169, #67 ) ;
#51 = DIRECTION ( 'NONE',  ( 0.000000000000000000, 0.000000000000000000, -1.000000000000000000 ) ) ;
#52 = DIRECTION ( 'NONE',  ( 1.000000000000000000, 0.000000000000000000, 0.000000000000000000 ) ) ;
#53 = ORIENTED_EDGE ( 'NONE', *, *, #441, .F. ) ;
#54 = DIRECTION ( 'NONE',  ( 0.000000000000000000, 0.000000000000000000, 1.000000000000000000 ) ) ;
#55 = CARTESIAN_POINT ( 'NONE',  ( 0.3499999999999999778, 4.101243703684635200, 3.680683037435204863 ) ) ;
#56 = ORIENTED_EDGE ( 'NONE', *, *, #150, .F. ) ;
#57 = FACE_OUTER_BOUND ( 'NONE', #306, .T. ) ;
#58 = DIRECTION ( 'NONE',  ( -1.000000000000000000, 0.000000000000000000, 0.000000000000000000 ) ) ;
#59 = VECTOR ( 'NONE', #791, 1000.000000000000000 ) ;
#60 = VERTEX_POINT ( 'NONE', #529 ) ;
#61 = DIRECTION ( 'NONE',  ( 0.000000000000000000, 0.000000000000000000, 1.000000000000000000 ) ) ;
#62 = DIRECTION ( 'NONE',  ( 1.000000000000000000, 0.000000000000000000, 0.000000000000000000 ) ) ;
#63 = ORIENTED_EDGE ( 'NONE', *, *, #21, .T. ) ;
#64 = DIRECTION ( 'NONE',  ( -1.000000000000000000, 0.000000000000000000, 0.000000000000000000 ) ) ;
#65 = ORIENTED_EDGE ( 'NONE', *, *, #528, .F. ) ;
#66 = DIRECTION ( 'NONE',  ( 1.000000000000000000, 0.000000000000000000, 0.000000000000000000 ) ) ;
#67 = APPROVAL ( #302, 'UNSPECIFIED' ) ;
#68 = CIRCLE ( 'NONE', #142, 6.150000000000000355 ) ;
#69 = ORIENTED_EDGE ( 'NONE', *, *, #789, .T. ) ;
#70 = VECTOR ( 'NONE', #108, 1000.000000000000000 ) ;
#71 = VECTOR ( 'NONE', #319, 1000.000000000000114 ) ;
#72 = DIRECTION ( 'NONE',  ( -1.000000000000000000, 0.000000000000000000, 0.000000000000000000 ) ) ;
#73 = ORIENTED_EDGE ( 'NONE', *, *, #381, .F. ) ;
#74 = CARTESIAN_POINT ( 'NONE',  ( 0.3500000000000065281, 2.077849108214469886, 2.163918455832460008 ) ) ;
#75 = CARTESIAN_POINT ( 'NONE',  ( -0.3499999999999999778, 1.793077073173179992, -3.556096624794390149 ) ) ;
#76 = ORIENTED_EDGE ( 'NONE', *, *, #754, .F. ) ;
#77 = CARTESIAN_POINT ( 'NONE',  ( -0.3499999999999999778, -3.960372279876389623, -0.4200000000000000400 ) ) ;
#78 = EDGE_CURVE ( 'NONE', #406, #131, #594, .T. ) ;
#79 = CARTESIAN_POINT ( 'NONE',  ( -0.3499999999999999778, 0.9298454172603100032, -2.460139731803864915 ) ) ;
#80 = EDGE_LOOP ( 'NONE', ( #636, #641, #470, #536 ) ) ;
#81 = CARTESIAN_POINT ( 'NONE',  ( -0.3499999999999999778, 0.000000000000000000, 0.000000000000000000 ) ) ;
#82 = VECTOR ( 'NONE', #44, 1000.000000000000000 ) ;
#83 = LINE ( 'NONE', #208, #701 ) ;
#84 = VERTEX_POINT ( 'NONE', #349 ) ;
#85 = CARTESIAN_POINT ( 'NONE',  ( 0.3499999999999999778, 0.000000000000000000, 0.000000000000000000 ) ) ;
#86 = LINE ( 'NONE', #79, #299 ) ;
#87 = ORIENTED_EDGE ( 'NONE', *, *, #221, .T. ) ;
#88 = APPROVAL_DATE_TIME ( #642, #614 ) ;
#89 = PLANE ( 'NONE',  #787 ) ;
#90 = ORIENTED_EDGE ( 'NONE', *, *, #788, .F. ) ;
#91 = PRODUCT_DEFINITION ( 'UNKNOWN', '', #156, #770 ) ;
#92 =( NAMED_UNIT ( * ) SI_UNIT ( $, .STERADIAN. ) SOLID_ANGLE_UNIT ( ) );
#93 = VECTOR ( 'NONE', #285, 1000.000000000000000 ) ;
#94 = CIRCLE ( 'NONE', #558, 0.4199999999999998179 ) ;
#95 = PLANE ( 'NONE',  #339 ) ;
#96 = ORIENTED_EDGE ( 'NONE', *, *, #553, .F. ) ;
#97 = SECURITY_CLASSIFICATION_LEVEL ( 'unclassified' ) ;
#98 = CARTESIAN_POINT ( 'NONE',  ( 0.3499999999999999778, 3.960372279876389623, -0.4200000000000000400 ) ) ;
#99 = DIRECTION ( 'NONE',  ( -1.000000000000000000, 0.000000000000000000, 0.000000000000000000 ) ) ;
#100 = DIRECTION ( 'NONE',  ( 1.000000000000000000, 0.000000000000000000, 0.000000000000000000 ) ) ;
#101 = CC_DESIGN_PERSON_AND_ORGANIZATION_ASSIGNMENT ( #645, #456, ( #91 ) ) ;
#102 = ADVANCED_FACE ( 'NONE', ( #538 ), #47, .F. ) ;
#103 = DIRECTION ( 'NONE',  ( 0.000000000000000000, 0.000000000000000000, 1.000000000000000000 ) ) ;
#104 = DIRECTION ( 'NONE',  ( -1.000000000000000000, 0.000000000000000000, 0.000000000000000000 ) ) ;
#105 = VERTEX_POINT ( 'NONE', #181 ) ;
#106 = APPROVAL_ROLE ( '' ) ;
#107 = VECTOR ( 'NONE', #255, 1000.000000000000227 ) ;
#108 = DIRECTION ( 'NONE',  ( 1.000000000000000000, 0.000000000000000000, 0.000000000000000000 ) ) ;
#109 = DIRECTION ( 'NONE',  ( -1.000000000000000000, 0.000000000000000000, 0.000000000000000000 ) ) ;
#110 = LINE ( 'NONE', #162, #82 ) ;
#111 = DIRECTION ( 'NONE',  ( -1.000000000000000000, 0.000000000000000000, 0.000000000000000000 ) ) ;
#112 = ORIENTED_EDGE ( 'NONE', *, *, #122, .T. ) ;
#113 = DIRECTION ( 'NONE',  ( 0.000000000000000000, 9.496904542562440439E-15, 1.000000000000000000 ) ) ;
#114 = DIRECTION ( 'NONE',  ( 0.000000000000000000, -0.6225146366376198559, 0.7826081568524136944 ) ) ;
#115 = ORIENTED_EDGE ( 'NONE', *, *, #528, .T. ) ;
#116 = DIRECTION ( 'NONE',  ( 0.000000000000000000, 0.6225146366376198559, 0.7826081568524136944 ) ) ;
#117 = DIRECTION ( 'NONE',  ( 1.000000000000000000, 0.000000000000000000, 0.000000000000000000 ) ) ;
#118 = AXIS2_PLACEMENT_3D ( 'NONE', #430, #554, #559 ) ;
#119 = EDGE_LOOP ( 'NONE', ( #10, #154, #423, #779 ) ) ;
#120 = DATE_TIME_ROLE ( 'classification_date' ) ;
#121 = CIRCLE ( 'NONE', #171, 3.000000000000000000 ) ;
#122 = EDGE_CURVE ( 'NONE', #105, #439, #405, .T. ) ;
#123 = CARTESIAN_POINT ( 'NONE',  ( -0.3499999999999999778, 3.960372279876389623, -0.4200000000000000400 ) ) ;
#124 = DIRECTION ( 'NONE',  ( 0.000000000000000000, 0.000000000000000000, 1.000000000000000000 ) ) ;
#125 = ADVANCED_FACE ( 'NONE', ( #356 ), #716, .F. ) ;
#126 = VERTEX_POINT ( 'NONE', #482 ) ;
#127 = ADVANCED_FACE ( 'NONE', ( #732 ), #728, .F. ) ;
#128 = CARTESIAN_POINT ( 'NONE',  ( 0.3499999999999999778, -1.793077073173179992, -3.556096624794390149 ) ) ;
#129 = VERTEX_POINT ( 'NONE', #300 ) ;
#130 = FACE_OUTER_BOUND ( 'NONE', #455, .T. ) ;
#131 = VERTEX_POINT ( 'NONE', #781 ) ;
#132 = VECTOR ( 'NONE', #364, 1000.000000000000000 ) ;
#133 = DIRECTION ( 'NONE',  ( 0.000000000000000000, 0.3535533905932758403, -0.9354143466934845552 ) ) ;
#134 = ADVANCED_FACE ( 'NONE', ( #233 ), #226, .F. ) ;
#135 = ORIENTED_EDGE ( 'NONE', *, *, #357, .T. ) ;
#136 = LINE ( 'NONE', #572, #759 ) ;
#137 = DIRECTION ( 'NONE',  ( 0.000000000000000000, -1.000000000000000000, -1.224606353822379970E-16 ) ) ;
#138 = ORIENTED_EDGE ( 'NONE', *, *, #144, .F. ) ;
#139 = CARTESIAN_POINT ( 'NONE',  ( 0.3499999999999999778, 0.000000000000000000, 1.901813667486154864E-15 ) ) ;
#140 = DIRECTION ( 'NONE',  ( -1.000000000000000000, 0.000000000000000000, 0.000000000000000000 ) ) ;
#141 = ORIENTED_EDGE ( 'NONE', *, *, #280, .F. ) ;
#142 = AXIS2_PLACEMENT_3D ( 'NONE', #165, #652, #279 ) ;
#143 = LINE ( 'NONE', #567, #71 ) ;
#144 = EDGE_CURVE ( 'NONE', #613, #585, #174, .T. ) ;
#145 = AXIS2_PLACEMENT_3D ( 'NONE', #605, #58, #535 ) ;
#146 = VECTOR ( 'NONE', #140, 1000.000000000000000 ) ;
#147 = LINE ( 'NONE', #458, #224 ) ;
#148 = FACE_OUTER_BOUND ( 'NONE', #293, .T. ) ;
#149 =( LENGTH_UNIT ( ) NAMED_UNIT ( * ) SI_UNIT ( .MILLI., .METRE. ) );
#150 = EDGE_CURVE ( 'NONE', #782, #740, #422, .T. ) ;
#151 = CARTESIAN_POINT ( 'NONE',  ( 16.50273661024660043, 0.000000000000000000, 0.000000000000000000 ) ) ;
#152 = DIRECTION ( 'NONE',  ( 0.000000000000000000, 0.000000000000000000, 1.000000000000000000 ) ) ;
#153 = CARTESIAN_POINT ( 'NONE',  ( 0.3499999999999999778, 0.000000000000000000, 1.094752490687001840E-15 ) ) ;
#154 = ORIENTED_EDGE ( 'NONE', *, *, #320, .F. ) ;
#155 = APPROVAL_DATE_TIME ( #655, #601 ) ;
#156 = PRODUCT_DEFINITION_FORMATION_WITH_SPECIFIED_SOURCE ( 'ANY', '', #159, .NOT_KNOWN. ) ;
#157 = AXIS2_PLACEMENT_3D ( 'NONE', #244, #492, #4 ) ;
#158 = CARTESIAN_POINT ( 'NONE',  ( 0.3499999999999999778, -0.9298454172603100032, -2.460139731803864915 ) ) ;
#159 = PRODUCT ( '2106 Series 8mm REX e-clip.STEP_Default_sldprt', '2106 Series 8mm REX e-clip.STEP_Default_sldprt', '', ( #283 ) ) ;
#160 = ORIENTED_EDGE ( 'NONE', *, *, #262, .T. ) ;
#161 = EDGE_CURVE ( 'NONE', #556, #412, #372, .T. ) ;
#162 = CARTESIAN_POINT ( 'NONE',  ( 16.50273661024660043, 4.577045822871290248, 4.107694187173195566 ) ) ;
#163 = DIRECTION ( 'NONE',  ( 0.000000000000000000, 0.000000000000000000, -1.000000000000000000 ) ) ;
#164 = ORIENTED_EDGE ( 'NONE', *, *, #462, .T. ) ;
#165 = CARTESIAN_POINT ( 'NONE',  ( -0.3499999999999999778, 0.000000000000000000, 0.000000000000000000 ) ) ;
#166 = CARTESIAN_POINT ( 'NONE',  ( -0.3499999999999999778, -4.378030202150735128, -0.4642928883849010147 ) ) ;
#167 = DIRECTION ( 'NONE',  ( 0.000000000000000000, 0.000000000000000000, 1.000000000000000000 ) ) ;
#168 = ORIENTED_EDGE ( 'NONE', *, *, #694, .F. ) ;
#169 = DATE_AND_TIME ( #548, #210 ) ;
#170 = EDGE_CURVE ( 'NONE', #574, #619, #14, .T. ) ;
#171 = AXIS2_PLACEMENT_3D ( 'NONE', #85, #316, #366 ) ;
#172 = FACE_OUTER_BOUND ( 'NONE', #420, .T. ) ;
#173 = AXIS2_PLACEMENT_3D ( 'NONE', #75, #2, #565 ) ;
#174 = LINE ( 'NONE', #417, #59 ) ;
#175 = AXIS2_PLACEMENT_3D ( 'NONE', #471, #525, #100 ) ;
#176 = ORIENTED_EDGE ( 'NONE', *, *, #235, .T. ) ;
#177 = CARTESIAN_POINT ( 'NONE',  ( -0.3499999999999999778, 1.060660171779821859, -2.806243040080455220 ) ) ;
#178 = DIRECTION ( 'NONE',  ( 0.000000000000000000, 0.000000000000000000, 1.000000000000000000 ) ) ;
#179 = VERTEX_POINT ( 'NONE', #311 ) ;
#180 = DIRECTION ( 'NONE',  ( 1.000000000000000000, 0.000000000000000000, 0.000000000000000000 ) ) ;
#181 = CARTESIAN_POINT ( 'NONE',  ( -0.3499999999999999778, -2.077849108214469886, 2.163918455832460008 ) ) ;
#182 = ORIENTED_EDGE ( 'NONE', *, *, #262, .F. ) ;
#183 = DIRECTION ( 'NONE',  ( 0.000000000000000000, 0.000000000000000000, 1.000000000000000000 ) ) ;
#184 = CARTESIAN_POINT ( 'NONE',  ( -0.3499999999999999778, -4.101243703684635200, 4.320000000000000284 ) ) ;
#185 = CIRCLE ( 'NONE', #633, 4.402580645161289219 ) ;
#186 = EDGE_CURVE ( 'NONE', #350, #412, #185, .T. ) ;
#187 = ORIENTED_EDGE ( 'NONE', *, *, #586, .T. ) ;
#188 = AXIS2_PLACEMENT_3D ( 'NONE', #604, #591, #665 ) ;
#189 = CC_DESIGN_DATE_AND_TIME_ASSIGNMENT ( #359, #120, ( #32 ) ) ;
#190 = CARTESIAN_POINT ( 'NONE',  ( 0.3499999999999999778, -4.378030202150735128, -0.4642928883849010147 ) ) ;
#191 = VERTEX_POINT ( 'NONE', #184 ) ;
#192 = DIRECTION ( 'NONE',  ( 0.000000000000000000, 0.000000000000000000, 1.000000000000000000 ) ) ;
#193 = ORIENTED_EDGE ( 'NONE', *, *, #500, .F. ) ;
#194 = EDGE_CURVE ( 'NONE', #131, #179, #612, .T. ) ;
#195 = CARTESIAN_POINT ( 'NONE',  ( 0.3499999999999999778, 3.960372279876389623, 1.978668964786044803E-15 ) ) ;
#196 = CIRCLE ( 'NONE', #449, 0.6393169625647939780 ) ;
#197 = ORIENTED_EDGE ( 'NONE', *, *, #457, .T. ) ;
#198 = VECTOR ( 'NONE', #114, 1000.000000000000114 ) ;
#199 = AXIS2_PLACEMENT_3D ( 'NONE', #290, #410, #51 ) ;
#200 = LINE ( 'NONE', #611, #480 ) ;
#201 = DIRECTION ( 'NONE',  ( -1.000000000000000000, 0.000000000000000000, 0.000000000000000000 ) ) ;
#202 = EDGE_LOOP ( 'NONE', ( #73, #625, #418, #227 ) ) ;
#203 = DIRECTION ( 'NONE',  ( 0.000000000000000000, 4.070101946812482137E-15, -1.000000000000000000 ) ) ;
#204 = LINE ( 'NONE', #445, #212 ) ;
#205 = VERTEX_POINT ( 'NONE', #195 ) ;
#206 = LINE ( 'NONE', #286, #309 ) ;
#207 = UNCERTAINTY_MEASURE_WITH_UNIT (LENGTH_MEASURE( 1.000000000000000082E-05 ), #149, 'distance_accuracy_value', 'NONE');
#208 = CARTESIAN_POINT ( 'NONE',  ( 0.3499999999999999778, 3.960372279876389623, 2.059984127722460002E-15 ) ) ;
#209 = ORIENTED_EDGE ( 'NONE', *, *, #194, .F. ) ;
#210 = LOCAL_TIME ( 22, 49, 37.00000000000000000, #603 ) ;
#211 = EDGE_CURVE ( 'NONE', #446, #308, #248, .T. ) ;
#212 = VECTOR ( 'NONE', #696, 1000.000000000000114 ) ;
#213 = PLANE ( 'NONE',  #680 ) ;
#214 = EDGE_LOOP ( 'NONE', ( #358, #434, #697, #673 ) ) ;
#215 = PERSON_AND_ORGANIZATION ( #20, #746 ) ;
#216 = CARTESIAN_POINT ( 'NONE',  ( 0.3499999999999999778, 0.000000000000000000, 0.000000000000000000 ) ) ;
#217 = ORIENTED_EDGE ( 'NONE', *, *, #45, .F. ) ;
#218 = PERSON_AND_ORGANIZATION ( #20, #746 ) ;
#219 = ADVANCED_FACE ( 'NONE', ( #253 ), #369, .F. ) ;
#220 = CARTESIAN_POINT ( 'NONE',  ( 0.3499999999999999778, 0.000000000000000000, 0.000000000000000000 ) ) ;
#221 = EDGE_CURVE ( 'NONE', #308, #231, #451, .T. ) ;
#222 = ORIENTED_EDGE ( 'NONE', *, *, #651, .T. ) ;
#223 = AXIS2_PLACEMENT_3D ( 'NONE', #9, #689, #256 ) ;
#224 = VECTOR ( 'NONE', #506, 1000.000000000000000 ) ;
#225 = DIRECTION ( 'NONE',  ( 0.000000000000000000, -0.3535533905932758403, -0.9354143466934845552 ) ) ;
#226 = PLANE ( 'NONE',  #532 ) ;
#227 = ORIENTED_EDGE ( 'NONE', *, *, #245, .F. ) ;
#228 = CALENDAR_DATE ( 2025, 7, 3 ) ;
#229 = CARTESIAN_POINT ( 'NONE',  ( 16.50273661024660043, -4.101243703684635200, 3.680683037435204863 ) ) ;
#230 = DIRECTION ( 'NONE',  ( 0.000000000000000000, -0.7826081568524138055, 0.6225146366376198559 ) ) ;
#231 = VERTEX_POINT ( 'NONE', #618 ) ;
#232 = CYLINDRICAL_SURFACE ( 'NONE', #8, 0.4200000000000000400 ) ;
#233 = FACE_OUTER_BOUND ( 'NONE', #289, .T. ) ;
#234 = ORIENTED_EDGE ( 'NONE', *, *, #637, .F. ) ;
#235 = EDGE_CURVE ( 'NONE', #129, #446, #676, .T. ) ;
#236 = CARTESIAN_POINT ( 'NONE',  ( 0.3499999999999999778, -0.9298454172603100032, -2.460139731803864915 ) ) ;
#237 = CARTESIAN_POINT ( 'NONE',  ( -0.3499999999999999778, 1.400203047561916048, -3.704589048843565546 ) ) ;
#238 = VERTEX_POINT ( 'NONE', #11 ) ;
#239 = FACE_OUTER_BOUND ( 'NONE', #690, .T. ) ;
#240 = CARTESIAN_POINT ( 'NONE',  ( 16.50273661024660043, -4.577045822871290248, 4.107694187173195566 ) ) ;
#241 = ORIENTED_EDGE ( 'NONE', *, *, #731, .T. ) ;
#242 = CARTESIAN_POINT ( 'NONE',  ( 16.50273661024660043, 4.101243703684635200, 3.680683037435204863 ) ) ;
#243 = EDGE_CURVE ( 'NONE', #574, #375, #464, .T. ) ;
#244 = CARTESIAN_POINT ( 'NONE',  ( 0.3499999999999999778, 0.000000000000000000, 0.000000000000000000 ) ) ;
#245 = EDGE_CURVE ( 'NONE', #191, #439, #568, .T. ) ;
#246 = AXIS2_PLACEMENT_3D ( 'NONE', #81, #751, #444 ) ;
#247 = CARTESIAN_POINT ( 'NONE',  ( 0.3499999999999999778, 0.000000000000000000, 0.000000000000000000 ) ) ;
#248 = CIRCLE ( 'NONE', #157, 4.402580645161289219 ) ;
#249 = ORIENTED_EDGE ( 'NONE', *, *, #357, .F. ) ;
#250 = LINE ( 'NONE', #317, #48 ) ;
#251 = ORIENTED_EDGE ( 'NONE', *, *, #194, .T. ) ;
#252 = EDGE_CURVE ( 'NONE', #729, #585, #324, .T. ) ;
#253 = FACE_OUTER_BOUND ( 'NONE', #459, .T. ) ;
#254 = EDGE_LOOP ( 'NONE', ( #593, #687, #663, #69, #160, #539, #742, #631, #27, #474, #774, #241, #685, #576, #683, #524, #222, #628, #63, #617 ) ) ;
#255 = DIRECTION ( 'NONE',  ( 0.000000000000000000, -0.3535533905932766174, 0.9354143466934842222 ) ) ;
#256 = DIRECTION ( 'NONE',  ( 0.000000000000000000, 0.000000000000000000, 1.000000000000000000 ) ) ;
#257 = LOCAL_TIME ( 22, 49, 37.00000000000000000, #765 ) ;
#258 = ORIENTED_EDGE ( 'NONE', *, *, #432, .F. ) ;
#259 = AXIS2_PLACEMENT_3D ( 'NONE', #314, #744, #561 ) ;
#260 = AXIS2_PLACEMENT_3D ( 'NONE', #17, #447, #505 ) ;
#261 = DIRECTION ( 'NONE',  ( 0.000000000000000000, 0.000000000000000000, 1.000000000000000000 ) ) ;
#262 = EDGE_CURVE ( 'NONE', #745, #191, #713, .T. ) ;
#263 = FACE_OUTER_BOUND ( 'NONE', #450, .T. ) ;
#264 = VERTEX_POINT ( 'NONE', #502 ) ;
#265 = DIRECTION ( 'NONE',  ( -1.000000000000000000, 0.000000000000000000, 0.000000000000000000 ) ) ;
#266 = CYLINDRICAL_SURFACE ( 'NONE', #19, 4.402580645161289219 ) ;
#267 = ORIENTED_EDGE ( 'NONE', *, *, #639, .F. ) ;
#268 = EDGE_CURVE ( 'NONE', #782, #375, #250, .T. ) ;
#269 = APPROVAL_STATUS ( 'not_yet_approved' ) ;
#270 = LINE ( 'NONE', #692, #146 ) ;
#271 = CYLINDRICAL_SURFACE ( 'NONE', #609, 0.6393169625647951992 ) ;
#272 = AXIS2_PLACEMENT_3D ( 'NONE', #695, #698, #203 ) ;
#273 = DIRECTION ( 'NONE',  ( 1.000000000000000000, 0.000000000000000000, 0.000000000000000000 ) ) ;
#274 = VECTOR ( 'NONE', #588, 1000.000000000000000 ) ;
#275 = AXIS2_PLACEMENT_3D ( 'NONE', #304, #387, #61 ) ;
#276 = PRODUCT_DEFINITION_SHAPE ( 'NONE', 'NONE',  #91 ) ;
#277 = CARTESIAN_POINT ( 'NONE',  ( 0.3499999999999999778, 0.000000000000000000, 0.000000000000000000 ) ) ;
#278 = VERTEX_POINT ( 'NONE', #684 ) ;
#279 = DIRECTION ( 'NONE',  ( 0.000000000000000000, 0.000000000000000000, 1.000000000000000000 ) ) ;
#280 = EDGE_CURVE ( 'NONE', #613, #60, #551, .T. ) ;
#281 = FACE_OUTER_BOUND ( 'NONE', #80, .T. ) ;
#282 = VERTEX_POINT ( 'NONE', #376 ) ;
#283 = MECHANICAL_CONTEXT ( 'NONE', #24, 'mechanical' ) ;
#284 = LINE ( 'NONE', #294, #452 ) ;
#285 = DIRECTION ( 'NONE',  ( 0.000000000000000000, -1.000000000000000000, -1.224606353822379970E-16 ) ) ;
#286 = CARTESIAN_POINT ( 'NONE',  ( 0.3499999999999999778, 1.982173650953144906, -3.931119936432350137 ) ) ;
#287 = DIRECTION ( 'NONE',  ( -1.000000000000000000, 0.000000000000000000, 0.000000000000000000 ) ) ;
#288 = DIRECTION ( 'NONE',  ( 0.000000000000000000, 1.000000000000000000, 0.000000000000000000 ) ) ;
#289 = EDGE_LOOP ( 'NONE', ( #141, #581, #23, #792 ) ) ;
#290 = CARTESIAN_POINT ( 'NONE',  ( 0.3499999999999999778, 0.000000000000000000, 0.000000000000000000 ) ) ;
#291 = CARTESIAN_POINT ( 'NONE',  ( 0.3499999999999999778, -2.077849108214469886, 2.163918455832460008 ) ) ;
#292 = ADVANCED_FACE ( 'NONE', ( #130 ), #623, .F. ) ;
#293 = EDGE_LOOP ( 'NONE', ( #443, #385, #182, #786 ) ) ;
#294 = CARTESIAN_POINT ( 'NONE',  ( 0.3500000000000065281, -3.600909033967315320, 4.078667204082500497 ) ) ;
#295 = DIRECTION ( 'NONE',  ( 1.000000000000000000, 0.000000000000000000, 0.000000000000000000 ) ) ;
#296 = ORIENTED_EDGE ( 'NONE', *, *, #252, .T. ) ;
#297 = AXIS2_PLACEMENT_3D ( 'NONE', #632, #25, #550 ) ;
#298 = CYLINDRICAL_SURFACE ( 'NONE', #738, 4.402580645161289219 ) ;
#299 = VECTOR ( 'NONE', #321, 999.9999999999998863 ) ;
#300 = CARTESIAN_POINT ( 'NONE',  ( -0.3499999999999999778, 4.378030202150739569, -0.4642928883849000155 ) ) ;
#301 = ORIENTED_EDGE ( 'NONE', *, *, #45, .T. ) ;
#302 = APPROVAL_STATUS ( 'not_yet_approved' ) ;
#303 = EDGE_CURVE ( 'NONE', #412, #393, #582, .T. ) ;
#304 = CARTESIAN_POINT ( 'NONE',  ( -0.3499999999999999778, 0.000000000000000000, 0.000000000000000000 ) ) ;
#305 = DIRECTION ( 'NONE',  ( 0.000000000000000000, 0.000000000000000000, -1.000000000000000000 ) ) ;
#306 = EDGE_LOOP ( 'NONE', ( #329, #547, #96, #463 ) ) ;
#307 = CARTESIAN_POINT ( 'NONE',  ( 0.3499999999999999778, 1.060660171779821859, -2.806243040080455220 ) ) ;
#308 = VERTEX_POINT ( 'NONE', #627 ) ;
#309 = VECTOR ( 'NONE', #273, 1000.000000000000000 ) ;
#310 = VECTOR ( 'NONE', #62, 1000.000000000000000 ) ;
#311 = CARTESIAN_POINT ( 'NONE',  ( -0.3499999999999999778, 3.600909033967315320, 4.078667204082500497 ) ) ;
#312 = ORIENTED_EDGE ( 'NONE', *, *, #615, .F. ) ;
#313 = AXIS2_PLACEMENT_3D ( 'NONE', #229, #472, #718 ) ;
#314 = CARTESIAN_POINT ( 'NONE',  ( 0.3499999999999999778, 1.793077073173179992, -3.556096624794390149 ) ) ;
#315 = ORIENTED_EDGE ( 'NONE', *, *, #552, .T. ) ;
#316 = DIRECTION ( 'NONE',  ( -1.000000000000000000, 0.000000000000000000, 0.000000000000000000 ) ) ;
#317 = CARTESIAN_POINT ( 'NONE',  ( -0.3499999999999999778, -0.9298454172603100032, -2.460139731803864915 ) ) ;
#318 = ORIENTED_EDGE ( 'NONE', *, *, #78, .F. ) ;
#319 = DIRECTION ( 'NONE',  ( 0.000000000000000000, -0.6225146366376198559, 0.7826081568524136944 ) ) ;
#320 = EDGE_CURVE ( 'NONE', #36, #264, #386, .T. ) ;
#321 = DIRECTION ( 'NONE',  ( 0.000000000000000000, 0.3535533905932758403, -0.9354143466934845552 ) ) ;
#322 = CC_DESIGN_APPROVAL ( #67, ( #32 ) ) ;
#323 = ORIENTED_EDGE ( 'NONE', *, *, #21, .F. ) ;
#324 = CIRCLE ( 'NONE', #465, 3.000000000000000000 ) ;
#325 = LINE ( 'NONE', #139, #435 ) ;
#326 = ADVANCED_FACE ( 'NONE', ( #388 ), #89, .F. ) ;
#327 = CC_DESIGN_PERSON_AND_ORGANIZATION_ASSIGNMENT ( #31, #333, ( #156 ) ) ;
#328 = DIRECTION ( 'NONE',  ( 0.000000000000000000, 0.000000000000000000, 1.000000000000000000 ) ) ;
#329 = ORIENTED_EDGE ( 'NONE', *, *, #161, .T. ) ;
#330 = DIRECTION ( 'NONE',  ( 0.000000000000000000, 1.000000000000000000, 0.000000000000000000 ) ) ;
#331 = CARTESIAN_POINT ( 'NONE',  ( 16.50273661024660043, 4.101243703684635200, 3.680683037435204863 ) ) ;
#332 = ORIENTED_EDGE ( 'NONE', *, *, #457, .F. ) ;
#333 = PERSON_AND_ORGANIZATION_ROLE ( 'creator' ) ;
#334 = DIRECTION ( 'NONE',  ( 0.000000000000000000, 1.000000000000000000, 0.000000000000000000 ) ) ;
#335 = VERTEX_POINT ( 'NONE', #575 ) ;
#336 = ADVANCED_FACE ( 'NONE', ( #263 ), #213, .T. ) ;
#337 = PERSON_AND_ORGANIZATION_ROLE ( 'classification_officer' ) ;
#338 = CLOSED_SHELL ( 'NONE', ( #18, #409, #391, #373, #555, #102, #360, #499, #326, #519, #355, #127, #219, #511, #292, #493, #40, #134, #336, #125, #5, #743 ) ) ;
#339 = AXIS2_PLACEMENT_3D ( 'NONE', #762, #630, #340 ) ;
#340 = DIRECTION ( 'NONE',  ( 0.000000000000000000, 0.6225146366376198559, -0.7826081568524138055 ) ) ;
#341 = ORIENTED_EDGE ( 'NONE', *, *, #303, .T. ) ;
#342 = DIRECTION ( 'NONE',  ( -1.000000000000000000, 0.000000000000000000, 0.000000000000000000 ) ) ;
#343 = CARTESIAN_POINT ( 'NONE',  ( -0.3499999999999999778, -0.2184030449376644922, -0.1737256262530365025 ) ) ;
#344 = CARTESIAN_POINT ( 'NONE',  ( 16.50273661024660043, 4.101243703684635200, 4.320000000000000284 ) ) ;
#345 = ORIENTED_EDGE ( 'NONE', *, *, #500, .T. ) ;
#346 = CIRCLE ( 'NONE', #438, 0.4200000000000000400 ) ;
#347 = DIRECTION ( 'NONE',  ( 0.000000000000000000, 0.000000000000000000, 1.000000000000000000 ) ) ;
#348 = CC_DESIGN_DATE_AND_TIME_ASSIGNMENT ( #512, #407, ( #91 ) ) ;
#349 = CARTESIAN_POINT ( 'NONE',  ( -0.3499999999999999778, 2.077849108214469886, 2.163918455832460008 ) ) ;
#350 = VERTEX_POINT ( 'NONE', #579 ) ;
#351 = PLANE ( 'NONE',  #479 ) ;
#352 = CARTESIAN_POINT ( 'NONE',  ( -0.3499999999999999778, 2.629999999999999893, 1.901813667486154864E-15 ) ) ;
#353 = ORIENTED_EDGE ( 'NONE', *, *, #694, .T. ) ;
#354 = CARTESIAN_POINT ( 'NONE',  ( 0.3499999999999999778, -3.000000000000000000, 1.094752490687001840E-15 ) ) ;
#355 = ADVANCED_FACE ( 'NONE', ( #281 ), #266, .F. ) ;
#356 = FACE_OUTER_BOUND ( 'NONE', #254, .T. ) ;
#357 = EDGE_CURVE ( 'NONE', #84, #717, #147, .T. ) ;
#358 = ORIENTED_EDGE ( 'NONE', *, *, #552, .F. ) ;
#359 = DATE_AND_TIME ( #522, #622 ) ;
#360 = ADVANCED_FACE ( 'NONE', ( #513 ), #640, .F. ) ;
#361 = CC_DESIGN_SECURITY_CLASSIFICATION ( #32, ( #156 ) ) ;
#362 = DIRECTION ( 'NONE',  ( 1.000000000000000000, 0.000000000000000000, 0.000000000000000000 ) ) ;
#363 = VECTOR ( 'NONE', #116, 1000.000000000000114 ) ;
#364 = DIRECTION ( 'NONE',  ( 0.000000000000000000, -1.000000000000000000, -1.224606353822375779E-16 ) ) ;
#365 = ORIENTED_EDGE ( 'NONE', *, *, #586, .F. ) ;
#366 = DIRECTION ( 'NONE',  ( 0.000000000000000000, 0.000000000000000000, 1.000000000000000000 ) ) ;
#367 = CARTESIAN_POINT ( 'NONE',  ( 0.3499999999999999778, -3.960372279876389623, -0.4200000000000000400 ) ) ;
#368 = ORIENTED_EDGE ( 'NONE', *, *, #748, .F. ) ;
#369 = PLANE ( 'NONE',  #7 ) ;
#370 = ORIENTED_EDGE ( 'NONE', *, *, #733, .T. ) ;
#371 = LOCAL_TIME ( 22, 49, 37.00000000000000000, #775 ) ;
#372 = LINE ( 'NONE', #190, #501 ) ;
#373 = ADVANCED_FACE ( 'NONE', ( #756 ), #520, .T. ) ;
#374 = CIRCLE ( 'NONE', #260, 4.402580645161289219 ) ;
#375 = VERTEX_POINT ( 'NONE', #442 ) ;
#376 = CARTESIAN_POINT ( 'NONE',  ( -0.3499999999999999778, 4.577045822871290248, 4.107694187173195566 ) ) ;
#377 = ORIENTED_EDGE ( 'NONE', *, *, #303, .F. ) ;
#378 = CYLINDRICAL_SURFACE ( 'NONE', #413, 0.6393169625647951992 ) ;
#379 = CARTESIAN_POINT ( 'NONE',  ( 0.3499999999999999778, -4.378030202150735128, -0.4642928883849010147 ) ) ;
#380 = ORIENTED_EDGE ( 'NONE', *, *, #577, .T. ) ;
#381 = EDGE_CURVE ( 'NONE', #126, #191, #270, .T. ) ;
#382 = CARTESIAN_POINT ( 'NONE',  ( 0.3500000000000065281, -2.077849108214469886, 2.163918455832460008 ) ) ;
#383 = EDGE_CURVE ( 'NONE', #49, #238, #635, .T. ) ;
#384 = CARTESIAN_POINT ( 'NONE',  ( 0.3499999999999999778, -3.960372279876389623, 1.089477331586254123E-15 ) ) ;
#385 = ORIENTED_EDGE ( 'NONE', *, *, #381, .T. ) ;
#386 = CIRCLE ( 'NONE', #173, 0.4199999999999998179 ) ;
#387 = DIRECTION ( 'NONE',  ( 1.000000000000000000, 0.000000000000000000, 0.000000000000000000 ) ) ;
#388 = FACE_OUTER_BOUND ( 'NONE', #6, .T. ) ;
#389 = ORIENTED_EDGE ( 'NONE', *, *, #526, .T. ) ;
#390 = PERSON_AND_ORGANIZATION ( #20, #746 ) ;
#391 = ADVANCED_FACE ( 'NONE', ( #29 ), #22, .T. ) ;
#392 = DIRECTION ( 'NONE',  ( -1.000000000000000000, 0.000000000000000000, 0.000000000000000000 ) ) ;
#393 = VERTEX_POINT ( 'NONE', #384 ) ;
#394 = FACE_OUTER_BOUND ( 'NONE', #606, .T. ) ;
#395 = ORIENTED_EDGE ( 'NONE', *, *, #403, .T. ) ;
#396 = CIRCLE ( 'NONE', #272, 0.6393169625647939780 ) ;
#397 = PERSON_AND_ORGANIZATION ( #20, #746 ) ;
#398 = AXIS2_PLACEMENT_3D ( 'NONE', #719, #104, #167 ) ;
#399 = CIRCLE ( 'NONE', #415, 0.6393169625647951992 ) ;
#400 = CARTESIAN_POINT ( 'NONE',  ( 0.3499999999999999778, -3.960372279876389623, 1.094752490687001840E-15 ) ) ;
#401 = ORIENTED_EDGE ( 'NONE', *, *, #699, .F. ) ;
#402 = APPLICATION_CONTEXT ( 'configuration controlled 3d designs of mechanical parts and assemblies' ) ;
#403 = EDGE_CURVE ( 'NONE', #393, #585, #752, .T. ) ;
#404 = DIRECTION ( 'NONE',  ( 0.000000000000000000, 0.000000000000000000, 1.000000000000000000 ) ) ;
#405 = LINE ( 'NONE', #343, #198 ) ;
#406 = VERTEX_POINT ( 'NONE', #509 ) ;
#407 = DATE_TIME_ROLE ( 'creation_date' ) ;
#408 = CC_DESIGN_PERSON_AND_ORGANIZATION_ASSIGNMENT ( #215, #337, ( #32 ) ) ;
#409 = ADVANCED_FACE ( 'NONE', ( #394 ), #95, .F. ) ;
#410 = DIRECTION ( 'NONE',  ( 1.000000000000000000, 0.000000000000000000, 0.000000000000000000 ) ) ;
#411 = LINE ( 'NONE', #352, #93 ) ;
#412 = VERTEX_POINT ( 'NONE', #379 ) ;
#413 = AXIS2_PLACEMENT_3D ( 'NONE', #242, #265, #261 ) ;
#414 = CIRCLE ( 'NONE', #610, 0.4200000000000000400 ) ;
#415 = AXIS2_PLACEMENT_3D ( 'NONE', #537, #419, #113 ) ;
#416 = DIRECTION ( 'NONE',  ( -1.000000000000000000, 0.000000000000000000, 0.000000000000000000 ) ) ;
#417 = CARTESIAN_POINT ( 'NONE',  ( 0.3499999999999999778, -3.000000000000000000, 1.212360290284153998E-15 ) ) ;
#418 = ORIENTED_EDGE ( 'NONE', *, *, #549, .T. ) ;
#419 = DIRECTION ( 'NONE',  ( 1.000000000000000000, 0.000000000000000000, 0.000000000000000000 ) ) ;
#420 = EDGE_LOOP ( 'NONE', ( #767, #401, #483, #769 ) ) ;
#421 = DIRECTION ( 'NONE',  ( 0.000000000000000000, 0.000000000000000000, 1.000000000000000000 ) ) ;
#422 = LINE ( 'NONE', #589, #620 ) ;
#423 = ORIENTED_EDGE ( 'NONE', *, *, #639, .T. ) ;
#424 = CIRCLE ( 'NONE', #543, 0.6393169625647951992 ) ;
#425 = CARTESIAN_POINT ( 'NONE',  ( 0.3499999999999999778, 1.400203047561916048, -3.704589048843565546 ) ) ;
#426 = AXIS2_PLACEMENT_3D ( 'NONE', #662, #109, #178 ) ;
#427 = AXIS2_PLACEMENT_3D ( 'NONE', #367, #72, #124 ) ;
#428 = CARTESIAN_POINT ( 'NONE',  ( 0.3499999999999999778, 0.9298454172603100032, -2.460139731803864915 ) ) ;
#429 = ORIENTED_EDGE ( 'NONE', *, *, #170, .T. ) ;
#430 = CARTESIAN_POINT ( 'NONE',  ( -0.3499999999999999778, 0.000000000000000000, 0.000000000000000000 ) ) ;
#431 = ORIENTED_EDGE ( 'NONE', *, *, #526, .F. ) ;
#432 = EDGE_CURVE ( 'NONE', #574, #36, #86, .T. ) ;
#433 = CARTESIAN_POINT ( 'NONE',  ( 0.3500000000000065281, 3.600909033967315320, 4.078667204082500497 ) ) ;
#434 = ORIENTED_EDGE ( 'NONE', *, *, #699, .T. ) ;
#435 = VECTOR ( 'NONE', #330, 1000.000000000000000 ) ;
#436 = AXIS2_PLACEMENT_3D ( 'NONE', #657, #230, #111 ) ;
#437 = DIRECTION ( 'NONE',  ( -1.000000000000000000, 0.000000000000000000, 0.000000000000000000 ) ) ;
#438 = AXIS2_PLACEMENT_3D ( 'NONE', #98, #342, #103 ) ;
#439 = VERTEX_POINT ( 'NONE', #569 ) ;
#440 = CARTESIAN_POINT ( 'NONE',  ( 0.3500000000000065281, 0.2184030449376644922, -0.1737256262530365025 ) ) ;
#441 = EDGE_CURVE ( 'NONE', #84, #179, #204, .T. ) ;
#442 = CARTESIAN_POINT ( 'NONE',  ( -0.3499999999999999778, -1.060660171779821859, -2.806243040080455220 ) ) ;
#443 = ORIENTED_EDGE ( 'NONE', *, *, #706, .T. ) ;
#444 = DIRECTION ( 'NONE',  ( 0.000000000000000000, 0.000000000000000000, 1.000000000000000000 ) ) ;
#445 = CARTESIAN_POINT ( 'NONE',  ( -0.3499999999999999778, 0.2184030449376644922, -0.1737256262530365025 ) ) ;
#446 = VERTEX_POINT ( 'NONE', #634 ) ;
#447 = DIRECTION ( 'NONE',  ( 1.000000000000000000, 0.000000000000000000, 0.000000000000000000 ) ) ;
#448 = DIRECTION ( 'NONE',  ( 1.000000000000000000, 0.000000000000000000, 0.000000000000000000 ) ) ;
#449 = AXIS2_PLACEMENT_3D ( 'NONE', #13, #1, #564 ) ;
#450 = EDGE_LOOP ( 'NONE', ( #571, #702, #365, #678, #353, #389, #712, #87, #644, #515, #315, #345, #669, #341, #395, #753, #370, #598, #602, #12 ) ) ;
#451 = CIRCLE ( 'NONE', #259, 0.4199999999999998179 ) ;
#452 = VECTOR ( 'NONE', #772, 1000.000000000000000 ) ;
#453 = PERSON_AND_ORGANIZATION_ROLE ( 'design_supplier' ) ;
#454 = CARTESIAN_POINT ( 'NONE',  ( 0.3499999999999999778, 0.000000000000000000, 0.000000000000000000 ) ) ;
#455 = EDGE_LOOP ( 'NONE', ( #56, #693, #495, #193 ) ) ;
#456 = PERSON_AND_ORGANIZATION_ROLE ( 'creator' ) ;
#457 = EDGE_CURVE ( 'NONE', #507, #205, #83, .T. ) ;
#458 = CARTESIAN_POINT ( 'NONE',  ( 0.3499999999999999778, 2.077849108214469886, 2.163918455832460008 ) ) ;
#459 = EDGE_LOOP ( 'NONE', ( #258, #429, #368, #267 ) ) ;
#460 = CALENDAR_DATE ( 2025, 7, 3 ) ;
#461 = LINE ( 'NONE', #400, #70 ) ;
#462 = EDGE_CURVE ( 'NONE', #49, #282, #110, .T. ) ;
#463 = ORIENTED_EDGE ( 'NONE', *, *, #624, .F. ) ;
#464 = CIRCLE ( 'NONE', #118, 3.000000000000000000 ) ;
#465 = AXIS2_PLACEMENT_3D ( 'NONE', #247, #117, #305 ) ;
#466 = FACE_OUTER_BOUND ( 'NONE', #202, .T. ) ;
#467 = DIRECTION ( 'NONE',  ( -1.000000000000000000, 0.000000000000000000, 0.000000000000000000 ) ) ;
#468 = CC_DESIGN_PERSON_AND_ORGANIZATION_ASSIGNMENT ( #397, #453, ( #156 ) ) ;
#469 = CC_DESIGN_PERSON_AND_ORGANIZATION_ASSIGNMENT ( #218, #590, ( #159 ) ) ;
#470 = ORIENTED_EDGE ( 'NONE', *, *, #778, .T. ) ;
#471 = CARTESIAN_POINT ( 'NONE',  ( 0.000000000000000000, 0.000000000000000000, 0.000000000000000000 ) ) ;
#472 = DIRECTION ( 'NONE',  ( -1.000000000000000000, 0.000000000000000000, 0.000000000000000000 ) ) ;
#473 = CARTESIAN_POINT ( 'NONE',  ( 0.3500000000000065281, 4.577045822871290248, 4.107694187173195566 ) ) ;
#474 = ORIENTED_EDGE ( 'NONE', *, *, #615, .T. ) ;
#475 = LINE ( 'NONE', #344, #274 ) ;
#476 = DIRECTION ( 'NONE',  ( 0.000000000000000000, -1.224606353822375779E-16, 1.000000000000000000 ) ) ;
#477 = ORIENTED_EDGE ( 'NONE', *, *, #549, .F. ) ;
#478 = EDGE_CURVE ( 'NONE', #613, #105, #533, .T. ) ;
#479 = AXIS2_PLACEMENT_3D ( 'NONE', #158, #545, #656 ) ;
#480 = VECTOR ( 'NONE', #638, 1000.000000000000000 ) ;
#481 = CARTESIAN_POINT ( 'NONE',  ( 0.3499999999999999778, -1.982173650953144906, -3.931119936432350137 ) ) ;
#482 = CARTESIAN_POINT ( 'NONE',  ( 0.3499999999999999778, -4.101243703684635200, 4.320000000000000284 ) ) ;
#483 = ORIENTED_EDGE ( 'NONE', *, *, #563, .T. ) ;
#484 = CARTESIAN_POINT ( 'NONE',  ( -0.3499999999999999778, 4.101243703684635200, 3.680683037435204863 ) ) ;
#485 = FACE_OUTER_BOUND ( 'NONE', #734, .T. ) ;
#486 = ORIENTED_EDGE ( 'NONE', *, *, #789, .F. ) ;
#487 = PERSON_AND_ORGANIZATION ( #20, #746 ) ;
#488 = CARTESIAN_POINT ( 'NONE',  ( -0.3499999999999999778, -4.577045822871290248, 4.107694187173195566 ) ) ;
#489 = DIRECTION ( 'NONE',  ( 0.000000000000000000, 0.000000000000000000, 1.000000000000000000 ) ) ;
#490 = ORIENTED_EDGE ( 'NONE', *, *, #491, .T. ) ;
#491 = EDGE_CURVE ( 'NONE', #60, #393, #461, .T. ) ;
#492 = DIRECTION ( 'NONE',  ( -1.000000000000000000, 0.000000000000000000, 0.000000000000000000 ) ) ;
#493 = ADVANCED_FACE ( 'NONE', ( #57 ), #298, .F. ) ;
#494 = CARTESIAN_POINT ( 'NONE',  ( 0.3499999999999999778, 4.378030202150739569, -0.4642928883849000155 ) ) ;
#495 = ORIENTED_EDGE ( 'NONE', *, *, #553, .T. ) ;
#496 = DIRECTION ( 'NONE',  ( 1.000000000000000000, 0.000000000000000000, 0.000000000000000000 ) ) ;
#497 = VERTEX_POINT ( 'NONE', #41 ) ;
#498 = DIRECTION ( 'NONE',  ( 1.000000000000000000, 0.000000000000000000, 0.000000000000000000 ) ) ;
#499 = ADVANCED_FACE ( 'NONE', ( #172 ), #534, .F. ) ;
#500 = EDGE_CURVE ( 'NONE', #740, #350, #94, .T. ) ;
#501 = VECTOR ( 'NONE', #496, 1000.000000000000000 ) ;
#502 = CARTESIAN_POINT ( 'NONE',  ( -0.3499999999999999778, 1.982173650953144906, -3.931119936432350137 ) ) ;
#503 = CIRCLE ( 'NONE', #761, 0.4200000000000000400 ) ;
#504 = EDGE_LOOP ( 'NONE', ( #53, #135, #187, #251 ) ) ;
#505 = DIRECTION ( 'NONE',  ( 0.000000000000000000, 0.000000000000000000, 1.000000000000000000 ) ) ;
#506 = DIRECTION ( 'NONE',  ( 1.000000000000000000, 0.000000000000000000, 0.000000000000000000 ) ) ;
#507 = VERTEX_POINT ( 'NONE', #783 ) ;
#508 = LINE ( 'NONE', #747, #647 ) ;
#509 = CARTESIAN_POINT ( 'NONE',  ( 0.3499999999999999778, 4.101243703684635200, 4.320000000000000284 ) ) ;
#510 = ORIENTED_EDGE ( 'NONE', *, *, #16, .T. ) ;
#511 = ADVANCED_FACE ( 'NONE', ( #722 ), #351, .F. ) ;
#512 = DATE_AND_TIME ( #228, #371 ) ;
#513 = FACE_OUTER_BOUND ( 'NONE', #757, .T. ) ;
#514 = VECTOR ( 'NONE', #686, 1000.000000000000000 ) ;
#515 = ORIENTED_EDGE ( 'NONE', *, *, #563, .F. ) ;
#516 = AXIS2_PLACEMENT_3D ( 'NONE', #151, #768, #766 ) ;
#517 = AXIS2_PLACEMENT_3D ( 'NONE', #758, #43, #705 ) ;
#518 = COORDINATED_UNIVERSAL_TIME_OFFSET ( 6, 0, .BEHIND. ) ;
#519 = ADVANCED_FACE ( 'NONE', ( #599 ), #232, .F. ) ;
#520 = CYLINDRICAL_SURFACE ( 'NONE', #516, 6.150000000000000355 ) ;
#521 = EDGE_LOOP ( 'NONE', ( #560, #76, #234, #249 ) ) ;
#522 = CALENDAR_DATE ( 2025, 7, 3 ) ;
#523 = DIRECTION ( 'NONE',  ( -1.000000000000000000, 0.000000000000000000, 0.000000000000000000 ) ) ;
#524 = ORIENTED_EDGE ( 'NONE', *, *, #320, .T. ) ;
#525 = DIRECTION ( 'NONE',  ( 0.000000000000000000, 0.000000000000000000, 1.000000000000000000 ) ) ;
#526 = EDGE_CURVE ( 'NONE', #205, #446, #346, .T. ) ;
#527 = DIRECTION ( 'NONE',  ( 0.000000000000000000, 0.000000000000000000, 1.000000000000000000 ) ) ;
#528 = EDGE_CURVE ( 'NONE', #406, #278, #475, .T. ) ;
#529 = CARTESIAN_POINT ( 'NONE',  ( -0.3499999999999999778, -3.960372279876389623, 1.089477331586254123E-15 ) ) ;
#530 = CIRCLE ( 'NONE', #275, 4.402580645161289219 ) ;
#531 = CARTESIAN_POINT ( 'NONE',  ( -0.3499999999999999778, -1.400203047561916048, -3.704589048843565546 ) ) ;
#532 = AXIS2_PLACEMENT_3D ( 'NONE', #546, #476, #724 ) ;
#533 = CIRCLE ( 'NONE', #188, 3.000000000000000000 ) ;
#534 = CYLINDRICAL_SURFACE ( 'NONE', #621, 3.000000000000000000 ) ;
#535 = DIRECTION ( 'NONE',  ( 0.000000000000000000, 0.000000000000000000, 1.000000000000000000 ) ) ;
#536 = ORIENTED_EDGE ( 'NONE', *, *, #211, .F. ) ;
#537 = CARTESIAN_POINT ( 'NONE',  ( -0.3499999999999999778, 4.101243703684635200, 3.680683037435204863 ) ) ;
#538 = FACE_OUTER_BOUND ( 'NONE', #521, .T. ) ;
#539 = ORIENTED_EDGE ( 'NONE', *, *, #245, .T. ) ;
#540 = DIRECTION ( 'NONE',  ( -1.000000000000000000, 0.000000000000000000, 0.000000000000000000 ) ) ;
#541 = CARTESIAN_POINT ( 'NONE',  ( -0.3499999999999999778, 0.000000000000000000, 0.000000000000000000 ) ) ;
#542 = ORIENTED_EDGE ( 'NONE', *, *, #161, .F. ) ;
#543 = AXIS2_PLACEMENT_3D ( 'NONE', #484, #498, #183 ) ;
#544 = VECTOR ( 'NONE', #727, 1000.000000000000000 ) ;
#545 = DIRECTION ( 'NONE',  ( 0.000000000000000000, 0.9354143466934845552, -0.3535533905932758403 ) ) ;
#546 = CARTESIAN_POINT ( 'NONE',  ( 0.3499999999999999778, -2.629999999999999893, 1.257670725375581854E-15 ) ) ;
#547 = ORIENTED_EDGE ( 'NONE', *, *, #186, .F. ) ;
#548 = CALENDAR_DATE ( 2025, 7, 3 ) ;
#549 = EDGE_CURVE ( 'NONE', #566, #439, #284, .T. ) ;
#550 = DIRECTION ( 'NONE',  ( 0.000000000000000000, 0.000000000000000000, 1.000000000000000000 ) ) ;
#551 = LINE ( 'NONE', #749, #132 ) ;
#552 = EDGE_CURVE ( 'NONE', #497, #740, #596, .T. ) ;
#553 = EDGE_CURVE ( 'NONE', #15, #350, #671, .T. ) ;
#554 = DIRECTION ( 'NONE',  ( -1.000000000000000000, 0.000000000000000000, 0.000000000000000000 ) ) ;
#555 = ADVANCED_FACE ( 'NONE', ( #466 ), #776, .T. ) ;
#556 = VERTEX_POINT ( 'NONE', #166 ) ;
#557 = APPROVAL_PERSON_ORGANIZATION ( #487, #67, #793 ) ;
#558 = AXIS2_PLACEMENT_3D ( 'NONE', #709, #780, #347 ) ;
#559 = DIRECTION ( 'NONE',  ( 0.000000000000000000, 0.000000000000000000, 1.000000000000000000 ) ) ;
#560 = ORIENTED_EDGE ( 'NONE', *, *, #675, .T. ) ;
#561 = DIRECTION ( 'NONE',  ( 0.000000000000000000, 0.000000000000000000, 1.000000000000000000 ) ) ;
#562 = ORIENTED_EDGE ( 'NONE', *, *, #478, .T. ) ;
#563 = EDGE_CURVE ( 'NONE', #497, #619, #763, .T. ) ;
#564 = DIRECTION ( 'NONE',  ( 0.000000000000000000, 0.000000000000000000, -1.000000000000000000 ) ) ;
#565 = DIRECTION ( 'NONE',  ( 0.000000000000000000, 1.032573497605242816E-15, 1.000000000000000000 ) ) ;
#566 = VERTEX_POINT ( 'NONE', #660 ) ;
#567 = CARTESIAN_POINT ( 'NONE',  ( 0.3500000000000065281, -0.2184030449376644922, -0.1737256262530365025 ) ) ;
#568 = CIRCLE ( 'NONE', #223, 0.6393169625647951992 ) ;
#569 = CARTESIAN_POINT ( 'NONE',  ( -0.3499999999999999778, -3.600909033967315320, 4.078667204082500497 ) ) ;
#570 = VECTOR ( 'NONE', #225, 999.9999999999998863 ) ;
#571 = ORIENTED_EDGE ( 'NONE', *, *, #788, .T. ) ;
#572 = CARTESIAN_POINT ( 'NONE',  ( 0.3499999999999999778, -1.060660171779821859, -2.806243040080455220 ) ) ;
#573 = DIRECTION ( 'NONE',  ( 0.000000000000000000, 1.000000000000000000, 0.000000000000000000 ) ) ;
#574 = VERTEX_POINT ( 'NONE', #177 ) ;
#575 = CARTESIAN_POINT ( 'NONE',  ( -0.3499999999999999778, 3.000000000000000000, 1.947124102577580156E-15 ) ) ;
#576 = ORIENTED_EDGE ( 'NONE', *, *, #243, .F. ) ;
#577 = EDGE_CURVE ( 'NONE', #282, #278, #399, .T. ) ;
#578 = APPROVAL_STATUS ( 'not_yet_approved' ) ;
#579 = CARTESIAN_POINT ( 'NONE',  ( 0.3499999999999999778, -1.982173650953144906, -3.931119936432350137 ) ) ;
#580 = CIRCLE ( 'NONE', #297, 0.4199999999999998179 ) ;
#581 = ORIENTED_EDGE ( 'NONE', *, *, #144, .T. ) ;
#582 = CIRCLE ( 'NONE', #427, 0.4200000000000000400 ) ;
#583 = COORDINATED_UNIVERSAL_TIME_OFFSET ( 6, 0, .BEHIND. ) ;
#584 = DIRECTION ( 'NONE',  ( 0.000000000000000000, 0.000000000000000000, 1.000000000000000000 ) ) ;
#585 = VERTEX_POINT ( 'NONE', #354 ) ;
#586 = EDGE_CURVE ( 'NONE', #717, #131, #681, .T. ) ;
#587 = APPLICATION_PROTOCOL_DEFINITION ( 'international standard', 'config_control_design', 1994, #24 ) ;
#588 = DIRECTION ( 'NONE',  ( -1.000000000000000000, 0.000000000000000000, 0.000000000000000000 ) ) ;
#589 = CARTESIAN_POINT ( 'NONE',  ( 0.3499999999999999778, -1.400203047561916048, -3.704589048843565546 ) ) ;
#590 = PERSON_AND_ORGANIZATION_ROLE ( 'design_owner' ) ;
#591 = DIRECTION ( 'NONE',  ( -1.000000000000000000, 0.000000000000000000, 0.000000000000000000 ) ) ;
#592 =( GEOMETRIC_REPRESENTATION_CONTEXT ( 3 ) GLOBAL_UNCERTAINTY_ASSIGNED_CONTEXT ( ( #207 ) ) GLOBAL_UNIT_ASSIGNED_CONTEXT ( ( #149, #659, #92 ) ) REPRESENTATION_CONTEXT ( 'NONE', 'WORKASPACE' ) );
#593 = ORIENTED_EDGE ( 'NONE', *, *, #441, .T. ) ;
#594 = CIRCLE ( 'NONE', #711, 0.6393169625647939780 ) ;
#595 = AXIS2_PLACEMENT_3D ( 'NONE', #128, #201, #192 ) ;
#596 = LINE ( 'NONE', #236, #570 ) ;
#597 = CARTESIAN_POINT ( 'NONE',  ( -0.3499999999999999778, -1.982173650953144906, -3.931119936432350137 ) ) ;
#598 = ORIENTED_EDGE ( 'NONE', *, *, #679, .F. ) ;
#599 = FACE_OUTER_BOUND ( 'NONE', #649, .T. ) ;
#600 = CYLINDRICAL_SURFACE ( 'NONE', #426, 0.4200000000000000400 ) ;
#601 = APPROVAL ( #578, 'UNSPECIFIED' ) ;
#602 = ORIENTED_EDGE ( 'NONE', *, *, #706, .F. ) ;
#603 = COORDINATED_UNIVERSAL_TIME_OFFSET ( 6, 0, .BEHIND. ) ;
#604 = CARTESIAN_POINT ( 'NONE',  ( -0.3499999999999999778, 0.000000000000000000, 0.000000000000000000 ) ) ;
#605 = CARTESIAN_POINT ( 'NONE',  ( 0.3499999999999999778, 1.793077073173179992, -3.556096624794390149 ) ) ;
#606 = EDGE_LOOP ( 'NONE', ( #112, #477, #39, #301 ) ) ;
#607 = APPROVAL_PERSON_ORGANIZATION ( #390, #614, #106 ) ;
#608 = EDGE_CURVE ( 'NONE', #129, #507, #503, .T. ) ;
#609 = AXIS2_PLACEMENT_3D ( 'NONE', #764, #704, #152 ) ;
#610 = AXIS2_PLACEMENT_3D ( 'NONE', #77, #362, #691 ) ;
#611 = CARTESIAN_POINT ( 'NONE',  ( 0.3499999999999999778, 1.400203047561916048, -3.704589048843565546 ) ) ;
#612 = LINE ( 'NONE', #433, #760 ) ;
#613 = VERTEX_POINT ( 'NONE', #674 ) ;
#614 = APPROVAL ( #269, 'UNSPECIFIED' ) ;
#615 = EDGE_CURVE ( 'NONE', #60, #556, #414, .T. ) ;
#616 = CARTESIAN_POINT ( 'NONE',  ( 0.3499999999999999778, 0.000000000000000000, 0.000000000000000000 ) ) ;
#617 = ORIENTED_EDGE ( 'NONE', *, *, #675, .F. ) ;
#618 = CARTESIAN_POINT ( 'NONE',  ( 0.3499999999999999778, 1.400203047561916048, -3.704589048843565546 ) ) ;
#619 = VERTEX_POINT ( 'NONE', #629 ) ;
#620 = VECTOR ( 'NONE', #66, 1000.000000000000000 ) ;
#621 = AXIS2_PLACEMENT_3D ( 'NONE', #220, #540, #404 ) ;
#622 = LOCAL_TIME ( 22, 49, 37.00000000000000000, #583 ) ;
#623 = CYLINDRICAL_SURFACE ( 'NONE', #595, 0.4199999999999998179 ) ;
#624 = EDGE_CURVE ( 'NONE', #556, #15, #374, .T. ) ;
#625 = ORIENTED_EDGE ( 'NONE', *, *, #679, .T. ) ;
#626 = CARTESIAN_POINT ( 'NONE',  ( 0.3499999999999999778, 3.000000000000000000, 1.901813667486154864E-15 ) ) ;
#627 = CARTESIAN_POINT ( 'NONE',  ( 0.3499999999999999778, 1.982173650953144906, -3.931119936432350137 ) ) ;
#628 = ORIENTED_EDGE ( 'NONE', *, *, #608, .T. ) ;
#629 = CARTESIAN_POINT ( 'NONE',  ( 0.3499999999999999778, 1.060660171779821859, -2.806243040080455220 ) ) ;
#630 = DIRECTION ( 'NONE',  ( 0.000000000000000000, -0.7826081568524138055, -0.6225146366376198559 ) ) ;
#631 = ORIENTED_EDGE ( 'NONE', *, *, #478, .F. ) ;
#632 = CARTESIAN_POINT ( 'NONE',  ( -0.3499999999999999778, -1.793077073173179992, -3.556096624794390149 ) ) ;
#633 = AXIS2_PLACEMENT_3D ( 'NONE', #616, #64, #489 ) ;
#634 = CARTESIAN_POINT ( 'NONE',  ( 0.3499999999999999778, 4.378030202150739569, -0.4642928883849000155 ) ) ;
#635 = CIRCLE ( 'NONE', #773, 6.150000000000000355 ) ;
#636 = ORIENTED_EDGE ( 'NONE', *, *, #235, .F. ) ;
#637 = EDGE_CURVE ( 'NONE', #717, #654, #121, .T. ) ;
#638 = DIRECTION ( 'NONE',  ( 1.000000000000000000, 0.000000000000000000, 0.000000000000000000 ) ) ;
#639 = EDGE_CURVE ( 'NONE', #36, #231, #200, .T. ) ;
#640 = CYLINDRICAL_SURFACE ( 'NONE', #725, 3.000000000000000000 ) ;
#641 = ORIENTED_EDGE ( 'NONE', *, *, #651, .F. ) ;
#642 = DATE_AND_TIME ( #28, #257 ) ;
#643 = DIRECTION ( 'NONE',  ( 0.000000000000000000, -1.224606353822379970E-16, 1.000000000000000000 ) ) ;
#644 = ORIENTED_EDGE ( 'NONE', *, *, #748, .T. ) ;
#645 = PERSON_AND_ORGANIZATION ( #20, #746 ) ;
#646 = DIRECTION ( 'NONE',  ( 0.000000000000000000, 0.000000000000000000, -1.000000000000000000 ) ) ;
#647 = VECTOR ( 'NONE', #755, 1000.000000000000000 ) ;
#648 = AXIS2_PLACEMENT_3D ( 'NONE', #541, #52, #288 ) ;
#649 = EDGE_LOOP ( 'NONE', ( #332, #658, #176, #431 ) ) ;
#650 = AXIS2_PLACEMENT_3D ( 'NONE', #331, #707, #584 ) ;
#651 = EDGE_CURVE ( 'NONE', #264, #129, #530, .T. ) ;
#652 = DIRECTION ( 'NONE',  ( -1.000000000000000000, 0.000000000000000000, 0.000000000000000000 ) ) ;
#653 = CARTESIAN_POINT ( 'NONE',  ( 0.3499999999999999778, 3.960372279876389623, -0.4200000000000000400 ) ) ;
#654 = VERTEX_POINT ( 'NONE', #626 ) ;
#655 = DATE_AND_TIME ( #460, #661 ) ;
#656 = DIRECTION ( 'NONE',  ( -1.000000000000000000, 0.000000000000000000, 0.000000000000000000 ) ) ;
#657 = CARTESIAN_POINT ( 'NONE',  ( 0.3500000000000065281, 0.2184030449376644922, -0.1737256262530365025 ) ) ;
#658 = ORIENTED_EDGE ( 'NONE', *, *, #608, .F. ) ;
#659 =( NAMED_UNIT ( * ) PLANE_ANGLE_UNIT ( ) SI_UNIT ( $, .RADIAN. ) );
#660 = CARTESIAN_POINT ( 'NONE',  ( 0.3500000000000065281, -3.600909033967315320, 4.078667204082500497 ) ) ;
#661 = LOCAL_TIME ( 22, 49, 37.00000000000000000, #518 ) ;
#662 = CARTESIAN_POINT ( 'NONE',  ( 0.3499999999999999778, -3.960372279876389623, -0.4200000000000000400 ) ) ;
#663 = ORIENTED_EDGE ( 'NONE', *, *, #577, .F. ) ;
#664 = AXIS2_PLACEMENT_3D ( 'NONE', #667, #682, #739 ) ;
#665 = DIRECTION ( 'NONE',  ( 0.000000000000000000, 0.000000000000000000, 1.000000000000000000 ) ) ;
#666 = EDGE_CURVE ( 'NONE', #278, #179, #424, .T. ) ;
#667 = CARTESIAN_POINT ( 'NONE',  ( -0.3499999999999999778, -4.101243703684635200, 3.680683037435204863 ) ) ;
#668 = MANIFOLD_SOLID_BREP ( 'NONE', #338 ) ;
#669 = ORIENTED_EDGE ( 'NONE', *, *, #186, .T. ) ;
#670 = SHAPE_DEFINITION_REPRESENTATION ( #276, #677 ) ;
#671 = LINE ( 'NONE', #481, #544 ) ;
#672 = FACE_OUTER_BOUND ( 'NONE', #504, .T. ) ;
#673 = ORIENTED_EDGE ( 'NONE', *, *, #150, .T. ) ;
#674 = CARTESIAN_POINT ( 'NONE',  ( -0.3499999999999999778, -3.000000000000000000, 1.212360290284153998E-15 ) ) ;
#675 = EDGE_CURVE ( 'NONE', #84, #335, #688, .T. ) ;
#676 = LINE ( 'NONE', #494, #514 ) ;
#677 = ADVANCED_BREP_SHAPE_REPRESENTATION ( '2106 Series 8mm REX e-clip.STEP_Default_sldprt', ( #668, #175 ), #592 ) ;
#678 = ORIENTED_EDGE ( 'NONE', *, *, #637, .T. ) ;
#679 = EDGE_CURVE ( 'NONE', #126, #566, #196, .T. ) ;
#680 = AXIS2_PLACEMENT_3D ( 'NONE', #38, #26, #334 ) ;
#681 = LINE ( 'NONE', #440, #363 ) ;
#682 = DIRECTION ( 'NONE',  ( -1.000000000000000000, 0.000000000000000000, 0.000000000000000000 ) ) ;
#683 = ORIENTED_EDGE ( 'NONE', *, *, #432, .T. ) ;
#684 = CARTESIAN_POINT ( 'NONE',  ( -0.3499999999999999778, 4.101243703684635200, 4.320000000000000284 ) ) ;
#685 = ORIENTED_EDGE ( 'NONE', *, *, #268, .T. ) ;
#686 = DIRECTION ( 'NONE',  ( 1.000000000000000000, 0.000000000000000000, 0.000000000000000000 ) ) ;
#687 = ORIENTED_EDGE ( 'NONE', *, *, #666, .F. ) ;
#688 = CIRCLE ( 'NONE', #246, 3.000000000000000000 ) ;
#689 = DIRECTION ( 'NONE',  ( -1.000000000000000000, 0.000000000000000000, 0.000000000000000000 ) ) ;
#690 = EDGE_LOOP ( 'NONE', ( #318, #115, #750, #209 ) ) ;
#691 = DIRECTION ( 'NONE',  ( 0.000000000000000000, 0.000000000000000000, 1.000000000000000000 ) ) ;
#692 = CARTESIAN_POINT ( 'NONE',  ( 16.50273661024660043, -4.101243703684635200, 4.320000000000000284 ) ) ;
#693 = ORIENTED_EDGE ( 'NONE', *, *, #731, .F. ) ;
#694 = EDGE_CURVE ( 'NONE', #654, #205, #325, .T. ) ;
#695 = CARTESIAN_POINT ( 'NONE',  ( 0.3499999999999999778, -4.101243703684635200, 3.680683037435204863 ) ) ;
#696 = DIRECTION ( 'NONE',  ( 0.000000000000000000, 0.6225146366376198559, 0.7826081568524136944 ) ) ;
#697 = ORIENTED_EDGE ( 'NONE', *, *, #268, .F. ) ;
#698 = DIRECTION ( 'NONE',  ( -1.000000000000000000, 0.000000000000000000, 0.000000000000000000 ) ) ;
#699 = EDGE_CURVE ( 'NONE', #497, #375, #136, .T. ) ;
#700 = CARTESIAN_POINT ( 'NONE',  ( 0.3499999999999999778, 2.629999999999999893, 1.901813667486154864E-15 ) ) ;
#701 = VECTOR ( 'NONE', #448, 1000.000000000000000 ) ;
#702 = ORIENTED_EDGE ( 'NONE', *, *, #78, .T. ) ;
#703 = DIRECTION ( 'NONE',  ( 0.000000000000000000, 0.000000000000000000, 1.000000000000000000 ) ) ;
#704 = DIRECTION ( 'NONE',  ( -1.000000000000000000, 0.000000000000000000, 0.000000000000000000 ) ) ;
#705 = DIRECTION ( 'NONE',  ( 0.000000000000000000, 0.000000000000000000, -1.000000000000000000 ) ) ;
#706 = EDGE_CURVE ( 'NONE', #238, #126, #396, .T. ) ;
#707 = DIRECTION ( 'NONE',  ( -1.000000000000000000, 0.000000000000000000, 0.000000000000000000 ) ) ;
#708 = EDGE_LOOP ( 'NONE', ( #65, #90, #164, #380 ) ) ;
#709 = CARTESIAN_POINT ( 'NONE',  ( 0.3499999999999999778, -1.793077073173179992, -3.556096624794390149 ) ) ;
#710 = CC_DESIGN_APPROVAL ( #614, ( #156 ) ) ;
#711 = AXIS2_PLACEMENT_3D ( 'NONE', #55, #295, #163 ) ;
#712 = ORIENTED_EDGE ( 'NONE', *, *, #211, .T. ) ;
#713 = CIRCLE ( 'NONE', #664, 0.6393169625647951992 ) ;
#714 = PERSON_AND_ORGANIZATION ( #20, #746 ) ;
#715 = CARTESIAN_POINT ( 'NONE',  ( 0.3499999999999999778, 0.000000000000000000, 0.000000000000000000 ) ) ;
#716 = PLANE ( 'NONE',  #648 ) ;
#717 = VERTEX_POINT ( 'NONE', #74 ) ;
#718 = DIRECTION ( 'NONE',  ( 0.000000000000000000, 0.000000000000000000, 1.000000000000000000 ) ) ;
#719 = CARTESIAN_POINT ( 'NONE',  ( 0.3499999999999999778, 0.000000000000000000, 0.000000000000000000 ) ) ;
#720 = ORIENTED_EDGE ( 'NONE', *, *, #754, .T. ) ;
#721 = PRODUCT_RELATED_PRODUCT_CATEGORY ( 'detail', '', ( #159 ) ) ;
#722 = FACE_OUTER_BOUND ( 'NONE', #214, .T. ) ;
#723 = APPROVAL_PERSON_ORGANIZATION ( #714, #601, #37 ) ;
#724 = DIRECTION ( 'NONE',  ( 0.000000000000000000, -1.000000000000000000, -1.224606353822375779E-16 ) ) ;
#725 = AXIS2_PLACEMENT_3D ( 'NONE', #277, #523, #328 ) ;
#726 = CIRCLE ( 'NONE', #517, 0.6393169625647939780 ) ;
#727 = DIRECTION ( 'NONE',  ( 1.000000000000000000, 0.000000000000000000, 0.000000000000000000 ) ) ;
#728 = CYLINDRICAL_SURFACE ( 'NONE', #145, 0.4199999999999998179 ) ;
#729 = VERTEX_POINT ( 'NONE', #382 ) ;
#730 = DIRECTION ( 'NONE',  ( -1.000000000000000000, 0.000000000000000000, 0.000000000000000000 ) ) ;
#731 = EDGE_CURVE ( 'NONE', #15, #782, #580, .T. ) ;
#732 = FACE_OUTER_BOUND ( 'NONE', #119, .T. ) ;
#733 = EDGE_CURVE ( 'NONE', #729, #566, #143, .T. ) ;
#734 = EDGE_LOOP ( 'NONE', ( #542, #312, #490, #377 ) ) ;
#735 = LINE ( 'NONE', #425, #107 ) ;
#736 = DIRECTION ( 'NONE',  ( 0.000000000000000000, -0.9354143466934845552, -0.3535533905932758403 ) ) ;
#737 = ORIENTED_EDGE ( 'NONE', *, *, #462, .F. ) ;
#738 = AXIS2_PLACEMENT_3D ( 'NONE', #715, #416, #527 ) ;
#739 = DIRECTION ( 'NONE',  ( 0.000000000000000000, 0.000000000000000000, 1.000000000000000000 ) ) ;
#740 = VERTEX_POINT ( 'NONE', #790 ) ;
#741 = DIRECTION ( 'NONE',  ( 0.000000000000000000, 0.3535533905932758403, 0.9354143466934845552 ) ) ;
#742 = ORIENTED_EDGE ( 'NONE', *, *, #122, .F. ) ;
#743 = ADVANCED_FACE ( 'NONE', ( #239 ), #378, .T. ) ;
#744 = DIRECTION ( 'NONE',  ( -1.000000000000000000, 0.000000000000000000, 0.000000000000000000 ) ) ;
#745 = VERTEX_POINT ( 'NONE', #488 ) ;
#746 = ORGANIZATION ( 'UNSPECIFIED', 'UNSPECIFIED', '' ) ;
#747 = CARTESIAN_POINT ( 'NONE',  ( 0.3499999999999999778, 3.000000000000000000, 1.947124102577580156E-15 ) ) ;
#748 = EDGE_CURVE ( 'NONE', #231, #619, #735, .T. ) ;
#749 = CARTESIAN_POINT ( 'NONE',  ( -0.3499999999999999778, -2.629999999999999893, 1.257670725375581854E-15 ) ) ;
#750 = ORIENTED_EDGE ( 'NONE', *, *, #666, .T. ) ;
#751 = DIRECTION ( 'NONE',  ( -1.000000000000000000, 0.000000000000000000, 0.000000000000000000 ) ) ;
#752 = LINE ( 'NONE', #153, #33 ) ;
#753 = ORIENTED_EDGE ( 'NONE', *, *, #252, .F. ) ;
#754 = EDGE_CURVE ( 'NONE', #654, #335, #508, .T. ) ;
#755 = DIRECTION ( 'NONE',  ( -1.000000000000000000, 0.000000000000000000, 0.000000000000000000 ) ) ;
#756 = FACE_OUTER_BOUND ( 'NONE', #3, .T. ) ;
#757 = EDGE_LOOP ( 'NONE', ( #296, #138, #562, #217 ) ) ;
#758 = CARTESIAN_POINT ( 'NONE',  ( 0.3499999999999999778, 4.101243703684635200, 3.680683037435204863 ) ) ;
#759 = VECTOR ( 'NONE', #730, 1000.000000000000000 ) ;
#760 = VECTOR ( 'NONE', #437, 1000.000000000000000 ) ;
#761 = AXIS2_PLACEMENT_3D ( 'NONE', #123, #180, #421 ) ;
#762 = CARTESIAN_POINT ( 'NONE',  ( 0.3500000000000065281, -0.2184030449376644922, -0.1737256262530365025 ) ) ;
#763 = CIRCLE ( 'NONE', #199, 3.000000000000000000 ) ;
#764 = CARTESIAN_POINT ( 'NONE',  ( 16.50273661024660043, -4.101243703684635200, 3.680683037435204863 ) ) ;
#765 = COORDINATED_UNIVERSAL_TIME_OFFSET ( 6, 0, .BEHIND. ) ;
#766 = DIRECTION ( 'NONE',  ( 0.000000000000000000, 0.000000000000000000, 1.000000000000000000 ) ) ;
#767 = ORIENTED_EDGE ( 'NONE', *, *, #243, .T. ) ;
#768 = DIRECTION ( 'NONE',  ( -1.000000000000000000, 0.000000000000000000, 0.000000000000000000 ) ) ;
#769 = ORIENTED_EDGE ( 'NONE', *, *, #170, .F. ) ;
#770 = DESIGN_CONTEXT ( 'detailed design', #402, 'design' ) ;
#771 = APPLICATION_PROTOCOL_DEFINITION ( 'international standard', 'config_control_design', 1994, #402 ) ;
#772 = DIRECTION ( 'NONE',  ( -1.000000000000000000, 0.000000000000000000, 0.000000000000000000 ) ) ;
#773 = AXIS2_PLACEMENT_3D ( 'NONE', #216, #392, #646 ) ;
#774 = ORIENTED_EDGE ( 'NONE', *, *, #624, .T. ) ;
#775 = COORDINATED_UNIVERSAL_TIME_OFFSET ( 6, 0, .BEHIND. ) ;
#776 = CYLINDRICAL_SURFACE ( 'NONE', #313, 0.6393169625647951992 ) ;
#777 = PLANE ( 'NONE',  #436 ) ;
#778 = EDGE_CURVE ( 'NONE', #264, #308, #206, .T. ) ;
#779 = ORIENTED_EDGE ( 'NONE', *, *, #221, .F. ) ;
#780 = DIRECTION ( 'NONE',  ( -1.000000000000000000, 0.000000000000000000, 0.000000000000000000 ) ) ;
#781 = CARTESIAN_POINT ( 'NONE',  ( 0.3500000000000065281, 3.600909033967315320, 4.078667204082500497 ) ) ;
#782 = VERTEX_POINT ( 'NONE', #531 ) ;
#783 = CARTESIAN_POINT ( 'NONE',  ( -0.3499999999999999778, 3.960372279876389623, 2.061171071335525073E-15 ) ) ;
#784 = LINE ( 'NONE', #291, #46 ) ;
#785 = VECTOR ( 'NONE', #99, 1000.000000000000000 ) ;
#786 = ORIENTED_EDGE ( 'NONE', *, *, #16, .F. ) ;
#787 = AXIS2_PLACEMENT_3D ( 'NONE', #700, #643, #137 ) ;
#788 = EDGE_CURVE ( 'NONE', #49, #406, #726, .T. ) ;
#789 = EDGE_CURVE ( 'NONE', #282, #745, #68, .T. ) ;
#790 = CARTESIAN_POINT ( 'NONE',  ( 0.3499999999999999778, -1.400203047561916048, -3.704589048843565546 ) ) ;
#791 = DIRECTION ( 'NONE',  ( 1.000000000000000000, 0.000000000000000000, 0.000000000000000000 ) ) ;
#792 = ORIENTED_EDGE ( 'NONE', *, *, #491, .F. ) ;
#793 = APPROVAL_ROLE ( '' ) ;
ENDSEC;
END-ISO-10303-21;
