ISO-10303-21;
HEADER;
FILE_DESCRIPTION (( 'STEP AP203' ),
    '1' );
FILE_NAME ('2106 Series 8mm REX e-clip_2.STEP_Default_sldprt.STEP',
    '2025-03-08T04:49:40',
    ( '' ),
    ( '' ),
    'SwSTEP 2.0',
    'SolidWorks 2024',
    '' );
FILE_SCHEMA (( 'CONFIG_CONTROL_DESIGN' ));
ENDSEC;

DATA;
#1 = VECTOR ( 'NONE', #618, 1000.000000000000000 ) ;
#2 = AXIS2_PLACEMENT_3D ( 'NONE', #143, #134, #563 ) ;
#3 = ORIENTED_EDGE ( 'NONE', *, *, #591, .F. ) ;
#4 = CARTESIAN_POINT ( 'NONE',  ( 0.3499999999999999778, 2.629999999999999893, 1.901813667486154864E-15 ) ) ;
#5 = DIRECTION ( 'NONE',  ( 1.000000000000000000, 0.000000000000000000, 0.000000000000000000 ) ) ;
#6 = ADVANCED_FACE ( 'NONE', ( #182 ), #428, .T. ) ;
#7 = EDGE_LOOP ( 'NONE', ( #603, #236, #572, #387, #642, #381, #247, #529, #133, #439, #554, #695, #652, #692, #533, #671, #262, #136, #783, #58 ) ) ;
#8 = EDGE_CURVE ( 'NONE', #678, #469, #110, .T. ) ;
#9 = CARTESIAN_POINT ( 'NONE',  ( 16.50273661024660043, -4.101243703684635200, 3.680683037435204863 ) ) ;
#10 = DIRECTION ( 'NONE',  ( 0.000000000000000000, 1.000000000000000000, 0.000000000000000000 ) ) ;
#11 = ORIENTED_EDGE ( 'NONE', *, *, #465, .T. ) ;
#12 = DIRECTION ( 'NONE',  ( 0.000000000000000000, 0.000000000000000000, -1.000000000000000000 ) ) ;
#13 = DIRECTION ( 'NONE',  ( 0.000000000000000000, 0.000000000000000000, -1.000000000000000000 ) ) ;
#14 = VERTEX_POINT ( 'NONE', #355 ) ;
#15 = AXIS2_PLACEMENT_3D ( 'NONE', #746, #453, #504 ) ;
#16 = VECTOR ( 'NONE', #401, 1000.000000000000114 ) ;
#17 = DIRECTION ( 'NONE',  ( 0.000000000000000000, -0.3535533905932758403, -0.9354143466934845552 ) ) ;
#18 = EDGE_CURVE ( 'NONE', #114, #195, #123, .T. ) ;
#19 = DIRECTION ( 'NONE',  ( 0.000000000000000000, 0.000000000000000000, 1.000000000000000000 ) ) ;
#20 = EDGE_LOOP ( 'NONE', ( #210, #172, #343, #721 ) ) ;
#21 = DIRECTION ( 'NONE',  ( -1.000000000000000000, 0.000000000000000000, 0.000000000000000000 ) ) ;
#22 = DIRECTION ( 'NONE',  ( -1.000000000000000000, 0.000000000000000000, 0.000000000000000000 ) ) ;
#23 = ORIENTED_EDGE ( 'NONE', *, *, #738, .T. ) ;
#24 = CARTESIAN_POINT ( 'NONE',  ( -0.3499999999999999778, -3.000000000000000000, 1.212360290284153998E-15 ) ) ;
#25 = CARTESIAN_POINT ( 'NONE',  ( 0.3499999999999999778, 3.960372279876389623, -0.4200000000000000400 ) ) ;
#26 = VERTEX_POINT ( 'NONE', #111 ) ;
#27 = CALENDAR_DATE ( 2025, 7, 3 ) ;
#28 = CIRCLE ( 'NONE', #75, 0.6393169625647939780 ) ;
#29 = DIRECTION ( 'NONE',  ( 0.000000000000000000, 0.000000000000000000, 1.000000000000000000 ) ) ;
#30 = EDGE_CURVE ( 'NONE', #40, #537, #318, .T. ) ;
#31 = EDGE_CURVE ( 'NONE', #408, #725, #359, .T. ) ;
#32 = LINE ( 'NONE', #282, #265 ) ;
#33 = APPLICATION_CONTEXT ( 'configuration controlled 3d designs of mechanical parts and assemblies' ) ;
#34 = CARTESIAN_POINT ( 'NONE',  ( 0.3499999999999999778, -1.982173650953144906, -3.931119936432350137 ) ) ;
#35 = DIRECTION ( 'NONE',  ( 0.000000000000000000, 0.000000000000000000, 1.000000000000000000 ) ) ;
#36 = EDGE_CURVE ( 'NONE', #418, #164, #433, .T. ) ;
#37 = VECTOR ( 'NONE', #614, 1000.000000000000000 ) ;
#38 = CYLINDRICAL_SURFACE ( 'NONE', #140, 3.000000000000000000 ) ;
#39 = CIRCLE ( 'NONE', #398, 3.000000000000000000 ) ;
#40 = VERTEX_POINT ( 'NONE', #60 ) ;
#41 = LOCAL_TIME ( 22, 49, 40.00000000000000000, #399 ) ;
#42 = APPROVAL ( #520, 'UNSPECIFIED' ) ;
#43 = CARTESIAN_POINT ( 'NONE',  ( -0.3499999999999999778, 0.2184030449376644922, -0.1737256262530365025 ) ) ;
#44 = CARTESIAN_POINT ( 'NONE',  ( 0.3499999999999999778, 0.000000000000000000, 0.000000000000000000 ) ) ;
#45 = ORIENTED_EDGE ( 'NONE', *, *, #432, .T. ) ;
#46 = ORIENTED_EDGE ( 'NONE', *, *, #661, .F. ) ;
#47 = PERSON_AND_ORGANIZATION_ROLE ( 'design_supplier' ) ;
#48 = CARTESIAN_POINT ( 'NONE',  ( 0.3499999999999999778, 1.400203047561916048, -3.704589048843565546 ) ) ;
#49 = ORIENTED_EDGE ( 'NONE', *, *, #295, .T. ) ;
#50 = DIRECTION ( 'NONE',  ( 1.000000000000000000, 0.000000000000000000, 0.000000000000000000 ) ) ;
#51 = DIRECTION ( 'NONE',  ( -1.000000000000000000, 0.000000000000000000, 0.000000000000000000 ) ) ;
#52 = AXIS2_PLACEMENT_3D ( 'NONE', #519, #596, #711 ) ;
#53 = EDGE_CURVE ( 'NONE', #425, #657, #305, .T. ) ;
#54 = CARTESIAN_POINT ( 'NONE',  ( 0.3500000000000065281, -0.2184030449376644922, -0.1737256262530365025 ) ) ;
#55 = CARTESIAN_POINT ( 'NONE',  ( -0.3499999999999999778, 2.629999999999999893, 1.901813667486154864E-15 ) ) ;
#56 = PLANE ( 'NONE',  #767 ) ;
#57 = CARTESIAN_POINT ( 'NONE',  ( -0.3499999999999999778, -1.400203047561916048, -3.704589048843565546 ) ) ;
#58 = ORIENTED_EDGE ( 'NONE', *, *, #120, .F. ) ;
#59 = DIRECTION ( 'NONE',  ( -1.000000000000000000, 0.000000000000000000, 0.000000000000000000 ) ) ;
#60 = CARTESIAN_POINT ( 'NONE',  ( -0.3499999999999999778, 1.400203047561916048, -3.704589048843565546 ) ) ;
#61 = EDGE_CURVE ( 'NONE', #469, #725, #139, .T. ) ;
#62 = CIRCLE ( 'NONE', #511, 0.4200000000000000400 ) ;
#63 = VECTOR ( 'NONE', #628, 1000.000000000000000 ) ;
#64 = VECTOR ( 'NONE', #566, 1000.000000000000000 ) ;
#65 = ORIENTED_EDGE ( 'NONE', *, *, #261, .T. ) ;
#66 = DIRECTION ( 'NONE',  ( 1.000000000000000000, 0.000000000000000000, 0.000000000000000000 ) ) ;
#67 = DIRECTION ( 'NONE',  ( 0.000000000000000000, -0.6225146366376198559, 0.7826081568524136944 ) ) ;
#68 = ORIENTED_EDGE ( 'NONE', *, *, #789, .F. ) ;
#69 = CARTESIAN_POINT ( 'NONE',  ( 0.3499999999999999778, -1.060660171779821859, -2.806243040080455220 ) ) ;
#70 = DIRECTION ( 'NONE',  ( -1.000000000000000000, 0.000000000000000000, 0.000000000000000000 ) ) ;
#71 = VERTEX_POINT ( 'NONE', #683 ) ;
#72 = CYLINDRICAL_SURFACE ( 'NONE', #646, 0.6393169625647951992 ) ;
#73 = CARTESIAN_POINT ( 'NONE',  ( 0.3499999999999999778, -1.793077073173179992, -3.556096624794390149 ) ) ;
#74 = ORIENTED_EDGE ( 'NONE', *, *, #53, .F. ) ;
#75 = AXIS2_PLACEMENT_3D ( 'NONE', #253, #84, #197 ) ;
#76 = CIRCLE ( 'NONE', #685, 6.150000000000000355 ) ;
#77 = CARTESIAN_POINT ( 'NONE',  ( 0.3499999999999999778, 0.9298454172603100032, -2.460139731803864915 ) ) ;
#78 = DIRECTION ( 'NONE',  ( -1.000000000000000000, 0.000000000000000000, 0.000000000000000000 ) ) ;
#79 = VERTEX_POINT ( 'NONE', #297 ) ;
#80 = DIRECTION ( 'NONE',  ( 0.000000000000000000, 0.000000000000000000, 1.000000000000000000 ) ) ;
#81 = CARTESIAN_POINT ( 'NONE',  ( -0.3499999999999999778, 3.000000000000000000, 1.947124102577580156E-15 ) ) ;
#82 = ORIENTED_EDGE ( 'NONE', *, *, #205, .F. ) ;
#83 = PERSON_AND_ORGANIZATION ( #96, #675 ) ;
#84 = DIRECTION ( 'NONE',  ( 1.000000000000000000, 0.000000000000000000, 0.000000000000000000 ) ) ;
#85 = EDGE_CURVE ( 'NONE', #509, #368, #620, .T. ) ;
#86 = EDGE_CURVE ( 'NONE', #364, #26, #62, .T. ) ;
#87 = EDGE_LOOP ( 'NONE', ( #633, #224, #74, #592 ) ) ;
#88 = PERSON_AND_ORGANIZATION ( #96, #675 ) ;
#89 = CIRCLE ( 'NONE', #189, 0.4200000000000000400 ) ;
#90 = CIRCLE ( 'NONE', #451, 0.6393169625647939780 ) ;
#91 = CARTESIAN_POINT ( 'NONE',  ( -0.3499999999999999778, 0.000000000000000000, 0.000000000000000000 ) ) ;
#92 = DATE_AND_TIME ( #27, #41 ) ;
#93 = LINE ( 'NONE', #339, #397 ) ;
#94 =( NAMED_UNIT ( * ) SI_UNIT ( $, .STERADIAN. ) SOLID_ANGLE_UNIT ( ) );
#95 = DIRECTION ( 'NONE',  ( 0.000000000000000000, 0.000000000000000000, 1.000000000000000000 ) ) ;
#96 = PERSON ( 'UNSPECIFIED', 'UNSPECIFIED', 'UNSPECIFIED', ('UNSPECIFIED'), ('UNSPECIFIED'), ('UNSPECIFIED') ) ;
#97 = VECTOR ( 'NONE', #332, 1000.000000000000000 ) ;
#98 = DIRECTION ( 'NONE',  ( 1.000000000000000000, 0.000000000000000000, 0.000000000000000000 ) ) ;
#99 = AXIS2_PLACEMENT_3D ( 'NONE', #251, #263, #322 ) ;
#100 = ORIENTED_EDGE ( 'NONE', *, *, #715, .F. ) ;
#101 = ORIENTED_EDGE ( 'NONE', *, *, #36, .F. ) ;
#102 = CALENDAR_DATE ( 2025, 7, 3 ) ;
#103 = DIRECTION ( 'NONE',  ( 0.000000000000000000, -1.224606353822375779E-16, 1.000000000000000000 ) ) ;
#104 = ORIENTED_EDGE ( 'NONE', *, *, #61, .F. ) ;
#105 = DIRECTION ( 'NONE',  ( 1.000000000000000000, 0.000000000000000000, 0.000000000000000000 ) ) ;
#106 = CARTESIAN_POINT ( 'NONE',  ( -0.3499999999999999778, -4.101243703684635200, 3.680683037435204863 ) ) ;
#107 = PRODUCT_DEFINITION ( 'UNKNOWN', '', #243, #653 ) ;
#108 = APPROVAL_DATE_TIME ( #115, #336 ) ;
#109 = LINE ( 'NONE', #116, #319 ) ;
#110 = CIRCLE ( 'NONE', #567, 0.6393169625647951992 ) ;
#111 = CARTESIAN_POINT ( 'NONE',  ( -0.3499999999999999778, -4.378030202150735128, -0.4642928883849010147 ) ) ;
#112 = AXIS2_PLACEMENT_3D ( 'NONE', #564, #209, #574 ) ;
#113 = LOCAL_TIME ( 22, 49, 40.00000000000000000, #287 ) ;
#114 = VERTEX_POINT ( 'NONE', #615 ) ;
#115 = DATE_AND_TIME ( #426, #410 ) ;
#116 = CARTESIAN_POINT ( 'NONE',  ( 0.3499999999999999778, -3.960372279876389623, 1.094752490687001840E-15 ) ) ;
#117 = CARTESIAN_POINT ( 'NONE',  ( 0.3499999999999999778, 0.000000000000000000, 1.094752490687001840E-15 ) ) ;
#118 = VERTEX_POINT ( 'NONE', #57 ) ;
#119 = PERSON_AND_ORGANIZATION ( #96, #675 ) ;
#120 = EDGE_CURVE ( 'NONE', #191, #509, #127, .T. ) ;
#121 = LINE ( 'NONE', #234, #1 ) ;
#122 = CC_DESIGN_PERSON_AND_ORGANIZATION_ASSIGNMENT ( #88, #151, ( #107 ) ) ;
#123 = LINE ( 'NONE', #175, #214 ) ;
#124 = ORIENTED_EDGE ( 'NONE', *, *, #552, .T. ) ;
#125 = CARTESIAN_POINT ( 'NONE',  ( 0.3499999999999999778, -0.9298454172603100032, -2.460139731803864915 ) ) ;
#126 = LINE ( 'NONE', #489, #304 ) ;
#127 = CIRCLE ( 'NONE', #356, 6.150000000000000355 ) ;
#128 = CIRCLE ( 'NONE', #538, 3.000000000000000000 ) ;
#129 = CIRCLE ( 'NONE', #2, 3.000000000000000000 ) ;
#130 = ORIENTED_EDGE ( 'NONE', *, *, #457, .T. ) ;
#131 = LINE ( 'NONE', #125, #658 ) ;
#132 = CARTESIAN_POINT ( 'NONE',  ( 0.3499999999999999778, 1.982173650953144906, -3.931119936432350137 ) ) ;
#133 = ORIENTED_EDGE ( 'NONE', *, *, #147, .T. ) ;
#134 = DIRECTION ( 'NONE',  ( -1.000000000000000000, 0.000000000000000000, 0.000000000000000000 ) ) ;
#135 = LINE ( 'NONE', #257, #384 ) ;
#136 = ORIENTED_EDGE ( 'NONE', *, *, #696, .F. ) ;
#137 = DIRECTION ( 'NONE',  ( 0.000000000000000000, 1.000000000000000000, 0.000000000000000000 ) ) ;
#138 = CARTESIAN_POINT ( 'NONE',  ( 0.3499999999999999778, 0.000000000000000000, 0.000000000000000000 ) ) ;
#139 = CIRCLE ( 'NONE', #553, 0.6393169625647951992 ) ;
#140 = AXIS2_PLACEMENT_3D ( 'NONE', #44, #154, #95 ) ;
#141 = ORIENTED_EDGE ( 'NONE', *, *, #578, .F. ) ;
#142 = LOCAL_TIME ( 22, 49, 40.00000000000000000, #731 ) ;
#143 = CARTESIAN_POINT ( 'NONE',  ( -0.3499999999999999778, 0.000000000000000000, 0.000000000000000000 ) ) ;
#144 = LINE ( 'NONE', #329, #63 ) ;
#145 = ORIENTED_EDGE ( 'NONE', *, *, #167, .F. ) ;
#146 = CARTESIAN_POINT ( 'NONE',  ( 0.000000000000000000, 0.000000000000000000, 0.000000000000000000 ) ) ;
#147 = EDGE_CURVE ( 'NONE', #79, #330, #126, .T. ) ;
#148 = CARTESIAN_POINT ( 'NONE',  ( -0.3499999999999999778, 4.577045822871290248, 4.107694187173195566 ) ) ;
#149 = EDGE_CURVE ( 'NONE', #353, #170, #371, .T. ) ;
#150 = VERTEX_POINT ( 'NONE', #780 ) ;
#151 = PERSON_AND_ORGANIZATION_ROLE ( 'creator' ) ;
#152 = CARTESIAN_POINT ( 'NONE',  ( -0.3499999999999999778, 0.000000000000000000, 0.000000000000000000 ) ) ;
#153 = AXIS2_PLACEMENT_3D ( 'NONE', #138, #249, #449 ) ;
#154 = DIRECTION ( 'NONE',  ( -1.000000000000000000, 0.000000000000000000, 0.000000000000000000 ) ) ;
#155 = ADVANCED_FACE ( 'NONE', ( #232 ), #475, .F. ) ;
#156 = DIRECTION ( 'NONE',  ( -1.000000000000000000, 0.000000000000000000, 0.000000000000000000 ) ) ;
#157 = LINE ( 'NONE', #43, #16 ) ;
#158 = EDGE_CURVE ( 'NONE', #719, #330, #128, .T. ) ;
#159 = LINE ( 'NONE', #395, #342 ) ;
#160 = ORIENTED_EDGE ( 'NONE', *, *, #389, .T. ) ;
#161 = VECTOR ( 'NONE', #67, 1000.000000000000114 ) ;
#162 = CARTESIAN_POINT ( 'NONE',  ( 0.3499999999999999778, 1.060660171779821859, -2.806243040080455220 ) ) ;
#163 = CIRCLE ( 'NONE', #99, 0.6393169625647939780 ) ;
#164 = VERTEX_POINT ( 'NONE', #81 ) ;
#165 = EDGE_LOOP ( 'NONE', ( #23, #612, #240, #311 ) ) ;
#166 = FACE_OUTER_BOUND ( 'NONE', #669, .T. ) ;
#167 = EDGE_CURVE ( 'NONE', #114, #281, #593, .T. ) ;
#168 = DIRECTION ( 'NONE',  ( 0.000000000000000000, 0.6225146366376198559, 0.7826081568524136944 ) ) ;
#169 = ADVANCED_FACE ( 'NONE', ( #390 ), #703, .T. ) ;
#170 = VERTEX_POINT ( 'NONE', #376 ) ;
#171 = DIRECTION ( 'NONE',  ( 0.000000000000000000, 0.6225146366376198559, -0.7826081568524138055 ) ) ;
#172 = ORIENTED_EDGE ( 'NONE', *, *, #86, .F. ) ;
#173 = APPROVAL_DATE_TIME ( #361, #650 ) ;
#174 = LINE ( 'NONE', #422, #699 ) ;
#175 = CARTESIAN_POINT ( 'NONE',  ( 0.3500000000000065281, 0.2184030449376644922, -0.1737256262530365025 ) ) ;
#176 = AXIS2_PLACEMENT_3D ( 'NONE', #636, #561, #10 ) ;
#177 =( GEOMETRIC_REPRESENTATION_CONTEXT ( 3 ) GLOBAL_UNCERTAINTY_ASSIGNED_CONTEXT ( ( #277 ) ) GLOBAL_UNIT_ASSIGNED_CONTEXT ( ( #338, #702, #94 ) ) REPRESENTATION_CONTEXT ( 'NONE', 'WORKASPACE' ) );
#178 = ADVANCED_FACE ( 'NONE', ( #260 ), #445, .T. ) ;
#179 = ORIENTED_EDGE ( 'NONE', *, *, #457, .F. ) ;
#180 = CC_DESIGN_DATE_AND_TIME_ASSIGNMENT ( #585, #458, ( #107 ) ) ;
#181 = CARTESIAN_POINT ( 'NONE',  ( 0.3499999999999999778, -2.077849108214469886, 2.163918455832460008 ) ) ;
#182 = FACE_OUTER_BOUND ( 'NONE', #621, .T. ) ;
#183 = EDGE_LOOP ( 'NONE', ( #255, #724, #185, #742 ) ) ;
#184 = CARTESIAN_POINT ( 'NONE',  ( 0.3499999999999999778, -2.629999999999999893, 1.257670725375581854E-15 ) ) ;
#185 = ORIENTED_EDGE ( 'NONE', *, *, #8, .F. ) ;
#186 = VERTEX_POINT ( 'NONE', #188 ) ;
#187 = DIRECTION ( 'NONE',  ( -1.000000000000000000, 0.000000000000000000, 0.000000000000000000 ) ) ;
#188 = CARTESIAN_POINT ( 'NONE',  ( -0.3499999999999999778, -1.982173650953144906, -3.931119936432350137 ) ) ;
#189 = AXIS2_PLACEMENT_3D ( 'NONE', #351, #723, #605 ) ;
#190 = AXIS2_PLACEMENT_3D ( 'NONE', #573, #21, #435 ) ;
#191 = VERTEX_POINT ( 'NONE', #577 ) ;
#192 = DIRECTION ( 'NONE',  ( 0.000000000000000000, 0.9354143466934845552, -0.3535533905932758403 ) ) ;
#193 = DIRECTION ( 'NONE',  ( 0.000000000000000000, 0.000000000000000000, 1.000000000000000000 ) ) ;
#194 = EDGE_CURVE ( 'NONE', #290, #79, #524, .T. ) ;
#195 = VERTEX_POINT ( 'NONE', #691 ) ;
#196 = CARTESIAN_POINT ( 'NONE',  ( -0.3499999999999999778, -3.600909033967315320, 4.078667204082500497 ) ) ;
#197 = DIRECTION ( 'NONE',  ( 0.000000000000000000, 0.000000000000000000, -1.000000000000000000 ) ) ;
#198 = VERTEX_POINT ( 'NONE', #148 ) ;
#199 = CARTESIAN_POINT ( 'NONE',  ( -0.3499999999999999778, -1.793077073173179992, -3.556096624794390149 ) ) ;
#200 = CARTESIAN_POINT ( 'NONE',  ( 0.3499999999999999778, 4.378030202150739569, -0.4642928883849000155 ) ) ;
#201 = AXIS2_PLACEMENT_3D ( 'NONE', #482, #558, #736 ) ;
#202 = EDGE_CURVE ( 'NONE', #446, #321, #461, .T. ) ;
#203 = AXIS2_PLACEMENT_3D ( 'NONE', #91, #98, #526 ) ;
#204 = VERTEX_POINT ( 'NONE', #441 ) ;
#205 = EDGE_CURVE ( 'NONE', #644, #195, #28, .T. ) ;
#206 = LOCAL_TIME ( 22, 49, 40.00000000000000000, #334 ) ;
#207 = PLANE ( 'NONE',  #306 ) ;
#208 = ADVANCED_FACE ( 'NONE', ( #497 ), #570, .F. ) ;
#209 = DIRECTION ( 'NONE',  ( -1.000000000000000000, 0.000000000000000000, 0.000000000000000000 ) ) ;
#210 = ORIENTED_EDGE ( 'NONE', *, *, #312, .F. ) ;
#211 = LINE ( 'NONE', #273, #718 ) ;
#212 = CARTESIAN_POINT ( 'NONE',  ( 0.3499999999999999778, 0.000000000000000000, 0.000000000000000000 ) ) ;
#213 = CARTESIAN_POINT ( 'NONE',  ( 0.3499999999999999778, 0.000000000000000000, 0.000000000000000000 ) ) ;
#214 = VECTOR ( 'NONE', #168, 1000.000000000000114 ) ;
#215 = DIRECTION ( 'NONE',  ( -1.000000000000000000, 0.000000000000000000, 0.000000000000000000 ) ) ;
#216 = VECTOR ( 'NONE', #470, 999.9999999999998863 ) ;
#217 = APPROVAL_PERSON_ORGANIZATION ( #784, #336, #237 ) ;
#218 = CARTESIAN_POINT ( 'NONE',  ( -0.3499999999999999778, 0.000000000000000000, 0.000000000000000000 ) ) ;
#219 = APPLICATION_PROTOCOL_DEFINITION ( 'international standard', 'config_control_design', 1994, #272 ) ;
#220 = DIRECTION ( 'NONE',  ( -1.000000000000000000, 0.000000000000000000, 0.000000000000000000 ) ) ;
#221 = VERTEX_POINT ( 'NONE', #200 ) ;
#222 = EDGE_LOOP ( 'NONE', ( #664, #65, #580, #307 ) ) ;
#223 = CARTESIAN_POINT ( 'NONE',  ( -0.3499999999999999778, 0.9298454172603100032, -2.460139731803864915 ) ) ;
#224 = ORIENTED_EDGE ( 'NONE', *, *, #541, .T. ) ;
#225 = EDGE_LOOP ( 'NONE', ( #527, #543, #145, #266 ) ) ;
#226 = SHAPE_DEFINITION_REPRESENTATION ( #667, #532 ) ;
#227 = EDGE_CURVE ( 'NONE', #368, #469, #135, .T. ) ;
#228 = EDGE_CURVE ( 'NONE', #198, #14, #333, .T. ) ;
#229 = VECTOR ( 'NONE', #156, 1000.000000000000000 ) ;
#230 = CARTESIAN_POINT ( 'NONE',  ( 0.3499999999999999778, -0.9298454172603100032, -2.460139731803864915 ) ) ;
#231 = AXIS2_PLACEMENT_3D ( 'NONE', #382, #634, #268 ) ;
#232 = FACE_OUTER_BOUND ( 'NONE', #20, .T. ) ;
#233 = ORIENTED_EDGE ( 'NONE', *, *, #793, .T. ) ;
#234 = CARTESIAN_POINT ( 'NONE',  ( 16.50273661024660043, 4.101243703684635200, 4.320000000000000284 ) ) ;
#235 = DIRECTION ( 'NONE',  ( -1.000000000000000000, 0.000000000000000000, 0.000000000000000000 ) ) ;
#236 = ORIENTED_EDGE ( 'NONE', *, *, #205, .T. ) ;
#237 = APPROVAL_ROLE ( '' ) ;
#238 = CARTESIAN_POINT ( 'NONE',  ( 0.3500000000000065281, -4.577045822871290248, 4.107694187173195566 ) ) ;
#239 = DIRECTION ( 'NONE',  ( -1.000000000000000000, 0.000000000000000000, 0.000000000000000000 ) ) ;
#240 = ORIENTED_EDGE ( 'NONE', *, *, #158, .T. ) ;
#241 = CARTESIAN_POINT ( 'NONE',  ( 0.3499999999999999778, -1.400203047561916048, -3.704589048843565546 ) ) ;
#242 = DIRECTION ( 'NONE',  ( 0.000000000000000000, 0.000000000000000000, -1.000000000000000000 ) ) ;
#243 = PRODUCT_DEFINITION_FORMATION_WITH_SPECIFIED_SOURCE ( 'ANY', '', #781, .NOT_KNOWN. ) ;
#244 = ORIENTED_EDGE ( 'NONE', *, *, #30, .F. ) ;
#245 = CARTESIAN_POINT ( 'NONE',  ( -0.3499999999999999778, 1.982173650953144906, -3.931119936432350137 ) ) ;
#246 = DIRECTION ( 'NONE',  ( 1.000000000000000000, 0.000000000000000000, 0.000000000000000000 ) ) ;
#247 = ORIENTED_EDGE ( 'NONE', *, *, #715, .T. ) ;
#248 = DIRECTION ( 'NONE',  ( 1.000000000000000000, 0.000000000000000000, 0.000000000000000000 ) ) ;
#249 = DIRECTION ( 'NONE',  ( -1.000000000000000000, 0.000000000000000000, 0.000000000000000000 ) ) ;
#250 = ORIENTED_EDGE ( 'NONE', *, *, #301, .F. ) ;
#251 = CARTESIAN_POINT ( 'NONE',  ( 0.3499999999999999778, -4.101243703684635200, 3.680683037435204863 ) ) ;
#252 = CC_DESIGN_PERSON_AND_ORGANIZATION_ASSIGNMENT ( #581, #331, ( #781 ) ) ;
#253 = CARTESIAN_POINT ( 'NONE',  ( 0.3499999999999999778, 4.101243703684635200, 3.680683037435204863 ) ) ;
#254 = VECTOR ( 'NONE', #549, 1000.000000000000000 ) ;
#255 = ORIENTED_EDGE ( 'NONE', *, *, #85, .T. ) ;
#256 = DIRECTION ( 'NONE',  ( 0.000000000000000000, 0.000000000000000000, 1.000000000000000000 ) ) ;
#257 = CARTESIAN_POINT ( 'NONE',  ( 16.50273661024660043, -4.101243703684635200, 4.320000000000000284 ) ) ;
#258 = ORIENTED_EDGE ( 'NONE', *, *, #551, .T. ) ;
#259 = DIRECTION ( 'NONE',  ( -1.000000000000000000, 0.000000000000000000, 0.000000000000000000 ) ) ;
#260 = FACE_OUTER_BOUND ( 'NONE', #506, .T. ) ;
#261 = EDGE_CURVE ( 'NONE', #150, #114, #144, .T. ) ;
#262 = ORIENTED_EDGE ( 'NONE', *, *, #149, .T. ) ;
#263 = DIRECTION ( 'NONE',  ( -1.000000000000000000, 0.000000000000000000, 0.000000000000000000 ) ) ;
#264 = FACE_OUTER_BOUND ( 'NONE', #754, .T. ) ;
#265 = VECTOR ( 'NONE', #645, 999.9999999999998863 ) ;
#266 = ORIENTED_EDGE ( 'NONE', *, *, #261, .F. ) ;
#267 = CIRCLE ( 'NONE', #473, 0.6393169625647951992 ) ;
#268 = DIRECTION ( 'NONE',  ( 0.000000000000000000, 0.000000000000000000, 1.000000000000000000 ) ) ;
#269 = LINE ( 'NONE', #648, #97 ) ;
#270 = DIRECTION ( 'NONE',  ( 1.000000000000000000, 0.000000000000000000, 0.000000000000000000 ) ) ;
#271 = DIRECTION ( 'NONE',  ( -1.000000000000000000, 0.000000000000000000, 0.000000000000000000 ) ) ;
#272 = APPLICATION_CONTEXT ( 'configuration controlled 3d designs of mechanical parts and assemblies' ) ;
#273 = CARTESIAN_POINT ( 'NONE',  ( 0.3499999999999999778, -1.400203047561916048, -3.704589048843565546 ) ) ;
#274 = EDGE_CURVE ( 'NONE', #792, #425, #622, .T. ) ;
#275 = VECTOR ( 'NONE', #611, 1000.000000000000114 ) ;
#277 = UNCERTAINTY_MEASURE_WITH_UNIT (LENGTH_MEASURE( 1.000000000000000082E-05 ), #338, 'distance_accuracy_value', 'NONE');
#276 = DIRECTION ( 'NONE',  ( 0.000000000000000000, 0.000000000000000000, 1.000000000000000000 ) ) ;
#278 = VECTOR ( 'NONE', #270, 1000.000000000000000 ) ;
#279 = CARTESIAN_POINT ( 'NONE',  ( 16.50273661024660043, -4.577045822871290248, 4.107694187173195566 ) ) ;
#280 = ORIENTED_EDGE ( 'NONE', *, *, #772, .T. ) ;
#281 = VERTEX_POINT ( 'NONE', #314 ) ;
#282 = CARTESIAN_POINT ( 'NONE',  ( -0.3499999999999999778, -0.9298454172603100032, -2.460139731803864915 ) ) ;
#283 = EDGE_LOOP ( 'NONE', ( #629, #681, #468, #349 ) ) ;
#284 = ADVANCED_FACE ( 'NONE', ( #264 ), #392, .F. ) ;
#285 = ADVANCED_FACE ( 'NONE', ( #687 ), #643, .F. ) ;
#286 = ORIENTED_EDGE ( 'NONE', *, *, #323, .F. ) ;
#287 = COORDINATED_UNIVERSAL_TIME_OFFSET ( 6, 0, .BEHIND. ) ;
#288 = DIRECTION ( 'NONE',  ( 0.000000000000000000, 0.000000000000000000, -1.000000000000000000 ) ) ;
#289 = ORIENTED_EDGE ( 'NONE', *, *, #464, .F. ) ;
#290 = VERTEX_POINT ( 'NONE', #132 ) ;
#291 = AXIS2_PLACEMENT_3D ( 'NONE', #325, #749, #193 ) ;
#292 = LINE ( 'NONE', #791, #486 ) ;
#293 = VECTOR ( 'NONE', #589, 1000.000000000000000 ) ;
#294 = EDGE_LOOP ( 'NONE', ( #289, #790, #360, #100 ) ) ;
#295 = EDGE_CURVE ( 'NONE', #747, #408, #635, .T. ) ;
#296 = DIRECTION ( 'NONE',  ( 0.000000000000000000, 0.000000000000000000, 1.000000000000000000 ) ) ;
#297 = CARTESIAN_POINT ( 'NONE',  ( 0.3499999999999999778, 1.400203047561916048, -3.704589048843565546 ) ) ;
#298 = ORIENTED_EDGE ( 'NONE', *, *, #227, .F. ) ;
#299 = FACE_OUTER_BOUND ( 'NONE', #283, .T. ) ;
#300 = CARTESIAN_POINT ( 'NONE',  ( 0.3499999999999999778, 0.000000000000000000, 0.000000000000000000 ) ) ;
#301 = EDGE_CURVE ( 'NONE', #26, #186, #583, .T. ) ;
#302 = ORIENTED_EDGE ( 'NONE', *, *, #528, .T. ) ;
#303 = CARTESIAN_POINT ( 'NONE',  ( 0.3499999999999999778, 4.378030202150739569, -0.4642928883849000155 ) ) ;
#304 = VECTOR ( 'NONE', #494, 1000.000000000000227 ) ;
#305 = LINE ( 'NONE', #117, #483 ) ;
#306 = AXIS2_PLACEMENT_3D ( 'NONE', #77, #697, #748 ) ;
#307 = ORIENTED_EDGE ( 'NONE', *, *, #323, .T. ) ;
#308 = CARTESIAN_POINT ( 'NONE',  ( -0.3499999999999999778, 3.600909033967315320, 4.078667204082500497 ) ) ;
#309 = ORIENTED_EDGE ( 'NONE', *, *, #8, .T. ) ;
#310 = EDGE_CURVE ( 'NONE', #509, #678, #769, .T. ) ;
#311 = ORIENTED_EDGE ( 'NONE', *, *, #380, .F. ) ;
#312 = EDGE_CURVE ( 'NONE', #26, #792, #93, .T. ) ;
#313 = DIRECTION ( 'NONE',  ( 1.000000000000000000, 0.000000000000000000, 0.000000000000000000 ) ) ;
#314 = CARTESIAN_POINT ( 'NONE',  ( 0.3499999999999999778, 3.000000000000000000, 1.901813667486154864E-15 ) ) ;
#315 = ORIENTED_EDGE ( 'NONE', *, *, #551, .F. ) ;
#316 = DIRECTION ( 'NONE',  ( 0.000000000000000000, 0.000000000000000000, 1.000000000000000000 ) ) ;
#317 = CARTESIAN_POINT ( 'NONE',  ( 0.3499999999999999778, 0.000000000000000000, 0.000000000000000000 ) ) ;
#318 = CIRCLE ( 'NONE', #765, 0.4199999999999998179 ) ;
#319 = VECTOR ( 'NONE', #357, 1000.000000000000000 ) ;
#320 = CC_DESIGN_SECURITY_CLASSIFICATION ( #623, ( #243 ) ) ;
#321 = VERTEX_POINT ( 'NONE', #660 ) ;
#322 = DIRECTION ( 'NONE',  ( 0.000000000000000000, 0.000000000000000000, -1.000000000000000000 ) ) ;
#323 = EDGE_CURVE ( 'NONE', #195, #616, #269, .T. ) ;
#324 = EDGE_CURVE ( 'NONE', #537, #374, #709, .T. ) ;
#325 = CARTESIAN_POINT ( 'NONE',  ( 16.50273661024660043, -4.101243703684635200, 3.680683037435204863 ) ) ;
#326 = CC_DESIGN_PERSON_AND_ORGANIZATION_ASSIGNMENT ( #119, #535, ( #243 ) ) ;
#327 = EDGE_LOOP ( 'NONE', ( #484, #412, #534, #471 ) ) ;
#328 = FACE_OUTER_BOUND ( 'NONE', #183, .T. ) ;
#329 = CARTESIAN_POINT ( 'NONE',  ( 0.3499999999999999778, 2.077849108214469886, 2.163918455832460008 ) ) ;
#330 = VERTEX_POINT ( 'NONE', #347 ) ;
#331 = PERSON_AND_ORGANIZATION_ROLE ( 'design_owner' ) ;
#332 = DIRECTION ( 'NONE',  ( -1.000000000000000000, 0.000000000000000000, 0.000000000000000000 ) ) ;
#333 = CIRCLE ( 'NONE', #698, 0.6393169625647951992 ) ;
#334 = COORDINATED_UNIVERSAL_TIME_OFFSET ( 6, 0, .BEHIND. ) ;
#335 = FACE_OUTER_BOUND ( 'NONE', #327, .T. ) ;
#336 = APPROVAL ( #778, 'UNSPECIFIED' ) ;
#337 = FACE_OUTER_BOUND ( 'NONE', #638, .T. ) ;
#338 =( LENGTH_UNIT ( ) NAMED_UNIT ( * ) SI_UNIT ( .MILLI., .METRE. ) );
#339 = CARTESIAN_POINT ( 'NONE',  ( 0.3499999999999999778, -4.378030202150735128, -0.4642928883849010147 ) ) ;
#340 = ORIENTED_EDGE ( 'NONE', *, *, #655, .F. ) ;
#341 = AXIS2_PLACEMENT_3D ( 'NONE', #424, #235, #733 ) ;
#342 = VECTOR ( 'NONE', #407, 1000.000000000000000 ) ;
#343 = ORIENTED_EDGE ( 'NONE', *, *, #447, .T. ) ;
#344 = DIRECTION ( 'NONE',  ( 0.000000000000000000, 0.000000000000000000, 1.000000000000000000 ) ) ;
#345 = APPROVAL_PERSON_ORGANIZATION ( #83, #42, #466 ) ;
#346 = ADVANCED_FACE ( 'NONE', ( #337 ), #459, .F. ) ;
#347 = CARTESIAN_POINT ( 'NONE',  ( 0.3499999999999999778, 1.060660171779821859, -2.806243040080455220 ) ) ;
#348 = ADVANCED_FACE ( 'NONE', ( #335 ), #762, .T. ) ;
#349 = ORIENTED_EDGE ( 'NONE', *, *, #516, .T. ) ;
#350 = PRODUCT_RELATED_PRODUCT_CATEGORY ( 'detail', '', ( #781 ) ) ;
#351 = CARTESIAN_POINT ( 'NONE',  ( -0.3499999999999999778, 3.960372279876389623, -0.4200000000000000400 ) ) ;
#352 = ORIENTED_EDGE ( 'NONE', *, *, #372, .T. ) ;
#353 = VERTEX_POINT ( 'NONE', #456 ) ;
#354 = LINE ( 'NONE', #303, #37 ) ;
#355 = CARTESIAN_POINT ( 'NONE',  ( -0.3499999999999999778, 4.101243703684635200, 4.320000000000000284 ) ) ;
#356 = AXIS2_PLACEMENT_3D ( 'NONE', #300, #550, #242 ) ;
#357 = DIRECTION ( 'NONE',  ( 1.000000000000000000, 0.000000000000000000, 0.000000000000000000 ) ) ;
#358 = CIRCLE ( 'NONE', #782, 4.402580645161289219 ) ;
#359 = LINE ( 'NONE', #367, #275 ) ;
#360 = ORIENTED_EDGE ( 'NONE', *, *, #763, .T. ) ;
#361 = DATE_AND_TIME ( #617, #142 ) ;
#362 = CYLINDRICAL_SURFACE ( 'NONE', #609, 0.4199999999999998179 ) ;
#363 = DIRECTION ( 'NONE',  ( 0.000000000000000000, 0.000000000000000000, 1.000000000000000000 ) ) ;
#364 = VERTEX_POINT ( 'NONE', #582 ) ;
#365 = APPROVAL_ROLE ( '' ) ;
#366 = PLANE ( 'NONE',  #584 ) ;
#367 = CARTESIAN_POINT ( 'NONE',  ( -0.3499999999999999778, -0.2184030449376644922, -0.1737256262530365025 ) ) ;
#368 = VERTEX_POINT ( 'NONE', #523 ) ;
#369 = CYLINDRICAL_SURFACE ( 'NONE', #190, 3.000000000000000000 ) ;
#370 = AXIS2_PLACEMENT_3D ( 'NONE', #54, #670, #171 ) ;
#371 = LINE ( 'NONE', #625, #161 ) ;
#372 = EDGE_CURVE ( 'NONE', #714, #40, #760, .T. ) ;
#373 = APPROVAL_PERSON_ORGANIZATION ( #707, #650, #365 ) ;
#374 = VERTEX_POINT ( 'NONE', #766 ) ;
#375 = CARTESIAN_POINT ( 'NONE',  ( -0.3499999999999999778, 4.101243703684635200, 3.680683037435204863 ) ) ;
#376 = CARTESIAN_POINT ( 'NONE',  ( 0.3500000000000065281, -3.600909033967315320, 4.078667204082500497 ) ) ;
#377 = EDGE_LOOP ( 'NONE', ( #562, #662, #68, #250 ) ) ;
#378 = LINE ( 'NONE', #388, #64 ) ;
#379 = CARTESIAN_POINT ( 'NONE',  ( 0.3499999999999999778, -3.960372279876389623, -0.4200000000000000400 ) ) ;
#380 = EDGE_CURVE ( 'NONE', #714, #330, #402, .T. ) ;
#381 = ORIENTED_EDGE ( 'NONE', *, *, #601, .T. ) ;
#382 = CARTESIAN_POINT ( 'NONE',  ( 16.50273661024660043, 4.101243703684635200, 3.680683037435204863 ) ) ;
#383 = DIRECTION ( 'NONE',  ( 1.000000000000000000, 0.000000000000000000, 0.000000000000000000 ) ) ;
#384 = VECTOR ( 'NONE', #694, 1000.000000000000000 ) ;
#385 = AXIS2_PLACEMENT_3D ( 'NONE', #152, #531, #411 ) ;
#386 = AXIS2_PLACEMENT_3D ( 'NONE', #212, #455, #774 ) ;
#387 = ORIENTED_EDGE ( 'NONE', *, *, #167, .T. ) ;
#388 = CARTESIAN_POINT ( 'NONE',  ( 0.3499999999999999778, 0.000000000000000000, 1.901813667486154864E-15 ) ) ;
#389 = EDGE_CURVE ( 'NONE', #118, #71, #32, .T. ) ;
#390 = FACE_OUTER_BOUND ( 'NONE', #222, .T. ) ;
#391 = ORIENTED_EDGE ( 'NONE', *, *, #147, .F. ) ;
#392 = CYLINDRICAL_SURFACE ( 'NONE', #472, 0.4200000000000000400 ) ;
#393 = EDGE_LOOP ( 'NONE', ( #233, #734, #704, #409, #309, #443, #559, #575, #302, #498, #659, #673, #160, #476, #352, #608, #722, #515, #565, #46 ) ) ;
#394 = CARTESIAN_POINT ( 'NONE',  ( 0.3499999999999999778, -4.378030202150735128, -0.4642928883849010147 ) ) ;
#395 = CARTESIAN_POINT ( 'NONE',  ( 0.3500000000000065281, -3.600909033967315320, 4.078667204082500497 ) ) ;
#396 = ADVANCED_FACE ( 'NONE', ( #651 ), #38, .F. ) ;
#397 = VECTOR ( 'NONE', #588, 1000.000000000000000 ) ;
#398 = AXIS2_PLACEMENT_3D ( 'NONE', #752, #313, #12 ) ;
#399 = COORDINATED_UNIVERSAL_TIME_OFFSET ( 6, 0, .BEHIND. ) ;
#400 = DIRECTION ( 'NONE',  ( -1.000000000000000000, 0.000000000000000000, 0.000000000000000000 ) ) ;
#401 = DIRECTION ( 'NONE',  ( 0.000000000000000000, 0.6225146366376198559, 0.7826081568524136944 ) ) ;
#402 = LINE ( 'NONE', #162, #730 ) ;
#403 = ADVANCED_FACE ( 'NONE', ( #775 ), #708, .F. ) ;
#404 = FACE_OUTER_BOUND ( 'NONE', #377, .T. ) ;
#405 = EDGE_CURVE ( 'NONE', #118, #446, #211, .T. ) ;
#406 = EDGE_CURVE ( 'NONE', #170, #725, #159, .T. ) ;
#407 = DIRECTION ( 'NONE',  ( -1.000000000000000000, 0.000000000000000000, 0.000000000000000000 ) ) ;
#408 = VERTEX_POINT ( 'NONE', #706 ) ;
#409 = ORIENTED_EDGE ( 'NONE', *, *, #773, .T. ) ;
#410 = LOCAL_TIME ( 22, 49, 40.00000000000000000, #545 ) ;
#411 = DIRECTION ( 'NONE',  ( 0.000000000000000000, 0.000000000000000000, 1.000000000000000000 ) ) ;
#412 = ORIENTED_EDGE ( 'NONE', *, *, #120, .T. ) ;
#413 = CARTESIAN_POINT ( 'NONE',  ( 0.3499999999999999778, -1.060660171779821859, -2.806243040080455220 ) ) ;
#414 = DIRECTION ( 'NONE',  ( 0.000000000000000000, 1.000000000000000000, 0.000000000000000000 ) ) ;
#415 = ORIENTED_EDGE ( 'NONE', *, *, #389, .F. ) ;
#416 = DATE_TIME_ROLE ( 'classification_date' ) ;
#417 = DIRECTION ( 'NONE',  ( 0.000000000000000000, -1.224606353822379970E-16, 1.000000000000000000 ) ) ;
#418 = VERTEX_POINT ( 'NONE', #521 ) ;
#419 = ORIENTED_EDGE ( 'NONE', *, *, #465, .F. ) ;
#420 = SECURITY_CLASSIFICATION_LEVEL ( 'unclassified' ) ;
#421 = AXIS2_PLACEMENT_3D ( 'NONE', #508, #501, #22 ) ;
#422 = CARTESIAN_POINT ( 'NONE',  ( 0.3499999999999999778, -3.000000000000000000, 1.212360290284153998E-15 ) ) ;
#423 = VECTOR ( 'NONE', #654, 1000.000000000000000 ) ;
#424 = CARTESIAN_POINT ( 'NONE',  ( 16.50273661024660043, 4.101243703684635200, 3.680683037435204863 ) ) ;
#425 = VERTEX_POINT ( 'NONE', #656 ) ;
#426 = CALENDAR_DATE ( 2025, 7, 3 ) ;
#427 = PLANE ( 'NONE',  #370 ) ;
#428 = CYLINDRICAL_SURFACE ( 'NONE', #341, 0.6393169625647951992 ) ;
#429 = ORIENTED_EDGE ( 'NONE', *, *, #601, .F. ) ;
#430 = EDGE_CURVE ( 'NONE', #321, #792, #672, .T. ) ;
#431 = DIRECTION ( 'NONE',  ( 0.000000000000000000, -1.000000000000000000, -1.224606353822375779E-16 ) ) ;
#432 = EDGE_CURVE ( 'NONE', #719, #71, #666, .T. ) ;
#433 = LINE ( 'NONE', #55, #728 ) ;
#434 = ORIENTED_EDGE ( 'NONE', *, *, #688, .T. ) ;
#435 = DIRECTION ( 'NONE',  ( 0.000000000000000000, 0.000000000000000000, 1.000000000000000000 ) ) ;
#436 = VECTOR ( 'NONE', #478, 1000.000000000000000 ) ;
#437 = DIRECTION ( 'NONE',  ( 0.000000000000000000, 0.000000000000000000, 1.000000000000000000 ) ) ;
#438 = VECTOR ( 'NONE', #431, 1000.000000000000000 ) ;
#439 = ORIENTED_EDGE ( 'NONE', *, *, #158, .F. ) ;
#440 = DIRECTION ( 'NONE',  ( 0.000000000000000000, 0.000000000000000000, 1.000000000000000000 ) ) ;
#441 = CARTESIAN_POINT ( 'NONE',  ( 0.3499999999999999778, 3.960372279876389623, 1.978668964786044803E-15 ) ) ;
#442 = ADVANCED_FACE ( 'NONE', ( #299 ), #427, .F. ) ;
#443 = ORIENTED_EDGE ( 'NONE', *, *, #61, .T. ) ;
#444 = CARTESIAN_POINT ( 'NONE',  ( 0.3499999999999999778, 0.000000000000000000, 0.000000000000000000 ) ) ;
#445 = CYLINDRICAL_SURFACE ( 'NONE', #291, 0.6393169625647951992 ) ;
#446 = VERTEX_POINT ( 'NONE', #241 ) ;
#447 = EDGE_CURVE ( 'NONE', #364, #425, #109, .T. ) ;
#448 = CARTESIAN_POINT ( 'NONE',  ( -0.3499999999999999778, 0.000000000000000000, 0.000000000000000000 ) ) ;
#449 = DIRECTION ( 'NONE',  ( 0.000000000000000000, 0.000000000000000000, 1.000000000000000000 ) ) ;
#450 = AXIS2_PLACEMENT_3D ( 'NONE', #213, #400, #296 ) ;
#451 = AXIS2_PLACEMENT_3D ( 'NONE', #785, #599, #288 ) ;
#452 = ORIENTED_EDGE ( 'NONE', *, *, #516, .F. ) ;
#453 = DIRECTION ( 'NONE',  ( -1.000000000000000000, 0.000000000000000000, 0.000000000000000000 ) ) ;
#454 = ORIENTED_EDGE ( 'NONE', *, *, #194, .F. ) ;
#455 = DIRECTION ( 'NONE',  ( -1.000000000000000000, 0.000000000000000000, 0.000000000000000000 ) ) ;
#456 = CARTESIAN_POINT ( 'NONE',  ( 0.3500000000000065281, -2.077849108214469886, 2.163918455832460008 ) ) ;
#457 = EDGE_CURVE ( 'NONE', #40, #79, #732, .T. ) ;
#458 = DATE_TIME_ROLE ( 'creation_date' ) ;
#459 = CYLINDRICAL_SURFACE ( 'NONE', #569, 0.4199999999999998179 ) ;
#460 = CLOSED_SHELL ( 'NONE', ( #169, #442, #6, #348, #178, #396, #403, #602, #492, #284, #208, #346, #663, #579, #505, #771, #155, #568, #740, #285, #640, #750 ) ) ;
#461 = CIRCLE ( 'NONE', #485, 0.4199999999999998179 ) ;
#462 = LINE ( 'NONE', #759, #423 ) ;
#463 = DIRECTION ( 'NONE',  ( 1.000000000000000000, 0.000000000000000000, 0.000000000000000000 ) ) ;
#464 = EDGE_CURVE ( 'NONE', #374, #221, #354, .T. ) ;
#465 = EDGE_CURVE ( 'NONE', #644, #14, #121, .T. ) ;
#466 = APPROVAL_ROLE ( '' ) ;
#467 = DIRECTION ( 'NONE',  ( 1.000000000000000000, 0.000000000000000000, 0.000000000000000000 ) ) ;
#468 = ORIENTED_EDGE ( 'NONE', *, *, #149, .F. ) ;
#469 = VERTEX_POINT ( 'NONE', #610 ) ;
#470 = DIRECTION ( 'NONE',  ( 0.000000000000000000, 0.3535533905932758403, -0.9354143466934845552 ) ) ;
#471 = ORIENTED_EDGE ( 'NONE', *, *, #773, .F. ) ;
#472 = AXIS2_PLACEMENT_3D ( 'NONE', #25, #512, #757 ) ;
#473 = AXIS2_PLACEMENT_3D ( 'NONE', #375, #66, #256 ) ;
#474 = FACE_OUTER_BOUND ( 'NONE', #737, .T. ) ;
#475 = CYLINDRICAL_SURFACE ( 'NONE', #555, 0.4200000000000000400 ) ;
#476 = ORIENTED_EDGE ( 'NONE', *, *, #738, .F. ) ;
#477 = PERSON_AND_ORGANIZATION_ROLE ( 'classification_officer' ) ;
#478 = DIRECTION ( 'NONE',  ( -1.000000000000000000, 0.000000000000000000, 0.000000000000000000 ) ) ;
#479 = ORIENTED_EDGE ( 'NONE', *, *, #228, .T. ) ;
#480 = CC_DESIGN_DATE_AND_TIME_ASSIGNMENT ( #674, #416, ( #623 ) ) ;
#481 = LINE ( 'NONE', #181, #743 ) ;
#482 = CARTESIAN_POINT ( 'NONE',  ( 0.3499999999999999778, -4.101243703684635200, 3.680683037435204863 ) ) ;
#483 = VECTOR ( 'NONE', #414, 1000.000000000000000 ) ;
#484 = ORIENTED_EDGE ( 'NONE', *, *, #772, .F. ) ;
#485 = AXIS2_PLACEMENT_3D ( 'NONE', #73, #70, #753 ) ;
#486 = VECTOR ( 'NONE', #679, 1000.000000000000000 ) ;
#487 = DIRECTION ( 'NONE',  ( 0.000000000000000000, 0.000000000000000000, 1.000000000000000000 ) ) ;
#488 = AXIS2_PLACEMENT_3D ( 'NONE', #496, #690, #80 ) ;
#489 = CARTESIAN_POINT ( 'NONE',  ( 0.3499999999999999778, 1.400203047561916048, -3.704589048843565546 ) ) ;
#490 = EDGE_CURVE ( 'NONE', #374, #418, #89, .T. ) ;
#491 = ORIENTED_EDGE ( 'NONE', *, *, #789, .T. ) ;
#492 = ADVANCED_FACE ( 'NONE', ( #166 ), #56, .F. ) ;
#493 = CARTESIAN_POINT ( 'NONE',  ( 0.3499999999999999778, 3.960372279876389623, 2.059984127722460002E-15 ) ) ;
#494 = DIRECTION ( 'NONE',  ( 0.000000000000000000, -0.3535533905932766174, 0.9354143466934842222 ) ) ;
#495 = EDGE_LOOP ( 'NONE', ( #434, #548, #49, #452 ) ) ;
#496 = CARTESIAN_POINT ( 'NONE',  ( 0.3499999999999999778, 3.960372279876389623, -0.4200000000000000400 ) ) ;
#497 = FACE_OUTER_BOUND ( 'NONE', #294, .T. ) ;
#498 = ORIENTED_EDGE ( 'NONE', *, *, #86, .T. ) ;
#499 = CARTESIAN_POINT ( 'NONE',  ( 0.3499999999999999778, 0.000000000000000000, 0.000000000000000000 ) ) ;
#500 = AXIS2_PLACEMENT_3D ( 'NONE', #218, #463, #713 ) ;
#501 = DIRECTION ( 'NONE',  ( 0.000000000000000000, -0.7826081568524138055, 0.6225146366376198559 ) ) ;
#502 = ORIENTED_EDGE ( 'NONE', *, *, #696, .T. ) ;
#503 = CARTESIAN_POINT ( 'NONE',  ( 0.3499999999999999778, 4.101243703684635200, 4.320000000000000284 ) ) ;
#504 = DIRECTION ( 'NONE',  ( 0.000000000000000000, 0.000000000000000000, 1.000000000000000000 ) ) ;
#505 = ADVANCED_FACE ( 'NONE', ( #474 ), #362, .F. ) ;
#506 = EDGE_LOOP ( 'NONE', ( #298, #502, #689, #104 ) ) ;
#507 = DIRECTION ( 'NONE',  ( 0.000000000000000000, 0.000000000000000000, 1.000000000000000000 ) ) ;
#508 = CARTESIAN_POINT ( 'NONE',  ( 0.3500000000000065281, 0.2184030449376644922, -0.1737256262530365025 ) ) ;
#509 = VERTEX_POINT ( 'NONE', #238 ) ;
#510 = PLANE ( 'NONE',  #525 ) ;
#511 = AXIS2_PLACEMENT_3D ( 'NONE', #727, #246, #363 ) ;
#512 = DIRECTION ( 'NONE',  ( -1.000000000000000000, 0.000000000000000000, 0.000000000000000000 ) ) ;
#513 = AXIS2_PLACEMENT_3D ( 'NONE', #590, #271, #29 ) ;
#514 = CC_DESIGN_APPROVAL ( #336, ( #623 ) ) ;
#515 = ORIENTED_EDGE ( 'NONE', *, *, #490, .T. ) ;
#516 = EDGE_CURVE ( 'NONE', #353, #408, #481, .T. ) ;
#517 = MECHANICAL_CONTEXT ( 'NONE', #33, 'mechanical' ) ;
#518 = CC_DESIGN_PERSON_AND_ORGANIZATION_ASSIGNMENT ( #665, #47, ( #243 ) ) ;
#519 = CARTESIAN_POINT ( 'NONE',  ( 16.50273661024660043, 0.000000000000000000, 0.000000000000000000 ) ) ;
#520 = APPROVAL_STATUS ( 'not_yet_approved' ) ;
#521 = CARTESIAN_POINT ( 'NONE',  ( -0.3499999999999999778, 3.960372279876389623, 2.061171071335525073E-15 ) ) ;
#522 = CALENDAR_DATE ( 2025, 7, 3 ) ;
#523 = CARTESIAN_POINT ( 'NONE',  ( 0.3499999999999999778, -4.101243703684635200, 4.320000000000000284 ) ) ;
#524 = CIRCLE ( 'NONE', #112, 0.4199999999999998179 ) ;
#525 = AXIS2_PLACEMENT_3D ( 'NONE', #444, #693, #137 ) ;
#526 = DIRECTION ( 'NONE',  ( 0.000000000000000000, 0.000000000000000000, 1.000000000000000000 ) ) ;
#527 = ORIENTED_EDGE ( 'NONE', *, *, #661, .T. ) ;
#528 = EDGE_CURVE ( 'NONE', #747, #364, #726, .T. ) ;
#529 = ORIENTED_EDGE ( 'NONE', *, *, #194, .T. ) ;
#530 = CARTESIAN_POINT ( 'NONE',  ( -0.3499999999999999778, 0.000000000000000000, 0.000000000000000000 ) ) ;
#531 = DIRECTION ( 'NONE',  ( -1.000000000000000000, 0.000000000000000000, 0.000000000000000000 ) ) ;
#532 = ADVANCED_BREP_SHAPE_REPRESENTATION ( '2106 Series 8mm REX e-clip_2.STEP_Default_sldprt', ( #604, #571 ), #177 ) ;
#533 = ORIENTED_EDGE ( 'NONE', *, *, #53, .T. ) ;
#534 = ORIENTED_EDGE ( 'NONE', *, *, #310, .T. ) ;
#535 = PERSON_AND_ORGANIZATION_ROLE ( 'creator' ) ;
#536 = DIRECTION ( 'NONE',  ( -1.000000000000000000, 0.000000000000000000, 0.000000000000000000 ) ) ;
#537 = VERTEX_POINT ( 'NONE', #245 ) ;
#538 = AXIS2_PLACEMENT_3D ( 'NONE', #317, #741, #13 ) ;
#539 = PERSON_AND_ORGANIZATION ( #96, #675 ) ;
#540 = CIRCLE ( 'NONE', #488, 0.4200000000000000400 ) ;
#541 = EDGE_CURVE ( 'NONE', #747, #657, #174, .T. ) ;
#542 = DIRECTION ( 'NONE',  ( 0.000000000000000000, -1.000000000000000000, -1.224606353822375779E-16 ) ) ;
#543 = ORIENTED_EDGE ( 'NONE', *, *, #552, .F. ) ;
#544 = EDGE_LOOP ( 'NONE', ( #3, #45, #415, #751 ) ) ;
#545 = COORDINATED_UNIVERSAL_TIME_OFFSET ( 6, 0, .BEHIND. ) ;
#546 = DIRECTION ( 'NONE',  ( 0.000000000000000000, -1.000000000000000000, -1.224606353822379970E-16 ) ) ;
#547 = DIRECTION ( 'NONE',  ( 0.000000000000000000, 0.000000000000000000, 1.000000000000000000 ) ) ;
#548 = ORIENTED_EDGE ( 'NONE', *, *, #541, .F. ) ;
#549 = DIRECTION ( 'NONE',  ( 1.000000000000000000, 0.000000000000000000, 0.000000000000000000 ) ) ;
#550 = DIRECTION ( 'NONE',  ( -1.000000000000000000, 0.000000000000000000, 0.000000000000000000 ) ) ;
#551 = EDGE_CURVE ( 'NONE', #418, #204, #676, .T. ) ;
#552 = EDGE_CURVE ( 'NONE', #281, #164, #292, .T. ) ;
#553 = AXIS2_PLACEMENT_3D ( 'NONE', #106, #51, #668 ) ;
#554 = ORIENTED_EDGE ( 'NONE', *, *, #591, .T. ) ;
#555 = AXIS2_PLACEMENT_3D ( 'NONE', #606, #78, #19 ) ;
#556 = CC_DESIGN_APPROVAL ( #42, ( #107 ) ) ;
#557 = CARTESIAN_POINT ( 'NONE',  ( -0.3499999999999999778, -2.629999999999999893, 1.257670725375581854E-15 ) ) ;
#558 = DIRECTION ( 'NONE',  ( -1.000000000000000000, 0.000000000000000000, 0.000000000000000000 ) ) ;
#559 = ORIENTED_EDGE ( 'NONE', *, *, #31, .F. ) ;
#560 = DIRECTION ( 'NONE',  ( 0.000000000000000000, 0.000000000000000000, 1.000000000000000000 ) ) ;
#561 = DIRECTION ( 'NONE',  ( 1.000000000000000000, 0.000000000000000000, 0.000000000000000000 ) ) ;
#562 = ORIENTED_EDGE ( 'NONE', *, *, #312, .T. ) ;
#563 = DIRECTION ( 'NONE',  ( 0.000000000000000000, 0.000000000000000000, 1.000000000000000000 ) ) ;
#564 = CARTESIAN_POINT ( 'NONE',  ( 0.3499999999999999778, 1.793077073173179992, -3.556096624794390149 ) ) ;
#565 = ORIENTED_EDGE ( 'NONE', *, *, #36, .T. ) ;
#566 = DIRECTION ( 'NONE',  ( 0.000000000000000000, 1.000000000000000000, 0.000000000000000000 ) ) ;
#567 = AXIS2_PLACEMENT_3D ( 'NONE', #680, #239, #547 ) ;
#568 = ADVANCED_FACE ( 'NONE', ( #735 ), #366, .F. ) ;
#569 = AXIS2_PLACEMENT_3D ( 'NONE', #716, #220, #35 ) ;
#570 = CYLINDRICAL_SURFACE ( 'NONE', #153, 4.402580645161289219 ) ;
#571 = AXIS2_PLACEMENT_3D ( 'NONE', #146, #276, #761 ) ;
#572 = ORIENTED_EDGE ( 'NONE', *, *, #18, .F. ) ;
#573 = CARTESIAN_POINT ( 'NONE',  ( 0.3499999999999999778, 0.000000000000000000, 0.000000000000000000 ) ) ;
#574 = DIRECTION ( 'NONE',  ( 0.000000000000000000, 0.000000000000000000, 1.000000000000000000 ) ) ;
#575 = ORIENTED_EDGE ( 'NONE', *, *, #295, .F. ) ;
#576 = CARTESIAN_POINT ( 'NONE',  ( -0.3499999999999999778, 1.060660171779821859, -2.806243040080455220 ) ) ;
#577 = CARTESIAN_POINT ( 'NONE',  ( 0.3500000000000065281, 4.577045822871290248, 4.107694187173195566 ) ) ;
#578 = EDGE_CURVE ( 'NONE', #191, #644, #90, .T. ) ;
#579 = ADVANCED_FACE ( 'NONE', ( #720 ), #779, .F. ) ;
#580 = ORIENTED_EDGE ( 'NONE', *, *, #18, .T. ) ;
#581 = PERSON_AND_ORGANIZATION ( #96, #675 ) ;
#582 = CARTESIAN_POINT ( 'NONE',  ( -0.3499999999999999778, -3.960372279876389623, 1.089477331586254123E-15 ) ) ;
#583 = CIRCLE ( 'NONE', #500, 4.402580645161289219 ) ;
#584 = AXIS2_PLACEMENT_3D ( 'NONE', #184, #103, #542 ) ;
#585 = DATE_AND_TIME ( #522, #206 ) ;
#586 = DIRECTION ( 'NONE',  ( 1.000000000000000000, 0.000000000000000000, 0.000000000000000000 ) ) ;
#587 = CYLINDRICAL_SURFACE ( 'NONE', #386, 4.402580645161289219 ) ;
#588 = DIRECTION ( 'NONE',  ( 1.000000000000000000, 0.000000000000000000, 0.000000000000000000 ) ) ;
#589 = DIRECTION ( 'NONE',  ( -1.000000000000000000, 0.000000000000000000, 0.000000000000000000 ) ) ;
#590 = CARTESIAN_POINT ( 'NONE',  ( 0.3499999999999999778, 0.000000000000000000, 0.000000000000000000 ) ) ;
#591 = EDGE_CURVE ( 'NONE', #719, #446, #131, .T. ) ;
#592 = ORIENTED_EDGE ( 'NONE', *, *, #447, .F. ) ;
#593 = CIRCLE ( 'NONE', #15, 3.000000000000000000 ) ;
#594 = CIRCLE ( 'NONE', #744, 0.4199999999999998179 ) ;
#595 = LINE ( 'NONE', #34, #278 ) ;
#596 = DIRECTION ( 'NONE',  ( -1.000000000000000000, 0.000000000000000000, 0.000000000000000000 ) ) ;
#597 = EDGE_CURVE ( 'NONE', #281, #204, #378, .T. ) ;
#598 = ORIENTED_EDGE ( 'NONE', *, *, #405, .F. ) ;
#599 = DIRECTION ( 'NONE',  ( 1.000000000000000000, 0.000000000000000000, 0.000000000000000000 ) ) ;
#600 = EDGE_LOOP ( 'NONE', ( #777, #770, #391, #179 ) ) ;
#601 = EDGE_CURVE ( 'NONE', #204, #221, #540, .T. ) ;
#602 = ADVANCED_FACE ( 'NONE', ( #624 ), #369, .F. ) ;
#603 = ORIENTED_EDGE ( 'NONE', *, *, #578, .T. ) ;
#604 = MANIFOLD_SOLID_BREP ( 'NONE', #460 ) ;
#605 = DIRECTION ( 'NONE',  ( 0.000000000000000000, 0.000000000000000000, 1.000000000000000000 ) ) ;
#606 = CARTESIAN_POINT ( 'NONE',  ( 0.3499999999999999778, -3.960372279876389623, -0.4200000000000000400 ) ) ;
#607 = AXIS2_PLACEMENT_3D ( 'NONE', #379, #632, #437 ) ;
#608 = ORIENTED_EDGE ( 'NONE', *, *, #30, .T. ) ;
#609 = AXIS2_PLACEMENT_3D ( 'NONE', #787, #536, #487 ) ;
#610 = CARTESIAN_POINT ( 'NONE',  ( -0.3499999999999999778, -4.101243703684635200, 4.320000000000000284 ) ) ;
#611 = DIRECTION ( 'NONE',  ( 0.000000000000000000, -0.6225146366376198559, 0.7826081568524136944 ) ) ;
#612 = ORIENTED_EDGE ( 'NONE', *, *, #432, .F. ) ;
#613 = EDGE_CURVE ( 'NONE', #14, #616, #267, .T. ) ;
#614 = DIRECTION ( 'NONE',  ( 1.000000000000000000, 0.000000000000000000, 0.000000000000000000 ) ) ;
#615 = CARTESIAN_POINT ( 'NONE',  ( 0.3500000000000065281, 2.077849108214469886, 2.163918455832460008 ) ) ;
#616 = VERTEX_POINT ( 'NONE', #308 ) ;
#617 = CALENDAR_DATE ( 2025, 7, 3 ) ;
#618 = DIRECTION ( 'NONE',  ( -1.000000000000000000, 0.000000000000000000, 0.000000000000000000 ) ) ;
#619 = DIRECTION ( 'NONE',  ( 0.000000000000000000, -1.000000000000000000, -1.224606353822379970E-16 ) ) ;
#620 = CIRCLE ( 'NONE', #201, 0.6393169625647939780 ) ;
#621 = EDGE_LOOP ( 'NONE', ( #419, #141, #280, #479 ) ) ;
#622 = CIRCLE ( 'NONE', #607, 0.4200000000000000400 ) ;
#623 = SECURITY_CLASSIFICATION ( '', '', #420 ) ;
#624 = FACE_OUTER_BOUND ( 'NONE', #165, .T. ) ;
#625 = CARTESIAN_POINT ( 'NONE',  ( 0.3500000000000065281, -0.2184030449376644922, -0.1737256262530365025 ) ) ;
#626 = ORIENTED_EDGE ( 'NONE', *, *, #597, .F. ) ;
#627 = CARTESIAN_POINT ( 'NONE',  ( -0.3499999999999999778, -4.577045822871290248, 4.107694187173195566 ) ) ;
#628 = DIRECTION ( 'NONE',  ( 1.000000000000000000, 0.000000000000000000, 0.000000000000000000 ) ) ;
#629 = ORIENTED_EDGE ( 'NONE', *, *, #31, .T. ) ;
#630 = CC_DESIGN_PERSON_AND_ORGANIZATION_ASSIGNMENT ( #539, #477, ( #623 ) ) ;
#631 = DIRECTION ( 'NONE',  ( -1.000000000000000000, 0.000000000000000000, 0.000000000000000000 ) ) ;
#632 = DIRECTION ( 'NONE',  ( -1.000000000000000000, 0.000000000000000000, 0.000000000000000000 ) ) ;
#633 = ORIENTED_EDGE ( 'NONE', *, *, #528, .F. ) ;
#634 = DIRECTION ( 'NONE',  ( -1.000000000000000000, 0.000000000000000000, 0.000000000000000000 ) ) ;
#635 = CIRCLE ( 'NONE', #385, 3.000000000000000000 ) ;
#636 = CARTESIAN_POINT ( 'NONE',  ( -0.3499999999999999778, 0.000000000000000000, 0.000000000000000000 ) ) ;
#637 = AXIS2_PLACEMENT_3D ( 'NONE', #448, #631, #440 ) ;
#638 = EDGE_LOOP ( 'NONE', ( #684, #244, #130, #454 ) ) ;
#639 = FACE_OUTER_BOUND ( 'NONE', #7, .T. ) ;
#640 = ADVANCED_FACE ( 'NONE', ( #328 ), #72, .T. ) ;
#641 = CARTESIAN_POINT ( 'NONE',  ( -0.3499999999999999778, 4.101243703684635200, 3.680683037435204863 ) ) ;
#642 = ORIENTED_EDGE ( 'NONE', *, *, #597, .T. ) ;
#643 = PLANE ( 'NONE',  #176 ) ;
#644 = VERTEX_POINT ( 'NONE', #503 ) ;
#645 = DIRECTION ( 'NONE',  ( 0.000000000000000000, 0.3535533905932758403, 0.9354143466934845552 ) ) ;
#646 = AXIS2_PLACEMENT_3D ( 'NONE', #9, #739, #560 ) ;
#647 = CARTESIAN_POINT ( 'NONE',  ( 16.50273661024660043, 4.577045822871290248, 4.107694187173195566 ) ) ;
#648 = CARTESIAN_POINT ( 'NONE',  ( 0.3500000000000065281, 3.600909033967315320, 4.078667204082500497 ) ) ;
#649 = LINE ( 'NONE', #647, #293 ) ;
#650 = APPROVAL ( #764, 'UNSPECIFIED' ) ;
#651 = FACE_OUTER_BOUND ( 'NONE', #225, .T. ) ;
#652 = ORIENTED_EDGE ( 'NONE', *, *, #430, .T. ) ;
#654 = DIRECTION ( 'NONE',  ( 1.000000000000000000, 0.000000000000000000, 0.000000000000000000 ) ) ;
#653 = DESIGN_CONTEXT ( 'detailed design', #272, 'design' ) ;
#655 = EDGE_CURVE ( 'NONE', #186, #118, #594, .T. ) ;
#656 = CARTESIAN_POINT ( 'NONE',  ( 0.3499999999999999778, -3.960372279876389623, 1.089477331586254123E-15 ) ) ;
#657 = VERTEX_POINT ( 'NONE', #686 ) ;
#658 = VECTOR ( 'NONE', #17, 999.9999999999998863 ) ;
#659 = ORIENTED_EDGE ( 'NONE', *, *, #301, .T. ) ;
#660 = CARTESIAN_POINT ( 'NONE',  ( 0.3499999999999999778, -1.982173650953144906, -3.931119936432350137 ) ) ;
#661 = EDGE_CURVE ( 'NONE', #150, #164, #710, .T. ) ;
#662 = ORIENTED_EDGE ( 'NONE', *, *, #430, .F. ) ;
#663 = ADVANCED_FACE ( 'NONE', ( #745 ), #207, .F. ) ;
#664 = ORIENTED_EDGE ( 'NONE', *, *, #793, .F. ) ;
#665 = PERSON_AND_ORGANIZATION ( #96, #675 ) ;
#666 = LINE ( 'NONE', #413, #436 ) ;
#667 = PRODUCT_DEFINITION_SHAPE ( 'NONE', 'NONE',  #107 ) ;
#668 = DIRECTION ( 'NONE',  ( 0.000000000000000000, 0.000000000000000000, 1.000000000000000000 ) ) ;
#669 = EDGE_LOOP ( 'NONE', ( #626, #124, #101, #258 ) ) ;
#670 = DIRECTION ( 'NONE',  ( 0.000000000000000000, -0.7826081568524138055, -0.6225146366376198559 ) ) ;
#671 = ORIENTED_EDGE ( 'NONE', *, *, #688, .F. ) ;
#672 = CIRCLE ( 'NONE', #450, 4.402580645161289219 ) ;
#673 = ORIENTED_EDGE ( 'NONE', *, *, #655, .T. ) ;
#674 = DATE_AND_TIME ( #102, #113 ) ;
#675 = ORGANIZATION ( 'UNSPECIFIED', 'UNSPECIFIED', '' ) ;
#676 = LINE ( 'NONE', #493, #254 ) ;
#677 = CARTESIAN_POINT ( 'NONE',  ( -0.3499999999999999778, 1.793077073173179992, -3.556096624794390149 ) ) ;
#678 = VERTEX_POINT ( 'NONE', #627 ) ;
#679 = DIRECTION ( 'NONE',  ( -1.000000000000000000, 0.000000000000000000, 0.000000000000000000 ) ) ;
#680 = CARTESIAN_POINT ( 'NONE',  ( -0.3499999999999999778, -4.101243703684635200, 3.680683037435204863 ) ) ;
#681 = ORIENTED_EDGE ( 'NONE', *, *, #406, .F. ) ;
#682 = CYLINDRICAL_SURFACE ( 'NONE', #231, 0.6393169625647951992 ) ;
#683 = CARTESIAN_POINT ( 'NONE',  ( -0.3499999999999999778, -1.060660171779821859, -2.806243040080455220 ) ) ;
#684 = ORIENTED_EDGE ( 'NONE', *, *, #763, .F. ) ;
#685 = AXIS2_PLACEMENT_3D ( 'NONE', #530, #215, #344 ) ;
#686 = CARTESIAN_POINT ( 'NONE',  ( 0.3499999999999999778, -3.000000000000000000, 1.094752490687001840E-15 ) ) ;
#687 = FACE_OUTER_BOUND ( 'NONE', #393, .T. ) ;
#688 = EDGE_CURVE ( 'NONE', #353, #657, #39, .T. ) ;
#689 = ORIENTED_EDGE ( 'NONE', *, *, #406, .T. ) ;
#690 = DIRECTION ( 'NONE',  ( -1.000000000000000000, 0.000000000000000000, 0.000000000000000000 ) ) ;
#691 = CARTESIAN_POINT ( 'NONE',  ( 0.3500000000000065281, 3.600909033967315320, 4.078667204082500497 ) ) ;
#692 = ORIENTED_EDGE ( 'NONE', *, *, #274, .T. ) ;
#693 = DIRECTION ( 'NONE',  ( 1.000000000000000000, 0.000000000000000000, 0.000000000000000000 ) ) ;
#694 = DIRECTION ( 'NONE',  ( -1.000000000000000000, 0.000000000000000000, 0.000000000000000000 ) ) ;
#695 = ORIENTED_EDGE ( 'NONE', *, *, #202, .T. ) ;
#696 = EDGE_CURVE ( 'NONE', #368, #170, #163, .T. ) ;
#697 = DIRECTION ( 'NONE',  ( 0.000000000000000000, -0.9354143466934845552, -0.3535533905932758403 ) ) ;
#698 = AXIS2_PLACEMENT_3D ( 'NONE', #641, #383, #700 ) ;
#699 = VECTOR ( 'NONE', #50, 1000.000000000000000 ) ;
#700 = DIRECTION ( 'NONE',  ( 0.000000000000000000, 9.496904542562440439E-15, 1.000000000000000000 ) ) ;
#701 = ORIENTED_EDGE ( 'NONE', *, *, #490, .F. ) ;
#702 =( NAMED_UNIT ( * ) PLANE_ANGLE_UNIT ( ) SI_UNIT ( $, .RADIAN. ) );
#703 = PLANE ( 'NONE',  #421 ) ;
#704 = ORIENTED_EDGE ( 'NONE', *, *, #228, .F. ) ;
#705 = APPROVAL_DATE_TIME ( #92, #42 ) ;
#706 = CARTESIAN_POINT ( 'NONE',  ( -0.3499999999999999778, -2.077849108214469886, 2.163918455832460008 ) ) ;
#707 = PERSON_AND_ORGANIZATION ( #96, #675 ) ;
#708 = CYLINDRICAL_SURFACE ( 'NONE', #513, 3.000000000000000000 ) ;
#709 = CIRCLE ( 'NONE', #203, 4.402580645161289219 ) ;
#710 = CIRCLE ( 'NONE', #637, 3.000000000000000000 ) ;
#711 = DIRECTION ( 'NONE',  ( 0.000000000000000000, 0.000000000000000000, 1.000000000000000000 ) ) ;
#712 = APPLICATION_PROTOCOL_DEFINITION ( 'international standard', 'config_control_design', 1994, #33 ) ;
#713 = DIRECTION ( 'NONE',  ( 0.000000000000000000, 0.000000000000000000, 1.000000000000000000 ) ) ;
#714 = VERTEX_POINT ( 'NONE', #576 ) ;
#715 = EDGE_CURVE ( 'NONE', #221, #290, #358, .T. ) ;
#716 = CARTESIAN_POINT ( 'NONE',  ( 0.3499999999999999778, 1.793077073173179992, -3.556096624794390149 ) ) ;
#717 = EDGE_LOOP ( 'NONE', ( #82, #11, #776, #286 ) ) ;
#718 = VECTOR ( 'NONE', #467, 1000.000000000000000 ) ;
#719 = VERTEX_POINT ( 'NONE', #69 ) ;
#720 = FACE_OUTER_BOUND ( 'NONE', #544, .T. ) ;
#721 = ORIENTED_EDGE ( 'NONE', *, *, #274, .F. ) ;
#722 = ORIENTED_EDGE ( 'NONE', *, *, #324, .T. ) ;
#723 = DIRECTION ( 'NONE',  ( 1.000000000000000000, 0.000000000000000000, 0.000000000000000000 ) ) ;
#724 = ORIENTED_EDGE ( 'NONE', *, *, #227, .T. ) ;
#725 = VERTEX_POINT ( 'NONE', #196 ) ;
#726 = LINE ( 'NONE', #557, #438 ) ;
#727 = CARTESIAN_POINT ( 'NONE',  ( -0.3499999999999999778, -3.960372279876389623, -0.4200000000000000400 ) ) ;
#728 = VECTOR ( 'NONE', #619, 1000.000000000000000 ) ;
#729 = VECTOR ( 'NONE', #105, 1000.000000000000000 ) ;
#730 = VECTOR ( 'NONE', #586, 1000.000000000000000 ) ;
#731 = COORDINATED_UNIVERSAL_TIME_OFFSET ( 6, 0, .BEHIND. ) ;
#732 = LINE ( 'NONE', #48, #729 ) ;
#733 = DIRECTION ( 'NONE',  ( 0.000000000000000000, 0.000000000000000000, 1.000000000000000000 ) ) ;
#734 = ORIENTED_EDGE ( 'NONE', *, *, #613, .F. ) ;
#735 = FACE_OUTER_BOUND ( 'NONE', #87, .T. ) ;
#736 = DIRECTION ( 'NONE',  ( 0.000000000000000000, 4.070101946812482137E-15, -1.000000000000000000 ) ) ;
#737 = EDGE_LOOP ( 'NONE', ( #598, #340, #491, #786 ) ) ;
#738 = EDGE_CURVE ( 'NONE', #714, #71, #129, .T. ) ;
#739 = DIRECTION ( 'NONE',  ( -1.000000000000000000, 0.000000000000000000, 0.000000000000000000 ) ) ;
#740 = ADVANCED_FACE ( 'NONE', ( #639 ), #510, .T. ) ;
#741 = DIRECTION ( 'NONE',  ( 1.000000000000000000, 0.000000000000000000, 0.000000000000000000 ) ) ;
#742 = ORIENTED_EDGE ( 'NONE', *, *, #310, .F. ) ;
#743 = VECTOR ( 'NONE', #59, 1000.000000000000000 ) ;
#744 = AXIS2_PLACEMENT_3D ( 'NONE', #199, #248, #316 ) ;
#745 = FACE_OUTER_BOUND ( 'NONE', #600, .T. ) ;
#746 = CARTESIAN_POINT ( 'NONE',  ( 0.3499999999999999778, 0.000000000000000000, 0.000000000000000000 ) ) ;
#747 = VERTEX_POINT ( 'NONE', #24 ) ;
#748 = DIRECTION ( 'NONE',  ( 0.000000000000000000, 0.3535533905932758403, -0.9354143466934845552 ) ) ;
#749 = DIRECTION ( 'NONE',  ( -1.000000000000000000, 0.000000000000000000, 0.000000000000000000 ) ) ;
#750 = ADVANCED_FACE ( 'NONE', ( #755 ), #682, .T. ) ;
#751 = ORIENTED_EDGE ( 'NONE', *, *, #405, .T. ) ;
#752 = CARTESIAN_POINT ( 'NONE',  ( 0.3499999999999999778, 0.000000000000000000, 0.000000000000000000 ) ) ;
#753 = DIRECTION ( 'NONE',  ( 0.000000000000000000, 0.000000000000000000, 1.000000000000000000 ) ) ;
#754 = EDGE_LOOP ( 'NONE', ( #315, #701, #758, #429 ) ) ;
#755 = FACE_OUTER_BOUND ( 'NONE', #717, .T. ) ;
#756 = CC_DESIGN_APPROVAL ( #650, ( #243 ) ) ;
#757 = DIRECTION ( 'NONE',  ( 0.000000000000000000, 0.000000000000000000, 1.000000000000000000 ) ) ;
#758 = ORIENTED_EDGE ( 'NONE', *, *, #464, .T. ) ;
#759 = CARTESIAN_POINT ( 'NONE',  ( 0.3499999999999999778, 1.982173650953144906, -3.931119936432350137 ) ) ;
#760 = LINE ( 'NONE', #223, #216 ) ;
#761 = DIRECTION ( 'NONE',  ( 1.000000000000000000, 0.000000000000000000, 0.000000000000000000 ) ) ;
#762 = CYLINDRICAL_SURFACE ( 'NONE', #52, 6.150000000000000355 ) ;
#763 = EDGE_CURVE ( 'NONE', #537, #290, #462, .T. ) ;
#764 = APPROVAL_STATUS ( 'not_yet_approved' ) ;
#765 = AXIS2_PLACEMENT_3D ( 'NONE', #677, #5, #788 ) ;
#766 = CARTESIAN_POINT ( 'NONE',  ( -0.3499999999999999778, 4.378030202150739569, -0.4642928883849000155 ) ) ;
#767 = AXIS2_PLACEMENT_3D ( 'NONE', #4, #417, #546 ) ;
#768 = AXIS2_PLACEMENT_3D ( 'NONE', #230, #192, #187 ) ;
#769 = LINE ( 'NONE', #279, #229 ) ;
#770 = ORIENTED_EDGE ( 'NONE', *, *, #380, .T. ) ;
#771 = ADVANCED_FACE ( 'NONE', ( #404 ), #587, .F. ) ;
#772 = EDGE_CURVE ( 'NONE', #191, #198, #649, .T. ) ;
#773 = EDGE_CURVE ( 'NONE', #198, #678, #76, .T. ) ;
#774 = DIRECTION ( 'NONE',  ( 0.000000000000000000, 0.000000000000000000, 1.000000000000000000 ) ) ;
#775 = FACE_OUTER_BOUND ( 'NONE', #495, .T. ) ;
#776 = ORIENTED_EDGE ( 'NONE', *, *, #613, .T. ) ;
#777 = ORIENTED_EDGE ( 'NONE', *, *, #372, .F. ) ;
#778 = APPROVAL_STATUS ( 'not_yet_approved' ) ;
#779 = PLANE ( 'NONE',  #768 ) ;
#780 = CARTESIAN_POINT ( 'NONE',  ( -0.3499999999999999778, 2.077849108214469886, 2.163918455832460008 ) ) ;
#781 = PRODUCT ( '2106 Series 8mm REX e-clip_2.STEP_Default_sldprt', '2106 Series 8mm REX e-clip_2.STEP_Default_sldprt', '', ( #517 ) ) ;
#782 = AXIS2_PLACEMENT_3D ( 'NONE', #499, #259, #507 ) ;
#783 = ORIENTED_EDGE ( 'NONE', *, *, #85, .F. ) ;
#784 = PERSON_AND_ORGANIZATION ( #96, #675 ) ;
#785 = CARTESIAN_POINT ( 'NONE',  ( 0.3499999999999999778, 4.101243703684635200, 3.680683037435204863 ) ) ;
#786 = ORIENTED_EDGE ( 'NONE', *, *, #202, .F. ) ;
#787 = CARTESIAN_POINT ( 'NONE',  ( 0.3499999999999999778, -1.793077073173179992, -3.556096624794390149 ) ) ;
#788 = DIRECTION ( 'NONE',  ( 0.000000000000000000, 1.032573497605242816E-15, 1.000000000000000000 ) ) ;
#789 = EDGE_CURVE ( 'NONE', #186, #321, #595, .T. ) ;
#790 = ORIENTED_EDGE ( 'NONE', *, *, #324, .F. ) ;
#791 = CARTESIAN_POINT ( 'NONE',  ( 0.3499999999999999778, 3.000000000000000000, 1.947124102577580156E-15 ) ) ;
#792 = VERTEX_POINT ( 'NONE', #394 ) ;
#793 = EDGE_CURVE ( 'NONE', #150, #616, #157, .T. ) ;
ENDSEC;
END-ISO-10303-21;
