ISO-10303-21;
HEADER;
FILE_DESCRIPTION (( 'STEP AP203' ),
    '1' );
FILE_NAME ('2913-0004-0241 ball-c_Default_sldprt.STEP',
    '2025-03-08T04:50:01',
    ( '' ),
    ( '' ),
    'SwSTEP 2.0',
    'SolidWorks 2024',
    '' );
FILE_SCHEMA (( 'CONFIG_CONTROL_DESIGN' ));
ENDSEC;

DATA;
#1 = FACE_OUTER_BOUND ( 'NONE', #368, .T. ) ;
#2 = APPROVAL_PERSON_ORGANIZATION ( #183, #143, #255 ) ;
#3 = CARTESIAN_POINT ( 'NONE',  ( 0.000000000000000000, 0.000000000000000000, 0.1387795275590551214 ) ) ;
#4 = MANIFOLD_SOLID_BREP ( 'NONE', #306 ) ;
#5 = ADVANCED_FACE ( 'NONE', ( #189 ), #90, .T. ) ;
#6 = AXIS2_PLACEMENT_3D ( 'NONE', #372, #367, #78 ) ;
#7 = FACE_OUTER_BOUND ( 'NONE', #205, .T. ) ;
#8 = ORIENTED_EDGE ( 'NONE', *, *, #103, .T. ) ;
#9 = PRODUCT_DEFINITION_SHAPE ( 'NONE', 'NONE',  #204 ) ;
#10 = DIRECTION ( 'NONE',  ( 0.000000000000000000, 0.000000000000000000, -1.000000000000000000 ) ) ;
#11 = EDGE_LOOP ( 'NONE', ( #21, #258, #279, #13 ) ) ;
#12 = DIRECTION ( 'NONE',  ( 0.7071067811865490160, 8.659560562354948882E-17, -0.7071067811865460184 ) ) ;
#13 = ORIENTED_EDGE ( 'NONE', *, *, #250, .F. ) ;
#14 = DIRECTION ( 'NONE',  ( 0.000000000000000000, -1.000000000000000000, 0.000000000000000000 ) ) ;
#15 = CIRCLE ( 'NONE', #6, 0.08858267716535432601 ) ;
#16 = EDGE_CURVE ( 'NONE', #418, #172, #233, .T. ) ;
#17 = ORIENTED_EDGE ( 'NONE', *, *, #330, .T. ) ;
#18 = APPROVAL_DATE_TIME ( #315, #71 ) ;
#19 = ORIENTED_EDGE ( 'NONE', *, *, #240, .F. ) ;
#20 = DATE_AND_TIME ( #115, #148 ) ;
#21 = ORIENTED_EDGE ( 'NONE', *, *, #53, .T. ) ;
#22 = EDGE_CURVE ( 'NONE', #159, #161, #223, .T. ) ;
#23 =( NAMED_UNIT ( * ) PLANE_ANGLE_UNIT ( ) SI_UNIT ( $, .RADIAN. ) );
#24 = DIRECTION ( 'NONE',  ( 0.000000000000000000, 0.000000000000000000, 1.000000000000000000 ) ) ;
#25 = AXIS2_PLACEMENT_3D ( 'NONE', #266, #68, #361 ) ;
#26 = CARTESIAN_POINT ( 'NONE',  ( 0.000000000000000000, 0.000000000000000000, 0.000000000000000000 ) ) ;
#27 = DIRECTION ( 'NONE',  ( -1.000000000000000000, 0.000000000000000000, 0.000000000000000000 ) ) ;
#28 = DATE_TIME_ROLE ( 'classification_date' ) ;
#29 = EDGE_CURVE ( 'NONE', #419, #177, #88, .T. ) ;
#30 = VERTEX_POINT ( 'NONE', #359 ) ;
#31 = DIRECTION ( 'NONE',  ( 1.224646799147351975E-16, -1.000000000000000000, 0.000000000000000000 ) ) ;
#32 = CONICAL_SURFACE ( 'NONE', #41, 0.08858267716535432601, 0.7853981633974503884 ) ;
#33 = AXIS2_PLACEMENT_3D ( 'NONE', #124, #316, #218 ) ;
#34 = CARTESIAN_POINT ( 'NONE',  ( 0.08858267716535432601, 1.084824920504545324E-17, -0.1387795275590551214 ) ) ;
#35 = DIRECTION ( 'NONE',  ( -0.7071067811865490160, 0.000000000000000000, -0.7071067811865460184 ) ) ;
#36 = APPROVAL_PERSON_ORGANIZATION ( #408, #394, #117 ) ;
#37 = DIRECTION ( 'NONE',  ( 1.000000000000000000, 0.000000000000000000, 0.000000000000000000 ) ) ;
#38 = LINE ( 'NONE', #231, #105 ) ;
#39 = DIRECTION ( 'NONE',  ( 0.000000000000000000, 0.000000000000000000, 1.000000000000000000 ) ) ;
#40 = ORIENTED_EDGE ( 'NONE', *, *, #257, .F. ) ;
#41 = AXIS2_PLACEMENT_3D ( 'NONE', #309, #39, #236 ) ;
#42 = CIRCLE ( 'NONE', #285, 0.08858267716535432601 ) ;
#43 = DIRECTION ( 'NONE',  ( 0.000000000000000000, 0.000000000000000000, -1.000000000000000000 ) ) ;
#44 = ORIENTED_EDGE ( 'NONE', *, *, #420, .F. ) ;
#45 = ORIENTED_EDGE ( 'NONE', *, *, #16, .F. ) ;
#46 = EDGE_CURVE ( 'NONE', #304, #172, #413, .T. ) ;
#47 = DIRECTION ( 'NONE',  ( 0.000000000000000000, 0.000000000000000000, -1.000000000000000000 ) ) ;
#48 = APPROVAL_DATE_TIME ( #20, #394 ) ;
#49 = VECTOR ( 'NONE', #122, 39.37007874015748143 ) ;
#50 = DIRECTION ( 'NONE',  ( -1.000000000000000000, 0.000000000000000000, 0.000000000000000000 ) ) ;
#51 = AXIS2_PLACEMENT_3D ( 'NONE', #261, #198, #226 ) ;
#52 = DIRECTION ( 'NONE',  ( 1.000000000000000000, 0.000000000000000000, 0.000000000000000000 ) ) ;
#53 = EDGE_CURVE ( 'NONE', #161, #214, #140, .T. ) ;
#54 = APPROVAL_ROLE ( '' ) ;
#55 = ORIENTED_EDGE ( 'NONE', *, *, #300, .F. ) ;
#56 = CALENDAR_DATE ( 2025, 7, 3 ) ;
#57 = EDGE_LOOP ( 'NONE', ( #74, #44 ) ) ;
#58 = AXIS2_PLACEMENT_3D ( 'NONE', #400, #47, #272 ) ;
#59 = CIRCLE ( 'NONE', #298, 0.1872047244094488250 ) ;
#60 = DIRECTION ( 'NONE',  ( 1.000000000000000000, 0.000000000000000000, 0.000000000000000000 ) ) ;
#61 = ORIENTED_EDGE ( 'NONE', *, *, #166, .F. ) ;
#62 = DIRECTION ( 'NONE',  ( -1.000000000000000000, 0.000000000000000000, 0.000000000000000000 ) ) ;
#63 = LINE ( 'NONE', #422, #69 ) ;
#64 = AXIS2_PLACEMENT_3D ( 'NONE', #72, #211, #347 ) ;
#65 = CARTESIAN_POINT ( 'NONE',  ( 0.000000000000000000, 0.000000000000000000, -0.1387795275590551214 ) ) ;
#66 = PRODUCT_RELATED_PRODUCT_CATEGORY ( 'detail', '', ( #175 ) ) ;
#67 = DIRECTION ( 'NONE',  ( 1.000000000000000000, 0.000000000000000000, -1.224646799147353207E-16 ) ) ;
#68 = DIRECTION ( 'NONE',  ( 0.000000000000000000, 1.000000000000000000, 0.000000000000000000 ) ) ;
#69 = VECTOR ( 'NONE', #35, 39.37007874015748143 ) ;
#70 = AXIS2_PLACEMENT_3D ( 'NONE', #263, #230, #364 ) ;
#71 = APPROVAL ( #281, 'UNSPECIFIED' ) ;
#72 = CARTESIAN_POINT ( 'NONE',  ( 0.000000000000000000, 0.000000000000000000, -0.1872047244094488250 ) ) ;
#73 = LINE ( 'NONE', #406, #201 ) ;
#74 = ORIENTED_EDGE ( 'NONE', *, *, #93, .F. ) ;
#75 = DIRECTION ( 'NONE',  ( 1.000000000000000000, 0.000000000000000000, 0.000000000000000000 ) ) ;
#76 = VERTEX_POINT ( 'NONE', #153 ) ;
#77 = CIRCLE ( 'NONE', #332, 0.1872047244094488250 ) ;
#78 = DIRECTION ( 'NONE',  ( -1.000000000000000000, 0.000000000000000000, 0.000000000000000000 ) ) ;
#79 = ORIENTED_EDGE ( 'NONE', *, *, #280, .F. ) ;
#80 = ADVANCED_FACE ( 'NONE', ( #379 ), #228, .F. ) ;
#81 = CARTESIAN_POINT ( 'NONE',  ( 0.000000000000000000, 0.000000000000000000, -0.1387795275590551214 ) ) ;
#82 = EDGE_LOOP ( 'NONE', ( #147, #282, #116, #55 ) ) ;
#83 = CC_DESIGN_APPROVAL ( #394, ( #204 ) ) ;
#84 =( CONVERSION_BASED_UNIT ( 'INCH', #213 ) LENGTH_UNIT ( ) NAMED_UNIT ( #127 ) );
#85 = EDGE_LOOP ( 'NONE', ( #220, #308, #45, #8, #312 ) ) ;
#86 = SECURITY_CLASSIFICATION_LEVEL ( 'unclassified' ) ;
#87 = EDGE_CURVE ( 'NONE', #271, #177, #269, .T. ) ;
#88 = CIRCLE ( 'NONE', #106, 0.1256417588690285636 ) ;
#89 = APPLICATION_PROTOCOL_DEFINITION ( 'international standard', 'config_control_design', 1994, #194 ) ;
#90 = SPHERICAL_SURFACE ( 'NONE', #121, 0.1872047244094488250 ) ;
#91 = SHAPE_DEFINITION_REPRESENTATION ( #9, #184 ) ;
#92 = CARTESIAN_POINT ( 'NONE',  ( 0.000000000000000000, 0.000000000000000000, -0.1387795275590551214 ) ) ;
#93 = EDGE_CURVE ( 'NONE', #30, #212, #42, .T. ) ;
#94 = CARTESIAN_POINT ( 'NONE',  ( 0.000000000000000000, 0.000000000000000000, 0.000000000000000000 ) ) ;
#95 = CIRCLE ( 'NONE', #232, 0.1872047244094488250 ) ;
#96 = CIRCLE ( 'NONE', #25, 0.1872047244094488250 ) ;
#97 = EDGE_CURVE ( 'NONE', #214, #161, #155, .T. ) ;
#98 = CARTESIAN_POINT ( 'NONE',  ( -0.08070866141732284393, 9.883960386819193092E-18, -0.1872047244094488250 ) ) ;
#99 = EDGE_CURVE ( 'NONE', #411, #159, #208, .T. ) ;
#100 = CARTESIAN_POINT ( 'NONE',  ( 0.000000000000000000, 0.000000000000000000, 0.1387795275590551214 ) ) ;
#101 = CARTESIAN_POINT ( 'NONE',  ( 0.08070866141732284393, 0.000000000000000000, 0.1309055118110236116 ) ) ;
#102 = DIRECTION ( 'NONE',  ( 0.000000000000000000, 0.000000000000000000, -1.000000000000000000 ) ) ;
#103 = EDGE_CURVE ( 'NONE', #418, #76, #284, .T. ) ;
#104 = CARTESIAN_POINT ( 'NONE',  ( 0.000000000000000000, 0.000000000000000000, 0.000000000000000000 ) ) ;
#105 = VECTOR ( 'NONE', #366, 39.37007874015748143 ) ;
#106 = AXIS2_PLACEMENT_3D ( 'NONE', #225, #324, #50 ) ;
#107 = CARTESIAN_POINT ( 'NONE',  ( 0.08070866141732284393, 0.000000000000000000, -0.1309055118110236116 ) ) ;
#108 = ORIENTED_EDGE ( 'NONE', *, *, #242, .T. ) ;
#109 = FACE_OUTER_BOUND ( 'NONE', #319, .T. ) ;
#110 = ORIENTED_EDGE ( 'NONE', *, *, #16, .T. ) ;
#111 = CARTESIAN_POINT ( 'NONE',  ( -0.1256417588690287579, -1.538667778381995963E-17, 0.1387795275590551214 ) ) ;
#112 = ORIENTED_EDGE ( 'NONE', *, *, #300, .T. ) ;
#113 = VECTOR ( 'NONE', #329, 39.37007874015748143 ) ;
#114 = CARTESIAN_POINT ( 'NONE',  ( 0.000000000000000000, -0.1872047244094488250, -0.1387795275590551214 ) ) ;
#115 = CALENDAR_DATE ( 2025, 7, 3 ) ;
#116 = ORIENTED_EDGE ( 'NONE', *, *, #97, .F. ) ;
#117 = APPROVAL_ROLE ( '' ) ;
#118 = DIRECTION ( 'NONE',  ( 1.000000000000000000, 1.224646799147351728E-16, 0.000000000000000000 ) ) ;
#119 = COORDINATED_UNIVERSAL_TIME_OFFSET ( 6, 0, .BEHIND. ) ;
#120 = AXIS2_PLACEMENT_3D ( 'NONE', #307, #397, #75 ) ;
#121 = AXIS2_PLACEMENT_3D ( 'NONE', #409, #128, #52 ) ;
#122 = DIRECTION ( 'NONE',  ( 0.000000000000000000, 0.000000000000000000, 1.000000000000000000 ) ) ;
#123 = PERSON_AND_ORGANIZATION ( #337, #221 ) ;
#124 = CARTESIAN_POINT ( 'NONE',  ( 0.000000000000000000, 0.000000000000000000, 0.1309055118110236116 ) ) ;
#125 = ORIENTED_EDGE ( 'NONE', *, *, #267, .F. ) ;
#126 = ADVANCED_FACE ( 'NONE', ( #331 ), #132, .T. ) ;
#127 = DIMENSIONAL_EXPONENTS ( 1.000000000000000000, 0.000000000000000000, 0.000000000000000000, 0.000000000000000000, 0.000000000000000000, 0.000000000000000000, 0.000000000000000000 ) ;
#128 = DIRECTION ( 'NONE',  ( -0.000000000000000000, 0.000000000000000000, 1.000000000000000000 ) ) ;
#129 = VECTOR ( 'NONE', #167, 39.37007874015748143 ) ;
#130 = CARTESIAN_POINT ( 'NONE',  ( 0.000000000000000000, 0.000000000000000000, 0.000000000000000000 ) ) ;
#131 = ADVANCED_FACE ( 'NONE', ( #1 ), #325, .T. ) ;
#132 = SPHERICAL_SURFACE ( 'NONE', #51, 0.1872047244094488250 ) ;
#133 = AXIS2_PLACEMENT_3D ( 'NONE', #209, #342, #146 ) ;
#134 = DIRECTION ( 'NONE',  ( -1.000000000000000000, 0.000000000000000000, 0.000000000000000000 ) ) ;
#135 = CARTESIAN_POINT ( 'NONE',  ( 0.1256417588690285636, 0.000000000000000000, -0.1387795275590551214 ) ) ;
#136 = FACE_OUTER_BOUND ( 'NONE', #353, .T. ) ;
#137 = DESIGN_CONTEXT ( 'detailed design', #346, 'design' ) ;
#138 = ORIENTED_EDGE ( 'NONE', *, *, #257, .T. ) ;
#139 = AXIS2_PLACEMENT_3D ( 'NONE', #114, #171, #14 ) ;
#140 = CIRCLE ( 'NONE', #33, 0.08070866141732284393 ) ;
#141 = FACE_BOUND ( 'NONE', #145, .T. ) ;
#142 = VERTEX_POINT ( 'NONE', #389 ) ;
#143 = APPROVAL ( #249, 'UNSPECIFIED' ) ;
#144 = FACE_OUTER_BOUND ( 'NONE', #385, .T. ) ;
#145 = EDGE_LOOP ( 'NONE', ( #256, #351 ) ) ;
#146 = DIRECTION ( 'NONE',  ( -1.000000000000000000, 0.000000000000000000, 0.000000000000000000 ) ) ;
#147 = ORIENTED_EDGE ( 'NONE', *, *, #99, .T. ) ;
#148 = LOCAL_TIME ( 22, 50, 1.000000000000000000, #354 ) ;
#149 = DIRECTION ( 'NONE',  ( -1.000000000000000000, 0.000000000000000000, 0.000000000000000000 ) ) ;
#150 = ORIENTED_EDGE ( 'NONE', *, *, #250, .T. ) ;
#151 = ORIENTED_EDGE ( 'NONE', *, *, #99, .F. ) ;
#152 = PERSON_AND_ORGANIZATION_ROLE ( 'creator' ) ;
#153 = CARTESIAN_POINT ( 'NONE',  ( 0.1256417588690287579, 0.000000000000000000, 0.1387795275590551214 ) ) ;
#154 = APPLICATION_PROTOCOL_DEFINITION ( 'international standard', 'config_control_design', 1994, #346 ) ;
#155 = CIRCLE ( 'NONE', #391, 0.08070866141732284393 ) ;
#156 = CARTESIAN_POINT ( 'NONE',  ( 0.000000000000000000, 0.000000000000000000, 0.000000000000000000 ) ) ;
#157 = PERSON_AND_ORGANIZATION ( #337, #221 ) ;
#158 = ADVANCED_FACE ( 'NONE', ( #265 ), #164, .T. ) ;
#159 = VERTEX_POINT ( 'NONE', #200 ) ;
#160 = PERSON_AND_ORGANIZATION ( #337, #221 ) ;
#161 = VERTEX_POINT ( 'NONE', #293 ) ;
#162 = LINE ( 'NONE', #360, #113 ) ;
#163 = AXIS2_PLACEMENT_3D ( 'NONE', #81, #268, #206 ) ;
#164 = SPHERICAL_SURFACE ( 'NONE', #202, 0.1872047244094488250 ) ;
#165 = DIRECTION ( 'NONE',  ( -0.000000000000000000, 0.000000000000000000, 1.000000000000000000 ) ) ;
#166 = EDGE_CURVE ( 'NONE', #214, #142, #328, .T. ) ;
#167 = DIRECTION ( 'NONE',  ( 0.7071067811865490160, -8.659560562354948882E-17, 0.7071067811865460184 ) ) ;
#168 = CC_DESIGN_PERSON_AND_ORGANIZATION_ASSIGNMENT ( #416, #215, ( #260 ) ) ;
#169 = CARTESIAN_POINT ( 'NONE',  ( -0.1872047244094488250, -2.292596665332936086E-17, 2.292596665332939167E-17 ) ) ;
#170 = DIRECTION ( 'NONE',  ( -1.000000000000000000, 0.000000000000000000, 0.000000000000000000 ) ) ;
#171 = DIRECTION ( 'NONE',  ( 0.000000000000000000, 0.000000000000000000, -1.000000000000000000 ) ) ;
#172 = VERTEX_POINT ( 'NONE', #169 ) ;
#173 = CC_DESIGN_PERSON_AND_ORGANIZATION_ASSIGNMENT ( #123, #287, ( #254 ) ) ;
#174 = DIRECTION ( 'NONE',  ( -1.000000000000000000, 0.000000000000000000, 0.000000000000000000 ) ) ;
#175 = PRODUCT ( '2913-0004-0241 ball-c_Default_sldprt', '2913-0004-0241 ball-c_Default_sldprt', '', ( #349 ) ) ;
#176 = ORIENTED_EDGE ( 'NONE', *, *, #267, .T. ) ;
#177 = VERTEX_POINT ( 'NONE', #135 ) ;
#178 = CARTESIAN_POINT ( 'NONE',  ( 0.000000000000000000, 0.000000000000000000, 0.000000000000000000 ) ) ;
#179 = EDGE_CURVE ( 'NONE', #172, #419, #234, .T. ) ;
#180 = AXIS2_PLACEMENT_3D ( 'NONE', #26, #356, #60 ) ;
#181 = DATE_AND_TIME ( #56, #289 ) ;
#182 = DIRECTION ( 'NONE',  ( 1.000000000000000000, 0.000000000000000000, -1.224646799147353207E-16 ) ) ;
#183 = PERSON_AND_ORGANIZATION ( #337, #221 ) ;
#184 = ADVANCED_BREP_SHAPE_REPRESENTATION ( '2913-0004-0241 ball-c_Default_sldprt', ( #4, #180 ), #365 ) ;
#185 = DIRECTION ( 'NONE',  ( 1.224646799147351975E-16, -1.000000000000000000, 0.000000000000000000 ) ) ;
#186 = DATE_AND_TIME ( #381, #301 ) ;
#187 = DIRECTION ( 'NONE',  ( -1.000000000000000000, 0.000000000000000000, 0.000000000000000000 ) ) ;
#188 = PERSON_AND_ORGANIZATION ( #337, #221 ) ;
#189 = FACE_OUTER_BOUND ( 'NONE', #340, .T. ) ;
#190 = DATE_TIME_ROLE ( 'creation_date' ) ;
#191 = ORIENTED_EDGE ( 'NONE', *, *, #22, .F. ) ;
#192 = EDGE_CURVE ( 'NONE', #76, #271, #96, .T. ) ;
#193 = CARTESIAN_POINT ( 'NONE',  ( 0.1872047244094488250, 0.000000000000000000, 0.000000000000000000 ) ) ;
#194 = APPLICATION_CONTEXT ( 'configuration controlled 3d designs of mechanical parts and assemblies' ) ;
#195 = DIRECTION ( 'NONE',  ( 0.000000000000000000, 0.000000000000000000, -1.000000000000000000 ) ) ;
#196 = AXIS2_PLACEMENT_3D ( 'NONE', #94, #185, #118 ) ;
#197 = CARTESIAN_POINT ( 'NONE',  ( 1.146298332666469430E-17, -0.1872047244094488250, 0.000000000000000000 ) ) ;
#198 = DIRECTION ( 'NONE',  ( -0.000000000000000000, 0.000000000000000000, 1.000000000000000000 ) ) ;
#199 = CC_DESIGN_PERSON_AND_ORGANIZATION_ASSIGNMENT ( #245, #152, ( #204 ) ) ;
#200 = CARTESIAN_POINT ( 'NONE',  ( -0.08070866141732284393, 9.883960386819193092E-18, -0.1309055118110236116 ) ) ;
#201 = VECTOR ( 'NONE', #12, 39.37007874015748143 ) ;
#202 = AXIS2_PLACEMENT_3D ( 'NONE', #130, #424, #426 ) ;
#203 = FACE_BOUND ( 'NONE', #57, .T. ) ;
#204 = PRODUCT_DEFINITION ( 'UNKNOWN', '', #254, #137 ) ;
#205 = EDGE_LOOP ( 'NONE', ( #151, #373, #286, #40 ) ) ;
#206 = DIRECTION ( 'NONE',  ( -1.000000000000000000, 0.000000000000000000, 0.000000000000000000 ) ) ;
#207 = AXIS2_PLACEMENT_3D ( 'NONE', #421, #165, #37 ) ;
#208 = CIRCLE ( 'NONE', #70, 0.08070866141732284393 ) ;
#209 = CARTESIAN_POINT ( 'NONE',  ( 0.000000000000000000, 0.000000000000000000, -0.1309055118110236116 ) ) ;
#210 = VERTEX_POINT ( 'NONE', #299 ) ;
#211 = DIRECTION ( 'NONE',  ( 0.000000000000000000, 0.000000000000000000, 1.000000000000000000 ) ) ;
#212 = VERTEX_POINT ( 'NONE', #34 ) ;
#213 = LENGTH_MEASURE_WITH_UNIT ( LENGTH_MEASURE( 0.02539999999999999897 ), #335 );
#214 = VERTEX_POINT ( 'NONE', #101 ) ;
#215 = PERSON_AND_ORGANIZATION_ROLE ( 'classification_officer' ) ;
#216 = EDGE_CURVE ( 'NONE', #210, #142, #264, .T. ) ;
#217 = ORIENTED_EDGE ( 'NONE', *, *, #330, .F. ) ;
#218 = DIRECTION ( 'NONE',  ( 1.000000000000000000, 0.000000000000000000, 0.000000000000000000 ) ) ;
#219 = CC_DESIGN_DATE_AND_TIME_ASSIGNMENT ( #322, #28, ( #260 ) ) ;
#220 = ORIENTED_EDGE ( 'NONE', *, *, #242, .F. ) ;
#221 = ORGANIZATION ( 'UNSPECIFIED', 'UNSPECIFIED', '' ) ;
#222 = PERSON_AND_ORGANIZATION_ROLE ( 'creator' ) ;
#223 = LINE ( 'NONE', #98, #49 ) ;
#224 = CC_DESIGN_PERSON_AND_ORGANIZATION_ASSIGNMENT ( #157, #222, ( #254 ) ) ;
#225 = CARTESIAN_POINT ( 'NONE',  ( 0.000000000000000000, 0.000000000000000000, -0.1387795275590551214 ) ) ;
#226 = DIRECTION ( 'NONE',  ( 1.000000000000000000, 0.000000000000000000, 0.000000000000000000 ) ) ;
#227 = DIRECTION ( 'NONE',  ( 0.000000000000000000, 0.000000000000000000, -1.000000000000000000 ) ) ;
#228 = CONICAL_SURFACE ( 'NONE', #314, 0.08858267716535432601, 0.7853981633974503884 ) ;
#229 = DIRECTION ( 'NONE',  ( 0.000000000000000000, 0.000000000000000000, -1.000000000000000000 ) ) ;
#230 = DIRECTION ( 'NONE',  ( 0.000000000000000000, 0.000000000000000000, -1.000000000000000000 ) ) ;
#231 = CARTESIAN_POINT ( 'NONE',  ( 0.08070866141732284393, 0.000000000000000000, -0.1872047244094488250 ) ) ;
#232 = AXIS2_PLACEMENT_3D ( 'NONE', #178, #10, #149 ) ;
#233 = CIRCLE ( 'NONE', #196, 0.1872047244094488250 ) ;
#234 = CIRCLE ( 'NONE', #341, 0.1872047244094488250 ) ;
#235 = FACE_OUTER_BOUND ( 'NONE', #82, .T. ) ;
#236 = DIRECTION ( 'NONE',  ( -1.000000000000000000, 0.000000000000000000, 0.000000000000000000 ) ) ;
#237 = ORIENTED_EDGE ( 'NONE', *, *, #179, .T. ) ;
#238 = CARTESIAN_POINT ( 'NONE',  ( -0.1256417588690285636, -1.538667778381994114E-17, -0.1387795275590551214 ) ) ;
#239 = ORIENTED_EDGE ( 'NONE', *, *, #103, .F. ) ;
#240 = EDGE_CURVE ( 'NONE', #172, #273, #77, .T. ) ;
#241 = CYLINDRICAL_SURFACE ( 'NONE', #64, 0.08070866141732284393 ) ;
#242 = EDGE_CURVE ( 'NONE', #304, #271, #59, .T. ) ;
#243 = ORIENTED_EDGE ( 'NONE', *, *, #274, .F. ) ;
#244 = APPROVAL_PERSON_ORGANIZATION ( #188, #71, #54 ) ;
#245 = PERSON_AND_ORGANIZATION ( #337, #221 ) ;
#246 = DIRECTION ( 'NONE',  ( 1.224646799147353207E-16, 0.000000000000000000, 1.000000000000000000 ) ) ;
#247 = CIRCLE ( 'NONE', #313, 0.1256417588690285636 ) ;
#248 = AXIS2_PLACEMENT_3D ( 'NONE', #156, #415, #253 ) ;
#249 = APPROVAL_STATUS ( 'not_yet_approved' ) ;
#250 = EDGE_CURVE ( 'NONE', #161, #210, #162, .T. ) ;
#251 = ORIENTED_EDGE ( 'NONE', *, *, #93, .T. ) ;
#252 = APPROVAL_DATE_TIME ( #186, #143 ) ;
#253 = DIRECTION ( 'NONE',  ( 0.000000000000000000, 0.000000000000000000, 1.000000000000000000 ) ) ;
#254 = PRODUCT_DEFINITION_FORMATION_WITH_SPECIFIED_SOURCE ( 'ANY', '', #175, .NOT_KNOWN. ) ;
#255 = APPROVAL_ROLE ( '' ) ;
#256 = ORIENTED_EDGE ( 'NONE', *, *, #216, .T. ) ;
#257 = EDGE_CURVE ( 'NONE', #159, #30, #63, .T. ) ;
#258 = ORIENTED_EDGE ( 'NONE', *, *, #166, .T. ) ;
#259 = DIRECTION ( 'NONE',  ( -1.000000000000000000, 0.000000000000000000, 0.000000000000000000 ) ) ;
#260 = SECURITY_CLASSIFICATION ( '', '', #86 ) ;
#261 = CARTESIAN_POINT ( 'NONE',  ( 0.000000000000000000, 0.000000000000000000, 0.000000000000000000 ) ) ;
#262 = AXIS2_PLACEMENT_3D ( 'NONE', #311, #369, #170 ) ;
#263 = CARTESIAN_POINT ( 'NONE',  ( 0.000000000000000000, 0.000000000000000000, -0.1309055118110236116 ) ) ;
#264 = CIRCLE ( 'NONE', #374, 0.08858267716535432601 ) ;
#265 = FACE_OUTER_BOUND ( 'NONE', #85, .T. ) ;
#266 = CARTESIAN_POINT ( 'NONE',  ( 0.000000000000000000, 0.000000000000000000, 0.000000000000000000 ) ) ;
#267 = EDGE_CURVE ( 'NONE', #177, #419, #247, .T. ) ;
#268 = DIRECTION ( 'NONE',  ( 0.000000000000000000, 0.000000000000000000, -1.000000000000000000 ) ) ;
#269 = CIRCLE ( 'NONE', #248, 0.1872047244094488250 ) ;
#270 = CARTESIAN_POINT ( 'NONE',  ( 0.000000000000000000, 0.000000000000000000, 0.1387795275590551214 ) ) ;
#271 = VERTEX_POINT ( 'NONE', #193 ) ;
#272 = DIRECTION ( 'NONE',  ( 0.000000000000000000, -1.000000000000000000, 0.000000000000000000 ) ) ;
#273 = VERTEX_POINT ( 'NONE', #197 ) ;
#274 = EDGE_CURVE ( 'NONE', #142, #210, #425, .T. ) ;
#275 = AXIS2_PLACEMENT_3D ( 'NONE', #270, #333, #403 ) ;
#276 = AXIS2_PLACEMENT_3D ( 'NONE', #326, #227, #134 ) ;
#277 = PLANE ( 'NONE',  #139 ) ;
#278 = ORIENTED_EDGE ( 'NONE', *, *, #423, .T. ) ;
#279 = ORIENTED_EDGE ( 'NONE', *, *, #216, .F. ) ;
#280 = EDGE_CURVE ( 'NONE', #271, #273, #95, .T. ) ;
#281 = APPROVAL_STATUS ( 'not_yet_approved' ) ;
#282 = ORIENTED_EDGE ( 'NONE', *, *, #22, .T. ) ;
#283 = CIRCLE ( 'NONE', #305, 0.1256417588690287579 ) ;
#284 = CIRCLE ( 'NONE', #276, 0.1256417588690287579 ) ;
#285 = AXIS2_PLACEMENT_3D ( 'NONE', #92, #321, #27 ) ;
#286 = ORIENTED_EDGE ( 'NONE', *, *, #420, .T. ) ;
#287 = PERSON_AND_ORGANIZATION_ROLE ( 'design_supplier' ) ;
#288 = ORIENTED_EDGE ( 'NONE', *, *, #87, .T. ) ;
#289 = LOCAL_TIME ( 22, 50, 1.000000000000000000, #320 ) ;
#290 = ORIENTED_EDGE ( 'NONE', *, *, #179, .F. ) ;
#291 = CC_DESIGN_PERSON_AND_ORGANIZATION_ASSIGNMENT ( #160, #317, ( #175 ) ) ;
#292 = DIRECTION ( 'NONE',  ( 1.000000000000000000, 0.000000000000000000, 0.000000000000000000 ) ) ;
#293 = CARTESIAN_POINT ( 'NONE',  ( -0.08070866141732284393, 9.883960386819193092E-18, 0.1309055118110236116 ) ) ;
#294 = CC_DESIGN_APPROVAL ( #143, ( #260 ) ) ;
#295 = CC_DESIGN_DATE_AND_TIME_ASSIGNMENT ( #181, #190, ( #204 ) ) ;
#296 = CARTESIAN_POINT ( 'NONE',  ( 0.000000000000000000, 0.000000000000000000, 0.1309055118110236116 ) ) ;
#297 = DIRECTION ( 'NONE',  ( 1.224646799147353207E-16, 0.000000000000000000, 1.000000000000000000 ) ) ;
#298 = AXIS2_PLACEMENT_3D ( 'NONE', #104, #102, #259 ) ;
#299 = CARTESIAN_POINT ( 'NONE',  ( -0.08858267716535432601, 0.000000000000000000, 0.1387795275590551214 ) ) ;
#300 = EDGE_CURVE ( 'NONE', #411, #214, #38, .T. ) ;
#301 = LOCAL_TIME ( 22, 50, 1.000000000000000000, #414 ) ;
#302 = CARTESIAN_POINT ( 'NONE',  ( 1.146298332666469430E-17, 0.1872047244094488250, 0.000000000000000000 ) ) ;
#303 = FACE_OUTER_BOUND ( 'NONE', #404, .T. ) ;
#304 = VERTEX_POINT ( 'NONE', #302 ) ;
#305 = AXIS2_PLACEMENT_3D ( 'NONE', #3, #43, #174 ) ;
#306 = CLOSED_SHELL ( 'NONE', ( #126, #158, #80, #345, #350, #405, #5, #399, #327, #131, #387, #323 ) ) ;
#307 = CARTESIAN_POINT ( 'NONE',  ( 0.000000000000000000, 0.000000000000000000, -0.1872047244094488250 ) ) ;
#308 = ORIENTED_EDGE ( 'NONE', *, *, #46, .T. ) ;
#309 = CARTESIAN_POINT ( 'NONE',  ( 0.000000000000000000, 0.000000000000000000, 0.1387795275590551214 ) ) ;
#310 = ORIENTED_EDGE ( 'NONE', *, *, #192, .F. ) ;
#311 = CARTESIAN_POINT ( 'NONE',  ( 0.000000000000000000, 0.000000000000000000, -0.1387795275590551214 ) ) ;
#312 = ORIENTED_EDGE ( 'NONE', *, *, #192, .T. ) ;
#313 = AXIS2_PLACEMENT_3D ( 'NONE', #65, #395, #62 ) ;
#314 = AXIS2_PLACEMENT_3D ( 'NONE', #355, #24, #187 ) ;
#315 = DATE_AND_TIME ( #384, #417 ) ;
#316 = DIRECTION ( 'NONE',  ( 0.000000000000000000, 0.000000000000000000, -1.000000000000000000 ) ) ;
#317 = PERSON_AND_ORGANIZATION_ROLE ( 'design_owner' ) ;
#318 = CARTESIAN_POINT ( 'NONE',  ( 0.000000000000000000, 0.000000000000000000, 0.000000000000000000 ) ) ;
#319 = EDGE_LOOP ( 'NONE', ( #336, #382, #138, #251 ) ) ;
#320 = COORDINATED_UNIVERSAL_TIME_OFFSET ( 6, 0, .BEHIND. ) ;
#321 = DIRECTION ( 'NONE',  ( 0.000000000000000000, 0.000000000000000000, -1.000000000000000000 ) ) ;
#322 = DATE_AND_TIME ( #352, #334 ) ;
#323 = ADVANCED_FACE ( 'NONE', ( #375 ), #32, .F. ) ;
#324 = DIRECTION ( 'NONE',  ( 0.000000000000000000, 0.000000000000000000, -1.000000000000000000 ) ) ;
#325 = SPHERICAL_SURFACE ( 'NONE', #207, 0.1872047244094488250 ) ;
#326 = CARTESIAN_POINT ( 'NONE',  ( 0.000000000000000000, 0.000000000000000000, 0.1387795275590551214 ) ) ;
#327 = ADVANCED_FACE ( 'NONE', ( #235 ), #241, .F. ) ;
#328 = LINE ( 'NONE', #392, #129 ) ;
#329 = DIRECTION ( 'NONE',  ( -0.7071067811865490160, 0.000000000000000000, 0.7071067811865460184 ) ) ;
#330 = EDGE_CURVE ( 'NONE', #76, #418, #283, .T. ) ;
#331 = FACE_OUTER_BOUND ( 'NONE', #357, .T. ) ;
#332 = AXIS2_PLACEMENT_3D ( 'NONE', #362, #297, #67 ) ;
#333 = DIRECTION ( 'NONE',  ( 0.000000000000000000, 0.000000000000000000, -1.000000000000000000 ) ) ;
#334 = LOCAL_TIME ( 22, 50, 1.000000000000000000, #119 ) ;
#335 =( LENGTH_UNIT ( ) NAMED_UNIT ( * ) SI_UNIT ( $, .METRE. ) );
#336 = ORIENTED_EDGE ( 'NONE', *, *, #370, .F. ) ;
#337 = PERSON ( 'UNSPECIFIED', 'UNSPECIFIED', 'UNSPECIFIED', ('UNSPECIFIED'), ('UNSPECIFIED'), ('UNSPECIFIED') ) ;
#338 = PLANE ( 'NONE',  #58 ) ;
#339 = CONICAL_SURFACE ( 'NONE', #163, 0.08858267716535432601, 0.7853981633974503884 ) ;
#340 = EDGE_LOOP ( 'NONE', ( #407, #108, #288, #378, #290 ) ) ;
#341 = AXIS2_PLACEMENT_3D ( 'NONE', #390, #31, #393 ) ;
#342 = DIRECTION ( 'NONE',  ( 0.000000000000000000, 0.000000000000000000, -1.000000000000000000 ) ) ;
#343 = ORIENTED_EDGE ( 'NONE', *, *, #280, .T. ) ;
#344 = CC_DESIGN_SECURITY_CLASSIFICATION ( #260, ( #254 ) ) ;
#345 = ADVANCED_FACE ( 'NONE', ( #109 ), #339, .F. ) ;
#346 = APPLICATION_CONTEXT ( 'configuration controlled 3d designs of mechanical parts and assemblies' ) ;
#347 = DIRECTION ( 'NONE',  ( 1.000000000000000000, 0.000000000000000000, 0.000000000000000000 ) ) ;
#348 = CC_DESIGN_APPROVAL ( #71, ( #254 ) ) ;
#349 = MECHANICAL_CONTEXT ( 'NONE', #194, 'mechanical' ) ;
#350 = ADVANCED_FACE ( 'NONE', ( #203, #303 ), #277, .T. ) ;
#351 = ORIENTED_EDGE ( 'NONE', *, *, #274, .T. ) ;
#352 = CALENDAR_DATE ( 2025, 7, 3 ) ;
#353 = EDGE_LOOP ( 'NONE', ( #191, #278, #112, #383 ) ) ;
#354 = COORDINATED_UNIVERSAL_TIME_OFFSET ( 6, 0, .BEHIND. ) ;
#355 = CARTESIAN_POINT ( 'NONE',  ( 0.000000000000000000, 0.000000000000000000, 0.1387795275590551214 ) ) ;
#356 = DIRECTION ( 'NONE',  ( 0.000000000000000000, 0.000000000000000000, 1.000000000000000000 ) ) ;
#357 = EDGE_LOOP ( 'NONE', ( #110, #402, #79, #310, #17 ) ) ;
#358 = COORDINATED_UNIVERSAL_TIME_OFFSET ( 6, 0, .BEHIND. ) ;
#359 = CARTESIAN_POINT ( 'NONE',  ( -0.08858267716535432601, 0.000000000000000000, -0.1387795275590551214 ) ) ;
#360 = CARTESIAN_POINT ( 'NONE',  ( -0.08858267716535432601, 0.000000000000000000, 0.1387795275590551214 ) ) ;
#361 = DIRECTION ( 'NONE',  ( 0.000000000000000000, 0.000000000000000000, 1.000000000000000000 ) ) ;
#362 = CARTESIAN_POINT ( 'NONE',  ( 0.000000000000000000, 0.000000000000000000, 0.000000000000000000 ) ) ;
#363 = DIRECTION ( 'NONE',  ( -1.000000000000000000, 0.000000000000000000, 0.000000000000000000 ) ) ;
#364 = DIRECTION ( 'NONE',  ( -1.000000000000000000, 0.000000000000000000, 0.000000000000000000 ) ) ;
#365 =( GEOMETRIC_REPRESENTATION_CONTEXT ( 3 ) GLOBAL_UNCERTAINTY_ASSIGNED_CONTEXT ( ( #386 ) ) GLOBAL_UNIT_ASSIGNED_CONTEXT ( ( #84, #23, #377 ) ) REPRESENTATION_CONTEXT ( 'NONE', 'WORKASPACE' ) );
#366 = DIRECTION ( 'NONE',  ( 0.000000000000000000, 0.000000000000000000, 1.000000000000000000 ) ) ;
#367 = DIRECTION ( 'NONE',  ( 0.000000000000000000, 0.000000000000000000, -1.000000000000000000 ) ) ;
#368 = EDGE_LOOP ( 'NONE', ( #19, #237, #125, #376, #343 ) ) ;
#369 = DIRECTION ( 'NONE',  ( 0.000000000000000000, 0.000000000000000000, -1.000000000000000000 ) ) ;
#370 = EDGE_CURVE ( 'NONE', #411, #212, #73, .T. ) ;
#371 = EDGE_LOOP ( 'NONE', ( #61, #388, #150, #243 ) ) ;
#372 = CARTESIAN_POINT ( 'NONE',  ( 0.000000000000000000, 0.000000000000000000, -0.1387795275590551214 ) ) ;
#373 = ORIENTED_EDGE ( 'NONE', *, *, #370, .T. ) ;
#374 = AXIS2_PLACEMENT_3D ( 'NONE', #100, #229, #363 ) ;
#375 = FACE_OUTER_BOUND ( 'NONE', #11, .T. ) ;
#376 = ORIENTED_EDGE ( 'NONE', *, *, #87, .F. ) ;
#377 =( NAMED_UNIT ( * ) SI_UNIT ( $, .STERADIAN. ) SOLID_ANGLE_UNIT ( ) );
#378 = ORIENTED_EDGE ( 'NONE', *, *, #29, .F. ) ;
#379 = FACE_OUTER_BOUND ( 'NONE', #371, .T. ) ;
#380 = CONICAL_SURFACE ( 'NONE', #262, 0.08858267716535432601, 0.7853981633974503884 ) ;
#381 = CALENDAR_DATE ( 2025, 7, 3 ) ;
#382 = ORIENTED_EDGE ( 'NONE', *, *, #423, .F. ) ;
#383 = ORIENTED_EDGE ( 'NONE', *, *, #53, .F. ) ;
#384 = CALENDAR_DATE ( 2025, 7, 3 ) ;
#385 = EDGE_LOOP ( 'NONE', ( #217, #239 ) ) ;
#386 = UNCERTAINTY_MEASURE_WITH_UNIT (LENGTH_MEASURE( 1.000000000000000082E-05 ), #84, 'distance_accuracy_value', 'NONE');
#387 = ADVANCED_FACE ( 'NONE', ( #7 ), #380, .F. ) ;
#388 = ORIENTED_EDGE ( 'NONE', *, *, #97, .T. ) ;
#389 = CARTESIAN_POINT ( 'NONE',  ( 0.08858267716535432601, -1.084824920504545324E-17, 0.1387795275590551214 ) ) ;
#390 = CARTESIAN_POINT ( 'NONE',  ( 0.000000000000000000, 0.000000000000000000, 0.000000000000000000 ) ) ;
#391 = AXIS2_PLACEMENT_3D ( 'NONE', #296, #195, #292 ) ;
#392 = CARTESIAN_POINT ( 'NONE',  ( 0.08858267716535432601, -1.084824920504545324E-17, 0.1387795275590551214 ) ) ;
#393 = DIRECTION ( 'NONE',  ( 1.000000000000000000, 1.224646799147351728E-16, 0.000000000000000000 ) ) ;
#394 = APPROVAL ( #410, 'UNSPECIFIED' ) ;
#395 = DIRECTION ( 'NONE',  ( 0.000000000000000000, 0.000000000000000000, -1.000000000000000000 ) ) ;
#396 = AXIS2_PLACEMENT_3D ( 'NONE', #318, #246, #182 ) ;
#397 = DIRECTION ( 'NONE',  ( 0.000000000000000000, 0.000000000000000000, 1.000000000000000000 ) ) ;
#398 = ORIENTED_EDGE ( 'NONE', *, *, #29, .T. ) ;
#399 = ADVANCED_FACE ( 'NONE', ( #136 ), #401, .F. ) ;
#400 = CARTESIAN_POINT ( 'NONE',  ( 0.000000000000000000, -0.1872047244094488250, 0.1387795275590551214 ) ) ;
#401 = CYLINDRICAL_SURFACE ( 'NONE', #120, 0.08070866141732284393 ) ;
#402 = ORIENTED_EDGE ( 'NONE', *, *, #240, .T. ) ;
#403 = DIRECTION ( 'NONE',  ( -1.000000000000000000, 0.000000000000000000, 0.000000000000000000 ) ) ;
#404 = EDGE_LOOP ( 'NONE', ( #176, #398 ) ) ;
#405 = ADVANCED_FACE ( 'NONE', ( #141, #144 ), #338, .F. ) ;
#406 = CARTESIAN_POINT ( 'NONE',  ( 0.08858267716535432601, 1.084824920504545324E-17, -0.1387795275590551214 ) ) ;
#407 = ORIENTED_EDGE ( 'NONE', *, *, #46, .F. ) ;
#408 = PERSON_AND_ORGANIZATION ( #337, #221 ) ;
#409 = CARTESIAN_POINT ( 'NONE',  ( 0.000000000000000000, 0.000000000000000000, 0.000000000000000000 ) ) ;
#410 = APPROVAL_STATUS ( 'not_yet_approved' ) ;
#411 = VERTEX_POINT ( 'NONE', #107 ) ;
#412 = CIRCLE ( 'NONE', #133, 0.08070866141732284393 ) ;
#413 = CIRCLE ( 'NONE', #396, 0.1872047244094488250 ) ;
#414 = COORDINATED_UNIVERSAL_TIME_OFFSET ( 6, 0, .BEHIND. ) ;
#415 = DIRECTION ( 'NONE',  ( 0.000000000000000000, 1.000000000000000000, 0.000000000000000000 ) ) ;
#416 = PERSON_AND_ORGANIZATION ( #337, #221 ) ;
#417 = LOCAL_TIME ( 22, 50, 1.000000000000000000, #358 ) ;
#418 = VERTEX_POINT ( 'NONE', #111 ) ;
#419 = VERTEX_POINT ( 'NONE', #238 ) ;
#420 = EDGE_CURVE ( 'NONE', #212, #30, #15, .T. ) ;
#421 = CARTESIAN_POINT ( 'NONE',  ( 0.000000000000000000, 0.000000000000000000, 0.000000000000000000 ) ) ;
#422 = CARTESIAN_POINT ( 'NONE',  ( -0.08858267716535432601, 0.000000000000000000, -0.1387795275590551214 ) ) ;
#423 = EDGE_CURVE ( 'NONE', #159, #411, #412, .T. ) ;
#424 = DIRECTION ( 'NONE',  ( -0.000000000000000000, 0.000000000000000000, 1.000000000000000000 ) ) ;
#425 = CIRCLE ( 'NONE', #275, 0.08858267716535432601 ) ;
#426 = DIRECTION ( 'NONE',  ( 1.000000000000000000, 0.000000000000000000, 0.000000000000000000 ) ) ;
ENDSEC;
END-ISO-10303-21;
