ISO-10303-21;
HEADER;
FILE_DESCRIPTION (( 'STEP AP203' ),
    '1' );
FILE_NAME ('8982K112_Multipurpose 6061 Aluminum 90 Degree Angle 6.93 corner_8982K112_sldprt.STEP',
    '2025-03-08T04:50:15',
    ( '' ),
    ( '' ),
    'SwSTEP 2.0',
    'SolidWorks 2024',
    '' );
FILE_SCHEMA (( 'CONFIG_CONTROL_DESIGN' ));
ENDSEC;

DATA;
#1 = CYLINDRICAL_SURFACE ( 'NONE', #338, 0.07300000000000000933 ) ;
#2 = ORIENTED_EDGE ( 'NONE', *, *, #102, .F. ) ;
#3 = EDGE_CURVE ( 'NONE', #541, #549, #117, .T. ) ;
#4 = DIRECTION ( 'NONE',  ( 0.8660254037844385966, 0.000000000000000000, -0.5000000000000001110 ) ) ;
#5 = LINE ( 'NONE', #497, #613 ) ;
#6 = EDGE_CURVE ( 'NONE', #118, #534, #160, .T. ) ;
#7 = DIRECTION ( 'NONE',  ( 1.000000000000000000, 1.403346572087807793E-15, 0.000000000000000000 ) ) ;
#8 = EDGE_LOOP ( 'NONE', ( #367, #467, #380, #13 ) ) ;
#9 = LOCAL_TIME ( 22, 50, 15.00000000000000000, #311 ) ;
#10 = CARTESIAN_POINT ( 'NONE',  ( -0.2927566858979174236, -0.1468547733277846268, 6.641324905160462144 ) ) ;
#11 = CARTESIAN_POINT ( 'NONE',  ( -0.04175668589791701329, -0.08435477332778468229, -6.786239743216504472 ) ) ;
#12 = EDGE_CURVE ( 'NONE', #527, #485, #236, .T. ) ;
#13 = ORIENTED_EDGE ( 'NONE', *, *, #48, .F. ) ;
#14 = LINE ( 'NONE', #663, #416 ) ;
#15 = ORIENTED_EDGE ( 'NONE', *, *, #162, .T. ) ;
#16 = EDGE_LOOP ( 'NONE', ( #408, #197, #269, #245 ) ) ;
#17 = LINE ( 'NONE', #167, #57 ) ;
#18 = CARTESIAN_POINT ( 'NONE',  ( -0.1402421017392727898, -0.08435477332778482107, -6.155369693409485699 ) ) ;
#19 = CARTESIAN_POINT ( 'NONE',  ( -0.1402421017392705971, -0.2093547733277845990, 6.009369772920037711 ) ) ;
#20 = DIRECTION ( 'NONE',  ( 0.000000000000000000, 1.000000000000000000, 0.000000000000000000 ) ) ;
#21 = AXIS2_PLACEMENT_3D ( 'NONE', #178, #388, #63 ) ;
#22 = ORIENTED_EDGE ( 'NONE', *, *, #238, .F. ) ;
#23 = ADVANCED_FACE ( 'NONE', ( #668 ), #662, .T. ) ;
#24 = PLANE ( 'NONE',  #393 ) ;
#25 = EDGE_LOOP ( 'NONE', ( #267, #200 ) ) ;
#26 = DIRECTION ( 'NONE',  ( -0.000000000000000000, -0.000000000000000000, -1.000000000000000000 ) ) ;
#27 = EDGE_CURVE ( 'NONE', #137, #154, #76, .T. ) ;
#28 = DIRECTION ( 'NONE',  ( 1.449256230060612024E-15, -1.000000000000000000, 0.000000000000000000 ) ) ;
#29 = EDGE_LOOP ( 'NONE', ( #700, #703 ) ) ;
#30 = AXIS2_PLACEMENT_3D ( 'NONE', #235, #453, #599 ) ;
#31 = CARTESIAN_POINT ( 'NONE',  ( -0.1425077796961959631, -0.2093547733277845990, -4.922168558588333021 ) ) ;
#32 = CARTESIAN_POINT ( 'NONE',  ( -0.1402421017392728175, -0.2093547733277845990, -6.082369693409486189 ) ) ;
#33 = ORIENTED_EDGE ( 'NONE', *, *, #637, .T. ) ;
#34 = EDGE_CURVE ( 'NONE', #706, #634, #5, .T. ) ;
#35 = AXIS2_PLACEMENT_3D ( 'NONE', #32, #688, #460 ) ;
#36 = CARTESIAN_POINT ( 'NONE',  ( -0.2927566858979174236, -0.1468547733277846268, -6.641324825649900454 ) ) ;
#37 = VECTOR ( 'NONE', #320, 39.37007874015748143 ) ;
#38 = DIRECTION ( 'NONE',  ( -0.8660254037844377084, 0.000000000000000000, -0.5000000000000014433 ) ) ;
#39 = EDGE_LOOP ( 'NONE', ( #529, #353 ) ) ;
#40 = EDGE_CURVE ( 'NONE', #92, #43, #607, .T. ) ;
#41 = APPROVAL_DATE_TIME ( #580, #247 ) ;
#42 = CARTESIAN_POINT ( 'NONE',  ( -0.1425077796961959353, -0.2093547733277845990, -4.995168558588333418 ) ) ;
#43 = VERTEX_POINT ( 'NONE', #222 ) ;
#44 = DATE_AND_TIME ( #202, #403 ) ;
#45 = CARTESIAN_POINT ( 'NONE',  ( 0.1447433141020827707, 0.2906452266722141520, 7.300000039755276227 ) ) ;
#46 = EDGE_LOOP ( 'NONE', ( #234, #638, #489, #452 ) ) ;
#47 = VECTOR ( 'NONE', #672, 39.37007874015748143 ) ;
#48 = EDGE_CURVE ( 'NONE', #582, #660, #617, .T. ) ;
#49 = CARTESIAN_POINT ( 'NONE',  ( -0.1402421017392706248, -0.2093547733277845990, 6.082369772920037221 ) ) ;
#50 = CIRCLE ( 'NONE', #230, 0.07300000000000000933 ) ;
#51 = VERTEX_POINT ( 'NONE', #279 ) ;
#52 = CARTESIAN_POINT ( 'NONE',  ( -0.1425077796961937704, -0.08435477332778483495, 4.922168638098884941 ) ) ;
#53 = ORIENTED_EDGE ( 'NONE', *, *, #6, .T. ) ;
#54 = DATE_AND_TIME ( #152, #656 ) ;
#55 = CARTESIAN_POINT ( 'NONE',  ( -0.2927566858979174236, -0.1468547733277846268, 7.300000039755276227 ) ) ;
#56 = ORIENTED_EDGE ( 'NONE', *, *, #128, .T. ) ;
#57 = VECTOR ( 'NONE', #221, 39.37007874015748143 ) ;
#58 = CARTESIAN_POINT ( 'NONE',  ( -0.1425077796961937426, -0.2093547733277845990, 4.849168638098885431 ) ) ;
#59 = CIRCLE ( 'NONE', #35, 0.07300000000000000933 ) ;
#60 = VERTEX_POINT ( 'NONE', #18 ) ;
#61 = EDGE_CURVE ( 'NONE', #579, #660, #418, .T. ) ;
#62 = CARTESIAN_POINT ( 'NONE',  ( 0.08224331410208267357, -0.03299229159352143337, 6.857831256106571516 ) ) ;
#63 = DIRECTION ( 'NONE',  ( -1.000000000000000000, 0.000000000000000000, 0.000000000000000000 ) ) ;
#64 = CARTESIAN_POINT ( 'NONE',  ( -0.04175668589791701329, -0.08435477332778468229, 6.786239822727059057 ) ) ;
#65 = CARTESIAN_POINT ( 'NONE',  ( -0.1402421017392728175, -0.08435477332778482107, -6.082369693409486189 ) ) ;
#66 = CARTESIAN_POINT ( 'NONE',  ( 0.2072433141020827152, 0.2906452266722141520, 6.930000039755276120 ) ) ;
#67 = EDGE_CURVE ( 'NONE', #549, #147, #385, .T. ) ;
#68 = DIRECTION ( 'NONE',  ( -0.000000000000000000, 1.000000000000000000, -0.000000000000000000 ) ) ;
#69 = CARTESIAN_POINT ( 'NONE',  ( -0.1425077796961937704, -0.2093547733277845990, 4.995168638098885339 ) ) ;
#70 = DIRECTION ( 'NONE',  ( 1.449256230060611826E-15, -1.000000000000000000, 0.000000000000000000 ) ) ;
#71 = CARTESIAN_POINT ( 'NONE',  ( 0.1081316617504013561, 0.2906452266722141520, 6.872777900590204325 ) ) ;
#72 = DIRECTION ( 'NONE',  ( 1.000000000000000000, 0.000000000000000000, -0.000000000000000000 ) ) ;
#73 = ORIENTED_EDGE ( 'NONE', *, *, #128, .F. ) ;
#74 = DIRECTION ( 'NONE',  ( 0.000000000000000000, 1.000000000000000000, 0.000000000000000000 ) ) ;
#75 = CARTESIAN_POINT ( 'NONE',  ( -0.04175668589791698554, -0.08435477332778508475, 7.300000039755276227 ) ) ;
#76 = CIRCLE ( 'NONE', #123, 0.07300000000000000933 ) ;
#77 = ORIENTED_EDGE ( 'NONE', *, *, #659, .F. ) ;
#78 = CARTESIAN_POINT ( 'NONE',  ( 0.08224331410208308990, 0.03964522667221459518, 6.857831256106573292 ) ) ;
#79 = FACE_OUTER_BOUND ( 'NONE', #612, .T. ) ;
#80 = VERTEX_POINT ( 'NONE', #340 ) ;
#81 = DIRECTION ( 'NONE',  ( -0.000000000000000000, 1.000000000000000000, -0.000000000000000000 ) ) ;
#82 = EDGE_CURVE ( 'NONE', #492, #105, #654, .T. ) ;
#83 = PLANE ( 'NONE',  #635 ) ;
#84 = ORIENTED_EDGE ( 'NONE', *, *, #611, .T. ) ;
#85 = DIRECTION ( 'NONE',  ( 0.000000000000000000, -1.000000000000000000, 0.000000000000000000 ) ) ;
#86 = FACE_BOUND ( 'NONE', #39, .T. ) ;
#87 = VERTEX_POINT ( 'NONE', #561 ) ;
#88 = AXIS2_PLACEMENT_3D ( 'NONE', #130, #20, #300 ) ;
#89 = CIRCLE ( 'NONE', #192, 0.07300000000000000933 ) ;
#90 = PERSON_AND_ORGANIZATION_ROLE ( 'creator' ) ;
#91 = DIRECTION ( 'NONE',  ( 0.000000000000000000, 0.000000000000000000, -1.000000000000000000 ) ) ;
#92 = VERTEX_POINT ( 'NONE', #494 ) ;
#93 = COORDINATED_UNIVERSAL_TIME_OFFSET ( 6, 0, .BEHIND. ) ;
#94 = DIRECTION ( 'NONE',  ( -0.000000000000000000, 1.000000000000000000, -0.000000000000000000 ) ) ;
#95 = EDGE_LOOP ( 'NONE', ( #461, #433, #483, #111 ) ) ;
#96 = EDGE_CURVE ( 'NONE', #60, #485, #476, .T. ) ;
#97 = DIRECTION ( 'NONE',  ( 0.000000000000000000, 0.000000000000000000, 1.000000000000000000 ) ) ;
#98 = FACE_OUTER_BOUND ( 'NONE', #685, .T. ) ;
#99 = APPROVAL_PERSON_ORGANIZATION ( #101, #247, #361 ) ;
#100 = ORIENTED_EDGE ( 'NONE', *, *, #652, .T. ) ;
#101 = PERSON_AND_ORGANIZATION ( #502, #347 ) ;
#102 = EDGE_CURVE ( 'NONE', #567, #513, #196, .T. ) ;
#103 = CIRCLE ( 'NONE', #523, 0.07299999999999992606 ) ;
#104 = CARTESIAN_POINT ( 'NONE',  ( -0.1402421017392727898, -0.2093547733277845990, -6.155369693409485699 ) ) ;
#105 = VERTEX_POINT ( 'NONE', #653 ) ;
#106 = DIRECTION ( 'NONE',  ( -0.8660254037844377084, 0.000000000000000000, -0.5000000000000015543 ) ) ;
#107 = EDGE_CURVE ( 'NONE', #640, #121, #335, .T. ) ;
#108 = EDGE_LOOP ( 'NONE', ( #498, #250, #166, #644, #324, #624, #84, #309, #516 ) ) ;
#109 = CYLINDRICAL_SURFACE ( 'NONE', #224, 0.07300000000000000933 ) ;
#110 = VECTOR ( 'NONE', #81, 39.37007874015748143 ) ;
#111 = ORIENTED_EDGE ( 'NONE', *, *, #659, .T. ) ;
#112 = EDGE_CURVE ( 'NONE', #534, #386, #284, .T. ) ;
#113 = AXIS2_PLACEMENT_3D ( 'NONE', #442, #172, #664 ) ;
#114 = CARTESIAN_POINT ( 'NONE',  ( 0.2072433141020827152, 0.2906452266722141520, -6.929999960244723312 ) ) ;
#115 = MANIFOLD_SOLID_BREP ( 'Scale1', #274 ) ;
#116 = DIRECTION ( 'NONE',  ( 0.000000000000000000, 0.000000000000000000, 1.000000000000000000 ) ) ;
#117 = LINE ( 'NONE', #332, #135 ) ;
#118 = VERTEX_POINT ( 'NONE', #507 ) ;
#119 = DIRECTION ( 'NONE',  ( 0.8660254037844385966, -0.000000000000000000, -0.5000000000000000000 ) ) ;
#120 = DIRECTION ( 'NONE',  ( 1.000000000000000000, 1.403346572087807793E-15, 0.000000000000000000 ) ) ;
#121 = VERTEX_POINT ( 'NONE', #252 ) ;
#122 = CARTESIAN_POINT ( 'NONE',  ( -0.1425077796961937704, -0.2093547733277845990, 4.922168638098884941 ) ) ;
#123 = AXIS2_PLACEMENT_3D ( 'NONE', #175, #233, #548 ) ;
#124 = DIRECTION ( 'NONE',  ( -0.000000000000000000, 1.000000000000000000, -0.000000000000000000 ) ) ;
#125 = ORIENTED_EDGE ( 'NONE', *, *, #398, .T. ) ;
#126 = LINE ( 'NONE', #19, #552 ) ;
#127 = CARTESIAN_POINT ( 'NONE',  ( -0.2668683382495991019, -0.08435477332778495985, 6.656271549644093177 ) ) ;
#128 = EDGE_CURVE ( 'NONE', #527, #562, #59, .T. ) ;
#129 = LINE ( 'NONE', #400, #430 ) ;
#130 = CARTESIAN_POINT ( 'NONE',  ( -0.1425077796961959631, -0.2093547733277845990, -4.922168558588333021 ) ) ;
#131 = ORIENTED_EDGE ( 'NONE', *, *, #683, .T. ) ;
#132 = CC_DESIGN_DATE_AND_TIME_ASSIGNMENT ( #54, #431, ( #289 ) ) ;
#133 = CARTESIAN_POINT ( 'NONE',  ( -0.1402421017392706248, -0.2093547733277845990, 6.082369772920037221 ) ) ;
#134 = CARTESIAN_POINT ( 'NONE',  ( 0.1807080138022046090, -0.08435477332778436310, 6.914679876984114237 ) ) ;
#135 = VECTOR ( 'NONE', #551, 39.37007874015748143 ) ;
#136 = AXIS2_PLACEMENT_3D ( 'NONE', #636, #321, #366 ) ;
#137 = VERTEX_POINT ( 'NONE', #410 ) ;
#138 = CARTESIAN_POINT ( 'NONE',  ( 0.2072433141020827152, -0.2093547733277845990, 6.930000039755276120 ) ) ;
#139 = LINE ( 'NONE', #566, #490 ) ;
#140 = EDGE_LOOP ( 'NONE', ( #571, #73, #665, #363 ) ) ;
#141 = CARTESIAN_POINT ( 'NONE',  ( -0.1425077796961959631, -0.2093547733277845990, -4.922168558588333021 ) ) ;
#142 = DIRECTION ( 'NONE',  ( 0.5000000000000015543, 0.000000000000000000, -0.8660254037844378194 ) ) ;
#143 = ORIENTED_EDGE ( 'NONE', *, *, #107, .F. ) ;
#144 = APPLICATION_PROTOCOL_DEFINITION ( 'international standard', 'config_control_design', 1994, #575 ) ;
#145 = SECURITY_CLASSIFICATION ( '', '', #701 ) ;
#146 = FACE_BOUND ( 'NONE', #248, .T. ) ;
#147 = VERTEX_POINT ( 'NONE', #249 ) ;
#148 = UNCERTAINTY_MEASURE_WITH_UNIT (LENGTH_MEASURE( 1.000000000000000082E-05 ), #194, 'distance_accuracy_value', 'NONE');
#149 = PERSON_AND_ORGANIZATION ( #502, #347 ) ;
#150 = CYLINDRICAL_SURFACE ( 'NONE', #318, 0.07300000000000000933 ) ;
#151 = ORIENTED_EDGE ( 'NONE', *, *, #254, .T. ) ;
#152 = CALENDAR_DATE ( 2025, 7, 3 ) ;
#153 = DIRECTION ( 'NONE',  ( 0.000000000000000000, 1.000000000000000000, -0.000000000000000000 ) ) ;
#154 = VERTEX_POINT ( 'NONE', #515 ) ;
#155 = ADVANCED_FACE ( 'NONE', ( #146, #86, #522, #362, #401 ), #83, .F. ) ;
#156 = MECHANICAL_CONTEXT ( 'NONE', #575, 'mechanical' ) ;
#157 = VECTOR ( 'NONE', #572, 39.37007874015748143 ) ;
#158 = LINE ( 'NONE', #373, #37 ) ;
#159 = ORIENTED_EDGE ( 'NONE', *, *, #358, .T. ) ;
#160 = CIRCLE ( 'NONE', #545, 0.07300000000000000933 ) ;
#161 = PERSON_AND_ORGANIZATION ( #502, #347 ) ;
#162 = EDGE_CURVE ( 'NONE', #80, #513, #630, .T. ) ;
#163 = FACE_BOUND ( 'NONE', #301, .T. ) ;
#164 = ORIENTED_EDGE ( 'NONE', *, *, #505, .F. ) ;
#165 = PLANE ( 'NONE',  #136 ) ;
#166 = ORIENTED_EDGE ( 'NONE', *, *, #173, .F. ) ;
#167 = CARTESIAN_POINT ( 'NONE',  ( -0.2927566858979174236, -0.2093547733277845990, 6.641324905160462144 ) ) ;
#168 = CARTESIAN_POINT ( 'NONE',  ( 0.08224331410208268744, -0.03299229159352158602, -6.857831176596018707 ) ) ;
#169 = CIRCLE ( 'NONE', #530, 0.07300000000000000933 ) ;
#170 = AXIS2_PLACEMENT_3D ( 'NONE', #355, #351, #518 ) ;
#171 = CARTESIAN_POINT ( 'NONE',  ( -0.2927566858979174236, -0.2093547733277845990, -6.641324825649911112 ) ) ;
#172 = DIRECTION ( 'NONE',  ( 1.449256230060611826E-15, -1.000000000000000000, 0.000000000000000000 ) ) ;
#173 = EDGE_CURVE ( 'NONE', #105, #80, #185, .T. ) ;
#174 = DIRECTION ( 'NONE',  ( -0.000000000000000000, 1.000000000000000000, -0.000000000000000000 ) ) ;
#175 = CARTESIAN_POINT ( 'NONE',  ( -0.1402421017392706248, -0.2093547733277845990, 6.082369772920037221 ) ) ;
#176 = CC_DESIGN_PERSON_AND_ORGANIZATION_ASSIGNMENT ( #149, #481, ( #237 ) ) ;
#177 = CARTESIAN_POINT ( 'NONE',  ( 0.08224331410208308990, 0.03964522667221459518, -6.857831176596018707 ) ) ;
#178 = CARTESIAN_POINT ( 'NONE',  ( -0.2302566858979177289, -0.1468547733277846268, 7.300000039755276227 ) ) ;
#179 = CYLINDRICAL_SURFACE ( 'NONE', #259, 0.07300000000000000933 ) ;
#180 = ADVANCED_FACE ( 'NONE', ( #187 ), #466, .F. ) ;
#181 = DIRECTION ( 'NONE',  ( -0.000000000000000000, 1.000000000000000000, -0.000000000000000000 ) ) ;
#182 = EDGE_LOOP ( 'NONE', ( #389, #524, #336, #445 ) ) ;
#183 = DIRECTION ( 'NONE',  ( 0.000000000000000000, 0.000000000000000000, 1.000000000000000000 ) ) ;
#184 = EDGE_CURVE ( 'NONE', #562, #527, #326, .T. ) ;
#185 = LINE ( 'NONE', #134, #434 ) ;
#186 = ORIENTED_EDGE ( 'NONE', *, *, #686, .F. ) ;
#187 = FACE_OUTER_BOUND ( 'NONE', #210, .T. ) ;
#188 = ORIENTED_EDGE ( 'NONE', *, *, #173, .T. ) ;
#189 = EDGE_CURVE ( 'NONE', #582, #411, #264, .T. ) ;
#190 = CARTESIAN_POINT ( 'NONE',  ( -0.1425077796961937704, -0.2093547733277845990, 4.995168638098885339 ) ) ;
#191 = ORIENTED_EDGE ( 'NONE', *, *, #27, .T. ) ;
#192 = AXIS2_PLACEMENT_3D ( 'NONE', #369, #153, #91 ) ;
#193 = VECTOR ( 'NONE', #331, 39.37007874015748143 ) ;
#194 =( CONVERSION_BASED_UNIT ( 'INCH', #296 ) LENGTH_UNIT ( ) NAMED_UNIT ( #514 ) );
#195 = CARTESIAN_POINT ( 'NONE',  ( 0.2072433141020827152, -0.2093547733277845990, 7.300000039755276227 ) ) ;
#196 =( BOUNDED_CURVE ( )  B_SPLINE_CURVE ( 3, ( #225, #168, #444, #11 ),
 .UNSPECIFIED., .F., .F. ) 
 B_SPLINE_CURVE_WITH_KNOTS ( ( 4, 4 ),
 ( 0.000000000000000000, 1.570796326794899445 ),
 .UNSPECIFIED. ) 
 CURVE ( )  GEOMETRIC_REPRESENTATION_ITEM ( )  RATIONAL_B_SPLINE_CURVE ( ( 1.000000000000000000, 0.8047378541243643824, 0.8047378541243643824, 1.000000000000000000 ) ) 
 REPRESENTATION_ITEM ( '' )  );
#197 = ORIENTED_EDGE ( 'NONE', *, *, #477, .F. ) ;
#198 = APPLICATION_PROTOCOL_DEFINITION ( 'international standard', 'config_control_design', 1994, #508 ) ;
#199 = DIRECTION ( 'NONE',  ( 0.8660254037844378194, 1.255092711825353289E-15, 0.5000000000000015543 ) ) ;
#200 = ORIENTED_EDGE ( 'NONE', *, *, #468, .T. ) ;
#201 = APPROVAL_PERSON_ORGANIZATION ( #475, #666, #427 ) ;
#202 = CALENDAR_DATE ( 2025, 7, 3 ) ;
#203 = DIRECTION ( 'NONE',  ( -1.000000000000000000, 0.000000000000000000, 0.000000000000000000 ) ) ;
#204 = EDGE_LOOP ( 'NONE', ( #377, #313, #631, #253 ) ) ;
#205 = AXIS2_PLACEMENT_3D ( 'NONE', #45, #649, #593 ) ;
#206 = DATE_AND_TIME ( #696, #9 ) ;
#207 = AXIS2_PLACEMENT_3D ( 'NONE', #52, #268, #705 ) ;
#208 = CARTESIAN_POINT ( 'NONE',  ( -0.1425077796961937704, -0.08435477332778483495, 4.995168638098885339 ) ) ;
#209 = ADVANCED_FACE ( 'NONE', ( #79 ), #246, .F. ) ;
#210 = EDGE_LOOP ( 'NONE', ( #186, #520, #151, #648 ) ) ;
#211 = PERSON_AND_ORGANIZATION ( #502, #347 ) ;
#212 = DIRECTION ( 'NONE',  ( 1.449256230060611826E-15, -1.000000000000000000, 0.000000000000000000 ) ) ;
#213 = ORIENTED_EDGE ( 'NONE', *, *, #592, .F. ) ;
#214 = ADVANCED_FACE ( 'NONE', ( #414 ), #241, .F. ) ;
#215 = CARTESIAN_POINT ( 'NONE',  ( -0.1425077796961937704, -0.08435477332778483495, 4.922168638098884941 ) ) ;
#216 = EDGE_LOOP ( 'NONE', ( #650, #53 ) ) ;
#217 = ADVANCED_FACE ( 'NONE', ( #681 ), #407, .F. ) ;
#218 = AXIS2_PLACEMENT_3D ( 'NONE', #633, #142, #38 ) ;
#219 = PLANE ( 'NONE',  #205 ) ;
#220 = VERTEX_POINT ( 'NONE', #291 ) ;
#221 = DIRECTION ( 'NONE',  ( -0.000000000000000000, 1.000000000000000000, -0.000000000000000000 ) ) ;
#222 = CARTESIAN_POINT ( 'NONE',  ( 0.08224331410208308990, 0.2281452266722144850, -6.857831176596018707 ) ) ;
#223 = DIRECTION ( 'NONE',  ( 0.000000000000000000, 0.000000000000000000, -1.000000000000000000 ) ) ;
#224 = AXIS2_PLACEMENT_3D ( 'NONE', #446, #661, #328 ) ;
#225 = CARTESIAN_POINT ( 'NONE',  ( 0.08224331410208308990, 0.03964522667221459518, -6.857831176596018707 ) ) ;
#226 = APPROVAL_PERSON_ORGANIZATION ( #365, #596, #531 ) ;
#227 = ORIENTED_EDGE ( 'NONE', *, *, #61, .F. ) ;
#228 = FACE_OUTER_BOUND ( 'NONE', #606, .T. ) ;
#229 = DIRECTION ( 'NONE',  ( -0.000000000000000000, 1.000000000000000000, -0.000000000000000000 ) ) ;
#230 = AXIS2_PLACEMENT_3D ( 'NONE', #287, #544, #223 ) ;
#231 = ORIENTED_EDGE ( 'NONE', *, *, #537, .F. ) ;
#232 = LINE ( 'NONE', #114, #409 ) ;
#233 = DIRECTION ( 'NONE',  ( 0.000000000000000000, 1.000000000000000000, -0.000000000000000000 ) ) ;
#234 = ORIENTED_EDGE ( 'NONE', *, *, #6, .F. ) ;
#235 = CARTESIAN_POINT ( 'NONE',  ( -0.1402421017392728175, -0.08435477332778482107, -6.082369693409486189 ) ) ;
#236 = LINE ( 'NONE', #288, #555 ) ;
#237 = PRODUCT_DEFINITION_FORMATION_WITH_SPECIFIED_SOURCE ( 'ANY', '', #678, .NOT_KNOWN. ) ;
#238 = EDGE_CURVE ( 'NONE', #105, #220, #627, .T. ) ;
#239 = CARTESIAN_POINT ( 'NONE',  ( -0.2302566858979177289, -0.08435477332778495985, -6.677409217474262526 ) ) ;
#240 = VECTOR ( 'NONE', #244, 39.37007874015748143 ) ;
#241 = CYLINDRICAL_SURFACE ( 'NONE', #420, 0.07300000000000000933 ) ;
#242 = ORIENTED_EDGE ( 'NONE', *, *, #102, .T. ) ;
#243 = FACE_OUTER_BOUND ( 'NONE', #8, .T. ) ;
#244 = DIRECTION ( 'NONE',  ( -0.000000000000000000, 1.000000000000000000, -0.000000000000000000 ) ) ;
#245 = ORIENTED_EDGE ( 'NONE', *, *, #468, .F. ) ;
#246 = PLANE ( 'NONE',  #456 ) ;
#247 = APPROVAL ( #319, 'UNSPECIFIED' ) ;
#248 = EDGE_LOOP ( 'NONE', ( #159, #360 ) ) ;
#249 = CARTESIAN_POINT ( 'NONE',  ( -0.2927566858979174236, -0.1468547733277846268, -6.641324825649900454 ) ) ;
#250 = ORIENTED_EDGE ( 'NONE', *, *, #496, .F. ) ;
#251 = DIRECTION ( 'NONE',  ( 0.000000000000000000, 0.000000000000000000, 1.000000000000000000 ) ) ;
#252 = CARTESIAN_POINT ( 'NONE',  ( 0.2072433141020827152, 0.2906452266722141520, -6.929999960244723312 ) ) ;
#253 = ORIENTED_EDGE ( 'NONE', *, *, #573, .F. ) ;
#254 = EDGE_CURVE ( 'NONE', #634, #43, #303, .T. ) ;
#255 = CALENDAR_DATE ( 2025, 7, 3 ) ;
#256 = CYLINDRICAL_SURFACE ( 'NONE', #595, 0.06249999999999967387 ) ;
#257 = ORIENTED_EDGE ( 'NONE', *, *, #537, .T. ) ;
#258 = VECTOR ( 'NONE', #299, 39.37007874015748143 ) ;
#259 = AXIS2_PLACEMENT_3D ( 'NONE', #31, #469, #293 ) ;
#260 = APPROVAL_DATE_TIME ( #206, #596 ) ;
#261 = CC_DESIGN_PERSON_AND_ORGANIZATION_ASSIGNMENT ( #539, #412, ( #289 ) ) ;
#262 = FACE_BOUND ( 'NONE', #429, .T. ) ;
#263 = VERTEX_POINT ( 'NONE', #619 ) ;
#264 = CIRCLE ( 'NONE', #88, 0.07300000000000000933 ) ;
#265 = DIRECTION ( 'NONE',  ( -0.000000000000000000, 0.000000000000000000, -1.000000000000000000 ) ) ;
#266 = EDGE_CURVE ( 'NONE', #513, #220, #139, .T. ) ;
#267 = ORIENTED_EDGE ( 'NONE', *, *, #449, .T. ) ;
#268 = DIRECTION ( 'NONE',  ( 1.449256230060611826E-15, -1.000000000000000000, 0.000000000000000000 ) ) ;
#269 = ORIENTED_EDGE ( 'NONE', *, *, #112, .T. ) ;
#270 = CC_DESIGN_PERSON_AND_ORGANIZATION_ASSIGNMENT ( #161, #90, ( #237 ) ) ;
#271 = APPROVAL_STATUS ( 'not_yet_approved' ) ;
#272 = DIRECTION ( 'NONE',  ( 0.000000000000000000, 0.000000000000000000, 1.000000000000000000 ) ) ;
#273 = EDGE_LOOP ( 'NONE', ( #459, #295, #673, #576 ) ) ;
#274 = CLOSED_SHELL ( 'NONE', ( #325, #339, #438, #704, #277, #310, #209, #305, #413, #180, #641, #155, #23, #510, #217, #563, #583, #214, #632 ) ) ;
#275 = DIRECTION ( 'NONE',  ( -0.000000000000000000, 1.000000000000000000, -0.000000000000000000 ) ) ;
#276 = ORIENTED_EDGE ( 'NONE', *, *, #184, .T. ) ;
#277 = ADVANCED_FACE ( 'NONE', ( #512 ), #24, .F. ) ;
#278 = DIRECTION ( 'NONE',  ( 0.5000000000000001110, 0.000000000000000000, 0.8660254037844385966 ) ) ;
#279 = CARTESIAN_POINT ( 'NONE',  ( -0.1425077796961937426, -0.08435477332778483495, 4.849168638098885431 ) ) ;
#280 = CARTESIAN_POINT ( 'NONE',  ( -0.04175668589791701329, -0.08435477332778468229, -6.786239743216504472 ) ) ;
#281 = AXIS2_PLACEMENT_3D ( 'NONE', #122, #174, #116 ) ;
#282 = CARTESIAN_POINT ( 'NONE',  ( 0.1447433141020812719, 0.2906452266722141520, -6.893915568420367457 ) ) ;
#283 = CARTESIAN_POINT ( 'NONE',  ( 0.03088083236781903954, -0.08435477332778507087, 6.828177113451046942 ) ) ;
#284 = LINE ( 'NONE', #190, #240 ) ;
#285 = VECTOR ( 'NONE', #503, 39.37007874015748143 ) ;
#286 = ORIENTED_EDGE ( 'NONE', *, *, #686, .T. ) ;
#287 = CARTESIAN_POINT ( 'NONE',  ( -0.1425077796961937704, -0.2093547733277845990, 4.922168638098884941 ) ) ;
#288 = CARTESIAN_POINT ( 'NONE',  ( -0.1402421017392728175, -0.2093547733277845990, -6.009369693409485791 ) ) ;
#289 = PRODUCT_DEFINITION ( 'UNKNOWN', '', #237, #435 ) ;
#290 = LINE ( 'NONE', #465, #564 ) ;
#291 = CARTESIAN_POINT ( 'NONE',  ( -0.2302566858979177289, -0.08435477332778495985, -6.677409217474262526 ) ) ;
#292 = ORIENTED_EDGE ( 'NONE', *, *, #40, .F. ) ;
#293 = DIRECTION ( 'NONE',  ( 0.000000000000000000, 0.000000000000000000, 1.000000000000000000 ) ) ;
#294 = DIRECTION ( 'NONE',  ( -0.8660254037844385966, -1.255092711825354275E-15, 0.5000000000000000000 ) ) ;
#295 = ORIENTED_EDGE ( 'NONE', *, *, #426, .T. ) ;
#296 = LENGTH_MEASURE_WITH_UNIT ( LENGTH_MEASURE( 0.02539999999999999897 ), #621 );
#297 = DIRECTION ( 'NONE',  ( 0.000000000000000000, 0.000000000000000000, 1.000000000000000000 ) ) ;
#298 = ORIENTED_EDGE ( 'NONE', *, *, #266, .T. ) ;
#299 = DIRECTION ( 'NONE',  ( -0.000000000000000000, -0.000000000000000000, -1.000000000000000000 ) ) ;
#300 = DIRECTION ( 'NONE',  ( 0.000000000000000000, 0.000000000000000000, 1.000000000000000000 ) ) ;
#301 = EDGE_LOOP ( 'NONE', ( #56, #276 ) ) ;
#302 = CARTESIAN_POINT ( 'NONE',  ( 0.2072433141020827152, -0.2093547733277845990, -6.929999960244723312 ) ) ;
#303 = LINE ( 'NONE', #458, #47 ) ;
#304 = ORIENTED_EDGE ( 'NONE', *, *, #592, .T. ) ;
#305 = ADVANCED_FACE ( 'NONE', ( #581 ), #219, .F. ) ;
#306 = VECTOR ( 'NONE', #376, 39.37007874015748854 ) ;
#307 = DATE_TIME_ROLE ( 'classification_date' ) ;
#308 = DIRECTION ( 'NONE',  ( 1.000000000000000000, 1.403346572087807793E-15, 0.000000000000000000 ) ) ;
#309 = ORIENTED_EDGE ( 'NONE', *, *, #379, .T. ) ;
#310 = ADVANCED_FACE ( 'NONE', ( #262, #163, #702, #532, #98 ), #165, .F. ) ;
#311 = COORDINATED_UNIVERSAL_TIME_OFFSET ( 6, 0, .BEHIND. ) ;
#312 = FACE_OUTER_BOUND ( 'NONE', #46, .T. ) ;
#313 = ORIENTED_EDGE ( 'NONE', *, *, #27, .F. ) ;
#314 = APPROVAL_STATUS ( 'not_yet_approved' ) ;
#315 = EDGE_CURVE ( 'NONE', #660, #579, #533, .T. ) ;
#316 = DIRECTION ( 'NONE',  ( 1.000000000000000000, 0.000000000000000000, -0.000000000000000000 ) ) ;
#317 = ORIENTED_EDGE ( 'NONE', *, *, #611, .F. ) ;
#318 = AXIS2_PLACEMENT_3D ( 'NONE', #49, #585, #482 ) ;
#319 = APPROVAL_STATUS ( 'not_yet_approved' ) ;
#320 = DIRECTION ( 'NONE',  ( -0.000000000000000000, -0.000000000000000000, -1.000000000000000000 ) ) ;
#321 = DIRECTION ( 'NONE',  ( 0.000000000000000000, 1.000000000000000000, 0.000000000000000000 ) ) ;
#322 = EDGE_LOOP ( 'NONE', ( #415, #404, #286, #242 ) ) ;
#323 = LINE ( 'NONE', #58, #500 ) ;
#324 = ORIENTED_EDGE ( 'NONE', *, *, #542, .F. ) ;
#325 = ADVANCED_FACE ( 'NONE', ( #432 ), #150, .F. ) ;
#326 = CIRCLE ( 'NONE', #170, 0.07300000000000000933 ) ;
#327 = VECTOR ( 'NONE', #94, 39.37007874015748143 ) ;
#328 = DIRECTION ( 'NONE',  ( 0.000000000000000000, 0.000000000000000000, 1.000000000000000000 ) ) ;
#329 = DIRECTION ( 'NONE',  ( 0.000000000000000000, 1.000000000000000000, -0.000000000000000000 ) ) ;
#330 =( BOUNDED_CURVE ( )  B_SPLINE_CURVE ( 3, ( #239, #357, #618, #36 ),
 .UNSPECIFIED., .F., .F. ) 
 B_SPLINE_CURVE_WITH_KNOTS ( ( 4, 4 ),
 ( 1.570796326794896558, 3.141592653589793116 ),
 .UNSPECIFIED. ) 
 CURVE ( )  GEOMETRIC_REPRESENTATION_ITEM ( )  RATIONAL_B_SPLINE_CURVE ( ( 1.000000000000000000, 0.8047378541243649375, 0.8047378541243649375, 1.000000000000000000 ) ) 
 REPRESENTATION_ITEM ( '' )  );
#331 = DIRECTION ( 'NONE',  ( -0.000000000000000000, -0.000000000000000000, -1.000000000000000000 ) ) ;
#332 = CARTESIAN_POINT ( 'NONE',  ( -0.2927566858979174236, -0.2093547733277845990, 7.300000039755276227 ) ) ;
#333 = FACE_OUTER_BOUND ( 'NONE', #474, .T. ) ;
#334 =( BOUNDED_CURVE ( )  B_SPLINE_CURVE ( 3, ( #560, #354, #71, #457 ),
 .UNSPECIFIED., .F., .F. ) 
 B_SPLINE_CURVE_WITH_KNOTS ( ( 4, 4 ),
 ( 0.000000000000000000, 1.570796326794897002 ),
 .UNSPECIFIED. ) 
 CURVE ( )  GEOMETRIC_REPRESENTATION_ITEM ( )  RATIONAL_B_SPLINE_CURVE ( ( 1.000000000000000000, 0.8047378541243649375, 0.8047378541243649375, 1.000000000000000000 ) ) 
 REPRESENTATION_ITEM ( '' )  );
#335 = LINE ( 'NONE', #554, #556 ) ;
#336 = ORIENTED_EDGE ( 'NONE', *, *, #440, .T. ) ;
#337 = LINE ( 'NONE', #390, #193 ) ;
#338 = AXIS2_PLACEMENT_3D ( 'NONE', #597, #540, #272 ) ;
#339 = ADVANCED_FACE ( 'NONE', ( #484 ), #1, .F. ) ;
#340 = CARTESIAN_POINT ( 'NONE',  ( -0.04175668589791701329, -0.08435477332778468229, 6.786239822727059057 ) ) ;
#341 = EDGE_LOOP ( 'NONE', ( #22, #188, #15, #298 ) ) ;
#342 = CARTESIAN_POINT ( 'NONE',  ( -0.04175668589791701329, 0.03964522667221459518, 7.300000039755276227 ) ) ;
#343 = CARTESIAN_POINT ( 'NONE',  ( -0.2302566858979177289, -0.08435477332778495985, 6.677409296984813558 ) ) ;
#344 = CARTESIAN_POINT ( 'NONE',  ( 0.1447433141020827707, 0.2906452266722141520, 7.300000039755276227 ) ) ;
#345 = DIRECTION ( 'NONE',  ( 0.000000000000000000, 0.000000000000000000, 1.000000000000000000 ) ) ;
#346 = AXIS2_PLACEMENT_3D ( 'NONE', #133, #511, #183 ) ;
#347 = ORGANIZATION ( 'UNSPECIFIED', 'UNSPECIFIED', '' ) ;
#348 = ORIENTED_EDGE ( 'NONE', *, *, #486, .F. ) ;
#349 = EDGE_CURVE ( 'NONE', #677, #541, #693, .T. ) ;
#350 = LINE ( 'NONE', #344, #258 ) ;
#351 = DIRECTION ( 'NONE',  ( 0.000000000000000000, 1.000000000000000000, 0.000000000000000000 ) ) ;
#352 = VECTOR ( 'NONE', #106, 39.37007874015748854 ) ;
#353 = ORIENTED_EDGE ( 'NONE', *, *, #96, .T. ) ;
#354 = CARTESIAN_POINT ( 'NONE',  ( 0.08224331410208307602, 0.2647568790238958303, 6.857831256106573292 ) ) ;
#355 = CARTESIAN_POINT ( 'NONE',  ( -0.1402421017392728175, -0.2093547733277845990, -6.082369693409486189 ) ) ;
#356 = ORIENTED_EDGE ( 'NONE', *, *, #486, .T. ) ;
#357 = CARTESIAN_POINT ( 'NONE',  ( -0.2668683382495991019, -0.08435477332778495985, -6.656271470133540369 ) ) ;
#358 = EDGE_CURVE ( 'NONE', #594, #263, #103, .T. ) ;
#359 = CARTESIAN_POINT ( 'NONE',  ( -0.2302566858979177289, -0.08435477332778495985, 7.300000039755276227 ) ) ;
#360 = ORIENTED_EDGE ( 'NONE', *, *, #573, .T. ) ;
#361 = APPROVAL_ROLE ( '' ) ;
#362 = FACE_BOUND ( 'NONE', #669, .T. ) ;
#363 = ORIENTED_EDGE ( 'NONE', *, *, #96, .F. ) ;
#364 =( BOUNDED_CURVE ( )  B_SPLINE_CURVE ( 3, ( #64, #283, #62, #651 ),
 .UNSPECIFIED., .F., .F. ) 
 B_SPLINE_CURVE_WITH_KNOTS ( ( 4, 4 ),
 ( 1.570796326794896780, 3.141592653589793116 ),
 .UNSPECIFIED. ) 
 CURVE ( )  GEOMETRIC_REPRESENTATION_ITEM ( )  RATIONAL_B_SPLINE_CURVE ( ( 1.000000000000000000, 0.8047378541243650485, 0.8047378541243650485, 1.000000000000000000 ) ) 
 REPRESENTATION_ITEM ( '' )  );
#365 = PERSON_AND_ORGANIZATION ( #502, #347 ) ;
#366 = DIRECTION ( 'NONE',  ( 0.000000000000000000, -0.000000000000000000, 1.000000000000000000 ) ) ;
#367 = ORIENTED_EDGE ( 'NONE', *, *, #699, .F. ) ;
#368 =( NAMED_UNIT ( * ) SI_UNIT ( $, .STERADIAN. ) SOLID_ANGLE_UNIT ( ) );
#369 = CARTESIAN_POINT ( 'NONE',  ( -0.1402421017392706248, -0.2093547733277845990, 6.082369772920037221 ) ) ;
#370 = ORIENTED_EDGE ( 'NONE', *, *, #315, .T. ) ;
#371 = CC_DESIGN_PERSON_AND_ORGANIZATION_ASSIGNMENT ( #588, #372, ( #145 ) ) ;
#372 = PERSON_AND_ORGANIZATION_ROLE ( 'classification_officer' ) ;
#373 = CARTESIAN_POINT ( 'NONE',  ( -0.2927566858979174236, -0.1468547733277846268, 7.300000039755276227 ) ) ;
#374 = ORIENTED_EDGE ( 'NONE', *, *, #61, .T. ) ;
#375 = AXIS2_PLACEMENT_3D ( 'NONE', #215, #495, #7 ) ;
#376 = DIRECTION ( 'NONE',  ( -0.8660254037844377084, 0.000000000000000000, -0.5000000000000015543 ) ) ;
#377 = ORIENTED_EDGE ( 'NONE', *, *, #683, .F. ) ;
#378 = CARTESIAN_POINT ( 'NONE',  ( -0.1402421017392728175, -0.2093547733277845990, -6.009369693409485791 ) ) ;
#379 = EDGE_CURVE ( 'NONE', #600, #87, #428, .T. ) ;
#380 = ORIENTED_EDGE ( 'NONE', *, *, #315, .F. ) ;
#381 = CARTESIAN_POINT ( 'NONE',  ( -0.2927566858979174236, -0.2093547733277845990, 6.641324905160462144 ) ) ;
#382 = CARTESIAN_POINT ( 'NONE',  ( -0.1425077796961937704, -0.2093547733277845990, 4.922168638098884941 ) ) ;
#383 = CC_DESIGN_PERSON_AND_ORGANIZATION_ASSIGNMENT ( #211, #642, ( #678 ) ) ;
#384 = FACE_OUTER_BOUND ( 'NONE', #16, .T. ) ;
#385 = LINE ( 'NONE', #391, #509 ) ;
#386 = VERTEX_POINT ( 'NONE', #208 ) ;
#387 = LINE ( 'NONE', #608, #655 ) ;
#388 = DIRECTION ( 'NONE',  ( -0.000000000000000000, -0.000000000000000000, -1.000000000000000000 ) ) ;
#389 = ORIENTED_EDGE ( 'NONE', *, *, #3, .F. ) ;
#390 = CARTESIAN_POINT ( 'NONE',  ( 0.2072433141020827152, 0.2906452266722133748, 7.300000039755276227 ) ) ;
#391 = CARTESIAN_POINT ( 'NONE',  ( -0.2927566858979174236, -0.2093547733277845990, -6.641324825649911112 ) ) ;
#392 = VECTOR ( 'NONE', #181, 39.37007874015748143 ) ;
#393 = AXIS2_PLACEMENT_3D ( 'NONE', #55, #316, #265 ) ;
#394 = FACE_OUTER_BOUND ( 'NONE', #204, .T. ) ;
#395 = CARTESIAN_POINT ( 'NONE',  ( -0.2927566858979174236, -0.1102431209761032399, 6.641324905160462144 ) ) ;
#396 = DIRECTION ( 'NONE',  ( -1.000000000000000000, 0.000000000000000000, 0.000000000000000000 ) ) ;
#397 = DIRECTION ( 'NONE',  ( -0.000000000000000000, 1.000000000000000000, -0.000000000000000000 ) ) ;
#398 = EDGE_CURVE ( 'NONE', #154, #137, #89, .T. ) ;
#399 = EDGE_LOOP ( 'NONE', ( #448, #131, #598, #628 ) ) ;
#400 = CARTESIAN_POINT ( 'NONE',  ( 0.08224331410208308990, 0.03964522667221459518, 7.300000039755276227 ) ) ;
#401 = FACE_OUTER_BOUND ( 'NONE', #341, .T. ) ;
#402 = AXIS2_PLACEMENT_3D ( 'NONE', #342, #569, #396 ) ;
#403 = LOCAL_TIME ( 22, 50, 15.00000000000000000, #584 ) ;
#404 = ORIENTED_EDGE ( 'NONE', *, *, #496, .T. ) ;
#405 = LINE ( 'NONE', #506, #157 ) ;
#406 = VECTOR ( 'NONE', #675, 39.37007874015748143 ) ;
#407 = PLANE ( 'NONE',  #218 ) ;
#408 = ORIENTED_EDGE ( 'NONE', *, *, #491, .F. ) ;
#409 = VECTOR ( 'NONE', #441, 39.37007874015748854 ) ;
#410 = CARTESIAN_POINT ( 'NONE',  ( -0.1402421017392706248, -0.2093547733277845990, 6.155369772920037619 ) ) ;
#411 = VERTEX_POINT ( 'NONE', #42 ) ;
#412 = PERSON_AND_ORGANIZATION_ROLE ( 'creator' ) ;
#413 = ADVANCED_FACE ( 'NONE', ( #639 ), #256, .T. ) ;
#414 = FACE_OUTER_BOUND ( 'NONE', #140, .T. ) ;
#415 = ORIENTED_EDGE ( 'NONE', *, *, #162, .F. ) ;
#416 = VECTOR ( 'NONE', #85, 39.37007874015748143 ) ;
#417 = CC_DESIGN_APPROVAL ( #666, ( #289 ) ) ;
#418 = CIRCLE ( 'NONE', #113, 0.07299999999999992606 ) ;
#419 = LINE ( 'NONE', #104, #327 ) ;
#420 = AXIS2_PLACEMENT_3D ( 'NONE', #463, #397, #345 ) ;
#421 = EDGE_LOOP ( 'NONE', ( #689, #100, #33, #620 ) ) ;
#422 = CIRCLE ( 'NONE', #207, 0.07299999999999992606 ) ;
#423 = DATE_AND_TIME ( #255, #487 ) ;
#424 = CARTESIAN_POINT ( 'NONE',  ( 0.1447433141020827707, 0.2281452266722144850, 7.300000039755276227 ) ) ;
#425 = ORIENTED_EDGE ( 'NONE', *, *, #266, .F. ) ;
#426 = EDGE_CURVE ( 'NONE', #562, #60, #419, .T. ) ;
#427 = APPROVAL_ROLE ( '' ) ;
#428 = LINE ( 'NONE', #488, #306 ) ;
#429 = EDGE_LOOP ( 'NONE', ( #191, #125 ) ) ;
#430 = VECTOR ( 'NONE', #26, 39.37007874015748143 ) ;
#431 = DATE_TIME_ROLE ( 'creation_date' ) ;
#432 = FACE_OUTER_BOUND ( 'NONE', #399, .T. ) ;
#433 = ORIENTED_EDGE ( 'NONE', *, *, #82, .T. ) ;
#434 = VECTOR ( 'NONE', #199, 39.37007874015747433 ) ;
#435 = DESIGN_CONTEXT ( 'detailed design', #508, 'design' ) ;
#436 = AXIS2_PLACEMENT_3D ( 'NONE', #478, #697, #643 ) ;
#437 = AXIS2_PLACEMENT_3D ( 'NONE', #557, #278, #4 ) ;
#438 = ADVANCED_FACE ( 'NONE', ( #312 ), #528, .F. ) ;
#439 = CARTESIAN_POINT ( 'NONE',  ( -0.1402421017392706248, -0.08435477332778482107, 6.082369772920037221 ) ) ;
#440 = EDGE_CURVE ( 'NONE', #492, #147, #158, .T. ) ;
#441 = DIRECTION ( 'NONE',  ( 0.8660254037844385966, -0.000000000000000000, -0.5000000000000000000 ) ) ;
#442 = CARTESIAN_POINT ( 'NONE',  ( -0.1425077796961959631, -0.08435477332778483495, -4.922168558588333021 ) ) ;
#443 = LINE ( 'NONE', #610, #285 ) ;
#444 = CARTESIAN_POINT ( 'NONE',  ( 0.03088083236781883484, -0.08435477332778529291, -6.828177033940494134 ) ) ;
#445 = ORIENTED_EDGE ( 'NONE', *, *, #67, .F. ) ;
#446 = CARTESIAN_POINT ( 'NONE',  ( -0.1425077796961959631, -0.2093547733277845990, -4.922168558588333021 ) ) ;
#447 = DIRECTION ( 'NONE',  ( 0.000000000000000000, 0.000000000000000000, -1.000000000000000000 ) ) ;
#448 = ORIENTED_EDGE ( 'NONE', *, *, #398, .F. ) ;
#449 = EDGE_CURVE ( 'NONE', #386, #51, #422, .T. ) ;
#450 = CARTESIAN_POINT ( 'NONE',  ( -0.1425077796961959631, -0.2093547733277845990, -4.849168558588333511 ) ) ;
#451 = DIRECTION ( 'NONE',  ( 0.000000000000000000, 1.000000000000000000, 0.000000000000000000 ) ) ;
#452 = ORIENTED_EDGE ( 'NONE', *, *, #112, .F. ) ;
#453 = DIRECTION ( 'NONE',  ( 1.449256230060611826E-15, -1.000000000000000000, 0.000000000000000000 ) ) ;
#454 = CARTESIAN_POINT ( 'NONE',  ( 0.1081316617503994965, 0.2906452266722121536, -6.872777821079652405 ) ) ;
#455 = LOCAL_TIME ( 22, 50, 15.00000000000000000, #93 ) ;
#456 = AXIS2_PLACEMENT_3D ( 'NONE', #195, #574, #297 ) ;
#457 = CARTESIAN_POINT ( 'NONE',  ( 0.1447433141020827985, 0.2906452266722141520, 6.893915647930924706 ) ) ;
#458 = CARTESIAN_POINT ( 'NONE',  ( 0.08224331410208308990, 0.2281452266722144850, 7.300000039755276227 ) ) ;
#459 = ORIENTED_EDGE ( 'NONE', *, *, #184, .F. ) ;
#460 = DIRECTION ( 'NONE',  ( 0.000000000000000000, 0.000000000000000000, 1.000000000000000000 ) ) ;
#461 = ORIENTED_EDGE ( 'NONE', *, *, #440, .F. ) ;
#462 =( NAMED_UNIT ( * ) PLANE_ANGLE_UNIT ( ) SI_UNIT ( $, .RADIAN. ) );
#463 = CARTESIAN_POINT ( 'NONE',  ( -0.1402421017392728175, -0.2093547733277845990, -6.082369693409486189 ) ) ;
#464 = ORIENTED_EDGE ( 'NONE', *, *, #48, .T. ) ;
#465 = CARTESIAN_POINT ( 'NONE',  ( 0.2072433141020827152, -0.2093547733277845990, 6.930000039755276120 ) ) ;
#466 = PLANE ( 'NONE',  #479 ) ;
#467 = ORIENTED_EDGE ( 'NONE', *, *, #676, .T. ) ;
#468 = EDGE_CURVE ( 'NONE', #51, #386, #698, .T. ) ;
#469 = DIRECTION ( 'NONE',  ( -0.000000000000000000, 1.000000000000000000, -0.000000000000000000 ) ) ;
#470 = CARTESIAN_POINT ( 'NONE',  ( -0.04175668589791701329, -0.08435477332778468229, 7.300000039755276227 ) ) ;
#471 = ORIENTED_EDGE ( 'NONE', *, *, #189, .F. ) ;
#472 = DIRECTION ( 'NONE',  ( 1.000000000000000000, 0.000000000000000000, 0.000000000000000000 ) ) ;
#473 = DIRECTION ( 'NONE',  ( 1.000000000000000000, 1.403346572087807793E-15, 0.000000000000000000 ) ) ;
#474 = EDGE_LOOP ( 'NONE', ( #356, #143, #213, #538, #77, #425, #2, #695, #292 ) ) ;
#475 = PERSON_AND_ORGANIZATION ( #502, #347 ) ;
#476 = CIRCLE ( 'NONE', #568, 0.07299999999999992606 ) ;
#477 = EDGE_CURVE ( 'NONE', #534, #118, #50, .T. ) ;
#478 = CARTESIAN_POINT ( 'NONE',  ( -0.1425077796961937704, -0.2093547733277845990, 4.922168638098884941 ) ) ;
#479 = AXIS2_PLACEMENT_3D ( 'NONE', #570, #72, #684 ) ;
#480 = ORIENTED_EDGE ( 'NONE', *, *, #637, .F. ) ;
#481 = PERSON_AND_ORGANIZATION_ROLE ( 'design_supplier' ) ;
#482 = DIRECTION ( 'NONE',  ( 0.000000000000000000, 0.000000000000000000, 1.000000000000000000 ) ) ;
#483 = ORIENTED_EDGE ( 'NONE', *, *, #238, .T. ) ;
#484 = FACE_OUTER_BOUND ( 'NONE', #273, .T. ) ;
#485 = VERTEX_POINT ( 'NONE', #550 ) ;
#486 = EDGE_CURVE ( 'NONE', #92, #121, #232, .T. ) ;
#487 = LOCAL_TIME ( 22, 50, 15.00000000000000000, #687 ) ;
#488 = CARTESIAN_POINT ( 'NONE',  ( 0.2072433141020827152, 0.2906452266722141520, 6.930000039755276120 ) ) ;
#489 = ORIENTED_EDGE ( 'NONE', *, *, #449, .F. ) ;
#490 = VECTOR ( 'NONE', #294, 39.37007874015748854 ) ;
#491 = EDGE_CURVE ( 'NONE', #118, #51, #323, .T. ) ;
#492 = VERTEX_POINT ( 'NONE', #10 ) ;
#493 = DIRECTION ( 'NONE',  ( 1.449256230060611826E-15, -1.000000000000000000, 0.000000000000000000 ) ) ;
#494 = CARTESIAN_POINT ( 'NONE',  ( 0.1447433141020812719, 0.2906452266722141520, -6.893915568420367457 ) ) ;
#495 = DIRECTION ( 'NONE',  ( 1.449256230060611826E-15, -1.000000000000000000, 0.000000000000000000 ) ) ;
#496 = EDGE_CURVE ( 'NONE', #80, #706, #364, .T. ) ;
#497 = CARTESIAN_POINT ( 'NONE',  ( 0.08224331410208308990, 0.2281452266722144850, 6.857831256106573292 ) ) ;
#498 = ORIENTED_EDGE ( 'NONE', *, *, #34, .F. ) ;
#499 = DIRECTION ( 'NONE',  ( 1.000000000000000000, 1.403346572087807793E-15, 0.000000000000000000 ) ) ;
#500 = VECTOR ( 'NONE', #275, 39.37007874015748143 ) ;
#501 = EDGE_LOOP ( 'NONE', ( #480, #546, #590, #348 ) ) ;
#502 = PERSON ( 'UNSPECIFIED', 'UNSPECIFIED', 'UNSPECIFIED', ('UNSPECIFIED'), ('UNSPECIFIED'), ('UNSPECIFIED') ) ;
#503 = DIRECTION ( 'NONE',  ( -0.000000000000000000, -0.000000000000000000, -1.000000000000000000 ) ) ;
#504 = CARTESIAN_POINT ( 'NONE',  ( -0.2927566858979174236, -0.1468547733277846268, 6.641324905160462144 ) ) ;
#505 = EDGE_CURVE ( 'NONE', #600, #121, #337, .T. ) ;
#506 = CARTESIAN_POINT ( 'NONE',  ( -0.1425077796961959353, -0.2093547733277845990, -4.995168558588333418 ) ) ;
#507 = CARTESIAN_POINT ( 'NONE',  ( -0.1425077796961937426, -0.2093547733277845990, 4.849168638098885431 ) ) ;
#508 = APPLICATION_CONTEXT ( 'configuration controlled 3d designs of mechanical parts and assemblies' ) ;
#509 = VECTOR ( 'NONE', #124, 39.37007874015748143 ) ;
#510 = ADVANCED_FACE ( 'NONE', ( #333 ), #657, .F. ) ;
#511 = DIRECTION ( 'NONE',  ( -0.000000000000000000, 1.000000000000000000, -0.000000000000000000 ) ) ;
#512 = FACE_OUTER_BOUND ( 'NONE', #182, .T. ) ;
#513 = VERTEX_POINT ( 'NONE', #280 ) ;
#514 = DIMENSIONAL_EXPONENTS ( 1.000000000000000000, 0.000000000000000000, 0.000000000000000000, 0.000000000000000000, 0.000000000000000000, 0.000000000000000000, 0.000000000000000000 ) ;
#515 = CARTESIAN_POINT ( 'NONE',  ( -0.1402421017392705971, -0.2093547733277845990, 6.009369772920037711 ) ) ;
#516 = ORIENTED_EDGE ( 'NONE', *, *, #652, .F. ) ;
#517 = DIRECTION ( 'NONE',  ( -0.000000000000000000, 1.000000000000000000, -0.000000000000000000 ) ) ;
#518 = DIRECTION ( 'NONE',  ( 0.000000000000000000, 0.000000000000000000, 1.000000000000000000 ) ) ;
#519 = CC_DESIGN_SECURITY_CLASSIFICATION ( #145, ( #237 ) ) ;
#520 = ORIENTED_EDGE ( 'NONE', *, *, #34, .T. ) ;
#521 = FACE_OUTER_BOUND ( 'NONE', #322, .T. ) ;
#522 = FACE_BOUND ( 'NONE', #25, .T. ) ;
#523 = AXIS2_PLACEMENT_3D ( 'NONE', #439, #212, #308 ) ;
#524 = ORIENTED_EDGE ( 'NONE', *, *, #542, .T. ) ;
#525 = CALENDAR_DATE ( 2025, 7, 3 ) ;
#526 = CARTESIAN_POINT ( 'NONE',  ( -0.1425077796961959631, -0.08435477332778483495, -4.922168558588333021 ) ) ;
#527 = VERTEX_POINT ( 'NONE', #378 ) ;
#528 = CYLINDRICAL_SURFACE ( 'NONE', #436, 0.07300000000000000933 ) ;
#529 = ORIENTED_EDGE ( 'NONE', *, *, #558, .T. ) ;
#530 = AXIS2_PLACEMENT_3D ( 'NONE', #141, #74, #251 ) ;
#531 = APPROVAL_ROLE ( '' ) ;
#532 = FACE_BOUND ( 'NONE', #29, .T. ) ;
#533 = CIRCLE ( 'NONE', #626, 0.07299999999999992606 ) ;
#534 = VERTEX_POINT ( 'NONE', #69 ) ;
#535 = SHAPE_DEFINITION_REPRESENTATION ( #671, #691 ) ;
#536 = CARTESIAN_POINT ( 'NONE',  ( 0.2072433141020827152, -0.2093547733277845990, 6.930000039755276120 ) ) ;
#537 = EDGE_CURVE ( 'NONE', #677, #640, #443, .T. ) ;
#538 = ORIENTED_EDGE ( 'NONE', *, *, #67, .T. ) ;
#539 = PERSON_AND_ORGANIZATION ( #502, #347 ) ;
#540 = DIRECTION ( 'NONE',  ( -0.000000000000000000, 1.000000000000000000, -0.000000000000000000 ) ) ;
#541 = VERTEX_POINT ( 'NONE', #381 ) ;
#542 = EDGE_CURVE ( 'NONE', #541, #492, #17, .T. ) ;
#543 = CIRCLE ( 'NONE', #707, 0.07299999999999992606 ) ;
#544 = DIRECTION ( 'NONE',  ( 0.000000000000000000, 1.000000000000000000, -0.000000000000000000 ) ) ;
#545 = AXIS2_PLACEMENT_3D ( 'NONE', #382, #329, #447 ) ;
#546 = ORIENTED_EDGE ( 'NONE', *, *, #379, .F. ) ;
#547 = CARTESIAN_POINT ( 'NONE',  ( -0.1402421017392706248, -0.08435477332778482107, 6.082369772920037221 ) ) ;
#548 = DIRECTION ( 'NONE',  ( 0.000000000000000000, 0.000000000000000000, -1.000000000000000000 ) ) ;
#549 = VERTEX_POINT ( 'NONE', #171 ) ;
#550 = CARTESIAN_POINT ( 'NONE',  ( -0.1402421017392728175, -0.08435477332778482107, -6.009369693409485791 ) ) ;
#551 = DIRECTION ( 'NONE',  ( -0.000000000000000000, -0.000000000000000000, -1.000000000000000000 ) ) ;
#552 = VECTOR ( 'NONE', #517, 39.37007874015748143 ) ;
#553 = CARTESIAN_POINT ( 'NONE',  ( -0.1402421017392706248, -0.08435477332778482107, 6.155369772920037619 ) ) ;
#554 = CARTESIAN_POINT ( 'NONE',  ( 0.2072433141020827152, -0.2093547733277845990, -6.929999960244723312 ) ) ;
#555 = VECTOR ( 'NONE', #229, 39.37007874015748143 ) ;
#556 = VECTOR ( 'NONE', #68, 39.37007874015748143 ) ;
#557 = CARTESIAN_POINT ( 'NONE',  ( 0.2072433141020827152, -0.2093547733277845990, -6.929999960244723312 ) ) ;
#558 = EDGE_CURVE ( 'NONE', #485, #60, #692, .T. ) ;
#559 = ORIENTED_EDGE ( 'NONE', *, *, #349, .T. ) ;
#560 = CARTESIAN_POINT ( 'NONE',  ( 0.08224331410208308990, 0.2281452266722144850, 6.857831256106573292 ) ) ;
#561 = CARTESIAN_POINT ( 'NONE',  ( 0.1447433141020827985, 0.2906452266722141520, 6.893915647930924706 ) ) ;
#562 = VERTEX_POINT ( 'NONE', #602 ) ;
#563 = ADVANCED_FACE ( 'NONE', ( #228 ), #109, .F. ) ;
#564 = VECTOR ( 'NONE', #565, 39.37007874015748143 ) ;
#565 = DIRECTION ( 'NONE',  ( -0.000000000000000000, 1.000000000000000000, -0.000000000000000000 ) ) ;
#566 = CARTESIAN_POINT ( 'NONE',  ( -6.141277433824196663, -0.08435477332779352244, -3.264679797473558853 ) ) ;
#567 = VERTEX_POINT ( 'NONE', #177 ) ;
#568 = AXIS2_PLACEMENT_3D ( 'NONE', #65, #70, #120 ) ;
#569 = DIRECTION ( 'NONE',  ( -0.000000000000000000, -0.000000000000000000, -1.000000000000000000 ) ) ;
#570 = CARTESIAN_POINT ( 'NONE',  ( 0.08224331410208308990, 0.2281452266722144850, 7.300000039755276227 ) ) ;
#571 = ORIENTED_EDGE ( 'NONE', *, *, #426, .F. ) ;
#572 = DIRECTION ( 'NONE',  ( -0.000000000000000000, 1.000000000000000000, -0.000000000000000000 ) ) ;
#573 = EDGE_CURVE ( 'NONE', #263, #594, #543, .T. ) ;
#574 = DIRECTION ( 'NONE',  ( -1.000000000000000000, 0.000000000000000000, 0.000000000000000000 ) ) ;
#575 = APPLICATION_CONTEXT ( 'configuration controlled 3d designs of mechanical parts and assemblies' ) ;
#576 = ORIENTED_EDGE ( 'NONE', *, *, #12, .F. ) ;
#577 = CYLINDRICAL_SURFACE ( 'NONE', #346, 0.07300000000000000933 ) ;
#578 = DIRECTION ( 'NONE',  ( -0.000000000000000000, -0.000000000000000000, -1.000000000000000000 ) ) ;
#579 = VERTEX_POINT ( 'NONE', #667 ) ;
#580 = DATE_AND_TIME ( #525, #455 ) ;
#581 = FACE_OUTER_BOUND ( 'NONE', #501, .T. ) ;
#582 = VERTEX_POINT ( 'NONE', #450 ) ;
#583 = ADVANCED_FACE ( 'NONE', ( #384 ), #605, .F. ) ;
#584 = COORDINATED_UNIVERSAL_TIME_OFFSET ( 6, 0, .BEHIND. ) ;
#585 = DIRECTION ( 'NONE',  ( -0.000000000000000000, 1.000000000000000000, -0.000000000000000000 ) ) ;
#586 = ORIENTED_EDGE ( 'NONE', *, *, #676, .F. ) ;
#587 = CC_DESIGN_DATE_AND_TIME_ASSIGNMENT ( #44, #307, ( #145 ) ) ;
#588 = PERSON_AND_ORGANIZATION ( #502, #347 ) ;
#589 = DIRECTION ( 'NONE',  ( -0.000000000000000000, -0.000000000000000000, -1.000000000000000000 ) ) ;
#590 = ORIENTED_EDGE ( 'NONE', *, *, #505, .T. ) ;
#591 = CARTESIAN_POINT ( 'NONE',  ( 0.000000000000000000, 0.000000000000000000, 0.000000000000000000 ) ) ;
#592 = EDGE_CURVE ( 'NONE', #549, #640, #387, .T. ) ;
#593 = DIRECTION ( 'NONE',  ( 1.000000000000000000, -1.311287036958847923E-14, 0.000000000000000000 ) ) ;
#594 = VERTEX_POINT ( 'NONE', #553 ) ;
#595 = AXIS2_PLACEMENT_3D ( 'NONE', #424, #589, #203 ) ;
#596 = APPROVAL ( #271, 'UNSPECIFIED' ) ;
#597 = CARTESIAN_POINT ( 'NONE',  ( -0.1402421017392728175, -0.2093547733277845990, -6.082369693409486189 ) ) ;
#598 = ORIENTED_EDGE ( 'NONE', *, *, #358, .F. ) ;
#599 = DIRECTION ( 'NONE',  ( 1.000000000000000000, 1.403346572087807793E-15, 0.000000000000000000 ) ) ;
#600 = VERTEX_POINT ( 'NONE', #66 ) ;
#601 = CC_DESIGN_APPROVAL ( #247, ( #145 ) ) ;
#602 = CARTESIAN_POINT ( 'NONE',  ( -0.1402421017392727898, -0.2093547733277845990, -6.155369693409485699 ) ) ;
#603 = CARTESIAN_POINT ( 'NONE',  ( 0.08224331410208308990, 0.2281452266722144850, -6.857831176596018707 ) ) ;
#604 = EDGE_CURVE ( 'NONE', #43, #567, #14, .T. ) ;
#605 = CYLINDRICAL_SURFACE ( 'NONE', #281, 0.07300000000000000933 ) ;
#606 = EDGE_LOOP ( 'NONE', ( #586, #471, #464, #227 ) ) ;
#607 =( BOUNDED_CURVE ( )  B_SPLINE_CURVE ( 3, ( #282, #454, #658, #603 ),
 .UNSPECIFIED., .F., .F. ) 
 B_SPLINE_CURVE_WITH_KNOTS ( ( 4, 4 ),
 ( 1.570796326794952513, 3.141592653589793116 ),
 .UNSPECIFIED. ) 
 CURVE ( )  GEOMETRIC_REPRESENTATION_ITEM ( )  RATIONAL_B_SPLINE_CURVE ( ( 1.000000000000000000, 0.8047378541243782601, 0.8047378541243782601, 1.000000000000000000 ) ) 
 REPRESENTATION_ITEM ( '' )  );
#608 = CARTESIAN_POINT ( 'NONE',  ( 0.2072433141020827152, -0.2093547733277845990, -6.929999960244723312 ) ) ;
#609 = CARTESIAN_POINT ( 'NONE',  ( -0.1425077796961959631, -0.2093547733277845990, -4.849168558588333511 ) ) ;
#610 = CARTESIAN_POINT ( 'NONE',  ( 0.2072433141020827152, -0.2093547733277845990, 7.300000039755276227 ) ) ;
#611 = EDGE_CURVE ( 'NONE', #677, #600, #290, .T. ) ;
#612 = EDGE_LOOP ( 'NONE', ( #164, #317, #257, #614 ) ) ;
#613 = VECTOR ( 'NONE', #451, 39.37007874015748143 ) ;
#614 = ORIENTED_EDGE ( 'NONE', *, *, #107, .T. ) ;
#615 = VECTOR ( 'NONE', #578, 39.37007874015748143 ) ;
#616 = CARTESIAN_POINT ( 'NONE',  ( -0.1425077796961959631, -0.08435477332778483495, -4.849168558588333511 ) ) ;
#617 = LINE ( 'NONE', #609, #392 ) ;
#618 = CARTESIAN_POINT ( 'NONE',  ( -0.2927566858979174236, -0.1102431209761032399, -6.641324825649912000 ) ) ;
#619 = CARTESIAN_POINT ( 'NONE',  ( -0.1402421017392705971, -0.08435477332778482107, 6.009369772920037711 ) ) ;
#620 = ORIENTED_EDGE ( 'NONE', *, *, #40, .T. ) ;
#621 =( LENGTH_UNIT ( ) NAMED_UNIT ( * ) SI_UNIT ( $, .METRE. ) );
#622 = CC_DESIGN_APPROVAL ( #596, ( #237 ) ) ;
#623 = DIRECTION ( 'NONE',  ( 1.000000000000000000, 1.449256230060612024E-15, 0.000000000000000000 ) ) ;
#624 = ORIENTED_EDGE ( 'NONE', *, *, #349, .F. ) ;
#625 = EDGE_CURVE ( 'NONE', #137, #594, #670, .T. ) ;
#626 = AXIS2_PLACEMENT_3D ( 'NONE', #526, #647, #473 ) ;
#627 = LINE ( 'NONE', #359, #615 ) ;
#628 = ORIENTED_EDGE ( 'NONE', *, *, #625, .F. ) ;
#629 = CARTESIAN_POINT ( 'NONE',  ( -0.1402421017392706248, -0.2093547733277845990, 6.155369772920037619 ) ) ;
#630 = LINE ( 'NONE', #75, #406 ) ;
#631 = ORIENTED_EDGE ( 'NONE', *, *, #625, .T. ) ;
#632 = ADVANCED_FACE ( 'NONE', ( #394 ), #577, .F. ) ;
#633 = CARTESIAN_POINT ( 'NONE',  ( 0.2072433141020827152, -0.2093547733277845990, 6.930000039755276120 ) ) ;
#634 = VERTEX_POINT ( 'NONE', #674 ) ;
#635 = AXIS2_PLACEMENT_3D ( 'NONE', #470, #28, #623 ) ;
#636 = CARTESIAN_POINT ( 'NONE',  ( -0.2927566858979174236, -0.2093547733277845990, 7.300000039755276227 ) ) ;
#637 = EDGE_CURVE ( 'NONE', #87, #92, #350, .T. ) ;
#638 = ORIENTED_EDGE ( 'NONE', *, *, #491, .T. ) ;
#639 = FACE_OUTER_BOUND ( 'NONE', #421, .T. ) ;
#640 = VERTEX_POINT ( 'NONE', #302 ) ;
#641 = ADVANCED_FACE ( 'NONE', ( #521 ), #679, .F. ) ;
#642 = PERSON_AND_ORGANIZATION_ROLE ( 'design_owner' ) ;
#643 = DIRECTION ( 'NONE',  ( 0.000000000000000000, 0.000000000000000000, 1.000000000000000000 ) ) ;
#644 = ORIENTED_EDGE ( 'NONE', *, *, #82, .F. ) ;
#645 = PRODUCT_RELATED_PRODUCT_CATEGORY ( 'detail', '', ( #678 ) ) ;
#646 = APPROVAL_DATE_TIME ( #423, #666 ) ;
#647 = DIRECTION ( 'NONE',  ( 1.449256230060611826E-15, -1.000000000000000000, 0.000000000000000000 ) ) ;
#648 = ORIENTED_EDGE ( 'NONE', *, *, #604, .T. ) ;
#649 = DIRECTION ( 'NONE',  ( -1.311287036958847923E-14, -1.000000000000000000, 0.000000000000000000 ) ) ;
#650 = ORIENTED_EDGE ( 'NONE', *, *, #477, .T. ) ;
#651 = CARTESIAN_POINT ( 'NONE',  ( 0.08224331410208308990, 0.03964522667221459518, 6.857831256106573292 ) ) ;
#652 = EDGE_CURVE ( 'NONE', #634, #87, #334, .T. ) ;
#653 = CARTESIAN_POINT ( 'NONE',  ( -0.2302566858979177289, -0.08435477332778495985, 6.677409296984813558 ) ) ;
#654 =( BOUNDED_CURVE ( )  B_SPLINE_CURVE ( 3, ( #504, #395, #127, #343 ),
 .UNSPECIFIED., .F., .F. ) 
 B_SPLINE_CURVE_WITH_KNOTS ( ( 4, 4 ),
 ( 0.000000000000000000, 1.570796326794896558 ),
 .UNSPECIFIED. ) 
 CURVE ( )  GEOMETRIC_REPRESENTATION_ITEM ( )  RATIONAL_B_SPLINE_CURVE ( ( 1.000000000000000000, 0.8047378541243649375, 0.8047378541243649375, 1.000000000000000000 ) ) 
 REPRESENTATION_ITEM ( '' )  );
#655 = VECTOR ( 'NONE', #119, 39.37007874015748854 ) ;
#656 = LOCAL_TIME ( 22, 50, 15.00000000000000000, #690 ) ;
#657 = PLANE ( 'NONE',  #437 ) ;
#658 = CARTESIAN_POINT ( 'NONE',  ( 0.08224331410208307602, 0.2647568790238942760, -6.857831176596023148 ) ) ;
#659 = EDGE_CURVE ( 'NONE', #220, #147, #330, .T. ) ;
#660 = VERTEX_POINT ( 'NONE', #616 ) ;
#661 = DIRECTION ( 'NONE',  ( -0.000000000000000000, 1.000000000000000000, -0.000000000000000000 ) ) ;
#662 = CYLINDRICAL_SURFACE ( 'NONE', #21, 0.06249999999999967387 ) ;
#663 = CARTESIAN_POINT ( 'NONE',  ( 0.08224331410208308990, 0.2281452266722144850, -6.857831176596018707 ) ) ;
#664 = DIRECTION ( 'NONE',  ( 1.000000000000000000, 1.403346572087807793E-15, 0.000000000000000000 ) ) ;
#665 = ORIENTED_EDGE ( 'NONE', *, *, #12, .T. ) ;
#666 = APPROVAL ( #314, 'UNSPECIFIED' ) ;
#667 = CARTESIAN_POINT ( 'NONE',  ( -0.1425077796961959353, -0.08435477332778483495, -4.995168558588333418 ) ) ;
#668 = FACE_OUTER_BOUND ( 'NONE', #95, .T. ) ;
#669 = EDGE_LOOP ( 'NONE', ( #370, #374 ) ) ;
#670 = LINE ( 'NONE', #629, #110 ) ;
#671 = PRODUCT_DEFINITION_SHAPE ( 'NONE', 'NONE',  #289 ) ;
#672 = DIRECTION ( 'NONE',  ( -0.000000000000000000, -0.000000000000000000, -1.000000000000000000 ) ) ;
#673 = ORIENTED_EDGE ( 'NONE', *, *, #558, .F. ) ;
#674 = CARTESIAN_POINT ( 'NONE',  ( 0.08224331410208308990, 0.2281452266722144850, 6.857831256106573292 ) ) ;
#675 = DIRECTION ( 'NONE',  ( -0.000000000000000000, -0.000000000000000000, -1.000000000000000000 ) ) ;
#676 = EDGE_CURVE ( 'NONE', #411, #579, #405, .T. ) ;
#677 = VERTEX_POINT ( 'NONE', #138 ) ;
#678 = PRODUCT ( '8982K112_Multipurpose 6061 Aluminum 90 Degree Angle 6.93 corner_8982K112_sldprt', '8982K112_Multipurpose 6061 Aluminum 90 Degree Angle 6.93 corner_8982K112_sldprt', '', ( #156 ) ) ;
#679 = CYLINDRICAL_SURFACE ( 'NONE', #402, 0.1239999999999996660 ) ;
#680 =( GEOMETRIC_REPRESENTATION_CONTEXT ( 3 ) GLOBAL_UNCERTAINTY_ASSIGNED_CONTEXT ( ( #148 ) ) GLOBAL_UNIT_ASSIGNED_CONTEXT ( ( #194, #462, #368 ) ) REPRESENTATION_CONTEXT ( 'NONE', 'WORKASPACE' ) );
#681 = FACE_OUTER_BOUND ( 'NONE', #108, .T. ) ;
#682 = ORIENTED_EDGE ( 'NONE', *, *, #3, .T. ) ;
#683 = EDGE_CURVE ( 'NONE', #154, #263, #126, .T. ) ;
#684 = DIRECTION ( 'NONE',  ( -0.000000000000000000, 0.000000000000000000, -1.000000000000000000 ) ) ;
#685 = EDGE_LOOP ( 'NONE', ( #231, #559, #682, #304 ) ) ;
#686 = EDGE_CURVE ( 'NONE', #706, #567, #129, .T. ) ;
#687 = COORDINATED_UNIVERSAL_TIME_OFFSET ( 6, 0, .BEHIND. ) ;
#688 = DIRECTION ( 'NONE',  ( 0.000000000000000000, 1.000000000000000000, 0.000000000000000000 ) ) ;
#689 = ORIENTED_EDGE ( 'NONE', *, *, #254, .F. ) ;
#690 = COORDINATED_UNIVERSAL_TIME_OFFSET ( 6, 0, .BEHIND. ) ;
#691 = ADVANCED_BREP_SHAPE_REPRESENTATION ( '8982K112_Multipurpose 6061 Aluminum 90 Degree Angle 6.93 corner_8982K112_sldprt', ( #115, #694 ), #680 ) ;
#692 = CIRCLE ( 'NONE', #30, 0.07299999999999992606 ) ;
#693 = LINE ( 'NONE', #536, #352 ) ;
#694 = AXIS2_PLACEMENT_3D ( 'NONE', #591, #97, #472 ) ;
#695 = ORIENTED_EDGE ( 'NONE', *, *, #604, .F. ) ;
#696 = CALENDAR_DATE ( 2025, 7, 3 ) ;
#697 = DIRECTION ( 'NONE',  ( -0.000000000000000000, 1.000000000000000000, -0.000000000000000000 ) ) ;
#698 = CIRCLE ( 'NONE', #375, 0.07299999999999992606 ) ;
#699 = EDGE_CURVE ( 'NONE', #411, #582, #169, .T. ) ;
#700 = ORIENTED_EDGE ( 'NONE', *, *, #189, .T. ) ;
#701 = SECURITY_CLASSIFICATION_LEVEL ( 'unclassified' ) ;
#702 = FACE_BOUND ( 'NONE', #216, .T. ) ;
#703 = ORIENTED_EDGE ( 'NONE', *, *, #699, .T. ) ;
#704 = ADVANCED_FACE ( 'NONE', ( #243 ), #179, .F. ) ;
#705 = DIRECTION ( 'NONE',  ( 1.000000000000000000, 1.403346572087807793E-15, 0.000000000000000000 ) ) ;
#706 = VERTEX_POINT ( 'NONE', #78 ) ;
#707 = AXIS2_PLACEMENT_3D ( 'NONE', #547, #493, #499 ) ;
ENDSEC;
END-ISO-10303-21;
