ISO-10303-21;
HEADER;
FILE_DESCRIPTION (( 'STEP AP203' ),
    '1' );
FILE_NAME ('8982K112_Multipurpose 6061 Aluminum 90 Degree Angle 8.15_8982K112_sldprt.STEP',
    '2025-03-08T04:50:18',
    ( '' ),
    ( '' ),
    'SwSTEP 2.0',
    'SolidWorks 2024',
    '' );
FILE_SCHEMA (( 'CONFIG_CONTROL_DESIGN' ));
ENDSEC;

DATA;
#1 = CARTESIAN_POINT ( 'NONE',  ( -0.1342562790442833331, -0.2057586774349479120, 6.979059685528309132 ) ) ;
#2 = DIRECTION ( 'NONE',  ( -1.000000000000000000, 0.000000000000000000, 0.000000000000000000 ) ) ;
#3 = DIRECTION ( 'NONE',  ( 0.000000000000000000, 0.000000000000000000, 1.000000000000000000 ) ) ;
#4 = EDGE_CURVE ( 'NONE', #69, #663, #833, .T. ) ;
#5 = ORIENTED_EDGE ( 'NONE', *, *, #49, .T. ) ;
#6 = CARTESIAN_POINT ( 'NONE',  ( 0.2092956013822116212, 0.2942413225650508668, -6.972697449670985925 ) ) ;
#7 = DIRECTION ( 'NONE',  ( -0.5000000000000043299, 0.000000000000000000, -0.8660254037844360431 ) ) ;
#8 = FACE_OUTER_BOUND ( 'NONE', #687, .T. ) ;
#9 = PERSON_AND_ORGANIZATION ( #76, #749 ) ;
#10 = ORIENTED_EDGE ( 'NONE', *, *, #302, .T. ) ;
#11 = DIRECTION ( 'NONE',  ( 0.000000000000000000, 0.000000000000000000, 1.000000000000000000 ) ) ;
#12 = LINE ( 'NONE', #275, #423 ) ;
#13 = CYLINDRICAL_SURFACE ( 'NONE', #242, 0.06249999999999967387 ) ;
#14 = ORIENTED_EDGE ( 'NONE', *, *, #27, .F. ) ;
#15 = AXIS2_PLACEMENT_3D ( 'NONE', #26, #753, #91 ) ;
#16 = FACE_OUTER_BOUND ( 'NONE', #249, .T. ) ;
#17 = AXIS2_PLACEMENT_3D ( 'NONE', #517, #366, #624 ) ;
#18 = EDGE_CURVE ( 'NONE', #717, #185, #700, .T. ) ;
#19 = DIRECTION ( 'NONE',  ( 0.000000000000000000, 1.000000000000000000, 0.000000000000000000 ) ) ;
#20 = DIRECTION ( 'NONE',  ( -0.000000000000000000, 1.000000000000000000, -0.000000000000000000 ) ) ;
#21 = EDGE_LOOP ( 'NONE', ( #478, #426 ) ) ;
#22 = CARTESIAN_POINT ( 'NONE',  ( -0.1317845054899370039, -0.2057586774349479120, -7.174642161847112121 ) ) ;
#23 = ADVANCED_FACE ( 'NONE', ( #373, #693, #385, #238, #320 ), #301, .F. ) ;
#24 = CARTESIAN_POINT ( 'NONE',  ( -0.03970439861778810725, 0.04324132256505124755, -6.972697449670985925 ) ) ;
#25 = VERTEX_POINT ( 'NONE', #178 ) ;
#26 = CARTESIAN_POINT ( 'NONE',  ( 0.2092956013822116212, -0.2057586774349479120, 9.550002550329015349 ) ) ;
#27 = EDGE_CURVE ( 'NONE', #119, #537, #259, .T. ) ;
#28 = DIRECTION ( 'NONE',  ( 0.000000000000000000, 1.000000000000000000, 0.000000000000000000 ) ) ;
#29 = AXIS2_PLACEMENT_3D ( 'NONE', #391, #194, #503 ) ;
#30 = AXIS2_PLACEMENT_3D ( 'NONE', #819, #239, #235 ) ;
#31 = AXIS2_PLACEMENT_3D ( 'NONE', #418, #488, #427 ) ;
#32 = ORIENTED_EDGE ( 'NONE', *, *, #334, .F. ) ;
#33 = ADVANCED_FACE ( 'NONE', ( #111 ), #498, .F. ) ;
#34 = DIRECTION ( 'NONE',  ( -0.000000000000000000, 1.000000000000000000, -0.000000000000000000 ) ) ;
#35 = ORIENTED_EDGE ( 'NONE', *, *, #616, .T. ) ;
#36 = AXIS2_PLACEMENT_3D ( 'NONE', #584, #281, #841 ) ;
#37 = EDGE_LOOP ( 'NONE', ( #451, #377 ) ) ;
#38 = CARTESIAN_POINT ( 'NONE',  ( 0.2092956013822116212, -0.07975867743494791107, 9.550002550329015349 ) ) ;
#39 = PRODUCT_DEFINITION_SHAPE ( 'NONE', 'NONE',  #372 ) ;
#40 = ORIENTED_EDGE ( 'NONE', *, *, #196, .F. ) ;
#41 = DIRECTION ( 'NONE',  ( -0.000000000000000000, 1.000000000000000000, -0.000000000000000000 ) ) ;
#42 = CARTESIAN_POINT ( 'NONE',  ( -0.02398816497228234423, -0.07975867743494791107, 9.550002550329015349 ) ) ;
#43 = EDGE_CURVE ( 'NONE', #257, #734, #491, .T. ) ;
#44 = DIRECTION ( 'NONE',  ( 1.449256230060611432E-15, -1.000000000000000000, 0.000000000000000000 ) ) ;
#45 = VERTEX_POINT ( 'NONE', #770 ) ;
#46 = CARTESIAN_POINT ( 'NONE',  ( -0.1317845054899369761, -0.2057586774349479120, 8.474738941489093236 ) ) ;
#47 = PERSON_AND_ORGANIZATION ( #76, #749 ) ;
#48 = CIRCLE ( 'NONE', #603, 0.07299999999999992606 ) ;
#49 = EDGE_CURVE ( 'NONE', #555, #742, #746, .T. ) ;
#50 = LINE ( 'NONE', #704, #460 ) ;
#51 = ORIENTED_EDGE ( 'NONE', *, *, #294, .F. ) ;
#52 = ORIENTED_EDGE ( 'NONE', *, *, #788, .T. ) ;
#53 = DIRECTION ( 'NONE',  ( 1.000000000000000000, 0.000000000000000000, 0.000000000000000000 ) ) ;
#54 = DATE_AND_TIME ( #202, #703 ) ;
#55 = FACE_OUTER_BOUND ( 'NONE', #354, .T. ) ;
#56 = VERTEX_POINT ( 'NONE', #381 ) ;
#57 = ORIENTED_EDGE ( 'NONE', *, *, #350, .F. ) ;
#58 = ORIENTED_EDGE ( 'NONE', *, *, #771, .T. ) ;
#59 = APPROVAL_STATUS ( 'not_yet_approved' ) ;
#60 = DIRECTION ( 'NONE',  ( 0.000000000000000000, 0.000000000000000000, 1.000000000000000000 ) ) ;
#61 = ORIENTED_EDGE ( 'NONE', *, *, #196, .T. ) ;
#62 = CARTESIAN_POINT ( 'NONE',  ( 0.2092956013822116212, -0.07975867743494798046, -8.249997449670985361 ) ) ;
#63 = CARTESIAN_POINT ( 'NONE',  ( -0.1342719913941931020, -0.2057586774349479120, -5.751962936023923056 ) ) ;
#64 = ADVANCED_FACE ( 'NONE', ( #514 ), #777, .T. ) ;
#65 = CARTESIAN_POINT ( 'NONE',  ( -0.1317845054899370039, -0.2057586774349479120, -7.174642161847112121 ) ) ;
#66 = APPROVAL_ROLE ( '' ) ;
#67 = VECTOR ( 'NONE', #149, 39.37007874015748143 ) ;
#68 = VECTOR ( 'NONE', #677, 39.37007874015748143 ) ;
#69 = VERTEX_POINT ( 'NONE', #46 ) ;
#70 = CARTESIAN_POINT ( 'NONE',  ( -0.1317845054899370039, -0.08075867743494816176, 8.620738941489094032 ) ) ;
#71 = LINE ( 'NONE', #664, #326 ) ;
#72 = DIRECTION ( 'NONE',  ( 0.8660254037844336006, 0.000000000000000000, 0.5000000000000088818 ) ) ;
#73 =( CONVERSION_BASED_UNIT ( 'INCH', #195 ) LENGTH_UNIT ( ) NAMED_UNIT ( #805 ) );
#74 = ORIENTED_EDGE ( 'NONE', *, *, #425, .F. ) ;
#75 = DIRECTION ( 'NONE',  ( 0.000000000000000000, 1.000000000000000000, 0.000000000000000000 ) ) ;
#76 = PERSON ( 'UNSPECIFIED', 'UNSPECIFIED', 'UNSPECIFIED', ('UNSPECIFIED'), ('UNSPECIFIED'), ('UNSPECIFIED') ) ;
#77 = LINE ( 'NONE', #783, #186 ) ;
#78 = FACE_OUTER_BOUND ( 'NONE', #363, .T. ) ;
#79 = VERTEX_POINT ( 'NONE', #829 ) ;
#80 = CARTESIAN_POINT ( 'NONE',  ( -0.1342719913941931298, -0.2057586774349479120, -5.678962936023923547 ) ) ;
#81 = DIRECTION ( 'NONE',  ( 0.000000000000000000, 1.000000000000000000, 0.000000000000000000 ) ) ;
#82 = CARTESIAN_POINT ( 'NONE',  ( -0.2907043986177885175, -0.1432586774349479675, 8.683977146544586745 ) ) ;
#83 = AXIS2_PLACEMENT_3D ( 'NONE', #327, #72, #411 ) ;
#84 = ORIENTED_EDGE ( 'NONE', *, *, #260, .F. ) ;
#85 = VECTOR ( 'NONE', #464, 39.37007874015748143 ) ;
#86 = DIRECTION ( 'NONE',  ( 1.449256230060611432E-15, -1.000000000000000000, 0.000000000000000000 ) ) ;
#87 = ADVANCED_FACE ( 'NONE', ( #430 ), #576, .F. ) ;
#88 = LOCAL_TIME ( 22, 50, 18.00000000000000000, #526 ) ;
#89 = CARTESIAN_POINT ( 'NONE',  ( -7.560580492299386890, -0.08075867743495891704, 5.207822713100020984 ) ) ;
#90 = ORIENTED_EDGE ( 'NONE', *, *, #240, .T. ) ;
#91 = DIRECTION ( 'NONE',  ( 0.000000000000000000, 0.000000000000000000, 1.000000000000000000 ) ) ;
#92 = EDGE_LOOP ( 'NONE', ( #764, #58 ) ) ;
#93 = ORIENTED_EDGE ( 'NONE', *, *, #236, .T. ) ;
#94 = CARTESIAN_POINT ( 'NONE',  ( 0.08429560138221199594, 0.2317413225650511721, 8.272702550329015025 ) ) ;
#95 = ORIENTED_EDGE ( 'NONE', *, *, #552, .F. ) ;
#96 = EDGE_CURVE ( 'NONE', #127, #56, #245, .T. ) ;
#97 = LINE ( 'NONE', #615, #545 ) ;
#98 = CIRCLE ( 'NONE', #794, 0.07299999999999992606 ) ;
#99 = AXIS2_PLACEMENT_3D ( 'NONE', #246, #414, #159 ) ;
#100 = ORIENTED_EDGE ( 'NONE', *, *, #240, .F. ) ;
#101 = EDGE_CURVE ( 'NONE', #473, #185, #129, .T. ) ;
#102 = ORIENTED_EDGE ( 'NONE', *, *, #561, .F. ) ;
#103 = EDGE_CURVE ( 'NONE', #717, #580, #638, .T. ) ;
#104 = CIRCLE ( 'NONE', #30, 0.06249999999999967387 ) ;
#105 = ORIENTED_EDGE ( 'NONE', *, *, #422, .T. ) ;
#106 = DIRECTION ( 'NONE',  ( 0.000000000000000000, 0.000000000000000000, 1.000000000000000000 ) ) ;
#107 = CC_DESIGN_PERSON_AND_ORGANIZATION_ASSIGNMENT ( #400, #328, ( #372 ) ) ;
#108 = DIRECTION ( 'NONE',  ( 1.449256230060611432E-15, -1.000000000000000000, 0.000000000000000000 ) ) ;
#109 = EDGE_CURVE ( 'NONE', #128, #791, #688, .T. ) ;
#110 = VERTEX_POINT ( 'NONE', #82 ) ;
#111 = FACE_OUTER_BOUND ( 'NONE', #405, .T. ) ;
#112 = DIRECTION ( 'NONE',  ( 0.000000000000000000, 1.000000000000000000, 0.000000000000000000 ) ) ;
#113 = FACE_BOUND ( 'NONE', #21, .T. ) ;
#114 = EDGE_LOOP ( 'NONE', ( #605, #300 ) ) ;
#115 = CARTESIAN_POINT ( 'NONE',  ( -0.03970439861778810725, 0.04324132256505124755, 8.272702550329015025 ) ) ;
#116 = ADVANCED_FACE ( 'NONE', ( #540 ), #13, .T. ) ;
#117 = DIRECTION ( 'NONE',  ( 1.000000000000000000, 0.000000000000000000, 0.000000000000000000 ) ) ;
#118 = LINE ( 'NONE', #574, #477 ) ;
#119 = VERTEX_POINT ( 'NONE', #347 ) ;
#120 = AXIS2_PLACEMENT_3D ( 'NONE', #1, #81, #458 ) ;
#121 = ORIENTED_EDGE ( 'NONE', *, *, #364, .T. ) ;
#122 = DIRECTION ( 'NONE',  ( 0.000000000000000000, 0.000000000000000000, 1.000000000000000000 ) ) ;
#123 = PERSON_AND_ORGANIZATION ( #76, #749 ) ;
#124 = VECTOR ( 'NONE', #492, 39.37007874015748143 ) ;
#125 =( GEOMETRIC_REPRESENTATION_CONTEXT ( 3 ) GLOBAL_UNCERTAINTY_ASSIGNED_CONTEXT ( ( #808 ) ) GLOBAL_UNIT_ASSIGNED_CONTEXT ( ( #73, #515, #721 ) ) REPRESENTATION_CONTEXT ( 'NONE', 'WORKASPACE' ) );
#126 = CARTESIAN_POINT ( 'NONE',  ( -0.02398816497228234423, -0.07975867743494791107, -6.972697449670985925 ) ) ;
#127 = VERTEX_POINT ( 'NONE', #736 ) ;
#128 = VERTEX_POINT ( 'NONE', #466 ) ;
#129 = LINE ( 'NONE', #698, #379 ) ;
#130 = COORDINATED_UNIVERSAL_TIME_OFFSET ( 6, 0, .BEHIND. ) ;
#131 = DIRECTION ( 'NONE',  ( -0.000000000000000000, 1.000000000000000000, -0.000000000000000000 ) ) ;
#132 = ORIENTED_EDGE ( 'NONE', *, *, #747, .T. ) ;
#133 = ADVANCED_FACE ( 'NONE', ( #145 ), #536, .F. ) ;
#134 = LINE ( 'NONE', #520, #230 ) ;
#135 = CARTESIAN_POINT ( 'NONE',  ( -0.1342562790442833331, -0.2057586774349479120, 6.979059685528309132 ) ) ;
#136 = EDGE_LOOP ( 'NONE', ( #589, #559, #480, #187 ) ) ;
#137 = CARTESIAN_POINT ( 'NONE',  ( 0.1467956013822116768, 0.2942413225650508668, 9.550002550329015349 ) ) ;
#138 =( BOUNDED_CURVE ( )  B_SPLINE_CURVE ( 3, ( #205, #726, #719, #713 ),
 .UNSPECIFIED., .F., .T. ) 
 B_SPLINE_CURVE_WITH_KNOTS ( ( 4, 4 ),
 ( 0.000000000000000000, 1.570796326794896558 ),
 .UNSPECIFIED. ) 
 CURVE ( )  GEOMETRIC_REPRESENTATION_ITEM ( )  RATIONAL_B_SPLINE_CURVE ( ( 1.000000000000000000, 0.8047378541243649375, 0.8047378541243649375, 1.000000000000000000 ) ) 
 REPRESENTATION_ITEM ( '' )  );
#139 = DIRECTION ( 'NONE',  ( 0.000000000000000000, 0.000000000000000000, 1.000000000000000000 ) ) ;
#140 = CARTESIAN_POINT ( 'NONE',  ( -0.2907043986177884620, -0.1066470250832666222, -7.383972045886566526 ) ) ;
#141 = CIRCLE ( 'NONE', #311, 0.06249999999999967387 ) ;
#142 = ORIENTED_EDGE ( 'NONE', *, *, #530, .F. ) ;
#143 = PLANE ( 'NONE',  #654 ) ;
#144 = LINE ( 'NONE', #591, #725 ) ;
#145 = FACE_OUTER_BOUND ( 'NONE', #641, .T. ) ;
#146 = ORIENTED_EDGE ( 'NONE', *, *, #319, .F. ) ;
#147 = FACE_OUTER_BOUND ( 'NONE', #438, .T. ) ;
#148 = CARTESIAN_POINT ( 'NONE',  ( -0.1317845054899369761, -0.08075867743494816176, -7.320642161847112028 ) ) ;
#149 = DIRECTION ( 'NONE',  ( -0.000000000000000000, -0.000000000000000000, -1.000000000000000000 ) ) ;
#150 = ORIENTED_EDGE ( 'NONE', *, *, #727, .F. ) ;
#151 = CARTESIAN_POINT ( 'NONE',  ( 0.2092956013822116212, -0.2057586774349479120, -8.249997449670985361 ) ) ;
#152 = CARTESIAN_POINT ( 'NONE',  ( -0.2282043986177888506, -0.08075867743494830053, -7.492225221359618104 ) ) ;
#153 = ORIENTED_EDGE ( 'NONE', *, *, #96, .F. ) ;
#154 = AXIS2_PLACEMENT_3D ( 'NONE', #660, #19, #139 ) ;
#155 = LINE ( 'NONE', #62, #669 ) ;
#156 = ORIENTED_EDGE ( 'NONE', *, *, #350, .T. ) ;
#157 = DIRECTION ( 'NONE',  ( -0.000000000000000000, 1.000000000000000000, -0.000000000000000000 ) ) ;
#158 = ORIENTED_EDGE ( 'NONE', *, *, #274, .F. ) ;
#159 = DIRECTION ( 'NONE',  ( 0.000000000000000000, 0.000000000000000000, 1.000000000000000000 ) ) ;
#160 = EDGE_CURVE ( 'NONE', #413, #551, #587, .T. ) ;
#161 = CC_DESIGN_DATE_AND_TIME_ASSIGNMENT ( #785, #392, ( #372 ) ) ;
#162 = CARTESIAN_POINT ( 'NONE',  ( -0.1317845054899370039, -0.2057586774349479120, 8.547738941489093634 ) ) ;
#163 =( BOUNDED_CURVE ( )  B_SPLINE_CURVE ( 3, ( #241, #304, #780, #640 ),
 .UNSPECIFIED., .F., .T. ) 
 B_SPLINE_CURVE_WITH_KNOTS ( ( 4, 4 ),
 ( 1.443710695006098721, 1.570796326794901443 ),
 .UNSPECIFIED. ) 
 CURVE ( )  GEOMETRIC_REPRESENTATION_ITEM ( )  RATIONAL_B_SPLINE_CURVE ( ( 1.000000000000000000, 0.9986545563144606508, 0.9986545563144606508, 1.000000000000000000 ) ) 
 REPRESENTATION_ITEM ( '' )  );
#164 = VECTOR ( 'NONE', #331, 39.37007874015748143 ) ;
#165 = EDGE_CURVE ( 'NONE', #663, #551, #296, .T. ) ;
#166 = EDGE_CURVE ( 'NONE', #127, #651, #521, .T. ) ;
#167 = CARTESIAN_POINT ( 'NONE',  ( -0.02398816497227541228, -0.07975867743494702289, 9.550002550329015349 ) ) ;
#168 = AXIS2_PLACEMENT_3D ( 'NONE', #135, #765, #182 ) ;
#169 = VECTOR ( 'NONE', #410, 39.37007874015748143 ) ;
#170 = LOCAL_TIME ( 22, 50, 18.00000000000000000, #694 ) ;
#171 = ORIENTED_EDGE ( 'NONE', *, *, #502, .F. ) ;
#172 = DIRECTION ( 'NONE',  ( -0.000000000000000000, -0.000000000000000000, -1.000000000000000000 ) ) ;
#173 = DIRECTION ( 'NONE',  ( 0.000000000000000000, 0.000000000000000000, 1.000000000000000000 ) ) ;
#174 = CARTESIAN_POINT ( 'NONE',  ( -0.1342562790442833331, -0.08075867743494816176, 6.906059685528308734 ) ) ;
#175 = VERTEX_POINT ( 'NONE', #416 ) ;
#176 = EDGE_CURVE ( 'NONE', #555, #583, #265, .T. ) ;
#177 = ORIENTED_EDGE ( 'NONE', *, *, #212, .T. ) ;
#178 = CARTESIAN_POINT ( 'NONE',  ( -0.02398816497228200423, -0.07975867743494791107, 9.145943214422009859 ) ) ;
#179 = APPLICATION_PROTOCOL_DEFINITION ( 'international standard', 'config_control_design', 1994, #729 ) ;
#180 = DIRECTION ( 'NONE',  ( 0.000000000000000000, 0.000000000000000000, 1.000000000000000000 ) ) ;
#181 = ORIENTED_EDGE ( 'NONE', *, *, #818, .F. ) ;
#182 = DIRECTION ( 'NONE',  ( 0.000000000000000000, 0.000000000000000000, 1.000000000000000000 ) ) ;
#183 = APPROVAL_STATUS ( 'not_yet_approved' ) ;
#184 = CARTESIAN_POINT ( 'NONE',  ( -0.2907043164223749865, -0.2057586774349479120, -7.383972188253199676 ) ) ;
#185 = VERTEX_POINT ( 'NONE', #784 ) ;
#186 = VECTOR ( 'NONE', #7, 39.37007874015748143 ) ;
#187 = ORIENTED_EDGE ( 'NONE', *, *, #382, .F. ) ;
#188 = CARTESIAN_POINT ( 'NONE',  ( 0.2092956013822116212, 0.2942413225650500341, 9.550002550329015349 ) ) ;
#189 = PERSON_AND_ORGANIZATION_ROLE ( 'classification_officer' ) ;
#190 = LOCAL_TIME ( 22, 50, 18.00000000000000000, #639 ) ;
#191 = CARTESIAN_POINT ( 'NONE',  ( -0.1317845054899370039, -0.2057586774349479120, -7.247642161847112519 ) ) ;
#192 = ORIENTED_EDGE ( 'NONE', *, *, #616, .F. ) ;
#193 = DIRECTION ( 'NONE',  ( -0.000000000000000000, 1.000000000000000000, -0.000000000000000000 ) ) ;
#194 = DIRECTION ( 'NONE',  ( 0.000000000000000000, 1.000000000000000000, 0.000000000000000000 ) ) ;
#195 = LENGTH_MEASURE_WITH_UNIT ( LENGTH_MEASURE( 0.02539999999999999897 ), #560 );
#196 = EDGE_CURVE ( 'NONE', #658, #223, #201, .T. ) ;
#197 = DIRECTION ( 'NONE',  ( 0.000000000000000000, 0.000000000000000000, 1.000000000000000000 ) ) ;
#198 = EDGE_LOOP ( 'NONE', ( #299, #142, #672, #625 ) ) ;
#199 = DIRECTION ( 'NONE',  ( 1.000000000000000000, 0.000000000000000000, -0.000000000000000000 ) ) ;
#200 = CARTESIAN_POINT ( 'NONE',  ( -0.2907043986177885175, -0.2057586774349479120, 9.550002550329015349 ) ) ;
#201 = LINE ( 'NONE', #471, #67 ) ;
#202 = CALENDAR_DATE ( 2025, 7, 3 ) ;
#203 = ORIENTED_EDGE ( 'NONE', *, *, #556, .F. ) ;
#204 = DIRECTION ( 'NONE',  ( 1.000000000000000000, 0.000000000000000000, -0.000000000000000000 ) ) ;
#205 = CARTESIAN_POINT ( 'NONE',  ( -0.2907043986177885175, -0.1432586774349479675, 8.683977146544586745 ) ) ;
#206 = CARTESIAN_POINT ( 'NONE',  ( 0.2092956013822116212, -0.07975867743494791107, -6.972697449670985925 ) ) ;
#207 = AXIS2_PLACEMENT_3D ( 'NONE', #787, #204, #457 ) ;
#208 = LOCAL_TIME ( 22, 50, 18.00000000000000000, #130 ) ;
#209 = EDGE_LOOP ( 'NONE', ( #156, #759 ) ) ;
#210 = DIRECTION ( 'NONE',  ( -1.311287036958847449E-14, -1.000000000000000000, 0.000000000000000000 ) ) ;
#211 = DIRECTION ( 'NONE',  ( 1.000000000000000000, 1.403346572087807793E-15, 0.000000000000000000 ) ) ;
#212 = EDGE_CURVE ( 'NONE', #791, #289, #247, .T. ) ;
#213 = DIRECTION ( 'NONE',  ( -1.000000000000000000, 0.000000000000000000, 0.000000000000000000 ) ) ;
#214 = VERTEX_POINT ( 'NONE', #720 ) ;
#215 = FACE_OUTER_BOUND ( 'NONE', #442, .T. ) ;
#216 = CARTESIAN_POINT ( 'NONE',  ( -0.1342719913941931298, -0.2057586774349479120, -5.678962936023923547 ) ) ;
#217 = FACE_OUTER_BOUND ( 'NONE', #837, .T. ) ;
#218 = ORIENTED_EDGE ( 'NONE', *, *, #165, .F. ) ;
#219 = LINE ( 'NONE', #6, #811 ) ;
#220 = DIRECTION ( 'NONE',  ( -1.000000000000000000, 0.000000000000000000, 0.000000000000000000 ) ) ;
#221 = VECTOR ( 'NONE', #287, 39.37007874015748143 ) ;
#222 = ADVANCED_FACE ( 'NONE', ( #8 ), #270, .F. ) ;
#223 = VERTEX_POINT ( 'NONE', #802 ) ;
#224 = AXIS2_PLACEMENT_3D ( 'NONE', #609, #308, #290 ) ;
#225 = CARTESIAN_POINT ( 'NONE',  ( -0.02398816497228169545, -0.07975867743494798046, -7.845938113763986088 ) ) ;
#226 = SECURITY_CLASSIFICATION ( '', '', #271 ) ;
#227 = CARTESIAN_POINT ( 'NONE',  ( 0.1467956013822116768, 0.2317413225650511721, -6.972697449670985925 ) ) ;
#228 = ORIENTED_EDGE ( 'NONE', *, *, #302, .F. ) ;
#229 = ADVANCED_FACE ( 'NONE', ( #217 ), #399, .T. ) ;
#230 = VECTOR ( 'NONE', #390, 39.37007874015748143 ) ;
#231 = APPROVAL_PERSON_ORGANIZATION ( #588, #295, #504 ) ;
#232 = EDGE_CURVE ( 'NONE', #495, #580, #723, .T. ) ;
#233 = ORIENTED_EDGE ( 'NONE', *, *, #621, .F. ) ;
#234 = CC_DESIGN_PERSON_AND_ORGANIZATION_ASSIGNMENT ( #9, #508, ( #637 ) ) ;
#235 = DIRECTION ( 'NONE',  ( 1.000000000000000000, 0.000000000000000000, 0.000000000000000000 ) ) ;
#236 = EDGE_CURVE ( 'NONE', #223, #791, #283, .T. ) ;
#237 = EDGE_LOOP ( 'NONE', ( #401, #681, #448, #192 ) ) ;
#238 = FACE_BOUND ( 'NONE', #114, .T. ) ;
#239 = DIRECTION ( 'NONE',  ( 0.000000000000000000, -0.000000000000000000, 1.000000000000000000 ) ) ;
#240 = EDGE_CURVE ( 'NONE', #56, #214, #806, .T. ) ;
#241 = CARTESIAN_POINT ( 'NONE',  ( -0.02398816497228169545, -0.07975867743494798046, -7.845938113763986088 ) ) ;
#242 = AXIS2_PLACEMENT_3D ( 'NONE', #408, #607, #213 ) ;
#243 = AXIS2_PLACEMENT_3D ( 'NONE', #370, #108, #450 ) ;
#244 = ORIENTED_EDGE ( 'NONE', *, *, #4, .T. ) ;
#245 = LINE ( 'NONE', #188, #792 ) ;
#246 = CARTESIAN_POINT ( 'NONE',  ( -0.1317845054899370039, -0.2057586774349479120, -7.247642161847112519 ) ) ;
#247 =( BOUNDED_CURVE ( )  B_SPLINE_CURVE ( 3, ( #152, #665, #140, #343 ),
 .UNSPECIFIED., .F., .T. ) 
 B_SPLINE_CURVE_WITH_KNOTS ( ( 4, 4 ),
 ( 1.570796326794896558, 3.141592653589793116 ),
 .UNSPECIFIED. ) 
 CURVE ( )  GEOMETRIC_REPRESENTATION_ITEM ( )  RATIONAL_B_SPLINE_CURVE ( ( 1.000000000000000000, 0.8047378541243649375, 0.8047378541243649375, 1.000000000000000000 ) ) 
 REPRESENTATION_ITEM ( '' )  );
#248 = FACE_OUTER_BOUND ( 'NONE', #339, .T. ) ;
#249 = EDGE_LOOP ( 'NONE', ( #228, #595, #518, #579 ) ) ;
#250 = EDGE_LOOP ( 'NONE', ( #254, #352, #776, #272 ) ) ;
#251 = ORIENTED_EDGE ( 'NONE', *, *, #482, .F. ) ;
#252 = CARTESIAN_POINT ( 'NONE',  ( 0.2092956013822116212, -0.07975867743494791107, 8.272702550329015025 ) ) ;
#253 = ORIENTED_EDGE ( 'NONE', *, *, #415, .F. ) ;
#254 = ORIENTED_EDGE ( 'NONE', *, *, #814, .T. ) ;
#255 = CARTESIAN_POINT ( 'NONE',  ( -0.1317845054899370039, -0.2057586774349479120, -7.247642161847112519 ) ) ;
#256 = CARTESIAN_POINT ( 'NONE',  ( -0.1317845054899370039, -0.2057586774349479120, 8.620738941489094032 ) ) ;
#257 = VERTEX_POINT ( 'NONE', #476 ) ;
#258 = CIRCLE ( 'NONE', #120, 0.07300000000000000933 ) ;
#259 = LINE ( 'NONE', #445, #342 ) ;
#260 = EDGE_CURVE ( 'NONE', #734, #473, #461, .T. ) ;
#261 = PLANE ( 'NONE',  #17 ) ;
#262 = ORIENTED_EDGE ( 'NONE', *, *, #232, .F. ) ;
#263 = PLANE ( 'NONE',  #553 ) ;
#264 = CC_DESIGN_DATE_AND_TIME_ASSIGNMENT ( #632, #766, ( #226 ) ) ;
#265 = LINE ( 'NONE', #65, #772 ) ;
#266 = ADVANCED_FACE ( 'NONE', ( #78 ), #338, .F. ) ;
#267 = VERTEX_POINT ( 'NONE', #148 ) ;
#268 = CARTESIAN_POINT ( 'NONE',  ( -0.1342562790442833331, -0.2057586774349479120, 7.052059685528308641 ) ) ;
#269 = CARTESIAN_POINT ( 'NONE',  ( -0.1317845054899370039, -0.2057586774349479120, 8.547738941489093634 ) ) ;
#270 = CYLINDRICAL_SURFACE ( 'NONE', #511, 0.07300000000000000933 ) ;
#271 = SECURITY_CLASSIFICATION_LEVEL ( 'unclassified' ) ;
#272 = ORIENTED_EDGE ( 'NONE', *, *, #610, .T. ) ;
#273 = CARTESIAN_POINT ( 'NONE',  ( -0.03970439861778810725, -0.08075867743494802298, 9.550002550329015349 ) ) ;
#274 = EDGE_CURVE ( 'NONE', #551, #663, #544, .T. ) ;
#275 = CARTESIAN_POINT ( 'NONE',  ( 0.2092956013822116212, -0.2057586774349479120, 9.550002550329015349 ) ) ;
#276 = DIRECTION ( 'NONE',  ( -0.000000000000000000, -1.000000000000000000, -0.000000000000000000 ) ) ;
#277 = VECTOR ( 'NONE', #707, 39.37007874015748143 ) ;
#278 = VECTOR ( 'NONE', #827, 39.37007874015748143 ) ;
#279 = VECTOR ( 'NONE', #481, 39.37007874015748143 ) ;
#280 = ORIENTED_EDGE ( 'NONE', *, *, #236, .F. ) ;
#281 = DIRECTION ( 'NONE',  ( 1.449256230060611432E-15, -1.000000000000000000, 0.000000000000000000 ) ) ;
#282 = CARTESIAN_POINT ( 'NONE',  ( -0.1342719913941931020, -0.2057586774349479120, -5.751962936023923056 ) ) ;
#283 = LINE ( 'NONE', #89, #221 ) ;
#284 = SHAPE_DEFINITION_REPRESENTATION ( #39, #750 ) ;
#285 = ORIENTED_EDGE ( 'NONE', *, *, #288, .T. ) ;
#286 = CARTESIAN_POINT ( 'NONE',  ( -0.1317845054899370039, -0.08075867743494816176, -7.174642161847112121 ) ) ;
#287 = DIRECTION ( 'NONE',  ( -0.5000000000000088818, -7.246281150303186335E-16, 0.8660254037844336006 ) ) ;
#288 = EDGE_CURVE ( 'NONE', #360, #506, #586, .T. ) ;
#289 = VERTEX_POINT ( 'NONE', #801 ) ;
#290 = DIRECTION ( 'NONE',  ( 0.000000000000000000, 0.000000000000000000, 1.000000000000000000 ) ) ;
#291 = VECTOR ( 'NONE', #661, 39.37007874015748143 ) ;
#292 = CIRCLE ( 'NONE', #412, 0.07300000000000000933 ) ;
#293 = FACE_OUTER_BOUND ( 'NONE', #348, .T. ) ;
#294 = EDGE_CURVE ( 'NONE', #257, #456, #12, .T. ) ;
#295 = APPROVAL ( #59, 'UNSPECIFIED' ) ;
#296 = CIRCLE ( 'NONE', #396, 0.07299999999999992606 ) ;
#297 = AXIS2_PLACEMENT_3D ( 'NONE', #659, #75, #11 ) ;
#298 = ORIENTED_EDGE ( 'NONE', *, *, #355, .F. ) ;
#299 = ORIENTED_EDGE ( 'NONE', *, *, #552, .T. ) ;
#300 = ORIENTED_EDGE ( 'NONE', *, *, #397, .T. ) ;
#301 = PLANE ( 'NONE',  #29 ) ;
#302 = EDGE_CURVE ( 'NONE', #697, #486, #407, .T. ) ;
#303 = CARTESIAN_POINT ( 'NONE',  ( 0.08429560138221157961, 0.04324132256505124755, 8.272702550329015025 ) ) ;
#304 = CARTESIAN_POINT ( 'NONE',  ( -0.02920218535008546265, -0.08042489501616727210, -7.836907165557932764 ) ) ;
#305 = ORIENTED_EDGE ( 'NONE', *, *, #212, .F. ) ;
#306 = ORIENTED_EDGE ( 'NONE', *, *, #779, .F. ) ;
#307 = ORIENTED_EDGE ( 'NONE', *, *, #434, .T. ) ;
#308 = DIRECTION ( 'NONE',  ( -0.000000000000000000, 1.000000000000000000, -0.000000000000000000 ) ) ;
#309 = CYLINDRICAL_SURFACE ( 'NONE', #344, 0.07300000000000000933 ) ;
#310 = ORIENTED_EDGE ( 'NONE', *, *, #556, .T. ) ;
#311 = AXIS2_PLACEMENT_3D ( 'NONE', #227, #825, #673 ) ;
#312 = ORIENTED_EDGE ( 'NONE', *, *, #727, .T. ) ;
#313 = LINE ( 'NONE', #437, #585 ) ;
#314 = ORIENTED_EDGE ( 'NONE', *, *, #319, .T. ) ;
#315 = EDGE_CURVE ( 'NONE', #110, #128, #138, .T. ) ;
#316 = CARTESIAN_POINT ( 'NONE',  ( 0.2092956013822116212, -0.2057586774349479120, 9.550002550329015349 ) ) ;
#317 = CARTESIAN_POINT ( 'NONE',  ( 0.1470456013822106223, -0.08075867743494774542, 9.442182387557853218 ) ) ;
#318 = ORIENTED_EDGE ( 'NONE', *, *, #166, .T. ) ;
#319 = EDGE_CURVE ( 'NONE', #580, #367, #71, .T. ) ;
#320 = FACE_OUTER_BOUND ( 'NONE', #558, .T. ) ;
#321 = APPROVAL_DATE_TIME ( #778, #295 ) ;
#322 = DIRECTION ( 'NONE',  ( 1.000000000000000000, 0.000000000000000000, -0.000000000000000000 ) ) ;
#323 = VERTEX_POINT ( 'NONE', #395 ) ;
#324 = DIRECTION ( 'NONE',  ( -0.5000000000000088818, 4.630567920204330879E-17, 0.8660254037844336006 ) ) ;
#325 = DIRECTION ( 'NONE',  ( 0.000000000000000000, 1.000000000000000000, 0.000000000000000000 ) ) ;
#326 = VECTOR ( 'NONE', #325, 39.37007874015748143 ) ;
#327 = CARTESIAN_POINT ( 'NONE',  ( 0.2092956013822116212, -0.2057586774349479120, -8.249997449670985361 ) ) ;
#328 = PERSON_AND_ORGANIZATION_ROLE ( 'creator' ) ;
#329 = EDGE_LOOP ( 'NONE', ( #840, #52 ) ) ;
#330 = LINE ( 'NONE', #268, #85 ) ;
#331 = DIRECTION ( 'NONE',  ( -0.000000000000000000, 1.000000000000000000, -0.000000000000000000 ) ) ;
#332 = CARTESIAN_POINT ( 'NONE',  ( -0.1317845054899370039, -0.2057586774349479120, 8.620738941489094032 ) ) ;
#333 = APPROVAL_STATUS ( 'not_yet_approved' ) ;
#334 = EDGE_CURVE ( 'NONE', #473, #127, #144, .T. ) ;
#335 = ORIENTED_EDGE ( 'NONE', *, *, #389, .F. ) ;
#336 = FACE_OUTER_BOUND ( 'NONE', #198, .T. ) ;
#337 = DIRECTION ( 'NONE',  ( 1.000000000000000000, 1.403346572087807793E-15, 0.000000000000000000 ) ) ;
#338 = CYLINDRICAL_SURFACE ( 'NONE', #356, 0.07300000000000000933 ) ;
#339 = EDGE_LOOP ( 'NONE', ( #692, #706, #490, #345, #769, #318 ) ) ;
#340 = FACE_OUTER_BOUND ( 'NONE', #384, .T. ) ;
#341 = CARTESIAN_POINT ( 'NONE',  ( -0.2907043986177885175, -0.1432586774349479675, 9.550002550329015349 ) ) ;
#342 = VECTOR ( 'NONE', #41, 39.37007874015748143 ) ;
#343 = CARTESIAN_POINT ( 'NONE',  ( -0.2907043986177885175, -0.1432586774349479675, -7.383972188253199676 ) ) ;
#344 = AXIS2_PLACEMENT_3D ( 'NONE', #376, #831, #180 ) ;
#345 = ORIENTED_EDGE ( 'NONE', *, *, #101, .F. ) ;
#346 = CARTESIAN_POINT ( 'NONE',  ( -0.1317845054899370039, -0.08075867743494816176, -7.247642161847112519 ) ) ;
#347 = CARTESIAN_POINT ( 'NONE',  ( -0.1342562790442833331, -0.2057586774349479120, 6.906059685528308734 ) ) ;
#348 = EDGE_LOOP ( 'NONE', ( #696, #575, #799, #570 ) ) ;
#349 = CYLINDRICAL_SURFACE ( 'NONE', #224, 0.07300000000000000933 ) ;
#350 = EDGE_CURVE ( 'NONE', #682, #119, #258, .T. ) ;
#351 = APPROVAL_DATE_TIME ( #386, #613 ) ;
#352 = ORIENTED_EDGE ( 'NONE', *, *, #434, .F. ) ;
#353 = PLANE ( 'NONE',  #15 ) ;
#354 = EDGE_LOOP ( 'NONE', ( #14, #57, #35, #233 ) ) ;
#355 = EDGE_CURVE ( 'NONE', #608, #360, #429, .T. ) ;
#356 = AXIS2_PLACEMENT_3D ( 'NONE', #598, #193, #470 ) ;
#357 = CARTESIAN_POINT ( 'NONE',  ( 0.1467956013822116768, 0.2942413225650508668, -6.972697449670985925 ) ) ;
#358 = VECTOR ( 'NONE', #106, 39.37007874015748143 ) ;
#359 = EDGE_CURVE ( 'NONE', #214, #175, #134, .T. ) ;
#360 = VERTEX_POINT ( 'NONE', #63 ) ;
#361 = AXIS2_PLACEMENT_3D ( 'NONE', #671, #656, #604 ) ;
#362 = AXIS2_PLACEMENT_3D ( 'NONE', #793, #596, #738 ) ;
#363 = EDGE_LOOP ( 'NONE', ( #836, #393, #468, #218 ) ) ;
#364 = EDGE_CURVE ( 'NONE', #257, #697, #77, .T. ) ;
#365 = EDGE_LOOP ( 'NONE', ( #528, #298, #675, #642 ) ) ;
#366 = DIRECTION ( 'NONE',  ( 0.000000000000000000, 1.000000000000000000, -5.346919270461662161E-17 ) ) ;
#367 = VERTEX_POINT ( 'NONE', #531 ) ;
#368 = CARTESIAN_POINT ( 'NONE',  ( -0.2282043986177888506, -0.08075867743494830053, 9.550002550329015349 ) ) ;
#369 = DIRECTION ( 'NONE',  ( -0.000000000000000000, 1.000000000000000000, -0.000000000000000000 ) ) ;
#370 = CARTESIAN_POINT ( 'NONE',  ( -0.1342719913941931298, -0.08075867743494816176, -5.678962936023923547 ) ) ;
#371 = ORIENTED_EDGE ( 'NONE', *, *, #679, .F. ) ;
#372 = PRODUCT_DEFINITION ( 'UNKNOWN', '', #637, #546 ) ;
#373 = FACE_BOUND ( 'NONE', #522, .T. ) ;
#374 = PERSON_AND_ORGANIZATION ( #76, #749 ) ;
#375 = EDGE_CURVE ( 'NONE', #413, #69, #748, .T. ) ;
#376 = CARTESIAN_POINT ( 'NONE',  ( -0.1342562790442833331, -0.2057586774349479120, 6.979059685528309132 ) ) ;
#377 = ORIENTED_EDGE ( 'NONE', *, *, #382, .T. ) ;
#378 = CLOSED_SHELL ( 'NONE', ( #222, #701, #87, #674, #686, #601, #116, #647, #33, #594, #133, #627, #23, #547, #229, #64, #516, #467, #807, #472, #453, #266, #754 ) ) ;
#379 = VECTOR ( 'NONE', #649, 39.37007874015748143 ) ;
#380 = CIRCLE ( 'NONE', #297, 0.07300000000000000933 ) ;
#381 = CARTESIAN_POINT ( 'NONE',  ( 0.2092956013822116212, 0.2942413225650508668, -6.972697449670985925 ) ) ;
#382 = EDGE_CURVE ( 'NONE', #267, #583, #48, .T. ) ;
#383 = LINE ( 'NONE', #317, #278 ) ;
#384 = EDGE_LOOP ( 'NONE', ( #541, #102, #171, #680, #181, #636, #527 ) ) ;
#385 = FACE_BOUND ( 'NONE', #209, .T. ) ;
#386 = DATE_AND_TIME ( #699, #208 ) ;
#387 = FACE_OUTER_BOUND ( 'NONE', #365, .T. ) ;
#388 = ORIENTED_EDGE ( 'NONE', *, *, #103, .T. ) ;
#389 = EDGE_CURVE ( 'NONE', #110, #289, #732, .T. ) ;
#390 = DIRECTION ( 'NONE',  ( -0.000000000000000000, -5.346919270461662161E-17, -1.000000000000000000 ) ) ;
#391 = CARTESIAN_POINT ( 'NONE',  ( -0.2907043986177885175, -0.2057586774349479120, 9.550002550329015349 ) ) ;
#392 = DATE_TIME_ROLE ( 'creation_date' ) ;
#393 = ORIENTED_EDGE ( 'NONE', *, *, #375, .F. ) ;
#394 = LINE ( 'NONE', #151, #169 ) ;
#395 = CARTESIAN_POINT ( 'NONE',  ( -0.1342719913941931298, -0.08075867743494816176, -5.605962936023923149 ) ) ;
#396 = AXIS2_PLACEMENT_3D ( 'NONE', #533, #741, #798 ) ;
#397 = EDGE_CURVE ( 'NONE', #360, #608, #292, .T. ) ;
#398 = AXIS2_PLACEMENT_3D ( 'NONE', #80, #600, #800 ) ;
#399 = CYLINDRICAL_SURFACE ( 'NONE', #361, 0.06249999999999967387 ) ;
#400 = PERSON_AND_ORGANIZATION ( #76, #749 ) ;
#401 = ORIENTED_EDGE ( 'NONE', *, *, #662, .F. ) ;
#402 = CARTESIAN_POINT ( 'NONE',  ( -0.03970439861778810725, -0.08075867743494802298, 9.118721899244372153 ) ) ;
#403 = DIRECTION ( 'NONE',  ( -0.000000000000000000, -0.000000000000000000, -1.000000000000000000 ) ) ;
#404 = CARTESIAN_POINT ( 'NONE',  ( -0.1317845054899370039, -0.2057586774349479120, -7.247642161847112519 ) ) ;
#405 = EDGE_LOOP ( 'NONE', ( #711, #786, #40, #832, #803, #622, #388, #262 ) ) ;
#406 = CYLINDRICAL_SURFACE ( 'NONE', #398, 0.07300000000000000933 ) ;
#407 = LINE ( 'NONE', #200, #773 ) ;
#408 = CARTESIAN_POINT ( 'NONE',  ( 0.1467956013822116768, 0.2317413225650511721, 9.550002550329015349 ) ) ;
#409 = ORIENTED_EDGE ( 'NONE', *, *, #165, .T. ) ;
#410 = DIRECTION ( 'NONE',  ( -0.000000000000000000, 1.000000000000000000, -0.000000000000000000 ) ) ;
#411 = DIRECTION ( 'NONE',  ( 0.5000000000000088818, 0.000000000000000000, -0.8660254037844336006 ) ) ;
#412 = AXIS2_PLACEMENT_3D ( 'NONE', #216, #578, #197 ) ;
#413 = VERTEX_POINT ( 'NONE', #256 ) ;
#414 = DIRECTION ( 'NONE',  ( -0.000000000000000000, 1.000000000000000000, -0.000000000000000000 ) ) ;
#415 = EDGE_CURVE ( 'NONE', #737, #223, #163, .T. ) ;
#416 = CARTESIAN_POINT ( 'NONE',  ( 0.2092956013822116212, -0.07975867743494798046, -8.249997449670985361 ) ) ;
#417 = EDGE_LOOP ( 'NONE', ( #534, #409 ) ) ;
#418 = CARTESIAN_POINT ( 'NONE',  ( -0.1342719913941931298, -0.08075867743494816176, -5.678962936023923547 ) ) ;
#419 = EDGE_CURVE ( 'NONE', #45, #367, #313, .T. ) ;
#420 = FACE_BOUND ( 'NONE', #92, .T. ) ;
#421 = LINE ( 'NONE', #38, #68 ) ;
#422 = EDGE_CURVE ( 'NONE', #742, #267, #509, .T. ) ;
#423 = VECTOR ( 'NONE', #465, 39.37007874015748143 ) ;
#424 = CC_DESIGN_PERSON_AND_ORGANIZATION_ASSIGNMENT ( #834, #643, ( #435 ) ) ;
#425 = EDGE_CURVE ( 'NONE', #323, #506, #532, .T. ) ;
#426 = ORIENTED_EDGE ( 'NONE', *, *, #621, .T. ) ;
#427 = DIRECTION ( 'NONE',  ( 1.000000000000000000, 1.403346572087807793E-15, 0.000000000000000000 ) ) ;
#428 = AXIS2_PLACEMENT_3D ( 'NONE', #824, #631, #507 ) ;
#429 = CIRCLE ( 'NONE', #154, 0.07300000000000000933 ) ;
#430 = FACE_OUTER_BOUND ( 'NONE', #237, .T. ) ;
#431 = CYLINDRICAL_SURFACE ( 'NONE', #99, 0.07300000000000000933 ) ;
#432 = FACE_BOUND ( 'NONE', #37, .T. ) ;
#433 = EDGE_LOOP ( 'NONE', ( #501, #244, #158, #475 ) ) ;
#434 = EDGE_CURVE ( 'NONE', #214, #495, #118, .T. ) ;
#435 = PRODUCT ( '8982K112_Multipurpose 6061 Aluminum 90 Degree Angle 8.15_8982K112_sldprt', '8982K112_Multipurpose 6061 Aluminum 90 Degree Angle 8.15_8982K112_sldprt', '', ( #650 ) ) ;
#436 = DIRECTION ( 'NONE',  ( -0.000000000000000000, -0.000000000000000000, -1.000000000000000000 ) ) ;
#437 = CARTESIAN_POINT ( 'NONE',  ( 0.08429560138221199594, 0.2317413225650511721, 9.550002550329015349 ) ) ;
#438 = EDGE_LOOP ( 'NONE', ( #510, #285, #74, #371 ) ) ;
#439 = EDGE_CURVE ( 'NONE', #79, #537, #614, .T. ) ;
#440 = APPROVAL_ROLE ( '' ) ;
#441 = CARTESIAN_POINT ( 'NONE',  ( -0.1317845054899369761, -0.2057586774349479120, -7.320642161847112028 ) ) ;
#442 = EDGE_LOOP ( 'NONE', ( #538, #760, #61, #93 ) ) ;
#443 = VECTOR ( 'NONE', #157, 39.37007874015748143 ) ;
#444 = VECTOR ( 'NONE', #758, 39.37007874015748143 ) ;
#445 = CARTESIAN_POINT ( 'NONE',  ( -0.1342562790442833331, -0.2057586774349479120, 6.906059685528308734 ) ) ;
#446 = CALENDAR_DATE ( 2025, 7, 3 ) ;
#447 = CARTESIAN_POINT ( 'NONE',  ( -0.1342719913941931020, -0.08075867743494816176, -5.751962936023923056 ) ) ;
#448 = ORIENTED_EDGE ( 'NONE', *, *, #439, .F. ) ;
#449 = DIRECTION ( 'NONE',  ( -0.000000000000000000, 1.000000000000000000, -0.000000000000000000 ) ) ;
#450 = DIRECTION ( 'NONE',  ( 1.000000000000000000, 1.403346572087807793E-15, 0.000000000000000000 ) ) ;
#451 = ORIENTED_EDGE ( 'NONE', *, *, #567, .T. ) ;
#452 = DIRECTION ( 'NONE',  ( -0.000000000000000000, 0.000000000000000000, -1.000000000000000000 ) ) ;
#453 = ADVANCED_FACE ( 'NONE', ( #55 ), #309, .F. ) ;
#454 = DIRECTION ( 'NONE',  ( 0.000000000000000000, 1.000000000000000000, 0.000000000000000000 ) ) ;
#455 = PERSON_AND_ORGANIZATION ( #76, #749 ) ;
#456 = VERTEX_POINT ( 'NONE', #775 ) ;
#457 = DIRECTION ( 'NONE',  ( -0.000000000000000000, 0.000000000000000000, -1.000000000000000000 ) ) ;
#458 = DIRECTION ( 'NONE',  ( 0.000000000000000000, 0.000000000000000000, 1.000000000000000000 ) ) ;
#459 = AXIS2_PLACEMENT_3D ( 'NONE', #255, #565, #122 ) ;
#460 = VECTOR ( 'NONE', #569, 39.37007874015748854 ) ;
#461 = LINE ( 'NONE', #728, #291 ) ;
#462 = VECTOR ( 'NONE', #756, 39.37007874015748143 ) ;
#463 = EDGE_LOOP ( 'NONE', ( #150, #705, #572, #752 ) ) ;
#464 = DIRECTION ( 'NONE',  ( -0.000000000000000000, 1.000000000000000000, -0.000000000000000000 ) ) ;
#465 = DIRECTION ( 'NONE',  ( -0.000000000000000000, -0.000000000000000000, -1.000000000000000000 ) ) ;
#466 = CARTESIAN_POINT ( 'NONE',  ( -0.2282043986177888506, -0.08075867743494830053, 8.792230322017639210 ) ) ;
#467 = ADVANCED_FACE ( 'NONE', ( #248 ), #644, .T. ) ;
#468 = ORIENTED_EDGE ( 'NONE', *, *, #160, .T. ) ;
#469 = PLANE ( 'NONE',  #493 ) ;
#470 = DIRECTION ( 'NONE',  ( 0.000000000000000000, 0.000000000000000000, 1.000000000000000000 ) ) ;
#471 = CARTESIAN_POINT ( 'NONE',  ( -0.03970439861778807950, -0.08075867743494842543, 9.550002550329015349 ) ) ;
#472 = ADVANCED_FACE ( 'NONE', ( #387 ), #763, .F. ) ;
#473 = VERTEX_POINT ( 'NONE', #252 ) ;
#474 = DIRECTION ( 'NONE',  ( 1.449256230060611235E-15, -1.000000000000000000, 0.000000000000000000 ) ) ;
#475 = ORIENTED_EDGE ( 'NONE', *, *, #160, .F. ) ;
#476 = CARTESIAN_POINT ( 'NONE',  ( 0.2092956013822116212, -0.2057586774349479120, 9.550002550329015349 ) ) ;
#477 = VECTOR ( 'NONE', #505, 39.37007874015748143 ) ;
#478 = ORIENTED_EDGE ( 'NONE', *, *, #439, .T. ) ;
#479 = LINE ( 'NONE', #42, #279 ) ;
#480 = ORIENTED_EDGE ( 'NONE', *, *, #176, .T. ) ;
#481 = DIRECTION ( 'NONE',  ( 0.000000000000000000, 0.000000000000000000, 1.000000000000000000 ) ) ;
#482 = EDGE_CURVE ( 'NONE', #742, #555, #740, .T. ) ;
#483 = EDGE_LOOP ( 'NONE', ( #563, #100, #153, #32, #84, #809, #497, #310 ) ) ;
#484 = VECTOR ( 'NONE', #449, 39.37007874015748143 ) ;
#485 = VECTOR ( 'NONE', #602, 39.37007874015748143 ) ;
#486 = VERTEX_POINT ( 'NONE', #184 ) ;
#487 = ORIENTED_EDGE ( 'NONE', *, *, #419, .T. ) ;
#488 = DIRECTION ( 'NONE',  ( 1.449256230060611432E-15, -1.000000000000000000, 0.000000000000000000 ) ) ;
#489 = EDGE_CURVE ( 'NONE', #486, #456, #50, .T. ) ;
#490 = ORIENTED_EDGE ( 'NONE', *, *, #18, .T. ) ;
#491 = LINE ( 'NONE', #316, #277 ) ;
#492 = DIRECTION ( 'NONE',  ( 0.000000000000000000, -1.000000000000000000, 0.000000000000000000 ) ) ;
#493 = AXIS2_PLACEMENT_3D ( 'NONE', #273, #474, #529 ) ;
#494 = CARTESIAN_POINT ( 'NONE',  ( 0.1467956013822116768, 0.2942413225650508668, 9.550002550329015349 ) ) ;
#495 = VERTEX_POINT ( 'NONE', #126 ) ;
#496 = APPROVAL_PERSON_ORGANIZATION ( #123, #690, #66 ) ;
#497 = ORIENTED_EDGE ( 'NONE', *, *, #294, .T. ) ;
#498 = CYLINDRICAL_SURFACE ( 'NONE', #668, 0.1239999999999996938 ) ;
#499 = CARTESIAN_POINT ( 'NONE',  ( -0.1342719913941931298, -0.2057586774349479120, -5.605962936023923149 ) ) ;
#500 = DIRECTION ( 'NONE',  ( 1.000000000000000000, 1.403346572087807793E-15, 0.000000000000000000 ) ) ;
#501 = ORIENTED_EDGE ( 'NONE', *, *, #788, .F. ) ;
#502 = EDGE_CURVE ( 'NONE', #128, #658, #383, .T. ) ;
#503 = DIRECTION ( 'NONE',  ( 0.000000000000000000, -0.000000000000000000, 1.000000000000000000 ) ) ;
#504 = APPROVAL_ROLE ( '' ) ;
#505 = DIRECTION ( 'NONE',  ( -1.000000000000000000, 0.000000000000000000, 0.000000000000000000 ) ) ;
#506 = VERTEX_POINT ( 'NONE', #447 ) ;
#507 = DIRECTION ( 'NONE',  ( -1.000000000000000000, 0.000000000000000000, -0.000000000000000000 ) ) ;
#508 = PERSON_AND_ORGANIZATION_ROLE ( 'design_supplier' ) ;
#509 = LINE ( 'NONE', #441, #702 ) ;
#510 = ORIENTED_EDGE ( 'NONE', *, *, #397, .F. ) ;
#511 = AXIS2_PLACEMENT_3D ( 'NONE', #404, #20, #525 ) ;
#512 = AXIS2_PLACEMENT_3D ( 'NONE', #269, #454, #796 ) ;
#513 = CIRCLE ( 'NONE', #571, 0.07300000000000000933 ) ;
#514 = FACE_OUTER_BOUND ( 'NONE', #564, .T. ) ;
#515 =( NAMED_UNIT ( * ) PLANE_ANGLE_UNIT ( ) SI_UNIT ( $, .RADIAN. ) );
#516 = ADVANCED_FACE ( 'NONE', ( #562 ), #261, .T. ) ;
#517 = CARTESIAN_POINT ( 'NONE',  ( 0.2092956013822116212, -0.07975867743494798046, -8.249997449670981808 ) ) ;
#518 = ORIENTED_EDGE ( 'NONE', *, *, #389, .T. ) ;
#519 = DIRECTION ( 'NONE',  ( 1.000000000000000000, -1.311287036958847449E-14, 0.000000000000000000 ) ) ;
#520 = CARTESIAN_POINT ( 'NONE',  ( 0.2092956013822116212, -0.07975867743494798046, -8.249997449670981808 ) ) ;
#521 = LINE ( 'NONE', #733, #617 ) ;
#522 = EDGE_LOOP ( 'NONE', ( #5, #722 ) ) ;
#523 = PLANE ( 'NONE',  #207 ) ;
#524 = CARTESIAN_POINT ( 'NONE',  ( -0.1317845054899370039, -0.08075867743494816176, -7.247642161847112519 ) ) ;
#525 = DIRECTION ( 'NONE',  ( 0.000000000000000000, 0.000000000000000000, 1.000000000000000000 ) ) ;
#526 = COORDINATED_UNIVERSAL_TIME_OFFSET ( 6, 0, .BEHIND. ) ;
#527 = ORIENTED_EDGE ( 'NONE', *, *, #43, .T. ) ;
#528 = ORIENTED_EDGE ( 'NONE', *, *, #288, .F. ) ;
#529 = DIRECTION ( 'NONE',  ( 1.000000000000000000, 1.449256230060611235E-15, 0.000000000000000000 ) ) ;
#530 = EDGE_CURVE ( 'NONE', #651, #730, #822, .T. ) ;
#531 = CARTESIAN_POINT ( 'NONE',  ( 0.08429560138221199594, 0.2317413225650511721, -6.972697449670985925 ) ) ;
#532 = CIRCLE ( 'NONE', #243, 0.07299999999999992606 ) ;
#533 = CARTESIAN_POINT ( 'NONE',  ( -0.1317845054899370039, -0.08075867743494816176, 8.547738941489093634 ) ) ;
#534 = ORIENTED_EDGE ( 'NONE', *, *, #274, .T. ) ;
#535 = CARTESIAN_POINT ( 'NONE',  ( -0.1342719913941931298, -0.2057586774349479120, -5.605962936023923149 ) ) ;
#536 = PLANE ( 'NONE',  #83 ) ;
#537 = VERTEX_POINT ( 'NONE', #174 ) ;
#538 = ORIENTED_EDGE ( 'NONE', *, *, #109, .F. ) ;
#539 = CARTESIAN_POINT ( 'NONE',  ( -0.03970439861778810725, -0.08075867743494802298, 9.118721899244372153 ) ) ;
#540 = FACE_OUTER_BOUND ( 'NONE', #463, .T. ) ;
#541 = ORIENTED_EDGE ( 'NONE', *, *, #813, .F. ) ;
#542 = FACE_OUTER_BOUND ( 'NONE', #483, .T. ) ;
#543 = VECTOR ( 'NONE', #276, 39.37007874015748143 ) ;
#544 = CIRCLE ( 'NONE', #684, 0.07299999999999992606 ) ;
#545 = VECTOR ( 'NONE', #34, 39.37007874015748143 ) ;
#546 = DESIGN_CONTEXT ( 'detailed design', #729, 'design' ) ;
#547 = ADVANCED_FACE ( 'NONE', ( #432, #691, #113, #420, #215 ), #469, .F. ) ;
#548 = CARTESIAN_POINT ( 'NONE',  ( 0.2092956013822116212, -0.07975867743494791107, 9.550002550329015349 ) ) ;
#549 = CC_DESIGN_PERSON_AND_ORGANIZATION_ASSIGNMENT ( #455, #657, ( #637 ) ) ;
#550 = FACE_OUTER_BOUND ( 'NONE', #433, .T. ) ;
#551 = VERTEX_POINT ( 'NONE', #70 ) ;
#552 = EDGE_CURVE ( 'NONE', #56, #730, #219, .T. ) ;
#553 = AXIS2_PLACEMENT_3D ( 'NONE', #782, #199, #452 ) ;
#554 = APPROVAL_PERSON_ORGANIZATION ( #47, #613, #440 ) ;
#555 = VERTEX_POINT ( 'NONE', #22 ) ;
#556 = EDGE_CURVE ( 'NONE', #456, #175, #394, .T. ) ;
#557 = ORIENTED_EDGE ( 'NONE', *, *, #489, .T. ) ;
#558 = EDGE_LOOP ( 'NONE', ( #51, #121, #10, #557 ) ) ;
#559 = ORIENTED_EDGE ( 'NONE', *, *, #49, .F. ) ;
#560 =( LENGTH_UNIT ( ) NAMED_UNIT ( * ) SI_UNIT ( $, .METRE. ) );
#561 = EDGE_CURVE ( 'NONE', #658, #25, #620, .T. ) ;
#562 = FACE_OUTER_BOUND ( 'NONE', #250, .T. ) ;
#563 = ORIENTED_EDGE ( 'NONE', *, *, #359, .F. ) ;
#564 = EDGE_LOOP ( 'NONE', ( #312, #95, #90, #307, #630, #314 ) ) ;
#565 = DIRECTION ( 'NONE',  ( 0.000000000000000000, 1.000000000000000000, 0.000000000000000000 ) ) ;
#566 = CARTESIAN_POINT ( 'NONE',  ( -0.2907043164223749865, -0.2057586774349479120, -7.383972188253199676 ) ) ;
#567 = EDGE_CURVE ( 'NONE', #583, #267, #98, .T. ) ;
#568 = AXIS2_PLACEMENT_3D ( 'NONE', #629, #44, #500 ) ;
#569 = DIRECTION ( 'NONE',  ( 0.5000000000000088818, -0.000000000000000000, -0.8660254037844333785 ) ) ;
#570 = ORIENTED_EDGE ( 'NONE', *, *, #101, .T. ) ;
#571 = AXIS2_PLACEMENT_3D ( 'NONE', #162, #28, #173 ) ;
#572 = ORIENTED_EDGE ( 'NONE', *, *, #709, .F. ) ;
#573 = DIRECTION ( 'NONE',  ( -1.000000000000000000, 0.000000000000000000, 0.000000000000000000 ) ) ;
#574 = CARTESIAN_POINT ( 'NONE',  ( 0.2092956013822116212, -0.07975867743494791107, -6.972697449670985925 ) ) ;
#575 = ORIENTED_EDGE ( 'NONE', *, *, #813, .T. ) ;
#576 = CYLINDRICAL_SURFACE ( 'NONE', #168, 0.07300000000000000933 ) ;
#577 = COORDINATED_UNIVERSAL_TIME_OFFSET ( 6, 0, .BEHIND. ) ;
#578 = DIRECTION ( 'NONE',  ( 0.000000000000000000, 1.000000000000000000, 0.000000000000000000 ) ) ;
#579 = ORIENTED_EDGE ( 'NONE', *, *, #747, .F. ) ;
#580 = VERTEX_POINT ( 'NONE', #606 ) ;
#581 = CARTESIAN_POINT ( 'NONE',  ( -0.03970439861778810725, 0.04324132256505124755, 9.550002550329015349 ) ) ;
#582 = DIRECTION ( 'NONE',  ( 0.000000000000000000, 0.000000000000000000, 1.000000000000000000 ) ) ;
#583 = VERTEX_POINT ( 'NONE', #286 ) ;
#584 = CARTESIAN_POINT ( 'NONE',  ( -0.1342562790442833331, -0.08075867743494816176, 6.979059685528309132 ) ) ;
#585 = VECTOR ( 'NONE', #835, 39.37007874015748143 ) ;
#586 = LINE ( 'NONE', #282, #164 ) ;
#587 = LINE ( 'NONE', #332, #443 ) ;
#588 = PERSON_AND_ORGANIZATION ( #76, #749 ) ;
#589 = ORIENTED_EDGE ( 'NONE', *, *, #422, .F. ) ;
#590 = FACE_OUTER_BOUND ( 'NONE', #645, .T. ) ;
#591 = CARTESIAN_POINT ( 'NONE',  ( 0.2092956013822116212, -0.07975867743494791107, 8.272702550329015025 ) ) ;
#592 = DIRECTION ( 'NONE',  ( -0.000000000000000000, 1.000000000000000000, -0.000000000000000000 ) ) ;
#593 = APPROVAL_DATE_TIME ( #54, #690 ) ;
#594 = ADVANCED_FACE ( 'NONE', ( #340 ), #804, .F. ) ;
#595 = ORIENTED_EDGE ( 'NONE', *, *, #818, .T. ) ;
#596 = DIRECTION ( 'NONE',  ( 0.8660254037844361541, 0.000000000000000000, -0.5000000000000044409 ) ) ;
#597 = DIRECTION ( 'NONE',  ( 0.000000000000000000, 1.000000000000000000, 0.000000000000000000 ) ) ;
#598 = CARTESIAN_POINT ( 'NONE',  ( -0.1317845054899370039, -0.2057586774349479120, 8.547738941489093634 ) ) ;
#599 = ORIENTED_EDGE ( 'NONE', *, *, #103, .F. ) ;
#600 = DIRECTION ( 'NONE',  ( -0.000000000000000000, 1.000000000000000000, -0.000000000000000000 ) ) ;
#601 = ADVANCED_FACE ( 'NONE', ( #336 ), #143, .F. ) ;
#602 = DIRECTION ( 'NONE',  ( -0.000000000000000000, -0.000000000000000000, -1.000000000000000000 ) ) ;
#603 = AXIS2_PLACEMENT_3D ( 'NONE', #524, #789, #211 ) ;
#604 = DIRECTION ( 'NONE',  ( -1.000000000000000000, 0.000000000000000000, 0.000000000000000000 ) ) ;
#605 = ORIENTED_EDGE ( 'NONE', *, *, #355, .T. ) ;
#606 = CARTESIAN_POINT ( 'NONE',  ( 0.08429560138221157961, 0.04324132256505124755, -6.972697449670985925 ) ) ;
#607 = DIRECTION ( 'NONE',  ( -0.000000000000000000, -0.000000000000000000, -1.000000000000000000 ) ) ;
#608 = VERTEX_POINT ( 'NONE', #535 ) ;
#609 = CARTESIAN_POINT ( 'NONE',  ( -0.1317845054899370039, -0.2057586774349479120, 8.547738941489093634 ) ) ;
#610 = EDGE_CURVE ( 'NONE', #175, #737, #155, .T. ) ;
#611 = ORIENTED_EDGE ( 'NONE', *, *, #610, .F. ) ;
#612 = LINE ( 'NONE', #566, #462 ) ;
#613 = APPROVAL ( #183, 'UNSPECIFIED' ) ;
#614 = CIRCLE ( 'NONE', #568, 0.07299999999999992606 ) ;
#615 = CARTESIAN_POINT ( 'NONE',  ( -0.2907043164223770959, -0.2057586774349479120, 8.683977288911215453 ) ) ;
#616 = EDGE_CURVE ( 'NONE', #682, #79, #330, .T. ) ;
#617 = VECTOR ( 'NONE', #2, 39.37007874015748143 ) ;
#618 = AXIS2_PLACEMENT_3D ( 'NONE', #767, #635, #60 ) ;
#619 = AXIS2_PLACEMENT_3D ( 'NONE', #830, #3, #117 ) ;
#620 =( BOUNDED_CURVE ( )  B_SPLINE_CURVE ( 3, ( #539, #667, #646, #718 ),
 .UNSPECIFIED., .F., .F. ) 
 B_SPLINE_CURVE_WITH_KNOTS ( ( 4, 4 ),
 ( 1.570796326794896780, 1.697881958583697948 ),
 .UNSPECIFIED. ) 
 CURVE ( )  GEOMETRIC_REPRESENTATION_ITEM ( )  RATIONAL_B_SPLINE_CURVE ( ( 1.000000000000000000, 0.9986545563144606508, 0.9986545563144606508, 1.000000000000000000 ) ) 
 REPRESENTATION_ITEM ( '' )  );
#621 = EDGE_CURVE ( 'NONE', #537, #79, #757, .T. ) ;
#622 = ORIENTED_EDGE ( 'NONE', *, *, #18, .F. ) ;
#623 = LINE ( 'NONE', #94, #124 ) ;
#624 = DIRECTION ( 'NONE',  ( 0.000000000000000000, 5.346919270461662161E-17, 1.000000000000000000 ) ) ;
#625 = ORIENTED_EDGE ( 'NONE', *, *, #96, .T. ) ;
#626 = DIRECTION ( 'NONE',  ( -0.000000000000000000, -0.000000000000000000, -1.000000000000000000 ) ) ;
#627 = ADVANCED_FACE ( 'NONE', ( #16 ), #263, .F. ) ;
#628 = CARTESIAN_POINT ( 'NONE',  ( 0.2092956013822116212, -0.07975867743494791107, 9.550002550329015349 ) ) ;
#629 = CARTESIAN_POINT ( 'NONE',  ( -0.1342562790442833331, -0.08075867743494816176, 6.979059685528309132 ) ) ;
#630 = ORIENTED_EDGE ( 'NONE', *, *, #232, .T. ) ;
#631 = DIRECTION ( 'NONE',  ( 0.000000000000000000, 0.000000000000000000, -1.000000000000000000 ) ) ;
#632 = DATE_AND_TIME ( #446, #88 ) ;
#633 = AXIS2_PLACEMENT_3D ( 'NONE', #115, #761, #53 ) ;
#634 = AXIS2_PLACEMENT_3D ( 'NONE', #191, #839, #582 ) ;
#635 = DIRECTION ( 'NONE',  ( -0.000000000000000000, 1.000000000000000000, -0.000000000000000000 ) ) ;
#636 = ORIENTED_EDGE ( 'NONE', *, *, #364, .F. ) ;
#637 = PRODUCT_DEFINITION_FORMATION_WITH_SPECIFIED_SOURCE ( 'ANY', '', #435, .NOT_KNOWN. ) ;
#638 = LINE ( 'NONE', #755, #652 ) ;
#639 = COORDINATED_UNIVERSAL_TIME_OFFSET ( 6, 0, .BEHIND. ) ;
#640 = CARTESIAN_POINT ( 'NONE',  ( -0.03970439861778810725, -0.08075867743494802298, -7.818716798586346606 ) ) ;
#641 = EDGE_LOOP ( 'NONE', ( #611, #203, #781, #132, #305, #280, #253 ) ) ;
#642 = ORIENTED_EDGE ( 'NONE', *, *, #771, .F. ) ;
#643 = PERSON_AND_ORGANIZATION_ROLE ( 'design_owner' ) ;
#644 = PLANE ( 'NONE',  #816 ) ;
#645 = EDGE_LOOP ( 'NONE', ( #146, #599, #306, #487 ) ) ;
#646 = CARTESIAN_POINT ( 'NONE',  ( -0.02920218535008496999, -0.08042489501616724434, 9.136912266215956535 ) ) ;
#647 = ADVANCED_FACE ( 'NONE', ( #590 ), #523, .F. ) ;
#648 = CARTESIAN_POINT ( 'NONE',  ( -0.1317845054899370039, -0.08075867743494816176, 8.547738941489093634 ) ) ;
#649 = DIRECTION ( 'NONE',  ( -1.000000000000000000, 0.000000000000000000, 0.000000000000000000 ) ) ;
#650 = MECHANICAL_CONTEXT ( 'NONE', #712, 'mechanical' ) ;
#651 = VERTEX_POINT ( 'NONE', #724 ) ;
#652 = VECTOR ( 'NONE', #172, 39.37007874015748143 ) ;
#653 = DIRECTION ( 'NONE',  ( 1.000000000000000000, 1.403346572087807793E-15, 0.000000000000000000 ) ) ;
#654 = AXIS2_PLACEMENT_3D ( 'NONE', #137, #210, #519 ) ;
#655 = DIRECTION ( 'NONE',  ( 1.449256230060611432E-15, -1.000000000000000000, 0.000000000000000000 ) ) ;
#656 = DIRECTION ( 'NONE',  ( -0.000000000000000000, -0.000000000000000000, -1.000000000000000000 ) ) ;
#657 = PERSON_AND_ORGANIZATION_ROLE ( 'creator' ) ;
#658 = VERTEX_POINT ( 'NONE', #402 ) ;
#659 = CARTESIAN_POINT ( 'NONE',  ( -0.1342562790442833331, -0.2057586774349479120, 6.979059685528309132 ) ) ;
#660 = CARTESIAN_POINT ( 'NONE',  ( -0.1342719913941931298, -0.2057586774349479120, -5.678962936023923547 ) ) ;
#661 = DIRECTION ( 'NONE',  ( 0.000000000000000000, 0.000000000000000000, -1.000000000000000000 ) ) ;
#662 = EDGE_CURVE ( 'NONE', #119, #682, #380, .T. ) ;
#663 = VERTEX_POINT ( 'NONE', #731 ) ;
#664 = CARTESIAN_POINT ( 'NONE',  ( 0.08429560138221199594, 0.2317413225650511721, -6.972697449670985925 ) ) ;
#665 = CARTESIAN_POINT ( 'NONE',  ( -0.2648160509694701958, -0.08075867743494830053, -7.428811979337458737 ) ) ;
#666 = ORIENTED_EDGE ( 'NONE', *, *, #315, .T. ) ;
#667 = CARTESIAN_POINT ( 'NONE',  ( -0.03444798783040967094, -0.08075867743494842543, 9.127826269793564151 ) ) ;
#668 = AXIS2_PLACEMENT_3D ( 'NONE', #581, #714, #573 ) ;
#669 = VECTOR ( 'NONE', #324, 39.37007874015748143 ) ;
#670 = CIRCLE ( 'NONE', #31, 0.07299999999999992606 ) ;
#671 = CARTESIAN_POINT ( 'NONE',  ( -0.2282043986177888506, -0.1432586774349479675, 9.550002550329015349 ) ) ;
#672 = ORIENTED_EDGE ( 'NONE', *, *, #166, .F. ) ;
#673 = DIRECTION ( 'NONE',  ( -1.000000000000000000, 0.000000000000000000, 0.000000000000000000 ) ) ;
#674 = ADVANCED_FACE ( 'NONE', ( #147 ), #406, .F. ) ;
#675 = ORIENTED_EDGE ( 'NONE', *, *, #679, .T. ) ;
#676 = LINE ( 'NONE', #499, #678 ) ;
#677 = DIRECTION ( 'NONE',  ( 0.5000000000000043299, -0.000000000000000000, 0.8660254037844360431 ) ) ;
#678 = VECTOR ( 'NONE', #369, 39.37007874015748143 ) ;
#679 = EDGE_CURVE ( 'NONE', #608, #323, #676, .T. ) ;
#680 = ORIENTED_EDGE ( 'NONE', *, *, #315, .F. ) ;
#681 = ORIENTED_EDGE ( 'NONE', *, *, #27, .T. ) ;
#682 = VERTEX_POINT ( 'NONE', #810 ) ;
#683 = LINE ( 'NONE', #167, #358 ) ;
#684 = AXIS2_PLACEMENT_3D ( 'NONE', #648, #655, #337 ) ;
#685 = CC_DESIGN_APPROVAL ( #613, ( #226 ) ) ;
#686 = ADVANCED_FACE ( 'NONE', ( #542 ), #353, .F. ) ;
#687 = EDGE_LOOP ( 'NONE', ( #251, #105, #828, #751 ) ) ;
#688 = LINE ( 'NONE', #368, #815 ) ;
#689 = PLANE ( 'NONE',  #817 ) ;
#690 = APPROVAL ( #333, 'UNSPECIFIED' ) ;
#691 = FACE_BOUND ( 'NONE', #417, .T. ) ;
#692 = ORIENTED_EDGE ( 'NONE', *, *, #709, .T. ) ;
#693 = FACE_BOUND ( 'NONE', #329, .T. ) ;
#694 = COORDINATED_UNIVERSAL_TIME_OFFSET ( 6, 0, .BEHIND. ) ;
#695 = DIRECTION ( 'NONE',  ( 0.000000000000000000, -0.000000000000000000, 1.000000000000000000 ) ) ;
#696 = ORIENTED_EDGE ( 'NONE', *, *, #745, .T. ) ;
#697 = VERTEX_POINT ( 'NONE', #821 ) ;
#698 = CARTESIAN_POINT ( 'NONE',  ( 0.2092956013822116212, -0.07975867743494791107, 8.272702550329015025 ) ) ;
#699 = CALENDAR_DATE ( 2025, 7, 3 ) ;
#700 = CIRCLE ( 'NONE', #633, 0.1239999999999996938 ) ;
#701 = ADVANCED_FACE ( 'NONE', ( #550 ), #349, .F. ) ;
#702 = VECTOR ( 'NONE', #131, 39.37007874015748143 ) ;
#703 = LOCAL_TIME ( 22, 50, 18.00000000000000000, #577 ) ;
#704 = CARTESIAN_POINT ( 'NONE',  ( 0.2092956013822116212, -0.2057586774349479120, -8.249997449670985361 ) ) ;
#705 = ORIENTED_EDGE ( 'NONE', *, *, #419, .F. ) ;
#706 = ORIENTED_EDGE ( 'NONE', *, *, #779, .T. ) ;
#707 = DIRECTION ( 'NONE',  ( 0.000000000000000000, 1.000000000000000000, 0.000000000000000000 ) ) ;
#708 = CALENDAR_DATE ( 2025, 7, 3 ) ;
#709 = EDGE_CURVE ( 'NONE', #651, #45, #104, .T. ) ;
#710 = CARTESIAN_POINT ( 'NONE',  ( 0.2092956013822116212, -0.07975867743494791107, 8.272702550329015025 ) ) ;
#711 = ORIENTED_EDGE ( 'NONE', *, *, #814, .F. ) ;
#712 = APPLICATION_CONTEXT ( 'configuration controlled 3d designs of mechanical parts and assemblies' ) ;
#713 = CARTESIAN_POINT ( 'NONE',  ( -0.2282043986177888506, -0.08075867743494830053, 8.792230322017639210 ) ) ;
#714 = DIRECTION ( 'NONE',  ( -0.000000000000000000, -0.000000000000000000, -1.000000000000000000 ) ) ;
#715 = CALENDAR_DATE ( 2025, 7, 3 ) ;
#716 = PRODUCT_RELATED_PRODUCT_CATEGORY ( 'detail', '', ( #435 ) ) ;
#717 = VERTEX_POINT ( 'NONE', #303 ) ;
#718 = CARTESIAN_POINT ( 'NONE',  ( -0.02398816497228200423, -0.07975867743494791107, 9.145943214422009859 ) ) ;
#719 = CARTESIAN_POINT ( 'NONE',  ( -0.2648160509694701958, -0.08075867743494830053, 8.728817079995479844 ) ) ;
#720 = CARTESIAN_POINT ( 'NONE',  ( 0.2092956013822116212, -0.07975867743494791107, -6.972697449670985925 ) ) ;
#721 =( NAMED_UNIT ( * ) SI_UNIT ( $, .STERADIAN. ) SOLID_ANGLE_UNIT ( ) );
#722 = ORIENTED_EDGE ( 'NONE', *, *, #482, .T. ) ;
#723 = CIRCLE ( 'NONE', #739, 0.1239999999999996938 ) ;
#724 = CARTESIAN_POINT ( 'NONE',  ( 0.1467956013822116768, 0.2942413225650508668, 8.272702550329015025 ) ) ;
#725 = VECTOR ( 'NONE', #597, 39.37007874015748143 ) ;
#726 = CARTESIAN_POINT ( 'NONE',  ( -0.2907043986177884620, -0.1066470250832666222, 8.683977146544586745 ) ) ;
#727 = EDGE_CURVE ( 'NONE', #367, #730, #141, .T. ) ;
#728 = CARTESIAN_POINT ( 'NONE',  ( 0.2092956013822116212, -0.07975867743494791107, 9.550002550329015349 ) ) ;
#729 = APPLICATION_CONTEXT ( 'configuration controlled 3d designs of mechanical parts and assemblies' ) ;
#730 = VERTEX_POINT ( 'NONE', #357 ) ;
#731 = CARTESIAN_POINT ( 'NONE',  ( -0.1317845054899369761, -0.08075867743494816176, 8.474738941489093236 ) ) ;
#732 = LINE ( 'NONE', #341, #485 ) ;
#733 = CARTESIAN_POINT ( 'NONE',  ( 0.2092956013822116212, 0.2942413225650508668, 8.272702550329015025 ) ) ;
#734 = VERTEX_POINT ( 'NONE', #628 ) ;
#735 = DIRECTION ( 'NONE',  ( -1.000000000000000000, 0.000000000000000000, 0.000000000000000000 ) ) ;
#736 = CARTESIAN_POINT ( 'NONE',  ( 0.2092956013822116212, 0.2942413225650508668, 8.272702550329015025 ) ) ;
#737 = VERTEX_POINT ( 'NONE', #225 ) ;
#738 = DIRECTION ( 'NONE',  ( -0.5000000000000043299, 0.000000000000000000, -0.8660254037844360431 ) ) ;
#739 = AXIS2_PLACEMENT_3D ( 'NONE', #24, #790, #220 ) ;
#740 = CIRCLE ( 'NONE', #634, 0.07300000000000000933 ) ;
#741 = DIRECTION ( 'NONE',  ( 1.449256230060611432E-15, -1.000000000000000000, 0.000000000000000000 ) ) ;
#742 = VERTEX_POINT ( 'NONE', #762 ) ;
#743 = FACE_OUTER_BOUND ( 'NONE', #136, .T. ) ;
#744 = CARTESIAN_POINT ( 'NONE',  ( -0.2282043986177888506, -0.08075867743494830053, -7.492225221359618104 ) ) ;
#745 = EDGE_CURVE ( 'NONE', #185, #25, #479, .T. ) ;
#746 = CIRCLE ( 'NONE', #459, 0.07300000000000000933 ) ;
#747 = EDGE_CURVE ( 'NONE', #486, #289, #612, .T. ) ;
#748 = CIRCLE ( 'NONE', #512, 0.07300000000000000933 ) ;
#749 = ORGANIZATION ( 'UNSPECIFIED', 'UNSPECIFIED', '' ) ;
#750 = ADVANCED_BREP_SHAPE_REPRESENTATION ( '8982K112_Multipurpose 6061 Aluminum 90 Degree Angle 8.15_8982K112_sldprt', ( #797, #619 ), #125 ) ;
#751 = ORIENTED_EDGE ( 'NONE', *, *, #176, .F. ) ;
#752 = ORIENTED_EDGE ( 'NONE', *, *, #530, .T. ) ;
#753 = DIRECTION ( 'NONE',  ( -1.000000000000000000, 0.000000000000000000, 0.000000000000000000 ) ) ;
#754 = ADVANCED_FACE ( 'NONE', ( #743 ), #431, .F. ) ;
#755 = CARTESIAN_POINT ( 'NONE',  ( 0.08429560138221199594, 0.04324132256505124755, 9.550002550329015349 ) ) ;
#756 = DIRECTION ( 'NONE',  ( -0.000000000000000000, 1.000000000000000000, -0.000000000000000000 ) ) ;
#757 = CIRCLE ( 'NONE', #36, 0.07299999999999992606 ) ;
#758 = DIRECTION ( 'NONE',  ( -0.000000000000000000, -0.000000000000000000, -1.000000000000000000 ) ) ;
#759 = ORIENTED_EDGE ( 'NONE', *, *, #662, .T. ) ;
#760 = ORIENTED_EDGE ( 'NONE', *, *, #502, .T. ) ;
#761 = DIRECTION ( 'NONE',  ( -0.000000000000000000, 0.000000000000000000, -1.000000000000000000 ) ) ;
#762 = CARTESIAN_POINT ( 'NONE',  ( -0.1317845054899369761, -0.2057586774349479120, -7.320642161847112028 ) ) ;
#763 = CYLINDRICAL_SURFACE ( 'NONE', #618, 0.07300000000000000933 ) ;
#764 = ORIENTED_EDGE ( 'NONE', *, *, #425, .T. ) ;
#765 = DIRECTION ( 'NONE',  ( -0.000000000000000000, 1.000000000000000000, -0.000000000000000000 ) ) ;
#766 = DATE_TIME_ROLE ( 'classification_date' ) ;
#767 = CARTESIAN_POINT ( 'NONE',  ( -0.1342719913941931298, -0.2057586774349479120, -5.678962936023923547 ) ) ;
#768 = ORIENTED_EDGE ( 'NONE', *, *, #109, .T. ) ;
#769 = ORIENTED_EDGE ( 'NONE', *, *, #334, .T. ) ;
#770 = CARTESIAN_POINT ( 'NONE',  ( 0.08429560138221199594, 0.2317413225650511721, 8.272702550329015025 ) ) ;
#771 = EDGE_CURVE ( 'NONE', #506, #323, #670, .T. ) ;
#772 = VECTOR ( 'NONE', #592, 39.37007874015748143 ) ;
#773 = VECTOR ( 'NONE', #403, 39.37007874015748143 ) ;
#774 = CC_DESIGN_APPROVAL ( #690, ( #637 ) ) ;
#775 = CARTESIAN_POINT ( 'NONE',  ( 0.2092956013822116212, -0.2057586774349479120, -8.249997449670985361 ) ) ;
#776 = ORIENTED_EDGE ( 'NONE', *, *, #359, .T. ) ;
#777 = PLANE ( 'NONE',  #428 ) ;
#778 = DATE_AND_TIME ( #715, #170 ) ;
#779 = EDGE_CURVE ( 'NONE', #45, #717, #623, .T. ) ;
#780 = CARTESIAN_POINT ( 'NONE',  ( -0.03444798783041021911, -0.08075867743494845319, -7.827821169135538604 ) ) ;
#781 = ORIENTED_EDGE ( 'NONE', *, *, #489, .F. ) ;
#782 = CARTESIAN_POINT ( 'NONE',  ( -0.2907043986177885175, -0.1432586774349479675, 9.550002550329015349 ) ) ;
#783 = CARTESIAN_POINT ( 'NONE',  ( 0.2092956013822116212, -0.2057586774349479120, 9.550002550329015349 ) ) ;
#784 = CARTESIAN_POINT ( 'NONE',  ( -0.02398816497228234423, -0.07975867743494791107, 8.272702550329015025 ) ) ;
#785 = DATE_AND_TIME ( #708, #190 ) ;
#786 = ORIENTED_EDGE ( 'NONE', *, *, #415, .T. ) ;
#787 = CARTESIAN_POINT ( 'NONE',  ( 0.08429560138221199594, 0.2317413225650511721, 9.550002550329015349 ) ) ;
#788 = EDGE_CURVE ( 'NONE', #69, #413, #513, .T. ) ;
#789 = DIRECTION ( 'NONE',  ( 1.449256230060611432E-15, -1.000000000000000000, 0.000000000000000000 ) ) ;
#790 = DIRECTION ( 'NONE',  ( -0.000000000000000000, -0.000000000000000000, 1.000000000000000000 ) ) ;
#791 = VERTEX_POINT ( 'NONE', #744 ) ;
#792 = VECTOR ( 'NONE', #626, 39.37007874015748143 ) ;
#793 = CARTESIAN_POINT ( 'NONE',  ( 0.2092956013822116212, -0.2057586774349479120, 9.550002550329015349 ) ) ;
#794 = AXIS2_PLACEMENT_3D ( 'NONE', #346, #86, #653 ) ;
#795 = CC_DESIGN_SECURITY_CLASSIFICATION ( #226, ( #637 ) ) ;
#796 = DIRECTION ( 'NONE',  ( 0.000000000000000000, 0.000000000000000000, 1.000000000000000000 ) ) ;
#797 = MANIFOLD_SOLID_BREP ( 'Scale1', #378 ) ;
#798 = DIRECTION ( 'NONE',  ( 1.000000000000000000, 1.403346572087807793E-15, 0.000000000000000000 ) ) ;
#799 = ORIENTED_EDGE ( 'NONE', *, *, #260, .T. ) ;
#800 = DIRECTION ( 'NONE',  ( 0.000000000000000000, 0.000000000000000000, 1.000000000000000000 ) ) ;
#801 = CARTESIAN_POINT ( 'NONE',  ( -0.2907043986177885175, -0.1432586774349479675, -7.383972188253199676 ) ) ;
#802 = CARTESIAN_POINT ( 'NONE',  ( -0.03970439861778810725, -0.08075867743494802298, -7.818716798586346606 ) ) ;
#803 = ORIENTED_EDGE ( 'NONE', *, *, #745, .F. ) ;
#804 = PLANE ( 'NONE',  #362 ) ;
#805 = DIMENSIONAL_EXPONENTS ( 1.000000000000000000, 0.000000000000000000, 0.000000000000000000, 0.000000000000000000, 0.000000000000000000, 0.000000000000000000, 0.000000000000000000 ) ;
#806 = LINE ( 'NONE', #206, #543 ) ;
#807 = ADVANCED_FACE ( 'NONE', ( #293 ), #689, .T. ) ;
#808 = UNCERTAINTY_MEASURE_WITH_UNIT (LENGTH_MEASURE( 1.000000000000000082E-05 ), #73, 'distance_accuracy_value', 'NONE');
#809 = ORIENTED_EDGE ( 'NONE', *, *, #43, .F. ) ;
#810 = CARTESIAN_POINT ( 'NONE',  ( -0.1342562790442833331, -0.2057586774349479120, 7.052059685528308641 ) ) ;
#811 = VECTOR ( 'NONE', #735, 39.37007874015748143 ) ;
#812 = DIRECTION ( 'NONE',  ( 0.000000000000000000, -0.000000000000000000, 1.000000000000000000 ) ) ;
#813 = EDGE_CURVE ( 'NONE', #25, #734, #421, .T. ) ;
#814 = EDGE_CURVE ( 'NONE', #737, #495, #683, .T. ) ;
#815 = VECTOR ( 'NONE', #436, 39.37007874015748143 ) ;
#816 = AXIS2_PLACEMENT_3D ( 'NONE', #710, #695, #322 ) ;
#817 = AXIS2_PLACEMENT_3D ( 'NONE', #548, #112, #812 ) ;
#818 = EDGE_CURVE ( 'NONE', #697, #110, #97, .T. ) ;
#819 = CARTESIAN_POINT ( 'NONE',  ( 0.1467956013822116768, 0.2317413225650511721, 8.272702550329015025 ) ) ;
#820 = CARTESIAN_POINT ( 'NONE',  ( -0.1317845054899369761, -0.2057586774349479120, 8.474738941489093236 ) ) ;
#821 = CARTESIAN_POINT ( 'NONE',  ( -0.2907043164223770959, -0.2057586774349479120, 8.683977288911215453 ) ) ;
#822 = LINE ( 'NONE', #494, #444 ) ;
#823 = CC_DESIGN_PERSON_AND_ORGANIZATION_ASSIGNMENT ( #374, #189, ( #226 ) ) ;
#824 = CARTESIAN_POINT ( 'NONE',  ( 0.2092956013822116212, -0.07975867743494791107, -6.972697449670985925 ) ) ;
#825 = DIRECTION ( 'NONE',  ( 0.000000000000000000, 0.000000000000000000, -1.000000000000000000 ) ) ;
#826 = CC_DESIGN_APPROVAL ( #295, ( #372 ) ) ;
#827 = DIRECTION ( 'NONE',  ( 0.5000000000000043299, 7.246281150303121254E-16, 0.8660254037844360431 ) ) ;
#828 = ORIENTED_EDGE ( 'NONE', *, *, #567, .F. ) ;
#829 = CARTESIAN_POINT ( 'NONE',  ( -0.1342562790442833331, -0.08075867743494816176, 7.052059685528308641 ) ) ;
#830 = CARTESIAN_POINT ( 'NONE',  ( 0.000000000000000000, 0.000000000000000000, 0.000000000000000000 ) ) ;
#831 = DIRECTION ( 'NONE',  ( -0.000000000000000000, 1.000000000000000000, -0.000000000000000000 ) ) ;
#832 = ORIENTED_EDGE ( 'NONE', *, *, #561, .T. ) ;
#833 = LINE ( 'NONE', #820, #484 ) ;
#834 = PERSON_AND_ORGANIZATION ( #76, #749 ) ;
#835 = DIRECTION ( 'NONE',  ( -0.000000000000000000, -0.000000000000000000, -1.000000000000000000 ) ) ;
#836 = ORIENTED_EDGE ( 'NONE', *, *, #4, .F. ) ;
#837 = EDGE_LOOP ( 'NONE', ( #335, #666, #768, #177 ) ) ;
#838 = APPLICATION_PROTOCOL_DEFINITION ( 'international standard', 'config_control_design', 1994, #712 ) ;
#839 = DIRECTION ( 'NONE',  ( 0.000000000000000000, 1.000000000000000000, 0.000000000000000000 ) ) ;
#840 = ORIENTED_EDGE ( 'NONE', *, *, #375, .T. ) ;
#841 = DIRECTION ( 'NONE',  ( 1.000000000000000000, 1.403346572087807793E-15, 0.000000000000000000 ) ) ;
ENDSEC;
END-ISO-10303-21;
