ISO-10303-21;
HEADER;
FILE_DESCRIPTION (( 'STEP AP203' ),
    '1' );
FILE_NAME ('9414T3_Set Screw Shaft Collar_9414T3_sldprt.STEP',
    '2025-03-08T04:50:23',
    ( '' ),
    ( '' ),
    'SwSTEP 2.0',
    'SolidWorks 2024',
    '' );
FILE_SCHEMA (( 'CONFIG_CONTROL_DESIGN' ));
ENDSEC;

DATA;
#1 = CARTESIAN_POINT ( 'NONE',  ( 0.02146055682393898517, 0.1863434608677914384, -0.07932564490905859300 ) ) ;
#2 = CARTESIAN_POINT ( 'NONE',  ( 0.06250000000000000000, 7.654042494670957545E-18, 0.1250000000000000000 ) ) ;
#3 = DIRECTION ( 'NONE',  ( -5.228927800373149648E-17, 1.000000000000000000, -0.000000000000000000 ) ) ;
#4 = CARTESIAN_POINT ( 'NONE',  ( 0.08145858754768860177, 0.1688850009968970722, -0.01085398419714613504 ) ) ;
#5 = DIRECTION ( 'NONE',  ( -1.000000000000000000, 0.000000000000000000, 0.000000000000000000 ) ) ;
#6 = ORIENTED_EDGE ( 'NONE', *, *, #627, .F. ) ;
#7 = CARTESIAN_POINT ( 'NONE',  ( 0.01082351311259467479, 0.1875000000000000555, 0.08200000000000015610 ) ) ;
#8 = CARTESIAN_POINT ( 'NONE',  ( -0.03237342442279042554, 0.05409814933082186805, -0.07575883320656097430 ) ) ;
#9 = AXIS2_PLACEMENT_3D ( 'NONE', #1103, #466, #839 ) ;
#10 = AXIS2_PLACEMENT_3D ( 'NONE', #640, #916, #301 ) ;
#11 = PERSON_AND_ORGANIZATION ( #195, #800 ) ;
#12 = ORIENTED_EDGE ( 'NONE', *, *, #87, .T. ) ;
#13 = CARTESIAN_POINT ( 'NONE',  ( 0.05404538655485148502, 0.03163211006970988171, -0.06173335317678845663 ) ) ;
#14 = FACE_OUTER_BOUND ( 'NONE', #658, .T. ) ;
#15 = EDGE_CURVE ( 'NONE', #802, #1123, #1060, .T. ) ;
#16 = COORDINATED_UNIVERSAL_TIME_OFFSET ( 6, 0, .BEHIND. ) ;
#17 = ORIENTED_EDGE ( 'NONE', *, *, #365, .F. ) ;
#18 = DIRECTION ( 'NONE',  ( -5.228927800373149648E-17, 1.000000000000000000, -0.000000000000000000 ) ) ;
#19 = CARTESIAN_POINT ( 'NONE',  ( -0.008575061137717278695, 0.06250000000000338618, 0.08200000000000277900 ) ) ;
#20 = EDGE_CURVE ( 'NONE', #721, #449, #756, .T. ) ;
#21 = DATE_AND_TIME ( #919, #632 ) ;
#22 = EDGE_CURVE ( 'NONE', #250, #342, #718, .T. ) ;
#23 = ORIENTED_EDGE ( 'NONE', *, *, #521, .T. ) ;
#24 = DIRECTION ( 'NONE',  ( 0.000000000000000000, -0.000000000000000000, -1.000000000000000000 ) ) ;
#25 = LINE ( 'NONE', #41, #835 ) ;
#26 = AXIS2_PLACEMENT_3D ( 'NONE', #1055, #246, #696 ) ;
#27 = CONICAL_SURFACE ( 'NONE', #1131, 0.08200000000000011446, 0.7853981633974481680 ) ;
#28 = AXIS2_PLACEMENT_3D ( 'NONE', #664, #18, #1021 ) ;
#29 = PERSON_AND_ORGANIZATION ( #195, #800 ) ;
#30 = CIRCLE ( 'NONE', #1135, 0.06250000000000000000 ) ;
#31 = ORIENTED_EDGE ( 'NONE', *, *, #1018, .T. ) ;
#32 = CARTESIAN_POINT ( 'NONE',  ( -3.268079875233218530E-18, 0.06250000000000000000, 0.000000000000000000 ) ) ;
#33 = CARTESIAN_POINT ( 'NONE',  ( 0.000000000000000000, 0.000000000000000000, -0.1250000000000000000 ) ) ;
#34 = ORIENTED_EDGE ( 'NONE', *, *, #894, .T. ) ;
#35 = ORIENTED_EDGE ( 'NONE', *, *, #314, .F. ) ;
#36 = FACE_BOUND ( 'NONE', #945, .T. ) ;
#37 = CARTESIAN_POINT ( 'NONE',  ( -0.04968844137167621050, 0.03811237317957329174, 0.06529141977600838587 ) ) ;
#38 = ORIENTED_EDGE ( 'NONE', *, *, #395, .F. ) ;
#39 = ORIENTED_EDGE ( 'NONE', *, *, #159, .T. ) ;
#40 = DIRECTION ( 'NONE',  ( 0.000000000000000000, 0.000000000000000000, 1.000000000000000000 ) ) ;
#41 = CARTESIAN_POINT ( 'NONE',  ( 0.05576250961391530231, 0.1874999999999999722, 0.000000000000000000 ) ) ;
#42 = VERTEX_POINT ( 'NONE', #606 ) ;
#43 = CLOSED_SHELL ( 'NONE', ( #730, #725, #980, #1057, #350, #1043, #279, #885, #221, #228, #859, #409, #445, #1070, #849, #145, #75, #515, #52 ) ) ;
#44 = AXIS2_PLACEMENT_3D ( 'NONE', #436, #518, #784 ) ;
#45 = AXIS2_PLACEMENT_3D ( 'NONE', #494, #56, #626 ) ;
#46 = ORIENTED_EDGE ( 'NONE', *, *, #1126, .F. ) ;
#47 = DIRECTION ( 'NONE',  ( -0.000000000000000000, -0.000000000000000000, -1.000000000000000000 ) ) ;
#48 = AXIS2_PLACEMENT_3D ( 'NONE', #441, #997, #722 ) ;
#49 = CARTESIAN_POINT ( 'NONE',  ( -0.06178582008665284286, 0.1770718693571701474, -0.05417484725967956077 ) ) ;
#50 = ORIENTED_EDGE ( 'NONE', *, *, #108, .F. ) ;
#51 = LINE ( 'NONE', #323, #64 ) ;
#52 = ADVANCED_FACE ( 'NONE', ( #60 ), #212, .T. ) ;
#53 = LINE ( 'NONE', #313, #669 ) ;
#54 = LINE ( 'NONE', #405, #875 ) ;
#55 = VERTEX_POINT ( 'NONE', #514 ) ;
#56 = DIRECTION ( 'NONE',  ( 1.224646799147353207E-16, 1.000000000000000000, -0.000000000000000000 ) ) ;
#57 = DIRECTION ( 'NONE',  ( 0.4999999999999998890, 0.000000000000000000, -0.8660254037844385966 ) ) ;
#58 = ORIENTED_EDGE ( 'NONE', *, *, #822, .F. ) ;
#59 = CARTESIAN_POINT ( 'NONE',  ( -0.02153136764170408141, 0.1863350239619156190, -0.07930586329838772153 ) ) ;
#60 = FACE_OUTER_BOUND ( 'NONE', #663, .T. ) ;
#61 = DIRECTION ( 'NONE',  ( 0.000000000000000000, 0.000000000000000000, 1.000000000000000000 ) ) ;
#62 = AXIS2_PLACEMENT_3D ( 'NONE', #66, #879, #952 ) ;
#63 = LINE ( 'NONE', #1116, #254 ) ;
#64 = VECTOR ( 'NONE', #61, 39.37007874015748143 ) ;
#65 = CARTESIAN_POINT ( 'NONE',  ( 0.000000000000000000, 0.000000000000000000, -0.1212500000000000105 ) ) ;
#66 = CARTESIAN_POINT ( 'NONE',  ( -8.432300196781435427E-18, 0.1612625096139151948, 0.000000000000000000 ) ) ;
#67 = ADVANCED_FACE ( 'NONE', ( #883 ), #1002, .F. ) ;
#68 = DIRECTION ( 'NONE',  ( 0.4999999999999998890, 0.000000000000000000, -0.8660254037844385966 ) ) ;
#69 =( NAMED_UNIT ( * ) PLANE_ANGLE_UNIT ( ) SI_UNIT ( $, .RADIAN. ) );
#70 = EDGE_LOOP ( 'NONE', ( #1048, #905, #854, #866 ) ) ;
#71 = CARTESIAN_POINT ( 'NONE',  ( 0.000000000000000000, -9.949926624806815223E-17, 1.024442997624098707E-16 ) ) ;
#72 = FACE_OUTER_BOUND ( 'NONE', #830, .T. ) ;
#73 = ADVANCED_FACE ( 'NONE', ( #336, #868 ), #260, .T. ) ;
#74 = CARTESIAN_POINT ( 'NONE',  ( -0.1875000000000000278, 0.000000000000000000, -0.1212500000000000105 ) ) ;
#75 = ADVANCED_FACE ( 'NONE', ( #72 ), #80, .T. ) ;
#76 = CARTESIAN_POINT ( 'NONE',  ( 0.06548809085992550461, 0.1758667161844303661, -0.05046563359713003571 ) ) ;
#77 = FACE_OUTER_BOUND ( 'NONE', #319, .T. ) ;
#78 = DIRECTION ( 'NONE',  ( -0.000000000000000000, -0.000000000000000000, -1.000000000000000000 ) ) ;
#79 = DIRECTION ( 'NONE',  ( 0.000000000000000000, 1.000000000000000000, 0.000000000000000000 ) ) ;
#80 = TOROIDAL_SURFACE ( 'NONE', #608, 0.06625000000000000333, 0.003750000000000000729 ) ;
#81 = ORIENTED_EDGE ( 'NONE', *, *, #954, .F. ) ;
#82 = CARTESIAN_POINT ( 'NONE',  ( 0.01804219591217579716, 0.1874999999999999722, -0.03124999999999989592 ) ) ;
#83 = DIRECTION ( 'NONE',  ( 5.228927800373149648E-17, -1.000000000000000000, 0.000000000000000000 ) ) ;
#84 = MANIFOLD_SOLID_BREP ( 'Fillet1', #43 ) ;
#85 = DIRECTION ( 'NONE',  ( -0.4999999999999996114, 0.000000000000000000, 0.8660254037844388186 ) ) ;
#86 = LOCAL_TIME ( 22, 50, 23.00000000000000000, #384 ) ;
#87 = EDGE_CURVE ( 'NONE', #199, #385, #547, .T. ) ;
#88 = DIRECTION ( 'NONE',  ( 5.228927800373149648E-17, -1.000000000000000000, 0.000000000000000000 ) ) ;
#89 = ORIENTED_EDGE ( 'NONE', *, *, #15, .T. ) ;
#90 = CARTESIAN_POINT ( 'NONE',  ( 0.06625000000000000333, 0.000000000000000000, 0.1250000000000000000 ) ) ;
#91 = DIRECTION ( 'NONE',  ( 0.000000000000000000, 0.000000000000000000, -1.000000000000000000 ) ) ;
#92 = CARTESIAN_POINT ( 'NONE',  ( 0.06250000000000000000, 7.654042494670957545E-18, -0.1212500000000000105 ) ) ;
#93 = ORIENTED_EDGE ( 'NONE', *, *, #267, .T. ) ;
#94 = CARTESIAN_POINT ( 'NONE',  ( 0.01088110115063953449, 0.1872592922797936543, -0.08145376036243577589 ) ) ;
#95 = CARTESIAN_POINT ( 'NONE',  ( -0.03900999743763245570, 0.04945202170020813331, -0.07242153592435100762 ) ) ;
#96 = APPROVAL_DATE_TIME ( #198, #828 ) ;
#97 = VERTEX_POINT ( 'NONE', #344 ) ;
#98 = FACE_OUTER_BOUND ( 'NONE', #999, .T. ) ;
#99 = EDGE_CURVE ( 'NONE', #1006, #1076, #1151, .T. ) ;
#100 = B_SPLINE_CURVE_WITH_KNOTS ( 'NONE', 3,
 ( #926, #111, #728, #216, #557, #374, #1106, #13, #189, #459, #1110, #465 ),
 .UNSPECIFIED., .F., .F.,
 ( 4, 2, 2, 2, 2, 4 ),
 ( 0.002602936302591026593, 0.003252834949422856326, 0.003902733596254685626, 0.004227682919670600059, 0.004552632243086515360, 0.005202530889918344226 ),
 .UNSPECIFIED. ) ;
#101 = CARTESIAN_POINT ( 'NONE',  ( -0.06250000000000002776, 0.004361296857094637200, -0.05308248298638636176 ) ) ;
#102 = CIRCLE ( 'NONE', #942, 0.08200000000000005895 ) ;
#103 = COORDINATED_UNIVERSAL_TIME_OFFSET ( 6, 0, .BEHIND. ) ;
#104 = VERTEX_POINT ( 'NONE', #411 ) ;
#105 = CARTESIAN_POINT ( 'NONE',  ( 0.05909369345255763295, 0.02074033867757288027, 0.05689234394696948000 ) ) ;
#106 = LINE ( 'NONE', #201, #590 ) ;
#107 = ADVANCED_FACE ( 'NONE', ( #77 ), #1050, .T. ) ;
#108 = EDGE_CURVE ( 'NONE', #55, #239, #889, .T. ) ;
#109 = APPROVAL_DATE_TIME ( #914, #777 ) ;
#110 = VERTEX_POINT ( 'NONE', #507 ) ;
#111 = CARTESIAN_POINT ( 'NONE',  ( 0.008575061137717290838, 0.06250000000000338618, -0.08200000000000255695 ) ) ;
#112 = CARTESIAN_POINT ( 'NONE',  ( -0.06250000000000000000, 0.000000000000000000, -0.1212500000000000105 ) ) ;
#113 = ORIENTED_EDGE ( 'NONE', *, *, #261, .T. ) ;
#114 = CARTESIAN_POINT ( 'NONE',  ( 0.008644176926624589502, 0.06204401610644874610, 0.08165101006648571580 ) ) ;
#115 = CARTESIAN_POINT ( 'NONE',  ( 0.03608439182435159431, 0.1874999999999996947, 8.484575759877524643E-17 ) ) ;
#116 = ORIENTED_EDGE ( 'NONE', *, *, #731, .T. ) ;
#117 = CLOSED_SHELL ( 'NONE', ( #67, #559, #1108, #1104, #73, #1079, #190, #646, #712, #225, #918, #389, #785, #650, #1026, #107, #770 ) ) ;
#118 = CIRCLE ( 'NONE', #550, 0.1837500000000000244 ) ;
#119 = PERSON_AND_ORGANIZATION ( #195, #800 ) ;
#120 = EDGE_CURVE ( 'NONE', #1006, #199, #230, .T. ) ;
#121 = AXIS2_PLACEMENT_3D ( 'NONE', #961, #248, #360 ) ;
#122 = VERTEX_POINT ( 'NONE', #236 ) ;
#123 = LINE ( 'NONE', #381, #345 ) ;
#124 = DIRECTION ( 'NONE',  ( 0.000000000000000000, 1.000000000000000000, 0.000000000000000000 ) ) ;
#125 = ORIENTED_EDGE ( 'NONE', *, *, #615, .T. ) ;
#126 = EDGE_LOOP ( 'NONE', ( #934, #498, #929, #12 ) ) ;
#127 = FACE_OUTER_BOUND ( 'NONE', #147, .T. ) ;
#128 = DIRECTION ( 'NONE',  ( 0.000000000000000000, -1.000000000000000000, 0.000000000000000000 ) ) ;
#129 = EDGE_LOOP ( 'NONE', ( #446, #754, #39, #89 ) ) ;
#130 = ORIENTED_EDGE ( 'NONE', *, *, #697, .T. ) ;
#131 = DIRECTION ( 'NONE',  ( 1.000000000000000000, 0.000000000000000000, 0.000000000000000000 ) ) ;
#132 = CARTESIAN_POINT ( 'NONE',  ( 0.03608439182435159431, 0.1874999999999996947, 8.484575759877524643E-17 ) ) ;
#133 = ORIENTED_EDGE ( 'NONE', *, *, #353, .T. ) ;
#134 = EDGE_CURVE ( 'NONE', #467, #619, #525, .T. ) ;
#135 = LINE ( 'NONE', #1124, #643 ) ;
#136 = AXIS2_PLACEMENT_3D ( 'NONE', #1146, #1134, #426 ) ;
#137 = AXIS2_PLACEMENT_3D ( 'NONE', #1084, #447, #179 ) ;
#138 = CIRCLE ( 'NONE', #760, 0.1875000000000000278 ) ;
#139 = DIRECTION ( 'NONE',  ( -5.228927800373149648E-17, 1.000000000000000000, -0.000000000000000000 ) ) ;
#140 = AXIS2_PLACEMENT_3D ( 'NONE', #340, #1072, #333 ) ;
#141 = DIRECTION ( 'NONE',  ( 1.000000000000000000, 0.000000000000000000, 0.000000000000000000 ) ) ;
#142 = ORIENTED_EDGE ( 'NONE', *, *, #1148, .F. ) ;
#143 = DIRECTION ( 'NONE',  ( 1.000000000000000000, 0.000000000000000000, -0.000000000000000000 ) ) ;
#144 = EDGE_CURVE ( 'NONE', #485, #385, #162, .T. ) ;
#145 = ADVANCED_FACE ( 'NONE', ( #872 ), #527, .T. ) ;
#146 = LINE ( 'NONE', #400, #415 ) ;
#147 = EDGE_LOOP ( 'NONE', ( #844, #639, #311, #1014 ) ) ;
#148 = VERTEX_POINT ( 'NONE', #317 ) ;
#149 = PLANE ( 'NONE',  #780 ) ;
#150 = DIRECTION ( 'NONE',  ( 1.000000000000000000, 0.000000000000000000, 0.000000000000000000 ) ) ;
#151 = DIRECTION ( 'NONE',  ( 1.000000000000000000, 0.000000000000000000, 0.000000000000000000 ) ) ;
#152 = FACE_OUTER_BOUND ( 'NONE', #129, .T. ) ;
#153 = ORIENTED_EDGE ( 'NONE', *, *, #799, .T. ) ;
#154 = CARTESIAN_POINT ( 'NONE',  ( -0.07773127902386169075, 0.1706433617533865132, 0.02665319260296907314 ) ) ;
#155 = CARTESIAN_POINT ( 'NONE',  ( 0.1875000000000000278, 2.296212748401287726E-17, 0.1250000000000000000 ) ) ;
#156 = CARTESIAN_POINT ( 'NONE',  ( 0.01804219591217579716, 0.1249999999999997086, -0.03124999999999989592 ) ) ;
#157 = AXIS2_PLACEMENT_3D ( 'NONE', #614, #172, #150 ) ;
#158 = LENGTH_MEASURE_WITH_UNIT ( LENGTH_MEASURE( 0.02539999999999999897 ), #617 );
#159 = EDGE_CURVE ( 'NONE', #629, #802, #585, .T. ) ;
#160 = VECTOR ( 'NONE', #78, 39.37007874015748143 ) ;
#161 = DIRECTION ( 'NONE',  ( 0.5000000000000000000, 0.000000000000000000, 0.8660254037844385966 ) ) ;
#162 = LINE ( 'NONE', #155, #1036 ) ;
#163 = AXIS2_PLACEMENT_3D ( 'NONE', #238, #949, #599 ) ;
#164 = CARTESIAN_POINT ( 'NONE',  ( 0.000000000000000000, 0.000000000000000000, 0.1250000000000000000 ) ) ;
#165 = CARTESIAN_POINT ( 'NONE',  ( 0.01804219591217579716, 0.1249999999999997086, 0.03125000000000009714 ) ) ;
#166 = VERTEX_POINT ( 'NONE', #156 ) ;
#167 = PLANE ( 'NONE',  #510 ) ;
#168 = LINE ( 'NONE', #2, #213 ) ;
#169 = FACE_OUTER_BOUND ( 'NONE', #1115, .T. ) ;
#170 = ORIENTED_EDGE ( 'NONE', *, *, #15, .F. ) ;
#171 = CARTESIAN_POINT ( 'NONE',  ( 0.07932536649866504808, 0.1698973942545594640, 0.02146219809499471179 ) ) ;
#172 = DIRECTION ( 'NONE',  ( 0.000000000000000000, 0.000000000000000000, 1.000000000000000000 ) ) ;
#173 = CARTESIAN_POINT ( 'NONE',  ( -0.08200000000000011446, 0.1612625096139151948, 1.004210375300831104E-17 ) ) ;
#174 = CARTESIAN_POINT ( 'NONE',  ( -8.432300196781435427E-18, 0.1612625096139151948, 0.000000000000000000 ) ) ;
#175 = ORIENTED_EDGE ( 'NONE', *, *, #762, .T. ) ;
#176 = CARTESIAN_POINT ( 'NONE',  ( 0.07774187897311819750, 0.1706388864893221835, 0.02663393165450335040 ) ) ;
#177 = AXIS2_PLACEMENT_3D ( 'NONE', #412, #1051, #143 ) ;
#178 = AXIS2_PLACEMENT_3D ( 'NONE', #382, #681, #492 ) ;
#179 = DIRECTION ( 'NONE',  ( 1.000000000000000000, 0.000000000000000000, 0.000000000000000000 ) ) ;
#180 = AXIS2_PLACEMENT_3D ( 'NONE', #593, #47, #131 ) ;
#181 = CC_DESIGN_PERSON_AND_ORGANIZATION_ASSIGNMENT ( #203, #448, ( #533 ) ) ;
#182 = CARTESIAN_POINT ( 'NONE',  ( 0.03608439182435159431, 0.1249999999999997086, 8.484575759877524643E-17 ) ) ;
#183 = EDGE_CURVE ( 'NONE', #629, #1031, #487, .T. ) ;
#184 = ORIENTED_EDGE ( 'NONE', *, *, #159, .F. ) ;
#185 = CARTESIAN_POINT ( 'NONE',  ( 0.05422597289934082132, 0.1795306899568553938, 0.06173751010320802091 ) ) ;
#186 = CARTESIAN_POINT ( 'NONE',  ( -0.06250000000000000000, 0.000000000000000000, 0.1250000000000000000 ) ) ;
#187 = APPLICATION_CONTEXT ( 'configuration controlled 3d designs of mechanical parts and assemblies' ) ;
#188 = EDGE_LOOP ( 'NONE', ( #896, #296 ) ) ;
#189 = CARTESIAN_POINT ( 'NONE',  ( 0.05595676133510151667, 0.02812678174979700574, -0.05998054980638247574 ) ) ;
#190 = ADVANCED_FACE ( 'NONE', ( #767 ), #419, .T. ) ;
#191 = DIRECTION ( 'NONE',  ( 1.000000000000000000, 0.000000000000000000, 0.000000000000000000 ) ) ;
#192 = EDGE_CURVE ( 'NONE', #1038, #97, #51, .T. ) ;
#193 = AXIS2_PLACEMENT_3D ( 'NONE', #164, #516, #880 ) ;
#194 = CIRCLE ( 'NONE', #45, 0.003750000000000002897 ) ;
#195 = PERSON ( 'UNSPECIFIED', 'UNSPECIFIED', 'UNSPECIFIED', ('UNSPECIFIED'), ('UNSPECIFIED'), ('UNSPECIFIED') ) ;
#196 = VECTOR ( 'NONE', #1015, 39.37007874015748143 ) ;
#197 = CIRCLE ( 'NONE', #180, 0.1837500000000000244 ) ;
#198 = DATE_AND_TIME ( #833, #378 ) ;
#199 = VERTEX_POINT ( 'NONE', #74 ) ;
#200 = CARTESIAN_POINT ( 'NONE',  ( -0.01804219591217584920, 0.1249999999999997086, -0.03124999999999989592 ) ) ;
#201 = CARTESIAN_POINT ( 'NONE',  ( -0.06250000000000000000, 0.000000000000000000, 0.1250000000000000000 ) ) ;
#202 = CC_DESIGN_DATE_AND_TIME_ASSIGNMENT ( #1098, #744, ( #533 ) ) ;
#203 = PERSON_AND_ORGANIZATION ( #195, #800 ) ;
#204 = VERTEX_POINT ( 'NONE', #602 ) ;
#205 = CARTESIAN_POINT ( 'NONE',  ( 0.06250000000000001388, 0.004361296857094634598, 0.05308248298638655605 ) ) ;
#206 = DIRECTION ( 'NONE',  ( -5.228927800373149648E-17, 1.000000000000000000, -0.000000000000000000 ) ) ;
#207 = ORIENTED_EDGE ( 'NONE', *, *, #693, .F. ) ;
#208 = ORIENTED_EDGE ( 'NONE', *, *, #939, .T. ) ;
#209 = LINE ( 'NONE', #569, #234 ) ;
#210 = CARTESIAN_POINT ( 'NONE',  ( -0.06250000000000004163, 0.008703092678595520867, 0.05308248298638668788 ) ) ;
#211 = ORIENTED_EDGE ( 'NONE', *, *, #973, .T. ) ;
#212 = TOROIDAL_SURFACE ( 'NONE', #157, 0.1837500000000000244, 0.003750000000000000729 ) ;
#213 = VECTOR ( 'NONE', #898, 39.37007874015748143 ) ;
#214 = CIRCLE ( 'NONE', #991, 0.1875000000000000278 ) ;
#215 = ORIENTED_EDGE ( 'NONE', *, *, #812, .F. ) ;
#216 = CARTESIAN_POINT ( 'NONE',  ( 0.03230177232624020789, 0.05414009277251555230, -0.07578903907616793556 ) ) ;
#217 = CARTESIAN_POINT ( 'NONE',  ( 0.01804219591217579716, 0.1874999999999996947, 0.03125000000000009714 ) ) ;
#218 = EDGE_LOOP ( 'NONE', ( #595, #38 ) ) ;
#219 = VERTEX_POINT ( 'NONE', #229 ) ;
#220 = CARTESIAN_POINT ( 'NONE',  ( 2.983298677391263757E-19, 0.1875000000000000278, -0.08199999999999996181 ) ) ;
#221 = ADVANCED_FACE ( 'NONE', ( #874, #793 ), #1129, .T. ) ;
#222 = CARTESIAN_POINT ( 'NONE',  ( -0.07104419318852779608, 0.1735482651247498009, 0.04128881289632017892 ) ) ;
#223 = CARTESIAN_POINT ( 'NONE',  ( -0.08200000000000011446, 0.06249999999999999306, 0.000000000000000000 ) ) ;
#224 = CARTESIAN_POINT ( 'NONE',  ( 0.000000000000000000, 0.000000000000000000, 0.1212500000000000105 ) ) ;
#225 = ADVANCED_FACE ( 'NONE', ( #237 ), #288, .F. ) ;
#226 = CARTESIAN_POINT ( 'NONE',  ( -0.01804219591217584920, 0.1249999999999997086, -0.03124999999999989592 ) ) ;
#227 = ORIENTED_EDGE ( 'NONE', *, *, #900, .F. ) ;
#228 = ADVANCED_FACE ( 'NONE', ( #407, #773 ), #598, .F. ) ;
#229 = CARTESIAN_POINT ( 'NONE',  ( -0.08200000000000011446, 0.08873749038608480522, 0.000000000000000000 ) ) ;
#230 = CIRCLE ( 'NONE', #375, 0.003749999999999994223 ) ;
#231 = CIRCLE ( 'NONE', #468, 0.003749999999999994223 ) ;
#232 = CARTESIAN_POINT ( 'NONE',  ( -0.03608439182435164982, 0.1874999999999996947, 9.444386341299240339E-17 ) ) ;
#233 = ORIENTED_EDGE ( 'NONE', *, *, #615, .F. ) ;
#234 = VECTOR ( 'NONE', #842, 39.37007874015749564 ) ;
#235 = DIRECTION ( 'NONE',  ( -0.000000000000000000, -0.000000000000000000, -1.000000000000000000 ) ) ;
#236 = CARTESIAN_POINT ( 'NONE',  ( -0.05576250961391531619, 0.06250000000000001388, 0.000000000000000000 ) ) ;
#237 = FACE_OUTER_BOUND ( 'NONE', #1138, .T. ) ;
#238 = CARTESIAN_POINT ( 'NONE',  ( 0.000000000000000000, 0.000000000000000000, 0.1250000000000000000 ) ) ;
#239 = VERTEX_POINT ( 'NONE', #1056 ) ;
#240 = ORIENTED_EDGE ( 'NONE', *, *, #1102, .T. ) ;
#241 = CARTESIAN_POINT ( 'NONE',  ( -0.04157037188870211369, 0.1831115721215184899, 0.07149807261557453164 ) ) ;
#242 = CARTESIAN_POINT ( 'NONE',  ( 1.004210375300830334E-17, 0.1875000000000000278, 0.08200000000000015610 ) ) ;
#243 = CYLINDRICAL_SURFACE ( 'NONE', #193, 0.06250000000000000000 ) ;
#244 = ORIENTED_EDGE ( 'NONE', *, *, #312, .T. ) ;
#245 = CARTESIAN_POINT ( 'NONE',  ( -0.06514329207848008896, 0.1758483130735041811, 0.05008387917657761840 ) ) ;
#246 = DIRECTION ( 'NONE',  ( 0.000000000000000000, 0.000000000000000000, 1.000000000000000000 ) ) ;
#247 = CARTESIAN_POINT ( 'NONE',  ( 0.06625000000000000333, 0.000000000000000000, -0.1212500000000000105 ) ) ;
#248 = DIRECTION ( 'NONE',  ( 0.000000000000000000, 0.000000000000000000, 1.000000000000000000 ) ) ;
#249 = CIRCLE ( 'NONE', #430, 0.05576250961391531619 ) ;
#250 = VERTEX_POINT ( 'NONE', #1136 ) ;
#251 = CARTESIAN_POINT ( 'NONE',  ( 0.000000000000000000, 0.000000000000000000, 0.1212500000000000105 ) ) ;
#252 = CARTESIAN_POINT ( 'NONE',  ( -0.01804219591217584920, 0.1249999999999997086, -0.03124999999999989592 ) ) ;
#253 = CIRCLE ( 'NONE', #178, 0.003750000000000002897 ) ;
#254 = VECTOR ( 'NONE', #309, 39.37007874015748143 ) ;
#255 = DIRECTION ( 'NONE',  ( -0.000000000000000000, -1.000000000000000000, -0.000000000000000000 ) ) ;
#256 = ORIENTED_EDGE ( 'NONE', *, *, #535, .F. ) ;
#257 = CARTESIAN_POINT ( 'NONE',  ( 0.06250000000000000000, 7.654042494670957545E-18, 0.1212500000000000105 ) ) ;
#258 = EDGE_LOOP ( 'NONE', ( #584, #280, #416, #153 ) ) ;
#259 = FACE_OUTER_BOUND ( 'NONE', #749, .T. ) ;
#260 = PLANE ( 'NONE',  #1061 ) ;
#261 = EDGE_CURVE ( 'NONE', #204, #1031, #960, .T. ) ;
#262 = CARTESIAN_POINT ( 'NONE',  ( 0.000000000000000000, 0.000000000000000000, 0.1250000000000000000 ) ) ;
#263 = DIRECTION ( 'NONE',  ( -1.000000000000000000, -1.041100607341562302E-16, 0.000000000000000000 ) ) ;
#264 = ORIENTED_EDGE ( 'NONE', *, *, #907, .F. ) ;
#265 = CARTESIAN_POINT ( 'NONE',  ( 0.03652388823335898926, 0.1839761480968291063, 0.07361042300290272788 ) ) ;
#266 = DIRECTION ( 'NONE',  ( 0.000000000000000000, 0.000000000000000000, 1.000000000000000000 ) ) ;
#267 = EDGE_CURVE ( 'NONE', #104, #840, #118, .T. ) ;
#268 = ORIENTED_EDGE ( 'NONE', *, *, #892, .F. ) ;
#269 = CARTESIAN_POINT ( 'NONE',  ( 0.05429851556112827438, 0.1795085142391611710, -0.06167283650495831299 ) ) ;
#270 = AXIS2_PLACEMENT_3D ( 'NONE', #456, #128, #479 ) ;
#271 = CARTESIAN_POINT ( 'NONE',  ( -0.06250000000000000000, -9.949926624806815223E-17, -0.05308248298638636870 ) ) ;
#272 = APPROVAL_PERSON_ORGANIZATION ( #1005, #656, #1085 ) ;
#273 = PERSON_AND_ORGANIZATION_ROLE ( 'design_owner' ) ;
#274 = EDGE_LOOP ( 'NONE', ( #1132, #31, #349, #207 ) ) ;
#275 = DIRECTION ( 'NONE',  ( 0.000000000000000000, 0.000000000000000000, 1.000000000000000000 ) ) ;
#276 = CARTESIAN_POINT ( 'NONE',  ( -0.06204993510552200137, 0.008576361129488018625, -0.05362303317405069103 ) ) ;
#277 = EDGE_CURVE ( 'NONE', #1087, #380, #965, .T. ) ;
#278 = APPROVAL_DATE_TIME ( #21, #656 ) ;
#279 = ADVANCED_FACE ( 'NONE', ( #966 ), #243, .F. ) ;
#280 = ORIENTED_EDGE ( 'NONE', *, *, #1091, .F. ) ;
#281 = CARTESIAN_POINT ( 'NONE',  ( 0.1837500000000000244, 0.000000000000000000, 0.1250000000000000000 ) ) ;
#282 = CARTESIAN_POINT ( 'NONE',  ( -0.03897270229854716411, 0.04948596739052295995, 0.07244390762291672003 ) ) ;
#283 = PERSON_AND_ORGANIZATION_ROLE ( 'creator' ) ;
#284 = ORIENTED_EDGE ( 'NONE', *, *, #312, .F. ) ;
#285 = CARTESIAN_POINT ( 'NONE',  ( 0.06204993510552198749, 0.008576361129488013421, 0.05362303317405088532 ) ) ;
#286 = AXIS2_PLACEMENT_3D ( 'NONE', #691, #422, #776 ) ;
#287 = CARTESIAN_POINT ( 'NONE',  ( -1.377129482043804154E-14, 0.06250000000010978718, -0.08200000000008363099 ) ) ;
#288 = CONICAL_SURFACE ( 'NONE', #873, 0.03148498846330174961, 0.7853981633974482790 ) ;
#289 = APPROVAL_PERSON_ORGANIZATION ( #29, #777, #546 ) ;
#290 = ORIENTED_EDGE ( 'NONE', *, *, #936, .T. ) ;
#291 = CARTESIAN_POINT ( 'NONE',  ( 0.04998227829771671044, 0.03832824293509350805, 0.06533322754843648439 ) ) ;
#292 = EDGE_CURVE ( 'NONE', #122, #42, #719, .T. ) ;
#293 = DIRECTION ( 'NONE',  ( 1.000000000000000000, 0.000000000000000000, 0.000000000000000000 ) ) ;
#294 = APPLICATION_CONTEXT ( 'configuration controlled 3d designs of mechanical parts and assemblies' ) ;
#295 = SECURITY_CLASSIFICATION_LEVEL ( 'unclassified' ) ;
#296 = ORIENTED_EDGE ( 'NONE', *, *, #822, .T. ) ;
#297 = DIRECTION ( 'NONE',  ( -5.228927800373149648E-17, 1.000000000000000000, -0.000000000000000000 ) ) ;
#298 = CARTESIAN_POINT ( 'NONE',  ( 0.000000000000000000, 0.000000000000000000, -0.1212500000000000105 ) ) ;
#299 = ORIENTED_EDGE ( 'NONE', *, *, #473, .F. ) ;
#300 = ORIENTED_EDGE ( 'NONE', *, *, #424, .F. ) ;
#301 = DIRECTION ( 'NONE',  ( -1.000000000000000000, 0.000000000000000000, 0.000000000000000000 ) ) ;
#302 = CARTESIAN_POINT ( 'NONE',  ( 0.06625000000000000333, 0.000000000000000000, 0.1212500000000000105 ) ) ;
#303 = ORIENTED_EDGE ( 'NONE', *, *, #982, .F. ) ;
#304 = AXIS2_PLACEMENT_3D ( 'NONE', #247, #607, #692 ) ;
#305 = EDGE_CURVE ( 'NONE', #219, #449, #337, .T. ) ;
#306 = TOROIDAL_SURFACE ( 'NONE', #1080, 0.1837500000000000244, 0.003750000000000000729 ) ;
#307 = AXIS2_PLACEMENT_3D ( 'NONE', #224, #769, #578 ) ;
#308 = ORIENTED_EDGE ( 'NONE', *, *, #551, .F. ) ;
#309 = DIRECTION ( 'NONE',  ( -1.000000000000000000, 0.000000000000000000, -2.365849761790801049E-16 ) ) ;
#310 = CARTESIAN_POINT ( 'NONE',  ( -0.01804219591217583185, 0.1249999999999997086, 0.03125000000000009021 ) ) ;
#311 = ORIENTED_EDGE ( 'NONE', *, *, #495, .F. ) ;
#312 = EDGE_CURVE ( 'NONE', #1038, #1087, #135, .T. ) ;
#313 = CARTESIAN_POINT ( 'NONE',  ( 0.000000000000000000, 0.1875000000000000278, -0.08199999999999996181 ) ) ;
#314 = EDGE_CURVE ( 'NONE', #505, #148, #194, .T. ) ;
#315 = LINE ( 'NONE', #226, #488 ) ;
#316 = ORIENTED_EDGE ( 'NONE', *, *, #684, .F. ) ;
#317 = CARTESIAN_POINT ( 'NONE',  ( -0.06625000000000000333, 8.113285044351215521E-18, -0.1250000000000000000 ) ) ;
#318 = CARTESIAN_POINT ( 'NONE',  ( -0.03608439182435164982, 0.1249999999999997086, 9.444386341299240339E-17 ) ) ;
#319 = EDGE_LOOP ( 'NONE', ( #624, #170, #364, #454 ) ) ;
#320 = CARTESIAN_POINT ( 'NONE',  ( 0.000000000000000000, 0.000000000000000000, -0.1212500000000000105 ) ) ;
#321 = DIRECTION ( 'NONE',  ( -0.000000000000000000, -0.000000000000000000, -1.000000000000000000 ) ) ;
#322 = CC_DESIGN_PERSON_AND_ORGANIZATION_ASSIGNMENT ( #11, #379, ( #437 ) ) ;
#323 = CARTESIAN_POINT ( 'NONE',  ( 0.06250000000000000000, -9.949926624806815223E-17, 0.1250000000000000000 ) ) ;
#324 = DIRECTION ( 'NONE',  ( 0.8660254037844387076, -0.000000000000000000, 0.4999999999999999445 ) ) ;
#325 = LOCAL_TIME ( 22, 50, 23.00000000000000000, #1090 ) ;
#326 = CARTESIAN_POINT ( 'NONE',  ( 1.378133692333909811E-14, 0.06250000000010978718, 0.08200000000008383916 ) ) ;
#327 = CARTESIAN_POINT ( 'NONE',  ( -0.1837500000000000244, 2.250288493433261774E-17, -0.1212500000000000105 ) ) ;
#328 = EDGE_CURVE ( 'NONE', #1152, #1025, #1039, .T. ) ;
#329 = DIRECTION ( 'NONE',  ( 0.000000000000000000, 0.000000000000000000, 1.000000000000000000 ) ) ;
#330 = DIRECTION ( 'NONE',  ( -0.000000000000000000, -0.000000000000000000, -1.000000000000000000 ) ) ;
#331 = CARTESIAN_POINT ( 'NONE',  ( -0.07105097694511321171, 0.1735455936902064455, -0.04127841035113533064 ) ) ;
#332 = CARTESIAN_POINT ( 'NONE',  ( 0.000000000000000000, 0.000000000000000000, 0.1250000000000000000 ) ) ;
#333 = DIRECTION ( 'NONE',  ( 0.000000000000000000, -0.000000000000000000, -1.000000000000000000 ) ) ;
#334 = ORIENTED_EDGE ( 'NONE', *, *, #589, .F. ) ;
#335 = FACE_OUTER_BOUND ( 'NONE', #670, .T. ) ;
#336 = FACE_OUTER_BOUND ( 'NONE', #1027, .T. ) ;
#337 = LINE ( 'NONE', #223, #891 ) ;
#338 = EDGE_CURVE ( 'NONE', #1152, #97, #168, .T. ) ;
#339 = AXIS2_PLACEMENT_3D ( 'NONE', #33, #1111, #570 ) ;
#340 = CARTESIAN_POINT ( 'NONE',  ( 0.000000000000000000, -9.949926624806815223E-17, 1.024442997624098707E-16 ) ) ;
#341 = TOROIDAL_SURFACE ( 'NONE', #816, 0.1837500000000000244, 0.003750000000000000729 ) ;
#342 = VERTEX_POINT ( 'NONE', #987 ) ;
#343 = CARTESIAN_POINT ( 'NONE',  ( 0.06170814329237617885, 0.1770983620044865314, 0.05425938943658809022 ) ) ;
#344 = CARTESIAN_POINT ( 'NONE',  ( 0.06250000000000000000, -9.949926624806815223E-17, 0.05308248298638657686 ) ) ;
#345 = VECTOR ( 'NONE', #549, 39.37007874015748143 ) ;
#346 = AXIS2_PLACEMENT_3D ( 'NONE', #439, #88, #983 ) ;
#347 = FACE_OUTER_BOUND ( 'NONE', #1020, .T. ) ;
#348 = DIRECTION ( 'NONE',  ( 5.228927800373149648E-17, -1.000000000000000000, 0.000000000000000000 ) ) ;
#349 = ORIENTED_EDGE ( 'NONE', *, *, #1149, .F. ) ;
#350 = ADVANCED_FACE ( 'NONE', ( #813 ), #708, .F. ) ;
#351 = EDGE_LOOP ( 'NONE', ( #523, #256, #862, #682 ) ) ;
#352 = CARTESIAN_POINT ( 'NONE',  ( 0.07771371636976943942, 0.1706513207800312570, -0.02670175633019931244 ) ) ;
#353 = EDGE_CURVE ( 'NONE', #588, #1047, #717, .T. ) ;
#354 = ORIENTED_EDGE ( 'NONE', *, *, #134, .T. ) ;
#355 = PLANE ( 'NONE',  #778 ) ;
#356 = CARTESIAN_POINT ( 'NONE',  ( -4.640019304151439463E-18, 0.08873749038608480522, 0.000000000000000000 ) ) ;
#357 = ORIENTED_EDGE ( 'NONE', *, *, #429, .T. ) ;
#358 = CARTESIAN_POINT ( 'NONE',  ( 0.000000000000000000, 0.000000000000000000, 0.1250000000000000000 ) ) ;
#359 = CARTESIAN_POINT ( 'NONE',  ( 0.000000000000000000, 0.1875000000000000278, 1.024442997624098707E-16 ) ) ;
#360 = DIRECTION ( 'NONE',  ( 1.000000000000000000, 0.000000000000000000, 0.000000000000000000 ) ) ;
#361 = EDGE_LOOP ( 'NONE', ( #17, #434, #1034, #738 ) ) ;
#362 = DIRECTION ( 'NONE',  ( 0.000000000000000000, 0.000000000000000000, -1.000000000000000000 ) ) ;
#363 = CARTESIAN_POINT ( 'NONE',  ( -0.01693414468733658168, 0.06031099794452428331, -0.08034204368401677565 ) ) ;
#364 = ORIENTED_EDGE ( 'NONE', *, *, #684, .T. ) ;
#365 = EDGE_CURVE ( 'NONE', #732, #750, #1019, .T. ) ;
#366 = TOROIDAL_SURFACE ( 'NONE', #307, 0.06625000000000000333, 0.003750000000000000729 ) ;
#367 = EDGE_LOOP ( 'NONE', ( #6, #354, #1107, #984, #568, #81 ) ) ;
#368 = FACE_OUTER_BOUND ( 'NONE', #126, .T. ) ;
#369 = CARTESIAN_POINT ( 'NONE',  ( 0.000000000000000000, 0.000000000000000000, 0.1250000000000000000 ) ) ;
#370 = ORIENTED_EDGE ( 'NONE', *, *, #731, .F. ) ;
#371 = DIRECTION ( 'NONE',  ( 2.365849761790801049E-16, 0.000000000000000000, -1.000000000000000000 ) ) ;
#372 = DIRECTION ( 'NONE',  ( -1.000000000000000000, 0.000000000000000000, -2.365849761790801049E-16 ) ) ;
#373 = EDGE_LOOP ( 'NONE', ( #482, #93 ) ) ;
#374 = CARTESIAN_POINT ( 'NONE',  ( 0.04723509791450926365, 0.04111527876913270013, -0.06710881718551545139 ) ) ;
#375 = AXIS2_PLACEMENT_3D ( 'NONE', #327, #707, #621 ) ;
#376 = DIRECTION ( 'NONE',  ( -0.4999999999999996114, 0.000000000000000000, 0.8660254037844388186 ) ) ;
#377 = CIRCLE ( 'NONE', #1042, 0.06250000000000000000 ) ;
#378 = LOCAL_TIME ( 22, 50, 23.00000000000000000, #16 ) ;
#379 = PERSON_AND_ORGANIZATION_ROLE ( 'creator' ) ;
#380 = VERTEX_POINT ( 'NONE', #633 ) ;
#381 = CARTESIAN_POINT ( 'NONE',  ( 0.03608439182435159431, 0.1249999999999997086, 8.484575759877524643E-17 ) ) ;
#382 = CARTESIAN_POINT ( 'NONE',  ( -0.06625000000000000333, 8.113285044351215521E-18, 0.1212500000000000105 ) ) ;
#383 = ORIENTED_EDGE ( 'NONE', *, *, #519, .F. ) ;
#384 = COORDINATED_UNIVERSAL_TIME_OFFSET ( 6, 0, .BEHIND. ) ;
#385 = VERTEX_POINT ( 'NONE', #539 ) ;
#386 = CARTESIAN_POINT ( 'NONE',  ( 0.000000000000000000, 0.000000000000000000, 0.1250000000000000000 ) ) ;
#387 = DIRECTION ( 'NONE',  ( 0.000000000000000000, 0.000000000000000000, 1.000000000000000000 ) ) ;
#388 = ORIENTED_EDGE ( 'NONE', *, *, #1113, .T. ) ;
#389 = ADVANCED_FACE ( 'NONE', ( #347 ), #355, .T. ) ;
#390 = ORIENTED_EDGE ( 'NONE', *, *, #1149, .T. ) ;
#391 = CARTESIAN_POINT ( 'NONE',  ( 1.378133692333909811E-14, 0.06250000000010978718, 0.08200000000008383916 ) ) ;
#392 = DIRECTION ( 'NONE',  ( -1.000000000000000000, 0.000000000000000000, 0.000000000000000000 ) ) ;
#393 = ORIENTED_EDGE ( 'NONE', *, *, #397, .F. ) ;
#394 = AXIS2_PLACEMENT_3D ( 'NONE', #972, #83, #601 ) ;
#395 = EDGE_CURVE ( 'NONE', #1038, #97, #102, .T. ) ;
#396 = AXIS2_PLACEMENT_3D ( 'NONE', #403, #700, #1045 ) ;
#397 = EDGE_CURVE ( 'NONE', #840, #104, #509, .T. ) ;
#398 = AXIS2_PLACEMENT_3D ( 'NONE', #1009, #462, #904 ) ;
#399 = ORIENTED_EDGE ( 'NONE', *, *, #1066, .F. ) ;
#400 = CARTESIAN_POINT ( 'NONE',  ( 0.03148498846330174961, 0.06250000000000000000, 0.000000000000000000 ) ) ;
#401 = CARTESIAN_POINT ( 'NONE',  ( -0.01097107950034179220, 0.1872537752944037903, -0.08144111468184829505 ) ) ;
#402 = ORIENTED_EDGE ( 'NONE', *, *, #747, .F. ) ;
#403 = CARTESIAN_POINT ( 'NONE',  ( 0.000000000000000000, 0.000000000000000000, -0.1250000000000000000 ) ) ;
#404 = FACE_OUTER_BOUND ( 'NONE', #361, .T. ) ;
#405 = CARTESIAN_POINT ( 'NONE',  ( -0.08200000000000011446, 0.08873749038608480522, 0.000000000000000000 ) ) ;
#406 = EDGE_LOOP ( 'NONE', ( #503, #810, #943, #1128 ) ) ;
#407 = FACE_BOUND ( 'NONE', #1144, .T. ) ;
#408 = DIRECTION ( 'NONE',  ( 0.5000000000000000000, 0.000000000000000000, 0.8660254037844385966 ) ) ;
#409 = ADVANCED_FACE ( 'NONE', ( #908 ), #526, .F. ) ;
#410 = CARTESIAN_POINT ( 'NONE',  ( -0.005487358129080178309, 0.1875000000000000833, -0.08199999999999998956 ) ) ;
#411 = CARTESIAN_POINT ( 'NONE',  ( -0.1837500000000000244, 2.273250620917274442E-17, 0.1250000000000000000 ) ) ;
#412 = CARTESIAN_POINT ( 'NONE',  ( 0.000000000000000000, 0.000000000000000000, 0.1250000000000000000 ) ) ;
#413 = VECTOR ( 'NONE', #372, 39.37007874015748143 ) ;
#414 = VECTOR ( 'NONE', #937, 39.37007874015748143 ) ;
#415 = VECTOR ( 'NONE', #851, 39.37007874015748143 ) ;
#416 = ORIENTED_EDGE ( 'NONE', *, *, #1066, .T. ) ;
#417 = CARTESIAN_POINT ( 'NONE',  ( -0.07361561887180098629, 0.1724588336598167349, 0.03651417632561564791 ) ) ;
#418 = DIRECTION ( 'NONE',  ( -1.000000000000000000, -5.228927800373149648E-17, 0.000000000000000000 ) ) ;
#419 = CYLINDRICAL_SURFACE ( 'NONE', #628, 0.08200000000000011446 ) ;
#420 = CARTESIAN_POINT ( 'NONE',  ( -0.05576250961391531619, 0.1874999999999999722, 6.828937891110489997E-18 ) ) ;
#421 = DIRECTION ( 'NONE',  ( 1.000000000000000000, 5.228927800373149648E-17, 0.000000000000000000 ) ) ;
#422 = DIRECTION ( 'NONE',  ( -5.228927800373149648E-17, 1.000000000000000000, -0.000000000000000000 ) ) ;
#423 = CARTESIAN_POINT ( 'NONE',  ( -0.03608439182435164982, 0.1249999999999997086, 9.444386341299240339E-17 ) ) ;
#424 = EDGE_CURVE ( 'NONE', #110, #562, #481, .T. ) ;
#425 = CARTESIAN_POINT ( 'NONE',  ( 0.07154832726778725949, 0.1733703170933883209, -0.04145429866316449607 ) ) ;
#426 = DIRECTION ( 'NONE',  ( 1.000000000000000000, 0.000000000000000000, -0.000000000000000000 ) ) ;
#427 = CYLINDRICAL_SURFACE ( 'NONE', #667, 0.08200000000000005895 ) ;
#428 = EDGE_CURVE ( 'NONE', #42, #122, #249, .T. ) ;
#429 = EDGE_CURVE ( 'NONE', #110, #505, #438, .T. ) ;
#430 = AXIS2_PLACEMENT_3D ( 'NONE', #724, #637, #1063 ) ;
#431 = DIRECTION ( 'NONE',  ( -1.000000000000000000, 0.000000000000000000, 0.000000000000000000 ) ) ;
#432 = EDGE_LOOP ( 'NONE', ( #556, #240, #710, #493 ) ) ;
#433 = CIRCLE ( 'NONE', #741, 0.1875000000000000278 ) ;
#434 = ORIENTED_EDGE ( 'NONE', *, *, #610, .T. ) ;
#435 = FACE_BOUND ( 'NONE', #188, .T. ) ;
#436 = CARTESIAN_POINT ( 'NONE',  ( 0.000000000000000000, 0.000000000000000000, -0.1212500000000000105 ) ) ;
#437 = PRODUCT_DEFINITION_FORMATION_WITH_SPECIFIED_SOURCE ( 'ANY', '', #1143, .NOT_KNOWN. ) ;
#438 = LINE ( 'NONE', #186, #160 ) ;
#439 = CARTESIAN_POINT ( 'NONE',  ( -9.804239625699654820E-18, 0.1874999999999999722, 0.000000000000000000 ) ) ;
#440 = ORIENTED_EDGE ( 'NONE', *, *, #856, .F. ) ;
#441 = CARTESIAN_POINT ( 'NONE',  ( -2.561107494060246767E-17, 0.1249999999999997086, -0.06249999999999993061 ) ) ;
#442 = CARTESIAN_POINT ( 'NONE',  ( 0.03608439182435159431, 0.1249999999999997086, 8.484575759877524643E-17 ) ) ;
#443 = VERTEX_POINT ( 'NONE', #544 ) ;
#444 = CARTESIAN_POINT ( 'NONE',  ( 0.05014901094873996934, 0.1807269258036783011, 0.06509679645762440903 ) ) ;
#445 = ADVANCED_FACE ( 'NONE', ( #14 ), #427, .F. ) ;
#446 = ORIENTED_EDGE ( 'NONE', *, *, #973, .F. ) ;
#447 = DIRECTION ( 'NONE',  ( 0.000000000000000000, 0.000000000000000000, 1.000000000000000000 ) ) ;
#448 = PERSON_AND_ORGANIZATION_ROLE ( 'classification_officer' ) ;
#449 = VERTEX_POINT ( 'NONE', #173 ) ;
#450 = DIRECTION ( 'NONE',  ( -0.000000000000000000, -0.000000000000000000, -1.000000000000000000 ) ) ;
#451 = VECTOR ( 'NONE', #124, 39.37007874015748143 ) ;
#452 = DIRECTION ( 'NONE',  ( 1.000000000000000000, 0.000000000000000000, 0.000000000000000000 ) ) ;
#453 = CALENDAR_DATE ( 2025, 7, 3 ) ;
#454 = ORIENTED_EDGE ( 'NONE', *, *, #535, .T. ) ;
#455 = CARTESIAN_POINT ( 'NONE',  ( 0.05440860051169421618, 0.03177828201240562311, 0.06150542913385223520 ) ) ;
#456 = CARTESIAN_POINT ( 'NONE',  ( 0.1837500000000000244, 0.000000000000000000, 0.1212500000000000105 ) ) ;
#457 = DATE_AND_TIME ( #453, #781 ) ;
#458 = EDGE_LOOP ( 'NONE', ( #758, #869, #976, #244, #388, #1092, #836, #383 ) ) ;
#459 = CARTESIAN_POINT ( 'NONE',  ( 0.06065338117957209951, 0.01707387812836997157, -0.05535764922974322627 ) ) ;
#460 = LINE ( 'NONE', #115, #572 ) ;
#461 = EDGE_CURVE ( 'NONE', #342, #721, #25, .T. ) ;
#462 = DIRECTION ( 'NONE',  ( 0.000000000000000000, 0.000000000000000000, 1.000000000000000000 ) ) ;
#463 = EDGE_CURVE ( 'NONE', #1123, #766, #1001, .T. ) ;
#464 = EDGE_LOOP ( 'NONE', ( #581, #316, #184, #652, #399, #956 ) ) ;
#465 = CARTESIAN_POINT ( 'NONE',  ( 0.06250000000000000000, -9.949926624806815223E-17, -0.05308248298638636870 ) ) ;
#466 = DIRECTION ( 'NONE',  ( -5.228927800373149648E-17, 1.000000000000000000, -0.000000000000000000 ) ) ;
#467 = VERTEX_POINT ( 'NONE', #743 ) ;
#468 = AXIS2_PLACEMENT_3D ( 'NONE', #302, #564, #665 ) ;
#469 = CC_DESIGN_APPROVAL ( #828, ( #437 ) ) ;
#470 = SHAPE_DEFINITION_REPRESENTATION ( #788, #985 ) ;
#471 = ORIENTED_EDGE ( 'NONE', *, *, #183, .T. ) ;
#472 = DIRECTION ( 'NONE',  ( 0.000000000000000000, -1.000000000000000000, 0.000000000000000000 ) ) ;
#473 = EDGE_CURVE ( 'NONE', #619, #820, #545, .T. ) ;
#474 = DIRECTION ( 'NONE',  ( 0.000000000000000000, -1.000000000000000000, 0.000000000000000000 ) ) ;
#475 = ORIENTED_EDGE ( 'NONE', *, *, #870, .T. ) ;
#476 = ORIENTED_EDGE ( 'NONE', *, *, #478, .T. ) ;
#477 = DIRECTION ( 'NONE',  ( 0.000000000000000000, 0.000000000000000000, 1.000000000000000000 ) ) ;
#478 = EDGE_CURVE ( 'NONE', #443, #104, #990, .T. ) ;
#479 = DIRECTION ( 'NONE',  ( 0.000000000000000000, 0.000000000000000000, -1.000000000000000000 ) ) ;
#480 = ORIENTED_EDGE ( 'NONE', *, *, #954, .T. ) ;
#481 = B_SPLINE_CURVE_WITH_KNOTS ( 'NONE', 3,
 ( #271, #101, #276, #884, #903, #890, #998, #95, #8, #622, #363, #821, #974, #1156 ),
 .UNSPECIFIED., .F., .F.,
 ( 4, 2, 2, 2, 2, 2, 4 ),
 ( 7.170176153343155345E-20, 0.0003253670378238781614, 0.0006507340756477563229, 0.001301468151295513079, 0.001952202226943269619, 0.002277569264767148431, 0.002602936302591026593 ),
 .UNSPECIFIED. ) ;
#482 = ORIENTED_EDGE ( 'NONE', *, *, #397, .T. ) ;
#483 = CARTESIAN_POINT ( 'NONE',  ( 0.08200000000000011446, 0.08873749038608480522, 1.004210375300830950E-17 ) ) ;
#484 = CARTESIAN_POINT ( 'NONE',  ( 0.08200000000000011446, 0.08873749038608480522, 1.004210375300830950E-17 ) ) ;
#485 = VERTEX_POINT ( 'NONE', #1016 ) ;
#486 = AXIS2_PLACEMENT_3D ( 'NONE', #520, #1078, #1075 ) ;
#487 = LINE ( 'NONE', #501, #988 ) ;
#488 = VECTOR ( 'NONE', #141, 39.37007874015748143 ) ;
#489 = CONICAL_SURFACE ( 'NONE', #346, 0.05576250961391530925, 0.7853981633974485010 ) ;
#490 = PLANE ( 'NONE',  #1099 ) ;
#491 = ORIENTED_EDGE ( 'NONE', *, *, #22, .T. ) ;
#492 = DIRECTION ( 'NONE',  ( -1.000000000000000000, 1.224646799147352221E-16, 0.000000000000000000 ) ) ;
#493 = ORIENTED_EDGE ( 'NONE', *, *, #20, .F. ) ;
#494 = CARTESIAN_POINT ( 'NONE',  ( -0.06625000000000000333, 8.113285044351215521E-18, -0.1212500000000000105 ) ) ;
#495 = EDGE_CURVE ( 'NONE', #380, #148, #1096, .T. ) ;
#496 = DIRECTION ( 'NONE',  ( -0.8660254037844387076, 0.000000000000000000, 0.5000000000000001110 ) ) ;
#497 = ORIENTED_EDGE ( 'NONE', *, *, #610, .F. ) ;
#498 = ORIENTED_EDGE ( 'NONE', *, *, #982, .T. ) ;
#499 = CARTESIAN_POINT ( 'NONE',  ( -0.05048786147367188143, 0.1807483437531491877, -0.06548726900224656478 ) ) ;
#500 = DIRECTION ( 'NONE',  ( -0.000000000000000000, -0.000000000000000000, -1.000000000000000000 ) ) ;
#501 = CARTESIAN_POINT ( 'NONE',  ( -0.03608439182435164982, 0.1249999999999997086, 9.444386341299240339E-17 ) ) ;
#502 = FACE_OUTER_BOUND ( 'NONE', #458, .T. ) ;
#503 = ORIENTED_EDGE ( 'NONE', *, *, #1018, .F. ) ;
#504 = CC_DESIGN_PERSON_AND_ORGANIZATION_ASSIGNMENT ( #561, #829, ( #437 ) ) ;
#505 = VERTEX_POINT ( 'NONE', #112 ) ;
#506 = CARTESIAN_POINT ( 'NONE',  ( -0.07930393171693528309, 0.1699074527238370047, 0.02154385946654347947 ) ) ;
#507 = CARTESIAN_POINT ( 'NONE',  ( -0.06250000000000000000, -9.949926624806815223E-17, -0.05308248298638636870 ) ) ;
#508 = DIRECTION ( 'NONE',  ( 5.228927800373149648E-17, -1.000000000000000000, 0.000000000000000000 ) ) ;
#509 = CIRCLE ( 'NONE', #759, 0.1837500000000000244 ) ;
#510 = AXIS2_PLACEMENT_3D ( 'NONE', #993, #1145, #421 ) ;
#511 = DIRECTION ( 'NONE',  ( -0.7071067811865476838, -0.7071067811865473507, 8.659560562354935323E-17 ) ) ;
#512 = CIRCLE ( 'NONE', #1157, 0.08200000000000011446 ) ;
#513 = FACE_OUTER_BOUND ( 'NONE', #406, .T. ) ;
#514 = CARTESIAN_POINT ( 'NONE',  ( 2.813716729328035765E-19, 0.09398498846330174961, 0.000000000000000000 ) ) ;
#515 = ADVANCED_FACE ( 'NONE', ( #928 ), #737, .T. ) ;
#516 = DIRECTION ( 'NONE',  ( -0.000000000000000000, -0.000000000000000000, -1.000000000000000000 ) ) ;
#517 = DIRECTION ( 'NONE',  ( 0.000000000000000000, 0.000000000000000000, 1.000000000000000000 ) ) ;
#518 = DIRECTION ( 'NONE',  ( 0.000000000000000000, 0.000000000000000000, 1.000000000000000000 ) ) ;
#519 = EDGE_CURVE ( 'NONE', #1025, #820, #106, .T. ) ;
#520 = CARTESIAN_POINT ( 'NONE',  ( 0.000000000000000000, 0.000000000000000000, 0.1250000000000000000 ) ) ;
#521 = EDGE_CURVE ( 'NONE', #750, #1152, #231, .T. ) ;
#522 = PLANE ( 'NONE',  #140 ) ;
#523 = ORIENTED_EDGE ( 'NONE', *, *, #680, .F. ) ;
#524 = CARTESIAN_POINT ( 'NONE',  ( 1.004220324764273643E-17, 0.1875000000000000278, 0.08200000000000015610 ) ) ;
#525 = LINE ( 'NONE', #242, #683 ) ;
#526 = CYLINDRICAL_SURFACE ( 'NONE', #852, 0.06250000000000000000 ) ;
#527 = TOROIDAL_SURFACE ( 'NONE', #26, 0.06625000000000000333, 0.003750000000000000729 ) ;
#528 = CIRCLE ( 'NONE', #270, 0.003749999999999994223 ) ;
#529 = FACE_OUTER_BOUND ( 'NONE', #594, .T. ) ;
#530 = AXIS2_PLACEMENT_3D ( 'NONE', #878, #675, #392 ) ;
#531 = EDGE_LOOP ( 'NONE', ( #745, #705, #475, #471 ) ) ;
#532 = PLANE ( 'NONE',  #48 ) ;
#533 = SECURITY_CLASSIFICATION ( '', '', #295 ) ;
#534 = CARTESIAN_POINT ( 'NONE',  ( 0.000000000000000000, -9.949926624806815223E-17, 1.024442997624098707E-16 ) ) ;
#535 = EDGE_CURVE ( 'NONE', #166, #766, #1024, .T. ) ;
#536 =( NAMED_UNIT ( * ) SI_UNIT ( $, .STERADIAN. ) SOLID_ANGLE_UNIT ( ) );
#537 = EDGE_LOOP ( 'NONE', ( #1010, #679, #233, #308 ) ) ;
#538 = CARTESIAN_POINT ( 'NONE',  ( 0.07104875389473927494, 0.1735465588662258862, 0.04128277884959251354 ) ) ;
#539 = CARTESIAN_POINT ( 'NONE',  ( 0.1875000000000000278, 2.296212748401287726E-17, -0.1212500000000000105 ) ) ;
#540 = APPROVAL_STATUS ( 'not_yet_approved' ) ;
#541 = VERTEX_POINT ( 'NONE', #217 ) ;
#542 = CARTESIAN_POINT ( 'NONE',  ( 0.03661380378179764777, 0.1839590620147977806, -0.07356809784860124379 ) ) ;
#543 = PRODUCT_RELATED_PRODUCT_CATEGORY ( 'detail', '', ( #1143 ) ) ;
#544 = CARTESIAN_POINT ( 'NONE',  ( -0.1875000000000000278, 0.000000000000000000, 0.1212500000000000105 ) ) ;
#545 = B_SPLINE_CURVE_WITH_KNOTS ( 'NONE', 3,
 ( #1089, #19, #847, #752, #282, #1012, #37, #660, #558, #734, #210, #922 ),
 .UNSPECIFIED., .F., .F.,
 ( 4, 2, 2, 2, 2, 4 ),
 ( 0.002602936302591026159, 0.003252834949422855892, 0.003902733596254684759, 0.004227682919670600059, 0.004552632243086514492, 0.005202530889918344226 ),
 .UNSPECIFIED. ) ;
#546 = APPROVAL_ROLE ( '' ) ;
#547 = CIRCLE ( 'NONE', #44, 0.1875000000000000278 ) ;
#548 = EDGE_LOOP ( 'NONE', ( #284, #753, #300, #357, #130 ) ) ;
#549 = DIRECTION ( 'NONE',  ( 0.000000000000000000, 1.000000000000000000, 0.000000000000000000 ) ) ;
#550 = AXIS2_PLACEMENT_3D ( 'NONE', #332, #329, #1035 ) ;
#551 = EDGE_CURVE ( 'NONE', #1076, #385, #814, .T. ) ;
#552 = VECTOR ( 'NONE', #161, 39.37007874015748854 ) ;
#553 = FACE_OUTER_BOUND ( 'NONE', #274, .T. ) ;
#554 = TOROIDAL_SURFACE ( 'NONE', #857, 0.06625000000000000333, 0.003750000000000000729 ) ;
#555 = PERSON_AND_ORGANIZATION ( #195, #800 ) ;
#556 = ORIENTED_EDGE ( 'NONE', *, *, #939, .F. ) ;
#557 = CARTESIAN_POINT ( 'NONE',  ( 0.03897270229854720575, 0.04948596739052293914, -0.07244390762291652575 ) ) ;
#558 = CARTESIAN_POINT ( 'NONE',  ( -0.05595676133510148892, 0.02812678174979702656, 0.05998054980638268391 ) ) ;
#559 = ADVANCED_FACE ( 'NONE', ( #553 ), #27, .T. ) ;
#560 = EDGE_CURVE ( 'NONE', #485, #840, #528, .T. ) ;
#561 = PERSON_AND_ORGANIZATION ( #195, #800 ) ;
#562 = VERTEX_POINT ( 'NONE', #287 ) ;
#563 = LINE ( 'NONE', #739, #196 ) ;
#564 = DIRECTION ( 'NONE',  ( 0.000000000000000000, -1.000000000000000000, 0.000000000000000000 ) ) ;
#565 = ORIENTED_EDGE ( 'NONE', *, *, #894, .F. ) ;
#566 = CC_DESIGN_PERSON_AND_ORGANIZATION_ASSIGNMENT ( #735, #283, ( #962 ) ) ;
#567 = MECHANICAL_CONTEXT ( 'NONE', #294, 'mechanical' ) ;
#568 = ORIENTED_EDGE ( 'NONE', *, *, #424, .T. ) ;
#569 = CARTESIAN_POINT ( 'NONE',  ( -0.01804219591217583185, 0.1249999999999997086, 0.03125000000000009021 ) ) ;
#570 = DIRECTION ( 'NONE',  ( 1.000000000000000000, 0.000000000000000000, 0.000000000000000000 ) ) ;
#571 = ORIENTED_EDGE ( 'NONE', *, *, #108, .T. ) ;
#572 = VECTOR ( 'NONE', #376, 39.37007874015748143 ) ;
#573 = AXIS2_PLACEMENT_3D ( 'NONE', #358, #971, #808 ) ;
#574 = VECTOR ( 'NONE', #57, 39.37007874015748854 ) ;
#575 = CC_DESIGN_APPROVAL ( #656, ( #533 ) ) ;
#576 = EDGE_CURVE ( 'NONE', #541, #204, #729, .T. ) ;
#577 = ORIENTED_EDGE ( 'NONE', *, *, #768, .F. ) ;
#578 = DIRECTION ( 'NONE',  ( 1.000000000000000000, 0.000000000000000000, 0.000000000000000000 ) ) ;
#579 = DIRECTION ( 'NONE',  ( -0.000000000000000000, -0.000000000000000000, -1.000000000000000000 ) ) ;
#580 = ORIENTED_EDGE ( 'NONE', *, *, #99, .T. ) ;
#581 = ORIENTED_EDGE ( 'NONE', *, *, #638, .F. ) ;
#582 = LINE ( 'NONE', #1032, #574 ) ;
#583 = DIRECTION ( 'NONE',  ( -0.5000000000000002220, 0.000000000000000000, -0.8660254037844384856 ) ) ;
#584 = ORIENTED_EDGE ( 'NONE', *, *, #576, .F. ) ;
#585 = LINE ( 'NONE', #423, #834 ) ;
#586 = LINE ( 'NONE', #483, #611 ) ;
#587 = CARTESIAN_POINT ( 'NONE',  ( -0.005406303379642905978, 0.1875000000000000555, 0.08200000000000021161 ) ) ;
#588 = VERTEX_POINT ( 'NONE', #1008 ) ;
#589 = EDGE_CURVE ( 'NONE', #666, #541, #460, .T. ) ;
#590 = VECTOR ( 'NONE', #579, 39.37007874015748143 ) ;
#591 = DIRECTION ( 'NONE',  ( -0.000000000000000000, -0.000000000000000000, -1.000000000000000000 ) ) ;
#592 = CIRCLE ( 'NONE', #819, 0.08200000000000011446 ) ;
#593 = CARTESIAN_POINT ( 'NONE',  ( 0.000000000000000000, 0.000000000000000000, -0.1250000000000000000 ) ) ;
#594 = EDGE_LOOP ( 'NONE', ( #661, #577 ) ) ;
#595 = ORIENTED_EDGE ( 'NONE', *, *, #192, .T. ) ;
#596 = DIRECTION ( 'NONE',  ( 1.000000000000000000, 0.000000000000000000, 0.000000000000000000 ) ) ;
#597 = CARTESIAN_POINT ( 'NONE',  ( -1.993106371523081240E-19, 0.1874999999999999722, 0.000000000000000000 ) ) ;
#598 = PLANE ( 'NONE',  #396 ) ;
#599 = DIRECTION ( 'NONE',  ( -1.000000000000000000, 0.000000000000000000, 0.000000000000000000 ) ) ;
#600 = CARTESIAN_POINT ( 'NONE',  ( -0.02666067236983957547, 0.1856633565481698167, 0.07773175734836336448 ) ) ;
#601 = DIRECTION ( 'NONE',  ( 1.000000000000000000, 0.000000000000000000, 0.000000000000000000 ) ) ;
#602 = CARTESIAN_POINT ( 'NONE',  ( -0.01804219591217583185, 0.1874999999999996947, 0.03125000000000009021 ) ) ;
#603 = EDGE_CURVE ( 'NONE', #342, #250, #1117, .T. ) ;
#604 = CARTESIAN_POINT ( 'NONE',  ( -3.268079875233218530E-18, 0.06250000000000000000, 0.000000000000000000 ) ) ;
#605 = LINE ( 'NONE', #963, #552 ) ;
#606 = CARTESIAN_POINT ( 'NONE',  ( 0.05576250961391531619, 0.06250000000000001388, 8.435520822059400519E-18 ) ) ;
#607 = DIRECTION ( 'NONE',  ( 0.000000000000000000, -1.000000000000000000, 0.000000000000000000 ) ) ;
#608 = AXIS2_PLACEMENT_3D ( 'NONE', #791, #804, #979 ) ;
#609 = CARTESIAN_POINT ( 'NONE',  ( -9.804239625699654820E-18, 0.1874999999999999722, 0.000000000000000000 ) ) ;
#610 = EDGE_CURVE ( 'NONE', #732, #1025, #253, .T. ) ;
#611 = VECTOR ( 'NONE', #941, 39.37007874015748854 ) ;
#612 = EDGE_LOOP ( 'NONE', ( #977, #923, #1112, #644, #113, #211 ) ) ;
#613 = CARTESIAN_POINT ( 'NONE',  ( 0.02670683796245905753, 0.1856562736100860478, -0.07771473769163929346 ) ) ;
#614 = CARTESIAN_POINT ( 'NONE',  ( 0.000000000000000000, 0.000000000000000000, 0.1212500000000000105 ) ) ;
#615 = EDGE_CURVE ( 'NONE', #385, #199, #138, .T. ) ;
#616 = DIRECTION ( 'NONE',  ( -0.4999999999999996114, 0.000000000000000000, 0.8660254037844388186 ) ) ;
#617 =( LENGTH_UNIT ( ) NAMED_UNIT ( * ) SI_UNIT ( $, .METRE. ) );
#618 = EDGE_LOOP ( 'NONE', ( #390, #208, #46, #1073 ) ) ;
#619 = VERTEX_POINT ( 'NONE', #326 ) ;
#620 = CARTESIAN_POINT ( 'NONE',  ( -0.06625000000000000333, 8.113285044351215521E-18, 0.1250000000000000000 ) ) ;
#621 = DIRECTION ( 'NONE',  ( -1.000000000000000000, 1.224646799147359863E-16, 0.000000000000000000 ) ) ;
#622 = CARTESIAN_POINT ( 'NONE',  ( -0.02098472318779340956, 0.05901687034400580900, -0.07936939742212417714 ) ) ;
#623 = DIRECTION ( 'NONE',  ( -0.000000000000000000, -0.000000000000000000, -1.000000000000000000 ) ) ;
#624 = ORIENTED_EDGE ( 'NONE', *, *, #463, .F. ) ;
#625 = DIRECTION ( 'NONE',  ( 0.000000000000000000, -1.000000000000000000, 0.000000000000000000 ) ) ;
#626 = DIRECTION ( 'NONE',  ( -1.000000000000000000, 1.224646799147352221E-16, 0.000000000000000000 ) ) ;
#627 = EDGE_CURVE ( 'NONE', #467, #920, #989, .T. ) ;
#628 = AXIS2_PLACEMENT_3D ( 'NONE', #855, #677, #953 ) ;
#629 = VERTEX_POINT ( 'NONE', #1054 ) ;
#630 = FACE_OUTER_BOUND ( 'NONE', #537, .T. ) ;
#631 = AXIS2_PLACEMENT_3D ( 'NONE', #992, #623, #806 ) ;
#632 = LOCAL_TIME ( 22, 50, 23.00000000000000000, #657 ) ;
#633 = CARTESIAN_POINT ( 'NONE',  ( 0.06625000000000000333, 0.000000000000000000, -0.1250000000000000000 ) ) ;
#634 = APPROVAL_ROLE ( '' ) ;
#635 = ORIENTED_EDGE ( 'NONE', *, *, #461, .F. ) ;
#636 = CARTESIAN_POINT ( 'NONE',  ( 0.07932448870410457875, 0.1698978238201383217, -0.02146941894995600675 ) ) ;
#637 = DIRECTION ( 'NONE',  ( -5.228927800373149648E-17, 1.000000000000000000, -0.000000000000000000 ) ) ;
#638 = EDGE_CURVE ( 'NONE', #166, #588, #605, .T. ) ;
#639 = ORIENTED_EDGE ( 'NONE', *, *, #314, .T. ) ;
#640 = CARTESIAN_POINT ( 'NONE',  ( 0.000000000000000000, 0.000000000000000000, 0.1250000000000000000 ) ) ;
#641 = CARTESIAN_POINT ( 'NONE',  ( -0.1837500000000000244, 2.250288493433261774E-17, 0.1212500000000000105 ) ) ;
#642 = AXIS2_PLACEMENT_3D ( 'NONE', #1069, #500, #964 ) ;
#643 = VECTOR ( 'NONE', #591, 39.37007874015748143 ) ;
#644 = ORIENTED_EDGE ( 'NONE', *, *, #576, .T. ) ;
#645 = FACE_OUTER_BOUND ( 'NONE', #258, .T. ) ;
#646 = ADVANCED_FACE ( 'NONE', ( #513 ), #1022, .T. ) ;
#647 = UNCERTAINTY_MEASURE_WITH_UNIT (LENGTH_MEASURE( 1.000000000000000082E-05 ), #969, 'distance_accuracy_value', 'NONE');
#648 = AXIS2_PLACEMENT_3D ( 'NONE', #831, #472, #24 ) ;
#649 = CARTESIAN_POINT ( 'NONE',  ( 0.1837500000000000244, 0.000000000000000000, -0.1212500000000000105 ) ) ;
#650 = ADVANCED_FACE ( 'NONE', ( #1033 ), #149, .T. ) ;
#651 = CALENDAR_DATE ( 2025, 7, 3 ) ;
#652 = ORIENTED_EDGE ( 'NONE', *, *, #870, .F. ) ;
#653 = CYLINDRICAL_SURFACE ( 'NONE', #927, 0.1875000000000000278 ) ;
#654 = CARTESIAN_POINT ( 'NONE',  ( 0.01804219591217579716, 0.1249999999999997086, -0.03124999999999989592 ) ) ;
#655 = ORIENTED_EDGE ( 'NONE', *, *, #277, .T. ) ;
#656 = APPROVAL ( #815, 'UNSPECIFIED' ) ;
#657 = COORDINATED_UNIVERSAL_TIME_OFFSET ( 6, 0, .BEHIND. ) ;
#658 = EDGE_LOOP ( 'NONE', ( #772, #789, #480, #1160, #1105, #911 ) ) ;
#659 = CYLINDRICAL_SURFACE ( 'NONE', #10, 0.1875000000000000278 ) ;
#660 = CARTESIAN_POINT ( 'NONE',  ( -0.05404538655485147808, 0.03163211006970989558, 0.06173335317678866480 ) ) ;
#661 = ORIENTED_EDGE ( 'NONE', *, *, #662, .T. ) ;
#662 = EDGE_CURVE ( 'NONE', #820, #110, #672, .T. ) ;
#663 = EDGE_LOOP ( 'NONE', ( #1109, #303, #1053, #850 ) ) ;
#664 = CARTESIAN_POINT ( 'NONE',  ( -3.268079875233218530E-18, 0.06250000000000000000, 0.000000000000000000 ) ) ;
#665 = DIRECTION ( 'NONE',  ( 0.000000000000000000, 0.000000000000000000, -1.000000000000000000 ) ) ;
#666 = VERTEX_POINT ( 'NONE', #132 ) ;
#667 = AXIS2_PLACEMENT_3D ( 'NONE', #796, #981, #805 ) ;
#668 = VECTOR ( 'NONE', #1122, 39.37007874015748854 ) ;
#669 = VECTOR ( 'NONE', #865, 39.37007874015748143 ) ;
#670 = EDGE_LOOP ( 'NONE', ( #402, #476, #393, #933 ) ) ;
#671 = LINE ( 'NONE', #1046, #1118 ) ;
#672 = LINE ( 'NONE', #1030, #414 ) ;
#673 = EDGE_LOOP ( 'NONE', ( #1082, #848, #950, #635 ) ) ;
#674 = CARTESIAN_POINT ( 'NONE',  ( -0.1875000000000000278, 0.000000000000000000, 0.1250000000000000000 ) ) ;
#675 = DIRECTION ( 'NONE',  ( -5.228927800373149648E-17, 1.000000000000000000, -0.000000000000000000 ) ) ;
#676 = VERTEX_POINT ( 'NONE', #484 ) ;
#677 = DIRECTION ( 'NONE',  ( -5.228927800373149648E-17, 1.000000000000000000, -0.000000000000000000 ) ) ;
#678 = CARTESIAN_POINT ( 'NONE',  ( -0.01804219591217583185, 0.1249999999999997086, 0.03125000000000009021 ) ) ;
#679 = ORIENTED_EDGE ( 'NONE', *, *, #120, .T. ) ;
#680 = EDGE_CURVE ( 'NONE', #766, #666, #765, .T. ) ;
#681 = DIRECTION ( 'NONE',  ( 1.224646799147353207E-16, 1.000000000000000000, -0.000000000000000000 ) ) ;
#682 = ORIENTED_EDGE ( 'NONE', *, *, #812, .T. ) ;
#683 = VECTOR ( 'NONE', #959, 39.37007874015748143 ) ;
#684 = EDGE_CURVE ( 'NONE', #802, #166, #315, .T. ) ;
#685 = VECTOR ( 'NONE', #293, 39.37007874015748143 ) ;
#686 = DIRECTION ( 'NONE',  ( -1.000000000000000000, 0.000000000000000000, 0.000000000000000000 ) ) ;
#687 = CIRCLE ( 'NONE', #121, 0.06625000000000000333 ) ;
#688 = CARTESIAN_POINT ( 'NONE',  ( 0.06250000000000000000, -9.949926624806815223E-17, -0.05308248298638636870 ) ) ;
#689 = ORIENTED_EDGE ( 'NONE', *, *, #627, .T. ) ;
#690 = CARTESIAN_POINT ( 'NONE',  ( -0.05052889624537048457, 0.1807359788411046220, 0.06545169067664148577 ) ) ;
#691 = CARTESIAN_POINT ( 'NONE',  ( -9.804239625699654820E-18, 0.1874999999999999722, 0.000000000000000000 ) ) ;
#692 = DIRECTION ( 'NONE',  ( 0.000000000000000000, 0.000000000000000000, -1.000000000000000000 ) ) ;
#693 = EDGE_CURVE ( 'NONE', #122, #219, #54, .T. ) ;
#694 = CARTESIAN_POINT ( 'NONE',  ( -0.1837500000000000244, 2.273250620917274442E-17, -0.1250000000000000000 ) ) ;
#695 = CARTESIAN_POINT ( 'NONE',  ( -0.02666141504517952759, 0.1856635852692202771, -0.07773243905900312223 ) ) ;
#696 = DIRECTION ( 'NONE',  ( 1.000000000000000000, 0.000000000000000000, 0.000000000000000000 ) ) ;
#697 = EDGE_CURVE ( 'NONE', #505, #1087, #377, .T. ) ;
#698 = DIRECTION ( 'NONE',  ( 1.000000000000000000, 0.000000000000000000, 0.000000000000000000 ) ) ;
#699 = DIRECTION ( 'NONE',  ( 1.000000000000000000, 0.000000000000000000, 0.000000000000000000 ) ) ;
#700 = DIRECTION ( 'NONE',  ( 0.000000000000000000, 0.000000000000000000, 1.000000000000000000 ) ) ;
#701 = AXIS2_PLACEMENT_3D ( 'NONE', #863, #947, #686 ) ;
#702 = AXIS2_PLACEMENT_3D ( 'NONE', #733, #371, #1007 ) ;
#703 = FACE_OUTER_BOUND ( 'NONE', #673, .T. ) ;
#704 = AXIS2_PLACEMENT_3D ( 'NONE', #356, #714, #787 ) ;
#705 = ORIENTED_EDGE ( 'NONE', *, *, #799, .F. ) ;
#706 = CARTESIAN_POINT ( 'NONE',  ( 0.000000000000000000, 0.000000000000000000, 0.1212500000000000105 ) ) ;
#707 = DIRECTION ( 'NONE',  ( 1.224646799147353207E-16, 1.000000000000000000, -0.000000000000000000 ) ) ;
#708 = CYLINDRICAL_SURFACE ( 'NONE', #797, 0.08200000000000005895 ) ;
#709 = DIRECTION ( 'NONE',  ( -5.228927800373149648E-17, 1.000000000000000000, -0.000000000000000000 ) ) ;
#710 = ORIENTED_EDGE ( 'NONE', *, *, #305, .T. ) ;
#711 = CARTESIAN_POINT ( 'NONE',  ( 2.983298677391263757E-19, 0.1875000000000000278, -0.08199999999999996181 ) ) ;
#712 = ADVANCED_FACE ( 'NONE', ( #435, #259 ), #167, .T. ) ;
#713 = DIRECTION ( 'NONE',  ( 0.000000000000000000, -1.000000000000000000, 0.000000000000000000 ) ) ;
#714 = DIRECTION ( 'NONE',  ( -5.228927800373149648E-17, 1.000000000000000000, -0.000000000000000000 ) ) ;
#715 = EDGE_LOOP ( 'NONE', ( #290, #580 ) ) ;
#716 = CARTESIAN_POINT ( 'NONE',  ( 0.08200000000000011446, 0.1612625096139151948, 0.000000000000000000 ) ) ;
#717 = LINE ( 'NONE', #442, #1114 ) ;
#718 = CIRCLE ( 'NONE', #286, 0.05576250961391530925 ) ;
#719 = CIRCLE ( 'NONE', #701, 0.05576250961391531619 ) ;
#720 = CARTESIAN_POINT ( 'NONE',  ( 0.1837500000000000244, 0.000000000000000000, -0.1250000000000000000 ) ) ;
#721 = VERTEX_POINT ( 'NONE', #716 ) ;
#722 = DIRECTION ( 'NONE',  ( 0.000000000000000000, -0.000000000000000000, 1.000000000000000000 ) ) ;
#723 = CONICAL_SURFACE ( 'NONE', #742, 0.05576250961391530925, 0.7853981633974485010 ) ;
#724 = CARTESIAN_POINT ( 'NONE',  ( -3.268079875233218915E-18, 0.06250000000000001388, 0.000000000000000000 ) ) ;
#725 = ADVANCED_FACE ( 'NONE', ( #630 ), #341, .T. ) ;
#726 = CALENDAR_DATE ( 2025, 7, 3 ) ;
#727 = ORIENTED_EDGE ( 'NONE', *, *, #461, .T. ) ;
#728 = CARTESIAN_POINT ( 'NONE',  ( 0.01711926886588352806, 0.06067524020826321057, -0.08058730404352015819 ) ) ;
#729 = LINE ( 'NONE', #827, #413 ) ;
#730 = ADVANCED_FACE ( 'NONE', ( #335 ), #306, .T. ) ;
#731 = EDGE_CURVE ( 'NONE', #750, #732, #1064, .T. ) ;
#732 = VERTEX_POINT ( 'NONE', #620 ) ;
#733 = CARTESIAN_POINT ( 'NONE',  ( 0.01804219591217579716, 0.1249999999999997086, 0.03125000000000009714 ) ) ;
#734 = CARTESIAN_POINT ( 'NONE',  ( -0.06065338117957209951, 0.01707387812836999585, 0.05535764922974345525 ) ) ;
#735 = PERSON_AND_ORGANIZATION ( #195, #800 ) ;
#736 = VECTOR ( 'NONE', #1140, 39.37007874015748143 ) ;
#737 = TOROIDAL_SURFACE ( 'NONE', #1003, 0.1837500000000000244, 0.003750000000000000729 ) ;
#738 = ORIENTED_EDGE ( 'NONE', *, *, #521, .F. ) ;
#739 = CARTESIAN_POINT ( 'NONE',  ( -0.01804219591217583185, 0.1249999999999997086, 0.03125000000000009021 ) ) ;
#740 = DESIGN_CONTEXT ( 'detailed design', #187, 'design' ) ;
#741 = AXIS2_PLACEMENT_3D ( 'NONE', #706, #978, #699 ) ;
#742 = AXIS2_PLACEMENT_3D ( 'NONE', #609, #348, #698 ) ;
#743 = CARTESIAN_POINT ( 'NONE',  ( 1.004220324764273643E-17, 0.1875000000000000278, 0.08200000000000015610 ) ) ;
#744 = DATE_TIME_ROLE ( 'classification_date' ) ;
#745 = ORIENTED_EDGE ( 'NONE', *, *, #261, .F. ) ;
#746 = FACE_OUTER_BOUND ( 'NONE', #218, .T. ) ;
#747 = EDGE_CURVE ( 'NONE', #443, #485, #433, .T. ) ;
#748 = DIRECTION ( 'NONE',  ( -1.000000000000000000, 1.224646799147359863E-16, 0.000000000000000000 ) ) ;
#749 = EDGE_LOOP ( 'NONE', ( #1013, #901 ) ) ;
#750 = VERTEX_POINT ( 'NONE', #90 ) ;
#751 = CARTESIAN_POINT ( 'NONE',  ( -0.06250000000000000000, -9.949926624806815223E-17, 0.05308248298638657686 ) ) ;
#752 = CARTESIAN_POINT ( 'NONE',  ( -0.03230177232624020789, 0.05414009277251555230, 0.07578903907616812985 ) ) ;
#753 = ORIENTED_EDGE ( 'NONE', *, *, #823, .F. ) ;
#754 = ORIENTED_EDGE ( 'NONE', *, *, #183, .F. ) ;
#755 = DIRECTION ( 'NONE',  ( 1.000000000000000000, 0.000000000000000000, 0.000000000000000000 ) ) ;
#756 = CIRCLE ( 'NONE', #62, 0.08200000000000011446 ) ;
#757 = CARTESIAN_POINT ( 'NONE',  ( -0.02152342494630612307, 0.1863368266733241574, 0.07931013804989046900 ) ) ;
#758 = ORIENTED_EDGE ( 'NONE', *, *, #900, .T. ) ;
#759 = AXIS2_PLACEMENT_3D ( 'NONE', #262, #266, #452 ) ;
#760 = AXIS2_PLACEMENT_3D ( 'NONE', #65, #1049, #1133 ) ;
#761 = CIRCLE ( 'NONE', #631, 0.06250000000000000000 ) ;
#762 = EDGE_CURVE ( 'NONE', #920, #467, #970, .T. ) ;
#763 = ORIENTED_EDGE ( 'NONE', *, *, #1091, .T. ) ;
#764 = CARTESIAN_POINT ( 'NONE',  ( 0.000000000000000000, 0.000000000000000000, 0.1212500000000000105 ) ) ;
#765 = LINE ( 'NONE', #1040, #668 ) ;
#766 = VERTEX_POINT ( 'NONE', #82 ) ;
#767 = FACE_OUTER_BOUND ( 'NONE', #432, .T. ) ;
#768 = EDGE_CURVE ( 'NONE', #820, #110, #967, .T. ) ;
#769 = DIRECTION ( 'NONE',  ( 0.000000000000000000, 0.000000000000000000, 1.000000000000000000 ) ) ;
#770 = ADVANCED_FACE ( 'NONE', ( #1083 ), #532, .T. ) ;
#771 = DIRECTION ( 'NONE',  ( 0.8660254037844385966, 0.000000000000000000, -0.5000000000000003331 ) ) ;
#772 = ORIENTED_EDGE ( 'NONE', *, *, #134, .F. ) ;
#773 = FACE_OUTER_BOUND ( 'NONE', #715, .T. ) ;
#774 = CARTESIAN_POINT ( 'NONE',  ( -0.06250000000000000000, 0.000000000000000000, 0.1212500000000000105 ) ) ;
#775 = CARTESIAN_POINT ( 'NONE',  ( -0.01090112493871135853, 0.1872587415080383122, 0.08145257082488287226 ) ) ;
#776 = DIRECTION ( 'NONE',  ( -1.000000000000000000, 0.000000000000000000, 0.000000000000000000 ) ) ;
#777 = APPROVAL ( #824, 'UNSPECIFIED' ) ;
#778 = AXIS2_PLACEMENT_3D ( 'NONE', #182, #809, #616 ) ;
#779 = CARTESIAN_POINT ( 'NONE',  ( -3.268079875233218530E-18, 0.06250000000000000000, 0.000000000000000000 ) ) ;
#780 = AXIS2_PLACEMENT_3D ( 'NONE', #310, #771, #583 ) ;
#781 = LOCAL_TIME ( 22, 50, 23.00000000000000000, #103 ) ;
#782 = DIRECTION ( 'NONE',  ( -0.000000000000000000, -0.000000000000000000, -1.000000000000000000 ) ) ;
#783 = CARTESIAN_POINT ( 'NONE',  ( -0.07980325189223150262, 0.1697291527542452161, -0.02168162222526612282 ) ) ;
#784 = DIRECTION ( 'NONE',  ( 1.000000000000000000, 0.000000000000000000, 0.000000000000000000 ) ) ;
#785 = ADVANCED_FACE ( 'NONE', ( #645 ), #837, .T. ) ;
#786 = CARTESIAN_POINT ( 'NONE',  ( -0.01804219591217583185, 0.1874999999999996947, 0.03125000000000009021 ) ) ;
#787 = DIRECTION ( 'NONE',  ( -1.000000000000000000, 0.000000000000000000, 0.000000000000000000 ) ) ;
#788 = PRODUCT_DEFINITION_SHAPE ( 'NONE', 'NONE',  #962 ) ;
#789 = ORIENTED_EDGE ( 'NONE', *, *, #762, .F. ) ;
#790 = CARTESIAN_POINT ( 'NONE',  ( 0.06513140605798921345, 0.1758528744980102920, 0.05010083037684024548 ) ) ;
#791 = CARTESIAN_POINT ( 'NONE',  ( 0.000000000000000000, 0.000000000000000000, 0.1212500000000000105 ) ) ;
#792 = B_SPLINE_CURVE_WITH_KNOTS ( 'NONE', 3,
 ( #1000, #205, #285, #912, #105, #455, #291, #826, #1101, #1011, #921, #114, #1130, #391 ),
 .UNSPECIFIED., .F., .F.,
 ( 4, 2, 2, 2, 2, 2, 4 ),
 ( 7.170176153343155345E-20, 0.0003253670378238784867, 0.0006507340756477569734, 0.001301468151295513296, 0.001952202226943269619, 0.002277569264767147997, 0.002602936302591026159 ),
 .UNSPECIFIED. ) ;
#793 = FACE_OUTER_BOUND ( 'NONE', #373, .T. ) ;
#794 = CARTESIAN_POINT ( 'NONE',  ( 0.08200382124103577919, 0.1686167943003245018, 0.005370464148257649353 ) ) ;
#795 = CARTESIAN_POINT ( 'NONE',  ( -0.03148498846330175654, 0.06250000000000000000, 3.855799034277383403E-18 ) ) ;
#796 = CARTESIAN_POINT ( 'NONE',  ( 0.000000000000000000, 0.1875000000000000278, 1.024442997624098707E-16 ) ) ;
#797 = AXIS2_PLACEMENT_3D ( 'NONE', #359, #255, #1071 ) ;
#798 = CIRCLE ( 'NONE', #1097, 0.03148498846330174961 ) ;
#799 = EDGE_CURVE ( 'NONE', #925, #204, #563, .T. ) ;
#800 = ORGANIZATION ( 'UNSPECIFIED', 'UNSPECIFIED', '' ) ;
#801 = LINE ( 'NONE', #165, #1023 ) ;
#802 = VERTEX_POINT ( 'NONE', #200 ) ;
#803 = DIRECTION ( 'NONE',  ( 1.000000000000000000, 0.000000000000000000, 0.000000000000000000 ) ) ;
#804 = DIRECTION ( 'NONE',  ( 0.000000000000000000, 0.000000000000000000, 1.000000000000000000 ) ) ;
#805 = DIRECTION ( 'NONE',  ( 0.000000000000000000, 0.000000000000000000, -1.000000000000000000 ) ) ;
#806 = DIRECTION ( 'NONE',  ( 1.000000000000000000, 0.000000000000000000, 0.000000000000000000 ) ) ;
#807 = ORIENTED_EDGE ( 'NONE', *, *, #1113, .F. ) ;
#808 = DIRECTION ( 'NONE',  ( 1.000000000000000000, 0.000000000000000000, 0.000000000000000000 ) ) ;
#809 = DIRECTION ( 'NONE',  ( -0.8660254037844388186, 0.000000000000000000, -0.4999999999999996114 ) ) ;
#810 = ORIENTED_EDGE ( 'NONE', *, *, #428, .T. ) ;
#811 = CARTESIAN_POINT ( 'NONE',  ( 0.08199613768953474546, 0.1686205308444038153, -0.005486527799832440454 ) ) ;
#812 = EDGE_CURVE ( 'NONE', #588, #666, #123, .T. ) ;
#813 = FACE_OUTER_BOUND ( 'NONE', #367, .T. ) ;
#814 = CIRCLE ( 'NONE', #924, 0.003749999999999994223 ) ;
#815 = APPROVAL_STATUS ( 'not_yet_approved' ) ;
#816 = AXIS2_PLACEMENT_3D ( 'NONE', #882, #275, #897 ) ;
#817 = EDGE_LOOP ( 'NONE', ( #116, #877 ) ) ;
#818 = CARTESIAN_POINT ( 'NONE',  ( 0.03148498846330174961, 0.06250000000000000000, 0.000000000000000000 ) ) ;
#819 = AXIS2_PLACEMENT_3D ( 'NONE', #886, #895, #431 ) ;
#820 = VERTEX_POINT ( 'NONE', #751 ) ;
#821 = CARTESIAN_POINT ( 'NONE',  ( -0.008644176926624591237, 0.06204401610644878079, -0.08165101006648550763 ) ) ;
#822 = EDGE_CURVE ( 'NONE', #239, #887, #1004, .T. ) ;
#823 = EDGE_CURVE ( 'NONE', #562, #1038, #100, .T. ) ;
#824 = APPROVAL_STATUS ( 'not_yet_approved' ) ;
#825 = EDGE_LOOP ( 'NONE', ( #1067, #938, #1059, #299, #268 ) ) ;
#826 = CARTESIAN_POINT ( 'NONE',  ( 0.03900999743763247651, 0.04945202170020811944, 0.07242153592435118803 ) ) ;
#827 = CARTESIAN_POINT ( 'NONE',  ( 0.01804219591217579716, 0.1874999999999996947, 0.03125000000000009714 ) ) ;
#828 = APPROVAL ( #540, 'UNSPECIFIED' ) ;
#829 = PERSON_AND_ORGANIZATION_ROLE ( 'design_supplier' ) ;
#830 = EDGE_LOOP ( 'NONE', ( #497, #370, #23, #227 ) ) ;
#831 = CARTESIAN_POINT ( 'NONE',  ( 0.000000000000000000, -9.949926624806815223E-17, 1.024442997624098707E-16 ) ) ;
#832 = DIRECTION ( 'NONE',  ( -1.000000000000000000, 0.000000000000000000, 0.000000000000000000 ) ) ;
#833 = CALENDAR_DATE ( 2025, 7, 3 ) ;
#834 = VECTOR ( 'NONE', #68, 39.37007874015748854 ) ;
#835 = VECTOR ( 'NONE', #917, 39.37007874015748143 ) ;
#836 = ORIENTED_EDGE ( 'NONE', *, *, #662, .F. ) ;
#837 = PLANE ( 'NONE',  #702 ) ;
#838 = CIRCLE ( 'NONE', #704, 0.08200000000000011446 ) ;
#839 = DIRECTION ( 'NONE',  ( -1.000000000000000000, 0.000000000000000000, 0.000000000000000000 ) ) ;
#840 = VERTEX_POINT ( 'NONE', #281 ) ;
#841 = ORIENTED_EDGE ( 'NONE', *, *, #603, .F. ) ;
#842 = DIRECTION ( 'NONE',  ( -0.5000000000000002220, 0.000000000000000000, -0.8660254037844384856 ) ) ;
#843 = DIRECTION ( 'NONE',  ( 1.224646799147353207E-16, 1.000000000000000000, -0.000000000000000000 ) ) ;
#844 = ORIENTED_EDGE ( 'NONE', *, *, #697, .F. ) ;
#845 = ORIENTED_EDGE ( 'NONE', *, *, #495, .T. ) ;
#846 = CARTESIAN_POINT ( 'NONE',  ( 0.000000000000000000, 0.000000000000000000, -0.1212500000000000105 ) ) ;
#847 = CARTESIAN_POINT ( 'NONE',  ( -0.01711926886588352459, 0.06067524020826320363, 0.08058730404352033860 ) ) ;
#848 = ORIENTED_EDGE ( 'NONE', *, *, #1148, .T. ) ;
#849 = ADVANCED_FACE ( 'NONE', ( #746 ), #906, .F. ) ;
#850 = ORIENTED_EDGE ( 'NONE', *, *, #267, .F. ) ;
#851 = DIRECTION ( 'NONE',  ( 0.7071067811865474617, -0.7071067811865475727, 0.000000000000000000 ) ) ;
#852 = AXIS2_PLACEMENT_3D ( 'NONE', #369, #994, #5 ) ;
#853 = CARTESIAN_POINT ( 'NONE',  ( -0.04160740821402073714, 0.1831045203446416969, -0.07148059959739921920 ) ) ;
#854 = ORIENTED_EDGE ( 'NONE', *, *, #551, .T. ) ;
#855 = CARTESIAN_POINT ( 'NONE',  ( -3.268079875233218530E-18, 0.06250000000000000000, 0.000000000000000000 ) ) ;
#856 = EDGE_CURVE ( 'NONE', #887, #239, #798, .T. ) ;
#857 = AXIS2_PLACEMENT_3D ( 'NONE', #846, #40, #755 ) ;
#858 = CC_DESIGN_SECURITY_CLASSIFICATION ( #533, ( #437 ) ) ;
#859 = ADVANCED_FACE ( 'NONE', ( #368 ), #659, .T. ) ;
#860 = DIRECTION ( 'NONE',  ( 1.000000000000000000, 0.000000000000000000, 0.000000000000000000 ) ) ;
#861 = CARTESIAN_POINT ( 'NONE',  ( 1.004220324764273643E-17, 0.1875000000000000278, 0.08200000000000015610 ) ) ;
#862 = ORIENTED_EDGE ( 'NONE', *, *, #638, .T. ) ;
#863 = CARTESIAN_POINT ( 'NONE',  ( -3.268079875233218915E-18, 0.06250000000000001388, 0.000000000000000000 ) ) ;
#864 = MANIFOLD_SOLID_BREP ( 'Cut-Extrude2', #117 ) ;
#865 = DIRECTION ( 'NONE',  ( -0.000000000000000000, -1.000000000000000000, -0.000000000000000000 ) ) ;
#866 = ORIENTED_EDGE ( 'NONE', *, *, #87, .F. ) ;
#867 = CARTESIAN_POINT ( 'NONE',  ( -0.08199767290909307227, 0.1686197842607624342, 0.005442996504505021385 ) ) ;
#868 = FACE_BOUND ( 'NONE', #612, .T. ) ;
#869 = ORIENTED_EDGE ( 'NONE', *, *, #338, .T. ) ;
#870 = EDGE_CURVE ( 'NONE', #925, #629, #209, .T. ) ;
#871 = CARTESIAN_POINT ( 'NONE',  ( -0.08144654835368615731, 0.1688908400066086446, 0.01094126262134126684 ) ) ;
#872 = FACE_OUTER_BOUND ( 'NONE', #957, .T. ) ;
#873 = AXIS2_PLACEMENT_3D ( 'NONE', #779, #508, #151 ) ;
#874 = FACE_BOUND ( 'NONE', #817, .T. ) ;
#875 = VECTOR ( 'NONE', #1127, 39.37007874015748854 ) ;
#876 = VECTOR ( 'NONE', #511, 39.37007874015748143 ) ;
#877 = ORIENTED_EDGE ( 'NONE', *, *, #365, .T. ) ;
#878 = CARTESIAN_POINT ( 'NONE',  ( -4.640019304151439463E-18, 0.08873749038608480522, 0.000000000000000000 ) ) ;
#879 = DIRECTION ( 'NONE',  ( -5.228927800373149648E-17, 1.000000000000000000, -0.000000000000000000 ) ) ;
#880 = DIRECTION ( 'NONE',  ( -1.000000000000000000, 0.000000000000000000, 0.000000000000000000 ) ) ;
#881 = APPLICATION_PROTOCOL_DEFINITION ( 'international standard', 'config_control_design', 1994, #294 ) ;
#882 = CARTESIAN_POINT ( 'NONE',  ( 0.000000000000000000, 0.000000000000000000, -0.1212500000000000105 ) ) ;
#883 = FACE_OUTER_BOUND ( 'NONE', #996, .T. ) ;
#884 = CARTESIAN_POINT ( 'NONE',  ( -0.06035358909460470517, 0.01676880139492674046, -0.05552538533665880155 ) ) ;
#885 = ADVANCED_FACE ( 'NONE', ( #36, #98 ), #653, .T. ) ;
#886 = CARTESIAN_POINT ( 'NONE',  ( -4.640019304151439463E-18, 0.08873749038608480522, 0.000000000000000000 ) ) ;
#887 = VERTEX_POINT ( 'NONE', #818 ) ;
#888 = CARTESIAN_POINT ( 'NONE',  ( 0.04130045470069308028, 0.1829519264532600831, -0.07104071330199475398 ) ) ;
#889 = LINE ( 'NONE', #795, #1095 ) ;
#890 = CARTESIAN_POINT ( 'NONE',  ( -0.05440860051169422312, 0.03177828201240563005, -0.06150542913385203397 ) ) ;
#891 = VECTOR ( 'NONE', #940, 39.37007874015748143 ) ;
#892 = EDGE_CURVE ( 'NONE', #97, #619, #792, .T. ) ;
#893 = APPROVAL_PERSON_ORGANIZATION ( #119, #828, #634 ) ;
#894 = EDGE_CURVE ( 'NONE', #55, #887, #146, .T. ) ;
#895 = DIRECTION ( 'NONE',  ( -5.228927800373149648E-17, 1.000000000000000000, -0.000000000000000000 ) ) ;
#896 = ORIENTED_EDGE ( 'NONE', *, *, #856, .T. ) ;
#897 = DIRECTION ( 'NONE',  ( 1.000000000000000000, 0.000000000000000000, 0.000000000000000000 ) ) ;
#898 = DIRECTION ( 'NONE',  ( -0.000000000000000000, -0.000000000000000000, -1.000000000000000000 ) ) ;
#899 = DIRECTION ( 'NONE',  ( -1.000000000000000000, 0.000000000000000000, 0.000000000000000000 ) ) ;
#900 = EDGE_CURVE ( 'NONE', #1025, #1152, #30, .T. ) ;
#901 = ORIENTED_EDGE ( 'NONE', *, *, #428, .F. ) ;
#902 = CARTESIAN_POINT ( 'NONE',  ( 0.02174804940178587040, 0.1865023921244300109, 0.07978080904963358311 ) ) ;
#903 = CARTESIAN_POINT ( 'NONE',  ( -0.05909369345255761907, 0.02074033867757289415, -0.05689234394696929958 ) ) ;
#904 = DIRECTION ( 'NONE',  ( 1.000000000000000000, 0.000000000000000000, 0.000000000000000000 ) ) ;
#905 = ORIENTED_EDGE ( 'NONE', *, *, #936, .F. ) ;
#906 = PLANE ( 'NONE',  #648 ) ;
#907 = EDGE_CURVE ( 'NONE', #443, #199, #1028, .T. ) ;
#908 = FACE_OUTER_BOUND ( 'NONE', #548, .T. ) ;
#909 = AXIS2_PLACEMENT_3D ( 'NONE', #641, #843, #748 ) ;
#910 = APPLICATION_PROTOCOL_DEFINITION ( 'international standard', 'config_control_design', 1994, #187 ) ;
#911 = ORIENTED_EDGE ( 'NONE', *, *, #892, .T. ) ;
#912 = CARTESIAN_POINT ( 'NONE',  ( 0.06035358909460471905, 0.01676880139492673352, 0.05552538533665902359 ) ) ;
#913 = CARTESIAN_POINT ( 'NONE',  ( -4.640019304151439463E-18, 0.08873749038608480522, 0.000000000000000000 ) ) ;
#914 = DATE_AND_TIME ( #651, #86 ) ;
#915 = ORIENTED_EDGE ( 'NONE', *, *, #603, .T. ) ;
#916 = DIRECTION ( 'NONE',  ( -0.000000000000000000, -0.000000000000000000, -1.000000000000000000 ) ) ;
#917 = DIRECTION ( 'NONE',  ( 0.7071067811865476838, -0.7071067811865473507, 0.000000000000000000 ) ) ;
#918 = ADVANCED_FACE ( 'NONE', ( #1052 ), #1037, .T. ) ;
#919 = CALENDAR_DATE ( 2025, 7, 3 ) ;
#920 = VERTEX_POINT ( 'NONE', #220 ) ;
#921 = CARTESIAN_POINT ( 'NONE',  ( 0.01693414468733657821, 0.06031099794452429025, 0.08034204368401696994 ) ) ;
#922 = CARTESIAN_POINT ( 'NONE',  ( -0.06250000000000000000, -9.949926624806815223E-17, 0.05308248298638657686 ) ) ;
#923 = ORIENTED_EDGE ( 'NONE', *, *, #680, .T. ) ;
#924 = AXIS2_PLACEMENT_3D ( 'NONE', #649, #474, #932 ) ;
#925 = VERTEX_POINT ( 'NONE', #678 ) ;
#926 = CARTESIAN_POINT ( 'NONE',  ( -1.377129482043804154E-14, 0.06250000000010978718, -0.08200000000008363099 ) ) ;
#927 = AXIS2_PLACEMENT_3D ( 'NONE', #386, #450, #1093 ) ;
#928 = FACE_OUTER_BOUND ( 'NONE', #70, .T. ) ;
#929 = ORIENTED_EDGE ( 'NONE', *, *, #907, .T. ) ;
#930 = ORIENTED_EDGE ( 'NONE', *, *, #144, .T. ) ;
#931 = CYLINDRICAL_SURFACE ( 'NONE', #163, 0.06250000000000000000 ) ;
#932 = DIRECTION ( 'NONE',  ( 0.000000000000000000, 0.000000000000000000, -1.000000000000000000 ) ) ;
#933 = ORIENTED_EDGE ( 'NONE', *, *, #560, .F. ) ;
#934 = ORIENTED_EDGE ( 'NONE', *, *, #144, .F. ) ;
#935 = CARTESIAN_POINT ( 'NONE',  ( 0.000000000000000000, 0.000000000000000000, 0.1212500000000000105 ) ) ;
#936 = EDGE_CURVE ( 'NONE', #1076, #1006, #197, .T. ) ;
#937 = DIRECTION ( 'NONE',  ( -0.000000000000000000, -0.000000000000000000, -1.000000000000000000 ) ) ;
#938 = ORIENTED_EDGE ( 'NONE', *, *, #328, .T. ) ;
#939 = EDGE_CURVE ( 'NONE', #676, #721, #671, .T. ) ;
#940 = DIRECTION ( 'NONE',  ( -5.228927800373149648E-17, 1.000000000000000000, -0.000000000000000000 ) ) ;
#941 = DIRECTION ( 'NONE',  ( 0.7071067811865473507, 0.7071067811865475727, 8.659560562354930393E-17 ) ) ;
#942 = AXIS2_PLACEMENT_3D ( 'NONE', #534, #713, #91 ) ;
#943 = ORIENTED_EDGE ( 'NONE', *, *, #693, .T. ) ;
#944 = CARTESIAN_POINT ( 'NONE',  ( -0.08200463155275336535, 0.1686164002418150398, -0.01078047762002276415 ) ) ;
#945 = EDGE_LOOP ( 'NONE', ( #175, #689 ) ) ;
#946 = CC_DESIGN_APPROVAL ( #777, ( #962 ) ) ;
#947 = DIRECTION ( 'NONE',  ( -5.228927800373149648E-17, 1.000000000000000000, -0.000000000000000000 ) ) ;
#948 = CC_DESIGN_DATE_AND_TIME_ASSIGNMENT ( #457, #995, ( #962 ) ) ;
#949 = DIRECTION ( 'NONE',  ( -0.000000000000000000, -0.000000000000000000, -1.000000000000000000 ) ) ;
#950 = ORIENTED_EDGE ( 'NONE', *, *, #1126, .T. ) ;
#951 = CARTESIAN_POINT ( 'NONE',  ( -0.06513930576520622628, 0.1758498941101990787, -0.05009011210207754000 ) ) ;
#952 = DIRECTION ( 'NONE',  ( -1.000000000000000000, 0.000000000000000000, 0.000000000000000000 ) ) ;
#953 = DIRECTION ( 'NONE',  ( -1.000000000000000000, -1.041100607341562302E-16, 0.000000000000000000 ) ) ;
#954 = EDGE_CURVE ( 'NONE', #920, #562, #53, .T. ) ;
#955 = CARTESIAN_POINT ( 'NONE',  ( 0.01804219591217579716, 0.1249999999999997086, 0.03125000000000009714 ) ) ;
#956 = ORIENTED_EDGE ( 'NONE', *, *, #353, .F. ) ;
#957 = EDGE_LOOP ( 'NONE', ( #35, #807, #655, #1017 ) ) ;
#958 = CARTESIAN_POINT ( 'NONE',  ( -0.06179715981548153381, 0.1770676830751358732, 0.05416072683034629104 ) ) ;
#959 = DIRECTION ( 'NONE',  ( -0.000000000000000000, -1.000000000000000000, -0.000000000000000000 ) ) ;
#960 = LINE ( 'NONE', #786, #1062 ) ;
#961 = CARTESIAN_POINT ( 'NONE',  ( 0.000000000000000000, 0.000000000000000000, -0.1250000000000000000 ) ) ;
#962 = PRODUCT_DEFINITION ( 'UNKNOWN', '', #437, #740 ) ;
#963 = CARTESIAN_POINT ( 'NONE',  ( 0.01804219591217579716, 0.1249999999999997086, -0.03124999999999989592 ) ) ;
#964 = DIRECTION ( 'NONE',  ( 1.000000000000000000, 0.000000000000000000, 0.000000000000000000 ) ) ;
#965 = CIRCLE ( 'NONE', #304, 0.003749999999999994223 ) ;
#966 = FACE_OUTER_BOUND ( 'NONE', #825, .T. ) ;
#967 = CIRCLE ( 'NONE', #1155, 0.08200000000000005895 ) ;
#968 =( GEOMETRIC_REPRESENTATION_CONTEXT ( 3 ) GLOBAL_UNCERTAINTY_ASSIGNED_CONTEXT ( ( #647 ) ) GLOBAL_UNIT_ASSIGNED_CONTEXT ( ( #969, #69, #536 ) ) REPRESENTATION_CONTEXT ( 'NONE', 'WORKASPACE' ) );
#969 =( CONVERSION_BASED_UNIT ( 'INCH', #158 ) LENGTH_UNIT ( ) NAMED_UNIT ( #1086 ) );
#970 = B_SPLINE_CURVE_WITH_KNOTS ( 'NONE', 3,
 ( #711, #986, #94, #1, #613, #542, #888, #1074, #269, #76, #425, #352, #636, #4, #811, #794, #1153, #171, #176, #1077, #538, #790, #343, #185, #444, #1068, #265, #902, #7, #524 ),
 .UNSPECIFIED., .F., .F.,
 ( 4, 2, 2, 2, 2, 2, 2, 2, 2, 2, 2, 2, 2, 2, 4 ),
 ( 7.351452258878976163E-21, 0.0004122659434756709455, 0.0008245318869513416742, 0.001236797830427012511, 0.001649063773902683131, 0.002473595660854023721, 0.002885861604329693908, 0.003298127547805363661, 0.003710393491281033847, 0.004122659434756703600, 0.004534925378232372919, 0.004947191321708042239, 0.005359457265183711558, 0.005771723208659380877, 0.006596255095610720383 ),
 .UNSPECIFIED. ) ;
#971 = DIRECTION ( 'NONE',  ( -0.000000000000000000, -0.000000000000000000, -1.000000000000000000 ) ) ;
#972 = CARTESIAN_POINT ( 'NONE',  ( -3.268079875233218530E-18, 0.06250000000000000000, 0.000000000000000000 ) ) ;
#973 = EDGE_CURVE ( 'NONE', #1031, #1123, #582, .T. ) ;
#974 = CARTESIAN_POINT ( 'NONE',  ( -0.004293042084581479359, 0.06249999999999834160, -0.08199999999999868505 ) ) ;
#975 = CARTESIAN_POINT ( 'NONE',  ( -0.01804219591217584920, 0.1874999999999996947, -0.03124999999999989592 ) ) ;
#976 = ORIENTED_EDGE ( 'NONE', *, *, #192, .F. ) ;
#977 = ORIENTED_EDGE ( 'NONE', *, *, #463, .T. ) ;
#978 = DIRECTION ( 'NONE',  ( -0.000000000000000000, -0.000000000000000000, -1.000000000000000000 ) ) ;
#979 = DIRECTION ( 'NONE',  ( 1.000000000000000000, 0.000000000000000000, 0.000000000000000000 ) ) ;
#980 = ADVANCED_FACE ( 'NONE', ( #404 ), #366, .T. ) ;
#981 = DIRECTION ( 'NONE',  ( -0.000000000000000000, -1.000000000000000000, -0.000000000000000000 ) ) ;
#982 = EDGE_CURVE ( 'NONE', #485, #443, #214, .T. ) ;
#983 = DIRECTION ( 'NONE',  ( 1.000000000000000000, 0.000000000000000000, 0.000000000000000000 ) ) ;
#984 = ORIENTED_EDGE ( 'NONE', *, *, #768, .T. ) ;
#985 = ADVANCED_BREP_SHAPE_REPRESENTATION ( '9414T3_Set Screw Shaft Collar_9414T3_sldprt', ( #84, #864, #398 ), #968 ) ;
#986 = CARTESIAN_POINT ( 'NONE',  ( 0.005492893063238026355, 0.1875000000000000555, -0.08199999999999996181 ) ) ;
#987 = CARTESIAN_POINT ( 'NONE',  ( 0.05576250961391530231, 0.1874999999999999722, 0.000000000000000000 ) ) ;
#988 = VECTOR ( 'NONE', #1147, 39.37007874015748143 ) ;
#989 = B_SPLINE_CURVE_WITH_KNOTS ( 'NONE', 3,
 ( #861, #587, #775, #757, #600, #241, #690, #958, #245, #222, #417, #154, #506, #871, #867, #944, #783, #1139, #331, #951, #49, #499, #853, #695, #59, #401, #410, #1119 ),
 .UNSPECIFIED., .F., .F.,
 ( 4, 2, 2, 2, 2, 2, 2, 2, 2, 2, 2, 2, 2, 4 ),
 ( 0.006596255095610720383, 0.007008105617772631378, 0.007419956139934543241, 0.008243657184258365231, 0.008655507706420276226, 0.009067358228582187221, 0.009479208750744099951, 0.009891059272906010946, 0.01071476031722983467, 0.01112661083939174567, 0.01153846136155365840, 0.01236216240587748212, 0.01277401292803939312, 0.01318586345020130585 ),
 .UNSPECIFIED. ) ;
#990 = CIRCLE ( 'NONE', #909, 0.003749999999999994223 ) ;
#991 = AXIS2_PLACEMENT_3D ( 'NONE', #935, #330, #1125 ) ;
#992 = CARTESIAN_POINT ( 'NONE',  ( 0.000000000000000000, 0.000000000000000000, -0.1212500000000000105 ) ) ;
#993 = CARTESIAN_POINT ( 'NONE',  ( -0.05576250961391531619, 0.06250000000000000000, 0.000000000000000000 ) ) ;
#994 = DIRECTION ( 'NONE',  ( -0.000000000000000000, -0.000000000000000000, -1.000000000000000000 ) ) ;
#995 = DATE_TIME_ROLE ( 'creation_date' ) ;
#996 = EDGE_LOOP ( 'NONE', ( #565, #571, #440 ) ) ;
#997 = DIRECTION ( 'NONE',  ( -0.000000000000000000, 1.000000000000000000, 0.000000000000000000 ) ) ;
#998 = CARTESIAN_POINT ( 'NONE',  ( -0.04998227829771668268, 0.03832824293509350805, -0.06533322754843626234 ) ) ;
#999 = EDGE_LOOP ( 'NONE', ( #1120, #930, #125, #264 ) ) ;
#1000 = CARTESIAN_POINT ( 'NONE',  ( 0.06250000000000000000, -9.949926624806815223E-17, 0.05308248298638657686 ) ) ;
#1001 = LINE ( 'NONE', #1094, #685 ) ;
#1002 = CONICAL_SURFACE ( 'NONE', #394, 0.03148498846330174961, 0.7853981633974482790 ) ;
#1003 = AXIS2_PLACEMENT_3D ( 'NONE', #298, #387, #191 ) ;
#1004 = CIRCLE ( 'NONE', #28, 0.03148498846330174961 ) ;
#1005 = PERSON_AND_ORGANIZATION ( #195, #800 ) ;
#1006 = VERTEX_POINT ( 'NONE', #694 ) ;
#1007 = DIRECTION ( 'NONE',  ( -1.000000000000000000, 0.000000000000000000, -2.365849761790801049E-16 ) ) ;
#1008 = CARTESIAN_POINT ( 'NONE',  ( 0.03608439182435159431, 0.1249999999999997086, 8.484575759877524643E-17 ) ) ;
#1009 = CARTESIAN_POINT ( 'NONE',  ( 0.000000000000000000, 0.000000000000000000, 0.000000000000000000 ) ) ;
#1010 = ORIENTED_EDGE ( 'NONE', *, *, #99, .F. ) ;
#1011 = CARTESIAN_POINT ( 'NONE',  ( 0.02098472318779341650, 0.05901687034400580900, 0.07936939742212437143 ) ) ;
#1012 = CARTESIAN_POINT ( 'NONE',  ( -0.04723509791450922896, 0.04111527876913271401, 0.06710881718551561792 ) ) ;
#1013 = ORIENTED_EDGE ( 'NONE', *, *, #292, .F. ) ;
#1014 = ORIENTED_EDGE ( 'NONE', *, *, #277, .F. ) ;
#1015 = DIRECTION ( 'NONE',  ( 0.000000000000000000, 1.000000000000000000, 0.000000000000000000 ) ) ;
#1016 = CARTESIAN_POINT ( 'NONE',  ( 0.1875000000000000278, 2.296212748401287726E-17, 0.1212500000000000105 ) ) ;
#1017 = ORIENTED_EDGE ( 'NONE', *, *, #1142, .F. ) ;
#1018 = EDGE_CURVE ( 'NONE', #42, #676, #586, .T. ) ;
#1019 = CIRCLE ( 'NONE', #486, 0.06625000000000000333 ) ;
#1020 = EDGE_LOOP ( 'NONE', ( #334, #215, #133, #763 ) ) ;
#1021 = DIRECTION ( 'NONE',  ( -1.000000000000000000, 0.000000000000000000, 0.000000000000000000 ) ) ;
#1022 = CONICAL_SURFACE ( 'NONE', #530, 0.08200000000000011446, 0.7853981633974481680 ) ;
#1023 = VECTOR ( 'NONE', #79, 39.37007874015748143 ) ;
#1024 = LINE ( 'NONE', #654, #451 ) ;
#1025 = VERTEX_POINT ( 'NONE', #774 ) ;
#1026 = ADVANCED_FACE ( 'NONE', ( #152 ), #490, .T. ) ;
#1027 = EDGE_LOOP ( 'NONE', ( #915, #491 ) ) ;
#1028 = LINE ( 'NONE', #674, #1065 ) ;
#1029 = CC_DESIGN_PERSON_AND_ORGANIZATION_ASSIGNMENT ( #555, #273, ( #1143 ) ) ;
#1030 = CARTESIAN_POINT ( 'NONE',  ( -0.06250000000000000000, -9.949926624806815223E-17, 0.1250000000000000000 ) ) ;
#1031 = VERTEX_POINT ( 'NONE', #232 ) ;
#1032 = CARTESIAN_POINT ( 'NONE',  ( -0.03608439182435164982, 0.1874999999999996947, 9.444386341299240339E-17 ) ) ;
#1033 = FACE_OUTER_BOUND ( 'NONE', #531, .T. ) ;
#1034 = ORIENTED_EDGE ( 'NONE', *, *, #328, .F. ) ;
#1035 = DIRECTION ( 'NONE',  ( 1.000000000000000000, 0.000000000000000000, 0.000000000000000000 ) ) ;
#1036 = VECTOR ( 'NONE', #321, 39.37007874015748143 ) ;
#1037 = PLANE ( 'NONE',  #1081 ) ;
#1038 = VERTEX_POINT ( 'NONE', #688 ) ;
#1039 = CIRCLE ( 'NONE', #137, 0.06250000000000000000 ) ;
#1040 = CARTESIAN_POINT ( 'NONE',  ( 0.01804219591217579716, 0.1874999999999996947, -0.03124999999999989592 ) ) ;
#1041 = DIRECTION ( 'NONE',  ( -5.228927800373149648E-17, 1.000000000000000000, 0.000000000000000000 ) ) ;
#1042 = AXIS2_PLACEMENT_3D ( 'NONE', #320, #235, #596 ) ;
#1043 = ADVANCED_FACE ( 'NONE', ( #502 ), #931, .F. ) ;
#1044 = AXIS2_PLACEMENT_3D ( 'NONE', #604, #709, #263 ) ;
#1045 = DIRECTION ( 'NONE',  ( 1.000000000000000000, 0.000000000000000000, -0.000000000000000000 ) ) ;
#1046 = CARTESIAN_POINT ( 'NONE',  ( 0.08200000000000011446, 0.06250000000000001388, 1.004210375300830950E-17 ) ) ;
#1047 = VERTEX_POINT ( 'NONE', #955 ) ;
#1048 = ORIENTED_EDGE ( 'NONE', *, *, #120, .F. ) ;
#1049 = DIRECTION ( 'NONE',  ( 0.000000000000000000, 0.000000000000000000, 1.000000000000000000 ) ) ;
#1050 = PLANE ( 'NONE',  #136 ) ;
#1051 = DIRECTION ( 'NONE',  ( 0.000000000000000000, 0.000000000000000000, 1.000000000000000000 ) ) ;
#1052 = FACE_OUTER_BOUND ( 'NONE', #351, .T. ) ;
#1053 = ORIENTED_EDGE ( 'NONE', *, *, #560, .T. ) ;
#1054 = CARTESIAN_POINT ( 'NONE',  ( -0.03608439182435164982, 0.1249999999999997086, 9.444386341299240339E-17 ) ) ;
#1055 = CARTESIAN_POINT ( 'NONE',  ( 0.000000000000000000, 0.000000000000000000, -0.1212500000000000105 ) ) ;
#1056 = CARTESIAN_POINT ( 'NONE',  ( -0.03148498846330175654, 0.06250000000000000000, 3.855799034277383403E-18 ) ) ;
#1057 = ADVANCED_FACE ( 'NONE', ( #127 ), #554, .T. ) ;
#1058 = FACE_OUTER_BOUND ( 'NONE', #618, .T. ) ;
#1059 = ORIENTED_EDGE ( 'NONE', *, *, #519, .T. ) ;
#1060 = LINE ( 'NONE', #252, #736 ) ;
#1061 = AXIS2_PLACEMENT_3D ( 'NONE', #597, #1041, #418 ) ;
#1062 = VECTOR ( 'NONE', #1141, 39.37007874015749564 ) ;
#1063 = DIRECTION ( 'NONE',  ( -1.000000000000000000, 0.000000000000000000, 0.000000000000000000 ) ) ;
#1064 = CIRCLE ( 'NONE', #573, 0.06625000000000000333 ) ;
#1065 = VECTOR ( 'NONE', #782, 39.37007874015748143 ) ;
#1066 = EDGE_CURVE ( 'NONE', #1047, #925, #63, .T. ) ;
#1067 = ORIENTED_EDGE ( 'NONE', *, *, #338, .F. ) ;
#1068 = CARTESIAN_POINT ( 'NONE',  ( 0.04128270158543846657, 0.1829559607102012597, 0.07105107147671915757 ) ) ;
#1069 = CARTESIAN_POINT ( 'NONE',  ( 0.000000000000000000, 0.000000000000000000, -0.1250000000000000000 ) ) ;
#1070 = ADVANCED_FACE ( 'NONE', ( #529 ), #522, .F. ) ;
#1071 = DIRECTION ( 'NONE',  ( 0.000000000000000000, 0.000000000000000000, -1.000000000000000000 ) ) ;
#1072 = DIRECTION ( 'NONE',  ( 0.000000000000000000, -1.000000000000000000, 0.000000000000000000 ) ) ;
#1073 = ORIENTED_EDGE ( 'NONE', *, *, #305, .F. ) ;
#1074 = CARTESIAN_POINT ( 'NONE',  ( 0.05016442655487492186, 0.1807226196685507713, -0.06508487392137114746 ) ) ;
#1075 = DIRECTION ( 'NONE',  ( 1.000000000000000000, 0.000000000000000000, 0.000000000000000000 ) ) ;
#1076 = VERTEX_POINT ( 'NONE', #720 ) ;
#1077 = CARTESIAN_POINT ( 'NONE',  ( 0.07357726789463270300, 0.1724755489272267461, 0.03659988675951288128 ) ) ;
#1078 = DIRECTION ( 'NONE',  ( -0.000000000000000000, -0.000000000000000000, -1.000000000000000000 ) ) ;
#1079 = ADVANCED_FACE ( 'NONE', ( #169 ), #723, .T. ) ;
#1080 = AXIS2_PLACEMENT_3D ( 'NONE', #251, #517, #803 ) ;
#1081 = AXIS2_PLACEMENT_3D ( 'NONE', #1121, #496, #408 ) ;
#1082 = ORIENTED_EDGE ( 'NONE', *, *, #22, .F. ) ;
#1083 = FACE_OUTER_BOUND ( 'NONE', #464, .T. ) ;
#1084 = CARTESIAN_POINT ( 'NONE',  ( 0.000000000000000000, 0.000000000000000000, 0.1212500000000000105 ) ) ;
#1085 = APPROVAL_ROLE ( '' ) ;
#1086 = DIMENSIONAL_EXPONENTS ( 1.000000000000000000, 0.000000000000000000, 0.000000000000000000, 0.000000000000000000, 0.000000000000000000, 0.000000000000000000, 0.000000000000000000 ) ;
#1087 = VERTEX_POINT ( 'NONE', #92 ) ;
#1088 = DIRECTION ( 'NONE',  ( -1.000000000000000000, 0.000000000000000000, 0.000000000000000000 ) ) ;
#1089 = CARTESIAN_POINT ( 'NONE',  ( 1.378133692333909811E-14, 0.06250000000010978718, 0.08200000000008383916 ) ) ;
#1090 = COORDINATED_UNIVERSAL_TIME_OFFSET ( 6, 0, .BEHIND. ) ;
#1091 = EDGE_CURVE ( 'NONE', #1047, #541, #801, .T. ) ;
#1092 = ORIENTED_EDGE ( 'NONE', *, *, #429, .F. ) ;
#1093 = DIRECTION ( 'NONE',  ( -1.000000000000000000, 0.000000000000000000, 0.000000000000000000 ) ) ;
#1094 = CARTESIAN_POINT ( 'NONE',  ( -0.01804219591217584920, 0.1874999999999996947, -0.03124999999999989592 ) ) ;
#1095 = VECTOR ( 'NONE', #1154, 39.37007874015748143 ) ;
#1096 = CIRCLE ( 'NONE', #339, 0.06625000000000000333 ) ;
#1097 = AXIS2_PLACEMENT_3D ( 'NONE', #32, #297, #1088 ) ;
#1098 = DATE_AND_TIME ( #726, #325 ) ;
#1099 = AXIS2_PLACEMENT_3D ( 'NONE', #318, #324, #1137 ) ;
#1100 = ORIENTED_EDGE ( 'NONE', *, *, #20, .T. ) ;
#1101 = CARTESIAN_POINT ( 'NONE',  ( 0.03237342442279041860, 0.05409814933082186805, 0.07575883320656119635 ) ) ;
#1102 = EDGE_CURVE ( 'NONE', #676, #219, #592, .T. ) ;
#1103 = CARTESIAN_POINT ( 'NONE',  ( -9.804239625699654820E-18, 0.1874999999999999722, 0.000000000000000000 ) ) ;
#1104 = ADVANCED_FACE ( 'NONE', ( #703 ), #489, .T. ) ;
#1105 = ORIENTED_EDGE ( 'NONE', *, *, #395, .T. ) ;
#1106 = CARTESIAN_POINT ( 'NONE',  ( 0.04968844137167622438, 0.03811237317957329174, -0.06529141977600820546 ) ) ;
#1107 = ORIENTED_EDGE ( 'NONE', *, *, #473, .T. ) ;
#1108 = ADVANCED_FACE ( 'NONE', ( #1058 ), #1158, .T. ) ;
#1109 = ORIENTED_EDGE ( 'NONE', *, *, #478, .F. ) ;
#1110 = CARTESIAN_POINT ( 'NONE',  ( 0.06250000000000002776, 0.008703092678595519133, -0.05308248298638647972 ) ) ;
#1111 = DIRECTION ( 'NONE',  ( 0.000000000000000000, 0.000000000000000000, 1.000000000000000000 ) ) ;
#1112 = ORIENTED_EDGE ( 'NONE', *, *, #589, .T. ) ;
#1113 = EDGE_CURVE ( 'NONE', #1087, #505, #761, .T. ) ;
#1114 = VECTOR ( 'NONE', #85, 39.37007874015748143 ) ;
#1115 = EDGE_LOOP ( 'NONE', ( #142, #841, #727, #1100 ) ) ;
#1116 = CARTESIAN_POINT ( 'NONE',  ( 0.01804219591217579716, 0.1249999999999997086, 0.03125000000000009714 ) ) ;
#1117 = CIRCLE ( 'NONE', #9, 0.05576250961391530925 ) ;
#1118 = VECTOR ( 'NONE', #139, 39.37007874015748143 ) ;
#1119 = CARTESIAN_POINT ( 'NONE',  ( 2.983298677391263757E-19, 0.1875000000000000278, -0.08199999999999996181 ) ) ;
#1120 = ORIENTED_EDGE ( 'NONE', *, *, #747, .T. ) ;
#1121 = CARTESIAN_POINT ( 'NONE',  ( 0.01804219591217579716, 0.1249999999999997086, -0.03124999999999989592 ) ) ;
#1122 = DIRECTION ( 'NONE',  ( 0.5000000000000000000, 0.000000000000000000, 0.8660254037844385966 ) ) ;
#1123 = VERTEX_POINT ( 'NONE', #975 ) ;
#1124 = CARTESIAN_POINT ( 'NONE',  ( 0.06250000000000000000, 7.654042494670957545E-18, 0.1250000000000000000 ) ) ;
#1125 = DIRECTION ( 'NONE',  ( 1.000000000000000000, 0.000000000000000000, 0.000000000000000000 ) ) ;
#1126 = EDGE_CURVE ( 'NONE', #449, #721, #512, .T. ) ;
#1127 = DIRECTION ( 'NONE',  ( -0.7071067811865473507, 0.7071067811865475727, 0.000000000000000000 ) ) ;
#1128 = ORIENTED_EDGE ( 'NONE', *, *, #1102, .F. ) ;
#1129 = PLANE ( 'NONE',  #177 ) ;
#1130 = CARTESIAN_POINT ( 'NONE',  ( 0.004293042084581494104, 0.06249999999999834854, 0.08199999999999890710 ) ) ;
#1131 = AXIS2_PLACEMENT_3D ( 'NONE', #913, #206, #832 ) ;
#1132 = ORIENTED_EDGE ( 'NONE', *, *, #292, .T. ) ;
#1133 = DIRECTION ( 'NONE',  ( 1.000000000000000000, 0.000000000000000000, 0.000000000000000000 ) ) ;
#1134 = DIRECTION ( 'NONE',  ( 0.000000000000000000, 0.000000000000000000, 1.000000000000000000 ) ) ;
#1135 = AXIS2_PLACEMENT_3D ( 'NONE', #764, #477, #860 ) ;
#1136 = CARTESIAN_POINT ( 'NONE',  ( -0.05576250961391531619, 0.1874999999999999722, 8.435520822059398978E-18 ) ) ;
#1137 = DIRECTION ( 'NONE',  ( 0.4999999999999998890, 0.000000000000000000, -0.8660254037844385966 ) ) ;
#1138 = EDGE_LOOP ( 'NONE', ( #50, #34, #58 ) ) ;
#1139 = CARTESIAN_POINT ( 'NONE',  ( -0.07362078941212595040, 0.1724566697554710815, -0.03650537364634048876 ) ) ;
#1140 = DIRECTION ( 'NONE',  ( 0.000000000000000000, 1.000000000000000000, 0.000000000000000000 ) ) ;
#1141 = DIRECTION ( 'NONE',  ( -0.5000000000000002220, 0.000000000000000000, -0.8660254037844384856 ) ) ;
#1142 = EDGE_CURVE ( 'NONE', #148, #380, #687, .T. ) ;
#1143 = PRODUCT ( '9414T3_Set Screw Shaft Collar_9414T3_sldprt', '9414T3_Set Screw Shaft Collar_9414T3_sldprt', '', ( #567 ) ) ;
#1144 = EDGE_LOOP ( 'NONE', ( #845, #1159 ) ) ;
#1145 = DIRECTION ( 'NONE',  ( 5.228927800373149648E-17, -1.000000000000000000, 0.000000000000000000 ) ) ;
#1146 = CARTESIAN_POINT ( 'NONE',  ( -0.01804219591217584920, 0.1249999999999997086, -0.03124999999999989592 ) ) ;
#1147 = DIRECTION ( 'NONE',  ( 0.000000000000000000, 1.000000000000000000, 0.000000000000000000 ) ) ;
#1148 = EDGE_CURVE ( 'NONE', #250, #449, #1150, .T. ) ;
#1149 = EDGE_CURVE ( 'NONE', #219, #676, #838, .T. ) ;
#1150 = LINE ( 'NONE', #420, #876 ) ;
#1151 = CIRCLE ( 'NONE', #642, 0.1837500000000000244 ) ;
#1152 = VERTEX_POINT ( 'NONE', #257 ) ;
#1153 = CARTESIAN_POINT ( 'NONE',  ( 0.08145434269033599572, 0.1688870285176516384, 0.01087794898414365906 ) ) ;
#1154 = DIRECTION ( 'NONE',  ( -0.7071067811865474617, -0.7071067811865475727, 8.659560562354931626E-17 ) ) ;
#1155 = AXIS2_PLACEMENT_3D ( 'NONE', #71, #625, #362 ) ;
#1156 = CARTESIAN_POINT ( 'NONE',  ( -1.377129482043804154E-14, 0.06250000000010978718, -0.08200000000008363099 ) ) ;
#1157 = AXIS2_PLACEMENT_3D ( 'NONE', #174, #3, #899 ) ;
#1158 = CYLINDRICAL_SURFACE ( 'NONE', #1044, 0.08200000000000011446 ) ;
#1159 = ORIENTED_EDGE ( 'NONE', *, *, #1142, .T. ) ;
#1160 = ORIENTED_EDGE ( 'NONE', *, *, #823, .T. ) ;
ENDSEC;
END-ISO-10303-21;
