ISO-10303-21;
HEADER;
FILE_DESCRIPTION (( 'STEP AP203' ),
    '1' );
FILE_NAME ('Bottom plate 2-005_Default_sldprt.STEP',
    '2025-03-08T04:50:29',
    ( '' ),
    ( '' ),
    'SwSTEP 2.0',
    'SolidWorks 2024',
    '' );
FILE_SCHEMA (( 'CONFIG_CONTROL_DESIGN' ));
ENDSEC;

DATA;
#1 = DIRECTION ( 'NONE',  ( -1.000000000000000000, -3.973597081693437700E-15, 0.000000000000000000 ) ) ;
#2 = ORIENTED_EDGE ( 'NONE', *, *, #370, .F. ) ;
#3 = CARTESIAN_POINT ( 'NONE',  ( -14.43161243918008019, -21.36415652586519087, -0.05000000000000000278 ) ) ;
#4 = ADVANCED_BREP_SHAPE_REPRESENTATION ( 'Bottom plate 2-005_Default_sldprt', ( #95, #281 ), #348 ) ;
#5 = CARTESIAN_POINT ( 'NONE',  ( 3.988895636508727360, -21.36415652586505942, 0.1499999999999999944 ) ) ;
#6 = EDGE_CURVE ( 'NONE', #382, #295, #184, .T. ) ;
#7 = DIRECTION ( 'NONE',  ( -0.000000000000000000, -0.000000000000000000, -1.000000000000000000 ) ) ;
#8 = ADVANCED_FACE ( 'NONE', ( #179 ), #120, .T. ) ;
#9 = EDGE_LOOP ( 'NONE', ( #92, #298, #378, #80 ) ) ;
#10 = FACE_OUTER_BOUND ( 'NONE', #325, .T. ) ;
#11 = VECTOR ( 'NONE', #99, 39.37007874015748143 ) ;
#12 = VECTOR ( 'NONE', #104, 39.37007874015748143 ) ;
#13 = ORIENTED_EDGE ( 'NONE', *, *, #191, .F. ) ;
#14 = PERSON_AND_ORGANIZATION ( #107, #316 ) ;
#15 = DIRECTION ( 'NONE',  ( 0.000000000000000000, 0.000000000000000000, -1.000000000000000000 ) ) ;
#16 = ORIENTED_EDGE ( 'NONE', *, *, #56, .F. ) ;
#17 = COORDINATED_UNIVERSAL_TIME_OFFSET ( 6, 0, .BEHIND. ) ;
#18 = EDGE_CURVE ( 'NONE', #330, #93, #245, .T. ) ;
#19 = DIRECTION ( 'NONE',  ( -0.8660254037844344888, -0.5000000000000072164, 0.000000000000000000 ) ) ;
#20 = ORIENTED_EDGE ( 'NONE', *, *, #361, .F. ) ;
#21 = AXIS2_PLACEMENT_3D ( 'NONE', #319, #19, #170 ) ;
#22 = EDGE_LOOP ( 'NONE', ( #265, #69, #210, #272 ) ) ;
#23 = CC_DESIGN_PERSON_AND_ORGANIZATION_ASSIGNMENT ( #349, #367, ( #364 ) ) ;
#24 = DIRECTION ( 'NONE',  ( -3.617215553213824108E-15, 1.000000000000000000, 0.000000000000000000 ) ) ;
#25 = DIRECTION ( 'NONE',  ( 1.000000000000000000, 3.617215553213824108E-15, -0.000000000000000000 ) ) ;
#26 = VECTOR ( 'NONE', #395, 39.37007874015748143 ) ;
#27 = VECTOR ( 'NONE', #45, 39.37007874015748143 ) ;
#28 = PRODUCT_DEFINITION ( 'UNKNOWN', '', #364, #128 ) ;
#29 = DIRECTION ( 'NONE',  ( -0.000000000000000000, -0.000000000000000000, -1.000000000000000000 ) ) ;
#30 = AXIS2_PLACEMENT_3D ( 'NONE', #121, #15, #145 ) ;
#31 = DIRECTION ( 'NONE',  ( -1.000000000000000000, -3.733899925898145163E-15, 0.000000000000000000 ) ) ;
#32 = APPROVAL ( #196, 'UNSPECIFIED' ) ;
#33 = APPROVAL_STATUS ( 'not_yet_approved' ) ;
#34 = CARTESIAN_POINT ( 'NONE',  ( -5.221358401335752575, -24.14135798948509759, -0.05000000000000000278 ) ) ;
#35 = CALENDAR_DATE ( 2025, 7, 3 ) ;
#36 = CARTESIAN_POINT ( 'NONE',  ( 2.888895636508719722, -19.45890063753931898, 0.1499999999999999944 ) ) ;
#37 = PERSON_AND_ORGANIZATION ( #107, #316 ) ;
#38 = CC_DESIGN_PERSON_AND_ORGANIZATION_ASSIGNMENT ( #132, #249, ( #28 ) ) ;
#39 = AXIS2_PLACEMENT_3D ( 'NONE', #188, #299, #201 ) ;
#40 = CARTESIAN_POINT ( 'NONE',  ( -14.43161243918008019, -21.36415652586519087, 0.1499999999999999944 ) ) ;
#41 = ORIENTED_EDGE ( 'NONE', *, *, #18, .F. ) ;
#42 = APPROVAL_ROLE ( '' ) ;
#43 = LINE ( 'NONE', #293, #154 ) ;
#44 = CARTESIAN_POINT ( 'NONE',  ( 3.988895636508727360, -21.36415652586505942, 0.1499999999999999944 ) ) ;
#45 = DIRECTION ( 'NONE',  ( -0.000000000000000000, -0.000000000000000000, -1.000000000000000000 ) ) ;
#46 = VERTEX_POINT ( 'NONE', #362 ) ;
#47 = APPROVAL_STATUS ( 'not_yet_approved' ) ;
#48 = CARTESIAN_POINT ( 'NONE',  ( -13.33161243918008765, -19.45890063753942201, 0.1499999999999999944 ) ) ;
#49 = VECTOR ( 'NONE', #159, 39.37007874015748143 ) ;
#50 = CC_DESIGN_PERSON_AND_ORGANIZATION_ASSIGNMENT ( #67, #100, ( #364 ) ) ;
#51 = ORIENTED_EDGE ( 'NONE', *, *, #365, .T. ) ;
#52 = DIRECTION ( 'NONE',  ( 0.4999999999999967248, 0.8660254037844404840, 0.000000000000000000 ) ) ;
#53 = EDGE_LOOP ( 'NONE', ( #332, #127, #16, #151, #391, #242, #205, #140, #86 ) ) ;
#54 = PERSON_AND_ORGANIZATION ( #107, #316 ) ;
#55 = CARTESIAN_POINT ( 'NONE',  ( -6.321358401335642085, -35.41152858170225670, 0.1499999999999999944 ) ) ;
#56 = EDGE_CURVE ( 'NONE', #382, #357, #157, .T. ) ;
#57 = EDGE_LOOP ( 'NONE', ( #77, #2, #270, #300 ) ) ;
#58 = CC_DESIGN_APPROVAL ( #403, ( #28 ) ) ;
#59 = ORIENTED_EDGE ( 'NONE', *, *, #377, .T. ) ;
#60 = VECTOR ( 'NONE', #372, 39.37007874015748854 ) ;
#61 = ADVANCED_FACE ( 'NONE', ( #125 ), #238, .T. ) ;
#62 = DIRECTION ( 'NONE',  ( 0.4999999999999954481, 0.8660254037844412611, -0.000000000000000000 ) ) ;
#63 = CC_DESIGN_DATE_AND_TIME_ASSIGNMENT ( #89, #385, ( #360 ) ) ;
#64 = FACE_OUTER_BOUND ( 'NONE', #9, .T. ) ;
#65 = MECHANICAL_CONTEXT ( 'NONE', #239, 'mechanical' ) ;
#66 = CARTESIAN_POINT ( 'NONE',  ( -13.33161243918008765, -19.45890063753942201, 0.1499999999999999944 ) ) ;
#67 = PERSON_AND_ORGANIZATION ( #107, #316 ) ;
#68 = CARTESIAN_POINT ( 'NONE',  ( -4.121358401335656119, -26.04661387781083093, 0.1499999999999999944 ) ) ;
#69 = ORIENTED_EDGE ( 'NONE', *, *, #365, .F. ) ;
#70 = DIRECTION ( 'NONE',  ( -0.8660254037844374864, -0.5000000000000021094, 0.000000000000000000 ) ) ;
#71 = CC_DESIGN_PERSON_AND_ORGANIZATION_ASSIGNMENT ( #144, #404, ( #233 ) ) ;
#72 =( NAMED_UNIT ( * ) SI_UNIT ( $, .STERADIAN. ) SOLID_ANGLE_UNIT ( ) );
#73 = CARTESIAN_POINT ( 'NONE',  ( -4.121358401335621480, -35.41152858170224249, -0.05000000000000000278 ) ) ;
#74 = ORIENTED_EDGE ( 'NONE', *, *, #259, .F. ) ;
#75 = DIRECTION ( 'NONE',  ( 0.000000000000000000, 0.000000000000000000, 1.000000000000000000 ) ) ;
#76 = LINE ( 'NONE', #321, #27 ) ;
#77 = ORIENTED_EDGE ( 'NONE', *, *, #106, .T. ) ;
#78 = CALENDAR_DATE ( 2025, 7, 3 ) ;
#79 = DIRECTION ( 'NONE',  ( -0.000000000000000000, -0.000000000000000000, -1.000000000000000000 ) ) ;
#80 = ORIENTED_EDGE ( 'NONE', *, *, #278, .T. ) ;
#81 = LINE ( 'NONE', #176, #206 ) ;
#82 = VECTOR ( 'NONE', #135, 39.37007874015748143 ) ;
#83 = DIRECTION ( 'NONE',  ( 0.5000000000000001110, 0.8660254037844387076, -0.000000000000000000 ) ) ;
#84 = APPROVAL_ROLE ( '' ) ;
#85 = LINE ( 'NONE', #115, #90 ) ;
#86 = ORIENTED_EDGE ( 'NONE', *, *, #98, .F. ) ;
#87 = PRODUCT_RELATED_PRODUCT_CATEGORY ( 'detail', '', ( #233 ) ) ;
#88 = ORIENTED_EDGE ( 'NONE', *, *, #377, .F. ) ;
#89 = DATE_AND_TIME ( #328, #306 ) ;
#90 = VECTOR ( 'NONE', #329, 39.37007874015748143 ) ;
#91 = CC_DESIGN_APPROVAL ( #301, ( #360 ) ) ;
#92 = ORIENTED_EDGE ( 'NONE', *, *, #215, .F. ) ;
#93 = VERTEX_POINT ( 'NONE', #244 ) ;
#94 = ADVANCED_FACE ( 'NONE', ( #185 ), #304, .F. ) ;
#95 = MANIFOLD_SOLID_BREP ( 'Scale1', #333 ) ;
#96 = AXIS2_PLACEMENT_3D ( 'NONE', #336, #62, #187 ) ;
#97 = APPROVAL_PERSON_ORGANIZATION ( #37, #403, #42 ) ;
#98 = EDGE_CURVE ( 'NONE', #358, #334, #307, .T. ) ;
#99 = DIRECTION ( 'NONE',  ( -1.000000000000000000, -3.973597081693437700E-15, 0.000000000000000000 ) ) ;
#100 = PERSON_AND_ORGANIZATION_ROLE ( 'design_supplier' ) ;
#101 = DIRECTION ( 'NONE',  ( 0.5000000000000022204, -0.8660254037844373753, 0.000000000000000000 ) ) ;
#102 = VECTOR ( 'NONE', #52, 39.37007874015748854 ) ;
#103 = CARTESIAN_POINT ( 'NONE',  ( -4.121358401335656119, -26.04661387781083093, -0.05000000000000000278 ) ) ;
#104 = DIRECTION ( 'NONE',  ( 0.8660254037844411501, -0.4999999999999955036, 0.000000000000000000 ) ) ;
#105 = CARTESIAN_POINT ( 'NONE',  ( -6.321358401335642085, -35.41152858170225670, 0.1499999999999999944 ) ) ;
#106 = EDGE_CURVE ( 'NONE', #109, #222, #250, .T. ) ;
#107 = PERSON ( 'UNSPECIFIED', 'UNSPECIFIED', 'UNSPECIFIED', ('UNSPECIFIED'), ('UNSPECIFIED'), ('UNSPECIFIED') ) ;
#108 = EDGE_CURVE ( 'NONE', #330, #382, #314, .T. ) ;
#109 = VERTEX_POINT ( 'NONE', #405 ) ;
#110 = CALENDAR_DATE ( 2025, 7, 3 ) ;
#111 = CARTESIAN_POINT ( 'NONE',  ( 3.988895636508727360, -21.36415652586505942, -0.05000000000000000278 ) ) ;
#112 = VERTEX_POINT ( 'NONE', #338 ) ;
#113 = APPROVAL_DATE_TIME ( #375, #403 ) ;
#114 = VECTOR ( 'NONE', #252, 39.37007874015748854 ) ;
#115 = CARTESIAN_POINT ( 'NONE',  ( -6.321358401335676724, -26.04661387781084869, 0.1499999999999999944 ) ) ;
#116 = LINE ( 'NONE', #119, #371 ) ;
#117 = ORIENTED_EDGE ( 'NONE', *, *, #6, .F. ) ;
#118 = SHAPE_DEFINITION_REPRESENTATION ( #228, #4 ) ;
#119 = CARTESIAN_POINT ( 'NONE',  ( 2.888895636508719722, -19.45890063753931898, 0.1499999999999999944 ) ) ;
#120 = PLANE ( 'NONE',  #271 ) ;
#121 = CARTESIAN_POINT ( 'NONE',  ( 5.221358401335652211, 25.41152858170228157, 0.1499999999999999944 ) ) ;
#122 = VECTOR ( 'NONE', #1, 39.37007874015748143 ) ;
#123 = ORIENTED_EDGE ( 'NONE', *, *, #278, .F. ) ;
#124 = ORIENTED_EDGE ( 'NONE', *, *, #215, .T. ) ;
#125 = FACE_OUTER_BOUND ( 'NONE', #320, .T. ) ;
#126 = LOCAL_TIME ( 22, 50, 29.00000000000000000, #318 ) ;
#127 = ORIENTED_EDGE ( 'NONE', *, *, #131, .T. ) ;
#128 = DESIGN_CONTEXT ( 'detailed design', #203, 'design' ) ;
#129 = DIMENSIONAL_EXPONENTS ( 1.000000000000000000, 0.000000000000000000, 0.000000000000000000, 0.000000000000000000, 0.000000000000000000, 0.000000000000000000, 0.000000000000000000 ) ;
#130 = DIRECTION ( 'NONE',  ( -3.733899925898145163E-15, 1.000000000000000000, 0.000000000000000000 ) ) ;
#131 = EDGE_CURVE ( 'NONE', #112, #357, #347, .T. ) ;
#132 = PERSON_AND_ORGANIZATION ( #107, #316 ) ;
#133 = LINE ( 'NONE', #194, #253 ) ;
#134 = CALENDAR_DATE ( 2025, 7, 3 ) ;
#135 = DIRECTION ( 'NONE',  ( -0.8660254037844374864, -0.5000000000000021094, 0.000000000000000000 ) ) ;
#136 = AXIS2_PLACEMENT_3D ( 'NONE', #105, #31, #258 ) ;
#137 = DIRECTION ( 'NONE',  ( 1.000000000000000000, 0.000000000000000000, 0.000000000000000000 ) ) ;
#138 = AXIS2_PLACEMENT_3D ( 'NONE', #226, #162, #290 ) ;
#139 = LINE ( 'NONE', #5, #337 ) ;
#140 = ORIENTED_EDGE ( 'NONE', *, *, #181, .T. ) ;
#141 = LENGTH_MEASURE_WITH_UNIT ( LENGTH_MEASURE( 0.02539999999999999897 ), #285 );
#142 = PLANE ( 'NONE',  #136 ) ;
#143 = ORIENTED_EDGE ( 'NONE', *, *, #98, .T. ) ;
#144 = PERSON_AND_ORGANIZATION ( #107, #316 ) ;
#145 = DIRECTION ( 'NONE',  ( -1.000000000000000000, 0.000000000000000000, -0.000000000000000000 ) ) ;
#146 = EDGE_LOOP ( 'NONE', ( #74, #117, #327, #51 ) ) ;
#147 = CARTESIAN_POINT ( 'NONE',  ( -14.43161243918008019, -21.36415652586519087, 0.1499999999999999944 ) ) ;
#148 = ORIENTED_EDGE ( 'NONE', *, *, #6, .T. ) ;
#149 = COORDINATED_UNIVERSAL_TIME_OFFSET ( 6, 0, .BEHIND. ) ;
#150 = CARTESIAN_POINT ( 'NONE',  ( -5.221358401335752575, -24.14135798948509759, 0.1499999999999999944 ) ) ;
#151 = ORIENTED_EDGE ( 'NONE', *, *, #108, .F. ) ;
#152 = CARTESIAN_POINT ( 'NONE',  ( -13.33161243918008765, -19.45890063753942201, 0.1499999999999999944 ) ) ;
#153 = EDGE_LOOP ( 'NONE', ( #124, #384, #211, #292, #345, #193, #397, #168, #322 ) ) ;
#154 = VECTOR ( 'NONE', #264, 39.37007874015748854 ) ;
#155 = EDGE_CURVE ( 'NONE', #93, #295, #227, .T. ) ;
#156 = LOCAL_TIME ( 22, 50, 29.00000000000000000, #223 ) ;
#157 = LINE ( 'NONE', #275, #26 ) ;
#158 = CARTESIAN_POINT ( 'NONE',  ( -4.121358401335621480, -35.41152858170224249, 0.1499999999999999944 ) ) ;
#159 = DIRECTION ( 'NONE',  ( -0.000000000000000000, -0.000000000000000000, -1.000000000000000000 ) ) ;
#160 = DIRECTION ( 'NONE',  ( 0.8660254037844385966, -0.4999999999999998890, 0.000000000000000000 ) ) ;
#161 = CARTESIAN_POINT ( 'NONE',  ( -4.121358401335621480, -35.41152858170224249, 0.1499999999999999944 ) ) ;
#162 = DIRECTION ( 'NONE',  ( 3.973597081693437700E-15, -1.000000000000000000, 0.000000000000000000 ) ) ;
#163 = DIRECTION ( 'NONE',  ( 3.617215553213824897E-15, -1.000000000000000000, 0.000000000000000000 ) ) ;
#164 = FACE_OUTER_BOUND ( 'NONE', #317, .T. ) ;
#165 = LINE ( 'NONE', #111, #390 ) ;
#166 = LINE ( 'NONE', #3, #12 ) ;
#167 = LINE ( 'NONE', #342, #82 ) ;
#168 = ORIENTED_EDGE ( 'NONE', *, *, #259, .T. ) ;
#169 = PLANE ( 'NONE',  #138 ) ;
#170 = DIRECTION ( 'NONE',  ( 0.5000000000000072164, -0.8660254037844344888, 0.000000000000000000 ) ) ;
#171 = EDGE_CURVE ( 'NONE', #235, #93, #284, .T. ) ;
#172 = ORIENTED_EDGE ( 'NONE', *, *, #370, .T. ) ;
#173 = DIRECTION ( 'NONE',  ( 0.5000000000000056621, -0.8660254037844354880, 0.000000000000000000 ) ) ;
#174 = APPROVAL_DATE_TIME ( #232, #301 ) ;
#175 = APPROVAL_PERSON_ORGANIZATION ( #341, #32, #200 ) ;
#176 = CARTESIAN_POINT ( 'NONE',  ( 3.988895636508727360, -21.36415652586505942, 0.1499999999999999944 ) ) ;
#177 = VERTEX_POINT ( 'NONE', #373 ) ;
#178 = PLANE ( 'NONE',  #324 ) ;
#179 = FACE_OUTER_BOUND ( 'NONE', #241, .T. ) ;
#180 = EDGE_CURVE ( 'NONE', #254, #235, #133, .T. ) ;
#181 = EDGE_CURVE ( 'NONE', #46, #334, #167, .T. ) ;
#182 = CARTESIAN_POINT ( 'NONE',  ( -4.121358401335656119, -26.04661387781083093, 0.1499999999999999944 ) ) ;
#183 = LOCAL_TIME ( 22, 50, 29.00000000000000000, #17 ) ;
#184 = LINE ( 'NONE', #55, #399 ) ;
#185 = FACE_OUTER_BOUND ( 'NONE', #22, .T. ) ;
#186 = ADVANCED_FACE ( 'NONE', ( #368 ), #289, .F. ) ;
#187 = DIRECTION ( 'NONE',  ( -0.8660254037844411501, 0.4999999999999953926, 0.000000000000000000 ) ) ;
#188 = CARTESIAN_POINT ( 'NONE',  ( -14.43161243918008019, -21.36415652586519087, 0.1499999999999999944 ) ) ;
#189 = CARTESIAN_POINT ( 'NONE',  ( 0.000000000000000000, 0.000000000000000000, 0.000000000000000000 ) ) ;
#190 = CARTESIAN_POINT ( 'NONE',  ( 2.888895636508719722, -19.45890063753931898, -0.05000000000000000278 ) ) ;
#191 = EDGE_CURVE ( 'NONE', #177, #222, #376, .T. ) ;
#192 = DIRECTION ( 'NONE',  ( 0.8660254037844373753, 0.5000000000000022204, 0.000000000000000000 ) ) ;
#193 = ORIENTED_EDGE ( 'NONE', *, *, #171, .T. ) ;
#194 = CARTESIAN_POINT ( 'NONE',  ( 3.988895636508727360, -21.36415652586505942, -0.05000000000000000278 ) ) ;
#195 = VECTOR ( 'NONE', #366, 39.37007874015748143 ) ;
#196 = APPROVAL_STATUS ( 'not_yet_approved' ) ;
#197 = UNCERTAINTY_MEASURE_WITH_UNIT (LENGTH_MEASURE( 1.000000000000000082E-05 ), #218, 'distance_accuracy_value', 'NONE');
#198 = CARTESIAN_POINT ( 'NONE',  ( 3.988895636508727360, -21.36415652586505942, -0.05000000000000000278 ) ) ;
#199 = ORIENTED_EDGE ( 'NONE', *, *, #18, .T. ) ;
#200 = APPROVAL_ROLE ( '' ) ;
#201 = DIRECTION ( 'NONE',  ( -0.4999999999999968359, -0.8660254037844403729, 0.000000000000000000 ) ) ;
#202 = VERTEX_POINT ( 'NONE', #256 ) ;
#203 = APPLICATION_CONTEXT ( 'configuration controlled 3d designs of mechanical parts and assemblies' ) ;
#204 = CARTESIAN_POINT ( 'NONE',  ( 3.988895636508727360, -21.36415652586505942, 0.1499999999999999944 ) ) ;
#205 = ORIENTED_EDGE ( 'NONE', *, *, #216, .T. ) ;
#206 = VECTOR ( 'NONE', #207, 39.37007874015748143 ) ;
#207 = DIRECTION ( 'NONE',  ( -0.000000000000000000, -0.000000000000000000, -1.000000000000000000 ) ) ;
#208 = ORIENTED_EDGE ( 'NONE', *, *, #216, .F. ) ;
#209 = DIRECTION ( 'NONE',  ( 0.8660254037844353769, 0.5000000000000055511, 0.000000000000000000 ) ) ;
#210 = ORIENTED_EDGE ( 'NONE', *, *, #131, .F. ) ;
#211 = ORIENTED_EDGE ( 'NONE', *, *, #106, .F. ) ;
#212 = AXIS2_PLACEMENT_3D ( 'NONE', #36, #101, #192 ) ;
#213 = DIRECTION ( 'NONE',  ( -0.8660254037844385966, 0.5000000000000000000, 0.000000000000000000 ) ) ;
#214 = EDGE_LOOP ( 'NONE', ( #225, #20, #302, #59 ) ) ;
#215 = EDGE_CURVE ( 'NONE', #352, #177, #219, .T. ) ;
#216 = EDGE_CURVE ( 'NONE', #387, #46, #139, .T. ) ;
#217 = DIRECTION ( 'NONE',  ( -0.5000000000000073275, 0.8660254037844344888, 0.000000000000000000 ) ) ;
#218 =( CONVERSION_BASED_UNIT ( 'INCH', #141 ) LENGTH_UNIT ( ) NAMED_UNIT ( #129 ) );
#219 = LINE ( 'NONE', #340, #114 ) ;
#220 = VECTOR ( 'NONE', #326, 39.37007874015748143 ) ;
#221 = LINE ( 'NONE', #286, #262 ) ;
#222 = VERTEX_POINT ( 'NONE', #34 ) ;
#223 = COORDINATED_UNIVERSAL_TIME_OFFSET ( 6, 0, .BEHIND. ) ;
#224 = CARTESIAN_POINT ( 'NONE',  ( -13.33161243918008765, -19.45890063753942201, -0.05000000000000000278 ) ) ;
#225 = ORIENTED_EDGE ( 'NONE', *, *, #180, .F. ) ;
#226 = CARTESIAN_POINT ( 'NONE',  ( -4.121358401335621480, -35.41152858170224249, 0.1499999999999999944 ) ) ;
#227 = LINE ( 'NONE', #73, #122 ) ;
#228 = PRODUCT_DEFINITION_SHAPE ( 'NONE', 'NONE',  #28 ) ;
#229 = EDGE_CURVE ( 'NONE', #202, #330, #309, .T. ) ;
#230 = DATE_AND_TIME ( #35, #126 ) ;
#231 = CARTESIAN_POINT ( 'NONE',  ( -6.321358401335676724, -26.04661387781084869, -0.05000000000000000278 ) ) ;
#232 = DATE_AND_TIME ( #78, #183 ) ;
#233 = PRODUCT ( 'Bottom plate 2-005_Default_sldprt', 'Bottom plate 2-005_Default_sldprt', '', ( #65 ) ) ;
#234 = LINE ( 'NONE', #147, #102 ) ;
#235 = VERTEX_POINT ( 'NONE', #103 ) ;
#236 = EDGE_CURVE ( 'NONE', #112, #352, #221, .T. ) ;
#237 = CARTESIAN_POINT ( 'NONE',  ( -14.43161243918008019, -21.36415652586519087, -0.05000000000000000278 ) ) ;
#238 = PLANE ( 'NONE',  #276 ) ;
#239 = APPLICATION_CONTEXT ( 'configuration controlled 3d designs of mechanical parts and assemblies' ) ;
#240 = DIRECTION ( 'NONE',  ( 0.000000000000000000, 0.000000000000000000, -1.000000000000000000 ) ) ;
#241 = EDGE_LOOP ( 'NONE', ( #343, #88, #288, #199 ) ) ;
#242 = ORIENTED_EDGE ( 'NONE', *, *, #273, .F. ) ;
#243 = ADVANCED_FACE ( 'NONE', ( #312 ), #142, .T. ) ;
#244 = CARTESIAN_POINT ( 'NONE',  ( -4.121358401335621480, -35.41152858170224249, -0.05000000000000000278 ) ) ;
#245 = LINE ( 'NONE', #158, #49 ) ;
#246 = EDGE_CURVE ( 'NONE', #254, #109, #165, .T. ) ;
#247 = VECTOR ( 'NONE', #130, 39.37007874015748143 ) ;
#248 = PLANE ( 'NONE',  #39 ) ;
#249 = PERSON_AND_ORGANIZATION_ROLE ( 'creator' ) ;
#250 = LINE ( 'NONE', #190, #279 ) ;
#251 = DATE_AND_TIME ( #110, #156 ) ;
#252 = DIRECTION ( 'NONE',  ( 0.4999999999999967248, 0.8660254037844404840, 0.000000000000000000 ) ) ;
#253 = VECTOR ( 'NONE', #311, 39.37007874015748854 ) ;
#254 = VERTEX_POINT ( 'NONE', #198 ) ;
#255 = APPLICATION_PROTOCOL_DEFINITION ( 'international standard', 'config_control_design', 1994, #239 ) ;
#256 = CARTESIAN_POINT ( 'NONE',  ( -4.121358401335656119, -26.04661387781083093, 0.1499999999999999944 ) ) ;
#257 =( NAMED_UNIT ( * ) PLANE_ANGLE_UNIT ( ) SI_UNIT ( $, .RADIAN. ) );
#258 = DIRECTION ( 'NONE',  ( 3.733899925898145163E-15, -1.000000000000000000, 0.000000000000000000 ) ) ;
#259 = EDGE_CURVE ( 'NONE', #295, #274, #280, .T. ) ;
#260 = PLANE ( 'NONE',  #308 ) ;
#261 = ORIENTED_EDGE ( 'NONE', *, *, #350, .F. ) ;
#262 = VECTOR ( 'NONE', #29, 39.37007874015748143 ) ;
#263 = PERSON_AND_ORGANIZATION_ROLE ( 'classification_officer' ) ;
#264 = DIRECTION ( 'NONE',  ( -0.8660254037844353769, -0.5000000000000055511, 0.000000000000000000 ) ) ;
#265 = ORIENTED_EDGE ( 'NONE', *, *, #396, .T. ) ;
#266 = ADVANCED_FACE ( 'NONE', ( #64 ), #248, .T. ) ;
#267 = FACE_OUTER_BOUND ( 'NONE', #153, .T. ) ;
#268 = ORIENTED_EDGE ( 'NONE', *, *, #246, .T. ) ;
#269 = CARTESIAN_POINT ( 'NONE',  ( -5.221358401335752575, -24.14135798948509759, 0.1499999999999999944 ) ) ;
#270 = ORIENTED_EDGE ( 'NONE', *, *, #181, .F. ) ;
#271 = AXIS2_PLACEMENT_3D ( 'NONE', #182, #25, #24 ) ;
#272 = ORIENTED_EDGE ( 'NONE', *, *, #236, .T. ) ;
#273 = EDGE_CURVE ( 'NONE', #387, #202, #43, .T. ) ;
#274 = VERTEX_POINT ( 'NONE', #231 ) ;
#275 = CARTESIAN_POINT ( 'NONE',  ( -6.321358401335642085, -35.41152858170225670, 0.1499999999999999944 ) ) ;
#276 = AXIS2_PLACEMENT_3D ( 'NONE', #355, #83, #213 ) ;
#277 = CC_DESIGN_SECURITY_CLASSIFICATION ( #360, ( #364 ) ) ;
#278 = EDGE_CURVE ( 'NONE', #358, #177, #380, .T. ) ;
#279 = VECTOR ( 'NONE', #70, 39.37007874015748143 ) ;
#280 = LINE ( 'NONE', #400, #247 ) ;
#281 = AXIS2_PLACEMENT_3D ( 'NONE', #189, #75, #137 ) ;
#282 = CC_DESIGN_PERSON_AND_ORGANIZATION_ASSIGNMENT ( #14, #263, ( #360 ) ) ;
#283 = DIRECTION ( 'NONE',  ( 3.617215553213824897E-15, -1.000000000000000000, 0.000000000000000000 ) ) ;
#284 = LINE ( 'NONE', #402, #315 ) ;
#285 =( LENGTH_UNIT ( ) NAMED_UNIT ( * ) SI_UNIT ( $, .METRE. ) );
#286 = CARTESIAN_POINT ( 'NONE',  ( -14.43161243918008019, -21.36415652586519087, 0.1499999999999999944 ) ) ;
#287 = VECTOR ( 'NONE', #160, 39.37007874015748854 ) ;
#288 = ORIENTED_EDGE ( 'NONE', *, *, #229, .T. ) ;
#289 = PLANE ( 'NONE',  #212 ) ;
#290 = DIRECTION ( 'NONE',  ( 1.000000000000000000, 3.973597081693437700E-15, 0.000000000000000000 ) ) ;
#291 = LINE ( 'NONE', #150, #381 ) ;
#292 = ORIENTED_EDGE ( 'NONE', *, *, #246, .F. ) ;
#293 = CARTESIAN_POINT ( 'NONE',  ( 3.988895636508727360, -21.36415652586505942, 0.1499999999999999944 ) ) ;
#294 = ADVANCED_FACE ( 'NONE', ( #267 ), #260, .T. ) ;
#295 = VERTEX_POINT ( 'NONE', #383 ) ;
#296 = APPROVAL_PERSON_ORGANIZATION ( #54, #301, #84 ) ;
#297 = PLANE ( 'NONE',  #30 ) ;
#298 = ORIENTED_EDGE ( 'NONE', *, *, #236, .F. ) ;
#299 = DIRECTION ( 'NONE',  ( -0.8660254037844404840, 0.4999999999999968914, 0.000000000000000000 ) ) ;
#300 = ORIENTED_EDGE ( 'NONE', *, *, #350, .T. ) ;
#301 = APPROVAL ( #47, 'UNSPECIFIED' ) ;
#302 = ORIENTED_EDGE ( 'NONE', *, *, #273, .T. ) ;
#303 = DIRECTION ( 'NONE',  ( -0.000000000000000000, -0.000000000000000000, -1.000000000000000000 ) ) ;
#304 = PLANE ( 'NONE',  #96 ) ;
#305 = VECTOR ( 'NONE', #163, 39.37007874015748143 ) ;
#306 = LOCAL_TIME ( 22, 50, 29.00000000000000000, #149 ) ;
#307 = LINE ( 'NONE', #66, #60 ) ;
#308 = AXIS2_PLACEMENT_3D ( 'NONE', #386, #240, #354 ) ;
#309 = LINE ( 'NONE', #68, #305 ) ;
#310 = CC_DESIGN_APPROVAL ( #32, ( #364 ) ) ;
#311 = DIRECTION ( 'NONE',  ( -0.8660254037844353769, -0.5000000000000055511, 0.000000000000000000 ) ) ;
#312 = FACE_OUTER_BOUND ( 'NONE', #146, .T. ) ;
#313 = ADVANCED_FACE ( 'NONE', ( #10 ), #356, .F. ) ;
#314 = LINE ( 'NONE', #161, #11 ) ;
#315 = VECTOR ( 'NONE', #283, 39.37007874015748143 ) ;
#316 = ORGANIZATION ( 'UNSPECIFIED', 'UNSPECIFIED', '' ) ;
#317 = EDGE_LOOP ( 'NONE', ( #374, #41, #394, #148 ) ) ;
#318 = COORDINATED_UNIVERSAL_TIME_OFFSET ( 6, 0, .BEHIND. ) ;
#319 = CARTESIAN_POINT ( 'NONE',  ( 3.988895636508727360, -21.36415652586505942, 0.1499999999999999944 ) ) ;
#320 = EDGE_LOOP ( 'NONE', ( #13, #123, #143, #172 ) ) ;
#321 = CARTESIAN_POINT ( 'NONE',  ( -4.121358401335656119, -26.04661387781083093, 0.1499999999999999944 ) ) ;
#322 = ORIENTED_EDGE ( 'NONE', *, *, #396, .F. ) ;
#323 = CARTESIAN_POINT ( 'NONE',  ( -4.121358401335621480, -35.41152858170224249, 0.1499999999999999944 ) ) ;
#324 = AXIS2_PLACEMENT_3D ( 'NONE', #204, #173, #209 ) ;
#325 = EDGE_LOOP ( 'NONE', ( #268, #261, #208, #359 ) ) ;
#326 = DIRECTION ( 'NONE',  ( -0.000000000000000000, -0.000000000000000000, -1.000000000000000000 ) ) ;
#327 = ORIENTED_EDGE ( 'NONE', *, *, #56, .T. ) ;
#328 = CALENDAR_DATE ( 2025, 7, 3 ) ;
#329 = DIRECTION ( 'NONE',  ( -0.000000000000000000, -0.000000000000000000, -1.000000000000000000 ) ) ;
#330 = VERTEX_POINT ( 'NONE', #323 ) ;
#331 = EDGE_CURVE ( 'NONE', #112, #358, #234, .T. ) ;
#332 = ORIENTED_EDGE ( 'NONE', *, *, #331, .F. ) ;
#333 = CLOSED_SHELL ( 'NONE', ( #266, #94, #243, #389, #8, #335, #313, #186, #61, #363, #294 ) ) ;
#334 = VERTEX_POINT ( 'NONE', #269 ) ;
#335 = ADVANCED_FACE ( 'NONE', ( #353 ), #178, .T. ) ;
#336 = CARTESIAN_POINT ( 'NONE',  ( -14.43161243918008019, -21.36415652586519087, 0.1499999999999999944 ) ) ;
#337 = VECTOR ( 'NONE', #217, 39.37007874015748143 ) ;
#338 = CARTESIAN_POINT ( 'NONE',  ( -14.43161243918008019, -21.36415652586519087, 0.1499999999999999944 ) ) ;
#339 = CARTESIAN_POINT ( 'NONE',  ( -6.321358401335642085, -35.41152858170225670, 0.1499999999999999944 ) ) ;
#340 = CARTESIAN_POINT ( 'NONE',  ( -14.43161243918008019, -21.36415652586519087, -0.05000000000000000278 ) ) ;
#341 = PERSON_AND_ORGANIZATION ( #107, #316 ) ;
#342 = CARTESIAN_POINT ( 'NONE',  ( 2.888895636508719722, -19.45890063753931898, 0.1499999999999999944 ) ) ;
#343 = ORIENTED_EDGE ( 'NONE', *, *, #171, .F. ) ;
#344 = DIRECTION ( 'NONE',  ( -0.5000000000000073275, 0.8660254037844344888, 0.000000000000000000 ) ) ;
#345 = ORIENTED_EDGE ( 'NONE', *, *, #180, .T. ) ;
#346 = DATE_TIME_ROLE ( 'creation_date' ) ;
#347 = LINE ( 'NONE', #40, #195 ) ;
#348 =( GEOMETRIC_REPRESENTATION_CONTEXT ( 3 ) GLOBAL_UNCERTAINTY_ASSIGNED_CONTEXT ( ( #197 ) ) GLOBAL_UNIT_ASSIGNED_CONTEXT ( ( #218, #257, #72 ) ) REPRESENTATION_CONTEXT ( 'NONE', 'WORKASPACE' ) );
#349 = PERSON_AND_ORGANIZATION ( #107, #316 ) ;
#350 = EDGE_CURVE ( 'NONE', #46, #109, #116, .T. ) ;
#351 = FACE_OUTER_BOUND ( 'NONE', #53, .T. ) ;
#352 = VERTEX_POINT ( 'NONE', #237 ) ;
#353 = FACE_OUTER_BOUND ( 'NONE', #214, .T. ) ;
#354 = DIRECTION ( 'NONE',  ( -1.000000000000000000, 0.000000000000000000, -0.000000000000000000 ) ) ;
#355 = CARTESIAN_POINT ( 'NONE',  ( -13.33161243918008765, -19.45890063753942201, 0.1499999999999999944 ) ) ;
#356 = PLANE ( 'NONE',  #21 ) ;
#357 = VERTEX_POINT ( 'NONE', #388 ) ;
#358 = VERTEX_POINT ( 'NONE', #48 ) ;
#359 = ORIENTED_EDGE ( 'NONE', *, *, #361, .T. ) ;
#360 = SECURITY_CLASSIFICATION ( '', '', #393 ) ;
#361 = EDGE_CURVE ( 'NONE', #387, #254, #81, .T. ) ;
#362 = CARTESIAN_POINT ( 'NONE',  ( 2.888895636508719722, -19.45890063753931898, 0.1499999999999999944 ) ) ;
#363 = ADVANCED_FACE ( 'NONE', ( #351 ), #297, .F. ) ;
#364 = PRODUCT_DEFINITION_FORMATION_WITH_SPECIFIED_SOURCE ( 'ANY', '', #233, .NOT_KNOWN. ) ;
#365 = EDGE_CURVE ( 'NONE', #357, #274, #85, .T. ) ;
#366 = DIRECTION ( 'NONE',  ( 0.8660254037844411501, -0.4999999999999955036, 0.000000000000000000 ) ) ;
#367 = PERSON_AND_ORGANIZATION_ROLE ( 'creator' ) ;
#368 = FACE_OUTER_BOUND ( 'NONE', #57, .T. ) ;
#369 = APPROVAL_DATE_TIME ( #230, #32 ) ;
#370 = EDGE_CURVE ( 'NONE', #334, #222, #291, .T. ) ;
#371 = VECTOR ( 'NONE', #79, 39.37007874015748143 ) ;
#372 = DIRECTION ( 'NONE',  ( 0.8660254037844385966, -0.4999999999999998890, 0.000000000000000000 ) ) ;
#373 = CARTESIAN_POINT ( 'NONE',  ( -13.33161243918008765, -19.45890063753942201, -0.05000000000000000278 ) ) ;
#374 = ORIENTED_EDGE ( 'NONE', *, *, #155, .F. ) ;
#375 = DATE_AND_TIME ( #134, #392 ) ;
#376 = LINE ( 'NONE', #224, #287 ) ;
#377 = EDGE_CURVE ( 'NONE', #202, #235, #76, .T. ) ;
#378 = ORIENTED_EDGE ( 'NONE', *, *, #331, .T. ) ;
#379 = COORDINATED_UNIVERSAL_TIME_OFFSET ( 6, 0, .BEHIND. ) ;
#380 = LINE ( 'NONE', #152, #220 ) ;
#381 = VECTOR ( 'NONE', #7, 39.37007874015748143 ) ;
#382 = VERTEX_POINT ( 'NONE', #339 ) ;
#383 = CARTESIAN_POINT ( 'NONE',  ( -6.321358401335642085, -35.41152858170225670, -0.05000000000000000278 ) ) ;
#384 = ORIENTED_EDGE ( 'NONE', *, *, #191, .T. ) ;
#385 = DATE_TIME_ROLE ( 'classification_date' ) ;
#386 = CARTESIAN_POINT ( 'NONE',  ( 5.221358401335652211, 25.41152858170228157, -0.05000000000000000278 ) ) ;
#387 = VERTEX_POINT ( 'NONE', #44 ) ;
#388 = CARTESIAN_POINT ( 'NONE',  ( -6.321358401335676724, -26.04661387781084869, 0.1499999999999999944 ) ) ;
#389 = ADVANCED_FACE ( 'NONE', ( #164 ), #169, .T. ) ;
#390 = VECTOR ( 'NONE', #344, 39.37007874015748143 ) ;
#391 = ORIENTED_EDGE ( 'NONE', *, *, #229, .F. ) ;
#392 = LOCAL_TIME ( 22, 50, 29.00000000000000000, #379 ) ;
#393 = SECURITY_CLASSIFICATION_LEVEL ( 'unclassified' ) ;
#394 = ORIENTED_EDGE ( 'NONE', *, *, #108, .T. ) ;
#395 = DIRECTION ( 'NONE',  ( -3.733899925898145163E-15, 1.000000000000000000, 0.000000000000000000 ) ) ;
#396 = EDGE_CURVE ( 'NONE', #352, #274, #166, .T. ) ;
#397 = ORIENTED_EDGE ( 'NONE', *, *, #155, .T. ) ;
#398 = CC_DESIGN_DATE_AND_TIME_ASSIGNMENT ( #251, #346, ( #28 ) ) ;
#399 = VECTOR ( 'NONE', #303, 39.37007874015748143 ) ;
#400 = CARTESIAN_POINT ( 'NONE',  ( -6.321358401335642085, -35.41152858170225670, -0.05000000000000000278 ) ) ;
#401 = APPLICATION_PROTOCOL_DEFINITION ( 'international standard', 'config_control_design', 1994, #203 ) ;
#402 = CARTESIAN_POINT ( 'NONE',  ( -4.121358401335656119, -26.04661387781083093, -0.05000000000000000278 ) ) ;
#403 = APPROVAL ( #33, 'UNSPECIFIED' ) ;
#404 = PERSON_AND_ORGANIZATION_ROLE ( 'design_owner' ) ;
#405 = CARTESIAN_POINT ( 'NONE',  ( 2.888895636508719722, -19.45890063753931898, -0.05000000000000000278 ) ) ;
ENDSEC;
END-ISO-10303-21;
