ISO-10303-21;
HEADER;
FILE_DESCRIPTION (( 'STEP AP203' ),
    '1' );
FILE_NAME ('Bottom plate -004_Default_sldprt.STEP',
    '2025-03-08T04:50:26',
    ( '' ),
    ( '' ),
    'SwSTEP 2.0',
    'SolidWorks 2024',
    '' );
FILE_SCHEMA (( 'CONFIG_CONTROL_DESIGN' ));
ENDSEC;

DATA;
#1 = ORIENTED_EDGE ( 'NONE', *, *, #463, .F. ) ;
#2 = APPLICATION_PROTOCOL_DEFINITION ( 'international standard', 'config_control_design', 1994, #593 ) ;
#3 = DIRECTION ( 'NONE',  ( 0.000000000000000000, -0.000000000000000000, 1.000000000000000000 ) ) ;
#4 = VERTEX_POINT ( 'NONE', #407 ) ;
#5 =( NAMED_UNIT ( * ) PLANE_ANGLE_UNIT ( ) SI_UNIT ( $, .RADIAN. ) );
#6 = DIRECTION ( 'NONE',  ( -1.000000000000000000, 3.165616064371713184E-15, 0.000000000000000000 ) ) ;
#7 = VECTOR ( 'NONE', #451, 39.37007874015748854 ) ;
#8 = ORIENTED_EDGE ( 'NONE', *, *, #529, .T. ) ;
#9 = EDGE_CURVE ( 'NONE', #158, #253, #310, .T. ) ;
#10 =( NAMED_UNIT ( * ) SI_UNIT ( $, .STERADIAN. ) SOLID_ANGLE_UNIT ( ) );
#11 = DIRECTION ( 'NONE',  ( 0.4999999999999942268, -0.8660254037844420383, 0.000000000000000000 ) ) ;
#12 = ORIENTED_EDGE ( 'NONE', *, *, #159, .T. ) ;
#13 = CARTESIAN_POINT ( 'NONE',  ( -0.4798459750524884382, -21.63752151961794112, -0.05000000000000000278 ) ) ;
#14 = ORIENTED_EDGE ( 'NONE', *, *, #343, .F. ) ;
#15 = LINE ( 'NONE', #304, #445 ) ;
#16 = EDGE_CURVE ( 'NONE', #194, #255, #222, .T. ) ;
#17 = VERTEX_POINT ( 'NONE', #414 ) ;
#18 = AXIS2_PLACEMENT_3D ( 'NONE', #336, #236, #570 ) ;
#19 = LINE ( 'NONE', #203, #356 ) ;
#20 = ORIENTED_EDGE ( 'NONE', *, *, #81, .T. ) ;
#21 = DIRECTION ( 'NONE',  ( 0.5000000000000001110, 0.8660254037844385966, -0.000000000000000000 ) ) ;
#22 = ORIENTED_EDGE ( 'NONE', *, *, #385, .F. ) ;
#23 = DIRECTION ( 'NONE',  ( -0.4999999999999850120, -0.8660254037844472563, 0.000000000000000000 ) ) ;
#24 = ORIENTED_EDGE ( 'NONE', *, *, #74, .T. ) ;
#25 = VECTOR ( 'NONE', #213, 39.37007874015748143 ) ;
#26 = EDGE_CURVE ( 'NONE', #166, #4, #89, .T. ) ;
#27 = CARTESIAN_POINT ( 'NONE',  ( -15.26293974497448325, -31.44271527935491761, 0.1499999999999999944 ) ) ;
#28 = ORIENTED_EDGE ( 'NONE', *, *, #42, .T. ) ;
#29 = LINE ( 'NONE', #588, #248 ) ;
#30 = LINE ( 'NONE', #504, #259 ) ;
#31 = LINE ( 'NONE', #410, #564 ) ;
#32 = DIRECTION ( 'NONE',  ( 0.8660254037844409281, 0.4999999999999959477, 0.000000000000000000 ) ) ;
#33 = ADVANCED_FACE ( 'NONE', ( #315 ), #84, .T. ) ;
#34 = AXIS2_PLACEMENT_3D ( 'NONE', #362, #271, #546 ) ;
#35 = VECTOR ( 'NONE', #404, 39.37007874015748143 ) ;
#36 = LINE ( 'NONE', #594, #35 ) ;
#37 = LINE ( 'NONE', #318, #198 ) ;
#38 = MANIFOLD_SOLID_BREP ( 'Scale1', #276 ) ;
#39 = CARTESIAN_POINT ( 'NONE',  ( -0.4798459750524884382, -21.63752151961794112, 0.1499999999999999944 ) ) ;
#40 = CARTESIAN_POINT ( 'NONE',  ( 0.6201540249474938316, -23.54277740794370644, -0.05000000000000000278 ) ) ;
#41 = ORIENTED_EDGE ( 'NONE', *, *, #116, .F. ) ;
#42 = EDGE_CURVE ( 'NONE', #65, #4, #172, .T. ) ;
#43 = COORDINATED_UNIVERSAL_TIME_OFFSET ( 6, 0, .BEHIND. ) ;
#44 = LINE ( 'NONE', #126, #395 ) ;
#45 = PERSON_AND_ORGANIZATION_ROLE ( 'design_supplier' ) ;
#46 = CC_DESIGN_PERSON_AND_ORGANIZATION_ASSIGNMENT ( #511, #568, ( #209 ) ) ;
#47 = VECTOR ( 'NONE', #495, 39.37007874015748143 ) ;
#48 = CARTESIAN_POINT ( 'NONE',  ( -10.04603351489662266, -16.88372767928994378, 0.1499999999999999944 ) ) ;
#49 = APPROVAL_PERSON_ORGANIZATION ( #229, #230, #467 ) ;
#50 = EDGE_LOOP ( 'NONE', ( #8, #117, #119, #135 ) ) ;
#51 = PLANE ( 'NONE',  #18 ) ;
#52 = ORIENTED_EDGE ( 'NONE', *, *, #338, .T. ) ;
#53 = DATE_TIME_ROLE ( 'creation_date' ) ;
#54 = PLANE ( 'NONE',  #466 ) ;
#55 = ORIENTED_EDGE ( 'NONE', *, *, #241, .T. ) ;
#56 = EDGE_CURVE ( 'NONE', #305, #202, #169, .T. ) ;
#57 = CARTESIAN_POINT ( 'NONE',  ( -0.4798459750525048140, -16.88372767928982299, 0.1499999999999999944 ) ) ;
#58 = LOCAL_TIME ( 22, 50, 26.00000000000000000, #373 ) ;
#59 = ORIENTED_EDGE ( 'NONE', *, *, #266, .T. ) ;
#60 = EDGE_CURVE ( 'NONE', #508, #183, #44, .T. ) ;
#61 = DIRECTION ( 'NONE',  ( -0.000000000000000000, -0.000000000000000000, -1.000000000000000000 ) ) ;
#62 = ORIENTED_EDGE ( 'NONE', *, *, #548, .F. ) ;
#63 = ADVANCED_FACE ( 'NONE', ( #313 ), #174, .T. ) ;
#64 = DIRECTION ( 'NONE',  ( 0.4999999999999968914, 0.8660254037844404840, -0.000000000000000000 ) ) ;
#65 = VERTEX_POINT ( 'NONE', #539 ) ;
#66 = CARTESIAN_POINT ( 'NONE',  ( -11.14603351489644112, -23.54277740794392670, -0.05000000000000000278 ) ) ;
#67 = VECTOR ( 'NONE', #32, 39.37007874015748143 ) ;
#68 = ORIENTED_EDGE ( 'NONE', *, *, #540, .T. ) ;
#69 = VECTOR ( 'NONE', #61, 39.37007874015748143 ) ;
#70 = CARTESIAN_POINT ( 'NONE',  ( 5.262939744974494793, 25.66915609059348924, 0.1499999999999999944 ) ) ;
#71 = ORIENTED_EDGE ( 'NONE', *, *, #256, .F. ) ;
#72 = LINE ( 'NONE', #196, #327 ) ;
#73 = ORIENTED_EDGE ( 'NONE', *, *, #250, .T. ) ;
#74 = EDGE_CURVE ( 'NONE', #4, #197, #128, .T. ) ;
#75 = LINE ( 'NONE', #534, #485 ) ;
#76 = ORIENTED_EDGE ( 'NONE', *, *, #332, .T. ) ;
#77 = AXIS2_PLACEMENT_3D ( 'NONE', #431, #6, #180 ) ;
#78 = FACE_OUTER_BOUND ( 'NONE', #537, .T. ) ;
#79 = DIRECTION ( 'NONE',  ( -0.8660254037844385966, -0.4999999999999998890, 0.000000000000000000 ) ) ;
#80 = LINE ( 'NONE', #262, #95 ) ;
#81 = EDGE_CURVE ( 'NONE', #92, #470, #37, .T. ) ;
#82 = CARTESIAN_POINT ( 'NONE',  ( -0.4798459750525048140, -16.88372767928982299, -0.05000000000000000278 ) ) ;
#83 = DIRECTION ( 'NONE',  ( 0.8660254037844377084, -0.5000000000000014433, 0.000000000000000000 ) ) ;
#84 = PLANE ( 'NONE',  #227 ) ;
#85 =( GEOMETRIC_REPRESENTATION_CONTEXT ( 3 ) GLOBAL_UNCERTAINTY_ASSIGNED_CONTEXT ( ( #550 ) ) GLOBAL_UNIT_ASSIGNED_CONTEXT ( ( #284, #5, #10 ) ) REPRESENTATION_CONTEXT ( 'NONE', 'WORKASPACE' ) );
#86 = DIRECTION ( 'NONE',  ( -0.000000000000000000, -0.000000000000000000, -1.000000000000000000 ) ) ;
#87 = CARTESIAN_POINT ( 'NONE',  ( -5.262939744974453049, -14.12220720366615900, 0.1499999999999999944 ) ) ;
#88 = PLANE ( 'NONE',  #153 ) ;
#89 = LINE ( 'NONE', #214, #405 ) ;
#90 = EDGE_CURVE ( 'NONE', #345, #293, #354, .T. ) ;
#91 = DIRECTION ( 'NONE',  ( -0.000000000000000000, -0.000000000000000000, -1.000000000000000000 ) ) ;
#92 = VERTEX_POINT ( 'NONE', #409 ) ;
#93 = DESIGN_CONTEXT ( 'detailed design', #301, 'design' ) ;
#94 = COORDINATED_UNIVERSAL_TIME_OFFSET ( 6, 0, .BEHIND. ) ;
#95 = VECTOR ( 'NONE', #453, 39.37007874015748854 ) ;
#96 = CARTESIAN_POINT ( 'NONE',  ( -0.4798459750524884382, -21.63752151961794112, 0.1499999999999999944 ) ) ;
#97 = ORIENTED_EDGE ( 'NONE', *, *, #9, .T. ) ;
#98 = DATE_AND_TIME ( #328, #114 ) ;
#99 = DIRECTION ( 'NONE',  ( 1.000000000000000000, 0.000000000000000000, 0.000000000000000000 ) ) ;
#100 = ORIENTED_EDGE ( 'NONE', *, *, #433, .F. ) ;
#101 = CARTESIAN_POINT ( 'NONE',  ( -15.26293974497445305, -25.91967432810787031, 0.1499999999999999944 ) ) ;
#102 = VERTEX_POINT ( 'NONE', #595 ) ;
#103 = CARTESIAN_POINT ( 'NONE',  ( -10.04603351489663510, -21.63752151961842074, -0.05000000000000000278 ) ) ;
#104 = SECURITY_CLASSIFICATION ( '', '', #278 ) ;
#105 = ORIENTED_EDGE ( 'NONE', *, *, #592, .T. ) ;
#106 = CARTESIAN_POINT ( 'NONE',  ( -4.164777683768943639, -31.82627770035687931, 0.1499999999999999944 ) ) ;
#107 = ORIENTED_EDGE ( 'NONE', *, *, #441, .T. ) ;
#108 = DIRECTION ( 'NONE',  ( 0.8660254037844403729, -0.4999999999999968359, 0.000000000000000000 ) ) ;
#109 = EDGE_LOOP ( 'NONE', ( #76, #162, #517, #573 ) ) ;
#110 = DIRECTION ( 'NONE',  ( 0.000000000000000000, 0.000000000000000000, -1.000000000000000000 ) ) ;
#111 = VECTOR ( 'NONE', #452, 39.37007874015748143 ) ;
#112 = EDGE_LOOP ( 'NONE', ( #473, #258, #73, #490 ) ) ;
#113 = AXIS2_PLACEMENT_3D ( 'NONE', #173, #498, #218 ) ;
#114 = LOCAL_TIME ( 22, 50, 26.00000000000000000, #143 ) ;
#115 = CARTESIAN_POINT ( 'NONE',  ( -4.164777683768943639, -31.82627770035687931, 0.1499999999999999944 ) ) ;
#116 = EDGE_CURVE ( 'NONE', #293, #237, #226, .T. ) ;
#117 = ORIENTED_EDGE ( 'NONE', *, *, #586, .F. ) ;
#118 = LINE ( 'NONE', #13, #189 ) ;
#119 = ORIENTED_EDGE ( 'NONE', *, *, #468, .F. ) ;
#120 = ADVANCED_FACE ( 'NONE', ( #597 ), #450, .T. ) ;
#121 = DIRECTION ( 'NONE',  ( -0.8660254037844420383, -0.4999999999999941158, 0.000000000000000000 ) ) ;
#122 = CARTESIAN_POINT ( 'NONE',  ( -4.164777683768943639, -31.82627770035687931, -0.05000000000000000278 ) ) ;
#123 = VECTOR ( 'NONE', #216, 39.37007874015748143 ) ;
#124 = VECTOR ( 'NONE', #91, 39.37007874015748143 ) ;
#125 = ADVANCED_FACE ( 'NONE', ( #549 ), #507, .F. ) ;
#126 = CARTESIAN_POINT ( 'NONE',  ( -0.4798459750524884382, -21.63752151961794112, 0.1499999999999999944 ) ) ;
#127 = DIRECTION ( 'NONE',  ( -1.000000000000000000, -3.448001430548831592E-15, 0.000000000000000000 ) ) ;
#128 = LINE ( 'NONE', #133, #425 ) ;
#129 = CARTESIAN_POINT ( 'NONE',  ( -0.4798459750524884382, -21.63752151961794112, 0.1499999999999999944 ) ) ;
#130 = CARTESIAN_POINT ( 'NONE',  ( -0.4798459750525048140, -16.88372767928982299, 0.1499999999999999944 ) ) ;
#131 = CC_DESIGN_APPROVAL ( #421, ( #154 ) ) ;
#132 = CARTESIAN_POINT ( 'NONE',  ( -15.26293974497448325, -31.44271527935491761, -0.05000000000000000278 ) ) ;
#133 = CARTESIAN_POINT ( 'NONE',  ( -5.262939744974453049, -14.12220720366615900, -0.05000000000000000278 ) ) ;
#134 = EDGE_CURVE ( 'NONE', #535, #522, #601, .T. ) ;
#135 = ORIENTED_EDGE ( 'NONE', *, *, #569, .T. ) ;
#136 = CALENDAR_DATE ( 2025, 7, 3 ) ;
#137 = DIRECTION ( 'NONE',  ( -0.8660254037844377084, 0.5000000000000014433, 0.000000000000000000 ) ) ;
#138 = DIRECTION ( 'NONE',  ( 1.000000000000000000, 0.000000000000000000, 0.000000000000000000 ) ) ;
#139 = CARTESIAN_POINT ( 'NONE',  ( -10.04603351489662266, -16.88372767928994378, -0.05000000000000000278 ) ) ;
#140 = ORIENTED_EDGE ( 'NONE', *, *, #56, .T. ) ;
#141 = PRODUCT_RELATED_PRODUCT_CATEGORY ( 'detail', '', ( #489 ) ) ;
#142 = AXIS2_PLACEMENT_3D ( 'NONE', #177, #501, #455 ) ;
#143 = COORDINATED_UNIVERSAL_TIME_OFFSET ( 6, 0, .BEHIND. ) ;
#144 = VECTOR ( 'NONE', #536, 39.37007874015748143 ) ;
#145 = LINE ( 'NONE', #477, #124 ) ;
#146 = ORIENTED_EDGE ( 'NONE', *, *, #458, .F. ) ;
#147 = PERSON_AND_ORGANIZATION ( #246, #503 ) ;
#148 = DIRECTION ( 'NONE',  ( 0.000000000000000000, 1.000000000000000000, 0.000000000000000000 ) ) ;
#149 = ORIENTED_EDGE ( 'NONE', *, *, #403, .T. ) ;
#150 = CARTESIAN_POINT ( 'NONE',  ( -10.47984597505250015, -34.20423575497861179, 0.1499999999999999944 ) ) ;
#151 = ORIENTED_EDGE ( 'NONE', *, *, #558, .F. ) ;
#152 = CARTESIAN_POINT ( 'NONE',  ( -0.4798459750525048140, -16.88372767928982299, 0.1499999999999999944 ) ) ;
#153 = AXIS2_PLACEMENT_3D ( 'NONE', #129, #127, #175 ) ;
#154 = PRODUCT_DEFINITION ( 'UNKNOWN', '', #209, #93 ) ;
#155 = DIRECTION ( 'NONE',  ( -0.8660254037844403729, 0.4999999999999968359, 0.000000000000000000 ) ) ;
#156 = EDGE_LOOP ( 'NONE', ( #565, #234, #380, #383, #386, #465, #399, #443, #579, #275, #97, #296, #481, #71, #342 ) ) ;
#157 = DIRECTION ( 'NONE',  ( -0.8660254037844382635, 0.5000000000000006661, 0.000000000000000000 ) ) ;
#158 = VERTEX_POINT ( 'NONE', #308 ) ;
#159 = EDGE_CURVE ( 'NONE', #191, #197, #30, .T. ) ;
#160 = DIRECTION ( 'NONE',  ( 3.218134668512000902E-15, 1.000000000000000000, 0.000000000000000000 ) ) ;
#161 = VECTOR ( 'NONE', #357, 39.37007874015748854 ) ;
#162 = ORIENTED_EDGE ( 'NONE', *, *, #569, .F. ) ;
#163 = CARTESIAN_POINT ( 'NONE',  ( -10.47984597505250015, -34.20423575497861179, -0.05000000000000000278 ) ) ;
#164 = EDGE_LOOP ( 'NONE', ( #251, #41, #240, #12 ) ) ;
#165 = LINE ( 'NONE', #596, #513 ) ;
#166 = VERTEX_POINT ( 'NONE', #82 ) ;
#167 = EDGE_CURVE ( 'NONE', #92, #283, #322, .T. ) ;
#168 = LINE ( 'NONE', #400, #436 ) ;
#169 = LINE ( 'NONE', #40, #532 ) ;
#170 = AXIS2_PLACEMENT_3D ( 'NONE', #233, #148, #3 ) ;
#171 = LINE ( 'NONE', #314, #415 ) ;
#172 = LINE ( 'NONE', #87, #111 ) ;
#173 = CARTESIAN_POINT ( 'NONE',  ( -11.14603351489644112, -23.54277740794392670, 0.1499999999999999944 ) ) ;
#174 = PLANE ( 'NONE',  #142 ) ;
#175 = DIRECTION ( 'NONE',  ( 3.448001430548831592E-15, -1.000000000000000000, 0.000000000000000000 ) ) ;
#176 = EDGE_CURVE ( 'NONE', #345, #17, #145, .T. ) ;
#177 = CARTESIAN_POINT ( 'NONE',  ( -0.4798459750524884382, -21.63752151961794112, 0.1499999999999999944 ) ) ;
#178 = LOCAL_TIME ( 22, 50, 26.00000000000000000, #43 ) ;
#179 = DIRECTION ( 'NONE',  ( 0.000000000000000000, 0.000000000000000000, 1.000000000000000000 ) ) ;
#180 = DIRECTION ( 'NONE',  ( -3.165616064371713184E-15, -1.000000000000000000, 0.000000000000000000 ) ) ;
#181 = APPROVAL_DATE_TIME ( #427, #421 ) ;
#182 = CARTESIAN_POINT ( 'NONE',  ( -15.26293974497445305, -25.91967432810787031, 0.1499999999999999944 ) ) ;
#183 = VERTEX_POINT ( 'NONE', #57 ) ;
#184 = ADVANCED_FACE ( 'NONE', ( #239 ), #428, .T. ) ;
#185 = APPROVAL_STATUS ( 'not_yet_approved' ) ;
#186 = LINE ( 'NONE', #101, #590 ) ;
#187 = VERTEX_POINT ( 'NONE', #150 ) ;
#188 = MECHANICAL_CONTEXT ( 'NONE', #593, 'mechanical' ) ;
#189 = VECTOR ( 'NONE', #525, 39.37007874015748143 ) ;
#190 = CARTESIAN_POINT ( 'NONE',  ( 0.6201540249474938316, -23.54277740794370644, 0.1499999999999999944 ) ) ;
#191 = VERTEX_POINT ( 'NONE', #48 ) ;
#192 = PERSON_AND_ORGANIZATION ( #246, #503 ) ;
#193 = PLANE ( 'NONE',  #387 ) ;
#194 = VERTEX_POINT ( 'NONE', #560 ) ;
#195 = ADVANCED_FACE ( 'NONE', ( #563 ), #193, .F. ) ;
#196 = CARTESIAN_POINT ( 'NONE',  ( -0.04603351489651803796, -34.20423575497855495, -0.05000000000000000278 ) ) ;
#197 = VERTEX_POINT ( 'NONE', #139 ) ;
#198 = VECTOR ( 'NONE', #261, 39.37007874015748143 ) ;
#199 = VECTOR ( 'NONE', #379, 39.37007874015748854 ) ;
#200 = DIRECTION ( 'NONE',  ( -0.8660254037844473674, 0.4999999999999850675, 0.000000000000000000 ) ) ;
#201 = VECTOR ( 'NONE', #108, 39.37007874015748143 ) ;
#202 = VERTEX_POINT ( 'NONE', #382 ) ;
#203 = CARTESIAN_POINT ( 'NONE',  ( -0.4798459750524884382, -21.63752151961794112, 0.1499999999999999944 ) ) ;
#204 = ORIENTED_EDGE ( 'NONE', *, *, #458, .T. ) ;
#205 = DIRECTION ( 'NONE',  ( -0.8660254037844423713, -0.4999999999999935052, 0.000000000000000000 ) ) ;
#206 = VERTEX_POINT ( 'NONE', #329 ) ;
#207 = CARTESIAN_POINT ( 'NONE',  ( -10.04603351489663510, -21.63752151961842074, -0.05000000000000000278 ) ) ;
#208 = ORIENTED_EDGE ( 'NONE', *, *, #430, .T. ) ;
#209 = PRODUCT_DEFINITION_FORMATION_WITH_SPECIFIED_SOURCE ( 'ANY', '', #489, .NOT_KNOWN. ) ;
#210 = CARTESIAN_POINT ( 'NONE',  ( -10.47984597505250015, -34.20423575497861179, 0.1499999999999999944 ) ) ;
#211 = ADVANCED_FACE ( 'NONE', ( #603 ), #512, .F. ) ;
#212 = ORIENTED_EDGE ( 'NONE', *, *, #529, .F. ) ;
#213 = DIRECTION ( 'NONE',  ( -0.000000000000000000, -0.000000000000000000, -1.000000000000000000 ) ) ;
#214 = CARTESIAN_POINT ( 'NONE',  ( -0.4798459750525048140, -16.88372767928982299, -0.05000000000000000278 ) ) ;
#215 = DIRECTION ( 'NONE',  ( -0.000000000000000000, -0.000000000000000000, -1.000000000000000000 ) ) ;
#216 = DIRECTION ( 'NONE',  ( -5.539828112650753564E-15, -1.000000000000000000, 0.000000000000000000 ) ) ;
#217 = VECTOR ( 'NONE', #157, 39.37007874015748143 ) ;
#218 = DIRECTION ( 'NONE',  ( 0.8660254037844423713, 0.4999999999999933942, 0.000000000000000000 ) ) ;
#219 = CARTESIAN_POINT ( 'NONE',  ( -11.14603351489644112, -23.54277740794392670, 0.1499999999999999944 ) ) ;
#220 = ADVANCED_FACE ( 'NONE', ( #516 ), #54, .F. ) ;
#221 = DIRECTION ( 'NONE',  ( -0.000000000000000000, -0.000000000000000000, -1.000000000000000000 ) ) ;
#222 = LINE ( 'NONE', #273, #123 ) ;
#223 = EDGE_LOOP ( 'NONE', ( #417, #492, #1, #587 ) ) ;
#224 = APPROVAL_ROLE ( '' ) ;
#225 = ADVANCED_FACE ( 'NONE', ( #509 ), #51, .F. ) ;
#226 = LINE ( 'NONE', #553, #297 ) ;
#227 = AXIS2_PLACEMENT_3D ( 'NONE', #591, #265, #263 ) ;
#228 = VECTOR ( 'NONE', #205, 39.37007874015748854 ) ;
#229 = PERSON_AND_ORGANIZATION ( #246, #503 ) ;
#230 = APPROVAL ( #281, 'UNSPECIFIED' ) ;
#231 = DIRECTION ( 'NONE',  ( 5.539828112650753564E-15, 1.000000000000000000, 0.000000000000000000 ) ) ;
#232 = ORIENTED_EDGE ( 'NONE', *, *, #16, .F. ) ;
#233 = CARTESIAN_POINT ( 'NONE',  ( -6.361101806179956242, -31.82627770035687931, 0.1499999999999999944 ) ) ;
#234 = ORIENTED_EDGE ( 'NONE', *, *, #577, .T. ) ;
#235 = CALENDAR_DATE ( 2025, 7, 3 ) ;
#236 = DIRECTION ( 'NONE',  ( 0.4999999999999999445, -0.8660254037844387076, 0.000000000000000000 ) ) ;
#237 = VERTEX_POINT ( 'NONE', #103 ) ;
#238 = VECTOR ( 'NONE', #437, 39.37007874015748143 ) ;
#239 = FACE_OUTER_BOUND ( 'NONE', #420, .T. ) ;
#240 = ORIENTED_EDGE ( 'NONE', *, *, #449, .T. ) ;
#241 = EDGE_CURVE ( 'NONE', #432, #305, #242, .T. ) ;
#242 = LINE ( 'NONE', #423, #69 ) ;
#243 = ORIENTED_EDGE ( 'NONE', *, *, #577, .F. ) ;
#244 = PLANE ( 'NONE',  #339 ) ;
#245 = ADVANCED_FACE ( 'NONE', ( #289 ), #371, .F. ) ;
#246 = PERSON ( 'UNSPECIFIED', 'UNSPECIFIED', 'UNSPECIFIED', ('UNSPECIFIED'), ('UNSPECIFIED'), ('UNSPECIFIED') ) ;
#247 = EDGE_LOOP ( 'NONE', ( #365, #393, #487, #20 ) ) ;
#248 = VECTOR ( 'NONE', #264, 39.37007874015748143 ) ;
#249 = PLANE ( 'NONE',  #269 ) ;
#250 = EDGE_CURVE ( 'NONE', #432, #584, #368, .T. ) ;
#251 = ORIENTED_EDGE ( 'NONE', *, *, #338, .F. ) ;
#252 = PLANE ( 'NONE',  #454 ) ;
#253 = VERTEX_POINT ( 'NONE', #557 ) ;
#254 = PLANE ( 'NONE',  #524 ) ;
#255 = VERTEX_POINT ( 'NONE', #419 ) ;
#256 = EDGE_CURVE ( 'NONE', #508, #432, #333, .T. ) ;
#257 = CARTESIAN_POINT ( 'NONE',  ( -4.164777683768943639, -31.82627770035687931, 0.1499999999999999944 ) ) ;
#258 = ORIENTED_EDGE ( 'NONE', *, *, #241, .F. ) ;
#259 = VECTOR ( 'NONE', #402, 39.37007874015748143 ) ;
#260 = ADVANCED_FACE ( 'NONE', ( #566 ), #469, .F. ) ;
#261 = DIRECTION ( 'NONE',  ( -0.000000000000000000, -0.000000000000000000, -1.000000000000000000 ) ) ;
#262 = CARTESIAN_POINT ( 'NONE',  ( -6.361101806179956242, -31.82627770035687931, -0.05000000000000000278 ) ) ;
#263 = DIRECTION ( 'NONE',  ( -1.000000000000000000, 0.000000000000000000, -0.000000000000000000 ) ) ;
#264 = DIRECTION ( 'NONE',  ( 3.165616064371713972E-15, 1.000000000000000000, 0.000000000000000000 ) ) ;
#265 = DIRECTION ( 'NONE',  ( 0.000000000000000000, 0.000000000000000000, -1.000000000000000000 ) ) ;
#266 = EDGE_CURVE ( 'NONE', #194, #268, #186, .T. ) ;
#267 = VECTOR ( 'NONE', #544, 39.37007874015748143 ) ;
#268 = VERTEX_POINT ( 'NONE', #474 ) ;
#269 = AXIS2_PLACEMENT_3D ( 'NONE', #299, #21, #488 ) ;
#270 = LINE ( 'NONE', #132, #542 ) ;
#271 = DIRECTION ( 'NONE',  ( -1.000000000000000000, 3.218134668512000902E-15, 0.000000000000000000 ) ) ;
#272 = APPROVAL_STATUS ( 'not_yet_approved' ) ;
#273 = CARTESIAN_POINT ( 'NONE',  ( -15.26293974497445305, -25.91967432810787031, 0.1499999999999999944 ) ) ;
#274 = CARTESIAN_POINT ( 'NONE',  ( -0.04603351489651803796, -34.20423575497855495, 0.1499999999999999944 ) ) ;
#275 = ORIENTED_EDGE ( 'NONE', *, *, #413, .T. ) ;
#276 = CLOSED_SHELL ( 'NONE', ( #125, #225, #120, #320, #554, #220, #211, #184, #260, #351, #195, #245, #294, #63, #479, #306, #33 ) ) ;
#277 = AXIS2_PLACEMENT_3D ( 'NONE', #518, #282, #137 ) ;
#278 = SECURITY_CLASSIFICATION_LEVEL ( 'unclassified' ) ;
#279 = DIRECTION ( 'NONE',  ( 0.4999999999999933942, -0.8660254037844423713, 0.000000000000000000 ) ) ;
#280 = EDGE_LOOP ( 'NONE', ( #478, #375, #435, #389 ) ) ;
#281 = APPROVAL_STATUS ( 'not_yet_approved' ) ;
#282 = DIRECTION ( 'NONE',  ( 0.5000000000000015543, 0.8660254037844378194, -0.000000000000000000 ) ) ;
#283 = VERTEX_POINT ( 'NONE', #106 ) ;
#284 =( CONVERSION_BASED_UNIT ( 'INCH', #370 ) LENGTH_UNIT ( ) NAMED_UNIT ( #291 ) );
#285 = DIRECTION ( 'NONE',  ( -0.000000000000000000, -0.000000000000000000, -1.000000000000000000 ) ) ;
#286 = ORIENTED_EDGE ( 'NONE', *, *, #256, .T. ) ;
#287 = CC_DESIGN_DATE_AND_TIME_ASSIGNMENT ( #515, #321, ( #104 ) ) ;
#288 = LOCAL_TIME ( 22, 50, 26.00000000000000000, #324 ) ;
#289 = FACE_OUTER_BOUND ( 'NONE', #50, .T. ) ;
#290 = EDGE_LOOP ( 'NONE', ( #24, #349, #243, #28 ) ) ;
#291 = DIMENSIONAL_EXPONENTS ( 1.000000000000000000, 0.000000000000000000, 0.000000000000000000, 0.000000000000000000, 0.000000000000000000, 0.000000000000000000, 0.000000000000000000 ) ;
#292 = LINE ( 'NONE', #346, #582 ) ;
#293 = VERTEX_POINT ( 'NONE', #295 ) ;
#294 = ADVANCED_FACE ( 'NONE', ( #397 ), #249, .T. ) ;
#295 = CARTESIAN_POINT ( 'NONE',  ( -10.04603351489663510, -21.63752151961842074, 0.1499999999999999944 ) ) ;
#296 = ORIENTED_EDGE ( 'NONE', *, *, #468, .T. ) ;
#297 = VECTOR ( 'NONE', #411, 39.37007874015748143 ) ;
#298 = VECTOR ( 'NONE', #99, 39.37007874015748143 ) ;
#299 = CARTESIAN_POINT ( 'NONE',  ( 0.6201540249474938316, -23.54277740794370644, 0.1499999999999999944 ) ) ;
#300 = EDGE_LOOP ( 'NONE', ( #581, #499, #204, #140, #212, #567, #519, #347, #303, #571, #391, #100, #105, #52, #514 ) ) ;
#301 = APPLICATION_CONTEXT ( 'configuration controlled 3d designs of mechanical parts and assemblies' ) ;
#302 = DIRECTION ( 'NONE',  ( -5.539828112650753564E-15, -1.000000000000000000, 0.000000000000000000 ) ) ;
#303 = ORIENTED_EDGE ( 'NONE', *, *, #558, .T. ) ;
#304 = CARTESIAN_POINT ( 'NONE',  ( -15.26293974497448325, -31.44271527935491761, 0.1499999999999999944 ) ) ;
#305 = VERTEX_POINT ( 'NONE', #491 ) ;
#306 = ADVANCED_FACE ( 'NONE', ( #341 ), #244, .F. ) ;
#307 = FACE_OUTER_BOUND ( 'NONE', #223, .T. ) ;
#308 = CARTESIAN_POINT ( 'NONE',  ( -0.04603351489651803796, -34.20423575497855495, 0.1499999999999999944 ) ) ;
#309 = CARTESIAN_POINT ( 'NONE',  ( 4.737060255025416389, -25.91967432810764649, 0.1499999999999999944 ) ) ;
#310 = LINE ( 'NONE', #496, #67 ) ;
#311 = LINE ( 'NONE', #27, #396 ) ;
#312 = APPROVAL ( #272, 'UNSPECIFIED' ) ;
#313 = FACE_OUTER_BOUND ( 'NONE', #326, .T. ) ;
#314 = CARTESIAN_POINT ( 'NONE',  ( -11.14603351489644112, -23.54277740794392670, 0.1499999999999999944 ) ) ;
#315 = FACE_OUTER_BOUND ( 'NONE', #300, .T. ) ;
#316 = APPROVAL_PERSON_ORGANIZATION ( #367, #421, #224 ) ;
#317 = DIRECTION ( 'NONE',  ( -0.8660254037844423713, -0.4999999999999935052, 0.000000000000000000 ) ) ;
#318 = CARTESIAN_POINT ( 'NONE',  ( -6.361101806179956242, -31.82627770035687931, 0.1499999999999999944 ) ) ;
#319 = EDGE_LOOP ( 'NONE', ( #149, #528, #232, #59 ) ) ;
#320 = ADVANCED_FACE ( 'NONE', ( #434 ), #254, .T. ) ;
#321 = DATE_TIME_ROLE ( 'classification_date' ) ;
#322 = LINE ( 'NONE', #416, #298 ) ;
#323 = CC_DESIGN_PERSON_AND_ORGANIZATION_ASSIGNMENT ( #147, #45, ( #209 ) ) ;
#324 = COORDINATED_UNIVERSAL_TIME_OFFSET ( 6, 0, .BEHIND. ) ;
#325 = DIRECTION ( 'NONE',  ( 0.8660254037844420383, 0.4999999999999942268, 0.000000000000000000 ) ) ;
#326 = EDGE_LOOP ( 'NONE', ( #146, #337, #286, #55 ) ) ;
#327 = VECTOR ( 'NONE', #442, 39.37007874015748143 ) ;
#328 = CALENDAR_DATE ( 2025, 7, 3 ) ;
#329 = CARTESIAN_POINT ( 'NONE',  ( 4.737060255025398625, -31.44271527935494603, -0.05000000000000000278 ) ) ;
#330 = ORIENTED_EDGE ( 'NONE', *, *, #548, .T. ) ;
#331 = SHAPE_DEFINITION_REPRESENTATION ( #484, #497 ) ;
#332 = EDGE_CURVE ( 'NONE', #522, #206, #72, .T. ) ;
#333 = LINE ( 'NONE', #96, #599 ) ;
#334 = ORIENTED_EDGE ( 'NONE', *, *, #26, .T. ) ;
#335 = PERSON_AND_ORGANIZATION ( #246, #503 ) ;
#336 = CARTESIAN_POINT ( 'NONE',  ( -5.262939744974453049, -14.12220720366615900, 0.1499999999999999944 ) ) ;
#337 = ORIENTED_EDGE ( 'NONE', *, *, #441, .F. ) ;
#338 = EDGE_CURVE ( 'NONE', #237, #197, #350, .T. ) ;
#339 = AXIS2_PLACEMENT_3D ( 'NONE', #70, #110, #575 ) ;
#340 = CC_DESIGN_SECURITY_CLASSIFICATION ( #104, ( #209 ) ) ;
#341 = FACE_OUTER_BOUND ( 'NONE', #156, .T. ) ;
#342 = ORIENTED_EDGE ( 'NONE', *, *, #60, .T. ) ;
#343 = EDGE_CURVE ( 'NONE', #255, #187, #15, .T. ) ;
#344 = LINE ( 'NONE', #348, #238 ) ;
#345 = VERTEX_POINT ( 'NONE', #572 ) ;
#346 = CARTESIAN_POINT ( 'NONE',  ( -10.04603351489663510, -21.63752151961842074, 0.1499999999999999944 ) ) ;
#347 = ORIENTED_EDGE ( 'NONE', *, *, #505, .F. ) ;
#348 = CARTESIAN_POINT ( 'NONE',  ( -0.04603351489651803796, -34.20423575497855495, 0.1499999999999999944 ) ) ;
#349 = ORIENTED_EDGE ( 'NONE', *, *, #159, .F. ) ;
#350 = LINE ( 'NONE', #207, #406 ) ;
#351 = ADVANCED_FACE ( 'NONE', ( #583 ), #252, .F. ) ;
#352 = VERTEX_POINT ( 'NONE', #163 ) ;
#353 = CARTESIAN_POINT ( 'NONE',  ( -4.164777683768943639, -31.82627770035687931, -0.05000000000000000278 ) ) ;
#354 = LINE ( 'NONE', #219, #161 ) ;
#355 = CARTESIAN_POINT ( 'NONE',  ( -5.262939744974453049, -14.12220720366615900, 0.1499999999999999944 ) ) ;
#356 = VECTOR ( 'NONE', #390, 39.37007874015748143 ) ;
#357 = DIRECTION ( 'NONE',  ( 0.4999999999999851230, 0.8660254037844472563, 0.000000000000000000 ) ) ;
#358 = CC_DESIGN_PERSON_AND_ORGANIZATION_ASSIGNMENT ( #418, #412, ( #154 ) ) ;
#359 = LINE ( 'NONE', #502, #47 ) ;
#360 = DIRECTION ( 'NONE',  ( -3.448001430548832381E-15, 1.000000000000000000, 0.000000000000000000 ) ) ;
#361 = CARTESIAN_POINT ( 'NONE',  ( -0.4798459750524884382, -21.63752151961794112, -0.05000000000000000278 ) ) ;
#362 = CARTESIAN_POINT ( 'NONE',  ( -10.04603351489663510, -21.63752151961842074, 0.1499999999999999944 ) ) ;
#363 = LINE ( 'NONE', #506, #494 ) ;
#364 = DIRECTION ( 'NONE',  ( -0.5000000000000006661, -0.8660254037844382635, 0.000000000000000000 ) ) ;
#365 = ORIENTED_EDGE ( 'NONE', *, *, #505, .T. ) ;
#366 = CC_DESIGN_APPROVAL ( #312, ( #209 ) ) ;
#367 = PERSON_AND_ORGANIZATION ( #246, #503 ) ;
#368 = LINE ( 'NONE', #190, #199 ) ;
#369 = CC_DESIGN_PERSON_AND_ORGANIZATION_ASSIGNMENT ( #562, #462, ( #489 ) ) ;
#370 = LENGTH_MEASURE_WITH_UNIT ( LENGTH_MEASURE( 0.02539999999999999897 ), #543 );
#371 = PLANE ( 'NONE',  #77 ) ;
#372 = ORIENTED_EDGE ( 'NONE', *, *, #413, .F. ) ;
#373 = COORDINATED_UNIVERSAL_TIME_OFFSET ( 6, 0, .BEHIND. ) ;
#374 = CARTESIAN_POINT ( 'NONE',  ( -6.361101806179956242, -31.82627770035687931, 0.1499999999999999944 ) ) ;
#375 = ORIENTED_EDGE ( 'NONE', *, *, #176, .F. ) ;
#376 = AXIS2_PLACEMENT_3D ( 'NONE', #130, #364, #460 ) ;
#377 = EDGE_CURVE ( 'NONE', #283, #535, #388, .T. ) ;
#378 = APPROVAL_ROLE ( '' ) ;
#379 = DIRECTION ( 'NONE',  ( 0.8660254037844384856, -0.5000000000000001110, 0.000000000000000000 ) ) ;
#380 = ORIENTED_EDGE ( 'NONE', *, *, #449, .F. ) ;
#381 = DATE_AND_TIME ( #235, #288 ) ;
#382 = CARTESIAN_POINT ( 'NONE',  ( 4.737060255025416389, -25.91967432810764649, -0.05000000000000000278 ) ) ;
#383 = ORIENTED_EDGE ( 'NONE', *, *, #90, .F. ) ;
#384 = CARTESIAN_POINT ( 'NONE',  ( 0.6201540249474938316, -23.54277740794370644, 0.1499999999999999944 ) ) ;
#385 = EDGE_CURVE ( 'NONE', #158, #522, #344, .T. ) ;
#386 = ORIENTED_EDGE ( 'NONE', *, *, #463, .T. ) ;
#387 = AXIS2_PLACEMENT_3D ( 'NONE', #274, #472, #521 ) ;
#388 = LINE ( 'NONE', #257, #144 ) ;
#389 = ORIENTED_EDGE ( 'NONE', *, *, #116, .T. ) ;
#390 = DIRECTION ( 'NONE',  ( -0.000000000000000000, -0.000000000000000000, -1.000000000000000000 ) ) ;
#391 = ORIENTED_EDGE ( 'NONE', *, *, #403, .F. ) ;
#392 = DIRECTION ( 'NONE',  ( 3.218134668512000902E-15, 1.000000000000000000, 0.000000000000000000 ) ) ;
#393 = ORIENTED_EDGE ( 'NONE', *, *, #377, .F. ) ;
#394 = CC_DESIGN_DATE_AND_TIME_ASSIGNMENT ( #598, #53, ( #154 ) ) ;
#395 = VECTOR ( 'NONE', #360, 39.37007874015748143 ) ;
#396 = VECTOR ( 'NONE', #86, 39.37007874015748143 ) ;
#397 = FACE_OUTER_BOUND ( 'NONE', #112, .T. ) ;
#398 = CC_DESIGN_APPROVAL ( #230, ( #104 ) ) ;
#399 = ORIENTED_EDGE ( 'NONE', *, *, #343, .T. ) ;
#400 = CARTESIAN_POINT ( 'NONE',  ( 4.737060255025398625, -31.44271527935494603, -0.05000000000000000278 ) ) ;
#401 = ORIENTED_EDGE ( 'NONE', *, *, #42, .F. ) ;
#402 = DIRECTION ( 'NONE',  ( -0.000000000000000000, -0.000000000000000000, -1.000000000000000000 ) ) ;
#403 = EDGE_CURVE ( 'NONE', #268, #102, #75, .T. ) ;
#404 = DIRECTION ( 'NONE',  ( -0.000000000000000000, -0.000000000000000000, -1.000000000000000000 ) ) ;
#405 = VECTOR ( 'NONE', #589, 39.37007874015748143 ) ;
#406 = VECTOR ( 'NONE', #160, 39.37007874015748143 ) ;
#407 = CARTESIAN_POINT ( 'NONE',  ( -5.262939744974453049, -14.12220720366615900, -0.05000000000000000278 ) ) ;
#408 = CARTESIAN_POINT ( 'NONE',  ( -6.361101806179956242, -31.82627770035687931, -0.05000000000000000278 ) ) ;
#409 = CARTESIAN_POINT ( 'NONE',  ( -6.361101806179956242, -31.82627770035687931, 0.1499999999999999944 ) ) ;
#410 = CARTESIAN_POINT ( 'NONE',  ( -6.361101806179956242, -31.82627770035687931, 0.1499999999999999944 ) ) ;
#411 = DIRECTION ( 'NONE',  ( -0.000000000000000000, -0.000000000000000000, -1.000000000000000000 ) ) ;
#412 = PERSON_AND_ORGANIZATION_ROLE ( 'creator' ) ;
#413 = EDGE_CURVE ( 'NONE', #283, #158, #527, .T. ) ;
#414 = CARTESIAN_POINT ( 'NONE',  ( -11.14603351489644112, -23.54277740794392670, -0.05000000000000000278 ) ) ;
#415 = VECTOR ( 'NONE', #317, 39.37007874015748854 ) ;
#416 = CARTESIAN_POINT ( 'NONE',  ( -6.361101806179956242, -31.82627770035687931, 0.1499999999999999944 ) ) ;
#417 = ORIENTED_EDGE ( 'NONE', *, *, #433, .T. ) ;
#418 = PERSON_AND_ORGANIZATION ( #246, #503 ) ;
#419 = CARTESIAN_POINT ( 'NONE',  ( -15.26293974497448325, -31.44271527935491761, 0.1499999999999999944 ) ) ;
#420 = EDGE_LOOP ( 'NONE', ( #151, #483, #555, #576 ) ) ;
#421 = APPROVAL ( #185, 'UNSPECIFIED' ) ;
#422 = APPROVAL_DATE_TIME ( #98, #230 ) ;
#423 = CARTESIAN_POINT ( 'NONE',  ( 0.6201540249474938316, -23.54277740794370644, 0.1499999999999999944 ) ) ;
#424 = EDGE_LOOP ( 'NONE', ( #461, #22, #372, #438 ) ) ;
#425 = VECTOR ( 'NONE', #79, 39.37007874015748854 ) ;
#426 = AXIS2_PLACEMENT_3D ( 'NONE', #459, #179, #138 ) ;
#427 = DATE_AND_TIME ( #471, #58 ) ;
#428 = PLANE ( 'NONE',  #541 ) ;
#429 = ORIENTED_EDGE ( 'NONE', *, *, #510, .T. ) ;
#430 = EDGE_CURVE ( 'NONE', #447, #166, #118, .T. ) ;
#431 = CARTESIAN_POINT ( 'NONE',  ( 4.737060255025398625, -31.44271527935494603, 0.1499999999999999944 ) ) ;
#432 = VERTEX_POINT ( 'NONE', #384 ) ;
#433 = EDGE_CURVE ( 'NONE', #17, #268, #482, .T. ) ;
#434 = FACE_OUTER_BOUND ( 'NONE', #280, .T. ) ;
#435 = ORIENTED_EDGE ( 'NONE', *, *, #90, .T. ) ;
#436 = VECTOR ( 'NONE', #500, 39.37007874015748143 ) ;
#437 = DIRECTION ( 'NONE',  ( -0.000000000000000000, -0.000000000000000000, -1.000000000000000000 ) ) ;
#438 = ORIENTED_EDGE ( 'NONE', *, *, #377, .T. ) ;
#439 = CARTESIAN_POINT ( 'NONE',  ( -4.164777683768943639, -31.82627770035687931, 0.1499999999999999944 ) ) ;
#440 = ORIENTED_EDGE ( 'NONE', *, *, #444, .F. ) ;
#441 = EDGE_CURVE ( 'NONE', #508, #447, #19, .T. ) ;
#442 = DIRECTION ( 'NONE',  ( 0.8660254037844409281, 0.4999999999999959477, 0.000000000000000000 ) ) ;
#443 = ORIENTED_EDGE ( 'NONE', *, *, #600, .F. ) ;
#444 = EDGE_CURVE ( 'NONE', #183, #65, #578, .T. ) ;
#445 = VECTOR ( 'NONE', #486, 39.37007874015748854 ) ;
#446 = PLANE ( 'NONE',  #113 ) ;
#447 = VERTEX_POINT ( 'NONE', #530 ) ;
#448 = DIRECTION ( 'NONE',  ( 0.4999999999999933942, -0.8660254037844423713, 0.000000000000000000 ) ) ;
#449 = EDGE_CURVE ( 'NONE', #293, #191, #292, .T. ) ;
#450 = PLANE ( 'NONE',  #34 ) ;
#451 = DIRECTION ( 'NONE',  ( -0.8660254037844385966, -0.4999999999999998890, 0.000000000000000000 ) ) ;
#452 = DIRECTION ( 'NONE',  ( -0.000000000000000000, -0.000000000000000000, -1.000000000000000000 ) ) ;
#453 = DIRECTION ( 'NONE',  ( -0.8660254037844420383, -0.4999999999999941158, 0.000000000000000000 ) ) ;
#454 = AXIS2_PLACEMENT_3D ( 'NONE', #439, #64, #155 ) ;
#455 = DIRECTION ( 'NONE',  ( -0.4999999999999933942, 0.8660254037844423713, 0.000000000000000000 ) ) ;
#456 = CARTESIAN_POINT ( 'NONE',  ( -11.14603351489644112, -23.54277740794392670, -0.05000000000000000278 ) ) ;
#457 = DIRECTION ( 'NONE',  ( 0.8660254037844384856, -0.5000000000000001110, 0.000000000000000000 ) ) ;
#458 = EDGE_CURVE ( 'NONE', #447, #305, #580, .T. ) ;
#459 = CARTESIAN_POINT ( 'NONE',  ( 0.000000000000000000, 0.000000000000000000, 0.000000000000000000 ) ) ;
#460 = DIRECTION ( 'NONE',  ( 0.8660254037844382635, -0.5000000000000006661, 0.000000000000000000 ) ) ;
#461 = ORIENTED_EDGE ( 'NONE', *, *, #134, .T. ) ;
#462 = PERSON_AND_ORGANIZATION_ROLE ( 'design_owner' ) ;
#463 = EDGE_CURVE ( 'NONE', #345, #194, #171, .T. ) ;
#464 = DIRECTION ( 'NONE',  ( 1.000000000000000000, -5.539828112650753564E-15, 0.000000000000000000 ) ) ;
#465 = ORIENTED_EDGE ( 'NONE', *, *, #16, .T. ) ;
#466 = AXIS2_PLACEMENT_3D ( 'NONE', #182, #464, #231 ) ;
#467 = APPROVAL_ROLE ( '' ) ;
#468 = EDGE_CURVE ( 'NONE', #253, #584, #29, .T. ) ;
#469 = PLANE ( 'NONE',  #170 ) ;
#470 = VERTEX_POINT ( 'NONE', #408 ) ;
#471 = CALENDAR_DATE ( 2025, 7, 3 ) ;
#472 = DIRECTION ( 'NONE',  ( -0.4999999999999959477, 0.8660254037844409281, 0.000000000000000000 ) ) ;
#473 = ORIENTED_EDGE ( 'NONE', *, *, #56, .F. ) ;
#474 = CARTESIAN_POINT ( 'NONE',  ( -15.26293974497445305, -25.91967432810787031, -0.05000000000000000278 ) ) ;
#475 = EDGE_LOOP ( 'NONE', ( #334, #401, #440, #330 ) ) ;
#476 = LOCAL_TIME ( 22, 50, 26.00000000000000000, #94 ) ;
#477 = CARTESIAN_POINT ( 'NONE',  ( -11.14603351489644112, -23.54277740794392670, 0.1499999999999999944 ) ) ;
#478 = ORIENTED_EDGE ( 'NONE', *, *, #592, .F. ) ;
#479 = ADVANCED_FACE ( 'NONE', ( #78 ), #88, .F. ) ;
#480 = CARTESIAN_POINT ( 'NONE',  ( -11.14603351489644112, -23.54277740794392670, 0.1499999999999999944 ) ) ;
#481 = ORIENTED_EDGE ( 'NONE', *, *, #250, .F. ) ;
#482 = LINE ( 'NONE', #66, #228 ) ;
#483 = ORIENTED_EDGE ( 'NONE', *, *, #81, .F. ) ;
#484 = PRODUCT_DEFINITION_SHAPE ( 'NONE', 'NONE',  #154 ) ;
#485 = VECTOR ( 'NONE', #302, 39.37007874015748143 ) ;
#486 = DIRECTION ( 'NONE',  ( 0.8660254037844377084, -0.5000000000000014433, 0.000000000000000000 ) ) ;
#487 = ORIENTED_EDGE ( 'NONE', *, *, #167, .F. ) ;
#488 = DIRECTION ( 'NONE',  ( -0.8660254037844385966, 0.5000000000000001110, 0.000000000000000000 ) ) ;
#489 = PRODUCT ( 'Bottom plate -004_Default_sldprt', 'Bottom plate -004_Default_sldprt', '', ( #188 ) ) ;
#490 = ORIENTED_EDGE ( 'NONE', *, *, #586, .T. ) ;
#491 = CARTESIAN_POINT ( 'NONE',  ( 0.6201540249474938316, -23.54277740794370644, -0.05000000000000000278 ) ) ;
#492 = ORIENTED_EDGE ( 'NONE', *, *, #266, .F. ) ;
#493 = CC_DESIGN_PERSON_AND_ORGANIZATION_ASSIGNMENT ( #335, #520, ( #104 ) ) ;
#494 = VECTOR ( 'NONE', #215, 39.37007874015748143 ) ;
#495 = DIRECTION ( 'NONE',  ( 1.000000000000000000, 0.000000000000000000, 0.000000000000000000 ) ) ;
#496 = CARTESIAN_POINT ( 'NONE',  ( -0.04603351489651803796, -34.20423575497855495, 0.1499999999999999944 ) ) ;
#497 = ADVANCED_BREP_SHAPE_REPRESENTATION ( 'Bottom plate -004_Default_sldprt', ( #38, #426 ), #85 ) ;
#498 = DIRECTION ( 'NONE',  ( 0.4999999999999934497, -0.8660254037844424824, 0.000000000000000000 ) ) ;
#499 = ORIENTED_EDGE ( 'NONE', *, *, #430, .F. ) ;
#500 = DIRECTION ( 'NONE',  ( 3.165616064371713972E-15, 1.000000000000000000, 0.000000000000000000 ) ) ;
#501 = DIRECTION ( 'NONE',  ( 0.8660254037844424824, 0.4999999999999934497, -0.000000000000000000 ) ) ;
#502 = CARTESIAN_POINT ( 'NONE',  ( -6.361101806179956242, -31.82627770035687931, -0.05000000000000000278 ) ) ;
#503 = ORGANIZATION ( 'UNSPECIFIED', 'UNSPECIFIED', '' ) ;
#504 = CARTESIAN_POINT ( 'NONE',  ( -10.04603351489662266, -16.88372767928994378, 0.1499999999999999944 ) ) ;
#505 = EDGE_CURVE ( 'NONE', #470, #535, #359, .T. ) ;
#506 = CARTESIAN_POINT ( 'NONE',  ( -0.4798459750525048140, -16.88372767928982299, 0.1499999999999999944 ) ) ;
#507 = PLANE ( 'NONE',  #376 ) ;
#508 = VERTEX_POINT ( 'NONE', #39 ) ;
#509 = FACE_OUTER_BOUND ( 'NONE', #290, .T. ) ;
#510 = EDGE_CURVE ( 'NONE', #255, #102, #311, .T. ) ;
#511 = PERSON_AND_ORGANIZATION ( #246, #503 ) ;
#512 = PLANE ( 'NONE',  #277 ) ;
#513 = VECTOR ( 'NONE', #221, 39.37007874015748143 ) ;
#514 = ORIENTED_EDGE ( 'NONE', *, *, #74, .F. ) ;
#515 = DATE_AND_TIME ( #136, #178 ) ;
#516 = FACE_OUTER_BOUND ( 'NONE', #319, .T. ) ;
#517 = ORIENTED_EDGE ( 'NONE', *, *, #9, .F. ) ;
#518 = CARTESIAN_POINT ( 'NONE',  ( -15.26293974497448325, -31.44271527935491761, 0.1499999999999999944 ) ) ;
#519 = ORIENTED_EDGE ( 'NONE', *, *, #134, .F. ) ;
#520 = PERSON_AND_ORGANIZATION_ROLE ( 'classification_officer' ) ;
#521 = DIRECTION ( 'NONE',  ( -0.8660254037844409281, -0.4999999999999959477, 0.000000000000000000 ) ) ;
#522 = VERTEX_POINT ( 'NONE', #551 ) ;
#523 = EDGE_CURVE ( 'NONE', #187, #352, #545, .T. ) ;
#524 = AXIS2_PLACEMENT_3D ( 'NONE', #480, #200, #23 ) ;
#525 = DIRECTION ( 'NONE',  ( -3.448001430548832381E-15, 1.000000000000000000, 0.000000000000000000 ) ) ;
#526 = ORIENTED_EDGE ( 'NONE', *, *, #60, .F. ) ;
#527 = LINE ( 'NONE', #115, #201 ) ;
#528 = ORIENTED_EDGE ( 'NONE', *, *, #510, .F. ) ;
#529 = EDGE_CURVE ( 'NONE', #206, #202, #168, .T. ) ;
#530 = CARTESIAN_POINT ( 'NONE',  ( -0.4798459750524884382, -21.63752151961794112, -0.05000000000000000278 ) ) ;
#531 = ORIENTED_EDGE ( 'NONE', *, *, #523, .F. ) ;
#532 = VECTOR ( 'NONE', #457, 39.37007874015748854 ) ;
#533 = VECTOR ( 'NONE', #448, 39.37007874015748143 ) ;
#534 = CARTESIAN_POINT ( 'NONE',  ( -15.26293974497445305, -25.91967432810787031, -0.05000000000000000278 ) ) ;
#535 = VERTEX_POINT ( 'NONE', #353 ) ;
#536 = DIRECTION ( 'NONE',  ( -0.000000000000000000, -0.000000000000000000, -1.000000000000000000 ) ) ;
#537 = EDGE_LOOP ( 'NONE', ( #208, #62, #526, #107 ) ) ;
#538 = DIRECTION ( 'NONE',  ( 0.4999999999999851230, 0.8660254037844472563, 0.000000000000000000 ) ) ;
#539 = CARTESIAN_POINT ( 'NONE',  ( -5.262939744974453049, -14.12220720366615900, 0.1499999999999999944 ) ) ;
#540 = EDGE_CURVE ( 'NONE', #102, #352, #270, .T. ) ;
#541 = AXIS2_PLACEMENT_3D ( 'NONE', #374, #11, #325 ) ;
#542 = VECTOR ( 'NONE', #83, 39.37007874015748854 ) ;
#543 =( LENGTH_UNIT ( ) NAMED_UNIT ( * ) SI_UNIT ( $, .METRE. ) );
#544 = DIRECTION ( 'NONE',  ( 0.8660254037844403729, -0.4999999999999968359, 0.000000000000000000 ) ) ;
#545 = LINE ( 'NONE', #210, #25 ) ;
#546 = DIRECTION ( 'NONE',  ( -3.218134668512000902E-15, -1.000000000000000000, 0.000000000000000000 ) ) ;
#547 = LINE ( 'NONE', #456, #574 ) ;
#548 = EDGE_CURVE ( 'NONE', #183, #166, #363, .T. ) ;
#549 = FACE_OUTER_BOUND ( 'NONE', #475, .T. ) ;
#550 = UNCERTAINTY_MEASURE_WITH_UNIT (LENGTH_MEASURE( 1.000000000000000082E-05 ), #284, 'distance_accuracy_value', 'NONE');
#551 = CARTESIAN_POINT ( 'NONE',  ( -0.04603351489651803796, -34.20423575497855495, -0.05000000000000000278 ) ) ;
#552 = APPROVAL_PERSON_ORGANIZATION ( #192, #312, #378 ) ;
#553 = CARTESIAN_POINT ( 'NONE',  ( -10.04603351489663510, -21.63752151961842074, 0.1499999999999999944 ) ) ;
#554 = ADVANCED_FACE ( 'NONE', ( #307 ), #446, .F. ) ;
#555 = ORIENTED_EDGE ( 'NONE', *, *, #600, .T. ) ;
#556 = CALENDAR_DATE ( 2025, 7, 3 ) ;
#557 = CARTESIAN_POINT ( 'NONE',  ( 4.737060255025398625, -31.44271527935494603, 0.1499999999999999944 ) ) ;
#558 = EDGE_CURVE ( 'NONE', #470, #352, #80, .T. ) ;
#559 = APPROVAL_DATE_TIME ( #381, #312 ) ;
#560 = CARTESIAN_POINT ( 'NONE',  ( -15.26293974497445305, -25.91967432810787031, 0.1499999999999999944 ) ) ;
#561 = EDGE_LOOP ( 'NONE', ( #68, #531, #14, #429 ) ) ;
#562 = PERSON_AND_ORGANIZATION ( #246, #503 ) ;
#563 = FACE_OUTER_BOUND ( 'NONE', #109, .T. ) ;
#564 = VECTOR ( 'NONE', #121, 39.37007874015748854 ) ;
#565 = ORIENTED_EDGE ( 'NONE', *, *, #444, .T. ) ;
#566 = FACE_OUTER_BOUND ( 'NONE', #247, .T. ) ;
#567 = ORIENTED_EDGE ( 'NONE', *, *, #332, .F. ) ;
#568 = PERSON_AND_ORGANIZATION_ROLE ( 'creator' ) ;
#569 = EDGE_CURVE ( 'NONE', #253, #206, #36, .T. ) ;
#570 = DIRECTION ( 'NONE',  ( 0.8660254037844385966, 0.4999999999999998890, 0.000000000000000000 ) ) ;
#571 = ORIENTED_EDGE ( 'NONE', *, *, #540, .F. ) ;
#572 = CARTESIAN_POINT ( 'NONE',  ( -11.14603351489644112, -23.54277740794392670, 0.1499999999999999944 ) ) ;
#573 = ORIENTED_EDGE ( 'NONE', *, *, #385, .T. ) ;
#574 = VECTOR ( 'NONE', #538, 39.37007874015748854 ) ;
#575 = DIRECTION ( 'NONE',  ( -1.000000000000000000, 0.000000000000000000, -0.000000000000000000 ) ) ;
#576 = ORIENTED_EDGE ( 'NONE', *, *, #523, .T. ) ;
#577 = EDGE_CURVE ( 'NONE', #65, #191, #585, .T. ) ;
#578 = LINE ( 'NONE', #152, #217 ) ;
#579 = ORIENTED_EDGE ( 'NONE', *, *, #167, .T. ) ;
#580 = LINE ( 'NONE', #361, #533 ) ;
#581 = ORIENTED_EDGE ( 'NONE', *, *, #26, .F. ) ;
#582 = VECTOR ( 'NONE', #392, 39.37007874015748143 ) ;
#583 = FACE_OUTER_BOUND ( 'NONE', #424, .T. ) ;
#584 = VERTEX_POINT ( 'NONE', #309 ) ;
#585 = LINE ( 'NONE', #355, #7 ) ;
#586 = EDGE_CURVE ( 'NONE', #584, #202, #165, .T. ) ;
#587 = ORIENTED_EDGE ( 'NONE', *, *, #176, .T. ) ;
#588 = CARTESIAN_POINT ( 'NONE',  ( 4.737060255025398625, -31.44271527935494603, 0.1499999999999999944 ) ) ;
#589 = DIRECTION ( 'NONE',  ( -0.8660254037844382635, 0.5000000000000006661, 0.000000000000000000 ) ) ;
#590 = VECTOR ( 'NONE', #285, 39.37007874015748143 ) ;
#591 = CARTESIAN_POINT ( 'NONE',  ( 5.262939744974494793, 25.66915609059348924, -0.05000000000000000278 ) ) ;
#592 = EDGE_CURVE ( 'NONE', #17, #237, #547, .T. ) ;
#593 = APPLICATION_CONTEXT ( 'configuration controlled 3d designs of mechanical parts and assemblies' ) ;
#594 = CARTESIAN_POINT ( 'NONE',  ( 4.737060255025398625, -31.44271527935494603, 0.1499999999999999944 ) ) ;
#595 = CARTESIAN_POINT ( 'NONE',  ( -15.26293974497448325, -31.44271527935491761, -0.05000000000000000278 ) ) ;
#596 = CARTESIAN_POINT ( 'NONE',  ( 4.737060255025416389, -25.91967432810764649, 0.1499999999999999944 ) ) ;
#597 = FACE_OUTER_BOUND ( 'NONE', #164, .T. ) ;
#598 = DATE_AND_TIME ( #556, #476 ) ;
#599 = VECTOR ( 'NONE', #279, 39.37007874015748143 ) ;
#600 = EDGE_CURVE ( 'NONE', #92, #187, #31, .T. ) ;
#601 = LINE ( 'NONE', #122, #267 ) ;
#602 = APPLICATION_PROTOCOL_DEFINITION ( 'international standard', 'config_control_design', 1994, #301 ) ;
#603 = FACE_OUTER_BOUND ( 'NONE', #561, .T. ) ;
ENDSEC;
END-ISO-10303-21;
