ISO-10303-21;
HEADER;
FILE_DESCRIPTION (( 'STEP AP203' ),
    '1' );
FILE_NAME ('Main fork pin -003_Default_sldprt.STEP',
    '2025-03-08T04:50:38',
    ( '' ),
    ( '' ),
    'SwSTEP 2.0',
    'SolidWorks 2024',
    '' );
FILE_SCHEMA (( 'CONFIG_CONTROL_DESIGN' ));
ENDSEC;

DATA;
#1 = CARTESIAN_POINT ( 'NONE',  ( 0.5461831090803435096, -0.1553299553085998874, 0.3900000000000000133 ) ) ;
#2 = CARTESIAN_POINT ( 'NONE',  ( -0.1820610363601145587, 0.4659898659257996623, 0.3900000000000000133 ) ) ;
#3 = CARTESIAN_POINT ( 'NONE',  ( -0.1820610363601145587, -0.1553299553085998874, 0.3900000000000000133 ) ) ;
#4 = EDGE_CURVE ( 'NONE', #102, #132, #120, .T. ) ;
#5 = CARTESIAN_POINT ( 'NONE',  ( -0.1820610363601146142, 0.1553299553085998874, 0.2550000000000000600 ) ) ;
#6 = PRODUCT_RELATED_PRODUCT_CATEGORY ( 'detail', '', ( #206 ) ) ;
#7 = ORIENTED_EDGE ( 'NONE', *, *, #162, .F. ) ;
#8 = FACE_OUTER_BOUND ( 'NONE', #529, .T. ) ;
#9 = DIRECTION ( 'NONE',  ( 0.000000000000000000, 1.000000000000000000, 0.000000000000000000 ) ) ;
#10 = ORIENTED_EDGE ( 'NONE', *, *, #587, .T. ) ;
#11 = APPROVAL_PERSON_ORGANIZATION ( #373, #87, #266 ) ;
#12 = CARTESIAN_POINT ( 'NONE',  ( 0.5461831090803438427, 0.4659898659257996623, -0.1300000000000000044 ) ) ;
#13 = LINE ( 'NONE', #454, #463 ) ;
#14 = ORIENTED_EDGE ( 'NONE', *, *, #47, .T. ) ;
#15 = DIRECTION ( 'NONE',  ( 1.707404996040164203E-17, -1.000000000000000000, 0.000000000000000000 ) ) ;
#16 = DIRECTION ( 'NONE',  ( 1.000000000000000000, -0.000000000000000000, -0.000000000000000000 ) ) ;
#17 = ORIENTED_EDGE ( 'NONE', *, *, #162, .T. ) ;
#18 = CARTESIAN_POINT ( 'NONE',  ( 0.3699331090803438249, 0.1553299553085998874, 0.1300000000000000877 ) ) ;
#19 = VERTEX_POINT ( 'NONE', #419 ) ;
#20 = AXIS2_PLACEMENT_3D ( 'NONE', #129, #330, #578 ) ;
#21 = DIRECTION ( 'NONE',  ( 1.000000000000000000, 0.000000000000000000, -0.000000000000000000 ) ) ;
#22 = LINE ( 'NONE', #503, #296 ) ;
#23 = VECTOR ( 'NONE', #632, 39.37007874015748143 ) ;
#24 = PERSON_AND_ORGANIZATION ( #304, #384 ) ;
#25 = AXIS2_PLACEMENT_3D ( 'NONE', #240, #614, #144 ) ;
#26 = LOCAL_TIME ( 22, 50, 38.00000000000000000, #121 ) ;
#27 = CIRCLE ( 'NONE', #429, 0.2200000000000000011 ) ;
#28 = ORIENTED_EDGE ( 'NONE', *, *, #368, .T. ) ;
#29 = CALENDAR_DATE ( 2025, 7, 3 ) ;
#30 = EDGE_CURVE ( 'NONE', #197, #438, #413, .T. ) ;
#31 = CYLINDRICAL_SURFACE ( 'NONE', #479, 0.2200000000000000011 ) ;
#32 = CARTESIAN_POINT ( 'NONE',  ( 0.5261831090803438249, 0.1553299553085999152, 0.3500000000000000888 ) ) ;
#33 = CALENDAR_DATE ( 2025, 7, 3 ) ;
#34 = EDGE_LOOP ( 'NONE', ( #111, #322, #363, #10 ) ) ;
#35 = AXIS2_PLACEMENT_3D ( 'NONE', #187, #288, #179 ) ;
#36 = ORIENTED_EDGE ( 'NONE', *, *, #337, .F. ) ;
#37 = CARTESIAN_POINT ( 'NONE',  ( -0.1820610363601145587, -0.05532995530859916022, 0.3900000000000000133 ) ) ;
#38 = ORIENTED_EDGE ( 'NONE', *, *, #56, .T. ) ;
#39 = CARTESIAN_POINT ( 'NONE',  ( 0.5261831090803438249, 0.1553299553085998874, -0.05749999999999993311 ) ) ;
#40 = CARTESIAN_POINT ( 'NONE',  ( -0.1820610363601145587, 0.4659898659257996623, -0.1300000000000000044 ) ) ;
#41 = ORIENTED_EDGE ( 'NONE', *, *, #263, .F. ) ;
#42 = EDGE_CURVE ( 'NONE', #539, #460, #518, .T. ) ;
#43 = DIRECTION ( 'NONE',  ( 1.000000000000000000, 0.000000000000000000, 0.000000000000000000 ) ) ;
#44 = AXIS2_PLACEMENT_3D ( 'NONE', #106, #415, #299 ) ;
#45 = ORIENTED_EDGE ( 'NONE', *, *, #547, .T. ) ;
#46 = LINE ( 'NONE', #136, #170 ) ;
#47 = EDGE_CURVE ( 'NONE', #574, #19, #269, .T. ) ;
#48 = EDGE_CURVE ( 'NONE', #19, #135, #94, .T. ) ;
#49 = PLANE ( 'NONE',  #627 ) ;
#50 = VERTEX_POINT ( 'NONE', #32 ) ;
#51 = CARTESIAN_POINT ( 'NONE',  ( -0.005811036360114604261, 0.1553299553085998874, 0.2550000000000000600 ) ) ;
#52 = DIRECTION ( 'NONE',  ( 0.000000000000000000, 0.000000000000000000, -1.000000000000000000 ) ) ;
#53 = ORIENTED_EDGE ( 'NONE', *, *, #386, .T. ) ;
#54 = DIRECTION ( 'NONE',  ( -1.000000000000000000, -1.893440894737248225E-17, -0.000000000000000000 ) ) ;
#55 = CYLINDRICAL_SURFACE ( 'NONE', #142, 0.1250000000000000000 ) ;
#56 = EDGE_CURVE ( 'NONE', #594, #79, #27, .T. ) ;
#57 = ORIENTED_EDGE ( 'NONE', *, *, #582, .T. ) ;
#58 = CIRCLE ( 'NONE', #522, 0.1250000000000000000 ) ;
#59 = CARTESIAN_POINT ( 'NONE',  ( -0.1820610363601145587, -0.1553299553085998874, 0.3900000000000000133 ) ) ;
#60 = DIRECTION ( 'NONE',  ( 0.000000000000000000, 0.000000000000000000, -1.000000000000000000 ) ) ;
#61 = ORIENTED_EDGE ( 'NONE', *, *, #30, .T. ) ;
#62 = CARTESIAN_POINT ( 'NONE',  ( -0.1820610363601145587, -0.1553299553085998874, 0.3900000000000000133 ) ) ;
#63 = CARTESIAN_POINT ( 'NONE',  ( 0.3699331090803438249, 0.1553299553085998874, 0.1300000000000000877 ) ) ;
#64 = ORIENTED_EDGE ( 'NONE', *, *, #478, .F. ) ;
#65 = PERSON_AND_ORGANIZATION_ROLE ( 'creator' ) ;
#66 = DIRECTION ( 'NONE',  ( -1.000000000000000000, 0.000000000000000000, 0.000000000000000000 ) ) ;
#67 = CARTESIAN_POINT ( 'NONE',  ( 0.5461831090803438427, 0.4659898659257996623, 0.3900000000000000133 ) ) ;
#68 = APPLICATION_PROTOCOL_DEFINITION ( 'international standard', 'config_control_design', 1994, #537 ) ;
#69 = AXIS2_PLACEMENT_3D ( 'NONE', #346, #147, #110 ) ;
#70 = MANIFOLD_SOLID_BREP ( 'Cut-Extrude4', #525 ) ;
#71 = EDGE_LOOP ( 'NONE', ( #236, #361, #434, #298 ) ) ;
#72 = LINE ( 'NONE', #67, #382 ) ;
#73 = DIRECTION ( 'NONE',  ( 1.000000000000000000, -0.000000000000000000, -0.000000000000000000 ) ) ;
#74 = CARTESIAN_POINT ( 'NONE',  ( 0.000000000000000000, 0.000000000000000000, 0.000000000000000000 ) ) ;
#75 = EDGE_CURVE ( 'NONE', #455, #589, #125, .T. ) ;
#76 = VECTOR ( 'NONE', #280, 39.37007874015748143 ) ;
#77 = LINE ( 'NONE', #1, #350 ) ;
#78 = AXIS2_PLACEMENT_3D ( 'NONE', #494, #445, #595 ) ;
#79 = VERTEX_POINT ( 'NONE', #277 ) ;
#80 = COORDINATED_UNIVERSAL_TIME_OFFSET ( 6, 0, .BEHIND. ) ;
#81 = DIRECTION ( 'NONE',  ( 1.000000000000000000, -0.000000000000000000, -0.000000000000000000 ) ) ;
#82 = ORIENTED_EDGE ( 'NONE', *, *, #234, .T. ) ;
#83 = VERTEX_POINT ( 'NONE', #40 ) ;
#84 = VECTOR ( 'NONE', #333, 39.37007874015748143 ) ;
#85 =( GEOMETRIC_REPRESENTATION_CONTEXT ( 3 ) GLOBAL_UNCERTAINTY_ASSIGNED_CONTEXT ( ( #414 ) ) GLOBAL_UNIT_ASSIGNED_CONTEXT ( ( #259, #109, #364 ) ) REPRESENTATION_CONTEXT ( 'NONE', 'WORKASPACE' ) );
#86 = FACE_BOUND ( 'NONE', #332, .T. ) ;
#87 = APPROVAL ( #321, 'UNSPECIFIED' ) ;
#88 = CARTESIAN_POINT ( 'NONE',  ( -0.005811036360114607731, 0.3428299553085999429, 0.1300000000000000877 ) ) ;
#89 = ADVANCED_FACE ( 'NONE', ( #221 ), #624, .F. ) ;
#90 = EDGE_LOOP ( 'NONE', ( #450, #139 ) ) ;
#91 = LINE ( 'NONE', #542, #241 ) ;
#92 = ORIENTED_EDGE ( 'NONE', *, *, #167, .F. ) ;
#93 = CARTESIAN_POINT ( 'NONE',  ( 0.3699331090803438249, 0.1553299553085998874, -0.05749999999999993311 ) ) ;
#94 = CIRCLE ( 'NONE', #20, 0.2200000000000000011 ) ;
#95 = CARTESIAN_POINT ( 'NONE',  ( 0.5461831090803438427, 0.3659898659257997955, 0.3900000000000000133 ) ) ;
#96 = ORIENTED_EDGE ( 'NONE', *, *, #42, .F. ) ;
#97 = CARTESIAN_POINT ( 'NONE',  ( 0.3699331090803438249, 0.1553299553085998874, 0.1300000000000000877 ) ) ;
#98 = DIRECTION ( 'NONE',  ( 1.000000000000000000, 0.000000000000000000, 0.000000000000000000 ) ) ;
#99 = ORIENTED_EDGE ( 'NONE', *, *, #113, .T. ) ;
#100 = CARTESIAN_POINT ( 'NONE',  ( -0.1620610363601146242, 0.1553299553085998874, 0.1300000000000000877 ) ) ;
#101 = FACE_OUTER_BOUND ( 'NONE', #421, .T. ) ;
#102 = VERTEX_POINT ( 'NONE', #375 ) ;
#103 = CARTESIAN_POINT ( 'NONE',  ( 0.5461831090803435096, -0.1553299553085998874, 0.3900000000000000133 ) ) ;
#104 = DIRECTION ( 'NONE',  ( 1.000000000000000000, 0.000000000000000000, 0.000000000000000000 ) ) ;
#105 = ORIENTED_EDGE ( 'NONE', *, *, #195, .F. ) ;
#106 = CARTESIAN_POINT ( 'NONE',  ( -0.1820610363601146142, 0.1553299553085998874, 0.1300000000000000877 ) ) ;
#107 = CARTESIAN_POINT ( 'NONE',  ( 0.5261831090803438249, 0.1553299553085998874, 0.1300000000000000877 ) ) ;
#108 = ORIENTED_EDGE ( 'NONE', *, *, #478, .T. ) ;
#109 =( NAMED_UNIT ( * ) PLANE_ANGLE_UNIT ( ) SI_UNIT ( $, .RADIAN. ) );
#110 = DIRECTION ( 'NONE',  ( 0.000000000000000000, 0.000000000000000000, -1.000000000000000000 ) ) ;
#111 = ORIENTED_EDGE ( 'NONE', *, *, #42, .T. ) ;
#112 = CARTESIAN_POINT ( 'NONE',  ( 0.3699331090803438249, 0.1553299553085999152, 0.3175000000000001155 ) ) ;
#113 = EDGE_CURVE ( 'NONE', #574, #569, #488, .T. ) ;
#114 = APPROVAL ( #116, 'UNSPECIFIED' ) ;
#115 = AXIS2_PLACEMENT_3D ( 'NONE', #260, #564, #312 ) ;
#116 = APPROVAL_STATUS ( 'not_yet_approved' ) ;
#117 = VECTOR ( 'NONE', #66, 39.37007874015748143 ) ;
#118 = CARTESIAN_POINT ( 'NONE',  ( 0.5261831090803438249, 0.1553299553085998874, 0.1300000000000000877 ) ) ;
#119 = DIRECTION ( 'NONE',  ( 0.000000000000000000, 0.000000000000000000, -1.000000000000000000 ) ) ;
#120 = LINE ( 'NONE', #211, #634 ) ;
#121 = COORDINATED_UNIVERSAL_TIME_OFFSET ( 6, 0, .BEHIND. ) ;
#122 = EDGE_LOOP ( 'NONE', ( #328, #28, #281, #316 ) ) ;
#123 = AXIS2_PLACEMENT_3D ( 'NONE', #140, #163, #591 ) ;
#124 = CC_DESIGN_APPROVAL ( #580, ( #284 ) ) ;
#125 = LINE ( 'NONE', #88, #224 ) ;
#126 = ADVANCED_FACE ( 'NONE', ( #583, #320 ), #629, .T. ) ;
#127 = VERTEX_POINT ( 'NONE', #530 ) ;
#128 = ADVANCED_FACE ( 'NONE', ( #86, #275 ), #481, .F. ) ;
#129 = CARTESIAN_POINT ( 'NONE',  ( -0.1820610363601146142, 0.1553299553085998874, 0.1300000000000000877 ) ) ;
#130 = EDGE_LOOP ( 'NONE', ( #523, #353 ) ) ;
#131 = AXIS2_PLACEMENT_3D ( 'NONE', #138, #335, #538 ) ;
#132 = VERTEX_POINT ( 'NONE', #380 ) ;
#133 = DIRECTION ( 'NONE',  ( 1.000000000000000000, 1.893440894737248225E-17, -0.000000000000000000 ) ) ;
#134 = CC_DESIGN_PERSON_AND_ORGANIZATION_ASSIGNMENT ( #262, #461, ( #206 ) ) ;
#135 = VERTEX_POINT ( 'NONE', #192 ) ;
#136 = CARTESIAN_POINT ( 'NONE',  ( -0.1820610363601146142, 0.1553299553085998874, 0.005000000000000083371 ) ) ;
#137 = FACE_OUTER_BOUND ( 'NONE', #90, .T. ) ;
#138 = CARTESIAN_POINT ( 'NONE',  ( 0.5261831090803438249, 0.1553299553085998874, 0.1300000000000000877 ) ) ;
#139 = ORIENTED_EDGE ( 'NONE', *, *, #427, .F. ) ;
#140 = CARTESIAN_POINT ( 'NONE',  ( -0.1820610363601146142, 0.1553299553085998874, 0.1300000000000000877 ) ) ;
#141 = PLANE ( 'NONE',  #597 ) ;
#142 = AXIS2_PLACEMENT_3D ( 'NONE', #366, #73, #119 ) ;
#143 = ORIENTED_EDGE ( 'NONE', *, *, #48, .T. ) ;
#144 = DIRECTION ( 'NONE',  ( 0.000000000000000000, 0.000000000000000000, -1.000000000000000000 ) ) ;
#145 = DIRECTION ( 'NONE',  ( -0.000000000000000000, 0.000000000000000000, -1.000000000000000000 ) ) ;
#146 = ORIENTED_EDGE ( 'NONE', *, *, #517, .T. ) ;
#147 = DIRECTION ( 'NONE',  ( 1.000000000000000000, 0.000000000000000000, 0.000000000000000000 ) ) ;
#148 = CARTESIAN_POINT ( 'NONE',  ( -0.1620610363601146242, 0.1553299553085998874, 0.1300000000000000877 ) ) ;
#149 = ORIENTED_EDGE ( 'NONE', *, *, #48, .F. ) ;
#150 = LINE ( 'NONE', #456, #470 ) ;
#151 = FACE_BOUND ( 'NONE', #490, .T. ) ;
#152 = ORIENTED_EDGE ( 'NONE', *, *, #465, .T. ) ;
#153 = DIRECTION ( 'NONE',  ( -0.000000000000000000, -0.000000000000000000, -1.000000000000000000 ) ) ;
#154 = EDGE_CURVE ( 'NONE', #392, #608, #576, .T. ) ;
#155 = ORIENTED_EDGE ( 'NONE', *, *, #547, .F. ) ;
#156 = ADVANCED_FACE ( 'NONE', ( #188 ), #394, .F. ) ;
#157 = PERSON_AND_ORGANIZATION ( #304, #384 ) ;
#158 = CARTESIAN_POINT ( 'NONE',  ( -0.1620610363601146242, -0.06467004469140012757, 0.1300000000000000877 ) ) ;
#159 = APPROVAL_STATUS ( 'not_yet_approved' ) ;
#160 = DIRECTION ( 'NONE',  ( 1.707404996040164512E-17, -1.000000000000000000, 0.000000000000000000 ) ) ;
#161 = PERSON_AND_ORGANIZATION ( #304, #384 ) ;
#162 = EDGE_CURVE ( 'NONE', #50, #79, #13, .T. ) ;
#163 = DIRECTION ( 'NONE',  ( 1.000000000000000000, -0.000000000000000000, -0.000000000000000000 ) ) ;
#164 = ORIENTED_EDGE ( 'NONE', *, *, #283, .F. ) ;
#165 = CALENDAR_DATE ( 2025, 7, 3 ) ;
#166 = CARTESIAN_POINT ( 'NONE',  ( -0.1620610363601146242, 0.1553299553085998874, 0.1300000000000000877 ) ) ;
#167 = EDGE_CURVE ( 'NONE', #438, #189, #489, .T. ) ;
#168 = DATE_AND_TIME ( #33, #453 ) ;
#169 = CIRCLE ( 'NONE', #254, 0.1875000000000000278 ) ;
#170 = VECTOR ( 'NONE', #619, 39.37007874015748143 ) ;
#171 = SECURITY_CLASSIFICATION ( '', '', #362 ) ;
#172 = AXIS2_PLACEMENT_3D ( 'NONE', #37, #177, #228 ) ;
#173 = DIRECTION ( 'NONE',  ( 0.000000000000000000, 0.000000000000000000, -1.000000000000000000 ) ) ;
#174 = EDGE_LOOP ( 'NONE', ( #291, #348, #209, #377 ) ) ;
#175 = ADVANCED_FACE ( 'NONE', ( #536, #491 ), #199, .F. ) ;
#176 = CARTESIAN_POINT ( 'NONE',  ( 0.3699331090803438249, 0.1553299553085998874, 0.1300000000000000877 ) ) ;
#177 = DIRECTION ( 'NONE',  ( 1.000000000000000000, 1.893440894737248225E-17, -0.000000000000000000 ) ) ;
#178 = APPROVAL_DATE_TIME ( #376, #87 ) ;
#179 = DIRECTION ( 'NONE',  ( 0.000000000000000000, 0.000000000000000000, -1.000000000000000000 ) ) ;
#180 = AXIS2_PLACEMENT_3D ( 'NONE', #100, #190, #205 ) ;
#181 = ADVANCED_FACE ( 'NONE', ( #603 ), #49, .F. ) ;
#182 = CIRCLE ( 'NONE', #264, 0.1250000000000000000 ) ;
#183 = AXIS2_PLACEMENT_3D ( 'NONE', #148, #500, #52 ) ;
#184 = EDGE_LOOP ( 'NONE', ( #407, #446, #612, #186 ) ) ;
#185 = CARTESIAN_POINT ( 'NONE',  ( 0.3699331090803438249, 0.1553299553085998874, 0.005000000000000083371 ) ) ;
#186 = ORIENTED_EDGE ( 'NONE', *, *, #283, .T. ) ;
#187 = CARTESIAN_POINT ( 'NONE',  ( -0.005811036360114604261, 0.1553299553085998874, 0.1300000000000000877 ) ) ;
#188 = FACE_OUTER_BOUND ( 'NONE', #184, .T. ) ;
#189 = VERTEX_POINT ( 'NONE', #196 ) ;
#190 = DIRECTION ( 'NONE',  ( -1.000000000000000000, -1.893440894737248225E-17, -0.000000000000000000 ) ) ;
#191 = CIRCLE ( 'NONE', #131, 0.2200000000000000011 ) ;
#192 = CARTESIAN_POINT ( 'NONE',  ( -0.1820610363601146142, 0.3753299553085999163, 0.1300000000000001155 ) ) ;
#193 = VERTEX_POINT ( 'NONE', #185 ) ;
#194 = DIRECTION ( 'NONE',  ( 1.000000000000000000, 0.000000000000000000, 0.000000000000000000 ) ) ;
#195 = EDGE_CURVE ( 'NONE', #608, #392, #169, .T. ) ;
#196 = CARTESIAN_POINT ( 'NONE',  ( 0.3699331090803438249, 0.1553299553085998874, 0.2550000000000000600 ) ) ;
#197 = VERTEX_POINT ( 'NONE', #399 ) ;
#198 = DIRECTION ( 'NONE',  ( 0.000000000000000000, 0.000000000000000000, -1.000000000000000000 ) ) ;
#199 = PLANE ( 'NONE',  #258 ) ;
#200 = EDGE_LOOP ( 'NONE', ( #41, #64 ) ) ;
#201 = CARTESIAN_POINT ( 'NONE',  ( -0.005811036360114604261, 0.1553299553085998874, 0.1300000000000000877 ) ) ;
#202 = EDGE_CURVE ( 'NONE', #127, #83, #592, .T. ) ;
#203 = ORIENTED_EDGE ( 'NONE', *, *, #267, .F. ) ;
#204 = DIRECTION ( 'NONE',  ( 1.707404996040164512E-17, -1.000000000000000000, 0.000000000000000000 ) ) ;
#205 = DIRECTION ( 'NONE',  ( 0.000000000000000000, -1.000000000000000000, 0.000000000000000000 ) ) ;
#206 = PRODUCT ( 'Main fork pin -003_Default_sldprt', 'Main fork pin -003_Default_sldprt', '', ( #570 ) ) ;
#207 = AXIS2_PLACEMENT_3D ( 'NONE', #527, #81, #433 ) ;
#208 = PLANE ( 'NONE',  #115 ) ;
#209 = ORIENTED_EDGE ( 'NONE', *, *, #435, .T. ) ;
#210 = DATE_AND_TIME ( #29, #499 ) ;
#211 = CARTESIAN_POINT ( 'NONE',  ( -0.005811036360114601659, -0.03217004469140012646, 0.1300000000000000877 ) ) ;
#212 = PLANE ( 'NONE',  #411 ) ;
#213 = AXIS2_PLACEMENT_3D ( 'NONE', #249, #194, #198 ) ;
#214 = DIRECTION ( 'NONE',  ( 1.000000000000000000, 0.000000000000000000, 0.000000000000000000 ) ) ;
#215 = LOCAL_TIME ( 22, 50, 38.00000000000000000, #475 ) ;
#216 = ORIENTED_EDGE ( 'NONE', *, *, #417, .F. ) ;
#217 = CARTESIAN_POINT ( 'NONE',  ( -0.1820610363601145587, -0.1553299553085998874, 0.3900000000000000133 ) ) ;
#218 = ADVANCED_FACE ( 'NONE', ( #151, #101 ), #504, .T. ) ;
#219 = FACE_OUTER_BOUND ( 'NONE', #630, .T. ) ;
#220 = ADVANCED_FACE ( 'NONE', ( #351, #403 ), #141, .T. ) ;
#221 = FACE_OUTER_BOUND ( 'NONE', #122, .T. ) ;
#222 = CC_DESIGN_PERSON_AND_ORGANIZATION_ASSIGNMENT ( #24, #65, ( #284 ) ) ;
#223 = ORIENTED_EDGE ( 'NONE', *, *, #202, .T. ) ;
#224 = VECTOR ( 'NONE', #233, 39.37007874015748143 ) ;
#225 = CIRCLE ( 'NONE', #452, 0.2200000000000000011 ) ;
#226 = DIRECTION ( 'NONE',  ( 1.000000000000000000, 0.000000000000000000, 0.000000000000000000 ) ) ;
#227 = EDGE_LOOP ( 'NONE', ( #552, #248 ) ) ;
#228 = DIRECTION ( 'NONE',  ( -1.893440894737248225E-17, 1.000000000000000000, 0.000000000000000000 ) ) ;
#229 = DIRECTION ( 'NONE',  ( 0.000000000000000000, 0.000000000000000000, -1.000000000000000000 ) ) ;
#230 = CARTESIAN_POINT ( 'NONE',  ( 0.5461831090803438427, 0.1553299553085998874, 0.1300000000000000877 ) ) ;
#231 = FACE_OUTER_BOUND ( 'NONE', #557, .T. ) ;
#232 = APPROVAL_PERSON_ORGANIZATION ( #424, #580, #308 ) ;
#233 = DIRECTION ( 'NONE',  ( -1.000000000000000000, -1.893440894737248225E-17, -0.000000000000000000 ) ) ;
#234 = EDGE_CURVE ( 'NONE', #589, #132, #472, .T. ) ;
#235 = DIRECTION ( 'NONE',  ( 0.000000000000000000, 0.000000000000000000, 1.000000000000000000 ) ) ;
#236 = ORIENTED_EDGE ( 'NONE', *, *, #402, .T. ) ;
#237 = DIRECTION ( 'NONE',  ( 0.000000000000000000, -1.000000000000000000, 0.000000000000000000 ) ) ;
#238 = DIRECTION ( 'NONE',  ( 0.000000000000000000, -0.000000000000000000, 1.000000000000000000 ) ) ;
#239 = ORIENTED_EDGE ( 'NONE', *, *, #56, .F. ) ;
#240 = CARTESIAN_POINT ( 'NONE',  ( 0.3699331090803438249, 0.1553299553085998874, 0.1300000000000000877 ) ) ;
#241 = VECTOR ( 'NONE', #265, 39.37007874015748143 ) ;
#242 = CARTESIAN_POINT ( 'NONE',  ( -0.1620610363601146242, 0.1553299553085998874, 0.1300000000000000877 ) ) ;
#243 = AXIS2_PLACEMENT_3D ( 'NONE', #252, #512, #237 ) ;
#244 = DIRECTION ( 'NONE',  ( 0.000000000000000000, 0.000000000000000000, -1.000000000000000000 ) ) ;
#245 = ORIENTED_EDGE ( 'NONE', *, *, #465, .F. ) ;
#246 = FACE_OUTER_BOUND ( 'NONE', #174, .T. ) ;
#247 = LINE ( 'NONE', #443, #626 ) ;
#248 = ORIENTED_EDGE ( 'NONE', *, *, #485, .T. ) ;
#249 = CARTESIAN_POINT ( 'NONE',  ( 0.5261831090803438249, 0.1553299553085998874, 0.1300000000000000877 ) ) ;
#250 = ADVANCED_FACE ( 'NONE', ( #341, #137 ), #600, .T. ) ;
#251 = EDGE_LOOP ( 'NONE', ( #436, #586, #336, #223 ) ) ;
#252 = CARTESIAN_POINT ( 'NONE',  ( -0.1620610363601146242, 0.1553299553085998874, 0.1300000000000000877 ) ) ;
#253 = FACE_OUTER_BOUND ( 'NONE', #482, .T. ) ;
#254 = AXIS2_PLACEMENT_3D ( 'NONE', #406, #104, #448 ) ;
#255 = CARTESIAN_POINT ( 'NONE',  ( -0.005811036360114604261, 0.1553299553085998874, 0.1300000000000000877 ) ) ;
#256 = CIRCLE ( 'NONE', #35, 0.1875000000000000278 ) ;
#257 = PERSON_AND_ORGANIZATION ( #304, #384 ) ;
#258 = AXIS2_PLACEMENT_3D ( 'NONE', #95, #300, #235 ) ;
#259 =( CONVERSION_BASED_UNIT ( 'INCH', #565 ) LENGTH_UNIT ( ) NAMED_UNIT ( #431 ) );
#260 = CARTESIAN_POINT ( 'NONE',  ( -0.1820610363601145587, -0.1553299553085998874, -0.1300000000000000044 ) ) ;
#261 = CARTESIAN_POINT ( 'NONE',  ( 0.4461831090803436428, -0.1553299553085998874, -0.1300000000000000044 ) ) ;
#262 = PERSON_AND_ORGANIZATION ( #304, #384 ) ;
#263 = EDGE_CURVE ( 'NONE', #193, #189, #58, .T. ) ;
#264 = AXIS2_PLACEMENT_3D ( 'NONE', #313, #420, #204 ) ;
#265 = DIRECTION ( 'NONE',  ( 1.000000000000000000, -0.000000000000000000, -0.000000000000000000 ) ) ;
#266 = APPROVAL_ROLE ( '' ) ;
#267 = EDGE_CURVE ( 'NONE', #381, #594, #247, .T. ) ;
#268 = ADVANCED_FACE ( 'NONE', ( #334 ), #55, .F. ) ;
#269 = LINE ( 'NONE', #370, #486 ) ;
#270 = CALENDAR_DATE ( 2025, 7, 3 ) ;
#271 = ORIENTED_EDGE ( 'NONE', *, *, #502, .F. ) ;
#272 = DIRECTION ( 'NONE',  ( 0.000000000000000000, 0.000000000000000000, -1.000000000000000000 ) ) ;
#273 = ORIENTED_EDGE ( 'NONE', *, *, #331, .T. ) ;
#274 = AXIS2_PLACEMENT_3D ( 'NONE', #292, #54, #602 ) ;
#275 = FACE_OUTER_BOUND ( 'NONE', #251, .T. ) ;
#276 = LINE ( 'NONE', #425, #84 ) ;
#277 = CARTESIAN_POINT ( 'NONE',  ( 0.5461831090803438427, 0.1553299553085999152, 0.3500000000000000888 ) ) ;
#278 = DATE_TIME_ROLE ( 'classification_date' ) ;
#279 = VERTEX_POINT ( 'NONE', #469 ) ;
#280 = DIRECTION ( 'NONE',  ( 1.000000000000000000, 0.000000000000000000, 0.000000000000000000 ) ) ;
#281 = ORIENTED_EDGE ( 'NONE', *, *, #195, .T. ) ;
#282 = LINE ( 'NONE', #3, #76 ) ;
#283 = EDGE_CURVE ( 'NONE', #279, #483, #72, .T. ) ;
#284 = PRODUCT_DEFINITION_FORMATION_WITH_SPECIFIED_SOURCE ( 'ANY', '', #206, .NOT_KNOWN. ) ;
#285 = DIRECTION ( 'NONE',  ( -0.000000000000000000, -0.000000000000000000, -1.000000000000000000 ) ) ;
#286 = CARTESIAN_POINT ( 'NONE',  ( -0.1620610363601146242, 0.1553299553085998874, 0.1300000000000000877 ) ) ;
#287 = ORIENTED_EDGE ( 'NONE', *, *, #623, .T. ) ;
#288 = DIRECTION ( 'NONE',  ( 1.000000000000000000, 1.893440894737248225E-17, -0.000000000000000000 ) ) ;
#289 = CC_DESIGN_PERSON_AND_ORGANIZATION_ASSIGNMENT ( #257, #621, ( #391 ) ) ;
#290 = DIRECTION ( 'NONE',  ( 0.000000000000000000, 0.000000000000000000, -1.000000000000000000 ) ) ;
#291 = ORIENTED_EDGE ( 'NONE', *, *, #368, .F. ) ;
#292 = CARTESIAN_POINT ( 'NONE',  ( -0.005811036360114604261, 0.1553299553085998874, 0.1300000000000000877 ) ) ;
#293 = CARTESIAN_POINT ( 'NONE',  ( 0.4461831090803436428, -0.1553299553085998874, 0.3900000000000000133 ) ) ;
#294 = EDGE_LOOP ( 'NONE', ( #273, #82 ) ) ;
#295 = DIRECTION ( 'NONE',  ( 1.000000000000000000, 1.893440894737248225E-17, -0.000000000000000000 ) ) ;
#296 = VECTOR ( 'NONE', #546, 39.37007874015748143 ) ;
#297 = DIRECTION ( 'NONE',  ( -0.000000000000000000, 0.000000000000000000, -1.000000000000000000 ) ) ;
#298 = ORIENTED_EDGE ( 'NONE', *, *, #4, .F. ) ;
#299 = DIRECTION ( 'NONE',  ( 0.000000000000000000, 0.000000000000000000, -1.000000000000000000 ) ) ;
#300 = DIRECTION ( 'NONE',  ( -1.000000000000000000, 0.000000000000000000, 0.000000000000000000 ) ) ;
#301 = ORIENTED_EDGE ( 'NONE', *, *, #623, .F. ) ;
#302 = DATE_AND_TIME ( #520, #26 ) ;
#303 = DIRECTION ( 'NONE',  ( 0.000000000000000000, 0.000000000000000000, -1.000000000000000000 ) ) ;
#304 = PERSON ( 'UNSPECIFIED', 'UNSPECIFIED', 'UNSPECIFIED', ('UNSPECIFIED'), ('UNSPECIFIED'), ('UNSPECIFIED') ) ;
#305 = ORIENTED_EDGE ( 'NONE', *, *, #154, .F. ) ;
#306 = CARTESIAN_POINT ( 'NONE',  ( 0.5461831090803438427, 0.1553299553085998874, -0.08999999999999992728 ) ) ;
#307 = EDGE_LOOP ( 'NONE', ( #416, #549, #395, #53 ) ) ;
#308 = APPROVAL_ROLE ( '' ) ;
#309 = ADVANCED_FACE ( 'NONE', ( #253 ), #208, .F. ) ;
#310 = DIRECTION ( 'NONE',  ( -1.000000000000000000, -1.893440894737248225E-17, 0.000000000000000000 ) ) ;
#311 = PERSON_AND_ORGANIZATION ( #304, #384 ) ;
#312 = DIRECTION ( 'NONE',  ( 1.000000000000000000, 0.000000000000000000, -0.000000000000000000 ) ) ;
#313 = CARTESIAN_POINT ( 'NONE',  ( -0.005811036360114604261, 0.1553299553085998874, 0.1300000000000000877 ) ) ;
#314 = LINE ( 'NONE', #383, #513 ) ;
#315 = DIRECTION ( 'NONE',  ( -0.000000000000000000, -0.000000000000000000, -1.000000000000000000 ) ) ;
#316 = ORIENTED_EDGE ( 'NONE', *, *, #435, .F. ) ;
#317 = CC_DESIGN_PERSON_AND_ORGANIZATION_ASSIGNMENT ( #161, #559, ( #284 ) ) ;
#318 = AXIS2_PLACEMENT_3D ( 'NONE', #18, #550, #303 ) ;
#319 = ADVANCED_FACE ( 'NONE', ( #526 ), #31, .F. ) ;
#320 = FACE_OUTER_BOUND ( 'NONE', #227, .T. ) ;
#321 = APPROVAL_STATUS ( 'not_yet_approved' ) ;
#322 = ORIENTED_EDGE ( 'NONE', *, *, #509, .F. ) ;
#323 = EDGE_CURVE ( 'NONE', #381, #50, #191, .T. ) ;
#324 = DIRECTION ( 'NONE',  ( 0.000000000000000000, 0.000000000000000000, -1.000000000000000000 ) ) ;
#325 = ORIENTED_EDGE ( 'NONE', *, *, #323, .F. ) ;
#326 = AXIS2_PLACEMENT_3D ( 'NONE', #97, #487, #422 ) ;
#327 = CARTESIAN_POINT ( 'NONE',  ( -0.1820610363601145587, 0.3659898659257989628, 0.3900000000000000133 ) ) ;
#328 = ORIENTED_EDGE ( 'NONE', *, *, #485, .F. ) ;
#329 = LINE ( 'NONE', #575, #610 ) ;
#330 = DIRECTION ( 'NONE',  ( 1.000000000000000000, 1.893440894737248225E-17, -0.000000000000000000 ) ) ;
#331 = EDGE_CURVE ( 'NONE', #132, #589, #439, .T. ) ;
#332 = EDGE_LOOP ( 'NONE', ( #143, #57 ) ) ;
#333 = DIRECTION ( 'NONE',  ( 1.000000000000000000, -0.000000000000000000, -0.000000000000000000 ) ) ;
#334 = FACE_OUTER_BOUND ( 'NONE', #584, .T. ) ;
#335 = DIRECTION ( 'NONE',  ( 1.000000000000000000, 0.000000000000000000, 0.000000000000000000 ) ) ;
#336 = ORIENTED_EDGE ( 'NONE', *, *, #386, .F. ) ;
#337 = EDGE_CURVE ( 'NONE', #197, #193, #46, .T. ) ;
#338 = CARTESIAN_POINT ( 'NONE',  ( 0.5261831090803438249, 0.1553299553085998874, -0.08999999999999992728 ) ) ;
#339 = CC_DESIGN_DATE_AND_TIME_ASSIGNMENT ( #210, #506, ( #391 ) ) ;
#340 = CIRCLE ( 'NONE', #409, 0.2200000000000000011 ) ;
#341 = FACE_BOUND ( 'NONE', #294, .T. ) ;
#342 = ORIENTED_EDGE ( 'NONE', *, *, #47, .F. ) ;
#343 = FACE_OUTER_BOUND ( 'NONE', #71, .T. ) ;
#344 = DIRECTION ( 'NONE',  ( 1.000000000000000000, 0.000000000000000000, 0.000000000000000000 ) ) ;
#345 = EDGE_LOOP ( 'NONE', ( #146, #164, #432, #387 ) ) ;
#346 = CARTESIAN_POINT ( 'NONE',  ( 0.3699331090803438249, 0.1553299553085998874, 0.1300000000000000877 ) ) ;
#347 = CARTESIAN_POINT ( 'NONE',  ( -0.005811036360114604261, 0.1553299553085998874, 0.1300000000000000877 ) ) ;
#348 = ORIENTED_EDGE ( 'NONE', *, *, #464, .F. ) ;
#349 = CYLINDRICAL_SURFACE ( 'NONE', #25, 0.1875000000000000278 ) ;
#350 = VECTOR ( 'NONE', #622, 39.37007874015748143 ) ;
#351 = FACE_BOUND ( 'NONE', #620, .T. ) ;
#352 = CC_DESIGN_APPROVAL ( #114, ( #391 ) ) ;
#353 = ORIENTED_EDGE ( 'NONE', *, *, #528, .F. ) ;
#354 = AXIS2_PLACEMENT_3D ( 'NONE', #255, #310, #160 ) ;
#355 = CARTESIAN_POINT ( 'NONE',  ( -0.1620610363601146242, 0.3428299553085999429, 0.1300000000000000877 ) ) ;
#356 = ORIENTED_EDGE ( 'NONE', *, *, #75, .F. ) ;
#357 = ADVANCED_FACE ( 'NONE', ( #219 ), #590, .F. ) ;
#358 = CYLINDRICAL_SURFACE ( 'NONE', #274, 0.1875000000000000278 ) ;
#359 = DIRECTION ( 'NONE',  ( 0.000000000000000000, 0.000000000000000000, 1.000000000000000000 ) ) ;
#360 = ADVANCED_FACE ( 'NONE', ( #369 ), #437, .F. ) ;
#361 = ORIENTED_EDGE ( 'NONE', *, *, #75, .T. ) ;
#362 = SECURITY_CLASSIFICATION_LEVEL ( 'unclassified' ) ;
#363 = ORIENTED_EDGE ( 'NONE', *, *, #442, .F. ) ;
#364 =( NAMED_UNIT ( * ) SI_UNIT ( $, .STERADIAN. ) SOLID_ANGLE_UNIT ( ) );
#365 = CARTESIAN_POINT ( 'NONE',  ( 0.5261831090803438249, 0.1553299553085998874, 0.1300000000000000877 ) ) ;
#366 = CARTESIAN_POINT ( 'NONE',  ( -0.1820610363601146142, 0.1553299553085998874, 0.1300000000000000877 ) ) ;
#367 = ORIENTED_EDGE ( 'NONE', *, *, #4, .T. ) ;
#368 = EDGE_CURVE ( 'NONE', #604, #608, #276, .T. ) ;
#369 = FACE_OUTER_BOUND ( 'NONE', #596, .T. ) ;
#370 = CARTESIAN_POINT ( 'NONE',  ( -0.1620610363601146242, -0.06467004469140012757, 0.1300000000000000877 ) ) ;
#371 = AXIS2_PLACEMENT_3D ( 'NONE', #107, #98, #290 ) ;
#372 = CIRCLE ( 'NONE', #326, 0.1875000000000000278 ) ;
#373 = PERSON_AND_ORGANIZATION ( #304, #384 ) ;
#374 = DIRECTION ( 'NONE',  ( 1.000000000000000000, 1.893440894737248225E-17, -0.000000000000000000 ) ) ;
#375 = CARTESIAN_POINT ( 'NONE',  ( -0.005811036360114601659, -0.03217004469140012646, 0.1300000000000000877 ) ) ;
#376 = DATE_AND_TIME ( #270, #215 ) ;
#377 = ORIENTED_EDGE ( 'NONE', *, *, #154, .T. ) ;
#378 = DIRECTION ( 'NONE',  ( 0.000000000000000000, 0.000000000000000000, -1.000000000000000000 ) ) ;
#379 = ORIENTED_EDGE ( 'NONE', *, *, #337, .T. ) ;
#380 = CARTESIAN_POINT ( 'NONE',  ( -0.1620610363601146242, -0.03217004469140012646, 0.1300000000000000877 ) ) ;
#381 = VERTEX_POINT ( 'NONE', #338 ) ;
#382 = VECTOR ( 'NONE', #315, 39.37007874015748143 ) ;
#383 = CARTESIAN_POINT ( 'NONE',  ( -0.1820610363601145587, -0.05532995530859916022, -0.1300000000000000044 ) ) ;
#384 = ORGANIZATION ( 'UNSPECIFIED', 'UNSPECIFIED', '' ) ;
#385 = AXIS2_PLACEMENT_3D ( 'NONE', #631, #428, #173 ) ;
#386 = EDGE_CURVE ( 'NONE', #127, #511, #535, .T. ) ;
#387 = ORIENTED_EDGE ( 'NONE', *, *, #509, .T. ) ;
#388 = DIRECTION ( 'NONE',  ( 1.000000000000000000, 0.000000000000000000, 0.000000000000000000 ) ) ;
#389 = CC_DESIGN_DATE_AND_TIME_ASSIGNMENT ( #168, #278, ( #171 ) ) ;
#390 = DIRECTION ( 'NONE',  ( 0.000000000000000000, -1.000000000000000000, 0.000000000000000000 ) ) ;
#391 = PRODUCT_DEFINITION ( 'UNKNOWN', '', #284, #496 ) ;
#392 = VERTEX_POINT ( 'NONE', #39 ) ;
#393 = DIRECTION ( 'NONE',  ( 0.000000000000000000, 0.000000000000000000, -1.000000000000000000 ) ) ;
#394 = PLANE ( 'NONE',  #581 ) ;
#395 = ORIENTED_EDGE ( 'NONE', *, *, #543, .T. ) ;
#396 = CARTESIAN_POINT ( 'NONE',  ( 0.5261831090803438249, 0.1553299553085999152, 0.3175000000000001155 ) ) ;
#397 = CIRCLE ( 'NONE', #44, 0.2200000000000000011 ) ;
#398 = CIRCLE ( 'NONE', #69, 0.1875000000000000278 ) ;
#399 = CARTESIAN_POINT ( 'NONE',  ( -0.005811036360114604261, 0.1553299553085998874, 0.005000000000000083371 ) ) ;
#400 = ORIENTED_EDGE ( 'NONE', *, *, #528, .T. ) ;
#401 = DIRECTION ( 'NONE',  ( 0.000000000000000000, 1.000000000000000000, 0.000000000000000000 ) ) ;
#402 = EDGE_CURVE ( 'NONE', #102, #455, #256, .T. ) ;
#403 = FACE_OUTER_BOUND ( 'NONE', #130, .T. ) ;
#404 = EDGE_LOOP ( 'NONE', ( #7, #325, #467, #38 ) ) ;
#405 = CARTESIAN_POINT ( 'NONE',  ( 0.5461831090803438427, 0.4659898659257996623, 0.3900000000000000133 ) ) ;
#406 = CARTESIAN_POINT ( 'NONE',  ( 0.5261831090803438249, 0.1553299553085998874, 0.1300000000000000877 ) ) ;
#407 = ORIENTED_EDGE ( 'NONE', *, *, #449, .T. ) ;
#408 = CYLINDRICAL_SURFACE ( 'NONE', #180, 0.2200000000000000011 ) ;
#409 = AXIS2_PLACEMENT_3D ( 'NONE', #166, #133, #393 ) ;
#410 = EDGE_CURVE ( 'NONE', #492, #279, #77, .T. ) ;
#411 = AXIS2_PLACEMENT_3D ( 'NONE', #217, #562, #21 ) ;
#412 = EDGE_LOOP ( 'NONE', ( #239, #245 ) ) ;
#413 = CIRCLE ( 'NONE', #354, 0.1250000000000000000 ) ;
#414 = UNCERTAINTY_MEASURE_WITH_UNIT (LENGTH_MEASURE( 1.000000000000000082E-05 ), #259, 'distance_accuracy_value', 'NONE');
#415 = DIRECTION ( 'NONE',  ( 1.000000000000000000, 1.893440894737248225E-17, -0.000000000000000000 ) ) ;
#416 = ORIENTED_EDGE ( 'NONE', *, *, #442, .T. ) ;
#417 = EDGE_CURVE ( 'NONE', #83, #539, #314, .T. ) ;
#418 =( LENGTH_UNIT ( ) NAMED_UNIT ( * ) SI_UNIT ( $, .METRE. ) );
#419 = CARTESIAN_POINT ( 'NONE',  ( -0.1820610363601146142, -0.06467004469140012757, 0.1300000000000000877 ) ) ;
#420 = DIRECTION ( 'NONE',  ( -1.000000000000000000, -1.893440894737248225E-17, 0.000000000000000000 ) ) ;
#421 = EDGE_LOOP ( 'NONE', ( #495, #633 ) ) ;
#422 = DIRECTION ( 'NONE',  ( 0.000000000000000000, 0.000000000000000000, -1.000000000000000000 ) ) ;
#423 = ORIENTED_EDGE ( 'NONE', *, *, #449, .F. ) ;
#424 = PERSON_AND_ORGANIZATION ( #304, #384 ) ;
#425 = CARTESIAN_POINT ( 'NONE',  ( 0.3699331090803438249, 0.1553299553085999152, 0.3175000000000001155 ) ) ;
#426 = ADVANCED_BREP_SHAPE_REPRESENTATION ( 'Main fork pin -003_Default_sldprt', ( #70, #568 ), #85 ) ;
#427 = EDGE_CURVE ( 'NONE', #569, #574, #340, .T. ) ;
#428 = DIRECTION ( 'NONE',  ( 1.000000000000000000, 1.893440894737248225E-17, -0.000000000000000000 ) ) ;
#429 = AXIS2_PLACEMENT_3D ( 'NONE', #230, #43, #272 ) ;
#430 = CIRCLE ( 'NONE', #598, 0.1875000000000000278 ) ;
#431 = DIMENSIONAL_EXPONENTS ( 1.000000000000000000, 0.000000000000000000, 0.000000000000000000, 0.000000000000000000, 0.000000000000000000, 0.000000000000000000, 0.000000000000000000 ) ;
#432 = ORIENTED_EDGE ( 'NONE', *, *, #410, .F. ) ;
#433 = DIRECTION ( 'NONE',  ( 0.000000000000000000, 0.000000000000000000, -1.000000000000000000 ) ) ;
#434 = ORIENTED_EDGE ( 'NONE', *, *, #331, .F. ) ;
#435 = EDGE_CURVE ( 'NONE', #458, #392, #91, .T. ) ;
#436 = ORIENTED_EDGE ( 'NONE', *, *, #417, .T. ) ;
#437 = CYLINDRICAL_SURFACE ( 'NONE', #541, 0.2200000000000000011 ) ;
#438 = VERTEX_POINT ( 'NONE', #51 ) ;
#439 = CIRCLE ( 'NONE', #554, 0.1875000000000000278 ) ;
#440 = CYLINDRICAL_SURFACE ( 'NONE', #498, 0.1875000000000000278 ) ;
#441 = CC_DESIGN_APPROVAL ( #87, ( #171 ) ) ;
#442 = EDGE_CURVE ( 'NONE', #511, #492, #282, .T. ) ;
#443 = CARTESIAN_POINT ( 'NONE',  ( 0.5261831090803438249, 0.1553299553085998874, -0.08999999999999992728 ) ) ;
#444 = DIRECTION ( 'NONE',  ( 1.893440894737247917E-17, -1.000000000000000000, 0.000000000000000000 ) ) ;
#445 = DIRECTION ( 'NONE',  ( 1.000000000000000000, 0.000000000000000000, 0.000000000000000000 ) ) ;
#446 = ORIENTED_EDGE ( 'NONE', *, *, #202, .F. ) ;
#447 = FACE_OUTER_BOUND ( 'NONE', #561, .T. ) ;
#448 = DIRECTION ( 'NONE',  ( 0.000000000000000000, 0.000000000000000000, -1.000000000000000000 ) ) ;
#449 = EDGE_CURVE ( 'NONE', #483, #83, #329, .T. ) ;
#450 = ORIENTED_EDGE ( 'NONE', *, *, #113, .F. ) ;
#451 = FACE_OUTER_BOUND ( 'NONE', #307, .T. ) ;
#452 = AXIS2_PLACEMENT_3D ( 'NONE', #474, #388, #533 ) ;
#453 = LOCAL_TIME ( 22, 50, 38.00000000000000000, #80 ) ;
#454 = CARTESIAN_POINT ( 'NONE',  ( 0.5261831090803438249, 0.1553299553085999152, 0.3500000000000000888 ) ) ;
#455 = VERTEX_POINT ( 'NONE', #573 ) ;
#456 = CARTESIAN_POINT ( 'NONE',  ( 0.5461831090803438427, 0.3659898659257997955, -0.1300000000000000044 ) ) ;
#457 = DIRECTION ( 'NONE',  ( 1.000000000000000000, -0.000000000000000000, -0.000000000000000000 ) ) ;
#458 = VERTEX_POINT ( 'NONE', #93 ) ;
#459 = CARTESIAN_POINT ( 'NONE',  ( -0.1620610363601146242, 0.3753299553085999163, 0.1300000000000001155 ) ) ;
#460 = VERTEX_POINT ( 'NONE', #484 ) ;
#461 = PERSON_AND_ORGANIZATION_ROLE ( 'design_owner' ) ;
#462 = DIRECTION ( 'NONE',  ( -1.000000000000000000, -1.893440894737248225E-17, -0.000000000000000000 ) ) ;
#463 = VECTOR ( 'NONE', #457, 39.37007874015748143 ) ;
#464 = EDGE_CURVE ( 'NONE', #458, #604, #372, .T. ) ;
#465 = EDGE_CURVE ( 'NONE', #79, #594, #225, .T. ) ;
#466 = COORDINATED_UNIVERSAL_TIME_OFFSET ( 6, 0, .BEHIND. ) ;
#467 = ORIENTED_EDGE ( 'NONE', *, *, #267, .T. ) ;
#468 = APPROVAL_DATE_TIME ( #515, #580 ) ;
#469 = CARTESIAN_POINT ( 'NONE',  ( 0.5461831090803438427, 0.4659898659257996623, 0.3900000000000000133 ) ) ;
#470 = VECTOR ( 'NONE', #401, 39.37007874015748143 ) ;
#471 = APPROVAL_PERSON_ORGANIZATION ( #157, #114, #572 ) ;
#472 = CIRCLE ( 'NONE', #183, 0.1875000000000000278 ) ;
#473 = APPROVAL_DATE_TIME ( #302, #114 ) ;
#474 = CARTESIAN_POINT ( 'NONE',  ( 0.5461831090803438427, 0.1553299553085998874, 0.1300000000000000877 ) ) ;
#475 = COORDINATED_UNIVERSAL_TIME_OFFSET ( 6, 0, .BEHIND. ) ;
#476 = ADVANCED_FACE ( 'NONE', ( #231 ), #440, .F. ) ;
#477 = DIRECTION ( 'NONE',  ( -1.000000000000000000, -1.893440894737248225E-17, -0.000000000000000000 ) ) ;
#478 = EDGE_CURVE ( 'NONE', #189, #193, #577, .T. ) ;
#479 = AXIS2_PLACEMENT_3D ( 'NONE', #118, #516, #244 ) ;
#480 = ORIENTED_EDGE ( 'NONE', *, *, #234, .F. ) ;
#481 = PLANE ( 'NONE',  #172 ) ;
#482 = EDGE_LOOP ( 'NONE', ( #96, #216, #423, #617 ) ) ;
#483 = VERTEX_POINT ( 'NONE', #12 ) ;
#484 = CARTESIAN_POINT ( 'NONE',  ( 0.5461831090803435096, -0.1553299553085998874, -0.1300000000000000044 ) ) ;
#485 = EDGE_CURVE ( 'NONE', #604, #458, #398, .T. ) ;
#486 = VECTOR ( 'NONE', #477, 39.37007874015748143 ) ;
#487 = DIRECTION ( 'NONE',  ( 1.000000000000000000, 0.000000000000000000, 0.000000000000000000 ) ) ;
#488 = CIRCLE ( 'NONE', #385, 0.2200000000000000011 ) ;
#489 = LINE ( 'NONE', #5, #514 ) ;
#490 = EDGE_LOOP ( 'NONE', ( #305, #105 ) ) ;
#491 = FACE_OUTER_BOUND ( 'NONE', #345, .T. ) ;
#492 = VERTEX_POINT ( 'NONE', #493 ) ;
#493 = CARTESIAN_POINT ( 'NONE',  ( 0.5461831090803435096, -0.1553299553085998874, 0.3900000000000000133 ) ) ;
#494 = CARTESIAN_POINT ( 'NONE',  ( 0.5261831090803438249, 0.1553299553085998874, 0.1300000000000000877 ) ) ;
#495 = ORIENTED_EDGE ( 'NONE', *, *, #323, .T. ) ;
#496 = DESIGN_CONTEXT ( 'detailed design', #510, 'design' ) ;
#497 = DIRECTION ( 'NONE',  ( 0.000000000000000000, 0.000000000000000000, -1.000000000000000000 ) ) ;
#498 = AXIS2_PLACEMENT_3D ( 'NONE', #201, #462, #15 ) ;
#499 = LOCAL_TIME ( 22, 50, 38.00000000000000000, #466 ) ;
#500 = DIRECTION ( 'NONE',  ( 1.000000000000000000, 1.893440894737248225E-17, -0.000000000000000000 ) ) ;
#501 = ORIENTED_EDGE ( 'NONE', *, *, #427, .T. ) ;
#502 = EDGE_CURVE ( 'NONE', #50, #381, #531, .T. ) ;
#503 = CARTESIAN_POINT ( 'NONE',  ( -0.1620610363601146242, 0.3753299553085999163, 0.1300000000000001155 ) ) ;
#504 = PLANE ( 'NONE',  #78 ) ;
#505 = ORIENTED_EDGE ( 'NONE', *, *, #167, .T. ) ;
#506 = DATE_TIME_ROLE ( 'creation_date' ) ;
#507 = LINE ( 'NONE', #103, #588 ) ;
#508 = PRODUCT_DEFINITION_SHAPE ( 'NONE', 'NONE',  #391 ) ;
#509 = EDGE_CURVE ( 'NONE', #492, #460, #507, .T. ) ;
#510 = APPLICATION_CONTEXT ( 'configuration controlled 3d designs of mechanical parts and assemblies' ) ;
#511 = VERTEX_POINT ( 'NONE', #59 ) ;
#512 = DIRECTION ( 'NONE',  ( -1.000000000000000000, -1.893440894737248225E-17, -0.000000000000000000 ) ) ;
#513 = VECTOR ( 'NONE', #444, 39.37007874015748143 ) ;
#514 = VECTOR ( 'NONE', #16, 39.37007874015748143 ) ;
#515 = DATE_AND_TIME ( #165, #579 ) ;
#516 = DIRECTION ( 'NONE',  ( 1.000000000000000000, -0.000000000000000000, -0.000000000000000000 ) ) ;
#517 = EDGE_CURVE ( 'NONE', #460, #483, #150, .T. ) ;
#518 = LINE ( 'NONE', #261, #611 ) ;
#519 = PERSON_AND_ORGANIZATION_ROLE ( 'classification_officer' ) ;
#520 = CALENDAR_DATE ( 2025, 7, 3 ) ;
#521 = DIRECTION ( 'NONE',  ( -1.000000000000000000, -0.000000000000000000, -0.000000000000000000 ) ) ;
#522 = AXIS2_PLACEMENT_3D ( 'NONE', #63, #344, #60 ) ;
#523 = ORIENTED_EDGE ( 'NONE', *, *, #402, .F. ) ;
#524 = CC_DESIGN_SECURITY_CLASSIFICATION ( #171, ( #284 ) ) ;
#525 = CLOSED_SHELL ( 'NONE', ( #357, #593, #607, #89, #360, #181, #175, #156, #128, #618, #309, #319, #218, #558, #126, #566, #250, #476, #220, #268 ) ) ;
#526 = FACE_OUTER_BOUND ( 'NONE', #404, .T. ) ;
#527 = CARTESIAN_POINT ( 'NONE',  ( 0.3699331090803438249, 0.1553299553085998874, 0.1300000000000000877 ) ) ;
#528 = EDGE_CURVE ( 'NONE', #455, #102, #430, .T. ) ;
#529 = EDGE_LOOP ( 'NONE', ( #99, #45, #149, #342 ) ) ;
#530 = CARTESIAN_POINT ( 'NONE',  ( -0.1820610363601145587, 0.4659898659257996623, 0.3900000000000000133 ) ) ;
#531 = CIRCLE ( 'NONE', #213, 0.2200000000000000011 ) ;
#532 = ORIENTED_EDGE ( 'NONE', *, *, #582, .F. ) ;
#533 = DIRECTION ( 'NONE',  ( 0.000000000000000000, 0.000000000000000000, -1.000000000000000000 ) ) ;
#534 = DIRECTION ( 'NONE',  ( 1.000000000000000000, -0.000000000000000000, -0.000000000000000000 ) ) ;
#535 = LINE ( 'NONE', #327, #23 ) ;
#536 = FACE_BOUND ( 'NONE', #412, .T. ) ;
#537 = APPLICATION_CONTEXT ( 'configuration controlled 3d designs of mechanical parts and assemblies' ) ;
#538 = DIRECTION ( 'NONE',  ( 0.000000000000000000, 0.000000000000000000, -1.000000000000000000 ) ) ;
#539 = VERTEX_POINT ( 'NONE', #599 ) ;
#540 = AXIS2_PLACEMENT_3D ( 'NONE', #176, #585, #324 ) ;
#541 = AXIS2_PLACEMENT_3D ( 'NONE', #365, #534, #229 ) ;
#542 = CARTESIAN_POINT ( 'NONE',  ( 0.3699331090803438249, 0.1553299553085998874, -0.05749999999999993311 ) ) ;
#543 = EDGE_CURVE ( 'NONE', #279, #127, #605, .T. ) ;
#544 = DIRECTION ( 'NONE',  ( -1.000000000000000000, -1.893440894737248225E-17, 0.000000000000000000 ) ) ;
#545 = ORIENTED_EDGE ( 'NONE', *, *, #30, .F. ) ;
#546 = DIRECTION ( 'NONE',  ( -1.000000000000000000, -1.893440894737248225E-17, -0.000000000000000000 ) ) ;
#547 = EDGE_CURVE ( 'NONE', #569, #135, #22, .T. ) ;
#548 = DIRECTION ( 'NONE',  ( 1.000000000000000000, -0.000000000000000000, -0.000000000000000000 ) ) ;
#549 = ORIENTED_EDGE ( 'NONE', *, *, #410, .T. ) ;
#550 = DIRECTION ( 'NONE',  ( 1.000000000000000000, 0.000000000000000000, 0.000000000000000000 ) ) ;
#551 = DIRECTION ( 'NONE',  ( 0.000000000000000000, -0.000000000000000000, -1.000000000000000000 ) ) ;
#552 = ORIENTED_EDGE ( 'NONE', *, *, #464, .T. ) ;
#553 = DIRECTION ( 'NONE',  ( -0.000000000000000000, -0.000000000000000000, -1.000000000000000000 ) ) ;
#554 = AXIS2_PLACEMENT_3D ( 'NONE', #286, #374, #378 ) ;
#555 = AXIS2_PLACEMENT_3D ( 'NONE', #242, #544, #145 ) ;
#556 = DIRECTION ( 'NONE',  ( -1.000000000000000000, -1.893440894737248225E-17, 0.000000000000000000 ) ) ;
#557 = EDGE_LOOP ( 'NONE', ( #356, #400, #367, #480 ) ) ;
#558 = ADVANCED_FACE ( 'NONE', ( #246 ), #349, .F. ) ;
#559 = PERSON_AND_ORGANIZATION_ROLE ( 'design_supplier' ) ;
#560 = CYLINDRICAL_SURFACE ( 'NONE', #243, 0.2200000000000000011 ) ;
#561 = EDGE_LOOP ( 'NONE', ( #155, #501, #14, #532 ) ) ;
#562 = DIRECTION ( 'NONE',  ( 0.000000000000000000, 0.000000000000000000, 1.000000000000000000 ) ) ;
#563 = CARTESIAN_POINT ( 'NONE',  ( -0.005811036360114604261, 0.1553299553085998874, 0.1300000000000000877 ) ) ;
#564 = DIRECTION ( 'NONE',  ( 0.000000000000000000, 0.000000000000000000, 1.000000000000000000 ) ) ;
#565 = LENGTH_MEASURE_WITH_UNIT ( LENGTH_MEASURE( 0.02539999999999999897 ), #418 );
#566 = ADVANCED_FACE ( 'NONE', ( #447 ), #408, .F. ) ;
#567 = VECTOR ( 'NONE', #153, 39.37007874015748143 ) ;
#568 = AXIS2_PLACEMENT_3D ( 'NONE', #74, #359, #214 ) ;
#569 = VERTEX_POINT ( 'NONE', #459 ) ;
#570 = MECHANICAL_CONTEXT ( 'NONE', #537, 'mechanical' ) ;
#571 = DIRECTION ( 'NONE',  ( -1.000000000000000000, -1.893440894737248225E-17, -0.000000000000000000 ) ) ;
#572 = APPROVAL_ROLE ( '' ) ;
#573 = CARTESIAN_POINT ( 'NONE',  ( -0.005811036360114607731, 0.3428299553085999429, 0.1300000000000000877 ) ) ;
#574 = VERTEX_POINT ( 'NONE', #158 ) ;
#575 = CARTESIAN_POINT ( 'NONE',  ( -0.1820610363601145587, 0.4659898659257996623, -0.1300000000000000044 ) ) ;
#576 = CIRCLE ( 'NONE', #371, 0.1875000000000000278 ) ;
#577 = CIRCLE ( 'NONE', #318, 0.1250000000000000000 ) ;
#578 = DIRECTION ( 'NONE',  ( 0.000000000000000000, 0.000000000000000000, -1.000000000000000000 ) ) ;
#579 = LOCAL_TIME ( 22, 50, 38.00000000000000000, #615 ) ;
#580 = APPROVAL ( #159, 'UNSPECIFIED' ) ;
#581 = AXIS2_PLACEMENT_3D ( 'NONE', #2, #390, #551 ) ;
#582 = EDGE_CURVE ( 'NONE', #135, #19, #397, .T. ) ;
#583 = FACE_BOUND ( 'NONE', #200, .T. ) ;
#584 = EDGE_LOOP ( 'NONE', ( #92, #287, #379, #601 ) ) ;
#585 = DIRECTION ( 'NONE',  ( 1.000000000000000000, 0.000000000000000000, 0.000000000000000000 ) ) ;
#586 = ORIENTED_EDGE ( 'NONE', *, *, #587, .F. ) ;
#587 = EDGE_CURVE ( 'NONE', #511, #539, #609, .T. ) ;
#588 = VECTOR ( 'NONE', #553, 39.37007874015748143 ) ;
#589 = VERTEX_POINT ( 'NONE', #355 ) ;
#590 = CYLINDRICAL_SURFACE ( 'NONE', #123, 0.1250000000000000000 ) ;
#591 = DIRECTION ( 'NONE',  ( 0.000000000000000000, 0.000000000000000000, -1.000000000000000000 ) ) ;
#592 = LINE ( 'NONE', #606, #625 ) ;
#593 = ADVANCED_FACE ( 'NONE', ( #343 ), #358, .F. ) ;
#594 = VERTEX_POINT ( 'NONE', #306 ) ;
#595 = DIRECTION ( 'NONE',  ( 0.000000000000000000, 0.000000000000000000, -1.000000000000000000 ) ) ;
#596 = EDGE_LOOP ( 'NONE', ( #271, #17, #152, #203 ) ) ;
#597 = AXIS2_PLACEMENT_3D ( 'NONE', #347, #556, #297 ) ;
#598 = AXIS2_PLACEMENT_3D ( 'NONE', #563, #295, #497 ) ;
#599 = CARTESIAN_POINT ( 'NONE',  ( -0.1820610363601145587, -0.1553299553085998874, -0.1300000000000000044 ) ) ;
#600 = PLANE ( 'NONE',  #555 ) ;
#601 = ORIENTED_EDGE ( 'NONE', *, *, #263, .T. ) ;
#602 = DIRECTION ( 'NONE',  ( 1.707404996040164203E-17, -1.000000000000000000, 0.000000000000000000 ) ) ;
#603 = FACE_OUTER_BOUND ( 'NONE', #34, .T. ) ;
#604 = VERTEX_POINT ( 'NONE', #112 ) ;
#605 = LINE ( 'NONE', #405, #117 ) ;
#606 = CARTESIAN_POINT ( 'NONE',  ( -0.1820610363601145587, 0.4659898659257996623, 0.3900000000000000133 ) ) ;
#607 = ADVANCED_FACE ( 'NONE', ( #8 ), #560, .F. ) ;
#608 = VERTEX_POINT ( 'NONE', #396 ) ;
#609 = LINE ( 'NONE', #62, #567 ) ;
#610 = VECTOR ( 'NONE', #521, 39.37007874015748143 ) ;
#611 = VECTOR ( 'NONE', #226, 39.37007874015748143 ) ;
#612 = ORIENTED_EDGE ( 'NONE', *, *, #543, .F. ) ;
#613 = APPLICATION_PROTOCOL_DEFINITION ( 'international standard', 'config_control_design', 1994, #510 ) ;
#614 = DIRECTION ( 'NONE',  ( 1.000000000000000000, -0.000000000000000000, -0.000000000000000000 ) ) ;
#615 = COORDINATED_UNIVERSAL_TIME_OFFSET ( 6, 0, .BEHIND. ) ;
#616 = CC_DESIGN_PERSON_AND_ORGANIZATION_ASSIGNMENT ( #311, #519, ( #171 ) ) ;
#617 = ORIENTED_EDGE ( 'NONE', *, *, #517, .F. ) ;
#618 = ADVANCED_FACE ( 'NONE', ( #451 ), #212, .T. ) ;
#619 = DIRECTION ( 'NONE',  ( 1.000000000000000000, -0.000000000000000000, -0.000000000000000000 ) ) ;
#620 = EDGE_LOOP ( 'NONE', ( #545, #301 ) ) ;
#621 = PERSON_AND_ORGANIZATION_ROLE ( 'creator' ) ;
#622 = DIRECTION ( 'NONE',  ( 0.000000000000000000, 1.000000000000000000, 0.000000000000000000 ) ) ;
#623 = EDGE_CURVE ( 'NONE', #438, #197, #182, .T. ) ;
#624 = CYLINDRICAL_SURFACE ( 'NONE', #207, 0.1875000000000000278 ) ;
#625 = VECTOR ( 'NONE', #285, 39.37007874015748143 ) ;
#626 = VECTOR ( 'NONE', #548, 39.37007874015748143 ) ;
#627 = AXIS2_PLACEMENT_3D ( 'NONE', #293, #9, #238 ) ;
#628 = SHAPE_DEFINITION_REPRESENTATION ( #508, #426 ) ;
#629 = PLANE ( 'NONE',  #540 ) ;
#630 = EDGE_LOOP ( 'NONE', ( #61, #505, #108, #36 ) ) ;
#631 = CARTESIAN_POINT ( 'NONE',  ( -0.1620610363601146242, 0.1553299553085998874, 0.1300000000000000877 ) ) ;
#632 = DIRECTION ( 'NONE',  ( 1.893440894737248842E-17, -1.000000000000000000, -0.000000000000000000 ) ) ;
#633 = ORIENTED_EDGE ( 'NONE', *, *, #502, .T. ) ;
#634 = VECTOR ( 'NONE', #571, 39.37007874015748143 ) ;
ENDSEC;
END-ISO-10303-21;
