ISO-10303-21;
HEADER;
FILE_DESCRIPTION (( 'STEP AP203' ),
    '1' );
FILE_NAME ('Main fork cylinder -002_Default_sldprt.STEP',
    '2025-03-08T04:50:35',
    ( '' ),
    ( '' ),
    'SwSTEP 2.0',
    'SolidWorks 2024',
    '' );
FILE_SCHEMA (( 'CONFIG_CONTROL_DESIGN' ));
ENDSEC;

DATA;
#1 = AXIS2_PLACEMENT_3D ( 'NONE', #75, #16, #187 ) ;
#2 = APPROVAL_PERSON_ORGANIZATION ( #157, #167, #212 ) ;
#3 = APPROVAL_DATE_TIME ( #23, #79 ) ;
#4 = APPROVAL_STATUS ( 'not_yet_approved' ) ;
#5 = EDGE_CURVE ( 'NONE', #160, #6, #120, .T. ) ;
#6 = VERTEX_POINT ( 'NONE', #30 ) ;
#7 = ORIENTED_EDGE ( 'NONE', *, *, #108, .F. ) ;
#8 = APPLICATION_CONTEXT ( 'configuration controlled 3d designs of mechanical parts and assemblies' ) ;
#9 = ORIENTED_EDGE ( 'NONE', *, *, #24, .T. ) ;
#10 = CARTESIAN_POINT ( 'NONE',  ( 2.523667114699858924E-18, 0.000000000000000000, 0.3899999999999999578 ) ) ;
#11 = DIRECTION ( 'NONE',  ( 0.000000000000000000, 0.000000000000000000, 1.000000000000000000 ) ) ;
#12 = CYLINDRICAL_SURFACE ( 'NONE', #31, 0.2300000000000000100 ) ;
#13 = PERSON ( 'UNSPECIFIED', 'UNSPECIFIED', 'UNSPECIFIED', ('UNSPECIFIED'), ('UNSPECIFIED'), ('UNSPECIFIED') ) ;
#14 = DIRECTION ( 'NONE',  ( -0.000000000000000000, -0.000000000000000000, -1.000000000000000000 ) ) ;
#15 = LOCAL_TIME ( 22, 50, 35.00000000000000000, #174 ) ;
#16 = DIRECTION ( 'NONE',  ( -0.000000000000000000, -0.000000000000000000, -1.000000000000000000 ) ) ;
#17 = CARTESIAN_POINT ( 'NONE',  ( -0.2300000000000000100, 0.000000000000000000, -0.1300000000000000044 ) ) ;
#18 = PERSON_AND_ORGANIZATION ( #13, #172 ) ;
#19 = CALENDAR_DATE ( 2025, 7, 3 ) ;
#20 = CC_DESIGN_PERSON_AND_ORGANIZATION_ASSIGNMENT ( #232, #138, ( #45 ) ) ;
#21 = PERSON_AND_ORGANIZATION ( #13, #172 ) ;
#22 = COORDINATED_UNIVERSAL_TIME_OFFSET ( 6, 0, .BEHIND. ) ;
#23 = DATE_AND_TIME ( #101, #142 ) ;
#24 = EDGE_CURVE ( 'NONE', #90, #159, #245, .T. ) ;
#25 = ORIENTED_EDGE ( 'NONE', *, *, #118, .F. ) ;
#26 = AXIS2_PLACEMENT_3D ( 'NONE', #143, #42, #88 ) ;
#27 = SECURITY_CLASSIFICATION ( '', '', #123 ) ;
#28 = VERTEX_POINT ( 'NONE', #43 ) ;
#29 = ADVANCED_FACE ( 'NONE', ( #221, #128 ), #162, .F. ) ;
#30 = CARTESIAN_POINT ( 'NONE',  ( -0.2300000000000000100, 0.000000000000000000, 0.3899999999999999578 ) ) ;
#31 = AXIS2_PLACEMENT_3D ( 'NONE', #74, #14, #227 ) ;
#32 = FACE_OUTER_BOUND ( 'NONE', #65, .T. ) ;
#33 = DIRECTION ( 'NONE',  ( 1.000000000000000000, 0.000000000000000000, 0.000000000000000000 ) ) ;
#34 = DIRECTION ( 'NONE',  ( -0.000000000000000000, -0.000000000000000000, -1.000000000000000000 ) ) ;
#35 = LINE ( 'NONE', #208, #200 ) ;
#36 = CC_DESIGN_APPROVAL ( #79, ( #27 ) ) ;
#37 = DIRECTION ( 'NONE',  ( 1.000000000000000000, 0.000000000000000000, 0.000000000000000000 ) ) ;
#38 = PERSON_AND_ORGANIZATION_ROLE ( 'design_owner' ) ;
#39 = PERSON_AND_ORGANIZATION_ROLE ( 'classification_officer' ) ;
#40 = CC_DESIGN_APPROVAL ( #139, ( #231 ) ) ;
#41 = COORDINATED_UNIVERSAL_TIME_OFFSET ( 6, 0, .BEHIND. ) ;
#42 = DIRECTION ( 'NONE',  ( 0.000000000000000000, 0.000000000000000000, 1.000000000000000000 ) ) ;
#43 = CARTESIAN_POINT ( 'NONE',  ( -0.09736641022260979217, 0.000000000000000000, -0.1300000000000000044 ) ) ;
#44 = CC_DESIGN_PERSON_AND_ORGANIZATION_ASSIGNMENT ( #61, #141, ( #45 ) ) ;
#45 = PRODUCT_DEFINITION_FORMATION_WITH_SPECIFIED_SOURCE ( 'ANY', '', #171, .NOT_KNOWN. ) ;
#46 = DIRECTION ( 'NONE',  ( 0.000000000000000000, 0.000000000000000000, 1.000000000000000000 ) ) ;
#47 = SHAPE_DEFINITION_REPRESENTATION ( #250, #122 ) ;
#48 = DIMENSIONAL_EXPONENTS ( 1.000000000000000000, 0.000000000000000000, 0.000000000000000000, 0.000000000000000000, 0.000000000000000000, 0.000000000000000000, 0.000000000000000000 ) ;
#49 = ORIENTED_EDGE ( 'NONE', *, *, #233, .F. ) ;
#50 = ORIENTED_EDGE ( 'NONE', *, *, #237, .T. ) ;
#51 = ADVANCED_FACE ( 'NONE', ( #109 ), #182, .F. ) ;
#52 = DIRECTION ( 'NONE',  ( 1.000000000000000000, 0.000000000000000000, 0.000000000000000000 ) ) ;
#53 =( LENGTH_UNIT ( ) NAMED_UNIT ( * ) SI_UNIT ( $, .METRE. ) );
#54 = CARTESIAN_POINT ( 'NONE',  ( 0.2300000000000000100, 2.816687638038911686E-17, 0.3899999999999999578 ) ) ;
#55 = CARTESIAN_POINT ( 'NONE',  ( 0.09736641022260979217, 1.192394626235871818E-17, -0.1300000000000000044 ) ) ;
#56 = AXIS2_PLACEMENT_3D ( 'NONE', #247, #230, #52 ) ;
#57 = CARTESIAN_POINT ( 'NONE',  ( 0.2300000000000000100, 2.816687638038911686E-17, -0.1300000000000000044 ) ) ;
#58 = CALENDAR_DATE ( 2025, 7, 3 ) ;
#59 = VECTOR ( 'NONE', #246, 39.37007874015748143 ) ;
#60 = PERSON_AND_ORGANIZATION ( #13, #172 ) ;
#61 = PERSON_AND_ORGANIZATION ( #13, #172 ) ;
#62 = APPROVAL_ROLE ( '' ) ;
#63 = AXIS2_PLACEMENT_3D ( 'NONE', #150, #133, #76 ) ;
#64 = MANIFOLD_SOLID_BREP ( 'Scale1', #209 ) ;
#65 = EDGE_LOOP ( 'NONE', ( #243, #204 ) ) ;
#66 = EDGE_CURVE ( 'NONE', #6, #160, #249, .T. ) ;
#67 = VERTEX_POINT ( 'NONE', #72 ) ;
#68 = EDGE_LOOP ( 'NONE', ( #105, #218, #148, #70 ) ) ;
#69 = APPROVAL_PERSON_ORGANIZATION ( #21, #79, #140 ) ;
#70 = ORIENTED_EDGE ( 'NONE', *, *, #158, .T. ) ;
#71 = EDGE_CURVE ( 'NONE', #67, #28, #35, .T. ) ;
#72 = CARTESIAN_POINT ( 'NONE',  ( -0.09736641022260979217, 0.000000000000000000, 0.3899999999999999578 ) ) ;
#73 = LOCAL_TIME ( 22, 50, 35.00000000000000000, #41 ) ;
#74 = CARTESIAN_POINT ( 'NONE',  ( 2.523667114699858924E-18, 0.000000000000000000, 0.3899999999999999578 ) ) ;
#75 = CARTESIAN_POINT ( 'NONE',  ( 2.523667114699858924E-18, 0.000000000000000000, 0.3899999999999999578 ) ) ;
#76 = DIRECTION ( 'NONE',  ( -1.000000000000000000, 0.000000000000000000, 0.000000000000000000 ) ) ;
#77 = CYLINDRICAL_SURFACE ( 'NONE', #163, 0.2300000000000000100 ) ;
#78 =( NAMED_UNIT ( * ) SI_UNIT ( $, .STERADIAN. ) SOLID_ANGLE_UNIT ( ) );
#79 = APPROVAL ( #99, 'UNSPECIFIED' ) ;
#80 = DATE_TIME_ROLE ( 'creation_date' ) ;
#81 = AXIS2_PLACEMENT_3D ( 'NONE', #111, #91, #185 ) ;
#82 = CALENDAR_DATE ( 2025, 7, 3 ) ;
#83 = DATE_AND_TIME ( #97, #15 ) ;
#84 = EDGE_LOOP ( 'NONE', ( #144, #179, #87, #180 ) ) ;
#85 = ADVANCED_FACE ( 'NONE', ( #116 ), #153, .F. ) ;
#86 = VERTEX_POINT ( 'NONE', #190 ) ;
#87 = ORIENTED_EDGE ( 'NONE', *, *, #71, .T. ) ;
#88 = DIRECTION ( 'NONE',  ( 1.000000000000000000, 0.000000000000000000, 0.000000000000000000 ) ) ;
#89 = AXIS2_PLACEMENT_3D ( 'NONE', #134, #166, #94 ) ;
#90 = VERTEX_POINT ( 'NONE', #57 ) ;
#91 = DIRECTION ( 'NONE',  ( 0.000000000000000000, 0.000000000000000000, 1.000000000000000000 ) ) ;
#92 = DIRECTION ( 'NONE',  ( -0.000000000000000000, -0.000000000000000000, -1.000000000000000000 ) ) ;
#93 = VECTOR ( 'NONE', #184, 39.37007874015748143 ) ;
#94 = DIRECTION ( 'NONE',  ( 1.000000000000000000, 0.000000000000000000, 0.000000000000000000 ) ) ;
#95 = FACE_OUTER_BOUND ( 'NONE', #68, .T. ) ;
#96 = CARTESIAN_POINT ( 'NONE',  ( 2.523667114699858924E-18, 0.000000000000000000, 0.3899999999999999578 ) ) ;
#97 = CALENDAR_DATE ( 2025, 7, 3 ) ;
#98 = PERSON_AND_ORGANIZATION ( #13, #172 ) ;
#99 = APPROVAL_STATUS ( 'not_yet_approved' ) ;
#100 = ADVANCED_FACE ( 'NONE', ( #168 ), #77, .T. ) ;
#101 = CALENDAR_DATE ( 2025, 7, 3 ) ;
#102 = AXIS2_PLACEMENT_3D ( 'NONE', #124, #154, #175 ) ;
#103 = EDGE_LOOP ( 'NONE', ( #25, #49 ) ) ;
#104 = AXIS2_PLACEMENT_3D ( 'NONE', #10, #219, #130 ) ;
#105 = ORIENTED_EDGE ( 'NONE', *, *, #136, .F. ) ;
#106 =( GEOMETRIC_REPRESENTATION_CONTEXT ( 3 ) GLOBAL_UNCERTAINTY_ASSIGNED_CONTEXT ( ( #186 ) ) GLOBAL_UNIT_ASSIGNED_CONTEXT ( ( #235, #156, #78 ) ) REPRESENTATION_CONTEXT ( 'NONE', 'WORKASPACE' ) );
#107 = EDGE_LOOP ( 'NONE', ( #201, #222, #9, #7 ) ) ;
#108 = EDGE_CURVE ( 'NONE', #6, #159, #248, .T. ) ;
#109 = FACE_OUTER_BOUND ( 'NONE', #199, .T. ) ;
#110 = CC_DESIGN_APPROVAL ( #167, ( #45 ) ) ;
#111 = CARTESIAN_POINT ( 'NONE',  ( 2.523667114699858924E-18, 0.000000000000000000, -0.1300000000000000044 ) ) ;
#112 = PLANE ( 'NONE',  #205 ) ;
#113 = ADVANCED_FACE ( 'NONE', ( #95 ), #12, .T. ) ;
#114 = DIRECTION ( 'NONE',  ( 0.000000000000000000, 0.000000000000000000, 1.000000000000000000 ) ) ;
#115 = AXIS2_PLACEMENT_3D ( 'NONE', #165, #149, #33 ) ;
#116 = FACE_OUTER_BOUND ( 'NONE', #84, .T. ) ;
#117 = DIRECTION ( 'NONE',  ( -1.000000000000000000, 0.000000000000000000, 0.000000000000000000 ) ) ;
#118 = EDGE_CURVE ( 'NONE', #67, #86, #183, .T. ) ;
#119 = LENGTH_MEASURE_WITH_UNIT ( LENGTH_MEASURE( 0.02539999999999999897 ), #53 );
#120 = CIRCLE ( 'NONE', #104, 0.2300000000000000100 ) ;
#121 = APPROVAL_DATE_TIME ( #125, #139 ) ;
#122 = ADVANCED_BREP_SHAPE_REPRESENTATION ( 'Main fork cylinder -002_Default_sldprt', ( #64, #102 ), #106 ) ;
#123 = SECURITY_CLASSIFICATION_LEVEL ( 'unclassified' ) ;
#124 = CARTESIAN_POINT ( 'NONE',  ( 0.000000000000000000, 0.000000000000000000, 0.000000000000000000 ) ) ;
#125 = DATE_AND_TIME ( #82, #146 ) ;
#126 = DESIGN_CONTEXT ( 'detailed design', #8, 'design' ) ;
#127 = CC_DESIGN_DATE_AND_TIME_ASSIGNMENT ( #195, #155, ( #27 ) ) ;
#128 = FACE_BOUND ( 'NONE', #131, .T. ) ;
#129 = DIRECTION ( 'NONE',  ( 1.000000000000000000, 0.000000000000000000, -0.000000000000000000 ) ) ;
#130 = DIRECTION ( 'NONE',  ( 1.000000000000000000, 0.000000000000000000, 0.000000000000000000 ) ) ;
#131 = EDGE_LOOP ( 'NONE', ( #238, #50 ) ) ;
#132 = CARTESIAN_POINT ( 'NONE',  ( 2.523667114699858924E-18, 0.000000000000000000, 0.3899999999999999578 ) ) ;
#133 = DIRECTION ( 'NONE',  ( -0.000000000000000000, -0.000000000000000000, -1.000000000000000000 ) ) ;
#134 = CARTESIAN_POINT ( 'NONE',  ( 2.523667114699858924E-18, 0.000000000000000000, 0.3899999999999999578 ) ) ;
#135 = LINE ( 'NONE', #54, #59 ) ;
#136 = EDGE_CURVE ( 'NONE', #160, #90, #135, .T. ) ;
#137 = CARTESIAN_POINT ( 'NONE',  ( -0.2300000000000000100, 0.000000000000000000, 0.3899999999999999578 ) ) ;
#138 = PERSON_AND_ORGANIZATION_ROLE ( 'creator' ) ;
#139 = APPROVAL ( #215, 'UNSPECIFIED' ) ;
#140 = APPROVAL_ROLE ( '' ) ;
#141 = PERSON_AND_ORGANIZATION_ROLE ( 'design_supplier' ) ;
#142 = LOCAL_TIME ( 22, 50, 35.00000000000000000, #22 ) ;
#143 = CARTESIAN_POINT ( 'NONE',  ( 2.523667114699858924E-18, 0.000000000000000000, -0.1300000000000000044 ) ) ;
#144 = ORIENTED_EDGE ( 'NONE', *, *, #216, .F. ) ;
#145 = ORIENTED_EDGE ( 'NONE', *, *, #223, .F. ) ;
#146 = LOCAL_TIME ( 22, 50, 35.00000000000000000, #173 ) ;
#147 = ORIENTED_EDGE ( 'NONE', *, *, #24, .F. ) ;
#148 = ORIENTED_EDGE ( 'NONE', *, *, #108, .T. ) ;
#149 = DIRECTION ( 'NONE',  ( 0.000000000000000000, 0.000000000000000000, 1.000000000000000000 ) ) ;
#150 = CARTESIAN_POINT ( 'NONE',  ( 2.523667114699858924E-18, 0.000000000000000000, 0.3899999999999999578 ) ) ;
#151 = DIRECTION ( 'NONE',  ( 0.000000000000000000, 0.000000000000000000, 1.000000000000000000 ) ) ;
#152 = APPROVAL_PERSON_ORGANIZATION ( #196, #139, #62 ) ;
#153 = CYLINDRICAL_SURFACE ( 'NONE', #1, 0.09736641022260979217 ) ;
#154 = DIRECTION ( 'NONE',  ( 0.000000000000000000, 0.000000000000000000, 1.000000000000000000 ) ) ;
#155 = DATE_TIME_ROLE ( 'classification_date' ) ;
#156 =( NAMED_UNIT ( * ) PLANE_ANGLE_UNIT ( ) SI_UNIT ( $, .RADIAN. ) );
#157 = PERSON_AND_ORGANIZATION ( #13, #172 ) ;
#158 = EDGE_CURVE ( 'NONE', #159, #90, #217, .T. ) ;
#159 = VERTEX_POINT ( 'NONE', #17 ) ;
#160 = VERTEX_POINT ( 'NONE', #244 ) ;
#161 = PRODUCT_RELATED_PRODUCT_CATEGORY ( 'detail', '', ( #171 ) ) ;
#162 = PLANE ( 'NONE',  #188 ) ;
#163 = AXIS2_PLACEMENT_3D ( 'NONE', #206, #34, #117 ) ;
#164 = ORIENTED_EDGE ( 'NONE', *, *, #216, .T. ) ;
#165 = CARTESIAN_POINT ( 'NONE',  ( 2.523667114699858924E-18, 0.000000000000000000, -0.1300000000000000044 ) ) ;
#166 = DIRECTION ( 'NONE',  ( 0.000000000000000000, 0.000000000000000000, 1.000000000000000000 ) ) ;
#167 = APPROVAL ( #4, 'UNSPECIFIED' ) ;
#168 = FACE_OUTER_BOUND ( 'NONE', #107, .T. ) ;
#169 = DIRECTION ( 'NONE',  ( 1.000000000000000000, 0.000000000000000000, 0.000000000000000000 ) ) ;
#170 = VECTOR ( 'NONE', #191, 39.37007874015748143 ) ;
#171 = PRODUCT ( 'Main fork cylinder -002_Default_sldprt', 'Main fork cylinder -002_Default_sldprt', '', ( #198 ) ) ;
#172 = ORGANIZATION ( 'UNSPECIFIED', 'UNSPECIFIED', '' ) ;
#173 = COORDINATED_UNIVERSAL_TIME_OFFSET ( 6, 0, .BEHIND. ) ;
#174 = COORDINATED_UNIVERSAL_TIME_OFFSET ( 6, 0, .BEHIND. ) ;
#175 = DIRECTION ( 'NONE',  ( 1.000000000000000000, 0.000000000000000000, 0.000000000000000000 ) ) ;
#176 = ADVANCED_FACE ( 'NONE', ( #32, #226 ), #112, .T. ) ;
#177 = APPLICATION_CONTEXT ( 'configuration controlled 3d designs of mechanical parts and assemblies' ) ;
#178 = EDGE_LOOP ( 'NONE', ( #203, #147 ) ) ;
#179 = ORIENTED_EDGE ( 'NONE', *, *, #233, .T. ) ;
#180 = ORIENTED_EDGE ( 'NONE', *, *, #237, .F. ) ;
#181 = ORIENTED_EDGE ( 'NONE', *, *, #118, .T. ) ;
#182 = CYLINDRICAL_SURFACE ( 'NONE', #63, 0.09736641022260979217 ) ;
#183 = CIRCLE ( 'NONE', #89, 0.09736641022260979217 ) ;
#184 = DIRECTION ( 'NONE',  ( -0.000000000000000000, -0.000000000000000000, -1.000000000000000000 ) ) ;
#185 = DIRECTION ( 'NONE',  ( 1.000000000000000000, 0.000000000000000000, 0.000000000000000000 ) ) ;
#186 = UNCERTAINTY_MEASURE_WITH_UNIT (LENGTH_MEASURE( 1.000000000000000082E-05 ), #235, 'distance_accuracy_value', 'NONE');
#187 = DIRECTION ( 'NONE',  ( -1.000000000000000000, 0.000000000000000000, 0.000000000000000000 ) ) ;
#188 = AXIS2_PLACEMENT_3D ( 'NONE', #239, #46, #129 ) ;
#189 = CC_DESIGN_PERSON_AND_ORGANIZATION_ASSIGNMENT ( #98, #38, ( #171 ) ) ;
#190 = CARTESIAN_POINT ( 'NONE',  ( 0.09736641022260979217, 1.192394626235871818E-17, 0.3899999999999999578 ) ) ;
#191 = DIRECTION ( 'NONE',  ( -0.000000000000000000, -0.000000000000000000, -1.000000000000000000 ) ) ;
#192 = APPLICATION_PROTOCOL_DEFINITION ( 'international standard', 'config_control_design', 1994, #177 ) ;
#193 = COORDINATED_UNIVERSAL_TIME_OFFSET ( 6, 0, .BEHIND. ) ;
#194 = CC_DESIGN_PERSON_AND_ORGANIZATION_ASSIGNMENT ( #60, #39, ( #27 ) ) ;
#195 = DATE_AND_TIME ( #19, #241 ) ;
#196 = PERSON_AND_ORGANIZATION ( #13, #172 ) ;
#197 = CIRCLE ( 'NONE', #81, 0.09736641022260979217 ) ;
#198 = MECHANICAL_CONTEXT ( 'NONE', #177, 'mechanical' ) ;
#199 = EDGE_LOOP ( 'NONE', ( #181, #164, #145, #236 ) ) ;
#200 = VECTOR ( 'NONE', #92, 39.37007874015748143 ) ;
#201 = ORIENTED_EDGE ( 'NONE', *, *, #5, .F. ) ;
#202 = VERTEX_POINT ( 'NONE', #55 ) ;
#203 = ORIENTED_EDGE ( 'NONE', *, *, #158, .F. ) ;
#204 = ORIENTED_EDGE ( 'NONE', *, *, #5, .T. ) ;
#205 = AXIS2_PLACEMENT_3D ( 'NONE', #132, #151, #228 ) ;
#206 = CARTESIAN_POINT ( 'NONE',  ( 2.523667114699858924E-18, 0.000000000000000000, 0.3899999999999999578 ) ) ;
#207 = CARTESIAN_POINT ( 'NONE',  ( 2.523667114699858924E-18, 0.000000000000000000, 0.3899999999999999578 ) ) ;
#208 = CARTESIAN_POINT ( 'NONE',  ( -0.09736641022260979217, 0.000000000000000000, 0.3899999999999999578 ) ) ;
#209 = CLOSED_SHELL ( 'NONE', ( #51, #100, #176, #29, #113, #85 ) ) ;
#210 = CC_DESIGN_SECURITY_CLASSIFICATION ( #27, ( #45 ) ) ;
#211 = CARTESIAN_POINT ( 'NONE',  ( 0.09736641022260979217, 1.192394626235871818E-17, 0.3899999999999999578 ) ) ;
#212 = APPROVAL_ROLE ( '' ) ;
#213 = CC_DESIGN_PERSON_AND_ORGANIZATION_ASSIGNMENT ( #18, #251, ( #231 ) ) ;
#214 = APPLICATION_PROTOCOL_DEFINITION ( 'international standard', 'config_control_design', 1994, #8 ) ;
#215 = APPROVAL_STATUS ( 'not_yet_approved' ) ;
#216 = EDGE_CURVE ( 'NONE', #86, #202, #224, .T. ) ;
#217 = CIRCLE ( 'NONE', #56, 0.2300000000000000100 ) ;
#218 = ORIENTED_EDGE ( 'NONE', *, *, #66, .F. ) ;
#219 = DIRECTION ( 'NONE',  ( 0.000000000000000000, 0.000000000000000000, 1.000000000000000000 ) ) ;
#220 = CIRCLE ( 'NONE', #115, 0.09736641022260979217 ) ;
#221 = FACE_OUTER_BOUND ( 'NONE', #178, .T. ) ;
#222 = ORIENTED_EDGE ( 'NONE', *, *, #136, .T. ) ;
#223 = EDGE_CURVE ( 'NONE', #28, #202, #197, .T. ) ;
#224 = LINE ( 'NONE', #211, #93 ) ;
#225 = CIRCLE ( 'NONE', #229, 0.09736641022260979217 ) ;
#226 = FACE_BOUND ( 'NONE', #103, .T. ) ;
#227 = DIRECTION ( 'NONE',  ( -1.000000000000000000, 0.000000000000000000, 0.000000000000000000 ) ) ;
#228 = DIRECTION ( 'NONE',  ( 1.000000000000000000, 0.000000000000000000, -0.000000000000000000 ) ) ;
#229 = AXIS2_PLACEMENT_3D ( 'NONE', #96, #11, #169 ) ;
#230 = DIRECTION ( 'NONE',  ( 0.000000000000000000, 0.000000000000000000, 1.000000000000000000 ) ) ;
#231 = PRODUCT_DEFINITION ( 'UNKNOWN', '', #45, #126 ) ;
#232 = PERSON_AND_ORGANIZATION ( #13, #172 ) ;
#233 = EDGE_CURVE ( 'NONE', #86, #67, #225, .T. ) ;
#234 = DATE_AND_TIME ( #58, #73 ) ;
#235 =( CONVERSION_BASED_UNIT ( 'INCH', #119 ) LENGTH_UNIT ( ) NAMED_UNIT ( #48 ) );
#236 = ORIENTED_EDGE ( 'NONE', *, *, #71, .F. ) ;
#237 = EDGE_CURVE ( 'NONE', #202, #28, #220, .T. ) ;
#238 = ORIENTED_EDGE ( 'NONE', *, *, #223, .T. ) ;
#239 = CARTESIAN_POINT ( 'NONE',  ( 2.523667114699858924E-18, 0.000000000000000000, -0.1300000000000000044 ) ) ;
#240 = AXIS2_PLACEMENT_3D ( 'NONE', #207, #114, #37 ) ;
#241 = LOCAL_TIME ( 22, 50, 35.00000000000000000, #193 ) ;
#242 = CC_DESIGN_DATE_AND_TIME_ASSIGNMENT ( #83, #80, ( #231 ) ) ;
#243 = ORIENTED_EDGE ( 'NONE', *, *, #66, .T. ) ;
#244 = CARTESIAN_POINT ( 'NONE',  ( 0.2300000000000000100, 2.816687638038911686E-17, 0.3899999999999999578 ) ) ;
#245 = CIRCLE ( 'NONE', #26, 0.2300000000000000100 ) ;
#246 = DIRECTION ( 'NONE',  ( -0.000000000000000000, -0.000000000000000000, -1.000000000000000000 ) ) ;
#247 = CARTESIAN_POINT ( 'NONE',  ( 2.523667114699858924E-18, 0.000000000000000000, -0.1300000000000000044 ) ) ;
#248 = LINE ( 'NONE', #137, #170 ) ;
#249 = CIRCLE ( 'NONE', #240, 0.2300000000000000100 ) ;
#250 = PRODUCT_DEFINITION_SHAPE ( 'NONE', 'NONE',  #231 ) ;
#251 = PERSON_AND_ORGANIZATION_ROLE ( 'creator' ) ;
#252 = APPROVAL_DATE_TIME ( #234, #167 ) ;
ENDSEC;
END-ISO-10303-21;
