ISO-10303-21;
HEADER;
FILE_DESCRIPTION (( 'STEP AP203' ),
    '1' );
FILE_NAME ('Main fork spherical receiver -004_Default_sldprt.STEP',
    '2025-03-08T04:50:40',
    ( '' ),
    ( '' ),
    'SwSTEP 2.0',
    'SolidWorks 2024',
    '' );
FILE_SCHEMA (( 'CONFIG_CONTROL_DESIGN' ));
ENDSEC;

DATA;
#1 = AXIS2_PLACEMENT_3D ( 'NONE', #307, #743, #181 ) ;
#2 = FACE_OUTER_BOUND ( 'NONE', #674, .T. ) ;
#3 = DIRECTION ( 'NONE',  ( 1.000000000000000000, 0.000000000000000000, 0.000000000000000000 ) ) ;
#4 = EDGE_LOOP ( 'NONE', ( #329, #535, #441, #777 ) ) ;
#5 = CC_DESIGN_SECURITY_CLASSIFICATION ( #16, ( #263 ) ) ;
#6 = DIRECTION ( 'NONE',  ( 1.000000000000000000, 0.000000000000000000, 0.000000000000000000 ) ) ;
#7 = ORIENTED_EDGE ( 'NONE', *, *, #236, .F. ) ;
#8 = DIRECTION ( 'NONE',  ( 1.000000000000000000, 0.000000000000000000, 0.000000000000000000 ) ) ;
#9 = VERTEX_POINT ( 'NONE', #737 ) ;
#10 = CC_DESIGN_PERSON_AND_ORGANIZATION_ASSIGNMENT ( #522, #98, ( #263 ) ) ;
#11 = AXIS2_PLACEMENT_3D ( 'NONE', #493, #683, #422 ) ;
#12 = DIRECTION ( 'NONE',  ( 1.000000000000000000, 0.000000000000000000, 0.000000000000000000 ) ) ;
#13 = ADVANCED_FACE ( 'NONE', ( #729, #671, #426, #351, #248 ), #733, .T. ) ;
#14 = CIRCLE ( 'NONE', #488, 0.05324999999999990158 ) ;
#15 = ORIENTED_EDGE ( 'NONE', *, *, #53, .F. ) ;
#16 = SECURITY_CLASSIFICATION ( '', '', #399 ) ;
#17 = PRODUCT_DEFINITION_SHAPE ( 'NONE', 'NONE',  #133 ) ;
#18 = FACE_OUTER_BOUND ( 'NONE', #784, .T. ) ;
#19 = EDGE_LOOP ( 'NONE', ( #332, #340, #611, #208 ) ) ;
#20 = CARTESIAN_POINT ( 'NONE',  ( 2.439411479329173460, 2.189649769329998108, 0.3900000000000000133 ) ) ;
#21 = CALENDAR_DATE ( 2025, 7, 3 ) ;
#22 = ORIENTED_EDGE ( 'NONE', *, *, #301, .F. ) ;
#23 = PERSON ( 'UNSPECIFIED', 'UNSPECIFIED', 'UNSPECIFIED', ('UNSPECIFIED'), ('UNSPECIFIED'), ('UNSPECIFIED') ) ;
#24 = EDGE_CURVE ( 'NONE', #283, #51, #746, .T. ) ;
#25 = AXIS2_PLACEMENT_3D ( 'NONE', #290, #612, #112 ) ;
#26 = CARTESIAN_POINT ( 'NONE',  ( 2.146161479329174337, 1.320559274156401841, -0.1299999999999999767 ) ) ;
#27 = VECTOR ( 'NONE', #256, 39.37007874015748143 ) ;
#28 = VECTOR ( 'NONE', #178, 39.37007874015748143 ) ;
#29 = ORIENTED_EDGE ( 'NONE', *, *, #585, .F. ) ;
#30 = DIRECTION ( 'NONE',  ( 1.000000000000000000, 0.000000000000000000, 0.000000000000000000 ) ) ;
#31 = ADVANCED_FACE ( 'NONE', ( #170 ), #605, .F. ) ;
#32 = ORIENTED_EDGE ( 'NONE', *, *, #670, .T. ) ;
#33 = AXIS2_PLACEMENT_3D ( 'NONE', #203, #255, #644 ) ;
#34 = DIRECTION ( 'NONE',  ( 0.000000000000000000, 1.000000000000000000, 0.000000000000000000 ) ) ;
#35 = APPROVAL_STATUS ( 'not_yet_approved' ) ;
#36 = EDGE_LOOP ( 'NONE', ( #563, #365 ) ) ;
#37 = CARTESIAN_POINT ( 'NONE',  ( 0.9994114793291738463, 1.949649769329954374, 0.3900000000000000133 ) ) ;
#38 = CALENDAR_DATE ( 2025, 7, 3 ) ;
#39 = ORIENTED_EDGE ( 'NONE', *, *, #480, .T. ) ;
#40 = DIRECTION ( 'NONE',  ( -1.000000000000000000, -7.805279981897896488E-15, 0.000000000000000000 ) ) ;
#41 = EDGE_CURVE ( 'NONE', #96, #807, #303, .T. ) ;
#42 = ORIENTED_EDGE ( 'NONE', *, *, #175, .T. ) ;
#43 = FACE_BOUND ( 'NONE', #148, .T. ) ;
#44 = DIMENSIONAL_EXPONENTS ( 1.000000000000000000, 0.000000000000000000, 0.000000000000000000, 0.000000000000000000, 0.000000000000000000, 0.000000000000000000, 0.000000000000000000 ) ;
#45 = AXIS2_PLACEMENT_3D ( 'NONE', #253, #323, #442 ) ;
#46 = CONICAL_SURFACE ( 'NONE', #33, 0.09399999999999987532, 0.8726646259971614361 ) ;
#47 = CARTESIAN_POINT ( 'NONE',  ( 2.146161479329174337, 1.949649769329954374, 0.3558066900295257518 ) ) ;
#48 = CARTESIAN_POINT ( 'NONE',  ( 0.9994114793291738463, 1.320559274156401841, 0.3900000000000000133 ) ) ;
#49 = ADVANCED_BREP_SHAPE_REPRESENTATION ( 'Main fork spherical receiver -004_Default_sldprt', ( #447, #254 ), #610 ) ;
#50 = ORIENTED_EDGE ( 'NONE', *, *, #732, .F. ) ;
#51 = VERTEX_POINT ( 'NONE', #668 ) ;
#52 = FACE_OUTER_BOUND ( 'NONE', #709, .T. ) ;
#53 = EDGE_CURVE ( 'NONE', #70, #241, #550, .T. ) ;
#54 = CARTESIAN_POINT ( 'NONE',  ( 1.052661479329173755, 1.949649769329954374, 0.3558066900295257518 ) ) ;
#55 = DIRECTION ( 'NONE',  ( 0.000000000000000000, 0.000000000000000000, 1.000000000000000000 ) ) ;
#56 = VECTOR ( 'NONE', #560, 39.37007874015748143 ) ;
#57 = CIRCLE ( 'NONE', #198, 0.09400000000000001410 ) ;
#58 = ORIENTED_EDGE ( 'NONE', *, *, #102, .F. ) ;
#59 = AXIS2_PLACEMENT_3D ( 'NONE', #62, #308, #355 ) ;
#60 = LINE ( 'NONE', #429, #95 ) ;
#61 = FACE_OUTER_BOUND ( 'NONE', #455, .T. ) ;
#62 = CARTESIAN_POINT ( 'NONE',  ( 2.199411479329174135, 1.949649769329954374, -0.1299999999999999767 ) ) ;
#63 = DIRECTION ( 'NONE',  ( -0.000000000000000000, -0.000000000000000000, 1.000000000000000000 ) ) ;
#64 = ADVANCED_FACE ( 'NONE', ( #804 ), #354, .F. ) ;
#65 = DIRECTION ( 'NONE',  ( -0.000000000000000000, -0.000000000000000000, 1.000000000000000000 ) ) ;
#66 = ORIENTED_EDGE ( 'NONE', *, *, #789, .F. ) ;
#67 = CIRCLE ( 'NONE', #131, 0.05324999999999976974 ) ;
#68 = LINE ( 'NONE', #757, #418 ) ;
#69 = LINE ( 'NONE', #316, #595 ) ;
#70 = VERTEX_POINT ( 'NONE', #244 ) ;
#71 = FACE_OUTER_BOUND ( 'NONE', #767, .T. ) ;
#72 = LENGTH_MEASURE_WITH_UNIT ( LENGTH_MEASURE( 0.02539999999999999897 ), #257 );
#73 = ADVANCED_FACE ( 'NONE', ( #801 ), #387, .F. ) ;
#74 = CYLINDRICAL_SURFACE ( 'NONE', #45, 0.05324999999999976974 ) ;
#75 = CARTESIAN_POINT ( 'NONE',  ( 2.199411479329174135, 1.949649769329954374, 0.3558066900295257518 ) ) ;
#76 = ORIENTED_EDGE ( 'NONE', *, *, #487, .T. ) ;
#77 = VECTOR ( 'NONE', #517, 39.37007874015748143 ) ;
#78 = CIRCLE ( 'NONE', #299, 0.09400000000000001410 ) ;
#79 = DIRECTION ( 'NONE',  ( -0.7660444431189759040, 9.381338752702706129E-17, 0.6427876096865419164 ) ) ;
#80 = ORIENTED_EDGE ( 'NONE', *, *, #756, .T. ) ;
#81 = LOCAL_TIME ( 22, 50, 40.00000000000000000, #649 ) ;
#82 = FACE_OUTER_BOUND ( 'NONE', #616, .T. ) ;
#83 = DATE_AND_TIME ( #776, #725 ) ;
#84 = ORIENTED_EDGE ( 'NONE', *, *, #313, .F. ) ;
#85 = EDGE_CURVE ( 'NONE', #600, #275, #459, .T. ) ;
#86 = DIRECTION ( 'NONE',  ( 1.000000000000000000, 0.000000000000000000, 0.000000000000000000 ) ) ;
#87 = ORIENTED_EDGE ( 'NONE', *, *, #175, .F. ) ;
#88 = VERTEX_POINT ( 'NONE', #47 ) ;
#89 = LINE ( 'NONE', #714, #501 ) ;
#90 = ADVANCED_FACE ( 'NONE', ( #552 ), #769, .F. ) ;
#91 = ORIENTED_EDGE ( 'NONE', *, *, #363, .T. ) ;
#92 = DIRECTION ( 'NONE',  ( 1.000000000000000000, 0.000000000000000000, 0.000000000000000000 ) ) ;
#93 = VERTEX_POINT ( 'NONE', #120 ) ;
#94 = PERSON_AND_ORGANIZATION_ROLE ( 'design_owner' ) ;
#95 = VECTOR ( 'NONE', #304, 39.37007874015748143 ) ;
#96 = VERTEX_POINT ( 'NONE', #54 ) ;
#97 = DIRECTION ( 'NONE',  ( -0.000000000000000000, -0.000000000000000000, 1.000000000000000000 ) ) ;
#98 = PERSON_AND_ORGANIZATION_ROLE ( 'creator' ) ;
#99 = VERTEX_POINT ( 'NONE', #795 ) ;
#100 = FACE_OUTER_BOUND ( 'NONE', #375, .T. ) ;
#101 = CC_DESIGN_PERSON_AND_ORGANIZATION_ASSIGNMENT ( #278, #274, ( #133 ) ) ;
#102 = EDGE_CURVE ( 'NONE', #751, #287, #311, .T. ) ;
#103 = DIRECTION ( 'NONE',  ( 1.000000000000000000, 0.000000000000000000, 0.000000000000000000 ) ) ;
#104 = ORIENTED_EDGE ( 'NONE', *, *, #554, .F. ) ;
#105 = DIRECTION ( 'NONE',  ( 0.000000000000000000, 0.000000000000000000, 1.000000000000000000 ) ) ;
#106 = DIRECTION ( 'NONE',  ( 0.000000000000000000, -1.000000000000000000, 0.000000000000000000 ) ) ;
#107 = CARTESIAN_POINT ( 'NONE',  ( 2.199411479329174135, 1.320559274156401841, 0.3900000000000000133 ) ) ;
#108 = VECTOR ( 'NONE', #187, 39.37007874015748143 ) ;
#109 = VECTOR ( 'NONE', #687, 39.37007874015748143 ) ;
#110 = CARTESIAN_POINT ( 'NONE',  ( 2.439411479329173460, 2.189649769329998108, 0.3900000000000000133 ) ) ;
#111 = LINE ( 'NONE', #796, #559 ) ;
#112 = DIRECTION ( 'NONE',  ( 1.000000000000000000, 0.000000000000000000, 0.000000000000000000 ) ) ;
#113 = CARTESIAN_POINT ( 'NONE',  ( 1.599411479329173380, 1.080559274156498217, 0.1299999999999999212 ) ) ;
#114 = ORIENTED_EDGE ( 'NONE', *, *, #358, .T. ) ;
#115 = CARTESIAN_POINT ( 'NONE',  ( 2.199411479329174135, 1.320559274156401841, 0.3900000000000000133 ) ) ;
#116 = ORIENTED_EDGE ( 'NONE', *, *, #243, .F. ) ;
#117 = CIRCLE ( 'NONE', #361, 0.09399999999999987532 ) ;
#118 = AXIS2_PLACEMENT_3D ( 'NONE', #357, #805, #684 ) ;
#119 = ADVANCED_FACE ( 'NONE', ( #61 ), #356, .F. ) ;
#120 = CARTESIAN_POINT ( 'NONE',  ( 2.439411479329173460, 2.189649769329998108, -0.1300000000000000044 ) ) ;
#121 = CARTESIAN_POINT ( 'NONE',  ( 2.293411479329173996, 1.949649769329954374, 0.3900000000000000133 ) ) ;
#122 = ORIENTED_EDGE ( 'NONE', *, *, #24, .T. ) ;
#123 = CC_DESIGN_PERSON_AND_ORGANIZATION_ASSIGNMENT ( #466, #780, ( #16 ) ) ;
#124 = CARTESIAN_POINT ( 'NONE',  ( 2.439411479329173460, 1.080559274156511318, 0.3900000000000000133 ) ) ;
#125 = DIRECTION ( 'NONE',  ( 1.000000000000000000, 0.000000000000000000, 0.000000000000000000 ) ) ;
#126 = ORIENTED_EDGE ( 'NONE', *, *, #554, .T. ) ;
#127 = PRODUCT ( 'Main fork spherical receiver -004_Default_sldprt', 'Main fork spherical receiver -004_Default_sldprt', '', ( #223 ) ) ;
#128 = CARTESIAN_POINT ( 'NONE',  ( 2.252661479329173932, 1.320559274156401841, 0.3900000000000000133 ) ) ;
#129 = DIRECTION ( 'NONE',  ( -0.000000000000000000, -0.000000000000000000, 1.000000000000000000 ) ) ;
#130 = VERTEX_POINT ( 'NONE', #636 ) ;
#131 = AXIS2_PLACEMENT_3D ( 'NONE', #638, #193, #8 ) ;
#132 = AXIS2_PLACEMENT_3D ( 'NONE', #341, #276, #536 ) ;
#133 = PRODUCT_DEFINITION ( 'UNKNOWN', '', #263, #586 ) ;
#134 = CARTESIAN_POINT ( 'NONE',  ( -1.599411479329171826, -1.635104521743250938, -0.1300000000000000044 ) ) ;
#135 = CARTESIAN_POINT ( 'NONE',  ( 0.9994114793291738463, 1.949649769329954374, 0.3558066900295257518 ) ) ;
#136 = ORIENTED_EDGE ( 'NONE', *, *, #800, .F. ) ;
#137 = EDGE_CURVE ( 'NONE', #296, #392, #571, .T. ) ;
#138 = DIRECTION ( 'NONE',  ( 1.000000000000000000, 0.000000000000000000, 0.000000000000000000 ) ) ;
#139 = FACE_OUTER_BOUND ( 'NONE', #518, .T. ) ;
#140 = VERTEX_POINT ( 'NONE', #580 ) ;
#141 = FACE_OUTER_BOUND ( 'NONE', #204, .T. ) ;
#142 = CARTESIAN_POINT ( 'NONE',  ( 1.052661479329173755, 1.949649769329954374, -0.1299999999999999767 ) ) ;
#143 = ORIENTED_EDGE ( 'NONE', *, *, #504, .T. ) ;
#144 = AXIS2_PLACEMENT_3D ( 'NONE', #176, #678, #415 ) ;
#145 = AXIS2_PLACEMENT_3D ( 'NONE', #20, #464, #269 ) ;
#146 = CARTESIAN_POINT ( 'NONE',  ( 2.439411479329173460, 2.189649769329998108, -0.1300000000000000044 ) ) ;
#147 =( NAMED_UNIT ( * ) SI_UNIT ( $, .STERADIAN. ) SOLID_ANGLE_UNIT ( ) );
#148 = EDGE_LOOP ( 'NONE', ( #718, #548 ) ) ;
#149 = CARTESIAN_POINT ( 'NONE',  ( 2.199411479329174135, 1.949649769329954374, 0.3900000000000000133 ) ) ;
#150 = APPROVAL_STATUS ( 'not_yet_approved' ) ;
#151 = ORIENTED_EDGE ( 'NONE', *, *, #390, .T. ) ;
#152 = DIRECTION ( 'NONE',  ( -0.7660444431189759040, 9.381338752702706129E-17, 0.6427876096865419164 ) ) ;
#153 = DIRECTION ( 'NONE',  ( 0.000000000000000000, -1.000000000000000000, 0.000000000000000000 ) ) ;
#154 = PERSON_AND_ORGANIZATION ( #23, #762 ) ;
#155 = ORIENTED_EDGE ( 'NONE', *, *, #800, .T. ) ;
#156 = CARTESIAN_POINT ( 'NONE',  ( 2.199411479329174135, 1.320559274156401841, 0.3900000000000000133 ) ) ;
#157 = CYLINDRICAL_SURFACE ( 'NONE', #723, 0.05324999999999990158 ) ;
#158 = AXIS2_PLACEMENT_3D ( 'NONE', #689, #63, #138 ) ;
#159 = APPROVAL_ROLE ( '' ) ;
#160 = CIRCLE ( 'NONE', #239, 0.1249999999999999167 ) ;
#161 = ORIENTED_EDGE ( 'NONE', *, *, #24, .F. ) ;
#162 = CARTESIAN_POINT ( 'NONE',  ( 1.599411479329173380, 1.080559274156498217, 0.1299999999999999212 ) ) ;
#163 = EDGE_CURVE ( 'NONE', #600, #345, #439, .T. ) ;
#164 = CIRCLE ( 'NONE', #622, 0.05325000000000004036 ) ;
#165 = DIRECTION ( 'NONE',  ( -0.000000000000000000, -0.000000000000000000, 1.000000000000000000 ) ) ;
#166 = ORIENTED_EDGE ( 'NONE', *, *, #531, .F. ) ;
#167 = FACE_BOUND ( 'NONE', #578, .T. ) ;
#168 = CARTESIAN_POINT ( 'NONE',  ( 0.7594114793291736332, 2.189649769329998108, 0.3900000000000000133 ) ) ;
#169 = CARTESIAN_POINT ( 'NONE',  ( 2.439411479329173460, 1.080559274156511318, -0.1300000000000000044 ) ) ;
#170 = FACE_OUTER_BOUND ( 'NONE', #4, .T. ) ;
#171 = LINE ( 'NONE', #741, #607 ) ;
#172 = ADVANCED_FACE ( 'NONE', ( #141 ), #693, .F. ) ;
#173 = AXIS2_PLACEMENT_3D ( 'NONE', #434, #360, #734 ) ;
#174 = LOCAL_TIME ( 22, 50, 40.00000000000000000, #726 ) ;
#175 = EDGE_CURVE ( 'NONE', #771, #51, #630, .T. ) ;
#176 = CARTESIAN_POINT ( 'NONE',  ( 0.9994114793291738463, 1.320559274156401841, 0.3558066900295257518 ) ) ;
#177 = DIRECTION ( 'NONE',  ( -0.000000000000000000, -0.000000000000000000, 1.000000000000000000 ) ) ;
#178 = DIRECTION ( 'NONE',  ( -0.000000000000000000, -0.000000000000000000, -1.000000000000000000 ) ) ;
#179 = ORIENTED_EDGE ( 'NONE', *, *, #370, .F. ) ;
#180 = DIRECTION ( 'NONE',  ( 1.000000000000000000, 0.000000000000000000, 0.000000000000000000 ) ) ;
#181 = DIRECTION ( 'NONE',  ( 1.000000000000000000, 0.000000000000000000, 0.000000000000000000 ) ) ;
#182 = LINE ( 'NONE', #295, #556 ) ;
#183 = ORIENTED_EDGE ( 'NONE', *, *, #313, .T. ) ;
#184 = ADVANCED_FACE ( 'NONE', ( #574, #314, #367, #753, #18 ), #433, .F. ) ;
#185 = CONICAL_SURFACE ( 'NONE', #799, 0.09399999999999987532, 0.8726646259971614361 ) ;
#186 = EDGE_CURVE ( 'NONE', #666, #806, #699, .T. ) ;
#187 = DIRECTION ( 'NONE',  ( -0.000000000000000000, 1.000000000000000000, -0.000000000000000000 ) ) ;
#188 = CIRCLE ( 'NONE', #59, 0.05324999999999976974 ) ;
#189 = DIRECTION ( 'NONE',  ( -0.000000000000000000, -0.000000000000000000, 1.000000000000000000 ) ) ;
#190 = CARTESIAN_POINT ( 'NONE',  ( 2.439411479329173460, 2.189649769329998108, 0.3900000000000000133 ) ) ;
#191 = VERTEX_POINT ( 'NONE', #376 ) ;
#192 = CC_DESIGN_DATE_AND_TIME_ASSIGNMENT ( #395, #331, ( #16 ) ) ;
#193 = DIRECTION ( 'NONE',  ( -0.000000000000000000, -0.000000000000000000, 1.000000000000000000 ) ) ;
#194 = EDGE_CURVE ( 'NONE', #70, #93, #378, .T. ) ;
#195 = CARTESIAN_POINT ( 'NONE',  ( 1.599411479329173380, 1.080559274156498217, 0.2549999999999998379 ) ) ;
#196 = ORIENTED_EDGE ( 'NONE', *, *, #598, .F. ) ;
#197 = AXIS2_PLACEMENT_3D ( 'NONE', #768, #711, #281 ) ;
#198 = AXIS2_PLACEMENT_3D ( 'NONE', #558, #189, #180 ) ;
#199 = DIRECTION ( 'NONE',  ( 1.000000000000000000, 7.805279981897896488E-15, 0.000000000000000000 ) ) ;
#200 = CARTESIAN_POINT ( 'NONE',  ( 2.146161479329174337, 1.949649769329954374, 0.3900000000000000133 ) ) ;
#201 = VECTOR ( 'NONE', #79, 39.37007874015748143 ) ;
#202 = DIRECTION ( 'NONE',  ( -0.000000000000000000, -0.000000000000000000, 1.000000000000000000 ) ) ;
#203 = CARTESIAN_POINT ( 'NONE',  ( 2.199411479329174135, 1.949649769329954374, 0.3900000000000000133 ) ) ;
#204 = EDGE_LOOP ( 'NONE', ( #161, #324, #39, #196 ) ) ;
#205 = ORIENTED_EDGE ( 'NONE', *, *, #792, .F. ) ;
#206 = APPLICATION_CONTEXT ( 'configuration controlled 3d designs of mechanical parts and assemblies' ) ;
#207 = CARTESIAN_POINT ( 'NONE',  ( 1.599411479329173380, 2.189649769329998108, 0.1299999999999999212 ) ) ;
#208 = ORIENTED_EDGE ( 'NONE', *, *, #301, .T. ) ;
#209 = EDGE_CURVE ( 'NONE', #806, #296, #68, .T. ) ;
#210 = ORIENTED_EDGE ( 'NONE', *, *, #717, .T. ) ;
#211 = AXIS2_PLACEMENT_3D ( 'NONE', #763, #202, #451 ) ;
#212 = DIRECTION ( 'NONE',  ( 1.000000000000000000, 0.000000000000000000, 0.000000000000000000 ) ) ;
#213 = DIRECTION ( 'NONE',  ( 0.000000000000000000, 0.000000000000000000, 1.000000000000000000 ) ) ;
#214 = ORIENTED_EDGE ( 'NONE', *, *, #370, .T. ) ;
#215 = DIRECTION ( 'NONE',  ( -0.000000000000000000, -0.000000000000000000, 1.000000000000000000 ) ) ;
#216 = CC_DESIGN_APPROVAL ( #562, ( #133 ) ) ;
#217 = LINE ( 'NONE', #146, #747 ) ;
#218 = APPROVAL_ROLE ( '' ) ;
#219 = EDGE_LOOP ( 'NONE', ( #485, #305 ) ) ;
#220 = CARTESIAN_POINT ( 'NONE',  ( 0.9994114793291738463, 1.949649769329954374, -0.1299999999999999767 ) ) ;
#221 = CC_DESIGN_PERSON_AND_ORGANIZATION_ASSIGNMENT ( #712, #94, ( #127 ) ) ;
#222 = PLANE ( 'NONE',  #145 ) ;
#223 = MECHANICAL_CONTEXT ( 'NONE', #641, 'mechanical' ) ;
#224 = EDGE_CURVE ( 'NONE', #751, #603, #384, .T. ) ;
#225 = ORIENTED_EDGE ( 'NONE', *, *, #670, .F. ) ;
#226 = FACE_OUTER_BOUND ( 'NONE', #235, .T. ) ;
#227 = APPROVAL_DATE_TIME ( #282, #521 ) ;
#228 = AXIS2_PLACEMENT_3D ( 'NONE', #220, #561, #245 ) ;
#229 = ORIENTED_EDGE ( 'NONE', *, *, #414, .F. ) ;
#230 = DIRECTION ( 'NONE',  ( -0.000000000000000000, -0.000000000000000000, 1.000000000000000000 ) ) ;
#231 = EDGE_LOOP ( 'NONE', ( #509, #229 ) ) ;
#232 = DIRECTION ( 'NONE',  ( 1.000000000000000000, 0.000000000000000000, 0.000000000000000000 ) ) ;
#233 = ORIENTED_EDGE ( 'NONE', *, *, #648, .T. ) ;
#234 = LINE ( 'NONE', #551, #389 ) ;
#235 = EDGE_LOOP ( 'NONE', ( #727, #584, #432, #637 ) ) ;
#236 = EDGE_CURVE ( 'NONE', #191, #645, #486, .T. ) ;
#237 = ORIENTED_EDGE ( 'NONE', *, *, #773, .F. ) ;
#238 = DIRECTION ( 'NONE',  ( -0.000000000000000000, -0.000000000000000000, 1.000000000000000000 ) ) ;
#239 = AXIS2_PLACEMENT_3D ( 'NONE', #162, #528, #105 ) ;
#240 = ORIENTED_EDGE ( 'NONE', *, *, #717, .F. ) ;
#241 = VERTEX_POINT ( 'NONE', #124 ) ;
#242 = DIRECTION ( 'NONE',  ( 0.000000000000000000, -1.000000000000000000, 0.000000000000000000 ) ) ;
#243 = EDGE_CURVE ( 'NONE', #275, #600, #67, .T. ) ;
#244 = CARTESIAN_POINT ( 'NONE',  ( 2.439411479329173460, 2.189649769329998108, 0.3900000000000000133 ) ) ;
#245 = DIRECTION ( 'NONE',  ( 1.000000000000000000, 0.000000000000000000, 0.000000000000000000 ) ) ;
#246 = ADVANCED_FACE ( 'NONE', ( #2 ), #74, .F. ) ;
#247 = EDGE_LOOP ( 'NONE', ( #386, #449 ) ) ;
#248 = FACE_OUTER_BOUND ( 'NONE', #348, .T. ) ;
#249 = CARTESIAN_POINT ( 'NONE',  ( 1.599411479329173380, 2.189649769329998108, 0.1299999999999999212 ) ) ;
#250 = LINE ( 'NONE', #632, #774 ) ;
#251 = VECTOR ( 'NONE', #106, 39.37007874015748143 ) ;
#252 = AXIS2_PLACEMENT_3D ( 'NONE', #273, #659, #92 ) ;
#253 = CARTESIAN_POINT ( 'NONE',  ( 2.199411479329174135, 1.949649769329954374, 0.3900000000000000133 ) ) ;
#254 = AXIS2_PLACEMENT_3D ( 'NONE', #594, #213, #542 ) ;
#255 = DIRECTION ( 'NONE',  ( -0.000000000000000000, -0.000000000000000000, 1.000000000000000000 ) ) ;
#256 = DIRECTION ( 'NONE',  ( -0.000000000000000000, -0.000000000000000000, -1.000000000000000000 ) ) ;
#257 =( LENGTH_UNIT ( ) NAMED_UNIT ( * ) SI_UNIT ( $, .METRE. ) );
#258 = ORIENTED_EDGE ( 'NONE', *, *, #696, .F. ) ;
#259 = CYLINDRICAL_SURFACE ( 'NONE', #797, 0.05324999999999990158 ) ;
#260 = DIRECTION ( 'NONE',  ( -0.000000000000000000, -0.000000000000000000, 1.000000000000000000 ) ) ;
#261 = AXIS2_PLACEMENT_3D ( 'NONE', #782, #772, #40 ) ;
#262 = DIRECTION ( 'NONE',  ( 1.000000000000000000, 0.000000000000000000, 0.000000000000000000 ) ) ;
#263 = PRODUCT_DEFINITION_FORMATION_WITH_SPECIFIED_SOURCE ( 'ANY', '', #127, .NOT_KNOWN. ) ;
#264 = ORIENTED_EDGE ( 'NONE', *, *, #382, .T. ) ;
#265 = ADVANCED_FACE ( 'NONE', ( #71 ), #259, .F. ) ;
#266 = APPROVAL_DATE_TIME ( #533, #562 ) ;
#267 = EDGE_CURVE ( 'NONE', #393, #279, #444, .T. ) ;
#268 = ORIENTED_EDGE ( 'NONE', *, *, #504, .F. ) ;
#269 = DIRECTION ( 'NONE',  ( -0.000000000000000000, 0.000000000000000000, -1.000000000000000000 ) ) ;
#270 = PERSON_AND_ORGANIZATION ( #23, #762 ) ;
#271 = EDGE_LOOP ( 'NONE', ( #680, #126, #122, #87 ) ) ;
#272 = VECTOR ( 'NONE', #604, 39.37007874015748143 ) ;
#273 = CARTESIAN_POINT ( 'NONE',  ( 0.9994114793291738463, 1.320559274156401841, 0.3558066900295257518 ) ) ;
#274 = PERSON_AND_ORGANIZATION_ROLE ( 'creator' ) ;
#275 = VERTEX_POINT ( 'NONE', #26 ) ;
#276 = DIRECTION ( 'NONE',  ( -0.000000000000000000, -0.000000000000000000, 1.000000000000000000 ) ) ;
#277 = ADVANCED_FACE ( 'NONE', ( #82 ), #532, .F. ) ;
#278 = PERSON_AND_ORGANIZATION ( #23, #762 ) ;
#279 = VERTEX_POINT ( 'NONE', #468 ) ;
#280 = CARTESIAN_POINT ( 'NONE',  ( 2.439411479329173460, 2.189649769329998108, 0.3900000000000000133 ) ) ;
#281 = DIRECTION ( 'NONE',  ( 1.000000000000000000, 0.000000000000000000, 0.000000000000000000 ) ) ;
#282 = DATE_AND_TIME ( #38, #353 ) ;
#283 = VERTEX_POINT ( 'NONE', #460 ) ;
#284 = DIRECTION ( 'NONE',  ( -0.000000000000000000, -0.000000000000000000, 1.000000000000000000 ) ) ;
#285 = VECTOR ( 'NONE', #199, 39.37007874015748143 ) ;
#286 = AXIS2_PLACEMENT_3D ( 'NONE', #156, #215, #346 ) ;
#287 = VERTEX_POINT ( 'NONE', #537 ) ;
#288 = CARTESIAN_POINT ( 'NONE',  ( 2.199411479329174135, 1.949649769329954374, 0.3900000000000000133 ) ) ;
#289 = AXIS2_PLACEMENT_3D ( 'NONE', #115, #794, #672 ) ;
#290 = CARTESIAN_POINT ( 'NONE',  ( 2.199411479329174135, 1.320559274156401841, 0.3900000000000000133 ) ) ;
#291 = CARTESIAN_POINT ( 'NONE',  ( 2.293411479329173996, 1.320559274156401841, 0.3900000000000000133 ) ) ;
#292 = EDGE_LOOP ( 'NONE', ( #544, #32 ) ) ;
#293 = EDGE_CURVE ( 'NONE', #380, #362, #775, .T. ) ;
#294 = DIRECTION ( 'NONE',  ( -0.000000000000000000, 0.000000000000000000, 1.000000000000000000 ) ) ;
#295 = CARTESIAN_POINT ( 'NONE',  ( 1.093411479329173819, 1.320559274156401841, 0.3900000000000000133 ) ) ;
#296 = VERTEX_POINT ( 'NONE', #720 ) ;
#297 = DIRECTION ( 'NONE',  ( 1.000000000000000000, 0.000000000000000000, -0.000000000000000000 ) ) ;
#298 = CARTESIAN_POINT ( 'NONE',  ( 2.252661479329173932, 1.320559274156401841, -0.1299999999999999767 ) ) ;
#299 = AXIS2_PLACEMENT_3D ( 'NONE', #336, #590, #30 ) ;
#300 = APPROVAL_PERSON_ORGANIZATION ( #410, #798, #218 ) ;
#301 = EDGE_CURVE ( 'NONE', #241, #392, #654, .T. ) ;
#302 = CIRCLE ( 'NONE', #342, 0.05324999999999990158 ) ;
#303 = LINE ( 'NONE', #419, #56 ) ;
#304 = DIRECTION ( 'NONE',  ( -1.000000000000000000, 0.000000000000000000, 0.000000000000000000 ) ) ;
#305 = ORIENTED_EDGE ( 'NONE', *, *, #350, .F. ) ;
#306 = ADVANCED_FACE ( 'NONE', ( #475 ), #402, .F. ) ;
#307 = CARTESIAN_POINT ( 'NONE',  ( 0.9994114793291738463, 1.320559274156401841, 0.3900000000000000133 ) ) ;
#308 = DIRECTION ( 'NONE',  ( -0.000000000000000000, -0.000000000000000000, 1.000000000000000000 ) ) ;
#309 = CARTESIAN_POINT ( 'NONE',  ( 0.7594114793291736332, 2.189649769329998108, 0.3900000000000000133 ) ) ;
#310 = DIRECTION ( 'NONE',  ( 1.000000000000000000, 0.000000000000000000, 0.000000000000000000 ) ) ;
#311 = CIRCLE ( 'NONE', #591, 0.1249999999999999167 ) ;
#312 = ORIENTED_EDGE ( 'NONE', *, *, #657, .F. ) ;
#313 = EDGE_CURVE ( 'NONE', #603, #140, #555, .T. ) ;
#314 = FACE_BOUND ( 'NONE', #36, .T. ) ;
#315 = APPROVAL_PERSON_ORGANIZATION ( #154, #521, #159 ) ;
#316 = CARTESIAN_POINT ( 'NONE',  ( 1.599411479329173380, 1.080559274156498217, 0.005000000000000014849 ) ) ;
#317 = EDGE_LOOP ( 'NONE', ( #258, #633, #650, #143 ) ) ;
#318 = EDGE_CURVE ( 'NONE', #771, #589, #500, .T. ) ;
#319 = DIRECTION ( 'NONE',  ( -0.000000000000000000, -0.000000000000000000, 1.000000000000000000 ) ) ;
#320 = CARTESIAN_POINT ( 'NONE',  ( 0.9054114793291738739, 1.320559274156401841, 0.3900000000000000133 ) ) ;
#321 = ORIENTED_EDGE ( 'NONE', *, *, #789, .T. ) ;
#322 = ADVANCED_FACE ( 'NONE', ( #408 ), #222, .T. ) ;
#323 = DIRECTION ( 'NONE',  ( -0.000000000000000000, -0.000000000000000000, 1.000000000000000000 ) ) ;
#324 = ORIENTED_EDGE ( 'NONE', *, *, #696, .T. ) ;
#325 = AXIS2_PLACEMENT_3D ( 'NONE', #404, #724, #212 ) ;
#326 = AXIS2_PLACEMENT_3D ( 'NONE', #778, #230, #416 ) ;
#327 = ADVANCED_FACE ( 'NONE', ( #226 ), #759, .F. ) ;
#328 = DIRECTION ( 'NONE',  ( 1.000000000000000000, 0.000000000000000000, 0.000000000000000000 ) ) ;
#329 = ORIENTED_EDGE ( 'NONE', *, *, #358, .F. ) ;
#330 = CARTESIAN_POINT ( 'NONE',  ( 0.9461614793291739378, 1.949649769329954374, 0.3900000000000000133 ) ) ;
#331 = DATE_TIME_ROLE ( 'classification_date' ) ;
#332 = ORIENTED_EDGE ( 'NONE', *, *, #363, .F. ) ;
#333 = CARTESIAN_POINT ( 'NONE',  ( 2.439411479329173460, 1.080559274156511318, 0.3900000000000000133 ) ) ;
#334 = APPROVAL_ROLE ( '' ) ;
#335 = ORIENTED_EDGE ( 'NONE', *, *, #510, .T. ) ;
#336 = CARTESIAN_POINT ( 'NONE',  ( 0.9994114793291738463, 1.320559274156401841, 0.3900000000000000133 ) ) ;
#337 = ADVANCED_FACE ( 'NONE', ( #394 ), #157, .F. ) ;
#338 = EDGE_CURVE ( 'NONE', #51, #283, #606, .T. ) ;
#339 = CIRCLE ( 'NONE', #446, 0.09400000000000001410 ) ;
#340 = ORIENTED_EDGE ( 'NONE', *, *, #194, .F. ) ;
#341 = CARTESIAN_POINT ( 'NONE',  ( 0.9994114793291738463, 1.320559274156401841, -0.1299999999999999767 ) ) ;
#342 = AXIS2_PLACEMENT_3D ( 'NONE', #135, #435, #3 ) ;
#343 = ORIENTED_EDGE ( 'NONE', *, *, #137, .T. ) ;
#344 = PERSON_AND_ORGANIZATION_ROLE ( 'design_supplier' ) ;
#345 = VERTEX_POINT ( 'NONE', #651 ) ;
#346 = DIRECTION ( 'NONE',  ( 1.000000000000000000, 0.000000000000000000, 0.000000000000000000 ) ) ;
#347 = DIRECTION ( 'NONE',  ( -0.000000000000000000, -0.000000000000000000, 1.000000000000000000 ) ) ;
#348 = EDGE_LOOP ( 'NONE', ( #15, #721, #462, #264 ) ) ;
#349 = CYLINDRICAL_SURFACE ( 'NONE', #286, 0.05324999999999976974 ) ;
#350 = EDGE_CURVE ( 'NONE', #99, #629, #117, .T. ) ;
#351 = FACE_BOUND ( 'NONE', #458, .T. ) ;
#352 = DIRECTION ( 'NONE',  ( 0.000000000000000000, -1.000000000000000000, 0.000000000000000000 ) ) ;
#353 = LOCAL_TIME ( 22, 50, 40.00000000000000000, #599 ) ;
#354 = PLANE ( 'NONE',  #618 ) ;
#355 = DIRECTION ( 'NONE',  ( 1.000000000000000000, 0.000000000000000000, 0.000000000000000000 ) ) ;
#356 = CYLINDRICAL_SURFACE ( 'NONE', #770, 0.05324999999999990158 ) ;
#357 = CARTESIAN_POINT ( 'NONE',  ( 2.199411479329174135, 1.949649769329954374, 0.3558066900295257518 ) ) ;
#358 = EDGE_CURVE ( 'NONE', #362, #96, #14, .T. ) ;
#359 = CARTESIAN_POINT ( 'NONE',  ( 0.9994114793291738463, 1.949649769329954374, 0.3900000000000000133 ) ) ;
#360 = DIRECTION ( 'NONE',  ( -0.000000000000000000, 1.000000000000000000, -0.000000000000000000 ) ) ;
#361 = AXIS2_PLACEMENT_3D ( 'NONE', #541, #97, #86 ) ;
#362 = VERTEX_POINT ( 'NONE', #602 ) ;
#363 = EDGE_CURVE ( 'NONE', #93, #392, #217, .T. ) ;
#364 = CC_DESIGN_APPROVAL ( #798, ( #263 ) ) ;
#365 = ORIENTED_EDGE ( 'NONE', *, *, #424, .T. ) ;
#366 = DIRECTION ( 'NONE',  ( 1.000000000000000000, 0.000000000000000000, 0.000000000000000000 ) ) ;
#367 = FACE_BOUND ( 'NONE', #247, .T. ) ;
#368 = FACE_OUTER_BOUND ( 'NONE', #492, .T. ) ;
#369 = CARTESIAN_POINT ( 'NONE',  ( 2.105411479329174274, 1.320559274156401841, 0.3900000000000000133 ) ) ;
#370 = EDGE_CURVE ( 'NONE', #666, #786, #398, .T. ) ;
#371 = CARTESIAN_POINT ( 'NONE',  ( 0.9994114793291738463, 1.320559274156401841, 0.3900000000000000133 ) ) ;
#372 = ADVANCED_FACE ( 'NONE', ( #511 ), #185, .F. ) ;
#373 = ORIENTED_EDGE ( 'NONE', *, *, #163, .F. ) ;
#374 = AXIS2_PLACEMENT_3D ( 'NONE', #280, #352, #407 ) ;
#375 = EDGE_LOOP ( 'NONE', ( #240, #781, #411, #80 ) ) ;
#376 = CARTESIAN_POINT ( 'NONE',  ( 2.105411479329174274, 1.949649769329954374, 0.3900000000000000133 ) ) ;
#377 = EDGE_LOOP ( 'NONE', ( #652, #640, #790, #519 ) ) ;
#378 = LINE ( 'NONE', #498, #27 ) ;
#379 = CARTESIAN_POINT ( 'NONE',  ( 0.7594114793291736332, 1.080559274156498217, 0.3900000000000000133 ) ) ;
#380 = VERTEX_POINT ( 'NONE', #397 ) ;
#381 = CC_DESIGN_PERSON_AND_ORGANIZATION_ASSIGNMENT ( #270, #344, ( #263 ) ) ;
#382 = EDGE_CURVE ( 'NONE', #806, #241, #412, .T. ) ;
#383 = ORIENTED_EDGE ( 'NONE', *, *, #634, .F. ) ;
#384 = LINE ( 'NONE', #748, #108 ) ;
#385 = DIRECTION ( 'NONE',  ( -0.000000000000000000, -0.000000000000000000, 1.000000000000000000 ) ) ;
#386 = ORIENTED_EDGE ( 'NONE', *, *, #85, .T. ) ;
#387 = CONICAL_SURFACE ( 'NONE', #1, 0.09400000000000001410, 0.8726646259971645447 ) ;
#388 = AXIS2_PLACEMENT_3D ( 'NONE', #508, #626, #262 ) ;
#389 = VECTOR ( 'NONE', #177, 39.37007874015748143 ) ;
#390 = EDGE_CURVE ( 'NONE', #130, #645, #597, .T. ) ;
#391 = VECTOR ( 'NONE', #700, 39.37007874015748143 ) ;
#392 = VERTEX_POINT ( 'NONE', #169 ) ;
#393 = VERTEX_POINT ( 'NONE', #719 ) ;
#394 = FACE_OUTER_BOUND ( 'NONE', #377, .T. ) ;
#395 = DATE_AND_TIME ( #716, #710 ) ;
#396 = ORIENTED_EDGE ( 'NONE', *, *, #465, .F. ) ;
#397 = CARTESIAN_POINT ( 'NONE',  ( 0.9461614793291739378, 1.949649769329954374, -0.1299999999999999767 ) ) ;
#398 = LINE ( 'NONE', #593, #28 ) ;
#399 = SECURITY_CLASSIFICATION_LEVEL ( 'unclassified' ) ;
#400 = ORIENTED_EDGE ( 'NONE', *, *, #742, .T. ) ;
#401 = PLANE ( 'NONE',  #374 ) ;
#402 = CONICAL_SURFACE ( 'NONE', #669, 0.09399999999999987532, 0.8726646259971614361 ) ;
#403 = AXIS2_PLACEMENT_3D ( 'NONE', #484, #490, #125 ) ;
#404 = CARTESIAN_POINT ( 'NONE',  ( 0.9994114793291738463, 1.949649769329954374, 0.3900000000000000133 ) ) ;
#405 = APPROVAL_DATE_TIME ( #660, #798 ) ;
#406 = ORIENTED_EDGE ( 'NONE', *, *, #615, .F. ) ;
#407 = DIRECTION ( 'NONE',  ( 0.000000000000000000, -0.000000000000000000, -1.000000000000000000 ) ) ;
#408 = FACE_OUTER_BOUND ( 'NONE', #19, .T. ) ;
#409 = EDGE_LOOP ( 'NONE', ( #701, #179, #237, #582 ) ) ;
#410 = PERSON_AND_ORGANIZATION ( #23, #762 ) ;
#411 = ORIENTED_EDGE ( 'NONE', *, *, #163, .T. ) ;
#412 = LINE ( 'NONE', #722, #272 ) ;
#413 = CC_DESIGN_DATE_AND_TIME_ASSIGNMENT ( #83, #708, ( #133 ) ) ;
#414 = EDGE_CURVE ( 'NONE', #523, #807, #579, .T. ) ;
#415 = DIRECTION ( 'NONE',  ( 1.000000000000000000, 0.000000000000000000, 0.000000000000000000 ) ) ;
#416 = DIRECTION ( 'NONE',  ( 1.000000000000000000, 0.000000000000000000, 0.000000000000000000 ) ) ;
#417 = AXIS2_PLACEMENT_3D ( 'NONE', #207, #34, #779 ) ;
#418 = VECTOR ( 'NONE', #702, 39.37007874015748143 ) ;
#419 = CARTESIAN_POINT ( 'NONE',  ( 1.093411479329173819, 1.949649769329954374, 0.3900000000000000133 ) ) ;
#420 = CARTESIAN_POINT ( 'NONE',  ( 0.7594114793291736332, 2.189649769329998108, -0.1300000000000000044 ) ) ;
#421 = ORIENTED_EDGE ( 'NONE', *, *, #480, .F. ) ;
#422 = DIRECTION ( 'NONE',  ( 1.000000000000000000, 0.000000000000000000, 0.000000000000000000 ) ) ;
#423 = CARTESIAN_POINT ( 'NONE',  ( 1.599411479329173380, 2.189649769329998108, 0.2549999999999998379 ) ) ;
#424 = EDGE_CURVE ( 'NONE', #589, #771, #592, .T. ) ;
#425 = EDGE_LOOP ( 'NONE', ( #481, #335 ) ) ;
#426 = FACE_BOUND ( 'NONE', #219, .T. ) ;
#427 = DIRECTION ( 'NONE',  ( -0.000000000000000000, -0.000000000000000000, 1.000000000000000000 ) ) ;
#428 = ORIENTED_EDGE ( 'NONE', *, *, #513, .T. ) ;
#429 = CARTESIAN_POINT ( 'NONE',  ( 2.439411479329173460, 2.189649769329998108, -0.1300000000000000044 ) ) ;
#430 = AXIS2_PLACEMENT_3D ( 'NONE', #783, #347, #103 ) ;
#431 = AXIS2_PLACEMENT_3D ( 'NONE', #288, #791, #232 ) ;
#432 = ORIENTED_EDGE ( 'NONE', *, *, #41, .T. ) ;
#433 = PLANE ( 'NONE',  #682 ) ;
#434 = CARTESIAN_POINT ( 'NONE',  ( 1.599411479329173380, 1.080559274156498217, 0.1299999999999999212 ) ) ;
#435 = DIRECTION ( 'NONE',  ( -0.000000000000000000, -0.000000000000000000, 1.000000000000000000 ) ) ;
#436 = VERTEX_POINT ( 'NONE', #478 ) ;
#437 = ADVANCED_FACE ( 'NONE', ( #167, #667 ), #401, .F. ) ;
#438 = ADVANCED_FACE ( 'NONE', ( #43, #482 ), #540, .F. ) ;
#439 = LINE ( 'NONE', #128, #77 ) ;
#440 = DIRECTION ( 'NONE',  ( -1.000000000000000000, 0.000000000000000000, 0.000000000000000000 ) ) ;
#441 = ORIENTED_EDGE ( 'NONE', *, *, #414, .T. ) ;
#442 = DIRECTION ( 'NONE',  ( 1.000000000000000000, 0.000000000000000000, 0.000000000000000000 ) ) ;
#443 = CARTESIAN_POINT ( 'NONE',  ( 0.7594114793291736332, 2.189649769329998108, -0.1300000000000000044 ) ) ;
#444 = CIRCLE ( 'NONE', #211, 0.05324999999999976974 ) ;
#445 = ORIENTED_EDGE ( 'NONE', *, *, #209, .F. ) ;
#446 = AXIS2_PLACEMENT_3D ( 'NONE', #601, #549, #463 ) ;
#447 = MANIFOLD_SOLID_BREP ( 'Cut-Extrude1', #472 ) ;
#448 = DIRECTION ( 'NONE',  ( -0.000000000000000000, 0.000000000000000000, 1.000000000000000000 ) ) ;
#449 = ORIENTED_EDGE ( 'NONE', *, *, #243, .T. ) ;
#450 = ADVANCED_FACE ( 'NONE', ( #609 ), #653, .F. ) ;
#451 = DIRECTION ( 'NONE',  ( 1.000000000000000000, 0.000000000000000000, 0.000000000000000000 ) ) ;
#452 = DIRECTION ( 'NONE',  ( -0.000000000000000000, -0.000000000000000000, 1.000000000000000000 ) ) ;
#453 = EDGE_LOOP ( 'NONE', ( #343, #22, #503, #557 ) ) ;
#454 = UNCERTAINTY_MEASURE_WITH_UNIT (LENGTH_MEASURE( 1.000000000000000082E-05 ), #514, 'distance_accuracy_value', 'NONE');
#455 = EDGE_LOOP ( 'NONE', ( #104, #739, #42, #735 ) ) ;
#456 = DIRECTION ( 'NONE',  ( -0.000000000000000000, -0.000000000000000000, 1.000000000000000000 ) ) ;
#457 = PERSON_AND_ORGANIZATION ( #23, #762 ) ;
#458 = EDGE_LOOP ( 'NONE', ( #755, #7 ) ) ;
#459 = CIRCLE ( 'NONE', #11, 0.05324999999999976974 ) ;
#460 = CARTESIAN_POINT ( 'NONE',  ( 0.9461614793291739378, 1.320559274156401841, 0.3558066900295257518 ) ) ;
#461 = CC_DESIGN_APPROVAL ( #521, ( #16 ) ) ;
#462 = ORIENTED_EDGE ( 'NONE', *, *, #186, .T. ) ;
#463 = DIRECTION ( 'NONE',  ( 1.000000000000000000, 0.000000000000000000, 0.000000000000000000 ) ) ;
#464 = DIRECTION ( 'NONE',  ( 1.000000000000000000, 0.000000000000000000, -0.000000000000000000 ) ) ;
#465 = EDGE_CURVE ( 'NONE', #287, #751, #160, .T. ) ;
#466 = PERSON_AND_ORGANIZATION ( #23, #762 ) ;
#467 = EDGE_LOOP ( 'NONE', ( #50, #507, #614, #233 ) ) ;
#468 = CARTESIAN_POINT ( 'NONE',  ( 2.146161479329174337, 1.949649769329954374, -0.1299999999999999767 ) ) ;
#469 = APPLICATION_PROTOCOL_DEFINITION ( 'international standard', 'config_control_design', 1994, #206 ) ;
#470 = ORIENTED_EDGE ( 'NONE', *, *, #293, .T. ) ;
#471 = DIRECTION ( 'NONE',  ( 1.000000000000000000, 0.000000000000000000, 0.000000000000000000 ) ) ;
#472 = CLOSED_SHELL ( 'NONE', ( #543, #31, #265, #172, #450, #372, #681, #306, #246, #322, #437, #64, #438, #13, #184, #277, #705, #479, #90, #119, #73, #337, #327, #573 ) ) ;
#473 = VECTOR ( 'NONE', #567, 39.37007874015748143 ) ;
#474 = CIRCLE ( 'NONE', #431, 0.09399999999999987532 ) ;
#475 = FACE_OUTER_BOUND ( 'NONE', #810, .T. ) ;
#476 = SHAPE_DEFINITION_REPRESENTATION ( #17, #49 ) ;
#477 = ORIENTED_EDGE ( 'NONE', *, *, #224, .F. ) ;
#478 = CARTESIAN_POINT ( 'NONE',  ( 2.146161479329174337, 1.320559274156401841, 0.3558066900295257518 ) ) ;
#479 = ADVANCED_FACE ( 'NONE', ( #100 ), #349, .F. ) ;
#480 = EDGE_CURVE ( 'NONE', #646, #9, #339, .T. ) ;
#481 = ORIENTED_EDGE ( 'NONE', *, *, #692, .T. ) ;
#482 = FACE_OUTER_BOUND ( 'NONE', #453, .T. ) ;
#483 = DIRECTION ( 'NONE',  ( 1.000000000000000000, 0.000000000000000000, 0.000000000000000000 ) ) ;
#484 = CARTESIAN_POINT ( 'NONE',  ( 2.199411479329174135, 1.320559274156401841, 0.3558066900295257518 ) ) ;
#485 = ORIENTED_EDGE ( 'NONE', *, *, #648, .F. ) ;
#486 = CIRCLE ( 'NONE', #388, 0.09399999999999987532 ) ;
#487 = EDGE_CURVE ( 'NONE', #645, #191, #474, .T. ) ;
#488 = AXIS2_PLACEMENT_3D ( 'NONE', #587, #165, #664 ) ;
#489 = ORIENTED_EDGE ( 'NONE', *, *, #186, .F. ) ;
#490 = DIRECTION ( 'NONE',  ( -0.000000000000000000, -0.000000000000000000, 1.000000000000000000 ) ) ;
#491 = EDGE_CURVE ( 'NONE', #88, #191, #89, .T. ) ;
#492 = EDGE_LOOP ( 'NONE', ( #396, #155, #758, #477 ) ) ;
#493 = CARTESIAN_POINT ( 'NONE',  ( 2.199411479329174135, 1.320559274156401841, -0.1299999999999999767 ) ) ;
#494 = CARTESIAN_POINT ( 'NONE',  ( 2.199411479329174135, 1.320559274156401841, 0.3900000000000000133 ) ) ;
#495 = DIRECTION ( 'NONE',  ( 1.000000000000000000, 0.000000000000000000, 0.000000000000000000 ) ) ;
#496 = CYLINDRICAL_SURFACE ( 'NONE', #695, 0.1249999999999999167 ) ;
#497 = EDGE_LOOP ( 'NONE', ( #569, #445, #489, #214 ) ) ;
#498 = CARTESIAN_POINT ( 'NONE',  ( 2.439411479329173460, 2.189649769329998108, 0.3900000000000000133 ) ) ;
#499 = CYLINDRICAL_SURFACE ( 'NONE', #173, 0.1249999999999999167 ) ;
#500 = CIRCLE ( 'NONE', #197, 0.05324999999999990158 ) ;
#501 = VECTOR ( 'NONE', #152, 39.37007874015748143 ) ;
#502 = DIRECTION ( 'NONE',  ( 1.000000000000000000, 0.000000000000000000, 0.000000000000000000 ) ) ;
#503 = ORIENTED_EDGE ( 'NONE', *, *, #382, .F. ) ;
#504 = EDGE_CURVE ( 'NONE', #9, #646, #78, .T. ) ;
#505 = VECTOR ( 'NONE', #129, 39.37007874015748143 ) ;
#506 = CARTESIAN_POINT ( 'NONE',  ( 1.052661479329173755, 1.320559274156401841, 0.3900000000000000133 ) ) ;
#507 = ORIENTED_EDGE ( 'NONE', *, *, #756, .F. ) ;
#508 = CARTESIAN_POINT ( 'NONE',  ( 2.199411479329174135, 1.949649769329954374, 0.3900000000000000133 ) ) ;
#509 = ORIENTED_EDGE ( 'NONE', *, *, #623, .F. ) ;
#510 = EDGE_CURVE ( 'NONE', #380, #698, #658, .T. ) ;
#511 = FACE_OUTER_BOUND ( 'NONE', #527, .T. ) ;
#512 = DIRECTION ( 'NONE',  ( -0.000000000000000000, -0.000000000000000000, 1.000000000000000000 ) ) ;
#513 = EDGE_CURVE ( 'NONE', #436, #345, #516, .T. ) ;
#514 =( CONVERSION_BASED_UNIT ( 'INCH', #72 ) LENGTH_UNIT ( ) NAMED_UNIT ( #44 ) );
#515 = VECTOR ( 'NONE', #520, 39.37007874015748143 ) ;
#516 = CIRCLE ( 'NONE', #403, 0.05325000000000004036 ) ;
#517 = DIRECTION ( 'NONE',  ( -0.000000000000000000, -0.000000000000000000, 1.000000000000000000 ) ) ;
#518 = EDGE_LOOP ( 'NONE', ( #704, #406, #151, #76 ) ) ;
#519 = ORIENTED_EDGE ( 'NONE', *, *, #765, .T. ) ;
#520 = DIRECTION ( 'NONE',  ( -0.000000000000000000, -0.000000000000000000, -1.000000000000000000 ) ) ;
#521 = APPROVAL ( #785, 'UNSPECIFIED' ) ;
#522 = PERSON_AND_ORGANIZATION ( #23, #762 ) ;
#523 = VERTEX_POINT ( 'NONE', #613 ) ;
#524 = ORIENTED_EDGE ( 'NONE', *, *, #615, .T. ) ;
#525 = DIRECTION ( 'NONE',  ( 1.000000000000000000, 0.000000000000000000, 0.000000000000000000 ) ) ;
#526 = APPLICATION_PROTOCOL_DEFINITION ( 'international standard', 'config_control_design', 1994, #641 ) ;
#527 = EDGE_LOOP ( 'NONE', ( #656, #662, #766, #312 ) ) ;
#528 = DIRECTION ( 'NONE',  ( 0.000000000000000000, 1.000000000000000000, 0.000000000000000000 ) ) ;
#529 = VECTOR ( 'NONE', #319, 39.37007874015748143 ) ;
#530 = VECTOR ( 'NONE', #787, 39.37007874015748143 ) ;
#531 = EDGE_CURVE ( 'NONE', #140, #603, #547, .T. ) ;
#532 = CYLINDRICAL_SURFACE ( 'NONE', #430, 0.05324999999999976974 ) ;
#533 = DATE_AND_TIME ( #21, #81 ) ;
#534 = AXIS2_PLACEMENT_3D ( 'NONE', #703, #260, #502 ) ;
#535 = ORIENTED_EDGE ( 'NONE', *, *, #565, .T. ) ;
#536 = DIRECTION ( 'NONE',  ( 1.000000000000000000, 0.000000000000000000, 0.000000000000000000 ) ) ;
#537 = CARTESIAN_POINT ( 'NONE',  ( 1.599411479329173380, 1.080559274156498217, 0.005000000000000014849 ) ) ;
#538 = CALENDAR_DATE ( 2025, 7, 3 ) ;
#539 = ORIENTED_EDGE ( 'NONE', *, *, #224, .T. ) ;
#540 = PLANE ( 'NONE',  #261 ) ;
#541 = CARTESIAN_POINT ( 'NONE',  ( 2.199411479329174135, 1.320559274156401841, 0.3900000000000000133 ) ) ;
#542 = DIRECTION ( 'NONE',  ( 1.000000000000000000, 0.000000000000000000, 0.000000000000000000 ) ) ;
#543 = ADVANCED_FACE ( 'NONE', ( #368 ), #496, .F. ) ;
#544 = ORIENTED_EDGE ( 'NONE', *, *, #267, .T. ) ;
#545 = AXIS2_PLACEMENT_3D ( 'NONE', #793, #294, #483 ) ;
#546 = VECTOR ( 'NONE', #583, 39.37007874015748143 ) ;
#547 = CIRCLE ( 'NONE', #761, 0.1249999999999999167 ) ;
#548 = ORIENTED_EDGE ( 'NONE', *, *, #465, .T. ) ;
#549 = DIRECTION ( 'NONE',  ( -0.000000000000000000, -0.000000000000000000, 1.000000000000000000 ) ) ;
#550 = LINE ( 'NONE', #110, #251 ) ;
#551 = CARTESIAN_POINT ( 'NONE',  ( 0.9461614793291739378, 1.320559274156401841, 0.3900000000000000133 ) ) ;
#552 = FACE_OUTER_BOUND ( 'NONE', #467, .T. ) ;
#553 = LINE ( 'NONE', #679, #109 ) ;
#554 = EDGE_CURVE ( 'NONE', #589, #283, #234, .T. ) ;
#555 = CIRCLE ( 'NONE', #417, 0.1249999999999999167 ) ;
#556 = VECTOR ( 'NONE', #744, 39.37007874015748143 ) ;
#557 = ORIENTED_EDGE ( 'NONE', *, *, #209, .T. ) ;
#558 = CARTESIAN_POINT ( 'NONE',  ( 0.9994114793291738463, 1.949649769329954374, 0.3900000000000000133 ) ) ;
#559 = VECTOR ( 'NONE', #238, 39.37007874015748143 ) ;
#560 = DIRECTION ( 'NONE',  ( 0.7660444431189779024, 0.000000000000000000, 0.6427876096865394739 ) ) ;
#561 = DIRECTION ( 'NONE',  ( -0.000000000000000000, -0.000000000000000000, 1.000000000000000000 ) ) ;
#562 = APPROVAL ( #35, 'UNSPECIFIED' ) ;
#563 = ORIENTED_EDGE ( 'NONE', *, *, #318, .T. ) ;
#564 = CYLINDRICAL_SURFACE ( 'NONE', #289, 0.05324999999999976974 ) ;
#565 = EDGE_CURVE ( 'NONE', #362, #523, #171, .T. ) ;
#566 = ORIENTED_EDGE ( 'NONE', *, *, #491, .T. ) ;
#567 = DIRECTION ( 'NONE',  ( 0.000000000000000000, -1.000000000000000000, 0.000000000000000000 ) ) ;
#568 = CARTESIAN_POINT ( 'NONE',  ( 2.199411479329174135, 1.320559274156401841, 0.3558066900295257518 ) ) ;
#569 = ORIENTED_EDGE ( 'NONE', *, *, #634, .T. ) ;
#570 = CIRCLE ( 'NONE', #673, 0.05325000000000004036 ) ;
#571 = LINE ( 'NONE', #760, #285 ) ;
#572 = DIRECTION ( 'NONE',  ( -0.000000000000000000, 1.000000000000000000, -0.000000000000000000 ) ) ;
#573 = ADVANCED_FACE ( 'NONE', ( #621 ), #499, .F. ) ;
#574 = FACE_BOUND ( 'NONE', #425, .T. ) ;
#575 = LINE ( 'NONE', #369, #201 ) ;
#576 = ORIENTED_EDGE ( 'NONE', *, *, #236, .T. ) ;
#577 = CARTESIAN_POINT ( 'NONE',  ( 0.9994114793291738463, 1.949649769329954374, 0.3900000000000000133 ) ) ;
#578 = EDGE_LOOP ( 'NONE', ( #84, #166 ) ) ;
#579 = CIRCLE ( 'NONE', #326, 0.09400000000000001410 ) ;
#580 = CARTESIAN_POINT ( 'NONE',  ( 1.599411479329173380, 2.189649769329998108, 0.005000000000000014849 ) ) ;
#581 = ORIENTED_EDGE ( 'NONE', *, *, #390, .F. ) ;
#582 = ORIENTED_EDGE ( 'NONE', *, *, #194, .T. ) ;
#583 = DIRECTION ( 'NONE',  ( -0.000000000000000000, -0.000000000000000000, 1.000000000000000000 ) ) ;
#584 = ORIENTED_EDGE ( 'NONE', *, *, #765, .F. ) ;
#585 = EDGE_CURVE ( 'NONE', #93, #786, #60, .T. ) ;
#586 = DESIGN_CONTEXT ( 'detailed design', #206, 'design' ) ;
#587 = CARTESIAN_POINT ( 'NONE',  ( 0.9994114793291738463, 1.949649769329954374, 0.3558066900295257518 ) ) ;
#588 = COORDINATED_UNIVERSAL_TIME_OFFSET ( 6, 0, .BEHIND. ) ;
#589 = VERTEX_POINT ( 'NONE', #749 ) ;
#590 = DIRECTION ( 'NONE',  ( -0.000000000000000000, -0.000000000000000000, 1.000000000000000000 ) ) ;
#591 = AXIS2_PLACEMENT_3D ( 'NONE', #740, #675, #624 ) ;
#592 = CIRCLE ( 'NONE', #132, 0.05324999999999990158 ) ;
#593 = CARTESIAN_POINT ( 'NONE',  ( 0.7594114793291736332, 2.189649769329998108, 0.3900000000000000133 ) ) ;
#594 = CARTESIAN_POINT ( 'NONE',  ( 0.000000000000000000, 0.000000000000000000, 0.000000000000000000 ) ) ;
#595 = VECTOR ( 'NONE', #572, 39.37007874015748143 ) ;
#596 = ORIENTED_EDGE ( 'NONE', *, *, #792, .T. ) ;
#597 = LINE ( 'NONE', #728, #530 ) ;
#598 = EDGE_CURVE ( 'NONE', #51, #9, #182, .T. ) ;
#599 = COORDINATED_UNIVERSAL_TIME_OFFSET ( 6, 0, .BEHIND. ) ;
#600 = VERTEX_POINT ( 'NONE', #298 ) ;
#601 = CARTESIAN_POINT ( 'NONE',  ( 0.9994114793291738463, 1.320559274156401841, 0.3900000000000000133 ) ) ;
#602 = CARTESIAN_POINT ( 'NONE',  ( 0.9461614793291739378, 1.949649769329954374, 0.3558066900295257518 ) ) ;
#603 = VERTEX_POINT ( 'NONE', #423 ) ;
#604 = DIRECTION ( 'NONE',  ( 1.000000000000000000, 7.805279981897896488E-15, 0.000000000000000000 ) ) ;
#605 = CONICAL_SURFACE ( 'NONE', #643, 0.09400000000000001410, 0.8726646259971645447 ) ;
#606 = CIRCLE ( 'NONE', #252, 0.05324999999999990158 ) ;
#607 = VECTOR ( 'NONE', #808, 39.37007874015748143 ) ;
#608 = DIRECTION ( 'NONE',  ( -0.000000000000000000, 0.000000000000000000, -1.000000000000000000 ) ) ;
#609 = FACE_OUTER_BOUND ( 'NONE', #271, .T. ) ;
#610 =( GEOMETRIC_REPRESENTATION_CONTEXT ( 3 ) GLOBAL_UNCERTAINTY_ASSIGNED_CONTEXT ( ( #454 ) ) GLOBAL_UNIT_ASSIGNED_CONTEXT ( ( #514, #655, #147 ) ) REPRESENTATION_CONTEXT ( 'NONE', 'WORKASPACE' ) );
#611 = ORIENTED_EDGE ( 'NONE', *, *, #53, .T. ) ;
#612 = DIRECTION ( 'NONE',  ( -0.000000000000000000, -0.000000000000000000, 1.000000000000000000 ) ) ;
#613 = CARTESIAN_POINT ( 'NONE',  ( 0.9054114793291738739, 1.949649769329954374, 0.3900000000000000133 ) ) ;
#614 = ORIENTED_EDGE ( 'NONE', *, *, #657, .T. ) ;
#615 = EDGE_CURVE ( 'NONE', #130, #88, #631, .T. ) ;
#616 = EDGE_LOOP ( 'NONE', ( #66, #691, #596, #524 ) ) ;
#617 = DIRECTION ( 'NONE',  ( 0.000000000000000000, 1.000000000000000000, 0.000000000000000000 ) ) ;
#618 = AXIS2_PLACEMENT_3D ( 'NONE', #168, #297, #608 ) ;
#619 = VECTOR ( 'NONE', #242, 39.37007874015748143 ) ;
#620 = DIRECTION ( 'NONE',  ( -0.000000000000000000, -0.000000000000000000, 1.000000000000000000 ) ) ;
#621 = FACE_OUTER_BOUND ( 'NONE', #706, .T. ) ;
#622 = AXIS2_PLACEMENT_3D ( 'NONE', #75, #65, #310 ) ;
#623 = EDGE_CURVE ( 'NONE', #807, #523, #57, .T. ) ;
#624 = DIRECTION ( 'NONE',  ( 0.000000000000000000, 0.000000000000000000, 1.000000000000000000 ) ) ;
#625 = CARTESIAN_POINT ( 'NONE',  ( 0.7594114793291736332, 2.189649769329998108, 0.3900000000000000133 ) ) ;
#626 = DIRECTION ( 'NONE',  ( -0.000000000000000000, -0.000000000000000000, 1.000000000000000000 ) ) ;
#627 = CARTESIAN_POINT ( 'NONE',  ( 0.9054114793291738739, 1.320559274156401841, 0.3900000000000000133 ) ) ;
#628 = LINE ( 'NONE', #690, #803 ) ;
#629 = VERTEX_POINT ( 'NONE', #291 ) ;
#630 = LINE ( 'NONE', #506, #529 ) ;
#631 = CIRCLE ( 'NONE', #118, 0.05325000000000004036 ) ;
#632 = CARTESIAN_POINT ( 'NONE',  ( 2.252661479329173932, 1.949649769329954374, 0.3900000000000000133 ) ) ;
#633 = ORIENTED_EDGE ( 'NONE', *, *, #338, .F. ) ;
#634 = EDGE_CURVE ( 'NONE', #786, #296, #802, .T. ) ;
#635 = APPROVAL_PERSON_ORGANIZATION ( #457, #562, #334 ) ;
#636 = CARTESIAN_POINT ( 'NONE',  ( 2.252661479329174377, 1.949649769329954374, 0.3558066900295257518 ) ) ;
#637 = ORIENTED_EDGE ( 'NONE', *, *, #623, .T. ) ;
#638 = CARTESIAN_POINT ( 'NONE',  ( 2.199411479329174135, 1.320559274156401841, -0.1299999999999999767 ) ) ;
#639 = CARTESIAN_POINT ( 'NONE',  ( 1.093411479329173819, 1.949649769329954374, 0.3900000000000000133 ) ) ;
#640 = ORIENTED_EDGE ( 'NONE', *, *, #692, .F. ) ;
#641 = APPLICATION_CONTEXT ( 'configuration controlled 3d designs of mechanical parts and assemblies' ) ;
#642 = DIRECTION ( 'NONE',  ( 1.000000000000000000, 0.000000000000000000, 0.000000000000000000 ) ) ;
#643 = AXIS2_PLACEMENT_3D ( 'NONE', #359, #620, #495 ) ;
#644 = DIRECTION ( 'NONE',  ( 1.000000000000000000, 0.000000000000000000, 0.000000000000000000 ) ) ;
#645 = VERTEX_POINT ( 'NONE', #121 ) ;
#646 = VERTEX_POINT ( 'NONE', #627 ) ;
#647 = VECTOR ( 'NONE', #440, 39.37007874015748143 ) ;
#648 = EDGE_CURVE ( 'NONE', #629, #99, #736, .T. ) ;
#649 = COORDINATED_UNIVERSAL_TIME_OFFSET ( 6, 0, .BEHIND. ) ;
#650 = ORIENTED_EDGE ( 'NONE', *, *, #598, .T. ) ;
#651 = CARTESIAN_POINT ( 'NONE',  ( 2.252661479329174377, 1.320559274156401841, 0.3558066900295257518 ) ) ;
#652 = ORIENTED_EDGE ( 'NONE', *, *, #293, .F. ) ;
#653 = CYLINDRICAL_SURFACE ( 'NONE', #788, 0.05324999999999990158 ) ;
#654 = LINE ( 'NONE', #333, #515 ) ;
#655 =( NAMED_UNIT ( * ) PLANE_ANGLE_UNIT ( ) SI_UNIT ( $, .RADIAN. ) );
#656 = ORIENTED_EDGE ( 'NONE', *, *, #513, .F. ) ;
#657 = EDGE_CURVE ( 'NONE', #345, #629, #553, .T. ) ;
#658 = CIRCLE ( 'NONE', #228, 0.05324999999999990158 ) ;
#659 = DIRECTION ( 'NONE',  ( -0.000000000000000000, -0.000000000000000000, 1.000000000000000000 ) ) ;
#660 = DATE_AND_TIME ( #538, #174 ) ;
#661 = AXIS2_PLACEMENT_3D ( 'NONE', #494, #427, #366 ) ;
#662 = ORIENTED_EDGE ( 'NONE', *, *, #732, .T. ) ;
#663 = DIRECTION ( 'NONE',  ( 1.000000000000000000, 0.000000000000000000, 0.000000000000000000 ) ) ;
#664 = DIRECTION ( 'NONE',  ( 1.000000000000000000, 0.000000000000000000, 0.000000000000000000 ) ) ;
#665 = COORDINATED_UNIVERSAL_TIME_OFFSET ( 6, 0, .BEHIND. ) ;
#666 = VERTEX_POINT ( 'NONE', #625 ) ;
#667 = FACE_OUTER_BOUND ( 'NONE', #409, .T. ) ;
#668 = CARTESIAN_POINT ( 'NONE',  ( 1.052661479329173755, 1.320559274156401841, 0.3558066900295257518 ) ) ;
#669 = AXIS2_PLACEMENT_3D ( 'NONE', #149, #715, #525 ) ;
#670 = EDGE_CURVE ( 'NONE', #279, #393, #188, .T. ) ;
#671 = FACE_BOUND ( 'NONE', #745, .T. ) ;
#672 = DIRECTION ( 'NONE',  ( 1.000000000000000000, 0.000000000000000000, 0.000000000000000000 ) ) ;
#673 = AXIS2_PLACEMENT_3D ( 'NONE', #568, #452, #328 ) ;
#674 = EDGE_LOOP ( 'NONE', ( #225, #321, #400, #205 ) ) ;
#675 = DIRECTION ( 'NONE',  ( 0.000000000000000000, 1.000000000000000000, 0.000000000000000000 ) ) ;
#676 = DIRECTION ( 'NONE',  ( -0.000000000000000000, 1.000000000000000000, -0.000000000000000000 ) ) ;
#677 = ORIENTED_EDGE ( 'NONE', *, *, #137, .F. ) ;
#678 = DIRECTION ( 'NONE',  ( -0.000000000000000000, -0.000000000000000000, 1.000000000000000000 ) ) ;
#679 = CARTESIAN_POINT ( 'NONE',  ( 2.293411479329173996, 1.320559274156401841, 0.3900000000000000133 ) ) ;
#680 = ORIENTED_EDGE ( 'NONE', *, *, #424, .F. ) ;
#681 = ADVANCED_FACE ( 'NONE', ( #52 ), #564, .F. ) ;
#682 = AXIS2_PLACEMENT_3D ( 'NONE', #134, #448, #6 ) ;
#683 = DIRECTION ( 'NONE',  ( -0.000000000000000000, -0.000000000000000000, 1.000000000000000000 ) ) ;
#684 = DIRECTION ( 'NONE',  ( 1.000000000000000000, 0.000000000000000000, 0.000000000000000000 ) ) ;
#685 = ORIENTED_EDGE ( 'NONE', *, *, #510, .F. ) ;
#686 = EDGE_CURVE ( 'NONE', #698, #96, #111, .T. ) ;
#687 = DIRECTION ( 'NONE',  ( 0.7660444431189759040, 0.000000000000000000, 0.6427876096865419164 ) ) ;
#688 = LINE ( 'NONE', #320, #391 ) ;
#689 = CARTESIAN_POINT ( 'NONE',  ( 0.9994114793291738463, 1.320559274156401841, 0.3900000000000000133 ) ) ;
#690 = CARTESIAN_POINT ( 'NONE',  ( 2.146161479329174337, 1.320559274156401841, 0.3900000000000000133 ) ) ;
#691 = ORIENTED_EDGE ( 'NONE', *, *, #267, .F. ) ;
#692 = EDGE_CURVE ( 'NONE', #698, #380, #752, .T. ) ;
#693 = CONICAL_SURFACE ( 'NONE', #158, 0.09400000000000001410, 0.8726646259971645447 ) ;
#694 = DIRECTION ( 'NONE',  ( -0.000000000000000000, -0.000000000000000000, 1.000000000000000000 ) ) ;
#695 = AXIS2_PLACEMENT_3D ( 'NONE', #113, #676, #738 ) ;
#696 = EDGE_CURVE ( 'NONE', #283, #646, #688, .T. ) ;
#697 = DIRECTION ( 'NONE',  ( -0.000000000000000000, -0.000000000000000000, 1.000000000000000000 ) ) ;
#698 = VERTEX_POINT ( 'NONE', #142 ) ;
#699 = LINE ( 'NONE', #309, #473 ) ;
#700 = DIRECTION ( 'NONE',  ( -0.7660444431189779024, 9.381338752702729548E-17, 0.6427876096865394739 ) ) ;
#701 = ORIENTED_EDGE ( 'NONE', *, *, #585, .T. ) ;
#702 = DIRECTION ( 'NONE',  ( -0.000000000000000000, -0.000000000000000000, -1.000000000000000000 ) ) ;
#703 = CARTESIAN_POINT ( 'NONE',  ( 0.9994114793291738463, 1.949649769329954374, -0.1299999999999999767 ) ) ;
#704 = ORIENTED_EDGE ( 'NONE', *, *, #491, .F. ) ;
#705 = ADVANCED_FACE ( 'NONE', ( #139 ), #46, .F. ) ;
#706 = EDGE_LOOP ( 'NONE', ( #136, #58, #539, #183 ) ) ;
#707 = DIRECTION ( 'NONE',  ( 1.000000000000000000, 0.000000000000000000, 0.000000000000000000 ) ) ;
#708 = DATE_TIME_ROLE ( 'creation_date' ) ;
#709 = EDGE_LOOP ( 'NONE', ( #116, #210, #428, #373 ) ) ;
#710 = LOCAL_TIME ( 22, 50, 40.00000000000000000, #665 ) ;
#711 = DIRECTION ( 'NONE',  ( -0.000000000000000000, -0.000000000000000000, 1.000000000000000000 ) ) ;
#712 = PERSON_AND_ORGANIZATION ( #23, #762 ) ;
#713 = ORIENTED_EDGE ( 'NONE', *, *, #742, .F. ) ;
#714 = CARTESIAN_POINT ( 'NONE',  ( 2.105411479329174274, 1.949649769329954374, 0.3900000000000000133 ) ) ;
#715 = DIRECTION ( 'NONE',  ( -0.000000000000000000, -0.000000000000000000, 1.000000000000000000 ) ) ;
#716 = CALENDAR_DATE ( 2025, 7, 3 ) ;
#717 = EDGE_CURVE ( 'NONE', #275, #436, #628, .T. ) ;
#718 = ORIENTED_EDGE ( 'NONE', *, *, #102, .T. ) ;
#719 = CARTESIAN_POINT ( 'NONE',  ( 2.252661479329173932, 1.949649769329954374, -0.1299999999999999767 ) ) ;
#720 = CARTESIAN_POINT ( 'NONE',  ( 0.7594114793291736332, 1.080559274156498217, -0.1300000000000000044 ) ) ;
#721 = ORIENTED_EDGE ( 'NONE', *, *, #773, .T. ) ;
#722 = CARTESIAN_POINT ( 'NONE',  ( 0.7594114793291736332, 1.080559274156498217, 0.3900000000000000133 ) ) ;
#723 = AXIS2_PLACEMENT_3D ( 'NONE', #37, #456, #707 ) ;
#724 = DIRECTION ( 'NONE',  ( -0.000000000000000000, -0.000000000000000000, 1.000000000000000000 ) ) ;
#725 = LOCAL_TIME ( 22, 50, 40.00000000000000000, #588 ) ;
#726 = COORDINATED_UNIVERSAL_TIME_OFFSET ( 6, 0, .BEHIND. ) ;
#727 = ORIENTED_EDGE ( 'NONE', *, *, #565, .F. ) ;
#728 = CARTESIAN_POINT ( 'NONE',  ( 2.293411479329173996, 1.949649769329954374, 0.3900000000000000133 ) ) ;
#729 = FACE_BOUND ( 'NONE', #231, .T. ) ;
#730 = DIRECTION ( 'NONE',  ( -0.000000000000000000, -0.000000000000000000, 1.000000000000000000 ) ) ;
#731 = PRODUCT_RELATED_PRODUCT_CATEGORY ( 'detail', '', ( #127 ) ) ;
#732 = EDGE_CURVE ( 'NONE', #436, #99, #575, .T. ) ;
#733 = PLANE ( 'NONE',  #545 ) ;
#734 = DIRECTION ( 'NONE',  ( 0.000000000000000000, 0.000000000000000000, 1.000000000000000000 ) ) ;
#735 = ORIENTED_EDGE ( 'NONE', *, *, #338, .T. ) ;
#736 = CIRCLE ( 'NONE', #661, 0.09399999999999987532 ) ;
#737 = CARTESIAN_POINT ( 'NONE',  ( 1.093411479329173819, 1.320559274156401841, 0.3900000000000000133 ) ) ;
#738 = DIRECTION ( 'NONE',  ( 0.000000000000000000, 0.000000000000000000, 1.000000000000000000 ) ) ;
#739 = ORIENTED_EDGE ( 'NONE', *, *, #318, .F. ) ;
#740 = CARTESIAN_POINT ( 'NONE',  ( 1.599411479329173380, 1.080559274156498217, 0.1299999999999999212 ) ) ;
#741 = CARTESIAN_POINT ( 'NONE',  ( 0.9054114793291738739, 1.949649769329954374, 0.3900000000000000133 ) ) ;
#742 = EDGE_CURVE ( 'NONE', #88, #130, #164, .T. ) ;
#743 = DIRECTION ( 'NONE',  ( -0.000000000000000000, -0.000000000000000000, 1.000000000000000000 ) ) ;
#744 = DIRECTION ( 'NONE',  ( 0.7660444431189779024, 0.000000000000000000, 0.6427876096865394739 ) ) ;
#745 = EDGE_LOOP ( 'NONE', ( #268, #421 ) ) ;
#746 = CIRCLE ( 'NONE', #144, 0.05324999999999990158 ) ;
#747 = VECTOR ( 'NONE', #153, 39.37007874015748143 ) ;
#748 = CARTESIAN_POINT ( 'NONE',  ( 1.599411479329173380, 1.080559274156498217, 0.2549999999999998379 ) ) ;
#749 = CARTESIAN_POINT ( 'NONE',  ( 0.9461614793291739378, 1.320559274156401841, -0.1299999999999999767 ) ) ;
#750 = CARTESIAN_POINT ( 'NONE',  ( 1.052661479329173755, 1.320559274156401841, -0.1299999999999999767 ) ) ;
#751 = VERTEX_POINT ( 'NONE', #195 ) ;
#752 = CIRCLE ( 'NONE', #534, 0.05324999999999990158 ) ;
#753 = FACE_BOUND ( 'NONE', #292, .T. ) ;
#754 = LINE ( 'NONE', #190, #647 ) ;
#755 = ORIENTED_EDGE ( 'NONE', *, *, #487, .F. ) ;
#756 = EDGE_CURVE ( 'NONE', #345, #436, #570, .T. ) ;
#757 = CARTESIAN_POINT ( 'NONE',  ( 0.7594114793291736332, 1.080559274156498217, 0.3900000000000000133 ) ) ;
#758 = ORIENTED_EDGE ( 'NONE', *, *, #531, .T. ) ;
#759 = CONICAL_SURFACE ( 'NONE', #325, 0.09400000000000001410, 0.8726646259971645447 ) ;
#760 = CARTESIAN_POINT ( 'NONE',  ( 0.7594114793291736332, 1.080559274156498217, -0.1300000000000000044 ) ) ;
#761 = AXIS2_PLACEMENT_3D ( 'NONE', #249, #617, #55 ) ;
#762 = ORGANIZATION ( 'UNSPECIFIED', 'UNSPECIFIED', '' ) ;
#763 = CARTESIAN_POINT ( 'NONE',  ( 2.199411479329174135, 1.949649769329954374, -0.1299999999999999767 ) ) ;
#764 = ORIENTED_EDGE ( 'NONE', *, *, #686, .F. ) ;
#765 = EDGE_CURVE ( 'NONE', #96, #362, #302, .T. ) ;
#766 = ORIENTED_EDGE ( 'NONE', *, *, #350, .T. ) ;
#767 = EDGE_LOOP ( 'NONE', ( #685, #470, #114, #764 ) ) ;
#768 = CARTESIAN_POINT ( 'NONE',  ( 0.9994114793291738463, 1.320559274156401841, -0.1299999999999999767 ) ) ;
#769 = CONICAL_SURFACE ( 'NONE', #25, 0.09399999999999987532, 0.8726646259971614361 ) ;
#770 = AXIS2_PLACEMENT_3D ( 'NONE', #371, #694, #642 ) ;
#771 = VERTEX_POINT ( 'NONE', #750 ) ;
#772 = DIRECTION ( 'NONE',  ( -7.805279981897896488E-15, 1.000000000000000000, 0.000000000000000000 ) ) ;
#773 = EDGE_CURVE ( 'NONE', #70, #666, #754, .T. ) ;
#774 = VECTOR ( 'NONE', #697, 39.37007874015748143 ) ;
#775 = LINE ( 'NONE', #330, #546 ) ;
#776 = CALENDAR_DATE ( 2025, 7, 3 ) ;
#777 = ORIENTED_EDGE ( 'NONE', *, *, #41, .F. ) ;
#778 = CARTESIAN_POINT ( 'NONE',  ( 0.9994114793291738463, 1.949649769329954374, 0.3900000000000000133 ) ) ;
#779 = DIRECTION ( 'NONE',  ( 0.000000000000000000, 0.000000000000000000, 1.000000000000000000 ) ) ;
#780 = PERSON_AND_ORGANIZATION_ROLE ( 'classification_officer' ) ;
#781 = ORIENTED_EDGE ( 'NONE', *, *, #85, .F. ) ;
#782 = CARTESIAN_POINT ( 'NONE',  ( 0.7594114793291736332, 1.080559274156498217, 0.3900000000000000133 ) ) ;
#783 = CARTESIAN_POINT ( 'NONE',  ( 2.199411479329174135, 1.949649769329954374, 0.3900000000000000133 ) ) ;
#784 = EDGE_LOOP ( 'NONE', ( #91, #677, #383, #29 ) ) ;
#785 = APPROVAL_STATUS ( 'not_yet_approved' ) ;
#786 = VERTEX_POINT ( 'NONE', #443 ) ;
#787 = DIRECTION ( 'NONE',  ( 0.7660444431189759040, 0.000000000000000000, 0.6427876096865419164 ) ) ;
#788 = AXIS2_PLACEMENT_3D ( 'NONE', #48, #730, #471 ) ;
#789 = EDGE_CURVE ( 'NONE', #279, #88, #809, .T. ) ;
#790 = ORIENTED_EDGE ( 'NONE', *, *, #686, .T. ) ;
#791 = DIRECTION ( 'NONE',  ( -0.000000000000000000, -0.000000000000000000, 1.000000000000000000 ) ) ;
#792 = EDGE_CURVE ( 'NONE', #393, #130, #250, .T. ) ;
#793 = CARTESIAN_POINT ( 'NONE',  ( -1.599411479329171826, -1.635104521743250938, 0.3900000000000000133 ) ) ;
#794 = DIRECTION ( 'NONE',  ( -0.000000000000000000, -0.000000000000000000, 1.000000000000000000 ) ) ;
#795 = CARTESIAN_POINT ( 'NONE',  ( 2.105411479329174274, 1.320559274156401841, 0.3900000000000000133 ) ) ;
#796 = CARTESIAN_POINT ( 'NONE',  ( 1.052661479329173755, 1.949649769329954374, 0.3900000000000000133 ) ) ;
#797 = AXIS2_PLACEMENT_3D ( 'NONE', #577, #512, #12 ) ;
#798 = APPROVAL ( #150, 'UNSPECIFIED' ) ;
#799 = AXIS2_PLACEMENT_3D ( 'NONE', #107, #284, #663 ) ;
#800 = EDGE_CURVE ( 'NONE', #287, #140, #69, .T. ) ;
#801 = FACE_OUTER_BOUND ( 'NONE', #317, .T. ) ;
#802 = LINE ( 'NONE', #420, #619 ) ;
#803 = VECTOR ( 'NONE', #385, 39.37007874015748143 ) ;
#804 = FACE_OUTER_BOUND ( 'NONE', #497, .T. ) ;
#805 = DIRECTION ( 'NONE',  ( -0.000000000000000000, -0.000000000000000000, 1.000000000000000000 ) ) ;
#806 = VERTEX_POINT ( 'NONE', #379 ) ;
#807 = VERTEX_POINT ( 'NONE', #639 ) ;
#808 = DIRECTION ( 'NONE',  ( -0.7660444431189779024, 9.381338752702729548E-17, 0.6427876096865394739 ) ) ;
#809 = LINE ( 'NONE', #200, #505 ) ;
#810 = EDGE_LOOP ( 'NONE', ( #713, #566, #576, #581 ) ) ;
ENDSEC;
END-ISO-10303-21;
