ISO-10303-21;
HEADER;
FILE_DESCRIPTION (( 'STEP AP203' ),
    '1' );
FILE_NAME ('Motor arm cylinder S - 002_Default_sldprt.STEP',
    '2025-03-08T04:50:48',
    ( '' ),
    ( '' ),
    'SwSTEP 2.0',
    'SolidWorks 2024',
    '' );
FILE_SCHEMA (( 'CONFIG_CONTROL_DESIGN' ));
ENDSEC;

DATA;
#1 = CIRCLE ( 'NONE', #232, 0.4434802721846764495 ) ;
#2 = VECTOR ( 'NONE', #186, 39.37007874015748143 ) ;
#3 = CC_DESIGN_PERSON_AND_ORGANIZATION_ASSIGNMENT ( #163, #183, ( #138 ) ) ;
#4 = CARTESIAN_POINT ( 'NONE',  ( 0.000000000000000000, 0.000000000000000000, 0.000000000000000000 ) ) ;
#5 = COORDINATED_UNIVERSAL_TIME_OFFSET ( 6, 0, .BEHIND. ) ;
#6 = EDGE_CURVE ( 'NONE', #130, #131, #203, .T. ) ;
#7 = PERSON_AND_ORGANIZATION_ROLE ( 'design_supplier' ) ;
#8 = ORIENTED_EDGE ( 'NONE', *, *, #225, .F. ) ;
#9 = APPROVAL_ROLE ( '' ) ;
#10 = ORIENTED_EDGE ( 'NONE', *, *, #225, .T. ) ;
#11 = AXIS2_PLACEMENT_3D ( 'NONE', #17, #172, #62 ) ;
#12 = ORIENTED_EDGE ( 'NONE', *, *, #162, .F. ) ;
#13 = DIRECTION ( 'NONE',  ( 0.000000000000000000, 0.000000000000000000, 1.000000000000000000 ) ) ;
#14 = CARTESIAN_POINT ( 'NONE',  ( 4.321905763270829803E-18, 0.000000000000000000, 0.3150000000000000022 ) ) ;
#15 = VECTOR ( 'NONE', #61, 39.37007874015748143 ) ;
#16 = DIRECTION ( 'NONE',  ( 1.000000000000000000, 0.000000000000000000, 0.000000000000000000 ) ) ;
#17 = CARTESIAN_POINT ( 'NONE',  ( 4.321905763270829803E-18, 0.000000000000000000, -0.1049999999999999961 ) ) ;
#18 = DIRECTION ( 'NONE',  ( -0.000000000000000000, -0.000000000000000000, 1.000000000000000000 ) ) ;
#19 = AXIS2_PLACEMENT_3D ( 'NONE', #157, #208, #57 ) ;
#20 = APPROVAL_PERSON_ORGANIZATION ( #86, #92, #26 ) ;
#21 = DIRECTION ( 'NONE',  ( 1.000000000000000000, 0.000000000000000000, 0.000000000000000000 ) ) ;
#22 = EDGE_CURVE ( 'NONE', #131, #240, #95, .T. ) ;
#23 = CARTESIAN_POINT ( 'NONE',  ( 0.000000000000000000, 0.000000000000000000, -0.1049999999999999684 ) ) ;
#24 = DIRECTION ( 'NONE',  ( 1.000000000000000000, 0.000000000000000000, 0.000000000000000000 ) ) ;
#25 = PRODUCT_DEFINITION_FORMATION_WITH_SPECIFIED_SOURCE ( 'ANY', '', #138, .NOT_KNOWN. ) ;
#26 = APPROVAL_ROLE ( '' ) ;
#27 = PERSON_AND_ORGANIZATION ( #68, #105 ) ;
#28 = APPLICATION_CONTEXT ( 'configuration controlled 3d designs of mechanical parts and assemblies' ) ;
#29 = ORIENTED_EDGE ( 'NONE', *, *, #176, .F. ) ;
#30 = ORIENTED_EDGE ( 'NONE', *, *, #112, .F. ) ;
#31 = CC_DESIGN_PERSON_AND_ORGANIZATION_ASSIGNMENT ( #164, #215, ( #155 ) ) ;
#32 = ORIENTED_EDGE ( 'NONE', *, *, #22, .F. ) ;
#33 = FACE_OUTER_BOUND ( 'NONE', #184, .T. ) ;
#34 = CARTESIAN_POINT ( 'NONE',  ( 0.4434802721846764495, 5.431066958159609937E-17, -0.1049999999999999961 ) ) ;
#35 = LOCAL_TIME ( 22, 50, 48.00000000000000000, #241 ) ;
#36 = DIRECTION ( 'NONE',  ( 1.000000000000000000, 0.000000000000000000, 0.000000000000000000 ) ) ;
#37 = PRODUCT_DEFINITION_SHAPE ( 'NONE', 'NONE',  #155 ) ;
#38 = DIRECTION ( 'NONE',  ( 1.000000000000000000, 0.000000000000000000, 0.000000000000000000 ) ) ;
#39 = CARTESIAN_POINT ( 'NONE',  ( 4.321905763270829803E-18, 0.000000000000000000, 0.3150000000000000022 ) ) ;
#40 = AXIS2_PLACEMENT_3D ( 'NONE', #231, #136, #139 ) ;
#41 = CARTESIAN_POINT ( 'NONE',  ( 0.000000000000000000, 0.000000000000000000, 0.3150000000000000022 ) ) ;
#42 = APPROVAL_PERSON_ORGANIZATION ( #125, #80, #235 ) ;
#43 = DATE_AND_TIME ( #103, #200 ) ;
#44 = LENGTH_MEASURE_WITH_UNIT ( LENGTH_MEASURE( 0.02539999999999999897 ), #158 );
#45 = ADVANCED_FACE ( 'NONE', ( #33 ), #114, .T. ) ;
#46 =( NAMED_UNIT ( * ) SI_UNIT ( $, .STERADIAN. ) SOLID_ANGLE_UNIT ( ) );
#47 = AXIS2_PLACEMENT_3D ( 'NONE', #14, #94, #171 ) ;
#48 = CC_DESIGN_SECURITY_CLASSIFICATION ( #126, ( #25 ) ) ;
#49 = DIRECTION ( 'NONE',  ( 1.000000000000000000, 0.000000000000000000, 0.000000000000000000 ) ) ;
#50 = PERSON_AND_ORGANIZATION ( #68, #105 ) ;
#51 = DATE_AND_TIME ( #222, #35 ) ;
#52 = EDGE_CURVE ( 'NONE', #72, #71, #216, .T. ) ;
#53 = EDGE_LOOP ( 'NONE', ( #29, #151, #242, #133 ) ) ;
#54 = CIRCLE ( 'NONE', #249, 0.1250000000000000000 ) ;
#55 = ORIENTED_EDGE ( 'NONE', *, *, #252, .T. ) ;
#56 = ADVANCED_FACE ( 'NONE', ( #107 ), #119, .F. ) ;
#57 = DIRECTION ( 'NONE',  ( 1.000000000000000000, 0.000000000000000000, -0.000000000000000000 ) ) ;
#58 = FACE_OUTER_BOUND ( 'NONE', #169, .T. ) ;
#59 = LOCAL_TIME ( 22, 50, 48.00000000000000000, #149 ) ;
#60 = APPROVAL_DATE_TIME ( #51, #84 ) ;
#61 = DIRECTION ( 'NONE',  ( -0.000000000000000000, -0.000000000000000000, 1.000000000000000000 ) ) ;
#62 = DIRECTION ( 'NONE',  ( 1.000000000000000000, 0.000000000000000000, -0.000000000000000000 ) ) ;
#63 = CARTESIAN_POINT ( 'NONE',  ( 0.000000000000000000, 0.000000000000000000, -0.1049999999999999684 ) ) ;
#64 = PRODUCT_RELATED_PRODUCT_CATEGORY ( 'detail', '', ( #138 ) ) ;
#65 = AXIS2_PLACEMENT_3D ( 'NONE', #4, #213, #24 ) ;
#66 = ADVANCED_FACE ( 'NONE', ( #76 ), #101, .T. ) ;
#67 = PERSON_AND_ORGANIZATION ( #68, #105 ) ;
#68 = PERSON ( 'UNSPECIFIED', 'UNSPECIFIED', 'UNSPECIFIED', ('UNSPECIFIED'), ('UNSPECIFIED'), ('UNSPECIFIED') ) ;
#69 = ORIENTED_EDGE ( 'NONE', *, *, #140, .F. ) ;
#70 = APPLICATION_PROTOCOL_DEFINITION ( 'international standard', 'config_control_design', 1994, #28 ) ;
#71 = VERTEX_POINT ( 'NONE', #142 ) ;
#72 = VERTEX_POINT ( 'NONE', #159 ) ;
#73 = CC_DESIGN_PERSON_AND_ORGANIZATION_ASSIGNMENT ( #67, #181, ( #25 ) ) ;
#74 = DESIGN_CONTEXT ( 'detailed design', #28, 'design' ) ;
#75 = DIRECTION ( 'NONE',  ( 0.000000000000000000, 0.000000000000000000, 1.000000000000000000 ) ) ;
#76 = FACE_OUTER_BOUND ( 'NONE', #196, .T. ) ;
#77 = CARTESIAN_POINT ( 'NONE',  ( -0.4434802721846764495, 0.000000000000000000, 0.3150000000000000022 ) ) ;
#78 = AXIS2_PLACEMENT_3D ( 'NONE', #246, #147, #49 ) ;
#79 =( GEOMETRIC_REPRESENTATION_CONTEXT ( 3 ) GLOBAL_UNCERTAINTY_ASSIGNED_CONTEXT ( ( #177 ) ) GLOBAL_UNIT_ASSIGNED_CONTEXT ( ( #214, #82, #46 ) ) REPRESENTATION_CONTEXT ( 'NONE', 'WORKASPACE' ) );
#80 = APPROVAL ( #194, 'UNSPECIFIED' ) ;
#81 = CYLINDRICAL_SURFACE ( 'NONE', #93, 0.1250000000000000000 ) ;
#82 =( NAMED_UNIT ( * ) PLANE_ANGLE_UNIT ( ) SI_UNIT ( $, .RADIAN. ) );
#83 = CC_DESIGN_APPROVAL ( #84, ( #126 ) ) ;
#84 = APPROVAL ( #108, 'UNSPECIFIED' ) ;
#85 = COORDINATED_UNIVERSAL_TIME_OFFSET ( 6, 0, .BEHIND. ) ;
#86 = PERSON_AND_ORGANIZATION ( #68, #105 ) ;
#87 = ORIENTED_EDGE ( 'NONE', *, *, #6, .F. ) ;
#88 = APPROVAL_DATE_TIME ( #178, #92 ) ;
#89 = EDGE_LOOP ( 'NONE', ( #109, #182, #55, #111 ) ) ;
#90 = VERTEX_POINT ( 'NONE', #189 ) ;
#91 = ORIENTED_EDGE ( 'NONE', *, *, #179, .T. ) ;
#92 = APPROVAL ( #129, 'UNSPECIFIED' ) ;
#93 = AXIS2_PLACEMENT_3D ( 'NONE', #188, #210, #16 ) ;
#94 = DIRECTION ( 'NONE',  ( -0.000000000000000000, -0.000000000000000000, -1.000000000000000000 ) ) ;
#95 = CIRCLE ( 'NONE', #141, 0.4434802721846764495 ) ;
#96 = DIMENSIONAL_EXPONENTS ( 1.000000000000000000, 0.000000000000000000, 0.000000000000000000, 0.000000000000000000, 0.000000000000000000, 0.000000000000000000, 0.000000000000000000 ) ;
#97 = CARTESIAN_POINT ( 'NONE',  ( 4.321905763270829803E-18, 0.000000000000000000, -0.1049999999999999961 ) ) ;
#98 = DIRECTION ( 'NONE',  ( 1.000000000000000000, 0.000000000000000000, 0.000000000000000000 ) ) ;
#99 = DIRECTION ( 'NONE',  ( -1.000000000000000000, 0.000000000000000000, 0.000000000000000000 ) ) ;
#100 = LINE ( 'NONE', #115, #236 ) ;
#101 = CYLINDRICAL_SURFACE ( 'NONE', #205, 0.4434802721846764495 ) ;
#102 = MANIFOLD_SOLID_BREP ( 'Cut-Extrude1', #161 ) ;
#103 = CALENDAR_DATE ( 2025, 7, 3 ) ;
#104 = CIRCLE ( 'NONE', #185, 0.4434802721846764495 ) ;
#105 = ORGANIZATION ( 'UNSPECIFIED', 'UNSPECIFIED', '' ) ;
#106 = COORDINATED_UNIVERSAL_TIME_OFFSET ( 6, 0, .BEHIND. ) ;
#107 = FACE_OUTER_BOUND ( 'NONE', #89, .T. ) ;
#108 = APPROVAL_STATUS ( 'not_yet_approved' ) ;
#109 = ORIENTED_EDGE ( 'NONE', *, *, #229, .F. ) ;
#110 = CALENDAR_DATE ( 2025, 7, 3 ) ;
#111 = ORIENTED_EDGE ( 'NONE', *, *, #140, .T. ) ;
#112 = EDGE_CURVE ( 'NONE', #130, #90, #104, .T. ) ;
#113 = VERTEX_POINT ( 'NONE', #120 ) ;
#114 = CYLINDRICAL_SURFACE ( 'NONE', #47, 0.4434802721846764495 ) ;
#115 = CARTESIAN_POINT ( 'NONE',  ( 0.4434802721846764495, 5.431066958159609937E-17, 0.3150000000000000022 ) ) ;
#116 = LOCAL_TIME ( 22, 50, 48.00000000000000000, #85 ) ;
#117 = ADVANCED_BREP_SHAPE_REPRESENTATION ( 'Motor arm cylinder S - 002_Default_sldprt', ( #102, #65 ), #79 ) ;
#118 = DIRECTION ( 'NONE',  ( 0.000000000000000000, 0.000000000000000000, 1.000000000000000000 ) ) ;
#119 = CYLINDRICAL_SURFACE ( 'NONE', #245, 0.1250000000000000000 ) ;
#120 = CARTESIAN_POINT ( 'NONE',  ( 0.1250000000000000000, 0.000000000000000000, 0.3150000000000000022 ) ) ;
#121 = DIRECTION ( 'NONE',  ( 0.000000000000000000, 0.000000000000000000, 1.000000000000000000 ) ) ;
#122 = CC_DESIGN_DATE_AND_TIME_ASSIGNMENT ( #195, #165, ( #155 ) ) ;
#123 = ADVANCED_FACE ( 'NONE', ( #251, #58 ), #226, .F. ) ;
#124 = AXIS2_PLACEMENT_3D ( 'NONE', #97, #135, #36 ) ;
#125 = PERSON_AND_ORGANIZATION ( #68, #105 ) ;
#126 = SECURITY_CLASSIFICATION ( '', '', #219 ) ;
#127 = ORIENTED_EDGE ( 'NONE', *, *, #209, .F. ) ;
#128 = ADVANCED_FACE ( 'NONE', ( #175 ), #81, .F. ) ;
#129 = APPROVAL_STATUS ( 'not_yet_approved' ) ;
#130 = VERTEX_POINT ( 'NONE', #77 ) ;
#131 = VERTEX_POINT ( 'NONE', #212 ) ;
#132 = CC_DESIGN_PERSON_AND_ORGANIZATION_ASSIGNMENT ( #148, #7, ( #25 ) ) ;
#133 = ORIENTED_EDGE ( 'NONE', *, *, #252, .F. ) ;
#134 = ORIENTED_EDGE ( 'NONE', *, *, #176, .T. ) ;
#135 = DIRECTION ( 'NONE',  ( 0.000000000000000000, 0.000000000000000000, 1.000000000000000000 ) ) ;
#136 = DIRECTION ( 'NONE',  ( 0.000000000000000000, 0.000000000000000000, 1.000000000000000000 ) ) ;
#137 = CARTESIAN_POINT ( 'NONE',  ( 0.1250000000000000000, 0.000000000000000000, -0.1049999999999999684 ) ) ;
#138 = PRODUCT ( 'Motor arm cylinder S - 002_Default_sldprt', 'Motor arm cylinder S - 002_Default_sldprt', '', ( #180 ) ) ;
#139 = DIRECTION ( 'NONE',  ( 1.000000000000000000, 0.000000000000000000, 0.000000000000000000 ) ) ;
#140 = EDGE_CURVE ( 'NONE', #113, #150, #54, .T. ) ;
#141 = AXIS2_PLACEMENT_3D ( 'NONE', #201, #13, #187 ) ;
#142 = CARTESIAN_POINT ( 'NONE',  ( -0.1250000000000000000, 1.530808498934191509E-17, -0.1049999999999999684 ) ) ;
#143 = CIRCLE ( 'NONE', #40, 0.1250000000000000000 ) ;
#144 = CC_DESIGN_APPROVAL ( #80, ( #155 ) ) ;
#145 = DATE_TIME_ROLE ( 'classification_date' ) ;
#146 = APPLICATION_CONTEXT ( 'configuration controlled 3d designs of mechanical parts and assemblies' ) ;
#147 = DIRECTION ( 'NONE',  ( 0.000000000000000000, 0.000000000000000000, 1.000000000000000000 ) ) ;
#148 = PERSON_AND_ORGANIZATION ( #68, #105 ) ;
#149 = COORDINATED_UNIVERSAL_TIME_OFFSET ( 6, 0, .BEHIND. ) ;
#150 = VERTEX_POINT ( 'NONE', #247 ) ;
#151 = ORIENTED_EDGE ( 'NONE', *, *, #229, .T. ) ;
#152 = LOCAL_TIME ( 22, 50, 48.00000000000000000, #106 ) ;
#153 = ORIENTED_EDGE ( 'NONE', *, *, #179, .F. ) ;
#154 = FACE_BOUND ( 'NONE', #217, .T. ) ;
#155 = PRODUCT_DEFINITION ( 'UNKNOWN', '', #25, #74 ) ;
#156 = DIRECTION ( 'NONE',  ( -0.000000000000000000, -0.000000000000000000, 1.000000000000000000 ) ) ;
#157 = CARTESIAN_POINT ( 'NONE',  ( 4.321905763270829803E-18, 0.000000000000000000, 0.3150000000000000022 ) ) ;
#158 =( LENGTH_UNIT ( ) NAMED_UNIT ( * ) SI_UNIT ( $, .METRE. ) );
#159 = CARTESIAN_POINT ( 'NONE',  ( 0.1250000000000000000, 0.000000000000000000, -0.1049999999999999684 ) ) ;
#160 = APPLICATION_PROTOCOL_DEFINITION ( 'international standard', 'config_control_design', 1994, #146 ) ;
#161 = CLOSED_SHELL ( 'NONE', ( #128, #66, #45, #221, #123, #56 ) ) ;
#162 = EDGE_CURVE ( 'NONE', #150, #113, #143, .T. ) ;
#163 = PERSON_AND_ORGANIZATION ( #68, #105 ) ;
#164 = PERSON_AND_ORGANIZATION ( #68, #105 ) ;
#165 = DATE_TIME_ROLE ( 'creation_date' ) ;
#166 = AXIS2_PLACEMENT_3D ( 'NONE', #63, #121, #98 ) ;
#167 = DATE_AND_TIME ( #197, #116 ) ;
#168 = EDGE_LOOP ( 'NONE', ( #220, #134 ) ) ;
#169 = EDGE_LOOP ( 'NONE', ( #32, #8 ) ) ;
#170 = ORIENTED_EDGE ( 'NONE', *, *, #22, .T. ) ;
#171 = DIRECTION ( 'NONE',  ( -1.000000000000000000, 0.000000000000000000, 0.000000000000000000 ) ) ;
#172 = DIRECTION ( 'NONE',  ( 0.000000000000000000, 0.000000000000000000, 1.000000000000000000 ) ) ;
#173 = FACE_OUTER_BOUND ( 'NONE', #243, .T. ) ;
#174 = CARTESIAN_POINT ( 'NONE',  ( 4.321905763270829803E-18, 0.000000000000000000, 0.3150000000000000022 ) ) ;
#175 = FACE_OUTER_BOUND ( 'NONE', #53, .T. ) ;
#176 = EDGE_CURVE ( 'NONE', #71, #72, #218, .T. ) ;
#177 = UNCERTAINTY_MEASURE_WITH_UNIT (LENGTH_MEASURE( 1.000000000000000082E-05 ), #214, 'distance_accuracy_value', 'NONE');
#178 = DATE_AND_TIME ( #110, #152 ) ;
#179 = EDGE_CURVE ( 'NONE', #90, #130, #1, .T. ) ;
#180 = MECHANICAL_CONTEXT ( 'NONE', #146, 'mechanical' ) ;
#181 = PERSON_AND_ORGANIZATION_ROLE ( 'creator' ) ;
#182 = ORIENTED_EDGE ( 'NONE', *, *, #52, .F. ) ;
#183 = PERSON_AND_ORGANIZATION_ROLE ( 'design_owner' ) ;
#184 = EDGE_LOOP ( 'NONE', ( #127, #30, #223, #170 ) ) ;
#185 = AXIS2_PLACEMENT_3D ( 'NONE', #174, #118, #21 ) ;
#186 = DIRECTION ( 'NONE',  ( -0.000000000000000000, -0.000000000000000000, -1.000000000000000000 ) ) ;
#187 = DIRECTION ( 'NONE',  ( 1.000000000000000000, 0.000000000000000000, 0.000000000000000000 ) ) ;
#188 = CARTESIAN_POINT ( 'NONE',  ( 0.000000000000000000, 0.000000000000000000, -0.1049999999999999684 ) ) ;
#189 = CARTESIAN_POINT ( 'NONE',  ( 0.4434802721846764495, 5.431066958159609937E-17, 0.3150000000000000022 ) ) ;
#190 = LINE ( 'NONE', #137, #234 ) ;
#191 = DIRECTION ( 'NONE',  ( -0.000000000000000000, -0.000000000000000000, -1.000000000000000000 ) ) ;
#192 = CARTESIAN_POINT ( 'NONE',  ( 4.321905763270829803E-18, 0.000000000000000000, 0.3150000000000000022 ) ) ;
#193 = CC_DESIGN_APPROVAL ( #92, ( #25 ) ) ;
#194 = APPROVAL_STATUS ( 'not_yet_approved' ) ;
#195 = DATE_AND_TIME ( #199, #59 ) ;
#196 = EDGE_LOOP ( 'NONE', ( #153, #198, #10, #87 ) ) ;
#197 = CALENDAR_DATE ( 2025, 7, 3 ) ;
#198 = ORIENTED_EDGE ( 'NONE', *, *, #209, .T. ) ;
#199 = CALENDAR_DATE ( 2025, 7, 3 ) ;
#200 = LOCAL_TIME ( 22, 50, 48.00000000000000000, #5 ) ;
#201 = CARTESIAN_POINT ( 'NONE',  ( 4.321905763270829803E-18, 0.000000000000000000, -0.1049999999999999961 ) ) ;
#202 = SHAPE_DEFINITION_REPRESENTATION ( #37, #117 ) ;
#203 = LINE ( 'NONE', #244, #2 ) ;
#204 = CARTESIAN_POINT ( 'NONE',  ( -0.1250000000000000000, 1.530808498934191509E-17, -0.1049999999999999684 ) ) ;
#205 = AXIS2_PLACEMENT_3D ( 'NONE', #192, #191, #99 ) ;
#206 = APPROVAL_PERSON_ORGANIZATION ( #27, #84, #9 ) ;
#207 = DIRECTION ( 'NONE',  ( -0.000000000000000000, -0.000000000000000000, -1.000000000000000000 ) ) ;
#208 = DIRECTION ( 'NONE',  ( 0.000000000000000000, 0.000000000000000000, 1.000000000000000000 ) ) ;
#209 = EDGE_CURVE ( 'NONE', #90, #240, #100, .T. ) ;
#210 = DIRECTION ( 'NONE',  ( -0.000000000000000000, -0.000000000000000000, 1.000000000000000000 ) ) ;
#211 = CIRCLE ( 'NONE', #124, 0.4434802721846764495 ) ;
#212 = CARTESIAN_POINT ( 'NONE',  ( -0.4434802721846764495, 0.000000000000000000, -0.1049999999999999961 ) ) ;
#213 = DIRECTION ( 'NONE',  ( 0.000000000000000000, 0.000000000000000000, 1.000000000000000000 ) ) ;
#214 =( CONVERSION_BASED_UNIT ( 'INCH', #44 ) LENGTH_UNIT ( ) NAMED_UNIT ( #96 ) );
#215 = PERSON_AND_ORGANIZATION_ROLE ( 'creator' ) ;
#216 = CIRCLE ( 'NONE', #78, 0.1250000000000000000 ) ;
#217 = EDGE_LOOP ( 'NONE', ( #69, #12 ) ) ;
#218 = CIRCLE ( 'NONE', #166, 0.1250000000000000000 ) ;
#219 = SECURITY_CLASSIFICATION_LEVEL ( 'unclassified' ) ;
#220 = ORIENTED_EDGE ( 'NONE', *, *, #52, .T. ) ;
#221 = ADVANCED_FACE ( 'NONE', ( #154, #173 ), #248, .T. ) ;
#222 = CALENDAR_DATE ( 2025, 7, 3 ) ;
#223 = ORIENTED_EDGE ( 'NONE', *, *, #6, .T. ) ;
#224 = ORIENTED_EDGE ( 'NONE', *, *, #112, .T. ) ;
#225 = EDGE_CURVE ( 'NONE', #240, #131, #211, .T. ) ;
#226 = PLANE ( 'NONE',  #11 ) ;
#227 = DIRECTION ( 'NONE',  ( 1.000000000000000000, 0.000000000000000000, 0.000000000000000000 ) ) ;
#228 = LINE ( 'NONE', #204, #15 ) ;
#229 = EDGE_CURVE ( 'NONE', #71, #150, #228, .T. ) ;
#230 = DIRECTION ( 'NONE',  ( 1.000000000000000000, 0.000000000000000000, 0.000000000000000000 ) ) ;
#231 = CARTESIAN_POINT ( 'NONE',  ( 0.000000000000000000, 0.000000000000000000, 0.3150000000000000022 ) ) ;
#232 = AXIS2_PLACEMENT_3D ( 'NONE', #39, #250, #38 ) ;
#233 = CC_DESIGN_DATE_AND_TIME_ASSIGNMENT ( #167, #145, ( #126 ) ) ;
#234 = VECTOR ( 'NONE', #18, 39.37007874015748143 ) ;
#235 = APPROVAL_ROLE ( '' ) ;
#236 = VECTOR ( 'NONE', #207, 39.37007874015748143 ) ;
#237 = CC_DESIGN_PERSON_AND_ORGANIZATION_ASSIGNMENT ( #50, #238, ( #126 ) ) ;
#238 = PERSON_AND_ORGANIZATION_ROLE ( 'classification_officer' ) ;
#239 = APPROVAL_DATE_TIME ( #43, #80 ) ;
#240 = VERTEX_POINT ( 'NONE', #34 ) ;
#241 = COORDINATED_UNIVERSAL_TIME_OFFSET ( 6, 0, .BEHIND. ) ;
#242 = ORIENTED_EDGE ( 'NONE', *, *, #162, .T. ) ;
#243 = EDGE_LOOP ( 'NONE', ( #224, #91 ) ) ;
#244 = CARTESIAN_POINT ( 'NONE',  ( -0.4434802721846764495, 0.000000000000000000, 0.3150000000000000022 ) ) ;
#245 = AXIS2_PLACEMENT_3D ( 'NONE', #23, #156, #227 ) ;
#246 = CARTESIAN_POINT ( 'NONE',  ( 0.000000000000000000, 0.000000000000000000, -0.1049999999999999684 ) ) ;
#247 = CARTESIAN_POINT ( 'NONE',  ( -0.1250000000000000000, 1.530808498934191509E-17, 0.3150000000000000022 ) ) ;
#248 = PLANE ( 'NONE',  #19 ) ;
#249 = AXIS2_PLACEMENT_3D ( 'NONE', #41, #75, #230 ) ;
#250 = DIRECTION ( 'NONE',  ( 0.000000000000000000, 0.000000000000000000, 1.000000000000000000 ) ) ;
#251 = FACE_BOUND ( 'NONE', #168, .T. ) ;
#252 = EDGE_CURVE ( 'NONE', #72, #113, #190, .T. ) ;
ENDSEC;
END-ISO-10303-21;
