ISO-10303-21;
HEADER;
FILE_DESCRIPTION (( 'STEP AP203' ),
    '1' );
FILE_NAME ('Motor block -001_Default_sldprt.STEP',
    '2025-03-08T04:50:51',
    ( '' ),
    ( '' ),
    'SwSTEP 2.0',
    'SolidWorks 2024',
    '' );
FILE_SCHEMA (( 'CONFIG_CONTROL_DESIGN' ));
ENDSEC;

DATA;
#1 = VECTOR ( 'NONE', #755, 1000.000000000000000 ) ;
#2 = DIRECTION ( 'NONE',  ( 1.000000000000000000, 1.869918622334838533E-16, -0.000000000000000000 ) ) ;
#3 = AXIS2_PLACEMENT_3D ( 'NONE', #349, #270, #638 ) ;
#4 = CARTESIAN_POINT ( 'NONE',  ( 60.17824183444734842, -18.43244739742504734, -3.810014397679036158 ) ) ;
#5 = CARTESIAN_POINT ( 'NONE',  ( 37.58110913739601244, 24.56755260257495266, 41.90998560232096537 ) ) ;
#6 = ADVANCED_BREP_SHAPE_REPRESENTATION ( 'Motor block -001_Default_sldprt', ( #28, #853 ), #491 ) ;
#7 = FACE_BOUND ( 'NONE', #746, .T. ) ;
#8 = EDGE_CURVE ( 'NONE', #317, #793, #578, .T. ) ;
#9 = ORIENTED_EDGE ( 'NONE', *, *, #867, .F. ) ;
#10 = EDGE_CURVE ( 'NONE', #163, #201, #33, .T. ) ;
#11 = CARTESIAN_POINT ( 'NONE',  ( -19.82175816555266579, 45.62355132067006735, -13.97001439767903896 ) ) ;
#12 = DIRECTION ( 'NONE',  ( 1.000000000000000000, 3.414809992080328037E-16, 0.000000000000000000 ) ) ;
#13 = ORIENTED_EDGE ( 'NONE', *, *, #232, .F. ) ;
#14 = EDGE_CURVE ( 'NONE', #886, #60, #436, .T. ) ;
#15 = LOCAL_TIME ( 22, 50, 51.00000000000000000, #774 ) ;
#16 = LINE ( 'NONE', #868, #911 ) ;
#17 = CARTESIAN_POINT ( 'NONE',  ( -19.82175816555265513, -18.43244739742504734, 41.90998560232096537 ) ) ;
#18 = VERTEX_POINT ( 'NONE', #11 ) ;
#19 = CIRCLE ( 'NONE', #540, 11.99999999999999645 ) ;
#20 = DIRECTION ( 'NONE',  ( 0.000000000000000000, -1.000000000000000000, 0.000000000000000000 ) ) ;
#21 = CARTESIAN_POINT ( 'NONE',  ( -19.82175816555266934, 55.78355132067007105, 41.90998560232096537 ) ) ;
#22 = ORIENTED_EDGE ( 'NONE', *, *, #532, .F. ) ;
#23 = ORIENTED_EDGE ( 'NONE', *, *, #799, .T. ) ;
#24 = LINE ( 'NONE', #440, #125 ) ;
#25 = DIRECTION ( 'NONE',  ( -1.000000000000000000, 0.000000000000000000, 0.000000000000000000 ) ) ;
#26 = EDGE_CURVE ( 'NONE', #376, #756, #690, .T. ) ;
#27 = ORIENTED_EDGE ( 'NONE', *, *, #711, .T. ) ;
#28 = MANIFOLD_SOLID_BREP ( 'Cut-Extrude5', #430 ) ;
#29 = LINE ( 'NONE', #872, #47 ) ;
#30 = PRODUCT_DEFINITION_FORMATION_WITH_SPECIFIED_SOURCE ( 'ANY', '', #35, .NOT_KNOWN. ) ;
#31 = CARTESIAN_POINT ( 'NONE',  ( 37.58110913739601244, 24.56755260257495266, -13.97001439767903896 ) ) ;
#32 = ORIENTED_EDGE ( 'NONE', *, *, #689, .F. ) ;
#33 = CIRCLE ( 'NONE', #554, 6.999999999999995559 ) ;
#34 = VECTOR ( 'NONE', #191, 1000.000000000000000 ) ;
#35 = PRODUCT ( 'Motor block -001_Default_sldprt', 'Motor block -001_Default_sldprt', '', ( #328 ) ) ;
#36 = CARTESIAN_POINT ( 'NONE',  ( 55.96983204073667650, 55.78355132067005684, 41.90998560232096537 ) ) ;
#37 = DIRECTION ( 'NONE',  ( -1.445602896647339656E-16, 1.000000000000000000, 0.000000000000000000 ) ) ;
#38 = CARTESIAN_POINT ( 'NONE',  ( 50.01824183444733762, 50.78355132067007105, 36.90998560232096537 ) ) ;
#39 = ORIENTED_EDGE ( 'NONE', *, *, #350, .T. ) ;
#40 = VERTEX_POINT ( 'NONE', #652 ) ;
#41 = FACE_OUTER_BOUND ( 'NONE', #789, .T. ) ;
#42 =( LENGTH_UNIT ( ) NAMED_UNIT ( * ) SI_UNIT ( .MILLI., .METRE. ) );
#43 = VERTEX_POINT ( 'NONE', #358 ) ;
#44 = CARTESIAN_POINT ( 'NONE',  ( 50.01824183444734473, -18.43244739742504734, 36.90998560232097248 ) ) ;
#45 = APPROVAL_STATUS ( 'not_yet_approved' ) ;
#46 = EDGE_LOOP ( 'NONE', ( #759, #696 ) ) ;
#47 = VECTOR ( 'NONE', #459, 1000.000000000000000 ) ;
#48 = CARTESIAN_POINT ( 'NONE',  ( -14.82175816555266934, 55.78355132067007105, 36.90998560232097248 ) ) ;
#49 = VECTOR ( 'NONE', #626, 1000.000000000000000 ) ;
#50 = EDGE_CURVE ( 'NONE', #318, #596, #496, .T. ) ;
#51 = APPROVAL_DATE_TIME ( #345, #327 ) ;
#52 = ORIENTED_EDGE ( 'NONE', *, *, #892, .F. ) ;
#53 = FACE_OUTER_BOUND ( 'NONE', #592, .T. ) ;
#54 = CARTESIAN_POINT ( 'NONE',  ( -19.82175816555265513, -18.43244739742504734, 36.90998560232097248 ) ) ;
#55 = APPROVAL_ROLE ( '' ) ;
#56 = ORIENTED_EDGE ( 'NONE', *, *, #69, .F. ) ;
#57 = EDGE_CURVE ( 'NONE', #40, #450, #16, .T. ) ;
#58 = FACE_OUTER_BOUND ( 'NONE', #874, .T. ) ;
#59 = DIRECTION ( 'NONE',  ( 0.000000000000000000, 0.000000000000000000, 1.000000000000000000 ) ) ;
#60 = VERTEX_POINT ( 'NONE', #509 ) ;
#61 = DIRECTION ( 'NONE',  ( -0.000000000000000000, -1.000000000000000000, 0.000000000000000000 ) ) ;
#62 = CARTESIAN_POINT ( 'NONE',  ( -19.82175816555266934, 24.56755260257494911, 13.96998560232096054 ) ) ;
#63 = VECTOR ( 'NONE', #61, 1000.000000000000000 ) ;
#64 = VECTOR ( 'NONE', #875, 1000.000000000000000 ) ;
#65 = APPROVAL_ROLE ( '' ) ;
#66 = VERTEX_POINT ( 'NONE', #291 ) ;
#67 = CARTESIAN_POINT ( 'NONE',  ( 30.58110913739601244, 24.56755260257495266, -13.97001439767903896 ) ) ;
#68 = APPLICATION_CONTEXT ( 'configuration controlled 3d designs of mechanical parts and assemblies' ) ;
#69 = EDGE_CURVE ( 'NONE', #66, #706, #477, .T. ) ;
#70 = ORIENTED_EDGE ( 'NONE', *, *, #517, .F. ) ;
#71 = DIRECTION ( 'NONE',  ( 1.000000000000000000, 0.000000000000000000, 0.000000000000000000 ) ) ;
#72 = CARTESIAN_POINT ( 'NONE',  ( 60.17824183444734842, -18.43244739742504734, 31.74998560232096523 ) ) ;
#73 = CARTESIAN_POINT ( 'NONE',  ( 55.17824183444734842, -18.43244739742504734, -3.810014397679036158 ) ) ;
#74 = ORIENTED_EDGE ( 'NONE', *, *, #8, .F. ) ;
#75 = AXIS2_PLACEMENT_3D ( 'NONE', #385, #600, #876 ) ;
#76 = CARTESIAN_POINT ( 'NONE',  ( -19.82175816555266934, 24.56755260257494911, 13.96998560232096054 ) ) ;
#77 = VECTOR ( 'NONE', #561, 1000.000000000000000 ) ;
#78 = DIRECTION ( 'NONE',  ( 1.000000000000000000, 0.000000000000000000, 0.000000000000000000 ) ) ;
#79 = DIRECTION ( 'NONE',  ( 0.000000000000000000, 0.000000000000000000, 1.000000000000000000 ) ) ;
#80 = CARTESIAN_POINT ( 'NONE',  ( 23.58110913739601244, 24.56755260257495266, -8.970014397679037188 ) ) ;
#81 = EDGE_CURVE ( 'NONE', #718, #886, #285, .T. ) ;
#82 = VERTEX_POINT ( 'NONE', #87 ) ;
#83 = DIRECTION ( 'NONE',  ( 0.000000000000000000, -0.000000000000000000, -1.000000000000000000 ) ) ;
#84 = DIRECTION ( 'NONE',  ( -1.000000000000000000, 0.000000000000000000, 0.000000000000000000 ) ) ;
#85 = LINE ( 'NONE', #676, #808 ) ;
#86 = LOCAL_TIME ( 22, 50, 51.00000000000000000, #836 ) ;
#87 = CARTESIAN_POINT ( 'NONE',  ( 55.17824183444732711, 45.62355132067006025, -3.810014397679035714 ) ) ;
#88 = VECTOR ( 'NONE', #448, 1000.000000000000000 ) ;
#89 = CYLINDRICAL_SURFACE ( 'NONE', #214, 10.16000000000000192 ) ;
#90 = ORIENTED_EDGE ( 'NONE', *, *, #609, .F. ) ;
#91 = AXIS2_PLACEMENT_3D ( 'NONE', #368, #802, #660 ) ;
#92 = ORIENTED_EDGE ( 'NONE', *, *, #671, .F. ) ;
#93 = EDGE_CURVE ( 'NONE', #596, #513, #880, .T. ) ;
#94 = DIRECTION ( 'NONE',  ( -1.000000000000000000, 0.000000000000000000, 0.000000000000000000 ) ) ;
#95 = DIRECTION ( 'NONE',  ( -1.869918622334838533E-16, 1.000000000000000000, -0.000000000000000000 ) ) ;
#96 = ORIENTED_EDGE ( 'NONE', *, *, #501, .F. ) ;
#97 = VERTEX_POINT ( 'NONE', #5 ) ;
#98 = CARTESIAN_POINT ( 'NONE',  ( 50.01824183444733052, 55.78355132067007105, 41.90998560232096537 ) ) ;
#99 = DIRECTION ( 'NONE',  ( 1.000000000000000000, 0.000000000000000000, 0.000000000000000000 ) ) ;
#100 = CARTESIAN_POINT ( 'NONE',  ( -14.80000000000000071, 24.56755260257494555, 13.96998560232096054 ) ) ;
#101 = VERTEX_POINT ( 'NONE', #370 ) ;
#102 = CARTESIAN_POINT ( 'NONE',  ( 60.17824183444733421, 50.78355132067007105, -8.970014397679040741 ) ) ;
#103 = CARTESIAN_POINT ( 'NONE',  ( 30.58110913739601244, 24.56755260257495266, 36.90998560232097248 ) ) ;
#104 = ORIENTED_EDGE ( 'NONE', *, *, #562, .F. ) ;
#105 = ADVANCED_FACE ( 'NONE', ( #726 ), #661, .F. ) ;
#106 = AXIS2_PLACEMENT_3D ( 'NONE', #643, #2, #858 ) ;
#107 = CIRCLE ( 'NONE', #228, 10.16000000000000014 ) ;
#108 = ORIENTED_EDGE ( 'NONE', *, *, #81, .T. ) ;
#109 = CARTESIAN_POINT ( 'NONE',  ( 55.17824183444733421, 45.62355132067006735, 41.90998560232096537 ) ) ;
#110 = DIRECTION ( 'NONE',  ( 1.000000000000000000, 1.869918622334838533E-16, -0.000000000000000000 ) ) ;
#111 = CARTESIAN_POINT ( 'NONE',  ( -19.82175816555266934, 24.56755260257494911, 6.969985602320964979 ) ) ;
#112 = EDGE_LOOP ( 'NONE', ( #625, #518, #483, #487 ) ) ;
#113 = EDGE_CURVE ( 'NONE', #317, #917, #825, .T. ) ;
#114 = DIRECTION ( 'NONE',  ( 1.000000000000000000, 0.000000000000000000, 0.000000000000000000 ) ) ;
#115 = LINE ( 'NONE', #394, #354 ) ;
#116 =( NAMED_UNIT ( * ) SI_UNIT ( $, .STERADIAN. ) SOLID_ANGLE_UNIT ( ) );
#117 = EDGE_LOOP ( 'NONE', ( #416, #814 ) ) ;
#118 = CYLINDRICAL_SURFACE ( 'NONE', #344, 11.99999999999999645 ) ;
#119 = DATE_AND_TIME ( #415, #15 ) ;
#120 = EDGE_LOOP ( 'NONE', ( #27, #155, #70, #348, #435, #813 ) ) ;
#121 = CARTESIAN_POINT ( 'NONE',  ( 55.96983204073667650, 55.78355132067005684, -13.97001439767903541 ) ) ;
#122 = AXIS2_PLACEMENT_3D ( 'NONE', #889, #188, #390 ) ;
#123 = AXIS2_PLACEMENT_3D ( 'NONE', #516, #538, #828 ) ;
#124 = FACE_OUTER_BOUND ( 'NONE', #824, .T. ) ;
#125 = VECTOR ( 'NONE', #887, 1000.000000000000000 ) ;
#126 = EDGE_CURVE ( 'NONE', #18, #450, #146, .T. ) ;
#127 = VERTEX_POINT ( 'NONE', #72 ) ;
#128 = DIRECTION ( 'NONE',  ( 1.000000000000000000, 0.000000000000000000, 0.000000000000000000 ) ) ;
#129 = DIRECTION ( 'NONE',  ( 0.000000000000000000, 0.000000000000000000, -1.000000000000000000 ) ) ;
#130 = APPROVAL ( #45, 'UNSPECIFIED' ) ;
#131 = DATE_AND_TIME ( #636, #212 ) ;
#132 = EDGE_LOOP ( 'NONE', ( #531, #878 ) ) ;
#133 = LINE ( 'NONE', #701, #63 ) ;
#134 = DIRECTION ( 'NONE',  ( -0.000000000000000000, -0.000000000000000000, 1.000000000000000000 ) ) ;
#135 = PERSON_AND_ORGANIZATION_ROLE ( 'design_owner' ) ;
#136 = ORIENTED_EDGE ( 'NONE', *, *, #846, .F. ) ;
#137 = DIRECTION ( 'NONE',  ( 1.000000000000000000, 0.000000000000000000, 0.000000000000000000 ) ) ;
#138 = ADVANCED_FACE ( 'NONE', ( #861, #351 ), #574, .F. ) ;
#139 = LOCAL_TIME ( 22, 50, 51.00000000000000000, #482 ) ;
#140 = CIRCLE ( 'NONE', #369, 11.99999999999999645 ) ;
#141 = AXIS2_PLACEMENT_3D ( 'NONE', #840, #684, #464 ) ;
#142 = DATE_TIME_ROLE ( 'classification_date' ) ;
#143 = ORIENTED_EDGE ( 'NONE', *, *, #361, .F. ) ;
#144 = CARTESIAN_POINT ( 'NONE',  ( 53.04089985260215911, 50.78355132067005684, -8.970014397679035412 ) ) ;
#145 = ADVANCED_FACE ( 'NONE', ( #787 ), #427, .F. ) ;
#146 = LINE ( 'NONE', #498, #494 ) ;
#147 = CYLINDRICAL_SURFACE ( 'NONE', #674, 5.160000000000001030 ) ;
#148 = ADVANCED_FACE ( 'NONE', ( #240 ), #670, .T. ) ;
#149 = EDGE_CURVE ( 'NONE', #885, #819, #582, .T. ) ;
#150 = DIRECTION ( 'NONE',  ( -0.000000000000000000, 0.000000000000000000, 1.000000000000000000 ) ) ;
#151 = DIRECTION ( 'NONE',  ( -0.000000000000000000, -1.000000000000000000, -0.000000000000000000 ) ) ;
#152 = VECTOR ( 'NONE', #425, 1000.000000000000000 ) ;
#153 = ORIENTED_EDGE ( 'NONE', *, *, #93, .F. ) ;
#154 = CARTESIAN_POINT ( 'NONE',  ( 50.01824183444734473, -18.43244739742503668, 31.74998560232096523 ) ) ;
#155 = ORIENTED_EDGE ( 'NONE', *, *, #26, .T. ) ;
#156 = DIRECTION ( 'NONE',  ( 1.000000000000000000, 0.000000000000000000, 0.000000000000000000 ) ) ;
#157 = CC_DESIGN_PERSON_AND_ORGANIZATION_ASSIGNMENT ( #279, #274, ( #303 ) ) ;
#158 = CARTESIAN_POINT ( 'NONE',  ( -14.80000000000000071, 24.56755260257494555, 1.969985602320964535 ) ) ;
#159 = ORIENTED_EDGE ( 'NONE', *, *, #604, .T. ) ;
#160 = APPLICATION_CONTEXT ( 'configuration controlled 3d designs of mechanical parts and assemblies' ) ;
#161 = DIRECTION ( 'NONE',  ( -1.000000000000000000, -0.000000000000000000, -0.000000000000000000 ) ) ;
#162 = DIRECTION ( 'NONE',  ( 1.000000000000000000, 0.000000000000000000, 0.000000000000000000 ) ) ;
#163 = VERTEX_POINT ( 'NONE', #610 ) ;
#164 = ADVANCED_FACE ( 'NONE', ( #251 ), #883, .F. ) ;
#165 = ORIENTED_EDGE ( 'NONE', *, *, #830, .T. ) ;
#166 = CIRCLE ( 'NONE', #552, 11.99999999999999645 ) ;
#167 = DIRECTION ( 'NONE',  ( -1.000000000000000000, 0.000000000000000000, 0.000000000000000000 ) ) ;
#168 = LINE ( 'NONE', #31, #645 ) ;
#169 = ORIENTED_EDGE ( 'NONE', *, *, #69, .T. ) ;
#170 = ORIENTED_EDGE ( 'NONE', *, *, #57, .F. ) ;
#171 = CARTESIAN_POINT ( 'NONE',  ( -19.82175816555266934, 24.56755260257494911, 20.96998560232095699 ) ) ;
#172 = CARTESIAN_POINT ( 'NONE',  ( -19.82175816555265513, -18.43244739742504734, 36.90998560232097248 ) ) ;
#173 = CARTESIAN_POINT ( 'NONE',  ( 50.01824183444733052, 55.78355132067007105, 41.90998560232096537 ) ) ;
#174 = ORIENTED_EDGE ( 'NONE', *, *, #149, .T. ) ;
#175 = ORIENTED_EDGE ( 'NONE', *, *, #501, .T. ) ;
#176 = PLANE ( 'NONE',  #807 ) ;
#177 = CARTESIAN_POINT ( 'NONE',  ( -14.82175816555266756, 45.62355132067006735, 36.90998560232097248 ) ) ;
#178 = ORIENTED_EDGE ( 'NONE', *, *, #26, .F. ) ;
#179 = LINE ( 'NONE', #172, #88 ) ;
#180 = ADVANCED_FACE ( 'NONE', ( #308 ), #594, .F. ) ;
#181 = ORGANIZATION ( 'UNSPECIFIED', 'UNSPECIFIED', '' ) ;
#182 = CARTESIAN_POINT ( 'NONE',  ( 55.17824183444734842, -18.43244739742504734, 41.90998560232096537 ) ) ;
#183 = ORIENTED_EDGE ( 'NONE', *, *, #609, .T. ) ;
#184 = AXIS2_PLACEMENT_3D ( 'NONE', #455, #744, #245 ) ;
#185 = CIRCLE ( 'NONE', #419, 5.160000000000000142 ) ;
#186 = LINE ( 'NONE', #916, #598 ) ;
#187 = LINE ( 'NONE', #465, #1 ) ;
#188 = DIRECTION ( 'NONE',  ( -0.000000000000000000, -1.000000000000000000, -0.000000000000000000 ) ) ;
#189 = CC_DESIGN_PERSON_AND_ORGANIZATION_ASSIGNMENT ( #847, #200, ( #30 ) ) ;
#190 = ORIENTED_EDGE ( 'NONE', *, *, #472, .T. ) ;
#191 = DIRECTION ( 'NONE',  ( -0.000000000000000000, -0.000000000000000000, -1.000000000000000000 ) ) ;
#192 = EDGE_LOOP ( 'NONE', ( #747, #306, #104, #535 ) ) ;
#193 = CARTESIAN_POINT ( 'NONE',  ( 37.58110913739601244, 24.56755260257495266, 36.90998560232097248 ) ) ;
#194 = EDGE_CURVE ( 'NONE', #917, #317, #140, .T. ) ;
#195 = PLANE ( 'NONE',  #141 ) ;
#196 = VERTEX_POINT ( 'NONE', #820 ) ;
#197 = CARTESIAN_POINT ( 'NONE',  ( 50.01824183444733052, 50.78355132067006394, -8.970014397679037188 ) ) ;
#198 = CARTESIAN_POINT ( 'NONE',  ( -19.82175816555266934, 24.56755260257494911, 13.96998560232096054 ) ) ;
#199 = CIRCLE ( 'NONE', #842, 6.999999999999995559 ) ;
#200 = PERSON_AND_ORGANIZATION_ROLE ( 'design_supplier' ) ;
#201 = VERTEX_POINT ( 'NONE', #803 ) ;
#202 = DIRECTION ( 'NONE',  ( 0.000000000000000000, -0.000000000000000000, -1.000000000000000000 ) ) ;
#203 = CYLINDRICAL_SURFACE ( 'NONE', #570, 6.999999999999999112 ) ;
#204 = SECURITY_CLASSIFICATION_LEVEL ( 'unclassified' ) ;
#205 = ORIENTED_EDGE ( 'NONE', *, *, #10, .T. ) ;
#206 = DIRECTION ( 'NONE',  ( 0.000000000000000000, 0.000000000000000000, -1.000000000000000000 ) ) ;
#207 = DIRECTION ( 'NONE',  ( 0.000000000000000000, -0.000000000000000000, -1.000000000000000000 ) ) ;
#208 = PERSON_AND_ORGANIZATION ( #615, #181 ) ;
#209 = ORIENTED_EDGE ( 'NONE', *, *, #502, .F. ) ;
#210 = EDGE_CURVE ( 'NONE', #101, #314, #179, .T. ) ;
#211 = FACE_BOUND ( 'NONE', #117, .T. ) ;
#212 = LOCAL_TIME ( 22, 50, 51.00000000000000000, #563 ) ;
#213 = VECTOR ( 'NONE', #25, 1000.000000000000000 ) ;
#214 = AXIS2_PLACEMENT_3D ( 'NONE', #154, #723, #12 ) ;
#215 = DIRECTION ( 'NONE',  ( -1.445602896647339656E-16, 1.000000000000000000, 0.000000000000000000 ) ) ;
#216 = DIRECTION ( 'NONE',  ( 0.000000000000000000, 0.000000000000000000, 1.000000000000000000 ) ) ;
#217 = EDGE_CURVE ( 'NONE', #738, #718, #29, .T. ) ;
#218 = CARTESIAN_POINT ( 'NONE',  ( 60.17824183444733421, 55.78355132067007105, 41.90998560232096537 ) ) ;
#219 = CARTESIAN_POINT ( 'NONE',  ( 30.58110913739601244, 24.56755260257495266, 41.90998560232096537 ) ) ;
#220 = ORIENTED_EDGE ( 'NONE', *, *, #423, .F. ) ;
#221 = EDGE_CURVE ( 'NONE', #870, #596, #522, .T. ) ;
#222 = DIRECTION ( 'NONE',  ( 0.000000000000000000, 0.000000000000000000, -1.000000000000000000 ) ) ;
#223 = DIRECTION ( 'NONE',  ( 1.000000000000000000, 0.000000000000000000, 0.000000000000000000 ) ) ;
#224 = ORIENTED_EDGE ( 'NONE', *, *, #673, .F. ) ;
#225 = APPROVAL ( #901, 'UNSPECIFIED' ) ;
#226 = AXIS2_PLACEMENT_3D ( 'NONE', #76, #355, #222 ) ;
#227 = CARTESIAN_POINT ( 'NONE',  ( -14.80000000000000071, 24.56755260257494911, 13.96998560232096054 ) ) ;
#228 = AXIS2_PLACEMENT_3D ( 'NONE', #319, #244, #302 ) ;
#229 = LINE ( 'NONE', #371, #353 ) ;
#230 = ORIENTED_EDGE ( 'NONE', *, *, #673, .T. ) ;
#231 = ORIENTED_EDGE ( 'NONE', *, *, #310, .F. ) ;
#232 = EDGE_CURVE ( 'NONE', #196, #738, #893, .T. ) ;
#233 = LINE ( 'NONE', #437, #152 ) ;
#234 = CARTESIAN_POINT ( 'NONE',  ( 50.01824183444734473, -18.43244739742504734, 36.90998560232097248 ) ) ;
#235 = DIRECTION ( 'NONE',  ( -0.000000000000000000, 0.000000000000000000, 1.000000000000000000 ) ) ;
#236 = DIRECTION ( 'NONE',  ( -0.000000000000000000, 0.000000000000000000, 1.000000000000000000 ) ) ;
#237 = ORIENTED_EDGE ( 'NONE', *, *, #892, .T. ) ;
#238 = ORIENTED_EDGE ( 'NONE', *, *, #711, .F. ) ;
#239 = FACE_OUTER_BOUND ( 'NONE', #357, .T. ) ;
#240 = FACE_OUTER_BOUND ( 'NONE', #112, .T. ) ;
#241 = CYLINDRICAL_SURFACE ( 'NONE', #536, 5.159999999999998366 ) ;
#242 = ORIENTED_EDGE ( 'NONE', *, *, #481, .F. ) ;
#243 = EDGE_CURVE ( 'NONE', #43, #376, #751, .T. ) ;
#244 = DIRECTION ( 'NONE',  ( 0.000000000000000000, -0.000000000000000000, -1.000000000000000000 ) ) ;
#245 = DIRECTION ( 'NONE',  ( 1.000000000000000000, 0.000000000000000000, 0.000000000000000000 ) ) ;
#246 = CARTESIAN_POINT ( 'NONE',  ( 50.01824183444734473, -18.43244739742505089, -3.810014397679036158 ) ) ;
#247 = EDGE_LOOP ( 'NONE', ( #178, #503, #399, #231 ) ) ;
#248 = EDGE_LOOP ( 'NONE', ( #174, #183 ) ) ;
#249 = ADVANCED_FACE ( 'NONE', ( #741, #685 ), #588, .T. ) ;
#250 = PLANE ( 'NONE',  #91 ) ;
#251 = FACE_OUTER_BOUND ( 'NONE', #500, .T. ) ;
#252 = DIRECTION ( 'NONE',  ( 0.000000000000000000, 0.000000000000000000, -1.000000000000000000 ) ) ;
#253 = ORIENTED_EDGE ( 'NONE', *, *, #14, .F. ) ;
#254 = LINE ( 'NONE', #520, #64 ) ;
#255 = CYLINDRICAL_SURFACE ( 'NONE', #123, 5.159999999999998366 ) ;
#256 = AXIS2_PLACEMENT_3D ( 'NONE', #572, #296, #865 ) ;
#257 = CARTESIAN_POINT ( 'NONE',  ( 55.17824183444732711, 48.64620933882489595, 34.77264362047579027 ) ) ;
#258 = ORIENTED_EDGE ( 'NONE', *, *, #335, .T. ) ;
#259 = VECTOR ( 'NONE', #715, 1000.000000000000000 ) ;
#260 = CIRCLE ( 'NONE', #387, 6.999999999999999112 ) ;
#261 = DIRECTION ( 'NONE',  ( 0.000000000000000000, 0.000000000000000000, -1.000000000000000000 ) ) ;
#262 = EDGE_LOOP ( 'NONE', ( #329, #23, #640, #74 ) ) ;
#263 = ADVANCED_FACE ( 'NONE', ( #817, #389 ), #176, .F. ) ;
#264 = FACE_OUTER_BOUND ( 'NONE', #545, .T. ) ;
#265 = EDGE_LOOP ( 'NONE', ( #564, #724, #237, #169 ) ) ;
#266 = CC_DESIGN_PERSON_AND_ORGANIZATION_ASSIGNMENT ( #850, #489, ( #30 ) ) ;
#267 = CYLINDRICAL_SURFACE ( 'NONE', #556, 10.16000000000000192 ) ;
#268 = CARTESIAN_POINT ( 'NONE',  ( 30.58110913739601244, 24.56755260257495266, -13.97001439767903896 ) ) ;
#269 = EDGE_LOOP ( 'NONE', ( #649, #372 ) ) ;
#270 = DIRECTION ( 'NONE',  ( 1.000000000000000000, 0.000000000000000000, 0.000000000000000000 ) ) ;
#271 = DIRECTION ( 'NONE',  ( 1.000000000000000000, -0.000000000000000000, -0.000000000000000000 ) ) ;
#272 = AXIS2_PLACEMENT_3D ( 'NONE', #622, #488, #71 ) ;
#273 = ADVANCED_FACE ( 'NONE', ( #41 ), #255, .F. ) ;
#274 = PERSON_AND_ORGANIZATION_ROLE ( 'creator' ) ;
#275 = ORIENTED_EDGE ( 'NONE', *, *, #776, .F. ) ;
#276 = CARTESIAN_POINT ( 'NONE',  ( 30.58110913739601244, 24.56755260257495266, -13.97001439767903896 ) ) ;
#277 = DIRECTION ( 'NONE',  ( 1.000000000000000000, -0.000000000000000000, -0.000000000000000000 ) ) ;
#278 = EDGE_CURVE ( 'NONE', #870, #43, #187, .T. ) ;
#279 = PERSON_AND_ORGANIZATION ( #615, #181 ) ;
#280 = EDGE_LOOP ( 'NONE', ( #899, #680, #439, #765, #411 ) ) ;
#281 = CARTESIAN_POINT ( 'NONE',  ( 50.01824183444734473, -18.43244739742503668, 31.74998560232096523 ) ) ;
#282 = EDGE_LOOP ( 'NONE', ( #667, #829, #654, #190 ) ) ;
#283 = LINE ( 'NONE', #904, #647 ) ;
#284 = VECTOR ( 'NONE', #252, 1000.000000000000000 ) ;
#285 = CIRCLE ( 'NONE', #763, 5.160000000000000142 ) ;
#286 = AXIS2_PLACEMENT_3D ( 'NONE', #276, #422, #418 ) ;
#287 = CARTESIAN_POINT ( 'NONE',  ( -9.661758165552667421, 45.62355132067006735, 41.90998560232096537 ) ) ;
#288 = CARTESIAN_POINT ( 'NONE',  ( 50.01824183444734473, -18.43244739742504734, 31.74998560232096523 ) ) ;
#289 = EDGE_CURVE ( 'NONE', #866, #196, #115, .T. ) ;
#290 = ORIENTED_EDGE ( 'NONE', *, *, #532, .T. ) ;
#291 = CARTESIAN_POINT ( 'NONE',  ( 37.58110913739601244, 24.56755260257495266, -8.970014397679037188 ) ) ;
#292 = CARTESIAN_POINT ( 'NONE',  ( 30.58110913739601244, 24.56755260257495266, -13.97001439767903896 ) ) ;
#293 = EDGE_LOOP ( 'NONE', ( #672, #373, #591, #32 ) ) ;
#294 = CC_DESIGN_DATE_AND_TIME_ASSIGNMENT ( #699, #324, ( #303 ) ) ;
#295 = ORIENTED_EDGE ( 'NONE', *, *, #341, .F. ) ;
#296 = DIRECTION ( 'NONE',  ( -1.869918622334838533E-16, 1.000000000000000000, -0.000000000000000000 ) ) ;
#297 = ORIENTED_EDGE ( 'NONE', *, *, #635, .T. ) ;
#298 = CIRCLE ( 'NONE', #827, 6.999999999999999112 ) ;
#299 = DIRECTION ( 'NONE',  ( 0.000000000000000000, 0.000000000000000000, -1.000000000000000000 ) ) ;
#300 = DIRECTION ( 'NONE',  ( -0.000000000000000000, -0.000000000000000000, 1.000000000000000000 ) ) ;
#301 = ORIENTED_EDGE ( 'NONE', *, *, #50, .F. ) ;
#302 = DIRECTION ( 'NONE',  ( 1.000000000000000000, 0.000000000000000000, 0.000000000000000000 ) ) ;
#303 = PRODUCT_DEFINITION ( 'UNKNOWN', '', #30, #664 ) ;
#304 = CARTESIAN_POINT ( 'NONE',  ( -14.82175816555266934, 55.78355132067007105, 41.90998560232096537 ) ) ;
#305 = LINE ( 'NONE', #534, #657 ) ;
#306 = ORIENTED_EDGE ( 'NONE', *, *, #361, .T. ) ;
#307 = CARTESIAN_POINT ( 'NONE',  ( 60.17824183444733421, 55.78355132067007105, -13.97001439767903896 ) ) ;
#308 = FACE_OUTER_BOUND ( 'NONE', #282, .T. ) ;
#309 = EDGE_LOOP ( 'NONE', ( #136, #801, #860, #143 ) ) ;
#310 = EDGE_CURVE ( 'NONE', #756, #514, #362, .T. ) ;
#311 = CARTESIAN_POINT ( 'NONE',  ( 60.17824183444733421, 51.57514152695942755, 37.70157580861032187 ) ) ;
#312 = ORIENTED_EDGE ( 'NONE', *, *, #323, .T. ) ;
#313 = AXIS2_PLACEMENT_3D ( 'NONE', #62, #634, #261 ) ;
#314 = VERTEX_POINT ( 'NONE', #234 ) ;
#315 = CARTESIAN_POINT ( 'NONE',  ( 50.01824183444733052, 45.62355132067006735, 41.90998560232096537 ) ) ;
#316 = DIRECTION ( 'NONE',  ( 0.000000000000000000, 0.000000000000000000, -1.000000000000000000 ) ) ;
#317 = VERTEX_POINT ( 'NONE', #515 ) ;
#318 = VERTEX_POINT ( 'NONE', #734 ) ;
#319 = CARTESIAN_POINT ( 'NONE',  ( -9.661758165552667421, 45.62355132067006735, -13.97001439767903896 ) ) ;
#320 = CARTESIAN_POINT ( 'NONE',  ( 50.01824183444734473, -18.43244739742503668, -13.97001439767903896 ) ) ;
#321 = EDGE_LOOP ( 'NONE', ( #851, #843 ) ) ;
#322 = CARTESIAN_POINT ( 'NONE',  ( 37.58110913739601244, 24.56755260257495266, -13.97001439767903896 ) ) ;
#323 = EDGE_CURVE ( 'NONE', #82, #470, #826, .T. ) ;
#324 = DATE_TIME_ROLE ( 'creation_date' ) ;
#325 = ORIENTED_EDGE ( 'NONE', *, *, #126, .T. ) ;
#326 = CARTESIAN_POINT ( 'NONE',  ( -14.80000000000000071, 24.56755260257494911, 13.96998560232096054 ) ) ;
#327 = APPROVAL ( #705, 'UNSPECIFIED' ) ;
#328 = MECHANICAL_CONTEXT ( 'NONE', #68, 'mechanical' ) ;
#329 = ORIENTED_EDGE ( 'NONE', *, *, #113, .T. ) ;
#330 = LINE ( 'NONE', #400, #658 ) ;
#331 = CARTESIAN_POINT ( 'NONE',  ( -19.82175816555265513, -18.43244739742504734, -13.97001439767903896 ) ) ;
#332 = EDGE_CURVE ( 'NONE', #43, #318, #388, .T. ) ;
#333 = ORIENTED_EDGE ( 'NONE', *, *, #221, .F. ) ;
#334 = CARTESIAN_POINT ( 'NONE',  ( 60.17824183444733421, 45.62355132067006735, -3.810014397679036158 ) ) ;
#335 = EDGE_CURVE ( 'NONE', #18, #318, #107, .T. ) ;
#336 = FACE_BOUND ( 'NONE', #443, .T. ) ;
#337 = APPLICATION_PROTOCOL_DEFINITION ( 'international standard', 'config_control_design', 1994, #160 ) ;
#338 = VERTEX_POINT ( 'NONE', #383 ) ;
#339 = AXIS2_PLACEMENT_3D ( 'NONE', #717, #650, #78 ) ;
#340 = CARTESIAN_POINT ( 'NONE',  ( -9.661758165552667421, 45.62355132067006735, 41.90998560232096537 ) ) ;
#341 = EDGE_CURVE ( 'NONE', #870, #338, #764, .T. ) ;
#342 = AXIS2_PLACEMENT_3D ( 'NONE', #315, #606, #167 ) ;
#343 = FACE_OUTER_BOUND ( 'NONE', #293, .T. ) ;
#344 = AXIS2_PLACEMENT_3D ( 'NONE', #198, #271, #129 ) ;
#345 = DATE_AND_TIME ( #692, #823 ) ;
#346 = ORIENTED_EDGE ( 'NONE', *, *, #839, .F. ) ;
#347 = DIRECTION ( 'NONE',  ( 0.000000000000000000, -1.000000000000000000, 0.000000000000000000 ) ) ;
#348 = ORIENTED_EDGE ( 'NONE', *, *, #919, .T. ) ;
#349 = CARTESIAN_POINT ( 'NONE',  ( -19.82175816555266934, 24.56755260257494911, 13.96998560232096054 ) ) ;
#350 = EDGE_CURVE ( 'NONE', #525, #706, #24, .T. ) ;
#351 = FACE_OUTER_BOUND ( 'NONE', #686, .T. ) ;
#352 = CARTESIAN_POINT ( 'NONE',  ( -14.82175816555266934, 55.78355132067007105, -8.970014397679040741 ) ) ;
#353 = VECTOR ( 'NONE', #300, 1000.000000000000000 ) ;
#354 = VECTOR ( 'NONE', #207, 1000.000000000000000 ) ;
#355 = DIRECTION ( 'NONE',  ( 1.000000000000000000, -0.000000000000000000, -0.000000000000000000 ) ) ;
#356 = FACE_OUTER_BOUND ( 'NONE', #120, .T. ) ;
#357 = EDGE_LOOP ( 'NONE', ( #573, #630, #175, #22 ) ) ;
#358 = CARTESIAN_POINT ( 'NONE',  ( 50.01824183444733052, 55.78355132067007105, -13.97001439767903896 ) ) ;
#359 = DIRECTION ( 'NONE',  ( 0.000000000000000000, 0.000000000000000000, -1.000000000000000000 ) ) ;
#360 = ORIENTED_EDGE ( 'NONE', *, *, #841, .T. ) ;
#361 = EDGE_CURVE ( 'NONE', #663, #82, #85, .T. ) ;
#362 = LINE ( 'NONE', #740, #508 ) ;
#363 = DIRECTION ( 'NONE',  ( 1.000000000000000000, 1.869918622334838533E-16, -0.000000000000000000 ) ) ;
#364 = PLANE ( 'NONE',  #688 ) ;
#365 = ORIENTED_EDGE ( 'NONE', *, *, #776, .T. ) ;
#366 = ADVANCED_FACE ( 'NONE', ( #239 ), #748, .F. ) ;
#367 = APPROVAL_PERSON_ORGANIZATION ( #629, #225, #398 ) ;
#368 = CARTESIAN_POINT ( 'NONE',  ( 55.17824183444734842, -18.43244739742504734, 41.90998560232096537 ) ) ;
#369 = AXIS2_PLACEMENT_3D ( 'NONE', #888, #678, #37 ) ;
#370 = CARTESIAN_POINT ( 'NONE',  ( -14.82175816555265513, -18.43244739742504734, 36.90998560232097248 ) ) ;
#371 = CARTESIAN_POINT ( 'NONE',  ( 60.17824183444733421, 45.62355132067006735, 41.90998560232096537 ) ) ;
#372 = ORIENTED_EDGE ( 'NONE', *, *, #867, .T. ) ;
#373 = ORIENTED_EDGE ( 'NONE', *, *, #194, .T. ) ;
#374 = DIRECTION ( 'NONE',  ( 1.869918622334838533E-16, -1.000000000000000000, 0.000000000000000000 ) ) ;
#375 =( NAMED_UNIT ( * ) PLANE_ANGLE_UNIT ( ) SI_UNIT ( $, .RADIAN. ) );
#376 = VERTEX_POINT ( 'NONE', #891 ) ;
#377 = ORIENTED_EDGE ( 'NONE', *, *, #289, .F. ) ;
#378 = DIRECTION ( 'NONE',  ( 0.000000000000000000, 0.000000000000000000, -1.000000000000000000 ) ) ;
#379 = ADVANCED_FACE ( 'NONE', ( #593 ), #250, .T. ) ;
#380 = APPLICATION_PROTOCOL_DEFINITION ( 'international standard', 'config_control_design', 1994, #68 ) ;
#381 = ORIENTED_EDGE ( 'NONE', *, *, #919, .F. ) ;
#382 = ORIENTED_EDGE ( 'NONE', *, *, #278, .T. ) ;
#383 = CARTESIAN_POINT ( 'NONE',  ( 60.17824183444733421, 45.62355132067006735, 31.74998560232096523 ) ) ;
#384 = APPROVAL_PERSON_ORGANIZATION ( #624, #327, #65 ) ;
#385 = CARTESIAN_POINT ( 'NONE',  ( -19.82175816555266934, 24.56755260257494911, 13.96998560232096054 ) ) ;
#386 = VERTEX_POINT ( 'NONE', #816 ) ;
#387 = AXIS2_PLACEMENT_3D ( 'NONE', #687, #409, #698 ) ;
#388 = LINE ( 'NONE', #307, #677 ) ;
#389 = FACE_OUTER_BOUND ( 'NONE', #890, .T. ) ;
#390 = DIRECTION ( 'NONE',  ( 0.000000000000000000, 0.000000000000000000, 1.000000000000000000 ) ) ;
#391 = ORIENTED_EDGE ( 'NONE', *, *, #423, .T. ) ;
#392 = EDGE_CURVE ( 'NONE', #548, #620, #254, .T. ) ;
#393 = CARTESIAN_POINT ( 'NONE',  ( 23.58110913739601244, 24.56755260257495266, -13.97001439767903896 ) ) ;
#394 = CARTESIAN_POINT ( 'NONE',  ( 50.01824183444733052, 50.78355132067007105, 41.90998560232096537 ) ) ;
#395 = CARTESIAN_POINT ( 'NONE',  ( -19.82175816555266934, 24.56755260257494911, 20.96998560232095699 ) ) ;
#396 = ORIENTED_EDGE ( 'NONE', *, *, #392, .F. ) ;
#397 = LINE ( 'NONE', #831, #34 ) ;
#398 = APPROVAL_ROLE ( '' ) ;
#399 = ORIENTED_EDGE ( 'NONE', *, *, #639, .T. ) ;
#400 = CARTESIAN_POINT ( 'NONE',  ( 55.17824183444734842, -18.43244739742504734, 31.74998560232096523 ) ) ;
#401 = CIRCLE ( 'NONE', #3, 6.999999999999995559 ) ;
#402 = DIRECTION ( 'NONE',  ( 1.000000000000000000, 0.000000000000000000, 0.000000000000000000 ) ) ;
#403 = EDGE_CURVE ( 'NONE', #819, #201, #669, .T. ) ;
#404 = ADVANCED_FACE ( 'NONE', ( #627, #58 ), #767, .F. ) ;
#405 = CARTESIAN_POINT ( 'NONE',  ( 0.000000000000000000, 0.000000000000000000, 0.000000000000000000 ) ) ;
#406 = EDGE_LOOP ( 'NONE', ( #13, #377, #297, #837 ) ) ;
#407 = FACE_OUTER_BOUND ( 'NONE', #406, .T. ) ;
#408 =( BOUNDED_CURVE ( )  B_SPLINE_CURVE ( 3, ( #449, #595, #257, #877 ),
 .UNSPECIFIED., .F., .T. ) 
 B_SPLINE_CURVE_WITH_KNOTS ( ( 4, 4 ),
 ( 3.141592653589794448, 4.712388980384689674 ),
 .UNSPECIFIED. ) 
 CURVE ( )  GEOMETRIC_REPRESENTATION_ITEM ( )  RATIONAL_B_SPLINE_CURVE ( ( 1.000000000000000000, 0.8047378541243652705, 0.8047378541243652705, 1.000000000000000000 ) ) 
 REPRESENTATION_ITEM ( '' )  );
#409 = DIRECTION ( 'NONE',  ( 0.000000000000000000, 0.000000000000000000, 1.000000000000000000 ) ) ;
#410 = PERSON_AND_ORGANIZATION ( #615, #181 ) ;
#411 = ORIENTED_EDGE ( 'NONE', *, *, #659, .F. ) ;
#412 = ADVANCED_FACE ( 'NONE', ( #336, #473 ), #195, .T. ) ;
#413 = LINE ( 'NONE', #838, #49 ) ;
#414 = LINE ( 'NONE', #48, #720 ) ;
#415 = CALENDAR_DATE ( 2025, 7, 3 ) ;
#416 = ORIENTED_EDGE ( 'NONE', *, *, #769, .F. ) ;
#417 = CIRCLE ( 'NONE', #475, 6.999999999999999112 ) ;
#418 = DIRECTION ( 'NONE',  ( 1.000000000000000000, 0.000000000000000000, 0.000000000000000000 ) ) ;
#419 = AXIS2_PLACEMENT_3D ( 'NONE', #835, #773, #695 ) ;
#420 = DATE_AND_TIME ( #913, #139 ) ;
#421 = VERTEX_POINT ( 'NONE', #485 ) ;
#422 = DIRECTION ( 'NONE',  ( -0.000000000000000000, -0.000000000000000000, 1.000000000000000000 ) ) ;
#423 = EDGE_CURVE ( 'NONE', #314, #866, #897, .T. ) ;
#424 = CARTESIAN_POINT ( 'NONE',  ( -14.82175816555266756, 45.62355132067006735, 41.90998560232096537 ) ) ;
#425 = DIRECTION ( 'NONE',  ( 1.000000000000000000, -0.000000000000000000, -0.000000000000000000 ) ) ;
#426 = VERTEX_POINT ( 'NONE', #322 ) ;
#427 = CYLINDRICAL_SURFACE ( 'NONE', #226, 6.999999999999995559 ) ;
#428 = FACE_OUTER_BOUND ( 'NONE', #247, .T. ) ;
#429 = EDGE_LOOP ( 'NONE', ( #108, #467, #675, #655 ) ) ;
#430 = CLOSED_SHELL ( 'NONE', ( #603, #474, #493, #145, #366, #438, #806, #164, #138, #180, #105, #577, #263, #714, #148, #757, #589, #621, #249, #379, #546, #404, #412, #539, #273, #857, #786, #879 ) ) ;
#431 = VECTOR ( 'NONE', #845, 1000.000000000000000 ) ;
#432 = DIRECTION ( 'NONE',  ( -0.000000000000000000, -0.000000000000000000, 1.000000000000000000 ) ) ;
#433 = EDGE_CURVE ( 'NONE', #620, #663, #185, .T. ) ;
#434 = CARTESIAN_POINT ( 'NONE',  ( -9.661758165552667421, 45.62355132067006735, -8.970014397679040741 ) ) ;
#435 = ORIENTED_EDGE ( 'NONE', *, *, #651, .F. ) ;
#436 = LINE ( 'NONE', #424, #460 ) ;
#437 = CARTESIAN_POINT ( 'NONE',  ( -19.82175816555266934, 24.56755260257494911, 25.96998560232095699 ) ) ;
#438 = ADVANCED_FACE ( 'NONE', ( #343 ), #118, .T. ) ;
#439 = ORIENTED_EDGE ( 'NONE', *, *, #702, .T. ) ;
#440 = CARTESIAN_POINT ( 'NONE',  ( 23.58110913739601244, 24.56755260257495266, -13.97001439767903896 ) ) ;
#441 = DIRECTION ( 'NONE',  ( -0.000000000000000000, -0.000000000000000000, -1.000000000000000000 ) ) ;
#442 = DIRECTION ( 'NONE',  ( -0.000000000000000000, 0.000000000000000000, 1.000000000000000000 ) ) ;
#443 = EDGE_LOOP ( 'NONE', ( #56, #668 ) ) ;
#444 = ORIENTED_EDGE ( 'NONE', *, *, #839, .T. ) ;
#445 = AXIS2_PLACEMENT_3D ( 'NONE', #292, #216, #575 ) ;
#446 = VECTOR ( 'NONE', #374, 1000.000000000000000 ) ;
#447 = CIRCLE ( 'NONE', #272, 6.999999999999999112 ) ;
#448 = DIRECTION ( 'NONE',  ( 1.000000000000000000, -0.000000000000000000, 0.000000000000000000 ) ) ;
#449 = CARTESIAN_POINT ( 'NONE',  ( 50.01824183444733762, 50.78355132067007105, 36.90998560232096537 ) ) ;
#450 = VERTEX_POINT ( 'NONE', #331 ) ;
#451 = EDGE_CURVE ( 'NONE', #525, #426, #260, .T. ) ;
#452 = CARTESIAN_POINT ( 'NONE',  ( 60.17824183444733421, 55.78355132067007105, 41.90998560232096537 ) ) ;
#453 = DIRECTION ( 'NONE',  ( -0.000000000000000000, -0.000000000000000000, 1.000000000000000000 ) ) ;
#454 = ORIENTED_EDGE ( 'NONE', *, *, #830, .F. ) ;
#455 = CARTESIAN_POINT ( 'NONE',  ( 30.58110913739601244, 24.56755260257495266, -13.97001439767903896 ) ) ;
#456 = DIRECTION ( 'NONE',  ( 0.000000000000000000, 0.000000000000000000, -1.000000000000000000 ) ) ;
#457 = ORIENTED_EDGE ( 'NONE', *, *, #289, .T. ) ;
#458 = CIRCLE ( 'NONE', #339, 6.999999999999999112 ) ;
#459 = DIRECTION ( 'NONE',  ( -0.000000000000000000, 0.000000000000000000, 1.000000000000000000 ) ) ;
#460 = VECTOR ( 'NONE', #566, 1000.000000000000000 ) ;
#461 = CARTESIAN_POINT ( 'NONE',  ( -14.82175816555266223, 24.56755260257494911, 25.96998560232095699 ) ) ;
#462 = ORIENTED_EDGE ( 'NONE', *, *, #433, .F. ) ;
#463 = AXIS2_PLACEMENT_3D ( 'NONE', #67, #918, #921 ) ;
#464 = DIRECTION ( 'NONE',  ( 1.000000000000000000, 0.000000000000000000, 0.000000000000000000 ) ) ;
#465 = CARTESIAN_POINT ( 'NONE',  ( 50.01824183444733052, 55.78355132067007105, 41.90998560232096537 ) ) ;
#466 = LINE ( 'NONE', #182, #567 ) ;
#467 = ORIENTED_EDGE ( 'NONE', *, *, #14, .T. ) ;
#468 = CC_DESIGN_PERSON_AND_ORGANIZATION_ASSIGNMENT ( #410, #135, ( #35 ) ) ;
#469 = CARTESIAN_POINT ( 'NONE',  ( 50.01824183444734473, -18.43244739742504734, 41.90998560232096537 ) ) ;
#470 = VERTEX_POINT ( 'NONE', #910 ) ;
#471 = CARTESIAN_POINT ( 'NONE',  ( 50.01824183444733052, 55.78355132067007105, -13.97001439767903896 ) ) ;
#472 = EDGE_CURVE ( 'NONE', #338, #127, #905, .T. ) ;
#473 = FACE_OUTER_BOUND ( 'NONE', #280, .T. ) ;
#474 = ADVANCED_FACE ( 'NONE', ( #124 ), #203, .F. ) ;
#475 = AXIS2_PLACEMENT_3D ( 'NONE', #219, #579, #656 ) ;
#476 = ORIENTED_EDGE ( 'NONE', *, *, #644, .F. ) ;
#477 = CIRCLE ( 'NONE', #507, 6.999999999999999112 ) ;
#478 = CARTESIAN_POINT ( 'NONE',  ( 55.17824183444731290, 48.64620933882487464, -6.832672415833862978 ) ) ;
#479 = VECTOR ( 'NONE', #613, 1000.000000000000000 ) ;
#480 = FACE_OUTER_BOUND ( 'NONE', #262, .T. ) ;
#481 = EDGE_CURVE ( 'NONE', #886, #101, #414, .T. ) ;
#482 = COORDINATED_UNIVERSAL_TIME_OFFSET ( 6, 0, .BEHIND. ) ;
#483 = ORIENTED_EDGE ( 'NONE', *, *, #639, .F. ) ;
#484 = DIRECTION ( 'NONE',  ( 1.000000000000000000, 0.000000000000000000, 0.000000000000000000 ) ) ;
#485 = CARTESIAN_POINT ( 'NONE',  ( -14.80000000000000071, 24.56755260257494911, 25.96998560232095699 ) ) ;
#486 = PERSON_AND_ORGANIZATION ( #615, #181 ) ;
#487 = ORIENTED_EDGE ( 'NONE', *, *, #278, .F. ) ;
#488 = DIRECTION ( 'NONE',  ( 0.000000000000000000, 0.000000000000000000, 1.000000000000000000 ) ) ;
#489 = PERSON_AND_ORGANIZATION_ROLE ( 'creator' ) ;
#490 = ORIENTED_EDGE ( 'NONE', *, *, #651, .T. ) ;
#491 =( GEOMETRIC_REPRESENTATION_CONTEXT ( 3 ) GLOBAL_UNCERTAINTY_ASSIGNED_CONTEXT ( ( #648 ) ) GLOBAL_UNIT_ASSIGNED_CONTEXT ( ( #42, #375, #116 ) ) REPRESENTATION_CONTEXT ( 'NONE', 'WORKASPACE' ) );
#492 = CARTESIAN_POINT ( 'NONE',  ( 60.17824183444733421, 50.78355132067007105, 41.90998560232096537 ) ) ;
#493 = ADVANCED_FACE ( 'NONE', ( #480 ), #703, .T. ) ;
#494 = VECTOR ( 'NONE', #712, 1000.000000000000000 ) ;
#495 = CIRCLE ( 'NONE', #733, 5.160000000000000142 ) ;
#496 = LINE ( 'NONE', #854, #631 ) ;
#497 = DIRECTION ( 'NONE',  ( 1.000000000000000000, 0.000000000000000000, 0.000000000000000000 ) ) ;
#498 = CARTESIAN_POINT ( 'NONE',  ( -19.82175816555266934, 55.78355132067007105, -13.97001439767903896 ) ) ;
#499 = CYLINDRICAL_SURFACE ( 'NONE', #256, 10.16000000000000192 ) ;
#500 = EDGE_LOOP ( 'NONE', ( #209, #92, #360, #873 ) ) ;
#501 = EDGE_CURVE ( 'NONE', #885, #163, #186, .T. ) ;
#502 = EDGE_CURVE ( 'NONE', #914, #920, #754, .T. ) ;
#503 = ORIENTED_EDGE ( 'NONE', *, *, #243, .F. ) ;
#504 = DIRECTION ( 'NONE',  ( 0.000000000000000000, 0.000000000000000000, 1.000000000000000000 ) ) ;
#505 = EDGE_LOOP ( 'NONE', ( #700, #39, #895, #52 ) ) ;
#506 = CC_DESIGN_APPROVAL ( #327, ( #762 ) ) ;
#507 = AXIS2_PLACEMENT_3D ( 'NONE', #729, #585, #511 ) ;
#508 = VECTOR ( 'NONE', #605, 1000.000000000000000 ) ;
#509 = CARTESIAN_POINT ( 'NONE',  ( -14.82175816555266756, 45.62355132067006735, -8.970014397679040741 ) ) ;
#510 = CARTESIAN_POINT ( 'NONE',  ( -19.82175816555265513, -18.43244739742504734, -13.97001439767903896 ) ) ;
#511 = DIRECTION ( 'NONE',  ( 1.000000000000000000, 0.000000000000000000, 0.000000000000000000 ) ) ;
#512 = CARTESIAN_POINT ( 'NONE',  ( -14.80000000000000071, 24.56755260257494555, 13.96998560232096054 ) ) ;
#513 = VERTEX_POINT ( 'NONE', #547 ) ;
#514 = VERTEX_POINT ( 'NONE', #543 ) ;
#515 = CARTESIAN_POINT ( 'NONE',  ( -14.82175816555266223, 24.56755260257494911, 1.969985602320964535 ) ) ;
#516 = CARTESIAN_POINT ( 'NONE',  ( 50.01824183444733052, 45.62355132067006735, 41.90998560232096537 ) ) ;
#517 = EDGE_CURVE ( 'NONE', #127, #756, #397, .T. ) ;
#518 = ORIENTED_EDGE ( 'NONE', *, *, #768, .F. ) ;
#519 = CC_DESIGN_SECURITY_CLASSIFICATION ( #762, ( #30 ) ) ;
#520 = CARTESIAN_POINT ( 'NONE',  ( -19.82175816555265513, -18.43244739742504734, -8.970014397679040741 ) ) ;
#521 = VECTOR ( 'NONE', #665, 1000.000000000000000 ) ;
#522 = LINE ( 'NONE', #452, #213 ) ;
#523 = DIRECTION ( 'NONE',  ( 1.000000000000000000, 0.000000000000000000, 0.000000000000000000 ) ) ;
#524 = VERTEX_POINT ( 'NONE', #469 ) ;
#525 = VERTEX_POINT ( 'NONE', #758 ) ;
#526 = DIRECTION ( 'NONE',  ( -1.869918622334838533E-16, 1.000000000000000000, -0.000000000000000000 ) ) ;
#527 = DIRECTION ( 'NONE',  ( -1.869918622334838533E-16, 1.000000000000000000, 0.000000000000000000 ) ) ;
#528 = DIRECTION ( 'NONE',  ( 1.000000000000000000, 0.000000000000000000, 0.000000000000000000 ) ) ;
#529 = ORIENTED_EDGE ( 'NONE', *, *, #550, .T. ) ;
#530 =( BOUNDED_CURVE ( )  B_SPLINE_CURVE ( 3, ( #197, #144, #478, #710 ),
 .UNSPECIFIED., .F., .T. ) 
 B_SPLINE_CURVE_WITH_KNOTS ( ( 4, 4 ),
 ( 1.869918622334838533E-16, 1.570796326794896780 ),
 .UNSPECIFIED. ) 
 CURVE ( )  GEOMETRIC_REPRESENTATION_ITEM ( )  RATIONAL_B_SPLINE_CURVE ( ( 1.000000000000000000, 0.8047378541243649375, 0.8047378541243649375, 1.000000000000000000 ) ) 
 REPRESENTATION_ITEM ( '' )  );
#531 = ORIENTED_EDGE ( 'NONE', *, *, #809, .T. ) ;
#532 = EDGE_CURVE ( 'NONE', #201, #163, #199, .T. ) ;
#533 = DIRECTION ( 'NONE',  ( 1.869918622334838533E-16, -1.000000000000000000, 0.000000000000000000 ) ) ;
#534 = CARTESIAN_POINT ( 'NONE',  ( 37.58110913739601244, 24.56755260257495266, -13.97001439767903896 ) ) ;
#535 = ORIENTED_EDGE ( 'NONE', *, *, #659, .T. ) ;
#536 = AXIS2_PLACEMENT_3D ( 'NONE', #246, #95, #812 ) ;
#537 = AXIS2_PLACEMENT_3D ( 'NONE', #666, #811, #533 ) ;
#538 = DIRECTION ( 'NONE',  ( 0.000000000000000000, 0.000000000000000000, -1.000000000000000000 ) ) ;
#539 = ADVANCED_FACE ( 'NONE', ( #264 ), #725, .F. ) ;
#540 = AXIS2_PLACEMENT_3D ( 'NONE', #512, #162, #359 ) ;
#541 = CARTESIAN_POINT ( 'NONE',  ( 23.58110913739601244, 24.56755260257495266, 41.90998560232096537 ) ) ;
#542 = ORIENTED_EDGE ( 'NONE', *, *, #210, .F. ) ;
#543 = CARTESIAN_POINT ( 'NONE',  ( 60.17824183444733421, 45.62355132067006735, -3.810014397679036158 ) ) ;
#544 = APPROVAL_DATE_TIME ( #131, #130 ) ;
#545 = EDGE_LOOP ( 'NONE', ( #230, #391, #553, #529 ) ) ;
#546 = ADVANCED_FACE ( 'NONE', ( #407 ), #766, .T. ) ;
#547 = CARTESIAN_POINT ( 'NONE',  ( -19.82175816555266579, 45.62355132067006735, 41.90998560232096537 ) ) ;
#548 = VERTEX_POINT ( 'NONE', #772 ) ;
#549 = CARTESIAN_POINT ( 'NONE',  ( 60.17824183444733421, 51.57514152695942045, -9.761604603968390137 ) ) ;
#550 = EDGE_CURVE ( 'NONE', #470, #386, #330, .T. ) ;
#551 = DIRECTION ( 'NONE',  ( 1.869918622334838533E-16, -1.000000000000000000, 0.000000000000000000 ) ) ;
#552 = AXIS2_PLACEMENT_3D ( 'NONE', #100, #590, #456 ) ;
#553 = ORIENTED_EDGE ( 'NONE', *, *, #815, .T. ) ;
#554 = AXIS2_PLACEMENT_3D ( 'NONE', #227, #161, #299 ) ;
#555 = LINE ( 'NONE', #844, #912 ) ;
#556 = AXIS2_PLACEMENT_3D ( 'NONE', #340, #206, #632 ) ;
#557 = CARTESIAN_POINT ( 'NONE',  ( 60.17824183444734842, -18.43244739742504734, 31.74998560232096523 ) ) ;
#558 = CALENDAR_DATE ( 2025, 7, 3 ) ;
#559 = ORIENTED_EDGE ( 'NONE', *, *, #81, .F. ) ;
#560 = DIRECTION ( 'NONE',  ( 1.869918622334838533E-16, -1.000000000000000000, 0.000000000000000000 ) ) ;
#561 = DIRECTION ( 'NONE',  ( 1.000000000000000000, -0.000000000000000000, -0.000000000000000000 ) ) ;
#562 = EDGE_CURVE ( 'NONE', #196, #82, #530, .T. ) ;
#563 = COORDINATED_UNIVERSAL_TIME_OFFSET ( 6, 0, .BEHIND. ) ;
#564 = ORIENTED_EDGE ( 'NONE', *, *, #350, .F. ) ;
#565 = FACE_OUTER_BOUND ( 'NONE', #681, .T. ) ;
#566 = DIRECTION ( 'NONE',  ( -0.000000000000000000, -0.000000000000000000, -1.000000000000000000 ) ) ;
#567 = VECTOR ( 'NONE', #736, 1000.000000000000000 ) ;
#568 = CARTESIAN_POINT ( 'NONE',  ( 30.58110913739601244, 24.56755260257495266, 36.90998560232097248 ) ) ;
#569 = AXIS2_PLACEMENT_3D ( 'NONE', #721, #791, #79 ) ;
#570 = AXIS2_PLACEMENT_3D ( 'NONE', #268, #134, #114 ) ;
#571 = CARTESIAN_POINT ( 'NONE',  ( -14.82175816555266223, 24.56755260257494911, 13.96998560232096054 ) ) ;
#572 = CARTESIAN_POINT ( 'NONE',  ( 50.01824183444734473, -18.43244739742505089, -3.810014397679036158 ) ) ;
#573 = ORIENTED_EDGE ( 'NONE', *, *, #403, .F. ) ;
#574 = PLANE ( 'NONE',  #106 ) ;
#575 = DIRECTION ( 'NONE',  ( 1.000000000000000000, 0.000000000000000000, 0.000000000000000000 ) ) ;
#576 = ORIENTED_EDGE ( 'NONE', *, *, #481, .T. ) ;
#577 = ADVANCED_FACE ( 'NONE', ( #211, #565 ), #908, .T. ) ;
#578 = LINE ( 'NONE', #863, #259 ) ;
#579 = DIRECTION ( 'NONE',  ( 0.000000000000000000, 0.000000000000000000, 1.000000000000000000 ) ) ;
#580 = ORIENTED_EDGE ( 'NONE', *, *, #332, .T. ) ;
#581 = VECTOR ( 'NONE', #894, 1000.000000000000000 ) ;
#582 = CIRCLE ( 'NONE', #75, 6.999999999999995559 ) ;
#583 = VECTOR ( 'NONE', #761, 1000.000000000000000 ) ;
#584 = AXIS2_PLACEMENT_3D ( 'NONE', #492, #347, #202 ) ;
#585 = DIRECTION ( 'NONE',  ( -0.000000000000000000, 0.000000000000000000, 1.000000000000000000 ) ) ;
#586 = DIRECTION ( 'NONE',  ( 0.000000000000000000, 1.000000000000000000, 0.000000000000000000 ) ) ;
#587 = ORIENTED_EDGE ( 'NONE', *, *, #472, .F. ) ;
#588 = PLANE ( 'NONE',  #719 ) ;
#589 = ADVANCED_FACE ( 'NONE', ( #53 ), #267, .T. ) ;
#590 = DIRECTION ( 'NONE',  ( 1.000000000000000000, 0.000000000000000000, 0.000000000000000000 ) ) ;
#591 = ORIENTED_EDGE ( 'NONE', *, *, #8, .T. ) ;
#592 = EDGE_LOOP ( 'NONE', ( #153, #301, #612, #454 ) ) ;
#593 = FACE_OUTER_BOUND ( 'NONE', #309, .T. ) ;
#594 = PLANE ( 'NONE',  #537 ) ;
#595 = CARTESIAN_POINT ( 'NONE',  ( 53.04089985260215911, 50.78355132067006394, 36.90998560232095826 ) ) ;
#596 = VERTEX_POINT ( 'NONE', #849 ) ;
#597 = ORIENTED_EDGE ( 'NONE', *, *, #702, .F. ) ;
#598 = VECTOR ( 'NONE', #277, 1000.000000000000000 ) ;
#599 = PRODUCT_DEFINITION_SHAPE ( 'NONE', 'NONE',  #303 ) ;
#600 = DIRECTION ( 'NONE',  ( 1.000000000000000000, 0.000000000000000000, 0.000000000000000000 ) ) ;
#601 = CARTESIAN_POINT ( 'NONE',  ( -19.82175816555266579, 45.62355132067006735, 41.90998560232096537 ) ) ;
#602 = ORIENTED_EDGE ( 'NONE', *, *, #93, .T. ) ;
#603 = ADVANCED_FACE ( 'NONE', ( #760 ), #915, .F. ) ;
#604 = EDGE_CURVE ( 'NONE', #920, #97, #447, .T. ) ;
#605 = DIRECTION ( 'NONE',  ( -1.869918622334838533E-16, 1.000000000000000000, 0.000000000000000000 ) ) ;
#606 = DIRECTION ( 'NONE',  ( 0.000000000000000000, 0.000000000000000000, -1.000000000000000000 ) ) ;
#607 = FACE_OUTER_BOUND ( 'NONE', #321, .T. ) ;
#608 = VERTEX_POINT ( 'NONE', #193 ) ;
#609 = EDGE_CURVE ( 'NONE', #819, #885, #401, .T. ) ;
#610 = CARTESIAN_POINT ( 'NONE',  ( -14.80000000000000071, 24.56755260257494911, 6.969985602320964979 ) ) ;
#611 = CARTESIAN_POINT ( 'NONE',  ( -14.80000000000000071, 24.56755260257494555, 13.96998560232096054 ) ) ;
#612 = ORIENTED_EDGE ( 'NONE', *, *, #335, .F. ) ;
#613 = DIRECTION ( 'NONE',  ( -0.000000000000000000, -0.000000000000000000, 1.000000000000000000 ) ) ;
#614 = APPROVAL_PERSON_ORGANIZATION ( #486, #130, #55 ) ;
#615 = PERSON ( 'UNSPECIFIED', 'UNSPECIFIED', 'UNSPECIFIED', ('UNSPECIFIED'), ('UNSPECIFIED'), ('UNSPECIFIED') ) ;
#616 = AXIS2_PLACEMENT_3D ( 'NONE', #54, #623, #402 ) ;
#617 = DIRECTION ( 'NONE',  ( 1.000000000000000000, 0.000000000000000000, 0.000000000000000000 ) ) ;
#618 = EDGE_LOOP ( 'NONE', ( #580, #775, #333, #382 ) ) ;
#619 = DIRECTION ( 'NONE',  ( -1.000000000000000000, -0.000000000000000000, -0.000000000000000000 ) ) ;
#620 = VERTEX_POINT ( 'NONE', #852 ) ;
#621 = ADVANCED_FACE ( 'NONE', ( #641 ), #697, .F. ) ;
#622 = CARTESIAN_POINT ( 'NONE',  ( 30.58110913739601244, 24.56755260257495266, 41.90998560232096537 ) ) ;
#623 = DIRECTION ( 'NONE',  ( -0.000000000000000000, 0.000000000000000000, 1.000000000000000000 ) ) ;
#624 = PERSON_AND_ORGANIZATION ( #615, #181 ) ;
#625 = ORIENTED_EDGE ( 'NONE', *, *, #341, .T. ) ;
#626 = DIRECTION ( 'NONE',  ( -0.000000000000000000, 0.000000000000000000, -1.000000000000000000 ) ) ;
#627 = FACE_BOUND ( 'NONE', #269, .T. ) ;
#628 =( BOUNDED_CURVE ( )  B_SPLINE_CURVE ( 3, ( #471, #121, #549, #334 ),
 .UNSPECIFIED., .F., .T. ) 
 B_SPLINE_CURVE_WITH_KNOTS ( ( 4, 4 ),
 ( 1.869918622334838040E-16, 1.570796326794896780 ),
 .UNSPECIFIED. ) 
 CURVE ( )  GEOMETRIC_REPRESENTATION_ITEM ( )  RATIONAL_B_SPLINE_CURVE ( ( 1.000000000000000000, 0.8047378541243649375, 0.8047378541243649375, 1.000000000000000000 ) ) 
 REPRESENTATION_ITEM ( '' )  );
#629 = PERSON_AND_ORGANIZATION ( #615, #181 ) ;
#630 = ORIENTED_EDGE ( 'NONE', *, *, #149, .F. ) ;
#631 = VECTOR ( 'NONE', #432, 1000.000000000000000 ) ;
#632 = DIRECTION ( 'NONE',  ( -1.000000000000000000, 0.000000000000000000, 0.000000000000000000 ) ) ;
#633 = CIRCLE ( 'NONE', #898, 5.159999999999998366 ) ;
#634 = DIRECTION ( 'NONE',  ( 1.000000000000000000, -0.000000000000000000, -0.000000000000000000 ) ) ;
#635 = EDGE_CURVE ( 'NONE', #866, #718, #283, .T. ) ;
#636 = CALENDAR_DATE ( 2025, 7, 3 ) ;
#637 = ORIENTED_EDGE ( 'NONE', *, *, #841, .F. ) ;
#638 = DIRECTION ( 'NONE',  ( 0.000000000000000000, 0.000000000000000000, -1.000000000000000000 ) ) ;
#639 = EDGE_CURVE ( 'NONE', #43, #514, #628, .T. ) ;
#640 = ORIENTED_EDGE ( 'NONE', *, *, #902, .F. ) ;
#641 = FACE_OUTER_BOUND ( 'NONE', #265, .T. ) ;
#642 = PRODUCT_RELATED_PRODUCT_CATEGORY ( 'detail', '', ( #35 ) ) ;
#643 = CARTESIAN_POINT ( 'NONE',  ( -19.82175816555266934, 55.78355132067007105, 41.90998560232096537 ) ) ;
#644 = EDGE_CURVE ( 'NONE', #101, #548, #413, .T. ) ;
#645 = VECTOR ( 'NONE', #453, 1000.000000000000000 ) ;
#646 = CARTESIAN_POINT ( 'NONE',  ( -9.661758165552667421, 50.78355132067007105, 36.90998560232097248 ) ) ;
#647 = VECTOR ( 'NONE', #834, 1000.000000000000000 ) ;
#648 = UNCERTAINTY_MEASURE_WITH_UNIT (LENGTH_MEASURE( 1.000000000000000082E-05 ), #42, 'distance_accuracy_value', 'NONE');
#649 = ORIENTED_EDGE ( 'NONE', *, *, #671, .T. ) ;
#650 = DIRECTION ( 'NONE',  ( -0.000000000000000000, 0.000000000000000000, 1.000000000000000000 ) ) ;
#651 = EDGE_CURVE ( 'NONE', #40, #524, #555, .T. ) ;
#652 = CARTESIAN_POINT ( 'NONE',  ( -19.82175816555265513, -18.43244739742504734, 41.90998560232096537 ) ) ;
#653 = LINE ( 'NONE', #352, #691 ) ;
#654 = ORIENTED_EDGE ( 'NONE', *, *, #768, .T. ) ;
#655 = ORIENTED_EDGE ( 'NONE', *, *, #217, .T. ) ;
#656 = DIRECTION ( 'NONE',  ( 1.000000000000000000, 0.000000000000000000, 0.000000000000000000 ) ) ;
#657 = VECTOR ( 'NONE', #884, 1000.000000000000000 ) ;
#658 = VECTOR ( 'NONE', #560, 1000.000000000000000 ) ;
#659 = EDGE_CURVE ( 'NONE', #196, #620, #133, .T. ) ;
#660 = DIRECTION ( 'NONE',  ( 1.869918622334838533E-16, -1.000000000000000000, 0.000000000000000000 ) ) ;
#661 = PLANE ( 'NONE',  #749 ) ;
#662 = FACE_OUTER_BOUND ( 'NONE', #429, .T. ) ;
#663 = VERTEX_POINT ( 'NONE', #73 ) ;
#664 = DESIGN_CONTEXT ( 'detailed design', #160, 'design' ) ;
#665 = DIRECTION ( 'NONE',  ( 0.000000000000000000, 0.000000000000000000, 1.000000000000000000 ) ) ;
#666 = CARTESIAN_POINT ( 'NONE',  ( 60.17824183444734842, -18.43244739742504734, 41.90998560232096537 ) ) ;
#667 = ORIENTED_EDGE ( 'NONE', *, *, #517, .T. ) ;
#668 = ORIENTED_EDGE ( 'NONE', *, *, #795, .F. ) ;
#669 = LINE ( 'NONE', #171, #77 ) ;
#670 = CYLINDRICAL_SURFACE ( 'NONE', #342, 10.16000000000000192 ) ;
#671 = EDGE_CURVE ( 'NONE', #608, #914, #298, .T. ) ;
#672 = ORIENTED_EDGE ( 'NONE', *, *, #799, .F. ) ;
#673 = EDGE_CURVE ( 'NONE', #386, #314, #633, .T. ) ;
#674 = AXIS2_PLACEMENT_3D ( 'NONE', #859, #788, #84 ) ;
#675 = ORIENTED_EDGE ( 'NONE', *, *, #739, .T. ) ;
#676 = CARTESIAN_POINT ( 'NONE',  ( 55.17824183444734842, -18.43244739742504734, -3.810014397679036158 ) ) ;
#677 = VECTOR ( 'NONE', #94, 1000.000000000000000 ) ;
#678 = DIRECTION ( 'NONE',  ( 1.000000000000000000, 1.869918622334838533E-16, -0.000000000000000000 ) ) ;
#679 = LINE ( 'NONE', #601, #284 ) ;
#680 = ORIENTED_EDGE ( 'NONE', *, *, #739, .F. ) ;
#681 = EDGE_LOOP ( 'NONE', ( #490, #444, #709, #602, #365 ) ) ;
#682 = CARTESIAN_POINT ( 'NONE',  ( -19.82175816555265513, -18.43244739742504734, -13.97001439767903896 ) ) ;
#683 = EDGE_LOOP ( 'NONE', ( #576, #800, #597, #253 ) ) ;
#684 = DIRECTION ( 'NONE',  ( -0.000000000000000000, 0.000000000000000000, 1.000000000000000000 ) ) ;
#685 = FACE_OUTER_BOUND ( 'NONE', #683, .T. ) ;
#686 = EDGE_LOOP ( 'NONE', ( #275, #165, #325, #170 ) ) ;
#687 = CARTESIAN_POINT ( 'NONE',  ( 30.58110913739601244, 24.56755260257495266, -13.97001439767903896 ) ) ;
#688 = AXIS2_PLACEMENT_3D ( 'NONE', #17, #586, #856 ) ;
#689 = EDGE_CURVE ( 'NONE', #421, #793, #19, .T. ) ;
#690 = CIRCLE ( 'NONE', #569, 10.16000000000000014 ) ;
#691 = VECTOR ( 'NONE', #792, 1000.000000000000000 ) ;
#692 = CALENDAR_DATE ( 2025, 7, 3 ) ;
#693 = ORIENTED_EDGE ( 'NONE', *, *, #210, .T. ) ;
#694 = CARTESIAN_POINT ( 'NONE',  ( -19.82175816555265513, -18.43244739742504734, 41.90998560232096537 ) ) ;
#695 = DIRECTION ( 'NONE',  ( 0.000000000000000000, 0.000000000000000000, 1.000000000000000000 ) ) ;
#696 = ORIENTED_EDGE ( 'NONE', *, *, #194, .F. ) ;
#697 = CYLINDRICAL_SURFACE ( 'NONE', #463, 6.999999999999999112 ) ;
#698 = DIRECTION ( 'NONE',  ( 1.000000000000000000, 0.000000000000000000, 0.000000000000000000 ) ) ;
#699 = DATE_AND_TIME ( #558, #86 ) ;
#700 = ORIENTED_EDGE ( 'NONE', *, *, #451, .F. ) ;
#701 = CARTESIAN_POINT ( 'NONE',  ( 50.01824183444733052, -18.43244739742504734, -8.970014397679037188 ) ) ;
#702 = EDGE_CURVE ( 'NONE', #60, #548, #653, .T. ) ;
#703 = CYLINDRICAL_SURFACE ( 'NONE', #313, 11.99999999999999645 ) ;
#704 = CIRCLE ( 'NONE', #445, 6.999999999999999112 ) ;
#705 = APPROVAL_STATUS ( 'not_yet_approved' ) ;
#706 = VERTEX_POINT ( 'NONE', #80 ) ;
#707 = AXIS2_PLACEMENT_3D ( 'NONE', #694, #708, #128 ) ;
#708 = DIRECTION ( 'NONE',  ( -0.000000000000000000, 0.000000000000000000, 1.000000000000000000 ) ) ;
#709 = ORIENTED_EDGE ( 'NONE', *, *, #221, .T. ) ;
#710 = CARTESIAN_POINT ( 'NONE',  ( 55.17824183444732711, 45.62355132067006025, -3.810014397679035714 ) ) ;
#711 = EDGE_CURVE ( 'NONE', #450, #376, #730, .T. ) ;
#712 = DIRECTION ( 'NONE',  ( 1.869918622334838533E-16, -1.000000000000000000, 0.000000000000000000 ) ) ;
#713 = DIRECTION ( 'NONE',  ( 1.000000000000000000, 0.000000000000000000, 0.000000000000000000 ) ) ;
#714 = ADVANCED_FACE ( 'NONE', ( #869 ), #89, .T. ) ;
#715 = DIRECTION ( 'NONE',  ( 1.000000000000000000, -0.000000000000000000, -0.000000000000000000 ) ) ;
#716 = AXIS2_PLACEMENT_3D ( 'NONE', #103, #236, #523 ) ;
#717 = CARTESIAN_POINT ( 'NONE',  ( 30.58110913739601244, 24.56755260257495266, -8.970014397679037188 ) ) ;
#718 = VERTEX_POINT ( 'NONE', #646 ) ;
#719 = AXIS2_PLACEMENT_3D ( 'NONE', #304, #110, #527 ) ;
#720 = VECTOR ( 'NONE', #551, 1000.000000000000000 ) ;
#721 = CARTESIAN_POINT ( 'NONE',  ( 50.01824183444734473, -18.43244739742504734, -3.810014397679036158 ) ) ;
#722 = CC_DESIGN_DATE_AND_TIME_ASSIGNMENT ( #119, #142, ( #762 ) ) ;
#723 = DIRECTION ( 'NONE',  ( 1.869918622334838533E-16, -1.000000000000000000, 0.000000000000000000 ) ) ;
#724 = ORIENTED_EDGE ( 'NONE', *, *, #809, .F. ) ;
#725 = CYLINDRICAL_SURFACE ( 'NONE', #855, 5.159999999999998366 ) ;
#726 = FACE_OUTER_BOUND ( 'NONE', #618, .T. ) ;
#727 = CARTESIAN_POINT ( 'NONE',  ( -9.661758165552667421, 50.78355132067007105, -8.970014397679040741 ) ) ;
#728 = ORIENTED_EDGE ( 'NONE', *, *, #562, .T. ) ;
#729 = CARTESIAN_POINT ( 'NONE',  ( 30.58110913739601244, 24.56755260257495266, -8.970014397679037188 ) ) ;
#730 = LINE ( 'NONE', #510, #782 ) ;
#731 = CIRCLE ( 'NONE', #716, 6.999999999999999112 ) ;
#732 = VECTOR ( 'NONE', #735, 1000.000000000000000 ) ;
#733 = AXIS2_PLACEMENT_3D ( 'NONE', #434, #798, #497 ) ;
#734 = CARTESIAN_POINT ( 'NONE',  ( -9.661758165552667421, 55.78355132067007105, -13.97001439767903896 ) ) ;
#735 = DIRECTION ( 'NONE',  ( -1.000000000000000000, 0.000000000000000000, 0.000000000000000000 ) ) ;
#736 = DIRECTION ( 'NONE',  ( 0.000000000000000000, 0.000000000000000000, -1.000000000000000000 ) ) ;
#737 = ORIENTED_EDGE ( 'NONE', *, *, #846, .T. ) ;
#738 = VERTEX_POINT ( 'NONE', #727 ) ;
#739 = EDGE_CURVE ( 'NONE', #60, #738, #495, .T. ) ;
#740 = CARTESIAN_POINT ( 'NONE',  ( 60.17824183444734842, -18.43244739742504734, -3.810014397679036158 ) ) ;
#741 = FACE_BOUND ( 'NONE', #46, .T. ) ;
#742 = CARTESIAN_POINT ( 'NONE',  ( 23.58110913739601244, 24.56755260257495266, 36.90998560232097248 ) ) ;
#743 = EDGE_LOOP ( 'NONE', ( #205, #290 ) ) ;
#744 = DIRECTION ( 'NONE',  ( -0.000000000000000000, -0.000000000000000000, 1.000000000000000000 ) ) ;
#745 = FACE_OUTER_BOUND ( 'NONE', #192, .T. ) ;
#746 = EDGE_LOOP ( 'NONE', ( #396, #476, #693, #224, #737, #462 ) ) ;
#747 = ORIENTED_EDGE ( 'NONE', *, *, #433, .T. ) ;
#748 = CYLINDRICAL_SURFACE ( 'NONE', #750, 6.999999999999995559 ) ;
#749 = AXIS2_PLACEMENT_3D ( 'NONE', #218, #20, #83 ) ;
#750 = AXIS2_PLACEMENT_3D ( 'NONE', #810, #871, #378 ) ;
#751 = LINE ( 'NONE', #320, #446 ) ;
#752 = PLANE ( 'NONE',  #909 ) ;
#753 = ORIENTED_EDGE ( 'NONE', *, *, #332, .F. ) ;
#754 = LINE ( 'NONE', #393, #479 ) ;
#755 = DIRECTION ( 'NONE',  ( 0.000000000000000000, 0.000000000000000000, -1.000000000000000000 ) ) ;
#756 = VERTEX_POINT ( 'NONE', #4 ) ;
#757 = ADVANCED_FACE ( 'NONE', ( #428 ), #499, .T. ) ;
#758 = CARTESIAN_POINT ( 'NONE',  ( 23.58110913739601244, 24.56755260257495266, -13.97001439767903896 ) ) ;
#759 = ORIENTED_EDGE ( 'NONE', *, *, #113, .F. ) ;
#760 = FACE_OUTER_BOUND ( 'NONE', #505, .T. ) ;
#761 = DIRECTION ( 'NONE',  ( 0.000000000000000000, 1.000000000000000000, -0.000000000000000000 ) ) ;
#762 = SECURITY_CLASSIFICATION ( '', '', #204 ) ;
#763 = AXIS2_PLACEMENT_3D ( 'NONE', #797, #784, #794 ) ;
#764 =( BOUNDED_CURVE ( )  B_SPLINE_CURVE ( 3, ( #98, #36, #311, #882 ),
 .UNSPECIFIED., .F., .T. ) 
 B_SPLINE_CURVE_WITH_KNOTS ( ( 4, 4 ),
 ( 3.141592653589793116, 4.712388980384689674 ),
 .UNSPECIFIED. ) 
 CURVE ( )  GEOMETRIC_REPRESENTATION_ITEM ( )  RATIONAL_B_SPLINE_CURVE ( ( 1.000000000000000000, 0.8047378541243649375, 0.8047378541243649375, 1.000000000000000000 ) ) 
 REPRESENTATION_ITEM ( '' )  );
#765 = ORIENTED_EDGE ( 'NONE', *, *, #392, .T. ) ;
#766 = PLANE ( 'NONE',  #584 ) ;
#767 = PLANE ( 'NONE',  #616 ) ;
#768 = EDGE_CURVE ( 'NONE', #514, #338, #229, .T. ) ;
#769 = EDGE_CURVE ( 'NONE', #97, #920, #417, .T. ) ;
#770 = APPROVAL_DATE_TIME ( #420, #225 ) ;
#771 = ORIENTED_EDGE ( 'NONE', *, *, #815, .F. ) ;
#772 = CARTESIAN_POINT ( 'NONE',  ( -14.82175816555265513, -18.43244739742504734, -8.970014397679037188 ) ) ;
#773 = DIRECTION ( 'NONE',  ( -0.000000000000000000, -1.000000000000000000, -0.000000000000000000 ) ) ;
#774 = COORDINATED_UNIVERSAL_TIME_OFFSET ( 6, 0, .BEHIND. ) ;
#775 = ORIENTED_EDGE ( 'NONE', *, *, #50, .T. ) ;
#776 = EDGE_CURVE ( 'NONE', #513, #40, #796, .T. ) ;
#777 = DIRECTION ( 'NONE',  ( 1.869918622334838533E-16, -1.000000000000000000, 0.000000000000000000 ) ) ;
#778 = VECTOR ( 'NONE', #785, 1000.000000000000000 ) ;
#779 = AXIS2_PLACEMENT_3D ( 'NONE', #287, #150, #156 ) ;
#780 = PERSON_AND_ORGANIZATION_ROLE ( 'classification_officer' ) ;
#781 = ORIENTED_EDGE ( 'NONE', *, *, #502, .T. ) ;
#782 = VECTOR ( 'NONE', #713, 1000.000000000000000 ) ;
#783 = CC_DESIGN_PERSON_AND_ORGANIZATION_ASSIGNMENT ( #208, #780, ( #762 ) ) ;
#784 = DIRECTION ( 'NONE',  ( -0.000000000000000000, 0.000000000000000000, 1.000000000000000000 ) ) ;
#785 = DIRECTION ( 'NONE',  ( 1.869918622334838533E-16, -1.000000000000000000, 0.000000000000000000 ) ) ;
#786 = ADVANCED_FACE ( 'NONE', ( #662 ), #147, .F. ) ;
#787 = FACE_OUTER_BOUND ( 'NONE', #881, .T. ) ;
#788 = DIRECTION ( 'NONE',  ( 0.000000000000000000, 0.000000000000000000, -1.000000000000000000 ) ) ;
#789 = EDGE_LOOP ( 'NONE', ( #771, #457, #728, #312 ) ) ;
#790 = CC_DESIGN_APPROVAL ( #130, ( #30 ) ) ;
#791 = DIRECTION ( 'NONE',  ( -0.000000000000000000, -1.000000000000000000, -0.000000000000000000 ) ) ;
#792 = DIRECTION ( 'NONE',  ( 1.869918622334838533E-16, -1.000000000000000000, 0.000000000000000000 ) ) ;
#793 = VERTEX_POINT ( 'NONE', #158 ) ;
#794 = DIRECTION ( 'NONE',  ( 1.000000000000000000, 0.000000000000000000, 0.000000000000000000 ) ) ;
#795 = EDGE_CURVE ( 'NONE', #706, #66, #458, .T. ) ;
#796 = LINE ( 'NONE', #21, #778 ) ;
#797 = CARTESIAN_POINT ( 'NONE',  ( -9.661758165552667421, 45.62355132067006735, 36.90998560232097248 ) ) ;
#798 = DIRECTION ( 'NONE',  ( 0.000000000000000000, -0.000000000000000000, -1.000000000000000000 ) ) ;
#799 = EDGE_CURVE ( 'NONE', #917, #421, #233, .T. ) ;
#800 = ORIENTED_EDGE ( 'NONE', *, *, #644, .T. ) ;
#801 = ORIENTED_EDGE ( 'NONE', *, *, #550, .F. ) ;
#802 = DIRECTION ( 'NONE',  ( -1.000000000000000000, -1.869918622334838533E-16, 0.000000000000000000 ) ) ;
#803 = CARTESIAN_POINT ( 'NONE',  ( -14.80000000000000071, 24.56755260257494911, 20.96998560232095699 ) ) ;
#804 = FACE_BOUND ( 'NONE', #743, .T. ) ;
#805 = CIRCLE ( 'NONE', #122, 10.16000000000000192 ) ;
#806 = ADVANCED_FACE ( 'NONE', ( #356, #7 ), #364, .F. ) ;
#807 = AXIS2_PLACEMENT_3D ( 'NONE', #682, #235, #99 ) ;
#808 = VECTOR ( 'NONE', #526, 1000.000000000000000 ) ;
#809 = EDGE_CURVE ( 'NONE', #426, #525, #704, .T. ) ;
#810 = CARTESIAN_POINT ( 'NONE',  ( -19.82175816555266934, 24.56755260257494911, 13.96998560232096054 ) ) ;
#811 = DIRECTION ( 'NONE',  ( -1.000000000000000000, -1.869918622334838533E-16, 0.000000000000000000 ) ) ;
#812 = DIRECTION ( 'NONE',  ( -1.000000000000000000, 0.000000000000000000, 0.000000000000000000 ) ) ;
#813 = ORIENTED_EDGE ( 'NONE', *, *, #57, .T. ) ;
#814 = ORIENTED_EDGE ( 'NONE', *, *, #604, .F. ) ;
#815 = EDGE_CURVE ( 'NONE', #866, #470, #408, .T. ) ;
#816 = CARTESIAN_POINT ( 'NONE',  ( 55.17824183444734842, -18.43244739742504734, 31.74998560232096523 ) ) ;
#817 = FACE_BOUND ( 'NONE', #132, .T. ) ;
#818 = LINE ( 'NONE', #821, #581 ) ;
#819 = VERTEX_POINT ( 'NONE', #395 ) ;
#820 = CARTESIAN_POINT ( 'NONE',  ( 50.01824183444733052, 50.78355132067006394, -8.970014397679037188 ) ) ;
#821 = CARTESIAN_POINT ( 'NONE',  ( 50.01824183444733052, 55.78355132067007105, 41.90998560232096537 ) ) ;
#822 = ORIENTED_EDGE ( 'NONE', *, *, #243, .T. ) ;
#823 = LOCAL_TIME ( 22, 50, 51.00000000000000000, #832 ) ;
#824 = EDGE_LOOP ( 'NONE', ( #9, #781, #159, #637 ) ) ;
#825 = CIRCLE ( 'NONE', #864, 11.99999999999999645 ) ;
#826 = LINE ( 'NONE', #109, #521 ) ;
#827 = AXIS2_PLACEMENT_3D ( 'NONE', #568, #442, #223 ) ;
#828 = DIRECTION ( 'NONE',  ( -1.000000000000000000, 0.000000000000000000, 0.000000000000000000 ) ) ;
#829 = ORIENTED_EDGE ( 'NONE', *, *, #310, .T. ) ;
#830 = EDGE_CURVE ( 'NONE', #513, #18, #679, .T. ) ;
#831 = CARTESIAN_POINT ( 'NONE',  ( 60.17824183444734842, -18.43244739742504734, 41.90998560232096537 ) ) ;
#832 = COORDINATED_UNIVERSAL_TIME_OFFSET ( 6, 0, .BEHIND. ) ;
#833 = EDGE_LOOP ( 'NONE', ( #381, #587, #295, #346 ) ) ;
#834 = DIRECTION ( 'NONE',  ( -1.000000000000000000, 0.000000000000000000, 0.000000000000000000 ) ) ;
#835 = CARTESIAN_POINT ( 'NONE',  ( 50.01824183444734473, -18.43244739742504734, -3.810014397679036158 ) ) ;
#836 = COORDINATED_UNIVERSAL_TIME_OFFSET ( 6, 0, .BEHIND. ) ;
#837 = ORIENTED_EDGE ( 'NONE', *, *, #217, .F. ) ;
#838 = CARTESIAN_POINT ( 'NONE',  ( -14.82175816555265513, -18.43244739742504734, 41.90998560232096537 ) ) ;
#839 = EDGE_CURVE ( 'NONE', #524, #870, #818, .T. ) ;
#840 = CARTESIAN_POINT ( 'NONE',  ( -19.82175816555265513, -18.43244739742504734, -8.970014397679037188 ) ) ;
#841 = EDGE_CURVE ( 'NONE', #608, #97, #305, .T. ) ;
#842 = AXIS2_PLACEMENT_3D ( 'NONE', #326, #619, #900 ) ;
#843 = ORIENTED_EDGE ( 'NONE', *, *, #689, .T. ) ;
#844 = CARTESIAN_POINT ( 'NONE',  ( -19.82175816555265513, -18.43244739742504734, 41.90998560232096537 ) ) ;
#845 = DIRECTION ( 'NONE',  ( 1.869918622334838533E-16, -1.000000000000000000, -0.000000000000000000 ) ) ;
#846 = EDGE_CURVE ( 'NONE', #386, #663, #466, .T. ) ;
#847 = PERSON_AND_ORGANIZATION ( #615, #181 ) ;
#848 = ORIENTED_EDGE ( 'NONE', *, *, #635, .F. ) ;
#849 = CARTESIAN_POINT ( 'NONE',  ( -9.661758165552667421, 55.78355132067007105, 41.90998560232096537 ) ) ;
#850 = PERSON_AND_ORGANIZATION ( #615, #181 ) ;
#851 = ORIENTED_EDGE ( 'NONE', *, *, #902, .T. ) ;
#852 = CARTESIAN_POINT ( 'NONE',  ( 50.01824183444734473, -18.43244739742504734, -8.970014397679037188 ) ) ;
#853 = AXIS2_PLACEMENT_3D ( 'NONE', #405, #59, #617 ) ;
#854 = CARTESIAN_POINT ( 'NONE',  ( -9.661758165552667421, 55.78355132067007105, 41.90998560232096537 ) ) ;
#855 = AXIS2_PLACEMENT_3D ( 'NONE', #281, #777, #137 ) ;
#856 = DIRECTION ( 'NONE',  ( 0.000000000000000000, -0.000000000000000000, 1.000000000000000000 ) ) ;
#857 = ADVANCED_FACE ( 'NONE', ( #745 ), #241, .F. ) ;
#858 = DIRECTION ( 'NONE',  ( -1.869918622334838533E-16, 1.000000000000000000, 0.000000000000000000 ) ) ;
#859 = CARTESIAN_POINT ( 'NONE',  ( -9.661758165552667421, 45.62355132067006735, 41.90998560232096537 ) ) ;
#860 = ORIENTED_EDGE ( 'NONE', *, *, #323, .F. ) ;
#861 = FACE_BOUND ( 'NONE', #248, .T. ) ;
#862 = ORIENTED_EDGE ( 'NONE', *, *, #126, .F. ) ;
#863 = CARTESIAN_POINT ( 'NONE',  ( -19.82175816555266934, 24.56755260257494911, 1.969985602320964535 ) ) ;
#864 = AXIS2_PLACEMENT_3D ( 'NONE', #571, #363, #215 ) ;
#865 = DIRECTION ( 'NONE',  ( -1.000000000000000000, -3.414809992080328037E-16, 0.000000000000000000 ) ) ;
#866 = VERTEX_POINT ( 'NONE', #38 ) ;
#867 = EDGE_CURVE ( 'NONE', #914, #608, #731, .T. ) ;
#868 = CARTESIAN_POINT ( 'NONE',  ( -19.82175816555265513, -18.43244739742504734, 41.90998560232096537 ) ) ;
#869 = FACE_OUTER_BOUND ( 'NONE', #833, .T. ) ;
#870 = VERTEX_POINT ( 'NONE', #173 ) ;
#871 = DIRECTION ( 'NONE',  ( 1.000000000000000000, -0.000000000000000000, -0.000000000000000000 ) ) ;
#872 = CARTESIAN_POINT ( 'NONE',  ( -9.661758165552667421, 50.78355132067007105, 41.90998560232096537 ) ) ;
#873 = ORIENTED_EDGE ( 'NONE', *, *, #769, .T. ) ;
#874 = EDGE_LOOP ( 'NONE', ( #542, #242, #559, #848, #220 ) ) ;
#875 = DIRECTION ( 'NONE',  ( 1.000000000000000000, -0.000000000000000000, 0.000000000000000000 ) ) ;
#876 = DIRECTION ( 'NONE',  ( 0.000000000000000000, 0.000000000000000000, -1.000000000000000000 ) ) ;
#877 = CARTESIAN_POINT ( 'NONE',  ( 55.17824183444733421, 45.62355132067006735, 31.74998560232096523 ) ) ;
#878 = ORIENTED_EDGE ( 'NONE', *, *, #451, .T. ) ;
#879 = ADVANCED_FACE ( 'NONE', ( #607, #804 ), #752, .T. ) ;
#880 = CIRCLE ( 'NONE', #779, 10.16000000000000014 ) ;
#881 = EDGE_LOOP ( 'NONE', ( #90, #903, #907, #96 ) ) ;
#882 = CARTESIAN_POINT ( 'NONE',  ( 60.17824183444733421, 45.62355132067006735, 31.74998560232096523 ) ) ;
#883 = CYLINDRICAL_SURFACE ( 'NONE', #184, 6.999999999999999112 ) ;
#884 = DIRECTION ( 'NONE',  ( -0.000000000000000000, -0.000000000000000000, 1.000000000000000000 ) ) ;
#885 = VERTEX_POINT ( 'NONE', #111 ) ;
#886 = VERTEX_POINT ( 'NONE', #177 ) ;
#887 = DIRECTION ( 'NONE',  ( -0.000000000000000000, -0.000000000000000000, 1.000000000000000000 ) ) ;
#888 = CARTESIAN_POINT ( 'NONE',  ( -14.82175816555266223, 24.56755260257494911, 13.96998560232096054 ) ) ;
#889 = CARTESIAN_POINT ( 'NONE',  ( 50.01824183444734473, -18.43244739742504734, 31.74998560232096523 ) ) ;
#890 = EDGE_LOOP ( 'NONE', ( #753, #822, #238, #862, #258 ) ) ;
#891 = CARTESIAN_POINT ( 'NONE',  ( 50.01824183444734473, -18.43244739742504734, -13.97001439767903896 ) ) ;
#892 = EDGE_CURVE ( 'NONE', #426, #66, #168, .T. ) ;
#893 = LINE ( 'NONE', #102, #732 ) ;
#894 = DIRECTION ( 'NONE',  ( -1.869918622334838533E-16, 1.000000000000000000, -0.000000000000000000 ) ) ;
#895 = ORIENTED_EDGE ( 'NONE', *, *, #795, .T. ) ;
#896 = CC_DESIGN_APPROVAL ( #225, ( #303 ) ) ;
#897 = LINE ( 'NONE', #44, #583 ) ;
#898 = AXIS2_PLACEMENT_3D ( 'NONE', #288, #151, #504 ) ;
#899 = ORIENTED_EDGE ( 'NONE', *, *, #232, .T. ) ;
#900 = DIRECTION ( 'NONE',  ( 0.000000000000000000, 0.000000000000000000, -1.000000000000000000 ) ) ;
#901 = APPROVAL_STATUS ( 'not_yet_approved' ) ;
#902 = EDGE_CURVE ( 'NONE', #793, #421, #166, .T. ) ;
#903 = ORIENTED_EDGE ( 'NONE', *, *, #403, .T. ) ;
#904 = CARTESIAN_POINT ( 'NONE',  ( 60.17824183444733421, 50.78355132067007105, 36.90998560232097248 ) ) ;
#905 = LINE ( 'NONE', #557, #431 ) ;
#906 = SHAPE_DEFINITION_REPRESENTATION ( #599, #6 ) ;
#907 = ORIENTED_EDGE ( 'NONE', *, *, #10, .F. ) ;
#908 = PLANE ( 'NONE',  #707 ) ;
#909 = AXIS2_PLACEMENT_3D ( 'NONE', #611, #528, #316 ) ;
#910 = CARTESIAN_POINT ( 'NONE',  ( 55.17824183444733421, 45.62355132067006735, 31.74998560232096523 ) ) ;
#911 = VECTOR ( 'NONE', #441, 1000.000000000000000 ) ;
#912 = VECTOR ( 'NONE', #484, 1000.000000000000000 ) ;
#913 = CALENDAR_DATE ( 2025, 7, 3 ) ;
#914 = VERTEX_POINT ( 'NONE', #742 ) ;
#915 = CYLINDRICAL_SURFACE ( 'NONE', #286, 6.999999999999999112 ) ;
#916 = CARTESIAN_POINT ( 'NONE',  ( -19.82175816555266934, 24.56755260257494911, 6.969985602320964979 ) ) ;
#917 = VERTEX_POINT ( 'NONE', #461 ) ;
#918 = DIRECTION ( 'NONE',  ( -0.000000000000000000, -0.000000000000000000, 1.000000000000000000 ) ) ;
#919 = EDGE_CURVE ( 'NONE', #127, #524, #805, .T. ) ;
#920 = VERTEX_POINT ( 'NONE', #541 ) ;
#921 = DIRECTION ( 'NONE',  ( 1.000000000000000000, 0.000000000000000000, 0.000000000000000000 ) ) ;
ENDSEC;
END-ISO-10303-21;
