ISO-10303-21;
HEADER;
FILE_DESCRIPTION (( 'STEP AP203' ),
    '1' );
FILE_NAME ('Motor arm body - 002_Default_sldprt.STEP',
    '2025-03-08T04:50:43',
    ( '' ),
    ( '' ),
    'SwSTEP 2.0',
    'SolidWorks 2024',
    '' );
FILE_SCHEMA (( 'CONFIG_CONTROL_DESIGN' ));
ENDSEC;

DATA;
#1 = AXIS2_PLACEMENT_3D ( 'NONE', #194, #313, #156 ) ;
#2 = AXIS2_PLACEMENT_3D ( 'NONE', #288, #23, #205 ) ;
#3 = CARTESIAN_POINT ( 'NONE',  ( -1.605603121140110279, -36.60814331115699360, 1.905000000000000027 ) ) ;
#4 = FACE_OUTER_BOUND ( 'NONE', #230, .T. ) ;
#5 = CARTESIAN_POINT ( 'NONE',  ( 1.569396878859888211, -36.60814331115699360, -0.6350000000000001199 ) ) ;
#6 = EDGE_CURVE ( 'NONE', #247, #24, #370, .T. ) ;
#7 = CIRCLE ( 'NONE', #223, 7.000000000000000000 ) ;
#8 = FACE_OUTER_BOUND ( 'NONE', #90, .T. ) ;
#9 = LINE ( 'NONE', #280, #285 ) ;
#10 = ORIENTED_EDGE ( 'NONE', *, *, #69, .T. ) ;
#11 = EDGE_CURVE ( 'NONE', #116, #383, #304, .T. ) ;
#12 = DIRECTION ( 'NONE',  ( 0.06335880643288760439, -0.9979908124063066044, 0.000000000000000000 ) ) ;
#13 = DIRECTION ( 'NONE',  ( -0.000000000000000000, -0.000000000000000000, 1.000000000000000000 ) ) ;
#14 = APPROVAL_PERSON_ORGANIZATION ( #271, #289, #94 ) ;
#15 = CARTESIAN_POINT ( 'NONE',  ( -0.01810312114011104756, -36.60814331115699360, 1.905000000000000027 ) ) ;
#16 = VERTEX_POINT ( 'NONE', #241 ) ;
#17 = DATE_AND_TIME ( #172, #93 ) ;
#18 = ORIENTED_EDGE ( 'NONE', *, *, #195, .T. ) ;
#19 = CIRCLE ( 'NONE', #242, 1.587499999999999245 ) ;
#20 = DATE_TIME_ROLE ( 'creation_date' ) ;
#21 = ORIENTED_EDGE ( 'NONE', *, *, #334, .F. ) ;
#22 = ADVANCED_FACE ( 'NONE', ( #207, #154, #308 ), #245, .T. ) ;
#23 = DIRECTION ( 'NONE',  ( -0.000000000000000000, -0.000000000000000000, -1.000000000000000000 ) ) ;
#24 = VERTEX_POINT ( 'NONE', #212 ) ;
#25 = EDGE_CURVE ( 'NONE', #227, #383, #258, .T. ) ;
#26 = APPROVAL_STATUS ( 'not_yet_approved' ) ;
#27 = VERTEX_POINT ( 'NONE', #3 ) ;
#28 = AXIS2_PLACEMENT_3D ( 'NONE', #30, #214, #149 ) ;
#29 = ORIENTED_EDGE ( 'NONE', *, *, #109, .F. ) ;
#30 = CARTESIAN_POINT ( 'NONE',  ( -0.01810312114011104756, -36.60814331115699360, -0.6350000000000001199 ) ) ;
#31 = EDGE_CURVE ( 'NONE', #81, #247, #270, .T. ) ;
#32 = DIRECTION ( 'NONE',  ( 0.000000000000000000, 0.000000000000000000, 1.000000000000000000 ) ) ;
#33 = CIRCLE ( 'NONE', #157, 1.587499999999999245 ) ;
#34 = CARTESIAN_POINT ( 'NONE',  ( -0.01810312114011695256, 11.65185668884300796, -0.6350000000000000089 ) ) ;
#35 = DIRECTION ( 'NONE',  ( 1.000000000000000000, 0.000000000000000000, 0.000000000000000000 ) ) ;
#36 = DIRECTION ( 'NONE',  ( 0.000000000000000000, 0.000000000000000000, 1.000000000000000000 ) ) ;
#37 = AXIS2_PLACEMENT_3D ( 'NONE', #121, #68, #387 ) ;
#38 = LINE ( 'NONE', #41, #343 ) ;
#39 = ADVANCED_FACE ( 'NONE', ( #307 ), #389, .F. ) ;
#40 = CARTESIAN_POINT ( 'NONE',  ( -14.27396464718435354, 11.65185668884300441, -0.6350000000000000089 ) ) ;
#41 = CARTESIAN_POINT ( 'NONE',  ( 6.981896878859882527, 11.65185668884300796, 1.905000000000000027 ) ) ;
#42 = FACE_OUTER_BOUND ( 'NONE', #325, .T. ) ;
#43 = VECTOR ( 'NONE', #254, 1000.000000000000000 ) ;
#44 = PLANE ( 'NONE',  #235 ) ;
#45 =( NAMED_UNIT ( * ) SI_UNIT ( $, .STERADIAN. ) SOLID_ANGLE_UNIT ( ) );
#46 = CC_DESIGN_PERSON_AND_ORGANIZATION_ASSIGNMENT ( #196, #137, ( #210 ) ) ;
#47 = ORIENTED_EDGE ( 'NONE', *, *, #168, .F. ) ;
#48 = DIRECTION ( 'NONE',  ( 0.000000000000000000, 0.000000000000000000, 1.000000000000000000 ) ) ;
#49 = EDGE_LOOP ( 'NONE', ( #114, #262 ) ) ;
#50 = EDGE_CURVE ( 'NONE', #81, #197, #351, .T. ) ;
#51 = AXIS2_PLACEMENT_3D ( 'NONE', #34, #36, #331 ) ;
#52 = CC_DESIGN_APPROVAL ( #257, ( #210 ) ) ;
#53 = ORIENTED_EDGE ( 'NONE', *, *, #11, .F. ) ;
#54 = DIRECTION ( 'NONE',  ( 0.000000000000000000, 0.000000000000000000, 1.000000000000000000 ) ) ;
#55 = ORIENTED_EDGE ( 'NONE', *, *, #50, .F. ) ;
#56 = APPROVAL_DATE_TIME ( #209, #289 ) ;
#57 = ORIENTED_EDGE ( 'NONE', *, *, #303, .T. ) ;
#58 = VECTOR ( 'NONE', #108, 1000.000000000000000 ) ;
#59 = PERSON_AND_ORGANIZATION ( #131, #79 ) ;
#60 = ADVANCED_FACE ( 'NONE', ( #4 ), #357, .F. ) ;
#61 = CARTESIAN_POINT ( 'NONE',  ( -14.27396464718435354, 11.65185668884300441, 1.905000000000000027 ) ) ;
#62 = CARTESIAN_POINT ( 'NONE',  ( -0.01810312114011695256, 11.65185668884300796, 1.905000000000000027 ) ) ;
#63 = CALENDAR_DATE ( 2025, 7, 3 ) ;
#64 = DIRECTION ( 'NONE',  ( 0.000000000000000000, 0.000000000000000000, 1.000000000000000000 ) ) ;
#65 = VECTOR ( 'NONE', #129, 1000.000000000000000 ) ;
#66 = CARTESIAN_POINT ( 'NONE',  ( -0.01810312114011104756, -36.60814331115699360, -0.6350000000000001199 ) ) ;
#67 = MANIFOLD_SOLID_BREP ( 'Cut-Extrude1', #179 ) ;
#68 = DIRECTION ( 'NONE',  ( -0.000000000000000000, -0.000000000000000000, 1.000000000000000000 ) ) ;
#69 = EDGE_CURVE ( 'NONE', #27, #178, #279, .T. ) ;
#70 = LINE ( 'NONE', #132, #58 ) ;
#71 = VERTEX_POINT ( 'NONE', #126 ) ;
#72 = VECTOR ( 'NONE', #166, 1000.000000000000000 ) ;
#73 = CARTESIAN_POINT ( 'NONE',  ( -0.01810312114011104756, -36.60814331115699360, -0.6350000000000001199 ) ) ;
#74 = AXIS2_PLACEMENT_3D ( 'NONE', #87, #48, #346 ) ;
#75 = DIRECTION ( 'NONE',  ( 0.06037604879377281991, 0.9981757023350408264, 0.000000000000000000 ) ) ;
#76 = ORIENTED_EDGE ( 'NONE', *, *, #340, .T. ) ;
#77 = DIRECTION ( 'NONE',  ( -0.000000000000000000, -0.000000000000000000, -1.000000000000000000 ) ) ;
#78 = FACE_OUTER_BOUND ( 'NONE', #345, .T. ) ;
#79 = ORGANIZATION ( 'UNSPECIFIED', 'UNSPECIFIED', '' ) ;
#80 = APPROVAL_ROLE ( '' ) ;
#81 = VERTEX_POINT ( 'NONE', #244 ) ;
#82 = APPLICATION_PROTOCOL_DEFINITION ( 'international standard', 'config_control_design', 1994, #183 ) ;
#83 = EDGE_CURVE ( 'NONE', #204, #141, #92, .T. ) ;
#84 = ORIENTED_EDGE ( 'NONE', *, *, #69, .F. ) ;
#85 = ORIENTED_EDGE ( 'NONE', *, *, #83, .F. ) ;
#86 = AXIS2_PLACEMENT_3D ( 'NONE', #302, #32, #35 ) ;
#87 = CARTESIAN_POINT ( 'NONE',  ( 0.000000000000000000, 0.000000000000000000, 0.000000000000000000 ) ) ;
#88 = EDGE_LOOP ( 'NONE', ( #376, #353, #201, #113 ) ) ;
#89 = APPLICATION_PROTOCOL_DEFINITION ( 'international standard', 'config_control_design', 1994, #320 ) ;
#90 = EDGE_LOOP ( 'NONE', ( #85, #76, #10, #176 ) ) ;
#91 = DIRECTION ( 'NONE',  ( 1.000000000000000000, 0.000000000000000000, 0.000000000000000000 ) ) ;
#92 = CIRCLE ( 'NONE', #28, 1.587499999999999245 ) ;
#93 = LOCAL_TIME ( 22, 50, 43.00000000000000000, #236 ) ;
#94 = APPROVAL_ROLE ( '' ) ;
#95 = DIRECTION ( 'NONE',  ( 0.000000000000000000, 0.000000000000000000, 1.000000000000000000 ) ) ;
#96 = COORDINATED_UNIVERSAL_TIME_OFFSET ( 6, 0, .BEHIND. ) ;
#97 = DIRECTION ( 'NONE',  ( 0.000000000000000000, 0.000000000000000000, 1.000000000000000000 ) ) ;
#98 = COORDINATED_UNIVERSAL_TIME_OFFSET ( 6, 0, .BEHIND. ) ;
#99 = EDGE_LOOP ( 'NONE', ( #266, #117, #327, #161 ) ) ;
#100 = VECTOR ( 'NONE', #102, 1000.000000000000000 ) ;
#101 = FACE_OUTER_BOUND ( 'NONE', #379, .T. ) ;
#102 = DIRECTION ( 'NONE',  ( 0.06335880643288760439, -0.9979908124063066044, 0.000000000000000000 ) ) ;
#103 = CARTESIAN_POINT ( 'NONE',  ( -11.21011279560408980, -36.60814331115698650, -0.6350000000000000089 ) ) ;
#104 = ORIENTED_EDGE ( 'NONE', *, *, #275, .T. ) ;
#105 = VECTOR ( 'NONE', #276, 1000.000000000000000 ) ;
#106 = DIRECTION ( 'NONE',  ( -0.000000000000000000, -0.000000000000000000, -1.000000000000000000 ) ) ;
#107 = LOCAL_TIME ( 22, 50, 43.00000000000000000, #98 ) ;
#108 = DIRECTION ( 'NONE',  ( -0.000000000000000000, -0.000000000000000000, -1.000000000000000000 ) ) ;
#109 = EDGE_CURVE ( 'NONE', #141, #204, #33, .T. ) ;
#110 = DIRECTION ( 'NONE',  ( -1.000000000000000000, 0.000000000000000000, 0.000000000000000000 ) ) ;
#111 = PRODUCT_RELATED_PRODUCT_CATEGORY ( 'detail', '', ( #374 ) ) ;
#112 = AXIS2_PLACEMENT_3D ( 'NONE', #363, #211, #91 ) ;
#113 = ORIENTED_EDGE ( 'NONE', *, *, #275, .F. ) ;
#114 = ORIENTED_EDGE ( 'NONE', *, *, #109, .T. ) ;
#115 = APPROVAL_STATUS ( 'not_yet_approved' ) ;
#116 = VERTEX_POINT ( 'NONE', #277 ) ;
#117 = ORIENTED_EDGE ( 'NONE', *, *, #195, .F. ) ;
#118 = VECTOR ( 'NONE', #133, 1000.000000000000000 ) ;
#119 =( LENGTH_UNIT ( ) NAMED_UNIT ( * ) SI_UNIT ( .MILLI., .METRE. ) );
#120 = ORIENTED_EDGE ( 'NONE', *, *, #25, .T. ) ;
#121 = CARTESIAN_POINT ( 'NONE',  ( -0.01810312114011104756, -36.60814331115699360, -0.6350000000000001199 ) ) ;
#122 = CALENDAR_DATE ( 2025, 7, 3 ) ;
#123 = CARTESIAN_POINT ( 'NONE',  ( -0.01810312114011695256, 11.65185668884300796, 1.905000000000000027 ) ) ;
#124 = SECURITY_CLASSIFICATION_LEVEL ( 'unclassified' ) ;
#125 = CARTESIAN_POINT ( 'NONE',  ( -11.21011279560408980, -36.60814331115698650, 1.905000000000000027 ) ) ;
#126 = CARTESIAN_POINT ( 'NONE',  ( 14.23775840490411859, 11.65185668884300796, 1.905000000000000027 ) ) ;
#127 = DIRECTION ( 'NONE',  ( 1.000000000000000000, 0.000000000000000000, 0.000000000000000000 ) ) ;
#128 = CIRCLE ( 'NONE', #252, 7.000000000000000000 ) ;
#129 = DIRECTION ( 'NONE',  ( -0.000000000000000000, -0.000000000000000000, -1.000000000000000000 ) ) ;
#130 = ADVANCED_FACE ( 'NONE', ( #101 ), #360, .F. ) ;
#131 = PERSON ( 'UNSPECIFIED', 'UNSPECIFIED', 'UNSPECIFIED', ('UNSPECIFIED'), ('UNSPECIFIED'), ('UNSPECIFIED') ) ;
#132 = CARTESIAN_POINT ( 'NONE',  ( -14.27396464718435354, 11.65185668884300441, 1.905000000000000027 ) ) ;
#133 = DIRECTION ( 'NONE',  ( -0.000000000000000000, -0.000000000000000000, 1.000000000000000000 ) ) ;
#134 = EDGE_CURVE ( 'NONE', #71, #233, #305, .T. ) ;
#135 = CARTESIAN_POINT ( 'NONE',  ( 11.31868503137747339, -36.60814331115698650, 1.905000000000000027 ) ) ;
#136 = CARTESIAN_POINT ( 'NONE',  ( -14.27396464718435354, 11.65185668884300441, 1.905000000000000027 ) ) ;
#137 = PERSON_AND_ORGANIZATION_ROLE ( 'creator' ) ;
#138 = VECTOR ( 'NONE', #12, 1000.000000000000000 ) ;
#139 = ORIENTED_EDGE ( 'NONE', *, *, #340, .F. ) ;
#140 = DIRECTION ( 'NONE',  ( 1.000000000000000000, 0.000000000000000000, -0.000000000000000000 ) ) ;
#141 = VERTEX_POINT ( 'NONE', #5 ) ;
#142 = CARTESIAN_POINT ( 'NONE',  ( -0.01810312114011695256, 11.65185668884300796, -0.6350000000000000089 ) ) ;
#143 = EDGE_LOOP ( 'NONE', ( #21, #84 ) ) ;
#144 = CARTESIAN_POINT ( 'NONE',  ( 6.981896878859882527, 11.65185668884300796, 1.905000000000000027 ) ) ;
#145 = ORIENTED_EDGE ( 'NONE', *, *, #234, .T. ) ;
#146 = AXIS2_PLACEMENT_3D ( 'NONE', #193, #314, #110 ) ;
#147 = LOCAL_TIME ( 22, 50, 43.00000000000000000, #203 ) ;
#148 = EDGE_LOOP ( 'NONE', ( #264, #173 ) ) ;
#149 = DIRECTION ( 'NONE',  ( 1.000000000000000000, 0.000000000000000000, 0.000000000000000000 ) ) ;
#150 = EDGE_CURVE ( 'NONE', #381, #116, #128, .T. ) ;
#151 = PERSON_AND_ORGANIZATION_ROLE ( 'classification_officer' ) ;
#152 = DIRECTION ( 'NONE',  ( -0.000000000000000000, -0.000000000000000000, -1.000000000000000000 ) ) ;
#153 = CC_DESIGN_APPROVAL ( #289, ( #202 ) ) ;
#154 = FACE_OUTER_BOUND ( 'NONE', #190, .T. ) ;
#155 = DIRECTION ( 'NONE',  ( 0.000000000000000000, 0.000000000000000000, 1.000000000000000000 ) ) ;
#156 = DIRECTION ( 'NONE',  ( -1.000000000000000000, 0.000000000000000000, 0.000000000000000000 ) ) ;
#157 = AXIS2_PLACEMENT_3D ( 'NONE', #66, #188, #333 ) ;
#158 = APPROVAL_PERSON_ORGANIZATION ( #352, #336, #228 ) ;
#159 = CARTESIAN_POINT ( 'NONE',  ( 1.569396878859888211, -36.60814331115699360, 1.905000000000000027 ) ) ;
#160 = CC_DESIGN_DATE_AND_TIME_ASSIGNMENT ( #361, #213, ( #202 ) ) ;
#161 = ORIENTED_EDGE ( 'NONE', *, *, #177, .T. ) ;
#162 = CYLINDRICAL_SURFACE ( 'NONE', #359, 1.587499999999999245 ) ;
#163 = CARTESIAN_POINT ( 'NONE',  ( 1.569396878859888211, -36.60814331115699360, -0.6350000000000001199 ) ) ;
#164 = CC_DESIGN_PERSON_AND_ORGANIZATION_ASSIGNMENT ( #224, #382, ( #374 ) ) ;
#165 = PLANE ( 'NONE',  #315 ) ;
#166 = DIRECTION ( 'NONE',  ( -0.000000000000000000, -0.000000000000000000, 1.000000000000000000 ) ) ;
#167 = ORIENTED_EDGE ( 'NONE', *, *, #268, .F. ) ;
#168 = EDGE_CURVE ( 'NONE', #381, #227, #38, .T. ) ;
#169 = CALENDAR_DATE ( 2025, 7, 3 ) ;
#170 = AXIS2_PLACEMENT_3D ( 'NONE', #248, #341, #253 ) ;
#171 = ORIENTED_EDGE ( 'NONE', *, *, #25, .F. ) ;
#172 = CALENDAR_DATE ( 2025, 7, 3 ) ;
#173 = ORIENTED_EDGE ( 'NONE', *, *, #150, .F. ) ;
#174 = EDGE_CURVE ( 'NONE', #383, #227, #7, .T. ) ;
#175 = DATE_AND_TIME ( #324, #147 ) ;
#176 = ORIENTED_EDGE ( 'NONE', *, *, #234, .F. ) ;
#177 = EDGE_CURVE ( 'NONE', #71, #16, #219, .T. ) ;
#178 = VERTEX_POINT ( 'NONE', #159 ) ;
#179 = CLOSED_SHELL ( 'NONE', ( #260, #130, #22, #388, #368, #60, #218, #329, #310, #39 ) ) ;
#180 = PRODUCT_DEFINITION_FORMATION_WITH_SPECIFIED_SOURCE ( 'ANY', '', #374, .NOT_KNOWN. ) ;
#181 = PERSON_AND_ORGANIZATION ( #131, #79 ) ;
#182 = DIRECTION ( 'NONE',  ( 0.9979908124063066044, 0.06335880643288760439, -0.000000000000000000 ) ) ;
#183 = APPLICATION_CONTEXT ( 'configuration controlled 3d designs of mechanical parts and assemblies' ) ;
#184 = DIRECTION ( 'NONE',  ( -1.000000000000000000, 0.000000000000000000, 0.000000000000000000 ) ) ;
#185 = CC_DESIGN_PERSON_AND_ORGANIZATION_ASSIGNMENT ( #269, #243, ( #180 ) ) ;
#186 = DIRECTION ( 'NONE',  ( 1.000000000000000000, 0.000000000000000000, 0.000000000000000000 ) ) ;
#187 = AXIS2_PLACEMENT_3D ( 'NONE', #61, #182, #301 ) ;
#188 = DIRECTION ( 'NONE',  ( 0.000000000000000000, 0.000000000000000000, 1.000000000000000000 ) ) ;
#189 = CARTESIAN_POINT ( 'NONE',  ( 14.23775840490411859, 11.65185668884300796, 1.905000000000000027 ) ) ;
#190 = EDGE_LOOP ( 'NONE', ( #296, #57, #284, #323 ) ) ;
#191 = DIRECTION ( 'NONE',  ( 1.000000000000000000, 0.000000000000000000, 0.000000000000000000 ) ) ;
#192 = CARTESIAN_POINT ( 'NONE',  ( 11.31868503137747339, -36.60814331115699360, 1.905000000000000027 ) ) ;
#193 = CARTESIAN_POINT ( 'NONE',  ( -0.01810312114011695256, 11.65185668884300796, 1.905000000000000027 ) ) ;
#194 = CARTESIAN_POINT ( 'NONE',  ( 0.05428611788669334554, -36.60814331115699360, 1.905000000000000027 ) ) ;
#195 = EDGE_CURVE ( 'NONE', #233, #199, #70, .T. ) ;
#196 = PERSON_AND_ORGANIZATION ( #131, #79 ) ;
#197 = VERTEX_POINT ( 'NONE', #192 ) ;
#198 = APPROVAL_DATE_TIME ( #17, #257 ) ;
#199 = VERTEX_POINT ( 'NONE', #217 ) ;
#200 = AXIS2_PLACEMENT_3D ( 'NONE', #332, #97, #186 ) ;
#201 = ORIENTED_EDGE ( 'NONE', *, *, #6, .F. ) ;
#202 = SECURITY_CLASSIFICATION ( '', '', #124 ) ;
#203 = COORDINATED_UNIVERSAL_TIME_OFFSET ( 6, 0, .BEHIND. ) ;
#204 = VERTEX_POINT ( 'NONE', #342 ) ;
#205 = DIRECTION ( 'NONE',  ( -1.000000000000000000, 0.000000000000000000, 0.000000000000000000 ) ) ;
#206 = ORIENTED_EDGE ( 'NONE', *, *, #6, .T. ) ;
#207 = FACE_BOUND ( 'NONE', #143, .T. ) ;
#208 = AXIS2_PLACEMENT_3D ( 'NONE', #362, #64, #365 ) ;
#209 = DATE_AND_TIME ( #63, #371 ) ;
#210 = PRODUCT_DEFINITION ( 'UNKNOWN', '', #180, #348 ) ;
#211 = DIRECTION ( 'NONE',  ( 0.000000000000000000, 0.000000000000000000, 1.000000000000000000 ) ) ;
#212 = CARTESIAN_POINT ( 'NONE',  ( 11.31868503137747339, -36.60814331115699360, -0.6350000000000000089 ) ) ;
#213 = DATE_TIME_ROLE ( 'classification_date' ) ;
#214 = DIRECTION ( 'NONE',  ( 0.000000000000000000, 0.000000000000000000, 1.000000000000000000 ) ) ;
#215 = EDGE_CURVE ( 'NONE', #24, #16, #9, .T. ) ;
#216 = CARTESIAN_POINT ( 'NONE',  ( -7.018103121140117473, 11.65185668884300796, 1.905000000000000027 ) ) ;
#217 = CARTESIAN_POINT ( 'NONE',  ( -14.27396464718435354, 11.65185668884300441, -0.6350000000000000089 ) ) ;
#218 = ADVANCED_FACE ( 'NONE', ( #78 ), #249, .T. ) ;
#219 = LINE ( 'NONE', #189, #65 ) ;
#220 = LINE ( 'NONE', #366, #100 ) ;
#221 = LINE ( 'NONE', #337, #377 ) ;
#222 = CARTESIAN_POINT ( 'NONE',  ( 6.981896878859882527, 11.65185668884300796, -0.6350000000000000089 ) ) ;
#223 = AXIS2_PLACEMENT_3D ( 'NONE', #278, #369, #372 ) ;
#224 = PERSON_AND_ORGANIZATION ( #131, #79 ) ;
#225 = ORIENTED_EDGE ( 'NONE', *, *, #177, .F. ) ;
#226 = CARTESIAN_POINT ( 'NONE',  ( -7.018103121140117473, 11.65185668884300796, -0.6350000000000000089 ) ) ;
#227 = VERTEX_POINT ( 'NONE', #222 ) ;
#228 = APPROVAL_ROLE ( '' ) ;
#229 = ADVANCED_BREP_SHAPE_REPRESENTATION ( 'Motor arm body - 002_Default_sldprt', ( #67, #74 ), #384 ) ;
#230 = EDGE_LOOP ( 'NONE', ( #104, #326, #239, #18 ) ) ;
#231 = PERSON_AND_ORGANIZATION ( #131, #79 ) ;
#232 = AXIS2_PLACEMENT_3D ( 'NONE', #123, #95, #267 ) ;
#233 = VERTEX_POINT ( 'NONE', #136 ) ;
#234 = EDGE_CURVE ( 'NONE', #141, #178, #282, .T. ) ;
#235 = AXIS2_PLACEMENT_3D ( 'NONE', #142, #54, #140 ) ;
#236 = COORDINATED_UNIVERSAL_TIME_OFFSET ( 6, 0, .BEHIND. ) ;
#237 = ORIENTED_EDGE ( 'NONE', *, *, #11, .T. ) ;
#238 = SHAPE_DEFINITION_REPRESENTATION ( #255, #229 ) ;
#239 = ORIENTED_EDGE ( 'NONE', *, *, #303, .F. ) ;
#240 = EDGE_CURVE ( 'NONE', #197, #24, #221, .T. ) ;
#241 = CARTESIAN_POINT ( 'NONE',  ( 14.23775840490411859, 11.65185668884300796, -0.6350000000000000089 ) ) ;
#242 = AXIS2_PLACEMENT_3D ( 'NONE', #15, #349, #295 ) ;
#243 = PERSON_AND_ORGANIZATION_ROLE ( 'design_supplier' ) ;
#244 = CARTESIAN_POINT ( 'NONE',  ( -11.21011279560408980, -36.60814331115698650, 1.905000000000000027 ) ) ;
#245 = PLANE ( 'NONE',  #232 ) ;
#246 = EDGE_CURVE ( 'NONE', #116, #381, #338, .T. ) ;
#247 = VERTEX_POINT ( 'NONE', #103 ) ;
#248 = CARTESIAN_POINT ( 'NONE',  ( -0.01810312114011695256, 11.65185668884300796, -0.6350000000000000089 ) ) ;
#249 = CYLINDRICAL_SURFACE ( 'NONE', #1, 11.26439891349078160 ) ;
#250 = ORIENTED_EDGE ( 'NONE', *, *, #174, .F. ) ;
#251 = FACE_OUTER_BOUND ( 'NONE', #259, .T. ) ;
#252 = AXIS2_PLACEMENT_3D ( 'NONE', #272, #155, #127 ) ;
#253 = DIRECTION ( 'NONE',  ( 1.000000000000000000, 0.000000000000000000, 0.000000000000000000 ) ) ;
#254 = DIRECTION ( 'NONE',  ( 0.06037604879377281991, 0.9981757023350408264, 0.000000000000000000 ) ) ;
#255 = PRODUCT_DEFINITION_SHAPE ( 'NONE', 'NONE',  #210 ) ;
#256 = FACE_OUTER_BOUND ( 'NONE', #99, .T. ) ;
#257 = APPROVAL ( #26, 'UNSPECIFIED' ) ;
#258 = CIRCLE ( 'NONE', #51, 7.000000000000000000 ) ;
#259 = EDGE_LOOP ( 'NONE', ( #47, #318, #237, #171 ) ) ;
#260 = ADVANCED_FACE ( 'NONE', ( #8 ), #162, .F. ) ;
#261 = UNCERTAINTY_MEASURE_WITH_UNIT (LENGTH_MEASURE( 1.000000000000000082E-05 ), #119, 'distance_accuracy_value', 'NONE');
#262 = ORIENTED_EDGE ( 'NONE', *, *, #83, .T. ) ;
#263 =( NAMED_UNIT ( * ) PLANE_ANGLE_UNIT ( ) SI_UNIT ( $, .RADIAN. ) );
#264 = ORIENTED_EDGE ( 'NONE', *, *, #246, .F. ) ;
#265 = CIRCLE ( 'NONE', #170, 14.25586152604423518 ) ;
#266 = ORIENTED_EDGE ( 'NONE', *, *, #286, .T. ) ;
#267 = DIRECTION ( 'NONE',  ( 1.000000000000000000, 0.000000000000000000, -0.000000000000000000 ) ) ;
#268 = EDGE_CURVE ( 'NONE', #197, #71, #312, .T. ) ;
#269 = PERSON_AND_ORGANIZATION ( #131, #79 ) ;
#270 = LINE ( 'NONE', #125, #105 ) ;
#271 = PERSON_AND_ORGANIZATION ( #131, #79 ) ;
#272 = CARTESIAN_POINT ( 'NONE',  ( -0.01810312114011695256, 11.65185668884300796, 1.905000000000000027 ) ) ;
#273 = VECTOR ( 'NONE', #152, 1000.000000000000000 ) ;
#274 = LOCAL_TIME ( 22, 50, 43.00000000000000000, #380 ) ;
#275 = EDGE_CURVE ( 'NONE', #199, #247, #373, .T. ) ;
#276 = DIRECTION ( 'NONE',  ( -0.000000000000000000, -0.000000000000000000, -1.000000000000000000 ) ) ;
#277 = CARTESIAN_POINT ( 'NONE',  ( -7.018103121140117473, 11.65185668884300796, 1.905000000000000027 ) ) ;
#278 = CARTESIAN_POINT ( 'NONE',  ( -0.01810312114011695256, 11.65185668884300796, -0.6350000000000000089 ) ) ;
#279 = CIRCLE ( 'NONE', #112, 1.587499999999999245 ) ;
#280 = CARTESIAN_POINT ( 'NONE',  ( 11.31868503137747339, -36.60814331115698650, -0.6350000000000000089 ) ) ;
#281 = ORIENTED_EDGE ( 'NONE', *, *, #215, .T. ) ;
#282 = LINE ( 'NONE', #163, #118 ) ;
#283 = CARTESIAN_POINT ( 'NONE',  ( -0.01810312114011695256, 11.65185668884300796, 1.905000000000000027 ) ) ;
#284 = ORIENTED_EDGE ( 'NONE', *, *, #50, .T. ) ;
#285 = VECTOR ( 'NONE', #75, 1000.000000000000000 ) ;
#286 = EDGE_CURVE ( 'NONE', #16, #199, #265, .T. ) ;
#287 = DIRECTION ( 'NONE',  ( -0.06037604879377281991, -0.9981757023350408264, 0.000000000000000000 ) ) ;
#288 = CARTESIAN_POINT ( 'NONE',  ( -0.01810312114011695256, 11.65185668884300796, 1.905000000000000027 ) ) ;
#289 = APPROVAL ( #358, 'UNSPECIFIED' ) ;
#290 = CARTESIAN_POINT ( 'NONE',  ( -1.605603121140110279, -36.60814331115699360, -0.6350000000000001199 ) ) ;
#291 = ORIENTED_EDGE ( 'NONE', *, *, #168, .T. ) ;
#292 = APPROVAL_PERSON_ORGANIZATION ( #231, #257, #80 ) ;
#293 = DATE_AND_TIME ( #169, #274 ) ;
#294 = EDGE_LOOP ( 'NONE', ( #139, #29, #145, #385 ) ) ;
#295 = DIRECTION ( 'NONE',  ( 1.000000000000000000, 0.000000000000000000, 0.000000000000000000 ) ) ;
#296 = ORIENTED_EDGE ( 'NONE', *, *, #134, .T. ) ;
#297 = LINE ( 'NONE', #290, #72 ) ;
#298 = EDGE_LOOP ( 'NONE', ( #347, #120 ) ) ;
#299 = AXIS2_PLACEMENT_3D ( 'NONE', #62, #328, #184 ) ;
#300 = ORIENTED_EDGE ( 'NONE', *, *, #246, .T. ) ;
#301 = DIRECTION ( 'NONE',  ( -0.06335880643288760439, 0.9979908124063066044, 0.000000000000000000 ) ) ;
#302 = CARTESIAN_POINT ( 'NONE',  ( -0.01810312114011695256, 11.65185668884300796, 1.905000000000000027 ) ) ;
#303 = EDGE_CURVE ( 'NONE', #233, #81, #220, .T. ) ;
#304 = LINE ( 'NONE', #216, #273 ) ;
#305 = CIRCLE ( 'NONE', #86, 14.25586152604423518 ) ;
#306 = CC_DESIGN_PERSON_AND_ORGANIZATION_ASSIGNMENT ( #181, #151, ( #202 ) ) ;
#307 = FACE_OUTER_BOUND ( 'NONE', #294, .T. ) ;
#308 = FACE_BOUND ( 'NONE', #148, .T. ) ;
#309 = DIRECTION ( 'NONE',  ( -0.9981757023350408264, 0.06037604879377281991, 0.000000000000000000 ) ) ;
#310 = ADVANCED_FACE ( 'NONE', ( #251 ), #339, .F. ) ;
#311 = AXIS2_PLACEMENT_3D ( 'NONE', #283, #367, #316 ) ;
#312 = LINE ( 'NONE', #135, #43 ) ;
#313 = DIRECTION ( 'NONE',  ( -0.000000000000000000, -0.000000000000000000, -1.000000000000000000 ) ) ;
#314 = DIRECTION ( 'NONE',  ( -0.000000000000000000, -0.000000000000000000, -1.000000000000000000 ) ) ;
#315 = AXIS2_PLACEMENT_3D ( 'NONE', #335, #309, #287 ) ;
#316 = DIRECTION ( 'NONE',  ( 1.000000000000000000, 0.000000000000000000, 0.000000000000000000 ) ) ;
#317 = CYLINDRICAL_SURFACE ( 'NONE', #2, 14.25586152604423518 ) ;
#318 = ORIENTED_EDGE ( 'NONE', *, *, #150, .T. ) ;
#319 = ORIENTED_EDGE ( 'NONE', *, *, #240, .F. ) ;
#320 = APPLICATION_CONTEXT ( 'configuration controlled 3d designs of mechanical parts and assemblies' ) ;
#321 = CC_DESIGN_APPROVAL ( #336, ( #180 ) ) ;
#322 = FACE_OUTER_BOUND ( 'NONE', #88, .T. ) ;
#323 = ORIENTED_EDGE ( 'NONE', *, *, #268, .T. ) ;
#324 = CALENDAR_DATE ( 2025, 7, 3 ) ;
#325 = EDGE_LOOP ( 'NONE', ( #281, #225, #167, #355 ) ) ;
#326 = ORIENTED_EDGE ( 'NONE', *, *, #31, .F. ) ;
#327 = ORIENTED_EDGE ( 'NONE', *, *, #134, .F. ) ;
#328 = DIRECTION ( 'NONE',  ( -0.000000000000000000, -0.000000000000000000, -1.000000000000000000 ) ) ;
#329 = ADVANCED_FACE ( 'NONE', ( #42 ), #165, .F. ) ;
#330 = PERSON_AND_ORGANIZATION_ROLE ( 'creator' ) ;
#331 = DIRECTION ( 'NONE',  ( 1.000000000000000000, 0.000000000000000000, 0.000000000000000000 ) ) ;
#332 = CARTESIAN_POINT ( 'NONE',  ( 0.05428611788669334554, -36.60814331115699360, -0.6350000000000000089 ) ) ;
#333 = DIRECTION ( 'NONE',  ( 1.000000000000000000, 0.000000000000000000, 0.000000000000000000 ) ) ;
#334 = EDGE_CURVE ( 'NONE', #178, #27, #19, .T. ) ;
#335 = CARTESIAN_POINT ( 'NONE',  ( 11.31868503137747339, -36.60814331115698650, 1.905000000000000027 ) ) ;
#336 = APPROVAL ( #115, 'UNSPECIFIED' ) ;
#337 = CARTESIAN_POINT ( 'NONE',  ( 11.31868503137747339, -36.60814331115699360, 1.905000000000000027 ) ) ;
#338 = CIRCLE ( 'NONE', #311, 7.000000000000000000 ) ;
#339 = CYLINDRICAL_SURFACE ( 'NONE', #146, 7.000000000000000000 ) ;
#340 = EDGE_CURVE ( 'NONE', #204, #27, #297, .T. ) ;
#341 = DIRECTION ( 'NONE',  ( 0.000000000000000000, 0.000000000000000000, 1.000000000000000000 ) ) ;
#342 = CARTESIAN_POINT ( 'NONE',  ( -1.605603121140110279, -36.60814331115699360, -0.6350000000000001199 ) ) ;
#343 = VECTOR ( 'NONE', #77, 1000.000000000000000 ) ;
#344 = CC_DESIGN_SECURITY_CLASSIFICATION ( #202, ( #180 ) ) ;
#345 = EDGE_LOOP ( 'NONE', ( #206, #319, #55, #350 ) ) ;
#346 = DIRECTION ( 'NONE',  ( 1.000000000000000000, 0.000000000000000000, 0.000000000000000000 ) ) ;
#347 = ORIENTED_EDGE ( 'NONE', *, *, #174, .T. ) ;
#348 = DESIGN_CONTEXT ( 'detailed design', #183, 'design' ) ;
#349 = DIRECTION ( 'NONE',  ( 0.000000000000000000, 0.000000000000000000, 1.000000000000000000 ) ) ;
#350 = ORIENTED_EDGE ( 'NONE', *, *, #31, .T. ) ;
#351 = CIRCLE ( 'NONE', #208, 11.26439891349078160 ) ;
#352 = PERSON_AND_ORGANIZATION ( #131, #79 ) ;
#353 = ORIENTED_EDGE ( 'NONE', *, *, #215, .F. ) ;
#354 = FACE_BOUND ( 'NONE', #298, .T. ) ;
#355 = ORIENTED_EDGE ( 'NONE', *, *, #240, .T. ) ;
#356 = CC_DESIGN_DATE_AND_TIME_ASSIGNMENT ( #293, #20, ( #210 ) ) ;
#357 = PLANE ( 'NONE',  #187 ) ;
#358 = APPROVAL_STATUS ( 'not_yet_approved' ) ;
#359 = AXIS2_PLACEMENT_3D ( 'NONE', #73, #13, #191 ) ;
#360 = CYLINDRICAL_SURFACE ( 'NONE', #299, 7.000000000000000000 ) ;
#361 = DATE_AND_TIME ( #122, #107 ) ;
#362 = CARTESIAN_POINT ( 'NONE',  ( 0.05428611788669334554, -36.60814331115699360, 1.905000000000000027 ) ) ;
#363 = CARTESIAN_POINT ( 'NONE',  ( -0.01810312114011104756, -36.60814331115699360, 1.905000000000000027 ) ) ;
#364 = APPROVAL_DATE_TIME ( #175, #336 ) ;
#365 = DIRECTION ( 'NONE',  ( 1.000000000000000000, 0.000000000000000000, 0.000000000000000000 ) ) ;
#366 = CARTESIAN_POINT ( 'NONE',  ( -14.27396464718435354, 11.65185668884300441, 1.905000000000000027 ) ) ;
#367 = DIRECTION ( 'NONE',  ( 0.000000000000000000, 0.000000000000000000, 1.000000000000000000 ) ) ;
#368 = ADVANCED_FACE ( 'NONE', ( #256 ), #317, .T. ) ;
#369 = DIRECTION ( 'NONE',  ( 0.000000000000000000, 0.000000000000000000, 1.000000000000000000 ) ) ;
#370 = CIRCLE ( 'NONE', #200, 11.26439891349078160 ) ;
#371 = LOCAL_TIME ( 22, 50, 43.00000000000000000, #96 ) ;
#372 = DIRECTION ( 'NONE',  ( 1.000000000000000000, 0.000000000000000000, 0.000000000000000000 ) ) ;
#373 = LINE ( 'NONE', #40, #138 ) ;
#374 = PRODUCT ( 'Motor arm body - 002_Default_sldprt', 'Motor arm body - 002_Default_sldprt', '', ( #378 ) ) ;
#375 = FACE_BOUND ( 'NONE', #49, .T. ) ;
#376 = ORIENTED_EDGE ( 'NONE', *, *, #286, .F. ) ;
#377 = VECTOR ( 'NONE', #106, 1000.000000000000000 ) ;
#378 = MECHANICAL_CONTEXT ( 'NONE', #320, 'mechanical' ) ;
#379 = EDGE_LOOP ( 'NONE', ( #300, #291, #250, #53 ) ) ;
#380 = COORDINATED_UNIVERSAL_TIME_OFFSET ( 6, 0, .BEHIND. ) ;
#381 = VERTEX_POINT ( 'NONE', #144 ) ;
#382 = PERSON_AND_ORGANIZATION_ROLE ( 'design_owner' ) ;
#383 = VERTEX_POINT ( 'NONE', #226 ) ;
#384 =( GEOMETRIC_REPRESENTATION_CONTEXT ( 3 ) GLOBAL_UNCERTAINTY_ASSIGNED_CONTEXT ( ( #261 ) ) GLOBAL_UNIT_ASSIGNED_CONTEXT ( ( #119, #263, #45 ) ) REPRESENTATION_CONTEXT ( 'NONE', 'WORKASPACE' ) );
#385 = ORIENTED_EDGE ( 'NONE', *, *, #334, .T. ) ;
#386 = CC_DESIGN_PERSON_AND_ORGANIZATION_ASSIGNMENT ( #59, #330, ( #180 ) ) ;
#387 = DIRECTION ( 'NONE',  ( 1.000000000000000000, 0.000000000000000000, 0.000000000000000000 ) ) ;
#388 = ADVANCED_FACE ( 'NONE', ( #375, #322, #354 ), #44, .F. ) ;
#389 = CYLINDRICAL_SURFACE ( 'NONE', #37, 1.587499999999999245 ) ;
ENDSEC;
END-ISO-10303-21;
