ISO-10303-21;
HEADER;
FILE_DESCRIPTION (( 'STEP AP203' ),
    '1' );
FILE_NAME ('Motor arm cylinder L - 001_Default_sldprt.STEP',
    '2025-03-08T04:50:46',
    ( '' ),
    ( '' ),
    'SwSTEP 2.0',
    'SolidWorks 2024',
    '' );
FILE_SCHEMA (( 'CONFIG_CONTROL_DESIGN' ));
ENDSEC;

DATA;
#1 = APPROVAL ( #37, 'UNSPECIFIED' ) ;
#2 = CC_DESIGN_SECURITY_CLASSIFICATION ( #193, ( #153 ) ) ;
#3 = ORIENTED_EDGE ( 'NONE', *, *, #192, .F. ) ;
#4 = CARTESIAN_POINT ( 'NONE',  ( -7.000000000000000888, 0.000000000000000000, -2.666999999999999815 ) ) ;
#5 = DIRECTION ( 'NONE',  ( -0.000000000000000000, -0.000000000000000000, -1.000000000000000000 ) ) ;
#6 = CIRCLE ( 'NONE', #216, 14.22400000000000020 ) ;
#7 = FACE_BOUND ( 'NONE', #212, .T. ) ;
#8 = CYLINDRICAL_SURFACE ( 'NONE', #144, 14.22400000000000020 ) ;
#9 = FACE_OUTER_BOUND ( 'NONE', #76, .T. ) ;
#10 = APPLICATION_PROTOCOL_DEFINITION ( 'international standard', 'config_control_design', 1994, #40 ) ;
#11 = PRODUCT ( 'Motor arm cylinder L - 001_Default_sldprt', 'Motor arm cylinder L - 001_Default_sldprt', '', ( #145 ) ) ;
#12 = DIRECTION ( 'NONE',  ( -0.000000000000000000, -0.000000000000000000, -1.000000000000000000 ) ) ;
#13 = EDGE_LOOP ( 'NONE', ( #116, #119 ) ) ;
#14 = PERSON_AND_ORGANIZATION ( #54, #22 ) ;
#15 =( GEOMETRIC_REPRESENTATION_CONTEXT ( 3 ) GLOBAL_UNCERTAINTY_ASSIGNED_CONTEXT ( ( #190 ) ) GLOBAL_UNIT_ASSIGNED_CONTEXT ( ( #66, #107, #219 ) ) REPRESENTATION_CONTEXT ( 'NONE', 'WORKASPACE' ) );
#16 = ORIENTED_EDGE ( 'NONE', *, *, #128, .F. ) ;
#17 = AXIS2_PLACEMENT_3D ( 'NONE', #102, #63, #59 ) ;
#18 = AXIS2_PLACEMENT_3D ( 'NONE', #231, #80, #158 ) ;
#19 = EDGE_CURVE ( 'NONE', #34, #78, #129, .T. ) ;
#20 = VERTEX_POINT ( 'NONE', #45 ) ;
#21 = DIRECTION ( 'NONE',  ( 0.000000000000000000, 0.000000000000000000, 1.000000000000000000 ) ) ;
#22 = ORGANIZATION ( 'UNSPECIFIED', 'UNSPECIFIED', '' ) ;
#23 = CC_DESIGN_PERSON_AND_ORGANIZATION_ASSIGNMENT ( #14, #132, ( #193 ) ) ;
#24 = DIRECTION ( 'NONE',  ( 0.000000000000000000, 0.000000000000000000, 1.000000000000000000 ) ) ;
#25 = LINE ( 'NONE', #178, #122 ) ;
#26 = FACE_OUTER_BOUND ( 'NONE', #72, .T. ) ;
#27 = CARTESIAN_POINT ( 'NONE',  ( -4.983238495705479460E-16, 0.000000000000000000, 8.000999999999999446 ) ) ;
#28 = EDGE_CURVE ( 'NONE', #20, #133, #126, .T. ) ;
#29 = DATE_AND_TIME ( #111, #52 ) ;
#30 = DATE_TIME_ROLE ( 'creation_date' ) ;
#31 = EDGE_CURVE ( 'NONE', #78, #226, #156, .T. ) ;
#32 = COORDINATED_UNIVERSAL_TIME_OFFSET ( 6, 0, .BEHIND. ) ;
#33 = DIRECTION ( 'NONE',  ( 1.000000000000000000, 0.000000000000000000, 0.000000000000000000 ) ) ;
#34 = VERTEX_POINT ( 'NONE', #137 ) ;
#35 = CALENDAR_DATE ( 2025, 7, 3 ) ;
#36 = EDGE_CURVE ( 'NONE', #226, #217, #234, .T. ) ;
#37 = APPROVAL_STATUS ( 'not_yet_approved' ) ;
#38 = LOCAL_TIME ( 22, 50, 46.00000000000000000, #32 ) ;
#39 = APPROVAL_DATE_TIME ( #152, #1 ) ;
#40 = APPLICATION_CONTEXT ( 'configuration controlled 3d designs of mechanical parts and assemblies' ) ;
#41 = ORIENTED_EDGE ( 'NONE', *, *, #36, .T. ) ;
#42 = EDGE_CURVE ( 'NONE', #133, #20, #229, .T. ) ;
#43 = LINE ( 'NONE', #197, #245 ) ;
#44 = CARTESIAN_POINT ( 'NONE',  ( -7.000000000000000888, 0.000000000000000000, 8.000999999999999446 ) ) ;
#45 = CARTESIAN_POINT ( 'NONE',  ( 6.999999999999999112, 8.572527594031473190E-16, 8.000999999999999446 ) ) ;
#46 = DIRECTION ( 'NONE',  ( 0.000000000000000000, 0.000000000000000000, 1.000000000000000000 ) ) ;
#47 = AXIS2_PLACEMENT_3D ( 'NONE', #215, #46, #121 ) ;
#48 = DIRECTION ( 'NONE',  ( -0.000000000000000000, -0.000000000000000000, -1.000000000000000000 ) ) ;
#49 = CARTESIAN_POINT ( 'NONE',  ( 0.000000000000000000, 0.000000000000000000, 0.000000000000000000 ) ) ;
#50 = EDGE_CURVE ( 'NONE', #34, #217, #43, .T. ) ;
#51 = FACE_OUTER_BOUND ( 'NONE', #172, .T. ) ;
#52 = LOCAL_TIME ( 22, 50, 46.00000000000000000, #127 ) ;
#53 = CARTESIAN_POINT ( 'NONE',  ( -4.983238495705479460E-16, 0.000000000000000000, 8.000999999999999446 ) ) ;
#54 = PERSON ( 'UNSPECIFIED', 'UNSPECIFIED', 'UNSPECIFIED', ('UNSPECIFIED'), ('UNSPECIFIED'), ('UNSPECIFIED') ) ;
#55 = DIRECTION ( 'NONE',  ( -0.000000000000000000, -0.000000000000000000, -1.000000000000000000 ) ) ;
#56 = EDGE_LOOP ( 'NONE', ( #177, #155 ) ) ;
#57 = VERTEX_POINT ( 'NONE', #4 ) ;
#58 = PERSON_AND_ORGANIZATION ( #54, #22 ) ;
#59 = DIRECTION ( 'NONE',  ( 1.000000000000000000, 0.000000000000000000, 0.000000000000000000 ) ) ;
#60 = CARTESIAN_POINT ( 'NONE',  ( -4.983238495705479460E-16, 0.000000000000000000, -2.666999999999999815 ) ) ;
#61 = CARTESIAN_POINT ( 'NONE',  ( 14.22400000000000020, 1.741937607107195092E-15, 8.000999999999999446 ) ) ;
#62 = DIRECTION ( 'NONE',  ( -1.000000000000000000, 0.000000000000000000, 0.000000000000000000 ) ) ;
#63 = DIRECTION ( 'NONE',  ( 0.000000000000000000, 0.000000000000000000, 1.000000000000000000 ) ) ;
#64 = APPROVAL_PERSON_ORGANIZATION ( #109, #223, #68 ) ;
#65 = CC_DESIGN_PERSON_AND_ORGANIZATION_ASSIGNMENT ( #58, #249, ( #153 ) ) ;
#66 =( LENGTH_UNIT ( ) NAMED_UNIT ( * ) SI_UNIT ( .MILLI., .METRE. ) );
#67 = CARTESIAN_POINT ( 'NONE',  ( -4.983238495705479460E-16, 0.000000000000000000, 8.000999999999999446 ) ) ;
#68 = APPROVAL_ROLE ( '' ) ;
#69 = CARTESIAN_POINT ( 'NONE',  ( -4.983238495705479460E-16, 0.000000000000000000, 8.000999999999999446 ) ) ;
#70 = DIRECTION ( 'NONE',  ( 0.000000000000000000, 0.000000000000000000, 1.000000000000000000 ) ) ;
#71 = DATE_AND_TIME ( #94, #108 ) ;
#72 = EDGE_LOOP ( 'NONE', ( #115, #211, #41, #228 ) ) ;
#73 = DATE_TIME_ROLE ( 'classification_date' ) ;
#74 = COORDINATED_UNIVERSAL_TIME_OFFSET ( 6, 0, .BEHIND. ) ;
#75 = CC_DESIGN_APPROVAL ( #1, ( #193 ) ) ;
#76 = EDGE_LOOP ( 'NONE', ( #191, #151, #16, #214 ) ) ;
#77 = EDGE_CURVE ( 'NONE', #20, #195, #143, .T. ) ;
#78 = VERTEX_POINT ( 'NONE', #61 ) ;
#79 = DIRECTION ( 'NONE',  ( -0.000000000000000000, -0.000000000000000000, -1.000000000000000000 ) ) ;
#80 = DIRECTION ( 'NONE',  ( 0.000000000000000000, 0.000000000000000000, 1.000000000000000000 ) ) ;
#81 = VECTOR ( 'NONE', #85, 1000.000000000000000 ) ;
#82 = CC_DESIGN_DATE_AND_TIME_ASSIGNMENT ( #166, #30, ( #196 ) ) ;
#83 = CIRCLE ( 'NONE', #164, 7.000000000000000000 ) ;
#84 = CARTESIAN_POINT ( 'NONE',  ( -4.983238495705479460E-16, 0.000000000000000000, -2.666999999999999815 ) ) ;
#85 = DIRECTION ( 'NONE',  ( -0.000000000000000000, -0.000000000000000000, -1.000000000000000000 ) ) ;
#86 = APPROVAL ( #220, 'UNSPECIFIED' ) ;
#87 = CARTESIAN_POINT ( 'NONE',  ( -4.983238495705479460E-16, 0.000000000000000000, 8.000999999999999446 ) ) ;
#88 = ADVANCED_BREP_SHAPE_REPRESENTATION ( 'Motor arm cylinder L - 001_Default_sldprt', ( #224, #157 ), #15 ) ;
#89 = APPROVAL_DATE_TIME ( #29, #86 ) ;
#90 = APPLICATION_PROTOCOL_DEFINITION ( 'international standard', 'config_control_design', 1994, #218 ) ;
#91 = VECTOR ( 'NONE', #103, 1000.000000000000000 ) ;
#92 = PLANE ( 'NONE',  #159 ) ;
#93 = PERSON_AND_ORGANIZATION ( #54, #22 ) ;
#94 = CALENDAR_DATE ( 2025, 7, 3 ) ;
#95 = ORIENTED_EDGE ( 'NONE', *, *, #77, .F. ) ;
#96 = AXIS2_PLACEMENT_3D ( 'NONE', #53, #12, #182 ) ;
#97 = ORIENTED_EDGE ( 'NONE', *, *, #19, .F. ) ;
#98 = DATE_AND_TIME ( #225, #188 ) ;
#99 = ADVANCED_FACE ( 'NONE', ( #181 ), #142, .F. ) ;
#100 = AXIS2_PLACEMENT_3D ( 'NONE', #84, #160, #237 ) ;
#101 = PLANE ( 'NONE',  #100 ) ;
#102 = CARTESIAN_POINT ( 'NONE',  ( -4.983238495705479460E-16, 0.000000000000000000, 8.000999999999999446 ) ) ;
#103 = DIRECTION ( 'NONE',  ( -0.000000000000000000, -0.000000000000000000, -1.000000000000000000 ) ) ;
#104 = DIRECTION ( 'NONE',  ( 1.000000000000000000, 0.000000000000000000, 0.000000000000000000 ) ) ;
#105 = CIRCLE ( 'NONE', #47, 7.000000000000000000 ) ;
#106 = CARTESIAN_POINT ( 'NONE',  ( 6.999999999999999112, 8.572527594031473190E-16, 8.000999999999999446 ) ) ;
#107 =( NAMED_UNIT ( * ) PLANE_ANGLE_UNIT ( ) SI_UNIT ( $, .RADIAN. ) );
#108 = LOCAL_TIME ( 22, 50, 46.00000000000000000, #175 ) ;
#109 = PERSON_AND_ORGANIZATION ( #54, #22 ) ;
#110 = FACE_BOUND ( 'NONE', #13, .T. ) ;
#111 = CALENDAR_DATE ( 2025, 7, 3 ) ;
#112 = APPROVAL_PERSON_ORGANIZATION ( #93, #1, #171 ) ;
#113 = CC_DESIGN_PERSON_AND_ORGANIZATION_ASSIGNMENT ( #124, #206, ( #196 ) ) ;
#114 = SHAPE_DEFINITION_REPRESENTATION ( #186, #88 ) ;
#115 = ORIENTED_EDGE ( 'NONE', *, *, #204, .F. ) ;
#116 = ORIENTED_EDGE ( 'NONE', *, *, #42, .F. ) ;
#117 = PRODUCT_RELATED_PRODUCT_CATEGORY ( 'detail', '', ( #11 ) ) ;
#118 = ORIENTED_EDGE ( 'NONE', *, *, #180, .F. ) ;
#119 = ORIENTED_EDGE ( 'NONE', *, *, #28, .F. ) ;
#120 = CARTESIAN_POINT ( 'NONE',  ( -4.983238495705479460E-16, 0.000000000000000000, 8.000999999999999446 ) ) ;
#121 = DIRECTION ( 'NONE',  ( 1.000000000000000000, 0.000000000000000000, 0.000000000000000000 ) ) ;
#122 = VECTOR ( 'NONE', #5, 1000.000000000000000 ) ;
#123 = DIRECTION ( 'NONE',  ( -0.000000000000000000, -0.000000000000000000, -1.000000000000000000 ) ) ;
#124 = PERSON_AND_ORGANIZATION ( #54, #22 ) ;
#125 = AXIS2_PLACEMENT_3D ( 'NONE', #213, #232, #200 ) ;
#126 = CIRCLE ( 'NONE', #17, 7.000000000000000000 ) ;
#127 = COORDINATED_UNIVERSAL_TIME_OFFSET ( 6, 0, .BEHIND. ) ;
#128 = EDGE_CURVE ( 'NONE', #57, #195, #83, .T. ) ;
#129 = CIRCLE ( 'NONE', #18, 14.22400000000000020 ) ;
#130 = ORIENTED_EDGE ( 'NONE', *, *, #192, .T. ) ;
#131 = EDGE_LOOP ( 'NONE', ( #118, #136 ) ) ;
#132 = PERSON_AND_ORGANIZATION_ROLE ( 'classification_officer' ) ;
#133 = VERTEX_POINT ( 'NONE', #44 ) ;
#134 = AXIS2_PLACEMENT_3D ( 'NONE', #236, #79, #202 ) ;
#135 = PERSON_AND_ORGANIZATION ( #54, #22 ) ;
#136 = ORIENTED_EDGE ( 'NONE', *, *, #36, .F. ) ;
#137 = CARTESIAN_POINT ( 'NONE',  ( -14.22400000000000020, 0.000000000000000000, 8.000999999999999446 ) ) ;
#138 = EDGE_CURVE ( 'NONE', #133, #57, #25, .T. ) ;
#139 = AXIS2_PLACEMENT_3D ( 'NONE', #120, #198, #104 ) ;
#140 = DIRECTION ( 'NONE',  ( 1.000000000000000000, 0.000000000000000000, 0.000000000000000000 ) ) ;
#141 = DIRECTION ( 'NONE',  ( 1.000000000000000000, 0.000000000000000000, 0.000000000000000000 ) ) ;
#142 = CYLINDRICAL_SURFACE ( 'NONE', #134, 7.000000000000000000 ) ;
#143 = LINE ( 'NONE', #106, #81 ) ;
#144 = AXIS2_PLACEMENT_3D ( 'NONE', #27, #123, #62 ) ;
#145 = MECHANICAL_CONTEXT ( 'NONE', #40, 'mechanical' ) ;
#146 = CARTESIAN_POINT ( 'NONE',  ( 6.999999999999999112, 8.572527594031473190E-16, -2.666999999999999815 ) ) ;
#147 = APPROVAL_PERSON_ORGANIZATION ( #242, #86, #203 ) ;
#148 = ORIENTED_EDGE ( 'NONE', *, *, #50, .T. ) ;
#149 = ORIENTED_EDGE ( 'NONE', *, *, #128, .T. ) ;
#150 = COORDINATED_UNIVERSAL_TIME_OFFSET ( 6, 0, .BEHIND. ) ;
#151 = ORIENTED_EDGE ( 'NONE', *, *, #77, .T. ) ;
#152 = DATE_AND_TIME ( #35, #221 ) ;
#153 = PRODUCT_DEFINITION_FORMATION_WITH_SPECIFIED_SOURCE ( 'ANY', '', #11, .NOT_KNOWN. ) ;
#154 = ORIENTED_EDGE ( 'NONE', *, *, #31, .F. ) ;
#155 = ORIENTED_EDGE ( 'NONE', *, *, #204, .T. ) ;
#156 = LINE ( 'NONE', #162, #91 ) ;
#157 = AXIS2_PLACEMENT_3D ( 'NONE', #49, #70, #33 ) ;
#158 = DIRECTION ( 'NONE',  ( 1.000000000000000000, 0.000000000000000000, 0.000000000000000000 ) ) ;
#159 = AXIS2_PLACEMENT_3D ( 'NONE', #87, #184, #163 ) ;
#160 = DIRECTION ( 'NONE',  ( 0.000000000000000000, 0.000000000000000000, 1.000000000000000000 ) ) ;
#161 = ADVANCED_FACE ( 'NONE', ( #26 ), #8, .T. ) ;
#162 = CARTESIAN_POINT ( 'NONE',  ( 14.22400000000000020, 1.741937607107195092E-15, 8.000999999999999446 ) ) ;
#163 = DIRECTION ( 'NONE',  ( 1.000000000000000000, 0.000000000000000000, -0.000000000000000000 ) ) ;
#164 = AXIS2_PLACEMENT_3D ( 'NONE', #60, #24, #140 ) ;
#165 = DIRECTION ( 'NONE',  ( -1.000000000000000000, 0.000000000000000000, 0.000000000000000000 ) ) ;
#166 = DATE_AND_TIME ( #205, #38 ) ;
#167 = DESIGN_CONTEXT ( 'detailed design', #218, 'design' ) ;
#168 = FACE_OUTER_BOUND ( 'NONE', #56, .T. ) ;
#169 = CIRCLE ( 'NONE', #248, 14.22400000000000020 ) ;
#170 = CARTESIAN_POINT ( 'NONE',  ( 14.22400000000000020, 1.741937607107195092E-15, -2.666999999999999815 ) ) ;
#171 = APPROVAL_ROLE ( '' ) ;
#172 = EDGE_LOOP ( 'NONE', ( #154, #97, #148, #174 ) ) ;
#173 = PERSON_AND_ORGANIZATION_ROLE ( 'design_supplier' ) ;
#174 = ORIENTED_EDGE ( 'NONE', *, *, #180, .T. ) ;
#175 = COORDINATED_UNIVERSAL_TIME_OFFSET ( 6, 0, .BEHIND. ) ;
#176 = CARTESIAN_POINT ( 'NONE',  ( -4.983238495705479460E-16, 0.000000000000000000, -2.666999999999999815 ) ) ;
#177 = ORIENTED_EDGE ( 'NONE', *, *, #19, .T. ) ;
#178 = CARTESIAN_POINT ( 'NONE',  ( -7.000000000000000888, 0.000000000000000000, 8.000999999999999446 ) ) ;
#179 = FACE_OUTER_BOUND ( 'NONE', #131, .T. ) ;
#180 = EDGE_CURVE ( 'NONE', #217, #226, #6, .T. ) ;
#181 = FACE_OUTER_BOUND ( 'NONE', #230, .T. ) ;
#182 = DIRECTION ( 'NONE',  ( -1.000000000000000000, 0.000000000000000000, 0.000000000000000000 ) ) ;
#183 = CC_DESIGN_PERSON_AND_ORGANIZATION_ASSIGNMENT ( #208, #185, ( #11 ) ) ;
#184 = DIRECTION ( 'NONE',  ( 0.000000000000000000, 0.000000000000000000, 1.000000000000000000 ) ) ;
#185 = PERSON_AND_ORGANIZATION_ROLE ( 'design_owner' ) ;
#186 = PRODUCT_DEFINITION_SHAPE ( 'NONE', 'NONE',  #196 ) ;
#187 = CARTESIAN_POINT ( 'NONE',  ( -14.22400000000000020, 0.000000000000000000, -2.666999999999999815 ) ) ;
#188 = LOCAL_TIME ( 22, 50, 46.00000000000000000, #150 ) ;
#189 = ADVANCED_FACE ( 'NONE', ( #179, #7 ), #101, .F. ) ;
#190 = UNCERTAINTY_MEASURE_WITH_UNIT (LENGTH_MEASURE( 1.000000000000000082E-05 ), #66, 'distance_accuracy_value', 'NONE');
#191 = ORIENTED_EDGE ( 'NONE', *, *, #42, .T. ) ;
#192 = EDGE_CURVE ( 'NONE', #195, #57, #105, .T. ) ;
#193 = SECURITY_CLASSIFICATION ( '', '', #247 ) ;
#194 = CC_DESIGN_APPROVAL ( #86, ( #196 ) ) ;
#195 = VERTEX_POINT ( 'NONE', #146 ) ;
#196 = PRODUCT_DEFINITION ( 'UNKNOWN', '', #153, #167 ) ;
#197 = CARTESIAN_POINT ( 'NONE',  ( -14.22400000000000020, 0.000000000000000000, 8.000999999999999446 ) ) ;
#198 = DIRECTION ( 'NONE',  ( 0.000000000000000000, 0.000000000000000000, 1.000000000000000000 ) ) ;
#199 = CC_DESIGN_DATE_AND_TIME_ASSIGNMENT ( #98, #73, ( #193 ) ) ;
#200 = DIRECTION ( 'NONE',  ( 1.000000000000000000, 0.000000000000000000, 0.000000000000000000 ) ) ;
#201 = AXIS2_PLACEMENT_3D ( 'NONE', #69, #55, #165 ) ;
#202 = DIRECTION ( 'NONE',  ( -1.000000000000000000, 0.000000000000000000, 0.000000000000000000 ) ) ;
#203 = APPROVAL_ROLE ( '' ) ;
#204 = EDGE_CURVE ( 'NONE', #78, #34, #169, .T. ) ;
#205 = CALENDAR_DATE ( 2025, 7, 3 ) ;
#206 = PERSON_AND_ORGANIZATION_ROLE ( 'creator' ) ;
#207 = DIRECTION ( 'NONE',  ( 0.000000000000000000, 0.000000000000000000, 1.000000000000000000 ) ) ;
#208 = PERSON_AND_ORGANIZATION ( #54, #22 ) ;
#209 = ORIENTED_EDGE ( 'NONE', *, *, #28, .T. ) ;
#210 = ADVANCED_FACE ( 'NONE', ( #168, #110 ), #92, .T. ) ;
#211 = ORIENTED_EDGE ( 'NONE', *, *, #31, .T. ) ;
#212 = EDGE_LOOP ( 'NONE', ( #149, #130 ) ) ;
#213 = CARTESIAN_POINT ( 'NONE',  ( -4.983238495705479460E-16, 0.000000000000000000, -2.666999999999999815 ) ) ;
#214 = ORIENTED_EDGE ( 'NONE', *, *, #138, .F. ) ;
#215 = CARTESIAN_POINT ( 'NONE',  ( -4.983238495705479460E-16, 0.000000000000000000, -2.666999999999999815 ) ) ;
#216 = AXIS2_PLACEMENT_3D ( 'NONE', #176, #21, #141 ) ;
#217 = VERTEX_POINT ( 'NONE', #187 ) ;
#218 = APPLICATION_CONTEXT ( 'configuration controlled 3d designs of mechanical parts and assemblies' ) ;
#219 =( NAMED_UNIT ( * ) SI_UNIT ( $, .STERADIAN. ) SOLID_ANGLE_UNIT ( ) );
#220 = APPROVAL_STATUS ( 'not_yet_approved' ) ;
#221 = LOCAL_TIME ( 22, 50, 46.00000000000000000, #74 ) ;
#222 = CYLINDRICAL_SURFACE ( 'NONE', #96, 7.000000000000000000 ) ;
#223 = APPROVAL ( #243, 'UNSPECIFIED' ) ;
#224 = MANIFOLD_SOLID_BREP ( 'Scale1', #235 ) ;
#225 = CALENDAR_DATE ( 2025, 7, 3 ) ;
#226 = VERTEX_POINT ( 'NONE', #170 ) ;
#227 = APPROVAL_DATE_TIME ( #71, #223 ) ;
#228 = ORIENTED_EDGE ( 'NONE', *, *, #50, .F. ) ;
#229 = CIRCLE ( 'NONE', #139, 7.000000000000000000 ) ;
#230 = EDGE_LOOP ( 'NONE', ( #95, #209, #238, #3 ) ) ;
#231 = CARTESIAN_POINT ( 'NONE',  ( -4.983238495705479460E-16, 0.000000000000000000, 8.000999999999999446 ) ) ;
#232 = DIRECTION ( 'NONE',  ( 0.000000000000000000, 0.000000000000000000, 1.000000000000000000 ) ) ;
#233 = ADVANCED_FACE ( 'NONE', ( #9 ), #222, .F. ) ;
#234 = CIRCLE ( 'NONE', #125, 14.22400000000000020 ) ;
#235 = CLOSED_SHELL ( 'NONE', ( #233, #161, #210, #189, #240, #99 ) ) ;
#236 = CARTESIAN_POINT ( 'NONE',  ( -4.983238495705479460E-16, 0.000000000000000000, 8.000999999999999446 ) ) ;
#237 = DIRECTION ( 'NONE',  ( 1.000000000000000000, 0.000000000000000000, -0.000000000000000000 ) ) ;
#238 = ORIENTED_EDGE ( 'NONE', *, *, #138, .T. ) ;
#239 = CC_DESIGN_APPROVAL ( #223, ( #153 ) ) ;
#240 = ADVANCED_FACE ( 'NONE', ( #51 ), #241, .T. ) ;
#241 = CYLINDRICAL_SURFACE ( 'NONE', #201, 14.22400000000000020 ) ;
#242 = PERSON_AND_ORGANIZATION ( #54, #22 ) ;
#243 = APPROVAL_STATUS ( 'not_yet_approved' ) ;
#244 = CC_DESIGN_PERSON_AND_ORGANIZATION_ASSIGNMENT ( #135, #173, ( #153 ) ) ;
#245 = VECTOR ( 'NONE', #48, 1000.000000000000000 ) ;
#246 = DIRECTION ( 'NONE',  ( 1.000000000000000000, 0.000000000000000000, 0.000000000000000000 ) ) ;
#247 = SECURITY_CLASSIFICATION_LEVEL ( 'unclassified' ) ;
#248 = AXIS2_PLACEMENT_3D ( 'NONE', #67, #207, #246 ) ;
#249 = PERSON_AND_ORGANIZATION_ROLE ( 'creator' ) ;
ENDSEC;
END-ISO-10303-21;
