ISO-10303-21;
HEADER;
FILE_DESCRIPTION (( 'STEP AP203' ),
    '1' );
FILE_NAME ('Pin for Top Plate_Default_sldprt.STEP',
    '2025-03-08T04:50:54',
    ( '' ),
    ( '' ),
    'SwSTEP 2.0',
    'SolidWorks 2024',
    '' );
FILE_SCHEMA (( 'CONFIG_CONTROL_DESIGN' ));
ENDSEC;

DATA;
#1 = AXIS2_PLACEMENT_3D ( 'NONE', #81, #97, #67 ) ;
#2 = EDGE_LOOP ( 'NONE', ( #112, #47, #98, #103 ) ) ;
#3 = PRODUCT ( 'Pin for Top Plate_Default_sldprt', 'Pin for Top Plate_Default_sldprt', '', ( #163 ) ) ;
#4 = APPLICATION_PROTOCOL_DEFINITION ( 'international standard', 'config_control_design', 1994, #102 ) ;
#5 = CLOSED_SHELL ( 'NONE', ( #76, #64, #175, #107 ) ) ;
#6 = VERTEX_POINT ( 'NONE', #40 ) ;
#7 = APPROVAL ( #88, 'UNSPECIFIED' ) ;
#8 = DATE_AND_TIME ( #110, #171 ) ;
#9 = PERSON_AND_ORGANIZATION_ROLE ( 'classification_officer' ) ;
#10 = APPROVAL_ROLE ( '' ) ;
#11 = PLANE ( 'NONE',  #138 ) ;
#12 = VECTOR ( 'NONE', #75, 1000.000000000000000 ) ;
#13 = DIRECTION ( 'NONE',  ( 1.000000000000000000, 0.000000000000000000, -0.000000000000000000 ) ) ;
#14 = DIRECTION ( 'NONE',  ( 0.000000000000000000, 0.000000000000000000, 1.000000000000000000 ) ) ;
#15 = VERTEX_POINT ( 'NONE', #141 ) ;
#16 = APPLICATION_PROTOCOL_DEFINITION ( 'international standard', 'config_control_design', 1994, #139 ) ;
#17 = DATE_AND_TIME ( #82, #135 ) ;
#18 = SECURITY_CLASSIFICATION_LEVEL ( 'unclassified' ) ;
#19 = ORIENTED_EDGE ( 'NONE', *, *, #144, .F. ) ;
#20 = CC_DESIGN_DATE_AND_TIME_ASSIGNMENT ( #17, #69, ( #167 ) ) ;
#21 = FACE_OUTER_BOUND ( 'NONE', #161, .T. ) ;
#22 = FACE_OUTER_BOUND ( 'NONE', #172, .T. ) ;
#23 = CARTESIAN_POINT ( 'NONE',  ( -2.049999999999999822, 0.000000000000000000, 30.00000000000000000 ) ) ;
#24 = APPROVAL ( #25, 'UNSPECIFIED' ) ;
#25 = APPROVAL_STATUS ( 'not_yet_approved' ) ;
#26 = COORDINATED_UNIVERSAL_TIME_OFFSET ( 6, 0, .BEHIND. ) ;
#27 = CC_DESIGN_PERSON_AND_ORGANIZATION_ASSIGNMENT ( #86, #9, ( #84 ) ) ;
#28 = APPROVAL_STATUS ( 'not_yet_approved' ) ;
#29 = PERSON_AND_ORGANIZATION ( #160, #148 ) ;
#30 = CC_DESIGN_APPROVAL ( #24, ( #167 ) ) ;
#31 = ORIENTED_EDGE ( 'NONE', *, *, #144, .T. ) ;
#32 = PERSON_AND_ORGANIZATION_ROLE ( 'creator' ) ;
#33 = ORIENTED_EDGE ( 'NONE', *, *, #158, .T. ) ;
#34 = DIRECTION ( 'NONE',  ( 0.000000000000000000, 0.000000000000000000, 1.000000000000000000 ) ) ;
#35 = CC_DESIGN_PERSON_AND_ORGANIZATION_ASSIGNMENT ( #29, #122, ( #143 ) ) ;
#36 = AXIS2_PLACEMENT_3D ( 'NONE', #146, #34, #13 ) ;
#37 =( NAMED_UNIT ( * ) PLANE_ANGLE_UNIT ( ) SI_UNIT ( $, .RADIAN. ) );
#38 = CARTESIAN_POINT ( 'NONE',  ( 2.049999999999999822, 2.510525938252073693E-16, 30.00000000000000000 ) ) ;
#39 = DIRECTION ( 'NONE',  ( 0.000000000000000000, 0.000000000000000000, 1.000000000000000000 ) ) ;
#40 = CARTESIAN_POINT ( 'NONE',  ( 2.049999999999999822, 2.510525938252073693E-16, 30.00000000000000000 ) ) ;
#41 = PERSON_AND_ORGANIZATION ( #160, #148 ) ;
#42 = UNCERTAINTY_MEASURE_WITH_UNIT (LENGTH_MEASURE( 1.000000000000000082E-05 ), #52, 'distance_accuracy_value', 'NONE');
#43 =( GEOMETRIC_REPRESENTATION_CONTEXT ( 3 ) GLOBAL_UNCERTAINTY_ASSIGNED_CONTEXT ( ( #42 ) ) GLOBAL_UNIT_ASSIGNED_CONTEXT ( ( #52, #37, #74 ) ) REPRESENTATION_CONTEXT ( 'NONE', 'WORKASPACE' ) );
#44 = EDGE_LOOP ( 'NONE', ( #137, #33 ) ) ;
#45 = PRODUCT_RELATED_PRODUCT_CATEGORY ( 'detail', '', ( #3 ) ) ;
#46 = PERSON_AND_ORGANIZATION ( #160, #148 ) ;
#47 = ORIENTED_EDGE ( 'NONE', *, *, #125, .F. ) ;
#48 = CIRCLE ( 'NONE', #132, 2.049999999999999822 ) ;
#49 = CARTESIAN_POINT ( 'NONE',  ( 0.000000000000000000, 0.000000000000000000, 30.00000000000000000 ) ) ;
#50 = CC_DESIGN_APPROVAL ( #73, ( #143 ) ) ;
#51 = FACE_OUTER_BOUND ( 'NONE', #44, .T. ) ;
#52 =( LENGTH_UNIT ( ) NAMED_UNIT ( * ) SI_UNIT ( .MILLI., .METRE. ) );
#53 = CC_DESIGN_PERSON_AND_ORGANIZATION_ASSIGNMENT ( #41, #96, ( #3 ) ) ;
#54 = PERSON_AND_ORGANIZATION ( #160, #148 ) ;
#55 = DIRECTION ( 'NONE',  ( -0.000000000000000000, -0.000000000000000000, -1.000000000000000000 ) ) ;
#56 = PERSON_AND_ORGANIZATION ( #160, #148 ) ;
#57 = CIRCLE ( 'NONE', #153, 2.049999999999999822 ) ;
#58 = ORIENTED_EDGE ( 'NONE', *, *, #111, .T. ) ;
#59 = PRODUCT_DEFINITION_SHAPE ( 'NONE', 'NONE',  #167 ) ;
#60 = APPROVAL_DATE_TIME ( #8, #7 ) ;
#61 = APPROVAL_PERSON_ORGANIZATION ( #46, #7, #10 ) ;
#62 = DIRECTION ( 'NONE',  ( 0.000000000000000000, 0.000000000000000000, 1.000000000000000000 ) ) ;
#63 = DIRECTION ( 'NONE',  ( 1.000000000000000000, 0.000000000000000000, -0.000000000000000000 ) ) ;
#64 = ADVANCED_FACE ( 'NONE', ( #66 ), #134, .T. ) ;
#65 = DIRECTION ( 'NONE',  ( 1.000000000000000000, 0.000000000000000000, 0.000000000000000000 ) ) ;
#66 = FACE_OUTER_BOUND ( 'NONE', #2, .T. ) ;
#67 = DIRECTION ( 'NONE',  ( 1.000000000000000000, 0.000000000000000000, 0.000000000000000000 ) ) ;
#68 = LOCAL_TIME ( 22, 50, 54.00000000000000000, #26 ) ;
#69 = DATE_TIME_ROLE ( 'creation_date' ) ;
#70 = DATE_TIME_ROLE ( 'classification_date' ) ;
#71 = DATE_AND_TIME ( #150, #83 ) ;
#72 = CALENDAR_DATE ( 2025, 7, 3 ) ;
#73 = APPROVAL ( #28, 'UNSPECIFIED' ) ;
#74 =( NAMED_UNIT ( * ) SI_UNIT ( $, .STERADIAN. ) SOLID_ANGLE_UNIT ( ) );
#75 = DIRECTION ( 'NONE',  ( -0.000000000000000000, -0.000000000000000000, -1.000000000000000000 ) ) ;
#76 = ADVANCED_FACE ( 'NONE', ( #21 ), #95, .T. ) ;
#77 = PLANE ( 'NONE',  #36 ) ;
#78 = DIRECTION ( 'NONE',  ( 1.000000000000000000, 0.000000000000000000, 0.000000000000000000 ) ) ;
#79 = CARTESIAN_POINT ( 'NONE',  ( 2.049999999999999822, 2.510525938252073693E-16, -30.00000000000000000 ) ) ;
#80 = APPROVAL_DATE_TIME ( #164, #24 ) ;
#81 = CARTESIAN_POINT ( 'NONE',  ( 0.000000000000000000, 0.000000000000000000, 0.000000000000000000 ) ) ;
#82 = CALENDAR_DATE ( 2025, 7, 3 ) ;
#83 = LOCAL_TIME ( 22, 50, 54.00000000000000000, #170 ) ;
#84 = SECURITY_CLASSIFICATION ( '', '', #18 ) ;
#85 = APPROVAL_ROLE ( '' ) ;
#86 = PERSON_AND_ORGANIZATION ( #160, #148 ) ;
#87 = VECTOR ( 'NONE', #116, 1000.000000000000000 ) ;
#88 = APPROVAL_STATUS ( 'not_yet_approved' ) ;
#89 = DIRECTION ( 'NONE',  ( 1.000000000000000000, 0.000000000000000000, 0.000000000000000000 ) ) ;
#90 = CIRCLE ( 'NONE', #155, 2.049999999999999822 ) ;
#91 = CC_DESIGN_PERSON_AND_ORGANIZATION_ASSIGNMENT ( #56, #109, ( #167 ) ) ;
#92 = CARTESIAN_POINT ( 'NONE',  ( 0.000000000000000000, 0.000000000000000000, 30.00000000000000000 ) ) ;
#93 = CC_DESIGN_APPROVAL ( #7, ( #84 ) ) ;
#94 = CARTESIAN_POINT ( 'NONE',  ( -2.049999999999999822, 0.000000000000000000, -30.00000000000000000 ) ) ;
#95 = CYLINDRICAL_SURFACE ( 'NONE', #165, 2.049999999999999822 ) ;
#96 = PERSON_AND_ORGANIZATION_ROLE ( 'design_owner' ) ;
#97 = DIRECTION ( 'NONE',  ( 0.000000000000000000, 0.000000000000000000, 1.000000000000000000 ) ) ;
#98 = ORIENTED_EDGE ( 'NONE', *, *, #120, .T. ) ;
#99 = VERTEX_POINT ( 'NONE', #94 ) ;
#100 = PERSON_AND_ORGANIZATION ( #160, #148 ) ;
#101 = ORIENTED_EDGE ( 'NONE', *, *, #120, .F. ) ;
#102 = APPLICATION_CONTEXT ( 'configuration controlled 3d designs of mechanical parts and assemblies' ) ;
#103 = ORIENTED_EDGE ( 'NONE', *, *, #151, .T. ) ;
#104 = CARTESIAN_POINT ( 'NONE',  ( 0.000000000000000000, 0.000000000000000000, 30.00000000000000000 ) ) ;
#105 = ORIENTED_EDGE ( 'NONE', *, *, #158, .F. ) ;
#106 = CC_DESIGN_SECURITY_CLASSIFICATION ( #84, ( #143 ) ) ;
#107 = ADVANCED_FACE ( 'NONE', ( #22 ), #11, .F. ) ;
#108 = APPROVAL_PERSON_ORGANIZATION ( #54, #24, #119 ) ;
#109 = PERSON_AND_ORGANIZATION_ROLE ( 'creator' ) ;
#110 = CALENDAR_DATE ( 2025, 7, 3 ) ;
#111 = EDGE_CURVE ( 'NONE', #6, #145, #130, .T. ) ;
#112 = ORIENTED_EDGE ( 'NONE', *, *, #111, .F. ) ;
#113 = LOCAL_TIME ( 22, 50, 54.00000000000000000, #136 ) ;
#114 = CC_DESIGN_DATE_AND_TIME_ASSIGNMENT ( #149, #70, ( #84 ) ) ;
#115 = DIRECTION ( 'NONE',  ( -1.000000000000000000, 0.000000000000000000, 0.000000000000000000 ) ) ;
#116 = DIRECTION ( 'NONE',  ( -0.000000000000000000, -0.000000000000000000, -1.000000000000000000 ) ) ;
#117 = AXIS2_PLACEMENT_3D ( 'NONE', #133, #157, #118 ) ;
#118 = DIRECTION ( 'NONE',  ( -1.000000000000000000, 0.000000000000000000, 0.000000000000000000 ) ) ;
#119 = APPROVAL_ROLE ( '' ) ;
#120 = EDGE_CURVE ( 'NONE', #15, #99, #156, .T. ) ;
#121 = PERSON_AND_ORGANIZATION ( #160, #148 ) ;
#122 = PERSON_AND_ORGANIZATION_ROLE ( 'design_supplier' ) ;
#123 = COORDINATED_UNIVERSAL_TIME_OFFSET ( 6, 0, .BEHIND. ) ;
#124 = APPROVAL_DATE_TIME ( #71, #73 ) ;
#125 = EDGE_CURVE ( 'NONE', #15, #6, #48, .T. ) ;
#126 = ADVANCED_BREP_SHAPE_REPRESENTATION ( 'Pin for Top Plate_Default_sldprt', ( #127, #1 ), #43 ) ;
#127 = MANIFOLD_SOLID_BREP ( 'Boss-Extrude1', #5 ) ;
#128 = CC_DESIGN_PERSON_AND_ORGANIZATION_ASSIGNMENT ( #100, #32, ( #143 ) ) ;
#129 = CARTESIAN_POINT ( 'NONE',  ( 0.000000000000000000, 0.000000000000000000, -30.00000000000000000 ) ) ;
#130 = LINE ( 'NONE', #38, #87 ) ;
#131 = DIRECTION ( 'NONE',  ( 0.000000000000000000, 0.000000000000000000, 1.000000000000000000 ) ) ;
#132 = AXIS2_PLACEMENT_3D ( 'NONE', #104, #174, #78 ) ;
#133 = CARTESIAN_POINT ( 'NONE',  ( 0.000000000000000000, 0.000000000000000000, 30.00000000000000000 ) ) ;
#134 = CYLINDRICAL_SURFACE ( 'NONE', #117, 2.049999999999999822 ) ;
#135 = LOCAL_TIME ( 22, 50, 54.00000000000000000, #166 ) ;
#136 = COORDINATED_UNIVERSAL_TIME_OFFSET ( 6, 0, .BEHIND. ) ;
#137 = ORIENTED_EDGE ( 'NONE', *, *, #125, .T. ) ;
#138 = AXIS2_PLACEMENT_3D ( 'NONE', #142, #39, #63 ) ;
#139 = APPLICATION_CONTEXT ( 'configuration controlled 3d designs of mechanical parts and assemblies' ) ;
#140 = DIRECTION ( 'NONE',  ( 1.000000000000000000, 0.000000000000000000, 0.000000000000000000 ) ) ;
#141 = CARTESIAN_POINT ( 'NONE',  ( -2.049999999999999822, 0.000000000000000000, 30.00000000000000000 ) ) ;
#142 = CARTESIAN_POINT ( 'NONE',  ( 0.000000000000000000, 0.000000000000000000, -30.00000000000000000 ) ) ;
#143 = PRODUCT_DEFINITION_FORMATION_WITH_SPECIFIED_SOURCE ( 'ANY', '', #3, .NOT_KNOWN. ) ;
#144 = EDGE_CURVE ( 'NONE', #145, #99, #57, .T. ) ;
#145 = VERTEX_POINT ( 'NONE', #79 ) ;
#146 = CARTESIAN_POINT ( 'NONE',  ( 0.000000000000000000, 0.000000000000000000, 30.00000000000000000 ) ) ;
#147 = DESIGN_CONTEXT ( 'detailed design', #102, 'design' ) ;
#148 = ORGANIZATION ( 'UNSPECIFIED', 'UNSPECIFIED', '' ) ;
#149 = DATE_AND_TIME ( #72, #113 ) ;
#150 = CALENDAR_DATE ( 2025, 7, 3 ) ;
#151 = EDGE_CURVE ( 'NONE', #99, #145, #173, .T. ) ;
#152 = APPROVAL_PERSON_ORGANIZATION ( #121, #73, #85 ) ;
#153 = AXIS2_PLACEMENT_3D ( 'NONE', #154, #14, #89 ) ;
#154 = CARTESIAN_POINT ( 'NONE',  ( 0.000000000000000000, 0.000000000000000000, -30.00000000000000000 ) ) ;
#155 = AXIS2_PLACEMENT_3D ( 'NONE', #49, #62, #140 ) ;
#156 = LINE ( 'NONE', #23, #12 ) ;
#157 = DIRECTION ( 'NONE',  ( -0.000000000000000000, -0.000000000000000000, -1.000000000000000000 ) ) ;
#158 = EDGE_CURVE ( 'NONE', #6, #15, #90, .T. ) ;
#159 = ORIENTED_EDGE ( 'NONE', *, *, #151, .F. ) ;
#160 = PERSON ( 'UNSPECIFIED', 'UNSPECIFIED', 'UNSPECIFIED', ('UNSPECIFIED'), ('UNSPECIFIED'), ('UNSPECIFIED') ) ;
#161 = EDGE_LOOP ( 'NONE', ( #105, #58, #31, #101 ) ) ;
#162 = CALENDAR_DATE ( 2025, 7, 3 ) ;
#163 = MECHANICAL_CONTEXT ( 'NONE', #139, 'mechanical' ) ;
#164 = DATE_AND_TIME ( #162, #68 ) ;
#165 = AXIS2_PLACEMENT_3D ( 'NONE', #92, #55, #115 ) ;
#166 = COORDINATED_UNIVERSAL_TIME_OFFSET ( 6, 0, .BEHIND. ) ;
#167 = PRODUCT_DEFINITION ( 'UNKNOWN', '', #143, #147 ) ;
#168 = SHAPE_DEFINITION_REPRESENTATION ( #59, #126 ) ;
#169 = AXIS2_PLACEMENT_3D ( 'NONE', #129, #131, #65 ) ;
#170 = COORDINATED_UNIVERSAL_TIME_OFFSET ( 6, 0, .BEHIND. ) ;
#171 = LOCAL_TIME ( 22, 50, 54.00000000000000000, #123 ) ;
#172 = EDGE_LOOP ( 'NONE', ( #159, #19 ) ) ;
#173 = CIRCLE ( 'NONE', #169, 2.049999999999999822 ) ;
#174 = DIRECTION ( 'NONE',  ( 0.000000000000000000, 0.000000000000000000, 1.000000000000000000 ) ) ;
#175 = ADVANCED_FACE ( 'NONE', ( #51 ), #77, .T. ) ;
ENDSEC;
END-ISO-10303-21;
