ISO-10303-21;
HEADER;
FILE_DESCRIPTION (( 'STEP AP203' ),
    '1' );
FILE_NAME ('Pin_For_Bearings_Fork_Default_sldprt.STEP',
    '2025-03-08T04:50:57',
    ( '' ),
    ( '' ),
    'SwSTEP 2.0',
    'SolidWorks 2024',
    '' );
FILE_SCHEMA (( 'CONFIG_CONTROL_DESIGN' ));
ENDSEC;

DATA;
#1 = LOCAL_TIME ( 22, 50, 57.00000000000000000, #52 ) ;
#2 = APPROVAL_ROLE ( '' ) ;
#3 = CC_DESIGN_SECURITY_CLASSIFICATION ( #144, ( #18 ) ) ;
#4 = CARTESIAN_POINT ( 'NONE',  ( 0.000000000000000000, 0.000000000000000000, 0.000000000000000000 ) ) ;
#5 = MANIFOLD_SOLID_BREP ( 'Boss-Extrude2', #120 ) ;
#6 = ORGANIZATION ( 'UNSPECIFIED', 'UNSPECIFIED', '' ) ;
#7 =( NAMED_UNIT ( * ) SI_UNIT ( $, .STERADIAN. ) SOLID_ANGLE_UNIT ( ) );
#8 = CARTESIAN_POINT ( 'NONE',  ( 0.000000000000000000, 1.199999999999999956, 0.000000000000000000 ) ) ;
#9 = CC_DESIGN_PERSON_AND_ORGANIZATION_ASSIGNMENT ( #155, #26, ( #18 ) ) ;
#10 = PLANE ( 'NONE',  #122 ) ;
#11 = ADVANCED_FACE ( 'NONE', ( #101 ), #73, .T. ) ;
#12 = CARTESIAN_POINT ( 'NONE',  ( 0.000000000000000000, 0.000000000000000000, 0.000000000000000000 ) ) ;
#13 = COORDINATED_UNIVERSAL_TIME_OFFSET ( 6, 0, .BEHIND. ) ;
#14 = DATE_AND_TIME ( #50, #31 ) ;
#15 = APPROVAL_STATUS ( 'not_yet_approved' ) ;
#16 = EDGE_LOOP ( 'NONE', ( #87, #145 ) ) ;
#17 = AXIS2_PLACEMENT_3D ( 'NONE', #46, #118, #117 ) ;
#18 = PRODUCT_DEFINITION_FORMATION_WITH_SPECIFIED_SOURCE ( 'ANY', '', #103, .NOT_KNOWN. ) ;
#19 = AXIS2_PLACEMENT_3D ( 'NONE', #91, #65, #176 ) ;
#20 = EDGE_LOOP ( 'NONE', ( #115, #88 ) ) ;
#21 = PRODUCT_DEFINITION_SHAPE ( 'NONE', 'NONE',  #40 ) ;
#22 = CARTESIAN_POINT ( 'NONE',  ( 0.000000000000000000, 2.300000000000000266, -0.05999999999999999778 ) ) ;
#23 = EDGE_CURVE ( 'NONE', #60, #127, #77, .T. ) ;
#24 = CC_DESIGN_PERSON_AND_ORGANIZATION_ASSIGNMENT ( #169, #112, ( #40 ) ) ;
#25 = LENGTH_MEASURE_WITH_UNIT ( LENGTH_MEASURE( 0.02539999999999999897 ), #151 );
#26 = PERSON_AND_ORGANIZATION_ROLE ( 'creator' ) ;
#27 = PERSON_AND_ORGANIZATION ( #67, #6 ) ;
#28 = CC_DESIGN_APPROVAL ( #74, ( #144 ) ) ;
#29 = PERSON_AND_ORGANIZATION_ROLE ( 'design_supplier' ) ;
#30 = DIRECTION ( 'NONE',  ( 0.000000000000000000, -0.000000000000000000, 1.000000000000000000 ) ) ;
#31 = LOCAL_TIME ( 22, 50, 57.00000000000000000, #111 ) ;
#32 = VERTEX_POINT ( 'NONE', #134 ) ;
#33 = APPLICATION_CONTEXT ( 'configuration controlled 3d designs of mechanical parts and assemblies' ) ;
#34 = VECTOR ( 'NONE', #167, 39.37007874015748143 ) ;
#35 = DIRECTION ( 'NONE',  ( 0.000000000000000000, 0.000000000000000000, 1.000000000000000000 ) ) ;
#36 = DIRECTION ( 'NONE',  ( 0.000000000000000000, -0.000000000000000000, 1.000000000000000000 ) ) ;
#37 = DIRECTION ( 'NONE',  ( 0.000000000000000000, 1.000000000000000000, 0.000000000000000000 ) ) ;
#38 = APPLICATION_PROTOCOL_DEFINITION ( 'international standard', 'config_control_design', 1994, #95 ) ;
#39 = PERSON_AND_ORGANIZATION ( #67, #6 ) ;
#40 = PRODUCT_DEFINITION ( 'UNKNOWN', '', #18, #140 ) ;
#41 = APPROVAL_STATUS ( 'not_yet_approved' ) ;
#42 = DATE_AND_TIME ( #124, #171 ) ;
#43 = APPROVAL_PERSON_ORGANIZATION ( #168, #64, #2 ) ;
#44 = ADVANCED_FACE ( 'NONE', ( #133 ), #10, .F. ) ;
#45 = ORIENTED_EDGE ( 'NONE', *, *, #172, .F. ) ;
#46 = CARTESIAN_POINT ( 'NONE',  ( 0.000000000000000000, 1.199999999999999956, 0.000000000000000000 ) ) ;
#47 =( CONVERSION_BASED_UNIT ( 'INCH', #25 ) LENGTH_UNIT ( ) NAMED_UNIT ( #131 ) );
#48 = AXIS2_PLACEMENT_3D ( 'NONE', #174, #106, #80 ) ;
#49 = LINE ( 'NONE', #165, #56 ) ;
#50 = CALENDAR_DATE ( 2025, 7, 3 ) ;
#51 = APPROVAL ( #82, 'UNSPECIFIED' ) ;
#52 = COORDINATED_UNIVERSAL_TIME_OFFSET ( 6, 0, .BEHIND. ) ;
#53 = CC_DESIGN_APPROVAL ( #64, ( #18 ) ) ;
#54 = UNCERTAINTY_MEASURE_WITH_UNIT (LENGTH_MEASURE( 1.000000000000000082E-05 ), #47, 'distance_accuracy_value', 'NONE');
#55 = SECURITY_CLASSIFICATION_LEVEL ( 'unclassified' ) ;
#56 = VECTOR ( 'NONE', #163, 39.37007874015748143 ) ;
#57 = CC_DESIGN_PERSON_AND_ORGANIZATION_ASSIGNMENT ( #39, #29, ( #18 ) ) ;
#58 = DIRECTION ( 'NONE',  ( 0.000000000000000000, 1.000000000000000000, 0.000000000000000000 ) ) ;
#59 = APPROVAL_PERSON_ORGANIZATION ( #70, #51, #152 ) ;
#60 = VERTEX_POINT ( 'NONE', #66 ) ;
#61 = EDGE_LOOP ( 'NONE', ( #146, #104, #159, #160 ) ) ;
#62 = ORIENTED_EDGE ( 'NONE', *, *, #141, .F. ) ;
#63 = AXIS2_PLACEMENT_3D ( 'NONE', #12, #108, #164 ) ;
#64 = APPROVAL ( #41, 'UNSPECIFIED' ) ;
#65 = DIRECTION ( 'NONE',  ( 0.000000000000000000, 1.000000000000000000, 0.000000000000000000 ) ) ;
#66 = CARTESIAN_POINT ( 'NONE',  ( 0.000000000000000000, 0.000000000000000000, -0.05999999999999997696 ) ) ;
#67 = PERSON ( 'UNSPECIFIED', 'UNSPECIFIED', 'UNSPECIFIED', ('UNSPECIFIED'), ('UNSPECIFIED'), ('UNSPECIFIED') ) ;
#68 = DATE_TIME_ROLE ( 'classification_date' ) ;
#69 = LOCAL_TIME ( 22, 50, 57.00000000000000000, #13 ) ;
#70 = PERSON_AND_ORGANIZATION ( #67, #6 ) ;
#71 = ORIENTED_EDGE ( 'NONE', *, *, #23, .T. ) ;
#72 = CC_DESIGN_PERSON_AND_ORGANIZATION_ASSIGNMENT ( #149, #79, ( #103 ) ) ;
#73 = PLANE ( 'NONE',  #156 ) ;
#74 = APPROVAL ( #15, 'UNSPECIFIED' ) ;
#75 = CIRCLE ( 'NONE', #19, 0.05999999999999999778 ) ;
#76 = CARTESIAN_POINT ( 'NONE',  ( 0.000000000000000000, 2.300000000000000266, 0.000000000000000000 ) ) ;
#77 = CIRCLE ( 'NONE', #178, 0.05999999999999997696 ) ;
#78 = ADVANCED_FACE ( 'NONE', ( #119 ), #116, .T. ) ;
#79 = PERSON_AND_ORGANIZATION_ROLE ( 'design_owner' ) ;
#80 = DIRECTION ( 'NONE',  ( 1.000000000000000000, 0.000000000000000000, 0.000000000000000000 ) ) ;
#81 =( NAMED_UNIT ( * ) PLANE_ANGLE_UNIT ( ) SI_UNIT ( $, .RADIAN. ) );
#82 = APPROVAL_STATUS ( 'not_yet_approved' ) ;
#83 = PERSON_AND_ORGANIZATION_ROLE ( 'classification_officer' ) ;
#84 = CC_DESIGN_PERSON_AND_ORGANIZATION_ASSIGNMENT ( #126, #83, ( #144 ) ) ;
#85 = APPROVAL_ROLE ( '' ) ;
#86 = VERTEX_POINT ( 'NONE', #22 ) ;
#87 = ORIENTED_EDGE ( 'NONE', *, *, #23, .F. ) ;
#88 = ORIENTED_EDGE ( 'NONE', *, *, #137, .T. ) ;
#89 = CC_DESIGN_APPROVAL ( #51, ( #40 ) ) ;
#90 = PRODUCT_RELATED_PRODUCT_CATEGORY ( 'detail', '', ( #103 ) ) ;
#91 = CARTESIAN_POINT ( 'NONE',  ( 0.000000000000000000, 2.300000000000000266, 0.000000000000000000 ) ) ;
#92 = DIRECTION ( 'NONE',  ( 0.000000000000000000, 1.000000000000000000, 0.000000000000000000 ) ) ;
#93 =( GEOMETRIC_REPRESENTATION_CONTEXT ( 3 ) GLOBAL_UNCERTAINTY_ASSIGNED_CONTEXT ( ( #54 ) ) GLOBAL_UNIT_ASSIGNED_CONTEXT ( ( #47, #81, #7 ) ) REPRESENTATION_CONTEXT ( 'NONE', 'WORKASPACE' ) );
#94 = APPLICATION_PROTOCOL_DEFINITION ( 'international standard', 'config_control_design', 1994, #33 ) ;
#95 = APPLICATION_CONTEXT ( 'configuration controlled 3d designs of mechanical parts and assemblies' ) ;
#96 = CC_DESIGN_DATE_AND_TIME_ASSIGNMENT ( #138, #139, ( #40 ) ) ;
#97 = APPROVAL_DATE_TIME ( #14, #74 ) ;
#98 = APPROVAL_DATE_TIME ( #123, #64 ) ;
#99 = CIRCLE ( 'NONE', #63, 0.05999999999999997696 ) ;
#100 = SHAPE_DEFINITION_REPRESENTATION ( #21, #157 ) ;
#101 = FACE_OUTER_BOUND ( 'NONE', #20, .T. ) ;
#102 = EDGE_LOOP ( 'NONE', ( #62, #45, #161, #71 ) ) ;
#103 = PRODUCT ( 'Pin_For_Bearings_Fork_Default_sldprt', 'Pin_For_Bearings_Fork_Default_sldprt', '', ( #132 ) ) ;
#104 = ORIENTED_EDGE ( 'NONE', *, *, #141, .T. ) ;
#105 = DIRECTION ( 'NONE',  ( 0.000000000000000000, 0.000000000000000000, -1.000000000000000000 ) ) ;
#106 = DIRECTION ( 'NONE',  ( 0.000000000000000000, 0.000000000000000000, 1.000000000000000000 ) ) ;
#107 = EDGE_CURVE ( 'NONE', #127, #60, #99, .T. ) ;
#108 = DIRECTION ( 'NONE',  ( 0.000000000000000000, 1.000000000000000000, 0.000000000000000000 ) ) ;
#109 = CYLINDRICAL_SURFACE ( 'NONE', #17, 0.05999999999999997696 ) ;
#110 = CARTESIAN_POINT ( 'NONE',  ( 7.347880794884113758E-18, 1.199999999999999956, 0.05999999999999997696 ) ) ;
#111 = COORDINATED_UNIVERSAL_TIME_OFFSET ( 6, 0, .BEHIND. ) ;
#112 = PERSON_AND_ORGANIZATION_ROLE ( 'creator' ) ;
#113 = AXIS2_PLACEMENT_3D ( 'NONE', #130, #92, #35 ) ;
#114 = EDGE_CURVE ( 'NONE', #86, #60, #49, .T. ) ;
#115 = ORIENTED_EDGE ( 'NONE', *, *, #172, .T. ) ;
#116 = CYLINDRICAL_SURFACE ( 'NONE', #143, 0.05999999999999997696 ) ;
#117 = DIRECTION ( 'NONE',  ( 0.000000000000000000, 0.000000000000000000, -1.000000000000000000 ) ) ;
#118 = DIRECTION ( 'NONE',  ( -0.000000000000000000, -1.000000000000000000, -0.000000000000000000 ) ) ;
#119 = FACE_OUTER_BOUND ( 'NONE', #102, .T. ) ;
#120 = CLOSED_SHELL ( 'NONE', ( #162, #78, #44, #11 ) ) ;
#121 = LOCAL_TIME ( 22, 50, 57.00000000000000000, #154 ) ;
#122 = AXIS2_PLACEMENT_3D ( 'NONE', #175, #37, #36 ) ;
#123 = DATE_AND_TIME ( #136, #69 ) ;
#124 = CALENDAR_DATE ( 2025, 7, 3 ) ;
#125 = APPROVAL_DATE_TIME ( #42, #51 ) ;
#126 = PERSON_AND_ORGANIZATION ( #67, #6 ) ;
#127 = VERTEX_POINT ( 'NONE', #150 ) ;
#128 = DIRECTION ( 'NONE',  ( 0.000000000000000000, 1.000000000000000000, 0.000000000000000000 ) ) ;
#129 = APPROVAL_PERSON_ORGANIZATION ( #27, #74, #85 ) ;
#130 = CARTESIAN_POINT ( 'NONE',  ( 0.000000000000000000, 2.300000000000000266, 0.000000000000000000 ) ) ;
#131 = DIMENSIONAL_EXPONENTS ( 1.000000000000000000, 0.000000000000000000, 0.000000000000000000, 0.000000000000000000, 0.000000000000000000, 0.000000000000000000, 0.000000000000000000 ) ;
#132 = MECHANICAL_CONTEXT ( 'NONE', #33, 'mechanical' ) ;
#133 = FACE_OUTER_BOUND ( 'NONE', #16, .T. ) ;
#134 = CARTESIAN_POINT ( 'NONE',  ( 7.347880794884116839E-18, 2.300000000000000266, 0.05999999999999999778 ) ) ;
#135 = COORDINATED_UNIVERSAL_TIME_OFFSET ( 6, 0, .BEHIND. ) ;
#136 = CALENDAR_DATE ( 2025, 7, 3 ) ;
#137 = EDGE_CURVE ( 'NONE', #32, #86, #75, .T. ) ;
#138 = DATE_AND_TIME ( #170, #1 ) ;
#139 = DATE_TIME_ROLE ( 'creation_date' ) ;
#140 = DESIGN_CONTEXT ( 'detailed design', #95, 'design' ) ;
#141 = EDGE_CURVE ( 'NONE', #32, #127, #173, .T. ) ;
#142 = DATE_AND_TIME ( #153, #121 ) ;
#143 = AXIS2_PLACEMENT_3D ( 'NONE', #8, #177, #105 ) ;
#144 = SECURITY_CLASSIFICATION ( '', '', #55 ) ;
#145 = ORIENTED_EDGE ( 'NONE', *, *, #107, .F. ) ;
#146 = ORIENTED_EDGE ( 'NONE', *, *, #137, .F. ) ;
#147 = CIRCLE ( 'NONE', #113, 0.05999999999999999778 ) ;
#148 = FACE_OUTER_BOUND ( 'NONE', #61, .T. ) ;
#149 = PERSON_AND_ORGANIZATION ( #67, #6 ) ;
#150 = CARTESIAN_POINT ( 'NONE',  ( 7.347880794884113758E-18, 0.000000000000000000, 0.05999999999999997696 ) ) ;
#151 =( LENGTH_UNIT ( ) NAMED_UNIT ( * ) SI_UNIT ( $, .METRE. ) );
#152 = APPROVAL_ROLE ( '' ) ;
#153 = CALENDAR_DATE ( 2025, 7, 3 ) ;
#154 = COORDINATED_UNIVERSAL_TIME_OFFSET ( 6, 0, .BEHIND. ) ;
#155 = PERSON_AND_ORGANIZATION ( #67, #6 ) ;
#156 = AXIS2_PLACEMENT_3D ( 'NONE', #76, #128, #30 ) ;
#157 = ADVANCED_BREP_SHAPE_REPRESENTATION ( 'Pin_For_Bearings_Fork_Default_sldprt', ( #5, #48 ), #93 ) ;
#158 = CC_DESIGN_DATE_AND_TIME_ASSIGNMENT ( #142, #68, ( #144 ) ) ;
#159 = ORIENTED_EDGE ( 'NONE', *, *, #107, .T. ) ;
#160 = ORIENTED_EDGE ( 'NONE', *, *, #114, .F. ) ;
#161 = ORIENTED_EDGE ( 'NONE', *, *, #114, .T. ) ;
#162 = ADVANCED_FACE ( 'NONE', ( #148 ), #109, .T. ) ;
#163 = DIRECTION ( 'NONE',  ( -0.000000000000000000, -1.000000000000000000, -0.000000000000000000 ) ) ;
#164 = DIRECTION ( 'NONE',  ( 0.000000000000000000, 0.000000000000000000, 1.000000000000000000 ) ) ;
#165 = CARTESIAN_POINT ( 'NONE',  ( 0.000000000000000000, 1.199999999999999956, -0.05999999999999997696 ) ) ;
#166 = DIRECTION ( 'NONE',  ( 0.000000000000000000, 0.000000000000000000, 1.000000000000000000 ) ) ;
#167 = DIRECTION ( 'NONE',  ( -0.000000000000000000, -1.000000000000000000, -0.000000000000000000 ) ) ;
#168 = PERSON_AND_ORGANIZATION ( #67, #6 ) ;
#169 = PERSON_AND_ORGANIZATION ( #67, #6 ) ;
#170 = CALENDAR_DATE ( 2025, 7, 3 ) ;
#171 = LOCAL_TIME ( 22, 50, 57.00000000000000000, #135 ) ;
#172 = EDGE_CURVE ( 'NONE', #86, #32, #147, .T. ) ;
#173 = LINE ( 'NONE', #110, #34 ) ;
#174 = CARTESIAN_POINT ( 'NONE',  ( 0.000000000000000000, 0.000000000000000000, 0.000000000000000000 ) ) ;
#175 = CARTESIAN_POINT ( 'NONE',  ( 0.000000000000000000, 0.000000000000000000, 0.000000000000000000 ) ) ;
#176 = DIRECTION ( 'NONE',  ( 0.000000000000000000, 0.000000000000000000, 1.000000000000000000 ) ) ;
#177 = DIRECTION ( 'NONE',  ( -0.000000000000000000, -1.000000000000000000, -0.000000000000000000 ) ) ;
#178 = AXIS2_PLACEMENT_3D ( 'NONE', #4, #58, #166 ) ;
ENDSEC;
END-ISO-10303-21;
