ISO-10303-21;
HEADER;
FILE_DESCRIPTION (( 'STEP AP203' ),
    '1' );
FILE_NAME ('Spacers_Default_sldprt.STEP',
    '2025-03-08T04:51:03',
    ( '' ),
    ( '' ),
    'SwSTEP 2.0',
    'SolidWorks 2024',
    '' );
FILE_SCHEMA (( 'CONFIG_CONTROL_DESIGN' ));
ENDSEC;

DATA;
#1 = APPROVAL_ROLE ( '' ) ;
#2 = AXIS2_PLACEMENT_3D ( 'NONE', #222, #50, #150 ) ;
#3 = APPROVAL_PERSON_ORGANIZATION ( #117, #242, #76 ) ;
#4 = EDGE_LOOP ( 'NONE', ( #216, #157 ) ) ;
#5 = ADVANCED_FACE ( 'NONE', ( #191 ), #204, .F. ) ;
#6 = EDGE_CURVE ( 'NONE', #198, #239, #58, .T. ) ;
#7 = CARTESIAN_POINT ( 'NONE',  ( 0.000000000000000000, 0.000000000000000000, 0.1400000000000000133 ) ) ;
#8 = FACE_BOUND ( 'NONE', #69, .T. ) ;
#9 = CARTESIAN_POINT ( 'NONE',  ( -0.06250000000000000000, 7.654042494670957545E-18, 0.000000000000000000 ) ) ;
#10 = FACE_OUTER_BOUND ( 'NONE', #240, .T. ) ;
#11 = DIRECTION ( 'NONE',  ( 0.000000000000000000, 0.000000000000000000, 1.000000000000000000 ) ) ;
#12 = CALENDAR_DATE ( 2025, 7, 3 ) ;
#13 = PRODUCT_DEFINITION_FORMATION_WITH_SPECIFIED_SOURCE ( 'ANY', '', #46, .NOT_KNOWN. ) ;
#14 = DIRECTION ( 'NONE',  ( 1.000000000000000000, 0.000000000000000000, 0.000000000000000000 ) ) ;
#15 = DIRECTION ( 'NONE',  ( 0.000000000000000000, 0.000000000000000000, 1.000000000000000000 ) ) ;
#16 = CARTESIAN_POINT ( 'NONE',  ( 0.000000000000000000, 0.000000000000000000, 0.000000000000000000 ) ) ;
#17 = AXIS2_PLACEMENT_3D ( 'NONE', #85, #84, #208 ) ;
#18 = APPROVAL ( #236, 'UNSPECIFIED' ) ;
#19 = APPROVAL_STATUS ( 'not_yet_approved' ) ;
#20 = PERSON_AND_ORGANIZATION ( #226, #66 ) ;
#21 = ORIENTED_EDGE ( 'NONE', *, *, #205, .T. ) ;
#22 = AXIS2_PLACEMENT_3D ( 'NONE', #171, #186, #126 ) ;
#23 = ORIENTED_EDGE ( 'NONE', *, *, #96, .T. ) ;
#24 = DESIGN_CONTEXT ( 'detailed design', #162, 'design' ) ;
#25 = COORDINATED_UNIVERSAL_TIME_OFFSET ( 6, 0, .BEHIND. ) ;
#26 = PLANE ( 'NONE',  #243 ) ;
#27 = DIRECTION ( 'NONE',  ( 1.000000000000000000, 0.000000000000000000, -0.000000000000000000 ) ) ;
#28 = ORIENTED_EDGE ( 'NONE', *, *, #120, .F. ) ;
#29 = EDGE_LOOP ( 'NONE', ( #111, #98, #217, #104 ) ) ;
#30 = DIRECTION ( 'NONE',  ( -0.000000000000000000, -0.000000000000000000, 1.000000000000000000 ) ) ;
#31 = CARTESIAN_POINT ( 'NONE',  ( -0.1300000000000000044, 0.000000000000000000, 0.1400000000000000133 ) ) ;
#32 = EDGE_CURVE ( 'NONE', #239, #207, #49, .T. ) ;
#33 = CARTESIAN_POINT ( 'NONE',  ( -0.06250000000000000000, 7.654042494670957545E-18, 0.000000000000000000 ) ) ;
#34 = DIRECTION ( 'NONE',  ( 1.000000000000000000, 0.000000000000000000, 0.000000000000000000 ) ) ;
#35 = CARTESIAN_POINT ( 'NONE',  ( 0.1300000000000000044, 1.592040838891559342E-17, 0.1400000000000000133 ) ) ;
#36 = PRODUCT_DEFINITION ( 'UNKNOWN', '', #13, #24 ) ;
#37 = LINE ( 'NONE', #227, #189 ) ;
#38 = CALENDAR_DATE ( 2025, 7, 3 ) ;
#39 = ORIENTED_EDGE ( 'NONE', *, *, #158, .T. ) ;
#40 = ORIENTED_EDGE ( 'NONE', *, *, #131, .F. ) ;
#41 = AXIS2_PLACEMENT_3D ( 'NONE', #16, #15, #14 ) ;
#42 = DATE_AND_TIME ( #124, #182 ) ;
#43 = DIRECTION ( 'NONE',  ( 0.000000000000000000, 0.000000000000000000, 1.000000000000000000 ) ) ;
#44 = AXIS2_PLACEMENT_3D ( 'NONE', #86, #169, #130 ) ;
#45 = DIRECTION ( 'NONE',  ( -0.000000000000000000, -0.000000000000000000, -1.000000000000000000 ) ) ;
#46 = PRODUCT ( 'Spacers_Default_sldprt', 'Spacers_Default_sldprt', '', ( #212 ) ) ;
#47 = CARTESIAN_POINT ( 'NONE',  ( -0.1300000000000000044, 0.000000000000000000, 0.000000000000000000 ) ) ;
#48 = CC_DESIGN_PERSON_AND_ORGANIZATION_ASSIGNMENT ( #156, #219, ( #36 ) ) ;
#49 = LINE ( 'NONE', #107, #200 ) ;
#50 = DIRECTION ( 'NONE',  ( 0.000000000000000000, 0.000000000000000000, 1.000000000000000000 ) ) ;
#51 = CIRCLE ( 'NONE', #41, 0.1300000000000000044 ) ;
#52 = FACE_OUTER_BOUND ( 'NONE', #65, .T. ) ;
#53 = APPLICATION_CONTEXT ( 'configuration controlled 3d designs of mechanical parts and assemblies' ) ;
#54 = CYLINDRICAL_SURFACE ( 'NONE', #172, 0.1300000000000000044 ) ;
#55 = CARTESIAN_POINT ( 'NONE',  ( 0.000000000000000000, 0.000000000000000000, 0.1400000000000000133 ) ) ;
#56 = APPROVAL_PERSON_ORGANIZATION ( #160, #18, #1 ) ;
#57 = DIRECTION ( 'NONE',  ( 0.000000000000000000, 0.000000000000000000, 1.000000000000000000 ) ) ;
#58 = CIRCLE ( 'NONE', #202, 0.1300000000000000044 ) ;
#59 = CC_DESIGN_SECURITY_CLASSIFICATION ( #134, ( #13 ) ) ;
#60 = SECURITY_CLASSIFICATION_LEVEL ( 'unclassified' ) ;
#61 = ORIENTED_EDGE ( 'NONE', *, *, #237, .T. ) ;
#62 = VECTOR ( 'NONE', #194, 39.37007874015748143 ) ;
#63 = DATE_TIME_ROLE ( 'creation_date' ) ;
#64 = CC_DESIGN_DATE_AND_TIME_ASSIGNMENT ( #179, #214, ( #134 ) ) ;
#65 = EDGE_LOOP ( 'NONE', ( #28, #81, #23, #122 ) ) ;
#66 = ORGANIZATION ( 'UNSPECIFIED', 'UNSPECIFIED', '' ) ;
#67 = FACE_OUTER_BOUND ( 'NONE', #248, .T. ) ;
#68 = CARTESIAN_POINT ( 'NONE',  ( 0.06250000000000000000, 0.000000000000000000, 0.1400000000000000133 ) ) ;
#69 = EDGE_LOOP ( 'NONE', ( #39, #167 ) ) ;
#70 = LINE ( 'NONE', #132, #180 ) ;
#71 = EDGE_CURVE ( 'NONE', #198, #149, #70, .T. ) ;
#72 = DIRECTION ( 'NONE',  ( -1.000000000000000000, 0.000000000000000000, 0.000000000000000000 ) ) ;
#73 = CARTESIAN_POINT ( 'NONE',  ( 0.000000000000000000, 0.000000000000000000, 0.000000000000000000 ) ) ;
#74 = AXIS2_PLACEMENT_3D ( 'NONE', #73, #57, #153 ) ;
#75 = CC_DESIGN_PERSON_AND_ORGANIZATION_ASSIGNMENT ( #102, #234, ( #13 ) ) ;
#76 = APPROVAL_ROLE ( '' ) ;
#77 = COORDINATED_UNIVERSAL_TIME_OFFSET ( 6, 0, .BEHIND. ) ;
#78 = EDGE_CURVE ( 'NONE', #123, #187, #88, .T. ) ;
#79 = CALENDAR_DATE ( 2025, 7, 3 ) ;
#80 = UNCERTAINTY_MEASURE_WITH_UNIT (LENGTH_MEASURE( 1.000000000000000082E-05 ), #251, 'distance_accuracy_value', 'NONE');
#81 = ORIENTED_EDGE ( 'NONE', *, *, #32, .T. ) ;
#82 = DIMENSIONAL_EXPONENTS ( 1.000000000000000000, 0.000000000000000000, 0.000000000000000000, 0.000000000000000000, 0.000000000000000000, 0.000000000000000000, 0.000000000000000000 ) ;
#83 = DIRECTION ( 'NONE',  ( -0.000000000000000000, -0.000000000000000000, -1.000000000000000000 ) ) ;
#84 = DIRECTION ( 'NONE',  ( 0.000000000000000000, 0.000000000000000000, 1.000000000000000000 ) ) ;
#85 = CARTESIAN_POINT ( 'NONE',  ( 0.000000000000000000, 0.000000000000000000, 0.1400000000000000133 ) ) ;
#86 = CARTESIAN_POINT ( 'NONE',  ( 0.000000000000000000, 0.000000000000000000, 0.000000000000000000 ) ) ;
#87 = ORIENTED_EDGE ( 'NONE', *, *, #131, .T. ) ;
#88 = CIRCLE ( 'NONE', #2, 0.06250000000000000000 ) ;
#89 =( LENGTH_UNIT ( ) NAMED_UNIT ( * ) SI_UNIT ( $, .METRE. ) );
#90 = LOCAL_TIME ( 22, 51, 3.000000000000000000, #113 ) ;
#91 = CARTESIAN_POINT ( 'NONE',  ( -0.06250000000000000000, 7.654042494670957545E-18, 0.1400000000000000133 ) ) ;
#92 = PERSON_AND_ORGANIZATION_ROLE ( 'design_owner' ) ;
#93 = CC_DESIGN_PERSON_AND_ORGANIZATION_ASSIGNMENT ( #196, #92, ( #46 ) ) ;
#94 = CARTESIAN_POINT ( 'NONE',  ( 0.000000000000000000, 0.000000000000000000, 0.1400000000000000133 ) ) ;
#95 = AXIS2_PLACEMENT_3D ( 'NONE', #94, #210, #34 ) ;
#96 = EDGE_CURVE ( 'NONE', #207, #149, #100, .T. ) ;
#97 = COORDINATED_UNIVERSAL_TIME_OFFSET ( 6, 0, .BEHIND. ) ;
#98 = ORIENTED_EDGE ( 'NONE', *, *, #6, .F. ) ;
#99 = APPROVAL_ROLE ( '' ) ;
#100 = CIRCLE ( 'NONE', #22, 0.1300000000000000044 ) ;
#101 = ORIENTED_EDGE ( 'NONE', *, *, #237, .F. ) ;
#102 = PERSON_AND_ORGANIZATION ( #226, #66 ) ;
#103 = APPROVAL_DATE_TIME ( #192, #242 ) ;
#104 = ORIENTED_EDGE ( 'NONE', *, *, #195, .T. ) ;
#105 = LOCAL_TIME ( 22, 51, 3.000000000000000000, #77 ) ;
#106 = PRODUCT_DEFINITION_SHAPE ( 'NONE', 'NONE',  #36 ) ;
#107 = CARTESIAN_POINT ( 'NONE',  ( 0.1300000000000000044, 1.592040838891559342E-17, 0.1400000000000000133 ) ) ;
#108 = DIRECTION ( 'NONE',  ( 0.000000000000000000, 0.000000000000000000, 1.000000000000000000 ) ) ;
#109 = EDGE_LOOP ( 'NONE', ( #161, #241, #61, #87 ) ) ;
#110 = AXIS2_PLACEMENT_3D ( 'NONE', #190, #30, #112 ) ;
#111 = ORIENTED_EDGE ( 'NONE', *, *, #32, .F. ) ;
#112 = DIRECTION ( 'NONE',  ( 1.000000000000000000, 0.000000000000000000, 0.000000000000000000 ) ) ;
#113 = COORDINATED_UNIVERSAL_TIME_OFFSET ( 6, 0, .BEHIND. ) ;
#114 = AXIS2_PLACEMENT_3D ( 'NONE', #7, #108, #246 ) ;
#115 = CARTESIAN_POINT ( 'NONE',  ( 0.06250000000000000000, 0.000000000000000000, 0.000000000000000000 ) ) ;
#116 = ADVANCED_FACE ( 'NONE', ( #247, #223 ), #26, .T. ) ;
#117 = PERSON_AND_ORGANIZATION ( #226, #66 ) ;
#118 = APPLICATION_PROTOCOL_DEFINITION ( 'international standard', 'config_control_design', 1994, #53 ) ;
#119 = CIRCLE ( 'NONE', #17, 0.06250000000000000000 ) ;
#120 = EDGE_CURVE ( 'NONE', #239, #198, #165, .T. ) ;
#121 = PERSON_AND_ORGANIZATION ( #226, #66 ) ;
#122 = ORIENTED_EDGE ( 'NONE', *, *, #71, .F. ) ;
#123 = VERTEX_POINT ( 'NONE', #9 ) ;
#124 = CALENDAR_DATE ( 2025, 7, 3 ) ;
#125 = CC_DESIGN_PERSON_AND_ORGANIZATION_ASSIGNMENT ( #121, #197, ( #13 ) ) ;
#126 = DIRECTION ( 'NONE',  ( 1.000000000000000000, 0.000000000000000000, 0.000000000000000000 ) ) ;
#127 = ADVANCED_BREP_SHAPE_REPRESENTATION ( 'Spacers_Default_sldprt', ( #178, #74 ), #249 ) ;
#128 = CYLINDRICAL_SURFACE ( 'NONE', #110, 0.06250000000000000000 ) ;
#129 = ORIENTED_EDGE ( 'NONE', *, *, #205, .F. ) ;
#130 = DIRECTION ( 'NONE',  ( 1.000000000000000000, 0.000000000000000000, -0.000000000000000000 ) ) ;
#131 = EDGE_CURVE ( 'NONE', #155, #235, #119, .T. ) ;
#132 = CARTESIAN_POINT ( 'NONE',  ( -0.1300000000000000044, 0.000000000000000000, 0.1400000000000000133 ) ) ;
#133 = CLOSED_SHELL ( 'NONE', ( #142, #230, #209, #116, #148, #5 ) ) ;
#134 = SECURITY_CLASSIFICATION ( '', '', #60 ) ;
#135 = CYLINDRICAL_SURFACE ( 'NONE', #229, 0.1300000000000000044 ) ;
#136 = APPLICATION_PROTOCOL_DEFINITION ( 'international standard', 'config_control_design', 1994, #162 ) ;
#137 = CARTESIAN_POINT ( 'NONE',  ( 0.1300000000000000044, 1.592040838891559342E-17, 0.000000000000000000 ) ) ;
#138 = APPROVAL_DATE_TIME ( #42, #224 ) ;
#139 = ORIENTED_EDGE ( 'NONE', *, *, #195, .F. ) ;
#140 = COORDINATED_UNIVERSAL_TIME_OFFSET ( 6, 0, .BEHIND. ) ;
#141 = ORIENTED_EDGE ( 'NONE', *, *, #96, .F. ) ;
#142 = ADVANCED_FACE ( 'NONE', ( #10 ), #128, .F. ) ;
#143 = DIRECTION ( 'NONE',  ( 1.000000000000000000, 0.000000000000000000, 0.000000000000000000 ) ) ;
#144 = APPROVAL_PERSON_ORGANIZATION ( #20, #224, #99 ) ;
#145 = LOCAL_TIME ( 22, 51, 3.000000000000000000, #140 ) ;
#146 = PLANE ( 'NONE',  #44 ) ;
#147 = CARTESIAN_POINT ( 'NONE',  ( 0.000000000000000000, 0.000000000000000000, 0.000000000000000000 ) ) ;
#148 = ADVANCED_FACE ( 'NONE', ( #8, #67 ), #146, .F. ) ;
#149 = VERTEX_POINT ( 'NONE', #47 ) ;
#150 = DIRECTION ( 'NONE',  ( 1.000000000000000000, 0.000000000000000000, 0.000000000000000000 ) ) ;
#151 =( NAMED_UNIT ( * ) SI_UNIT ( $, .STERADIAN. ) SOLID_ANGLE_UNIT ( ) );
#152 = LENGTH_MEASURE_WITH_UNIT ( LENGTH_MEASURE( 0.02539999999999999897 ), #89 );
#153 = DIRECTION ( 'NONE',  ( 1.000000000000000000, 0.000000000000000000, 0.000000000000000000 ) ) ;
#154 = SHAPE_DEFINITION_REPRESENTATION ( #106, #127 ) ;
#155 = VERTEX_POINT ( 'NONE', #68 ) ;
#156 = PERSON_AND_ORGANIZATION ( #226, #66 ) ;
#157 = ORIENTED_EDGE ( 'NONE', *, *, #120, .T. ) ;
#158 = EDGE_CURVE ( 'NONE', #187, #123, #211, .T. ) ;
#159 = DATE_AND_TIME ( #38, #105 ) ;
#160 = PERSON_AND_ORGANIZATION ( #226, #66 ) ;
#161 = ORIENTED_EDGE ( 'NONE', *, *, #174, .F. ) ;
#162 = APPLICATION_CONTEXT ( 'configuration controlled 3d designs of mechanical parts and assemblies' ) ;
#163 = DIRECTION ( 'NONE',  ( -0.000000000000000000, -0.000000000000000000, 1.000000000000000000 ) ) ;
#164 = ORIENTED_EDGE ( 'NONE', *, *, #78, .F. ) ;
#165 = CIRCLE ( 'NONE', #114, 0.1300000000000000044 ) ;
#166 = LOCAL_TIME ( 22, 51, 3.000000000000000000, #97 ) ;
#167 = ORIENTED_EDGE ( 'NONE', *, *, #78, .T. ) ;
#168 = CC_DESIGN_DATE_AND_TIME_ASSIGNMENT ( #159, #63, ( #36 ) ) ;
#169 = DIRECTION ( 'NONE',  ( 0.000000000000000000, 0.000000000000000000, 1.000000000000000000 ) ) ;
#170 = PRODUCT_RELATED_PRODUCT_CATEGORY ( 'detail', '', ( #46 ) ) ;
#171 = CARTESIAN_POINT ( 'NONE',  ( 0.000000000000000000, 0.000000000000000000, 0.000000000000000000 ) ) ;
#172 = AXIS2_PLACEMENT_3D ( 'NONE', #228, #231, #193 ) ;
#173 = FACE_OUTER_BOUND ( 'NONE', #29, .T. ) ;
#174 = EDGE_CURVE ( 'NONE', #123, #235, #225, .T. ) ;
#175 = DIRECTION ( 'NONE',  ( -0.000000000000000000, -0.000000000000000000, 1.000000000000000000 ) ) ;
#176 =( NAMED_UNIT ( * ) PLANE_ANGLE_UNIT ( ) SI_UNIT ( $, .RADIAN. ) );
#177 = DIRECTION ( 'NONE',  ( 1.000000000000000000, 0.000000000000000000, 0.000000000000000000 ) ) ;
#178 = MANIFOLD_SOLID_BREP ( 'Cut-Extrude1', #133 ) ;
#179 = DATE_AND_TIME ( #215, #166 ) ;
#180 = VECTOR ( 'NONE', #45, 39.37007874015748143 ) ;
#181 = PERSON_AND_ORGANIZATION_ROLE ( 'classification_officer' ) ;
#182 = LOCAL_TIME ( 22, 51, 3.000000000000000000, #25 ) ;
#183 = DATE_AND_TIME ( #79, #145 ) ;
#184 = EDGE_LOOP ( 'NONE', ( #40, #129 ) ) ;
#185 = AXIS2_PLACEMENT_3D ( 'NONE', #147, #11, #177 ) ;
#186 = DIRECTION ( 'NONE',  ( 0.000000000000000000, 0.000000000000000000, 1.000000000000000000 ) ) ;
#187 = VERTEX_POINT ( 'NONE', #115 ) ;
#188 = CARTESIAN_POINT ( 'NONE',  ( 0.000000000000000000, 0.000000000000000000, 0.1400000000000000133 ) ) ;
#189 = VECTOR ( 'NONE', #175, 39.37007874015748143 ) ;
#190 = CARTESIAN_POINT ( 'NONE',  ( 0.000000000000000000, 0.000000000000000000, 0.000000000000000000 ) ) ;
#191 = FACE_OUTER_BOUND ( 'NONE', #109, .T. ) ;
#192 = DATE_AND_TIME ( #12, #90 ) ;
#193 = DIRECTION ( 'NONE',  ( -1.000000000000000000, 0.000000000000000000, 0.000000000000000000 ) ) ;
#194 = DIRECTION ( 'NONE',  ( -0.000000000000000000, -0.000000000000000000, 1.000000000000000000 ) ) ;
#195 = EDGE_CURVE ( 'NONE', #149, #207, #51, .T. ) ;
#196 = PERSON_AND_ORGANIZATION ( #226, #66 ) ;
#197 = PERSON_AND_ORGANIZATION_ROLE ( 'creator' ) ;
#198 = VERTEX_POINT ( 'NONE', #31 ) ;
#199 = APPROVAL_STATUS ( 'not_yet_approved' ) ;
#200 = VECTOR ( 'NONE', #83, 39.37007874015748143 ) ;
#201 = CARTESIAN_POINT ( 'NONE',  ( 0.000000000000000000, 0.000000000000000000, 0.1400000000000000133 ) ) ;
#202 = AXIS2_PLACEMENT_3D ( 'NONE', #188, #43, #221 ) ;
#203 = CIRCLE ( 'NONE', #95, 0.06250000000000000000 ) ;
#204 = CYLINDRICAL_SURFACE ( 'NONE', #213, 0.06250000000000000000 ) ;
#205 = EDGE_CURVE ( 'NONE', #235, #155, #203, .T. ) ;
#206 = ORIENTED_EDGE ( 'NONE', *, *, #174, .T. ) ;
#207 = VERTEX_POINT ( 'NONE', #137 ) ;
#208 = DIRECTION ( 'NONE',  ( 1.000000000000000000, 0.000000000000000000, 0.000000000000000000 ) ) ;
#209 = ADVANCED_FACE ( 'NONE', ( #173 ), #54, .T. ) ;
#210 = DIRECTION ( 'NONE',  ( 0.000000000000000000, 0.000000000000000000, 1.000000000000000000 ) ) ;
#211 = CIRCLE ( 'NONE', #185, 0.06250000000000000000 ) ;
#212 = MECHANICAL_CONTEXT ( 'NONE', #53, 'mechanical' ) ;
#213 = AXIS2_PLACEMENT_3D ( 'NONE', #220, #163, #143 ) ;
#214 = DATE_TIME_ROLE ( 'classification_date' ) ;
#215 = CALENDAR_DATE ( 2025, 7, 3 ) ;
#216 = ORIENTED_EDGE ( 'NONE', *, *, #6, .T. ) ;
#217 = ORIENTED_EDGE ( 'NONE', *, *, #71, .T. ) ;
#218 = CC_DESIGN_PERSON_AND_ORGANIZATION_ASSIGNMENT ( #232, #181, ( #134 ) ) ;
#219 = PERSON_AND_ORGANIZATION_ROLE ( 'creator' ) ;
#220 = CARTESIAN_POINT ( 'NONE',  ( 0.000000000000000000, 0.000000000000000000, 0.000000000000000000 ) ) ;
#221 = DIRECTION ( 'NONE',  ( 1.000000000000000000, 0.000000000000000000, 0.000000000000000000 ) ) ;
#222 = CARTESIAN_POINT ( 'NONE',  ( 0.000000000000000000, 0.000000000000000000, 0.000000000000000000 ) ) ;
#223 = FACE_OUTER_BOUND ( 'NONE', #4, .T. ) ;
#224 = APPROVAL ( #199, 'UNSPECIFIED' ) ;
#225 = LINE ( 'NONE', #33, #62 ) ;
#226 = PERSON ( 'UNSPECIFIED', 'UNSPECIFIED', 'UNSPECIFIED', ('UNSPECIFIED'), ('UNSPECIFIED'), ('UNSPECIFIED') ) ;
#227 = CARTESIAN_POINT ( 'NONE',  ( 0.06250000000000000000, 0.000000000000000000, 0.000000000000000000 ) ) ;
#228 = CARTESIAN_POINT ( 'NONE',  ( 0.000000000000000000, 0.000000000000000000, 0.1400000000000000133 ) ) ;
#229 = AXIS2_PLACEMENT_3D ( 'NONE', #55, #252, #72 ) ;
#230 = ADVANCED_FACE ( 'NONE', ( #52 ), #135, .T. ) ;
#231 = DIRECTION ( 'NONE',  ( -0.000000000000000000, -0.000000000000000000, -1.000000000000000000 ) ) ;
#232 = PERSON_AND_ORGANIZATION ( #226, #66 ) ;
#233 = CC_DESIGN_APPROVAL ( #242, ( #36 ) ) ;
#234 = PERSON_AND_ORGANIZATION_ROLE ( 'design_supplier' ) ;
#235 = VERTEX_POINT ( 'NONE', #91 ) ;
#236 = APPROVAL_STATUS ( 'not_yet_approved' ) ;
#237 = EDGE_CURVE ( 'NONE', #187, #155, #37, .T. ) ;
#238 = APPROVAL_DATE_TIME ( #183, #18 ) ;
#239 = VERTEX_POINT ( 'NONE', #35 ) ;
#240 = EDGE_LOOP ( 'NONE', ( #164, #206, #21, #101 ) ) ;
#241 = ORIENTED_EDGE ( 'NONE', *, *, #158, .F. ) ;
#242 = APPROVAL ( #19, 'UNSPECIFIED' ) ;
#243 = AXIS2_PLACEMENT_3D ( 'NONE', #201, #244, #27 ) ;
#244 = DIRECTION ( 'NONE',  ( 0.000000000000000000, 0.000000000000000000, 1.000000000000000000 ) ) ;
#245 = CC_DESIGN_APPROVAL ( #224, ( #13 ) ) ;
#246 = DIRECTION ( 'NONE',  ( 1.000000000000000000, 0.000000000000000000, 0.000000000000000000 ) ) ;
#247 = FACE_BOUND ( 'NONE', #184, .T. ) ;
#248 = EDGE_LOOP ( 'NONE', ( #139, #141 ) ) ;
#249 =( GEOMETRIC_REPRESENTATION_CONTEXT ( 3 ) GLOBAL_UNCERTAINTY_ASSIGNED_CONTEXT ( ( #80 ) ) GLOBAL_UNIT_ASSIGNED_CONTEXT ( ( #251, #176, #151 ) ) REPRESENTATION_CONTEXT ( 'NONE', 'WORKASPACE' ) );
#250 = CC_DESIGN_APPROVAL ( #18, ( #134 ) ) ;
#251 =( CONVERSION_BASED_UNIT ( 'INCH', #152 ) LENGTH_UNIT ( ) NAMED_UNIT ( #82 ) );
#252 = DIRECTION ( 'NONE',  ( -0.000000000000000000, -0.000000000000000000, -1.000000000000000000 ) ) ;
ENDSEC;
END-ISO-10303-21;
