ISO-10303-21;
HEADER;
FILE_DESCRIPTION (( 'STEP AP203' ),
    '1' );
FILE_NAME ('Top plate plexi_Default_sldprt.STEP',
    '2025-03-08T04:51:14',
    ( '' ),
    ( '' ),
    'SwSTEP 2.0',
    'SolidWorks 2024',
    '' );
FILE_SCHEMA (( 'CONFIG_CONTROL_DESIGN' ));
ENDSEC;

DATA;
#1 = CARTESIAN_POINT ( 'NONE',  ( 11.49353411660969293, -0.04575000000000000594, -6.627093211941814666 ) ) ;
#2 = VECTOR ( 'NONE', #51, 39.37007874015748143 ) ;
#3 = CC_DESIGN_DATE_AND_TIME_ASSIGNMENT ( #68, #92, ( #160 ) ) ;
#4 =( NAMED_UNIT ( * ) PLANE_ANGLE_UNIT ( ) SI_UNIT ( $, .RADIAN. ) );
#5 = ORGANIZATION ( 'UNSPECIFIED', 'UNSPECIFIED', '' ) ;
#6 = COORDINATED_UNIVERSAL_TIME_OFFSET ( 6, 0, .BEHIND. ) ;
#7 = SECURITY_CLASSIFICATION_LEVEL ( 'unclassified' ) ;
#8 = AXIS2_PLACEMENT_3D ( 'NONE', #85, #284, #40 ) ;
#9 = APPROVAL_DATE_TIME ( #221, #133 ) ;
#10 = DIRECTION ( 'NONE',  ( 0.4999999999999997224, 0.000000000000000000, -0.8660254037844388186 ) ) ;
#11 = CC_DESIGN_PERSON_AND_ORGANIZATION_ASSIGNMENT ( #119, #168, ( #215 ) ) ;
#12 = VECTOR ( 'NONE', #108, 39.37007874015748854 ) ;
#13 = DIRECTION ( 'NONE',  ( 0.000000000000000000, 0.000000000000000000, 1.000000000000000000 ) ) ;
#14 = FACE_OUTER_BOUND ( 'NONE', #163, .T. ) ;
#15 = LINE ( 'NONE', #128, #262 ) ;
#16 = VECTOR ( 'NONE', #38, 39.37007874015748143 ) ;
#17 = ORIENTED_EDGE ( 'NONE', *, *, #268, .F. ) ;
#18 = ORIENTED_EDGE ( 'NONE', *, *, #179, .T. ) ;
#19 = CARTESIAN_POINT ( 'NONE',  ( 0.0005542842566305622269, -0.04575000000000000594, 13.27933178805814052 ) ) ;
#20 = VERTEX_POINT ( 'NONE', #272 ) ;
#21 = DIRECTION ( 'NONE',  ( -1.576824238767253402E-16, 0.000000000000000000, 1.000000000000000000 ) ) ;
#22 = FACE_OUTER_BOUND ( 'NONE', #271, .T. ) ;
#23 = ORIENTED_EDGE ( 'NONE', *, *, #236, .F. ) ;
#24 = CARTESIAN_POINT ( 'NONE',  ( -11.49242554809644545, -0.04575000000000000594, -6.627093211941830653 ) ) ;
#25 = PERSON_AND_ORGANIZATION ( #100, #5 ) ;
#26 = MANIFOLD_SOLID_BREP ( 'Scale1', #87 ) ;
#27 = PERSON_AND_ORGANIZATION ( #100, #5 ) ;
#28 = CC_DESIGN_DATE_AND_TIME_ASSIGNMENT ( #144, #217, ( #215 ) ) ;
#29 = PRODUCT_DEFINITION_FORMATION_WITH_SPECIFIED_SOURCE ( 'ANY', '', #116, .NOT_KNOWN. ) ;
#30 = APPROVAL_STATUS ( 'not_yet_approved' ) ;
#31 = COORDINATED_UNIVERSAL_TIME_OFFSET ( 6, 0, .BEHIND. ) ;
#32 = AXIS2_PLACEMENT_3D ( 'NONE', #170, #290, #192 ) ;
#33 = EDGE_CURVE ( 'NONE', #63, #206, #52, .T. ) ;
#34 = PLANE ( 'NONE',  #141 ) ;
#35 = CARTESIAN_POINT ( 'NONE',  ( 11.49353411660970181, -0.04575000000000000594, 6.643856788058157825 ) ) ;
#36 = CARTESIAN_POINT ( 'NONE',  ( 0.0005542842566321713998, 0.1457500000000000462, -13.26256821194182933 ) ) ;
#37 = LINE ( 'NONE', #197, #278 ) ;
#38 = DIRECTION ( 'NONE',  ( 0.8660254037844388186, 0.000000000000000000, 0.4999999999999998335 ) ) ;
#39 = ORIENTED_EDGE ( 'NONE', *, *, #58, .T. ) ;
#40 = DIRECTION ( 'NONE',  ( 1.576824238767253402E-16, 0.000000000000000000, -1.000000000000000000 ) ) ;
#41 = ORIENTED_EDGE ( 'NONE', *, *, #70, .T. ) ;
#42 = CARTESIAN_POINT ( 'NONE',  ( 11.49353411660970181, 0.1457500000000000462, 6.643856788058157825 ) ) ;
#43 = APPROVAL_PERSON_ORGANIZATION ( #25, #50, #266 ) ;
#44 = DIRECTION ( 'NONE',  ( 6.307296955069019524E-16, 0.000000000000000000, 1.000000000000000000 ) ) ;
#45 = ORIENTED_EDGE ( 'NONE', *, *, #179, .F. ) ;
#46 = CARTESIAN_POINT ( 'NONE',  ( 0.0005542842566305622269, 0.1457500000000000462, 13.27933178805814052 ) ) ;
#47 = DIRECTION ( 'NONE',  ( -1.576824238767253402E-16, 0.000000000000000000, 1.000000000000000000 ) ) ;
#48 = APPROVAL_DATE_TIME ( #267, #50 ) ;
#49 = AXIS2_PLACEMENT_3D ( 'NONE', #127, #223, #13 ) ;
#50 = APPROVAL ( #146, 'UNSPECIFIED' ) ;
#51 = DIRECTION ( 'NONE',  ( -0.000000000000000000, -1.000000000000000000, -0.000000000000000000 ) ) ;
#52 = LINE ( 'NONE', #201, #213 ) ;
#53 = DIRECTION ( 'NONE',  ( -0.8660254037844374864, 0.000000000000000000, -0.5000000000000021094 ) ) ;
#54 = CARTESIAN_POINT ( 'NONE',  ( 11.49353411660970181, -0.04575000000000000594, 6.643856788058157825 ) ) ;
#55 = ORIENTED_EDGE ( 'NONE', *, *, #33, .F. ) ;
#56 = CARTESIAN_POINT ( 'NONE',  ( 11.49353411660969293, 0.1457500000000000462, -6.627093211941814666 ) ) ;
#57 = ORIENTED_EDGE ( 'NONE', *, *, #125, .T. ) ;
#58 = EDGE_CURVE ( 'NONE', #114, #298, #103, .T. ) ;
#59 = VECTOR ( 'NONE', #196, 39.37007874015748143 ) ;
#60 = PLANE ( 'NONE',  #74 ) ;
#61 = ORIENTED_EDGE ( 'NONE', *, *, #77, .T. ) ;
#62 = CARTESIAN_POINT ( 'NONE',  ( 11.49353411660969293, 0.1457500000000000462, -6.627093211941814666 ) ) ;
#63 = VERTEX_POINT ( 'NONE', #101 ) ;
#64 = VECTOR ( 'NONE', #115, 39.37007874015748143 ) ;
#65 = LINE ( 'NONE', #82, #123 ) ;
#66 = EDGE_CURVE ( 'NONE', #136, #209, #174, .T. ) ;
#67 = PERSON_AND_ORGANIZATION_ROLE ( 'design_owner' ) ;
#68 = DATE_AND_TIME ( #142, #240 ) ;
#69 = DIRECTION ( 'NONE',  ( -0.8660254037844382635, 0.000000000000000000, 0.5000000000000004441 ) ) ;
#70 = EDGE_CURVE ( 'NONE', #20, #181, #172, .T. ) ;
#71 = LOCAL_TIME ( 22, 51, 14.00000000000000000, #31 ) ;
#72 = LINE ( 'NONE', #173, #228 ) ;
#73 = ORIENTED_EDGE ( 'NONE', *, *, #195, .T. ) ;
#74 = AXIS2_PLACEMENT_3D ( 'NONE', #212, #182, #88 ) ;
#75 = DIRECTION ( 'NONE',  ( 0.8660254037844385966, 0.000000000000000000, -0.4999999999999998335 ) ) ;
#76 = FACE_OUTER_BOUND ( 'NONE', #111, .T. ) ;
#77 = EDGE_CURVE ( 'NONE', #229, #114, #15, .T. ) ;
#78 = PLANE ( 'NONE',  #120 ) ;
#79 = ORIENTED_EDGE ( 'NONE', *, *, #220, .F. ) ;
#80 = LINE ( 'NONE', #186, #187 ) ;
#81 = ORIENTED_EDGE ( 'NONE', *, *, #288, .F. ) ;
#82 = CARTESIAN_POINT ( 'NONE',  ( -11.49242554809644545, -0.04575000000000000594, -6.627093211941830653 ) ) ;
#83 = ORIENTED_EDGE ( 'NONE', *, *, #251, .T. ) ;
#84 = APPLICATION_CONTEXT ( 'configuration controlled 3d designs of mechanical parts and assemblies' ) ;
#85 = CARTESIAN_POINT ( 'NONE',  ( -11.49242554809644545, 0.1457500000000000462, -6.627093211941830653 ) ) ;
#86 = ADVANCED_BREP_SHAPE_REPRESENTATION ( 'Top plate plexi_Default_sldprt', ( #26, #32 ), #282 ) ;
#87 = CLOSED_SHELL ( 'NONE', ( #301, #155, #151, #171, #207, #293, #93, #112 ) ) ;
#88 = DIRECTION ( 'NONE',  ( 0.8660254037844373753, 0.000000000000000000, 0.5000000000000022204 ) ) ;
#89 = APPROVAL_DATE_TIME ( #121, #280 ) ;
#90 = EDGE_CURVE ( 'NONE', #114, #63, #152, .T. ) ;
#91 =( NAMED_UNIT ( * ) SI_UNIT ( $, .STERADIAN. ) SOLID_ANGLE_UNIT ( ) );
#92 = DATE_TIME_ROLE ( 'classification_date' ) ;
#93 = ADVANCED_FACE ( 'NONE', ( #14 ), #292, .T. ) ;
#94 = APPROVAL_ROLE ( '' ) ;
#95 = VECTOR ( 'NONE', #255, 39.37007874015748143 ) ;
#96 = CC_DESIGN_APPROVAL ( #133, ( #160 ) ) ;
#97 = APPLICATION_PROTOCOL_DEFINITION ( 'international standard', 'config_control_design', 1994, #84 ) ;
#98 = CARTESIAN_POINT ( 'NONE',  ( 0.0005542842566321713998, 0.1457500000000000462, -13.26256821194182933 ) ) ;
#99 = AXIS2_PLACEMENT_3D ( 'NONE', #270, #200, #273 ) ;
#100 = PERSON ( 'UNSPECIFIED', 'UNSPECIFIED', 'UNSPECIFIED', ('UNSPECIFIED'), ('UNSPECIFIED'), ('UNSPECIFIED') ) ;
#101 = CARTESIAN_POINT ( 'NONE',  ( -11.49242554809644545, 0.1457500000000000462, -6.627093211941830653 ) ) ;
#102 = VERTEX_POINT ( 'NONE', #296 ) ;
#103 = LINE ( 'NONE', #36, #2 ) ;
#104 = VECTOR ( 'NONE', #208, 39.37007874015748143 ) ;
#105 = EDGE_CURVE ( 'NONE', #202, #20, #37, .T. ) ;
#106 = PLANE ( 'NONE',  #147 ) ;
#107 = ORIENTED_EDGE ( 'NONE', *, *, #58, .F. ) ;
#108 = DIRECTION ( 'NONE',  ( -0.8660254037844382635, 0.000000000000000000, 0.5000000000000004441 ) ) ;
#109 = ORIENTED_EDGE ( 'NONE', *, *, #90, .F. ) ;
#110 = FACE_OUTER_BOUND ( 'NONE', #204, .T. ) ;
#111 = EDGE_LOOP ( 'NONE', ( #79, #248, #81, #149, #183, #150 ) ) ;
#112 = ADVANCED_FACE ( 'NONE', ( #76 ), #226, .F. ) ;
#113 = CARTESIAN_POINT ( 'NONE',  ( 11.49353411660970181, 0.1457500000000000462, 6.643856788058157825 ) ) ;
#114 = VERTEX_POINT ( 'NONE', #98 ) ;
#115 = DIRECTION ( 'NONE',  ( -6.307296955069019524E-16, 0.000000000000000000, -1.000000000000000000 ) ) ;
#116 = PRODUCT ( 'Top plate plexi_Default_sldprt', 'Top plate plexi_Default_sldprt', '', ( #194 ) ) ;
#117 = CARTESIAN_POINT ( 'NONE',  ( 11.49353411660970181, 0.1457500000000000462, 6.643856788058157825 ) ) ;
#118 = PERSON_AND_ORGANIZATION ( #100, #5 ) ;
#119 = PERSON_AND_ORGANIZATION ( #100, #5 ) ;
#120 = AXIS2_PLACEMENT_3D ( 'NONE', #139, #158, #306 ) ;
#121 = DATE_AND_TIME ( #214, #210 ) ;
#122 = CALENDAR_DATE ( 2025, 7, 3 ) ;
#123 = VECTOR ( 'NONE', #21, 39.37007874015748143 ) ;
#124 = VECTOR ( 'NONE', #277, 39.37007874015748143 ) ;
#125 = EDGE_CURVE ( 'NONE', #102, #297, #72, .T. ) ;
#126 = CARTESIAN_POINT ( 'NONE',  ( -11.49242554809644723, 0.1457500000000000462, 6.643856788058155161 ) ) ;
#127 = CARTESIAN_POINT ( 'NONE',  ( -0.0005071700948114335906, -0.04575000000000000594, -0.007669336073217705892 ) ) ;
#128 = CARTESIAN_POINT ( 'NONE',  ( 11.49353411660969293, 0.1457500000000000462, -6.627093211941814666 ) ) ;
#129 = DIRECTION ( 'NONE',  ( -6.307296955069019524E-16, 0.000000000000000000, -1.000000000000000000 ) ) ;
#130 = FACE_OUTER_BOUND ( 'NONE', #159, .T. ) ;
#131 = ORIENTED_EDGE ( 'NONE', *, *, #220, .T. ) ;
#132 =( LENGTH_UNIT ( ) NAMED_UNIT ( * ) SI_UNIT ( $, .METRE. ) );
#133 = APPROVAL ( #193, 'UNSPECIFIED' ) ;
#134 = ORIENTED_EDGE ( 'NONE', *, *, #33, .T. ) ;
#135 = CARTESIAN_POINT ( 'NONE',  ( -11.49242554809644545, 0.1457500000000000462, -6.627093211941830653 ) ) ;
#136 = VERTEX_POINT ( 'NONE', #54 ) ;
#137 = LENGTH_MEASURE_WITH_UNIT ( LENGTH_MEASURE( 0.02539999999999999897 ), #132 );
#138 = EDGE_CURVE ( 'NONE', #202, #102, #154, .T. ) ;
#139 = CARTESIAN_POINT ( 'NONE',  ( 0.0005542842566321713998, 0.1457500000000000462, -13.26256821194182933 ) ) ;
#140 = PERSON_AND_ORGANIZATION ( #100, #5 ) ;
#141 = AXIS2_PLACEMENT_3D ( 'NONE', #126, #10, #302 ) ;
#142 = CALENDAR_DATE ( 2025, 7, 3 ) ;
#143 = CALENDAR_DATE ( 2025, 7, 3 ) ;
#144 = DATE_AND_TIME ( #143, #294 ) ;
#145 = DIMENSIONAL_EXPONENTS ( 1.000000000000000000, 0.000000000000000000, 0.000000000000000000, 0.000000000000000000, 0.000000000000000000, 0.000000000000000000, 0.000000000000000000 ) ;
#146 = APPROVAL_STATUS ( 'not_yet_approved' ) ;
#147 = AXIS2_PLACEMENT_3D ( 'NONE', #178, #275, #148 ) ;
#148 = DIRECTION ( 'NONE',  ( -0.8660254037844385966, 0.000000000000000000, 0.4999999999999998335 ) ) ;
#149 = ORIENTED_EDGE ( 'NONE', *, *, #66, .F. ) ;
#150 = ORIENTED_EDGE ( 'NONE', *, *, #70, .F. ) ;
#151 = ADVANCED_FACE ( 'NONE', ( #130 ), #106, .F. ) ;
#152 = LINE ( 'NONE', #224, #238 ) ;
#153 = PRODUCT_RELATED_PRODUCT_CATEGORY ( 'detail', '', ( #116 ) ) ;
#154 = LINE ( 'NONE', #252, #16 ) ;
#155 = ADVANCED_FACE ( 'NONE', ( #245 ), #34, .F. ) ;
#156 = CARTESIAN_POINT ( 'NONE',  ( 11.49353411660969293, -0.04575000000000000594, -6.627093211941814666 ) ) ;
#157 = DESIGN_CONTEXT ( 'detailed design', #291, 'design' ) ;
#158 = DIRECTION ( 'NONE',  ( 0.5000000000000006661, -0.000000000000000000, 0.8660254037844383745 ) ) ;
#159 = EDGE_LOOP ( 'NONE', ( #83, #303, #258, #274 ) ) ;
#160 = SECURITY_CLASSIFICATION ( '', '', #7 ) ;
#161 = CC_DESIGN_APPROVAL ( #280, ( #29 ) ) ;
#162 = CARTESIAN_POINT ( 'NONE',  ( 0.0005542842566305622269, -0.04575000000000000594, 13.27933178805814052 ) ) ;
#163 = EDGE_LOOP ( 'NONE', ( #227, #256, #57, #18, #61, #279 ) ) ;
#164 = LINE ( 'NONE', #113, #64 ) ;
#165 = AXIS2_PLACEMENT_3D ( 'NONE', #117, #299, #44 ) ;
#166 = PLANE ( 'NONE',  #8 ) ;
#167 = EDGE_CURVE ( 'NONE', #298, #206, #304, .T. ) ;
#168 = PERSON_AND_ORGANIZATION_ROLE ( 'creator' ) ;
#169 = SHAPE_DEFINITION_REPRESENTATION ( #189, #86 ) ;
#170 = CARTESIAN_POINT ( 'NONE',  ( 0.000000000000000000, 0.000000000000000000, 0.000000000000000000 ) ) ;
#171 = ADVANCED_FACE ( 'NONE', ( #22 ), #180, .F. ) ;
#172 = LINE ( 'NONE', #249, #59 ) ;
#173 = CARTESIAN_POINT ( 'NONE',  ( 0.0005542842566305622269, 0.1457500000000000462, 13.27933178805814052 ) ) ;
#174 = LINE ( 'NONE', #35, #254 ) ;
#175 = DIRECTION ( 'NONE',  ( -0.000000000000000000, -1.000000000000000000, -0.000000000000000000 ) ) ;
#176 = UNCERTAINTY_MEASURE_WITH_UNIT (LENGTH_MEASURE( 1.000000000000000082E-05 ), #234, 'distance_accuracy_value', 'NONE');
#177 = EDGE_LOOP ( 'NONE', ( #231, #107, #222, #300 ) ) ;
#178 = CARTESIAN_POINT ( 'NONE',  ( 0.0005542842566305622269, 0.1457500000000000462, 13.27933178805814052 ) ) ;
#179 = EDGE_CURVE ( 'NONE', #297, #229, #164, .T. ) ;
#180 = PLANE ( 'NONE',  #165 ) ;
#181 = VERTEX_POINT ( 'NONE', #162 ) ;
#182 = DIRECTION ( 'NONE',  ( -0.5000000000000022204, 0.000000000000000000, 0.8660254037844373753 ) ) ;
#183 = ORIENTED_EDGE ( 'NONE', *, *, #251, .F. ) ;
#184 = LINE ( 'NONE', #56, #124 ) ;
#185 = ORIENTED_EDGE ( 'NONE', *, *, #138, .F. ) ;
#186 = CARTESIAN_POINT ( 'NONE',  ( 11.49353411660970181, 0.1457500000000000462, 6.643856788058157825 ) ) ;
#187 = VECTOR ( 'NONE', #263, 39.37007874015748143 ) ;
#188 = LINE ( 'NONE', #19, #287 ) ;
#189 = PRODUCT_DEFINITION_SHAPE ( 'NONE', 'NONE',  #215 ) ;
#190 = PERSON_AND_ORGANIZATION_ROLE ( 'classification_officer' ) ;
#191 = CC_DESIGN_PERSON_AND_ORGANIZATION_ASSIGNMENT ( #242, #190, ( #160 ) ) ;
#192 = DIRECTION ( 'NONE',  ( 1.000000000000000000, 0.000000000000000000, 0.000000000000000000 ) ) ;
#193 = APPROVAL_STATUS ( 'not_yet_approved' ) ;
#194 = MECHANICAL_CONTEXT ( 'NONE', #84, 'mechanical' ) ;
#195 = EDGE_CURVE ( 'NONE', #297, #136, #80, .T. ) ;
#196 = DIRECTION ( 'NONE',  ( 0.8660254037844388186, 0.000000000000000000, 0.4999999999999998335 ) ) ;
#197 = CARTESIAN_POINT ( 'NONE',  ( -11.49242554809644723, 0.1457500000000000462, 6.643856788058155161 ) ) ;
#198 = CC_DESIGN_PERSON_AND_ORGANIZATION_ASSIGNMENT ( #237, #219, ( #29 ) ) ;
#199 = DIRECTION ( 'NONE',  ( -0.000000000000000000, -1.000000000000000000, -0.000000000000000000 ) ) ;
#200 = DIRECTION ( 'NONE',  ( 0.000000000000000000, 1.000000000000000000, -0.000000000000000000 ) ) ;
#201 = CARTESIAN_POINT ( 'NONE',  ( -11.49242554809644545, 0.1457500000000000462, -6.627093211941830653 ) ) ;
#202 = VERTEX_POINT ( 'NONE', #260 ) ;
#203 = LINE ( 'NONE', #156, #95 ) ;
#204 = EDGE_LOOP ( 'NONE', ( #253, #55, #109, #39 ) ) ;
#205 = CARTESIAN_POINT ( 'NONE',  ( 0.0005542842566321713998, -0.04575000000000000594, -13.26256821194182933 ) ) ;
#206 = VERTEX_POINT ( 'NONE', #24 ) ;
#207 = ADVANCED_FACE ( 'NONE', ( #281 ), #60, .F. ) ;
#208 = DIRECTION ( 'NONE',  ( -0.000000000000000000, -1.000000000000000000, -0.000000000000000000 ) ) ;
#209 = VERTEX_POINT ( 'NONE', #1 ) ;
#210 = LOCAL_TIME ( 22, 51, 14.00000000000000000, #6 ) ;
#211 = CC_DESIGN_PERSON_AND_ORGANIZATION_ASSIGNMENT ( #140, #218, ( #29 ) ) ;
#212 = CARTESIAN_POINT ( 'NONE',  ( 11.49353411660969293, 0.1457500000000000462, -6.627093211941814666 ) ) ;
#213 = VECTOR ( 'NONE', #199, 39.37007874015748143 ) ;
#214 = CALENDAR_DATE ( 2025, 7, 3 ) ;
#215 = PRODUCT_DEFINITION ( 'UNKNOWN', '', #29, #157 ) ;
#216 = LOCAL_TIME ( 22, 51, 14.00000000000000000, #265 ) ;
#217 = DATE_TIME_ROLE ( 'creation_date' ) ;
#218 = PERSON_AND_ORGANIZATION_ROLE ( 'design_supplier' ) ;
#219 = PERSON_AND_ORGANIZATION_ROLE ( 'creator' ) ;
#220 = EDGE_CURVE ( 'NONE', #206, #20, #65, .T. ) ;
#221 = DATE_AND_TIME ( #289, #71 ) ;
#222 = ORIENTED_EDGE ( 'NONE', *, *, #77, .F. ) ;
#223 = DIRECTION ( 'NONE',  ( 0.000000000000000000, 1.000000000000000000, -0.000000000000000000 ) ) ;
#224 = CARTESIAN_POINT ( 'NONE',  ( 0.0005542842566321713998, 0.1457500000000000462, -13.26256821194182933 ) ) ;
#225 = CC_DESIGN_SECURITY_CLASSIFICATION ( #160, ( #29 ) ) ;
#226 = PLANE ( 'NONE',  #49 ) ;
#227 = ORIENTED_EDGE ( 'NONE', *, *, #236, .T. ) ;
#228 = VECTOR ( 'NONE', #75, 39.37007874015748854 ) ;
#229 = VERTEX_POINT ( 'NONE', #62 ) ;
#230 = CC_DESIGN_PERSON_AND_ORGANIZATION_ASSIGNMENT ( #269, #67, ( #116 ) ) ;
#231 = ORIENTED_EDGE ( 'NONE', *, *, #288, .T. ) ;
#232 = ORIENTED_EDGE ( 'NONE', *, *, #105, .F. ) ;
#233 = LINE ( 'NONE', #46, #104 ) ;
#234 =( CONVERSION_BASED_UNIT ( 'INCH', #137 ) LENGTH_UNIT ( ) NAMED_UNIT ( #145 ) );
#235 = CARTESIAN_POINT ( 'NONE',  ( 0.0005542842566321713998, -0.04575000000000000594, -13.26256821194182933 ) ) ;
#236 = EDGE_CURVE ( 'NONE', #63, #202, #261, .T. ) ;
#237 = PERSON_AND_ORGANIZATION ( #100, #5 ) ;
#238 = VECTOR ( 'NONE', #69, 39.37007874015748854 ) ;
#239 = COORDINATED_UNIVERSAL_TIME_OFFSET ( 6, 0, .BEHIND. ) ;
#240 = LOCAL_TIME ( 22, 51, 14.00000000000000000, #239 ) ;
#241 = APPROVAL_ROLE ( '' ) ;
#242 = PERSON_AND_ORGANIZATION ( #100, #5 ) ;
#243 = VECTOR ( 'NONE', #47, 39.37007874015748143 ) ;
#244 = COORDINATED_UNIVERSAL_TIME_OFFSET ( 6, 0, .BEHIND. ) ;
#245 = FACE_OUTER_BOUND ( 'NONE', #247, .T. ) ;
#246 = EDGE_CURVE ( 'NONE', #102, #181, #233, .T. ) ;
#247 = EDGE_LOOP ( 'NONE', ( #41, #285, #185, #283 ) ) ;
#248 = ORIENTED_EDGE ( 'NONE', *, *, #167, .F. ) ;
#249 = CARTESIAN_POINT ( 'NONE',  ( -11.49242554809644723, -0.04575000000000000594, 6.643856788058155161 ) ) ;
#250 = APPROVAL_PERSON_ORGANIZATION ( #27, #133, #94 ) ;
#251 = EDGE_CURVE ( 'NONE', #181, #136, #188, .T. ) ;
#252 = CARTESIAN_POINT ( 'NONE',  ( -11.49242554809644723, 0.1457500000000000462, 6.643856788058155161 ) ) ;
#253 = ORIENTED_EDGE ( 'NONE', *, *, #167, .T. ) ;
#254 = VECTOR ( 'NONE', #129, 39.37007874015748143 ) ;
#255 = DIRECTION ( 'NONE',  ( -0.8660254037844374864, 0.000000000000000000, -0.5000000000000021094 ) ) ;
#256 = ORIENTED_EDGE ( 'NONE', *, *, #138, .T. ) ;
#257 = DIRECTION ( 'NONE',  ( 0.8660254037844385966, 0.000000000000000000, -0.4999999999999998335 ) ) ;
#258 = ORIENTED_EDGE ( 'NONE', *, *, #125, .F. ) ;
#259 = CC_DESIGN_APPROVAL ( #50, ( #215 ) ) ;
#260 = CARTESIAN_POINT ( 'NONE',  ( -11.49242554809644723, 0.1457500000000000462, 6.643856788058155161 ) ) ;
#261 = LINE ( 'NONE', #135, #243 ) ;
#262 = VECTOR ( 'NONE', #53, 39.37007874015748143 ) ;
#263 = DIRECTION ( 'NONE',  ( -0.000000000000000000, -1.000000000000000000, -0.000000000000000000 ) ) ;
#264 = APPLICATION_PROTOCOL_DEFINITION ( 'international standard', 'config_control_design', 1994, #291 ) ;
#265 = COORDINATED_UNIVERSAL_TIME_OFFSET ( 6, 0, .BEHIND. ) ;
#266 = APPROVAL_ROLE ( '' ) ;
#267 = DATE_AND_TIME ( #122, #216 ) ;
#268 = EDGE_CURVE ( 'NONE', #229, #209, #184, .T. ) ;
#269 = PERSON_AND_ORGANIZATION ( #100, #5 ) ;
#270 = CARTESIAN_POINT ( 'NONE',  ( -0.0005071700948114335906, 0.1457500000000000462, -0.007669336073217705892 ) ) ;
#271 = EDGE_LOOP ( 'NONE', ( #276, #17, #45, #73 ) ) ;
#272 = CARTESIAN_POINT ( 'NONE',  ( -11.49242554809644723, -0.04575000000000000594, 6.643856788058155161 ) ) ;
#273 = DIRECTION ( 'NONE',  ( 0.000000000000000000, 0.000000000000000000, 1.000000000000000000 ) ) ;
#274 = ORIENTED_EDGE ( 'NONE', *, *, #246, .T. ) ;
#275 = DIRECTION ( 'NONE',  ( -0.4999999999999998890, 0.000000000000000000, -0.8660254037844387076 ) ) ;
#276 = ORIENTED_EDGE ( 'NONE', *, *, #66, .T. ) ;
#277 = DIRECTION ( 'NONE',  ( -0.000000000000000000, -1.000000000000000000, -0.000000000000000000 ) ) ;
#278 = VECTOR ( 'NONE', #175, 39.37007874015748143 ) ;
#279 = ORIENTED_EDGE ( 'NONE', *, *, #90, .T. ) ;
#280 = APPROVAL ( #30, 'UNSPECIFIED' ) ;
#281 = FACE_OUTER_BOUND ( 'NONE', #177, .T. ) ;
#282 =( GEOMETRIC_REPRESENTATION_CONTEXT ( 3 ) GLOBAL_UNCERTAINTY_ASSIGNED_CONTEXT ( ( #176 ) ) GLOBAL_UNIT_ASSIGNED_CONTEXT ( ( #234, #4, #91 ) ) REPRESENTATION_CONTEXT ( 'NONE', 'WORKASPACE' ) );
#283 = ORIENTED_EDGE ( 'NONE', *, *, #105, .T. ) ;
#284 = DIRECTION ( 'NONE',  ( 1.000000000000000000, -0.000000000000000000, 1.576824238767253402E-16 ) ) ;
#285 = ORIENTED_EDGE ( 'NONE', *, *, #246, .F. ) ;
#286 = FACE_OUTER_BOUND ( 'NONE', #295, .T. ) ;
#287 = VECTOR ( 'NONE', #257, 39.37007874015748854 ) ;
#288 = EDGE_CURVE ( 'NONE', #209, #298, #203, .T. ) ;
#289 = CALENDAR_DATE ( 2025, 7, 3 ) ;
#290 = DIRECTION ( 'NONE',  ( 0.000000000000000000, 0.000000000000000000, 1.000000000000000000 ) ) ;
#291 = APPLICATION_CONTEXT ( 'configuration controlled 3d designs of mechanical parts and assemblies' ) ;
#292 = PLANE ( 'NONE',  #99 ) ;
#293 = ADVANCED_FACE ( 'NONE', ( #110 ), #78, .F. ) ;
#294 = LOCAL_TIME ( 22, 51, 14.00000000000000000, #244 ) ;
#295 = EDGE_LOOP ( 'NONE', ( #131, #232, #23, #134 ) ) ;
#296 = CARTESIAN_POINT ( 'NONE',  ( 0.0005542842566305622269, 0.1457500000000000462, 13.27933178805814052 ) ) ;
#297 = VERTEX_POINT ( 'NONE', #42 ) ;
#298 = VERTEX_POINT ( 'NONE', #205 ) ;
#299 = DIRECTION ( 'NONE',  ( -1.000000000000000000, 0.000000000000000000, 6.307296955069019524E-16 ) ) ;
#300 = ORIENTED_EDGE ( 'NONE', *, *, #268, .T. ) ;
#301 = ADVANCED_FACE ( 'NONE', ( #286 ), #166, .F. ) ;
#302 = DIRECTION ( 'NONE',  ( -0.8660254037844388186, 0.000000000000000000, -0.4999999999999997224 ) ) ;
#303 = ORIENTED_EDGE ( 'NONE', *, *, #195, .F. ) ;
#304 = LINE ( 'NONE', #235, #12 ) ;
#305 = APPROVAL_PERSON_ORGANIZATION ( #118, #280, #241 ) ;
#306 = DIRECTION ( 'NONE',  ( 0.8660254037844382635, 0.000000000000000000, -0.5000000000000005551 ) ) ;
ENDSEC;
END-ISO-10303-21;
