ISO-10303-21;
HEADER;
FILE_DESCRIPTION (( 'STEP AP203' ),
    '1' );
FILE_NAME ('Top brace s_Default_sldprt.STEP',
    '2025-03-08T04:51:06',
    ( '' ),
    ( '' ),
    'SwSTEP 2.0',
    'SolidWorks 2024',
    '' );
FILE_SCHEMA (( 'CONFIG_CONTROL_DESIGN' ));
ENDSEC;

DATA;
#1 = CARTESIAN_POINT ( 'NONE',  ( -0.5547531019448790346, 0.4157221745136795987, -1.471273908924602081 ) ) ;
#2 = ORIENTED_EDGE ( 'NONE', *, *, #293, .F. ) ;
#3 = APPROVAL_DATE_TIME ( #496, #184 ) ;
#4 = PRODUCT_DEFINITION_SHAPE ( 'NONE', 'NONE',  #595 ) ;
#5 = FACE_OUTER_BOUND ( 'NONE', #127, .T. ) ;
#6 = LINE ( 'NONE', #193, #299 ) ;
#7 = ORIENTED_EDGE ( 'NONE', *, *, #289, .F. ) ;
#8 = AXIS2_PLACEMENT_3D ( 'NONE', #385, #480, #490 ) ;
#9 = AXIS2_PLACEMENT_3D ( 'NONE', #386, #105, #738 ) ;
#10 = CARTESIAN_POINT ( 'NONE',  ( -1.558380593041562401, 0.4157221745136795987, -0.8892054716666870640 ) ) ;
#11 = AXIS2_PLACEMENT_3D ( 'NONE', #442, #226, #349 ) ;
#12 = LINE ( 'NONE', #244, #381 ) ;
#13 = AXIS2_PLACEMENT_3D ( 'NONE', #371, #189, #87 ) ;
#14 = EDGE_LOOP ( 'NONE', ( #402, #531 ) ) ;
#15 = CC_DESIGN_PERSON_AND_ORGANIZATION_ASSIGNMENT ( #441, #165, ( #366 ) ) ;
#16 = DIRECTION ( 'NONE',  ( -0.000000000000000000, -1.000000000000000000, -0.000000000000000000 ) ) ;
#17 = CARTESIAN_POINT ( 'NONE',  ( 0.5659433850676461875, 0.4157221745136795987, -1.398273908924602127 ) ) ;
#18 = ORIENTED_EDGE ( 'NONE', *, *, #710, .T. ) ;
#19 = EDGE_CURVE ( 'NONE', #51, #255, #665, .T. ) ;
#20 = AXIS2_PLACEMENT_3D ( 'NONE', #60, #280, #398 ) ;
#21 = CARTESIAN_POINT ( 'NONE',  ( -1.558380593041562401, 0.4157221745136795987, -0.8162054716666869991 ) ) ;
#22 = CARTESIAN_POINT ( 'NONE',  ( -0.5547531019448790346, 0.2757221745136795854, -1.471273908924602081 ) ) ;
#23 = AXIS2_PLACEMENT_3D ( 'NONE', #382, #568, #634 ) ;
#24 = ORIENTED_EDGE ( 'NONE', *, *, #19, .T. ) ;
#25 = CARTESIAN_POINT ( 'NONE',  ( -1.558380593041562401, 0.2757221745136795854, -0.8892054716666870640 ) ) ;
#26 = CIRCLE ( 'NONE', #615, 0.07300000000000000933 ) ;
#27 = EDGE_CURVE ( 'NONE', #555, #232, #112, .T. ) ;
#28 = EDGE_LOOP ( 'NONE', ( #589, #420, #160, #110 ) ) ;
#29 = FACE_OUTER_BOUND ( 'NONE', #638, .T. ) ;
#30 = EDGE_CURVE ( 'NONE', #114, #98, #440, .T. ) ;
#31 = ORIENTED_EDGE ( 'NONE', *, *, #113, .T. ) ;
#32 = DIRECTION ( 'NONE',  ( 0.000000000000000000, 0.000000000000000000, -1.000000000000000000 ) ) ;
#33 = EDGE_CURVE ( 'NONE', #699, #717, #50, .T. ) ;
#34 = ORIENTED_EDGE ( 'NONE', *, *, #108, .F. ) ;
#35 = AXIS2_PLACEMENT_3D ( 'NONE', #401, #118, #676 ) ;
#36 = CARTESIAN_POINT ( 'NONE',  ( 1.569570876164329887, 0.4157221745136795987, -0.7432054716666869343 ) ) ;
#37 = ORIENTED_EDGE ( 'NONE', *, *, #99, .T. ) ;
#38 = AXIS2_PLACEMENT_3D ( 'NONE', #390, #513, #632 ) ;
#39 = CARTESIAN_POINT ( 'NONE',  ( -1.244959387933350925, 0.2877221745136795961, -1.108871837572268371 ) ) ;
#40 = ORIENTED_EDGE ( 'NONE', *, *, #27, .T. ) ;
#41 = CARTESIAN_POINT ( 'NONE',  ( 1.894219143257591220, 0.4157221745136795987, -0.7404861423684134802 ) ) ;
#42 = EDGE_CURVE ( 'NONE', #464, #225, #276, .T. ) ;
#43 = ORIENTED_EDGE ( 'NONE', *, *, #30, .T. ) ;
#44 = DIRECTION ( 'NONE',  ( 0.000000000000000000, 1.000000000000000000, -0.000000000000000000 ) ) ;
#45 = AXIS2_PLACEMENT_3D ( 'NONE', #39, #545, #213 ) ;
#46 = VERTEX_POINT ( 'NONE', #735 ) ;
#47 = AXIS2_PLACEMENT_3D ( 'NONE', #721, #207, #91 ) ;
#48 = VECTOR ( 'NONE', #528, 39.37007874015748143 ) ;
#49 = AXIS2_PLACEMENT_3D ( 'NONE', #462, #639, #89 ) ;
#50 = LINE ( 'NONE', #231, #728 ) ;
#51 = VERTEX_POINT ( 'NONE', #628 ) ;
#52 = COORDINATED_UNIVERSAL_TIME_OFFSET ( 6, 0, .BEHIND. ) ;
#53 = DIRECTION ( 'NONE',  ( 0.000000000000000000, 1.000000000000000000, 0.000000000000000000 ) ) ;
#54 = DIRECTION ( 'NONE',  ( 0.000000000000000000, 0.000000000000000000, 1.000000000000000000 ) ) ;
#55 = ADVANCED_FACE ( 'NONE', ( #334 ), #283, .F. ) ;
#56 = DATE_TIME_ROLE ( 'classification_date' ) ;
#57 = ORGANIZATION ( 'UNSPECIFIED', 'UNSPECIFIED', '' ) ;
#58 = EDGE_CURVE ( 'NONE', #431, #373, #264, .T. ) ;
#59 = CARTESIAN_POINT ( 'NONE',  ( 0.04161910223600707309, 0.4157221745136795987, -1.810099390231657557 ) ) ;
#60 = CARTESIAN_POINT ( 'NONE',  ( 1.569570876164329887, 0.4157221745136795987, -0.8162054716666869991 ) ) ;
#61 = ORIENTED_EDGE ( 'NONE', *, *, #333, .T. ) ;
#62 = PERSON_AND_ORGANIZATION ( #119, #57 ) ;
#63 = CARTESIAN_POINT ( 'NONE',  ( -1.558380593041562401, 0.2757221745136795854, -0.8162054716666869991 ) ) ;
#64 = CARTESIAN_POINT ( 'NONE',  ( 1.569570876164329887, 0.2757221745136795854, -0.8162054716666869991 ) ) ;
#65 = ORIENTED_EDGE ( 'NONE', *, *, #688, .T. ) ;
#66 = CARTESIAN_POINT ( 'NONE',  ( 1.569570876164329887, 0.4157221745136795987, -0.8892054716666870640 ) ) ;
#67 = DIRECTION ( 'NONE',  ( 0.000000000000000000, 0.000000000000000000, 1.000000000000000000 ) ) ;
#68 = ORIENTED_EDGE ( 'NONE', *, *, #614, .F. ) ;
#69 = SHAPE_DEFINITION_REPRESENTATION ( #4, #421 ) ;
#70 = CARTESIAN_POINT ( 'NONE',  ( 0.005618745919300675157, 0.4157221745136795987, -1.947745766880081053 ) ) ;
#71 = LINE ( 'NONE', #409, #48 ) ;
#72 = MANIFOLD_SOLID_BREP ( 'Scale1', #252 ) ;
#73 = ORIENTED_EDGE ( 'NONE', *, *, #230, .T. ) ;
#74 = AXIS2_PLACEMENT_3D ( 'NONE', #306, #240, #649 ) ;
#75 = DIRECTION ( 'NONE',  ( -0.000000000000000000, 1.000000000000000000, -0.000000000000000000 ) ) ;
#76 = AXIS2_PLACEMENT_3D ( 'NONE', #111, #337, #561 ) ;
#77 = DIRECTION ( 'NONE',  ( 0.000000000000000000, 1.000000000000000000, 0.000000000000000000 ) ) ;
#78 = ORIENTED_EDGE ( 'NONE', *, *, #688, .F. ) ;
#79 = CARTESIAN_POINT ( 'NONE',  ( -0.5547531019448790346, 0.4157221745136795987, -1.471273908924602081 ) ) ;
#80 = FACE_OUTER_BOUND ( 'NONE', #472, .T. ) ;
#81 = EDGE_LOOP ( 'NONE', ( #715, #325, #569, #364, #423 ) ) ;
#82 = ADVANCED_FACE ( 'NONE', ( #616 ), #353, .T. ) ;
#83 = CARTESIAN_POINT ( 'NONE',  ( 0.5659433850676461875, 0.2757221745136795854, -1.398273908924602127 ) ) ;
#84 = CYLINDRICAL_SURFACE ( 'NONE', #74, 0.2000000000000000389 ) ;
#85 = CC_DESIGN_SECURITY_CLASSIFICATION ( #730, ( #366 ) ) ;
#86 = ORIENTED_EDGE ( 'NONE', *, *, #33, .F. ) ;
#87 = DIRECTION ( 'NONE',  ( 0.4999950511405324982, 0.000000000000000000, 0.8660282609909312201 ) ) ;
#88 = ORIENTED_EDGE ( 'NONE', *, *, #747, .T. ) ;
#89 = DIRECTION ( 'NONE',  ( 0.000000000000000000, 0.000000000000000000, 1.000000000000000000 ) ) ;
#90 = ORIENTED_EDGE ( 'NONE', *, *, #533, .T. ) ;
#91 = DIRECTION ( 'NONE',  ( -2.662484665700131186E-15, 0.000000000000000000, 1.000000000000000000 ) ) ;
#92 =( GEOMETRIC_REPRESENTATION_CONTEXT ( 3 ) GLOBAL_UNCERTAINTY_ASSIGNED_CONTEXT ( ( #144 ) ) GLOBAL_UNIT_ASSIGNED_CONTEXT ( ( #407, #512, #565 ) ) REPRESENTATION_CONTEXT ( 'NONE', 'WORKASPACE' ) );
#93 = VERTEX_POINT ( 'NONE', #329 ) ;
#94 = APPROVAL ( #504, 'UNSPECIFIED' ) ;
#95 = CARTESIAN_POINT ( 'NONE',  ( -1.883028860134823956, 0.3627028385299235214, -0.8882882989172999899 ) ) ;
#96 = ORIENTED_EDGE ( 'NONE', *, *, #494, .F. ) ;
#97 = CARTESIAN_POINT ( 'NONE',  ( 1.894219143257590998, 0.3627028385299235214, -0.8882882989173012112 ) ) ;
#98 = VERTEX_POINT ( 'NONE', #163 ) ;
#99 = EDGE_CURVE ( 'NONE', #151, #444, #587, .T. ) ;
#100 = LINE ( 'NONE', #734, #460 ) ;
#101 = CIRCLE ( 'NONE', #20, 0.07300000000000000933 ) ;
#102 = ORIENTED_EDGE ( 'NONE', *, *, #198, .T. ) ;
#103 = VECTOR ( 'NONE', #75, 39.37007874015748143 ) ;
#104 = EDGE_CURVE ( 'NONE', #317, #394, #101, .T. ) ;
#105 = DIRECTION ( 'NONE',  ( 0.000000000000000000, 1.000000000000000000, 0.000000000000000000 ) ) ;
#106 = PERSON_AND_ORGANIZATION ( #119, #57 ) ;
#107 = DIRECTION ( 'NONE',  ( 0.000000000000000000, 0.000000000000000000, 1.000000000000000000 ) ) ;
#108 = EDGE_CURVE ( 'NONE', #151, #215, #295, .T. ) ;
#109 = CARTESIAN_POINT ( 'NONE',  ( 0.005618745919300675157, 0.2877221745136795961, -1.947745766880081053 ) ) ;
#110 = ORIENTED_EDGE ( 'NONE', *, *, #668, .F. ) ;
#111 = CARTESIAN_POINT ( 'NONE',  ( 0.005618745919300675157, 0.4157221745136795987, -1.747745766880081097 ) ) ;
#112 = LINE ( 'NONE', #1, #654 ) ;
#113 = EDGE_CURVE ( 'NONE', #307, #555, #157, .T. ) ;
#114 = VERTEX_POINT ( 'NONE', #619 ) ;
#115 = PRODUCT ( 'Top brace s_Default_sldprt', 'Top brace s_Default_sldprt', '', ( #549 ) ) ;
#116 = COORDINATED_UNIVERSAL_TIME_OFFSET ( 6, 0, .BEHIND. ) ;
#117 = DIRECTION ( 'NONE',  ( -0.000000000000000000, -1.000000000000000000, -0.000000000000000000 ) ) ;
#118 = DIRECTION ( 'NONE',  ( 0.000000000000000000, 1.000000000000000000, -0.000000000000000000 ) ) ;
#119 = PERSON ( 'UNSPECIFIED', 'UNSPECIFIED', 'UNSPECIFIED', ('UNSPECIFIED'), ('UNSPECIFIED'), ('UNSPECIFIED') ) ;
#120 = AXIS2_PLACEMENT_3D ( 'NONE', #270, #44, #729 ) ;
#121 = VERTEX_POINT ( 'NONE', #224 ) ;
#122 = EDGE_CURVE ( 'NONE', #134, #98, #711, .T. ) ;
#123 = DATE_AND_TIME ( #630, #691 ) ;
#124 = VECTOR ( 'NONE', #223, 39.37007874015748854 ) ;
#125 = DIRECTION ( 'NONE',  ( 0.8660225465496687036, 0.000000000000000000, 0.5000049488431359546 ) ) ;
#126 = CARTESIAN_POINT ( 'NONE',  ( 0.005618745919300683830, 0.2877221745136795961, -1.819745766880080939 ) ) ;
#127 = EDGE_LOOP ( 'NONE', ( #174, #498, #693, #544 ) ) ;
#128 = CARTESIAN_POINT ( 'NONE',  ( -0.005597339661970296941, 0.2757221745136795854, 1.037794528333313204 ) ) ;
#129 = CARTESIAN_POINT ( 'NONE',  ( -0.5547531019448790346, 0.2757221745136795854, -1.325273908924601951 ) ) ;
#130 = ORIENTED_EDGE ( 'NONE', *, *, #663, .F. ) ;
#131 = APPLICATION_CONTEXT ( 'configuration controlled 3d designs of mechanical parts and assemblies' ) ;
#132 = CARTESIAN_POINT ( 'NONE',  ( 0.5659433850676461875, 0.4157221745136795987, -1.471273908924602081 ) ) ;
#133 = CYLINDRICAL_SURFACE ( 'NONE', #437, 0.1280000000000000027 ) ;
#134 = VERTEX_POINT ( 'NONE', #227 ) ;
#135 = CARTESIAN_POINT ( 'NONE',  ( 1.894219143257590776, 0.2877221745136795961, -0.8882882989173001009 ) ) ;
#136 = AXIS2_PLACEMENT_3D ( 'NONE', #63, #53, #396 ) ;
#137 = EDGE_CURVE ( 'NONE', #717, #320, #685, .T. ) ;
#138 = CARTESIAN_POINT ( 'NONE',  ( 1.894219143257590776, 0.2757221745136795854, -0.8882882989173001009 ) ) ;
#139 = ORIENTED_EDGE ( 'NONE', *, *, #631, .T. ) ;
#140 = ADVANCED_FACE ( 'NONE', ( #449 ), #680, .F. ) ;
#141 = CARTESIAN_POINT ( 'NONE',  ( -0.05838056783894026575, 0.4157221745136795987, -1.867834988593803702 ) ) ;
#142 = CARTESIAN_POINT ( 'NONE',  ( -1.558380593041562401, 0.2757221745136795854, -0.8162054716666869991 ) ) ;
#143 = ORIENTED_EDGE ( 'NONE', *, *, #663, .T. ) ;
#144 = UNCERTAINTY_MEASURE_WITH_UNIT (LENGTH_MEASURE( 1.000000000000000082E-05 ), #407, 'distance_accuracy_value', 'NONE');
#145 = CARTESIAN_POINT ( 'NONE',  ( 0.1056197356879281235, 0.2757221745136795854, -1.920950276190014572 ) ) ;
#146 = ORIENTED_EDGE ( 'NONE', *, *, #137, .F. ) ;
#147 = APPLICATION_CONTEXT ( 'configuration controlled 3d designs of mechanical parts and assemblies' ) ;
#148 = DIRECTION ( 'NONE',  ( 0.000000000000000000, 0.000000000000000000, 1.000000000000000000 ) ) ;
#149 = EDGE_LOOP ( 'NONE', ( #130, #88, #635, #78 ) ) ;
#150 = CARTESIAN_POINT ( 'NONE',  ( 1.894219143257591220, 0.4157221745136795987, -0.7404861423684134802 ) ) ;
#151 = VERTEX_POINT ( 'NONE', #109 ) ;
#152 = CARTESIAN_POINT ( 'NONE',  ( -1.883028860134823956, 0.2757221745136795854, -0.5568054716666870352 ) ) ;
#153 = EDGE_CURVE ( 'NONE', #46, #444, #671, .T. ) ;
#154 = ORIENTED_EDGE ( 'NONE', *, *, #719, .F. ) ;
#155 = CARTESIAN_POINT ( 'NONE',  ( -1.883028860134823956, 0.2877221745136795961, -0.8882882989173001009 ) ) ;
#156 = TOROIDAL_SURFACE ( 'NONE', #120, 0.07200000000000000844, 0.1280000000000000027 ) ;
#157 = CIRCLE ( 'NONE', #9, 0.07300000000000000933 ) ;
#158 = EDGE_LOOP ( 'NONE', ( #34, #429, #650, #352 ) ) ;
#159 = LINE ( 'NONE', #601, #342 ) ;
#160 = ORIENTED_EDGE ( 'NONE', *, *, #533, .F. ) ;
#161 = EDGE_CURVE ( 'NONE', #606, #464, #338, .T. ) ;
#162 = CARTESIAN_POINT ( 'NONE',  ( 0.005620065612980910431, 0.2877221745136795961, -1.978685874552160717 ) ) ;
#163 = CARTESIAN_POINT ( 'NONE',  ( 0.5659433850676461875, 0.2757221745136795854, -1.325273908924601951 ) ) ;
#164 = VECTOR ( 'NONE', #495, 39.37007874015748143 ) ;
#165 = PERSON_AND_ORGANIZATION_ROLE ( 'creator' ) ;
#166 = EDGE_CURVE ( 'NONE', #225, #468, #578, .T. ) ;
#167 = AXIS2_PLACEMENT_3D ( 'NONE', #583, #309, #530 ) ;
#168 = FACE_BOUND ( 'NONE', #585, .T. ) ;
#169 = CARTESIAN_POINT ( 'NONE',  ( 0.005620065612980815022, 0.4157221745136795987, -1.978685874552160717 ) ) ;
#170 = CALENDAR_DATE ( 2025, 7, 3 ) ;
#171 = CIRCLE ( 'NONE', #49, 0.07300000000000000933 ) ;
#172 = FACE_BOUND ( 'NONE', #328, .T. ) ;
#173 = DIRECTION ( 'NONE',  ( -0.5000049488431360656, 0.000000000000000000, 0.8660225465496685926 ) ) ;
#174 = ORIENTED_EDGE ( 'NONE', *, *, #614, .T. ) ;
#175 = APPLICATION_PROTOCOL_DEFINITION ( 'international standard', 'config_control_design', 1994, #131 ) ;
#176 = FACE_BOUND ( 'NONE', #603, .T. ) ;
#177 = ADVANCED_FACE ( 'NONE', ( #358 ), #467, .F. ) ;
#178 = DIRECTION ( 'NONE',  ( 0.8660225465496684816, -0.000000000000000000, 0.5000049488431359546 ) ) ;
#179 = ORIENTED_EDGE ( 'NONE', *, *, #641, .F. ) ;
#180 = DIRECTION ( 'NONE',  ( 0.000000000000000000, 1.000000000000000000, -0.000000000000000000 ) ) ;
#181 = DIRECTION ( 'NONE',  ( 1.000000000000000000, 0.000000000000000000, 1.224646799147353207E-16 ) ) ;
#182 = AXIS2_PLACEMENT_3D ( 'NONE', #497, #748, #54 ) ;
#183 = LENGTH_MEASURE_WITH_UNIT ( LENGTH_MEASURE( 0.02539999999999999897 ), #457 );
#184 = APPROVAL ( #286, 'UNSPECIFIED' ) ;
#185 = DIRECTION ( 'NONE',  ( 0.000000000000000000, 0.000000000000000000, -1.000000000000000000 ) ) ;
#186 = CIRCLE ( 'NONE', #76, 0.07199999999999993905 ) ;
#187 = DIRECTION ( 'NONE',  ( 0.000000000000000000, 0.000000000000000000, -1.000000000000000000 ) ) ;
#188 = EDGE_LOOP ( 'NONE', ( #629, #31, #40, #7 ) ) ;
#189 = DIRECTION ( 'NONE',  ( -0.8660282609909312201, 0.000000000000000000, 0.4999950511405324427 ) ) ;
#190 = CARTESIAN_POINT ( 'NONE',  ( -0.5547531019448790346, 0.4157221745136795987, -1.398273908924602127 ) ) ;
#191 = ORIENTED_EDGE ( 'NONE', *, *, #113, .F. ) ;
#192 = CARTESIAN_POINT ( 'NONE',  ( 0.5659433850676461875, 0.4157221745136795987, -1.398273908924602127 ) ) ;
#193 = CARTESIAN_POINT ( 'NONE',  ( -0.09438026430880608331, 0.4157221745136795987, -1.920951419078267497 ) ) ;
#194 = VERTEX_POINT ( 'NONE', #588 ) ;
#195 = VECTOR ( 'NONE', #432, 39.37007874015748143 ) ;
#196 = DIRECTION ( 'NONE',  ( 0.000000000000000000, 1.000000000000000000, 0.000000000000000000 ) ) ;
#197 = FACE_BOUND ( 'NONE', #739, .T. ) ;
#198 = EDGE_CURVE ( 'NONE', #215, #51, #6, .T. ) ;
#199 = ORIENTED_EDGE ( 'NONE', *, *, #287, .T. ) ;
#200 = PRODUCT_RELATED_PRODUCT_CATEGORY ( 'detail', '', ( #115 ) ) ;
#201 = DIRECTION ( 'NONE',  ( 0.000000000000000000, 0.000000000000000000, -1.000000000000000000 ) ) ;
#202 = ADVANCED_FACE ( 'NONE', ( #80 ), #84, .T. ) ;
#203 = ORIENTED_EDGE ( 'NONE', *, *, #494, .T. ) ;
#204 = LINE ( 'NONE', #655, #103 ) ;
#205 = EDGE_LOOP ( 'NONE', ( #322, #199, #203, #521 ) ) ;
#206 = AXIS2_PLACEMENT_3D ( 'NONE', #532, #599, #577 ) ;
#207 = DIRECTION ( 'NONE',  ( -0.000000000000000000, -1.000000000000000000, 0.000000000000000000 ) ) ;
#208 = AXIS2_PLACEMENT_3D ( 'NONE', #17, #294, #187 ) ;
#209 = ORIENTED_EDGE ( 'NONE', *, *, #541, .F. ) ;
#210 = AXIS2_PLACEMENT_3D ( 'NONE', #716, #651, #422 ) ;
#211 = LINE ( 'NONE', #483, #670 ) ;
#212 = ORIENTED_EDGE ( 'NONE', *, *, #525, .T. ) ;
#213 = DIRECTION ( 'NONE',  ( -0.4999950511405318321, 0.000000000000000000, -0.8660282609909314422 ) ) ;
#214 = EDGE_CURVE ( 'NONE', #606, #151, #391, .T. ) ;
#215 = VERTEX_POINT ( 'NONE', #698 ) ;
#216 = EDGE_CURVE ( 'NONE', #653, #580, #284, .T. ) ;
#217 = CYLINDRICAL_SURFACE ( 'NONE', #45, 0.1279999999999999749 ) ;
#218 = ADVANCED_FACE ( 'NONE', ( #254 ), #644, .F. ) ;
#219 = EDGE_LOOP ( 'NONE', ( #356, #410 ) ) ;
#220 = DIRECTION ( 'NONE',  ( 0.000000000000000000, 0.000000000000000000, 1.000000000000000000 ) ) ;
#221 =( BOUNDED_CURVE ( )  B_SPLINE_CURVE ( 3, ( #539, #97, #542, #41 ),
 .UNSPECIFIED., .F., .T. ) 
 B_SPLINE_CURVE_WITH_KNOTS ( ( 4, 4 ),
 ( 3.141592653589793116, 4.712388980384691450 ),
 .UNSPECIFIED. ) 
 CURVE ( )  GEOMETRIC_REPRESENTATION_ITEM ( )  RATIONAL_B_SPLINE_CURVE ( ( 1.000000000000000000, 0.8047378541243646044, 0.8047378541243646044, 1.000000000000000000 ) ) 
 REPRESENTATION_ITEM ( '' )  );
#222 = APPROVAL_DATE_TIME ( #570, #94 ) ;
#223 = DIRECTION ( 'NONE',  ( -0.8660282609909311091, 0.000000000000000000, 0.4999950511405324982 ) ) ;
#224 = CARTESIAN_POINT ( 'NONE',  ( 0.5659433850676461875, 0.4157221745136795987, -1.471273908924602081 ) ) ;
#225 = VERTEX_POINT ( 'NONE', #138 ) ;
#226 = DIRECTION ( 'NONE',  ( -0.000000000000000000, -1.000000000000000000, -0.000000000000000000 ) ) ;
#227 = CARTESIAN_POINT ( 'NONE',  ( 0.5659433850676461875, 0.2757221745136795854, -1.471273908924602081 ) ) ;
#228 = VECTOR ( 'NONE', #117, 39.37007874015748143 ) ;
#229 = CARTESIAN_POINT ( 'NONE',  ( 0.5659433850676461875, 0.4157221745136795987, -1.398273908924602127 ) ) ;
#230 = EDGE_CURVE ( 'NONE', #46, #93, #71, .T. ) ;
#231 = CARTESIAN_POINT ( 'NONE',  ( -1.883028860134823956, 0.4157221745136795987, -0.5568054716666870352 ) ) ;
#232 = VERTEX_POINT ( 'NONE', #22 ) ;
#233 = DIRECTION ( 'NONE',  ( 0.000000000000000000, 0.000000000000000000, -1.000000000000000000 ) ) ;
#234 = ADVANCED_FACE ( 'NONE', ( #703, #514, #197, #419, #520 ), #363, .T. ) ;
#235 = DIRECTION ( 'NONE',  ( 0.000000000000000000, 0.000000000000000000, -1.000000000000000000 ) ) ;
#236 = VERTEX_POINT ( 'NONE', #129 ) ;
#237 = ADVANCED_FACE ( 'NONE', ( #351 ), #574, .F. ) ;
#238 = DIRECTION ( 'NONE',  ( 0.000000000000000000, 1.000000000000000000, -0.000000000000000000 ) ) ;
#239 = CARTESIAN_POINT ( 'NONE',  ( 1.569570876164329887, 0.2757221745136795854, -0.7432054716666869343 ) ) ;
#240 = DIRECTION ( 'NONE',  ( 0.000000000000000000, -1.000000000000000000, 0.000000000000000000 ) ) ;
#241 = EDGE_CURVE ( 'NONE', #93, #699, #12, .T. ) ;
#242 = ORIENTED_EDGE ( 'NONE', *, *, #590, .F. ) ;
#243 = DIRECTION ( 'NONE',  ( 0.000000000000000000, 1.000000000000000000, 0.000000000000000000 ) ) ;
#244 = CARTESIAN_POINT ( 'NONE',  ( -1.883028860134823956, 0.4157221745136795987, -0.8882882989173001009 ) ) ;
#245 = ORIENTED_EDGE ( 'NONE', *, *, #58, .T. ) ;
#246 = ADVANCED_FACE ( 'NONE', ( #640 ), #133, .T. ) ;
#247 = APPROVAL_DATE_TIME ( #701, #516 ) ;
#248 = DIRECTION ( 'NONE',  ( 0.8660225465496683706, 1.704437141505381949E-16, 0.5000049488431363987 ) ) ;
#249 = CARTESIAN_POINT ( 'NONE',  ( 0.005620065612980815022, 0.2757221745136795854, -1.978685874552160717 ) ) ;
#250 = EDGE_LOOP ( 'NONE', ( #265, #37, #384, #479 ) ) ;
#251 = CARTESIAN_POINT ( 'NONE',  ( -1.883028860134823956, 0.4157221745136795987, -0.8882882989173001009 ) ) ;
#252 = CLOSED_SHELL ( 'NONE', ( #684, #527, #602, #350, #327, #346, #234, #377, #140, #359, #177, #700, #55, #543, #478, #237, #218, #610, #246, #202, #82 ) ) ;
#253 = CC_DESIGN_PERSON_AND_ORGANIZATION_ASSIGNMENT ( #106, #556, ( #730 ) ) ;
#254 = FACE_OUTER_BOUND ( 'NONE', #205, .T. ) ;
#255 = VERTEX_POINT ( 'NONE', #454 ) ;
#256 = DIRECTION ( 'NONE',  ( 0.5000049488431367317, 0.000000000000000000, -0.8660225465496682595 ) ) ;
#257 = AXIS2_PLACEMENT_3D ( 'NONE', #190, #463, #298 ) ;
#258 = EDGE_CURVE ( 'NONE', #121, #114, #579, .T. ) ;
#259 = AXIS2_PLACEMENT_3D ( 'NONE', #450, #567, #288 ) ;
#260 = ORIENTED_EDGE ( 'NONE', *, *, #104, .T. ) ;
#261 = CYLINDRICAL_SURFACE ( 'NONE', #167, 0.07300000000000000933 ) ;
#262 = ORIENTED_EDGE ( 'NONE', *, *, #645, .T. ) ;
#263 = CARTESIAN_POINT ( 'NONE',  ( -0.5547531019448790346, 0.4157221745136795987, -1.398273908924602127 ) ) ;
#264 = CIRCLE ( 'NONE', #678, 0.07300000000000000933 ) ;
#265 = ORIENTED_EDGE ( 'NONE', *, *, #214, .T. ) ;
#266 = CARTESIAN_POINT ( 'NONE',  ( 1.894219143257591886, 0.4157221745136795987, -0.5568054716666870352 ) ) ;
#267 = AXIS2_PLACEMENT_3D ( 'NONE', #21, #196, #522 ) ;
#268 = ORIENTED_EDGE ( 'NONE', *, *, #166, .T. ) ;
#269 = ORIENTED_EDGE ( 'NONE', *, *, #289, .T. ) ;
#270 = CARTESIAN_POINT ( 'NONE',  ( 0.005618745919300675157, 0.2877221745136795961, -1.747745766880081097 ) ) ;
#271 = EDGE_LOOP ( 'NONE', ( #620, #146, #86, #262 ) ) ;
#272 = CARTESIAN_POINT ( 'NONE',  ( -1.883028860134823956, 0.4157221745136795987, -0.5568054716666870352 ) ) ;
#273 = VECTOR ( 'NONE', #303, 39.37007874015748854 ) ;
#274 = CARTESIAN_POINT ( 'NONE',  ( 1.894219143257590776, 0.4157221745136795987, -0.8882882989173001009 ) ) ;
#275 = AXIS2_PLACEMENT_3D ( 'NONE', #475, #243, #148 ) ;
#276 = LINE ( 'NONE', #274, #164 ) ;
#277 = EDGE_LOOP ( 'NONE', ( #503, #43, #515, #96 ) ) ;
#278 = APPROVAL_ROLE ( '' ) ;
#279 = PLANE ( 'NONE',  #673 ) ;
#280 = DIRECTION ( 'NONE',  ( 0.000000000000000000, 1.000000000000000000, -0.000000000000000000 ) ) ;
#281 = EDGE_CURVE ( 'NONE', #151, #255, #687, .T. ) ;
#282 = CARTESIAN_POINT ( 'NONE',  ( -0.5547531019448790346, 0.2757221745136795854, -1.398273908924602127 ) ) ;
#283 = PLANE ( 'NONE',  #575 ) ;
#284 = CIRCLE ( 'NONE', #492, 0.07300000000000000933 ) ;
#285 = ORIENTED_EDGE ( 'NONE', *, *, #710, .F. ) ;
#286 = APPROVAL_STATUS ( 'not_yet_approved' ) ;
#287 = EDGE_CURVE ( 'NONE', #114, #121, #493, .T. ) ;
#288 = DIRECTION ( 'NONE',  ( 0.000000000000000000, 0.000000000000000000, -1.000000000000000000 ) ) ;
#289 = EDGE_CURVE ( 'NONE', #236, #232, #682, .T. ) ;
#290 = DIRECTION ( 'NONE',  ( 1.250540768584103649E-16, 0.000000000000000000, -1.000000000000000000 ) ) ;
#291 = APPROVAL_ROLE ( '' ) ;
#292 = CARTESIAN_POINT ( 'NONE',  ( -0.5547531019448790346, 0.4157221745136795987, -1.325273908924601951 ) ) ;
#293 = EDGE_CURVE ( 'NONE', #51, #339, #400, .T. ) ;
#294 = DIRECTION ( 'NONE',  ( -0.000000000000000000, -1.000000000000000000, -0.000000000000000000 ) ) ;
#295 = CIRCLE ( 'NONE', #182, 0.2000000000000000389 ) ;
#296 = APPROVAL_ROLE ( '' ) ;
#297 = CARTESIAN_POINT ( 'NONE',  ( -1.883028860134823956, 0.4157221745136795987, -0.8882882989173001009 ) ) ;
#298 = DIRECTION ( 'NONE',  ( 0.000000000000000000, 0.000000000000000000, -1.000000000000000000 ) ) ;
#299 = VECTOR ( 'NONE', #415, 39.37007874015748143 ) ;
#300 = ORIENTED_EDGE ( 'NONE', *, *, #564, .F. ) ;
#301 = AXIS2_PLACEMENT_3D ( 'NONE', #128, #737, #107 ) ;
#302 = LINE ( 'NONE', #10, #563 ) ;
#303 = DIRECTION ( 'NONE',  ( -0.8660225465496684816, -0.000000000000000000, -0.5000049488431359546 ) ) ;
#304 = ORIENTED_EDGE ( 'NONE', *, *, #166, .F. ) ;
#305 = FACE_OUTER_BOUND ( 'NONE', #277, .T. ) ;
#306 = CARTESIAN_POINT ( 'NONE',  ( 0.005618745919300675157, 0.4157221745136795987, -1.747745766880081097 ) ) ;
#307 = VERTEX_POINT ( 'NONE', #292 ) ;
#308 = PERSON_AND_ORGANIZATION ( #119, #57 ) ;
#309 = DIRECTION ( 'NONE',  ( -0.000000000000000000, -1.000000000000000000, -0.000000000000000000 ) ) ;
#310 = CC_DESIGN_APPROVAL ( #184, ( #595 ) ) ;
#311 = CARTESIAN_POINT ( 'NONE',  ( -0.005597339661970296941, 0.4157221745136795987, 1.037794528333313204 ) ) ;
#312 = VERTEX_POINT ( 'NONE', #59 ) ;
#313 = DIRECTION ( 'NONE',  ( -0.000000000000000000, -1.000000000000000000, -0.000000000000000000 ) ) ;
#314 = CIRCLE ( 'NONE', #136, 0.07300000000000000933 ) ;
#315 = CIRCLE ( 'NONE', #275, 0.07300000000000000933 ) ;
#316 = ORIENTED_EDGE ( 'NONE', *, *, #455, .F. ) ;
#317 = VERTEX_POINT ( 'NONE', #500 ) ;
#318 = CARTESIAN_POINT ( 'NONE',  ( -1.883028860134823956, 0.4157221745136795987, -0.7404871176330550808 ) ) ;
#319 = EDGE_CURVE ( 'NONE', #317, #431, #509, .T. ) ;
#320 = VERTEX_POINT ( 'NONE', #404 ) ;
#321 = CARTESIAN_POINT ( 'NONE',  ( -1.558380593041562401, 0.2757221745136795854, -0.7432054716666869343 ) ) ;
#322 = ORIENTED_EDGE ( 'NONE', *, *, #30, .F. ) ;
#323 = CARTESIAN_POINT ( 'NONE',  ( -1.883028860134823956, 0.4157221745136795987, -0.8270670450946009389 ) ) ;
#324 = CC_DESIGN_PERSON_AND_ORGANIZATION_ASSIGNMENT ( #681, #750, ( #595 ) ) ;
#325 = ORIENTED_EDGE ( 'NONE', *, *, #668, .T. ) ;
#326 = DIRECTION ( 'NONE',  ( -0.000000000000000000, -1.000000000000000000, -0.000000000000000000 ) ) ;
#327 = ADVANCED_FACE ( 'NONE', ( #341 ), #618, .F. ) ;
#328 = EDGE_LOOP ( 'NONE', ( #245, #65 ) ) ;
#329 = CARTESIAN_POINT ( 'NONE',  ( -1.883028860134823956, 0.4157221745136795987, -0.7404871176330550808 ) ) ;
#330 = CC_DESIGN_DATE_AND_TIME_ASSIGNMENT ( #395, #56, ( #730 ) ) ;
#331 = ORIENTED_EDGE ( 'NONE', *, *, #293, .T. ) ;
#332 = DIRECTION ( 'NONE',  ( 0.000000000000000000, 1.000000000000000000, 0.000000000000000000 ) ) ;
#333 = EDGE_CURVE ( 'NONE', #580, #653, #314, .T. ) ;
#334 = FACE_OUTER_BOUND ( 'NONE', #708, .T. ) ;
#335 = ORIENTED_EDGE ( 'NONE', *, *, #731, .T. ) ;
#336 = PERSON_AND_ORGANIZATION_ROLE ( 'design_owner' ) ;
#337 = DIRECTION ( 'NONE',  ( -0.000000000000000000, -1.000000000000000000, 0.000000000000000000 ) ) ;
#338 = LINE ( 'NONE', #562, #596 ) ;
#339 = VERTEX_POINT ( 'NONE', #626 ) ;
#340 = DIRECTION ( 'NONE',  ( 1.000000000000000000, 0.000000000000000000, 0.000000000000000000 ) ) ;
#341 = FACE_OUTER_BOUND ( 'NONE', #744, .T. ) ;
#342 = VECTOR ( 'NONE', #726, 39.37007874015748143 ) ;
#343 = DIRECTION ( 'NONE',  ( 1.000000000000000000, 0.000000000000000000, 0.000000000000000000 ) ) ;
#344 = AXIS2_PLACEMENT_3D ( 'NONE', #623, #558, #502 ) ;
#345 = PERSON_AND_ORGANIZATION ( #119, #57 ) ;
#346 = ADVANCED_FACE ( 'NONE', ( #741 ), #746, .F. ) ;
#347 = DIRECTION ( 'NONE',  ( 0.5000049488431356215, 0.000000000000000000, -0.8660225465496688146 ) ) ;
#348 = DIRECTION ( 'NONE',  ( -0.000000000000000000, -1.000000000000000000, -0.000000000000000000 ) ) ;
#349 = DIRECTION ( 'NONE',  ( 0.000000000000000000, 0.000000000000000000, -1.000000000000000000 ) ) ;
#350 = ADVANCED_FACE ( 'NONE', ( #5 ), #458, .F. ) ;
#351 = FACE_OUTER_BOUND ( 'NONE', #188, .T. ) ;
#352 = ORIENTED_EDGE ( 'NONE', *, *, #198, .F. ) ;
#353 = TOROIDAL_SURFACE ( 'NONE', #35, 0.07200000000000000844, 0.1280000000000000027 ) ;
#354 = FACE_OUTER_BOUND ( 'NONE', #158, .T. ) ;
#355 = DIRECTION ( 'NONE',  ( -1.000000000000000000, 0.000000000000000000, -0.000000000000000000 ) ) ;
#356 = ORIENTED_EDGE ( 'NONE', *, *, #104, .F. ) ;
#357 = CARTESIAN_POINT ( 'NONE',  ( -0.5547531019448790346, 0.4157221745136795987, -1.325273908924601951 ) ) ;
#358 = FACE_OUTER_BOUND ( 'NONE', #271, .T. ) ;
#359 = ADVANCED_FACE ( 'NONE', ( #696 ), #279, .F. ) ;
#360 = ORIENTED_EDGE ( 'NONE', *, *, #153, .F. ) ;
#361 = CALENDAR_DATE ( 2025, 7, 3 ) ;
#362 = CARTESIAN_POINT ( 'NONE',  ( 0.005618745919300691637, 0.4157221745136795987, -1.819745766880080939 ) ) ;
#363 = PLANE ( 'NONE',  #392 ) ;
#364 = ORIENTED_EDGE ( 'NONE', *, *, #137, .T. ) ;
#365 = CARTESIAN_POINT ( 'NONE',  ( 1.569570876164329887, 0.2757221745136795854, -0.8892054716666870640 ) ) ;
#366 = PRODUCT_DEFINITION_FORMATION_WITH_SPECIFIED_SOURCE ( 'ANY', '', #115, .NOT_KNOWN. ) ;
#367 = CIRCLE ( 'NONE', #548, 0.07300000000000000933 ) ;
#368 = ORIENTED_EDGE ( 'NONE', *, *, #122, .T. ) ;
#369 = CIRCLE ( 'NONE', #447, 0.07300000000000000933 ) ;
#370 = AXIS2_PLACEMENT_3D ( 'NONE', #535, #436, #537 ) ;
#371 = CARTESIAN_POINT ( 'NONE',  ( -0.03038089776281797938, 0.2877221745136795961, -1.810099801671428255 ) ) ;
#372 = AXIS2_PLACEMENT_3D ( 'NONE', #751, #690, #185 ) ;
#373 = VERTEX_POINT ( 'NONE', #239 ) ;
#374 = DIRECTION ( 'NONE',  ( -0.000000000000000000, -1.000000000000000000, -0.000000000000000000 ) ) ;
#375 = ORIENTED_EDGE ( 'NONE', *, *, #42, .T. ) ;
#376 = LINE ( 'NONE', #36, #471 ) ;
#377 = ADVANCED_FACE ( 'NONE', ( #408, #683, #172, #176, #168 ), #505, .F. ) ;
#378 = ORIENTED_EDGE ( 'NONE', *, *, #661, .F. ) ;
#379 = DIRECTION ( 'NONE',  ( -0.000000000000000000, -1.000000000000000000, -0.000000000000000000 ) ) ;
#380 = VECTOR ( 'NONE', #443, 39.37007874015748143 ) ;
#381 = VECTOR ( 'NONE', #412, 39.37007874015748143 ) ;
#382 = CARTESIAN_POINT ( 'NONE',  ( 0.005618745919300675157, 0.2757221745136795854, -1.747745766880081097 ) ) ;
#383 = FACE_OUTER_BOUND ( 'NONE', #250, .T. ) ;
#384 = ORIENTED_EDGE ( 'NONE', *, *, #397, .T. ) ;
#385 = CARTESIAN_POINT ( 'NONE',  ( 1.894219143257590776, 0.4157221745136795987, -0.8882882989173001009 ) ) ;
#386 = CARTESIAN_POINT ( 'NONE',  ( -0.5547531019448790346, 0.4157221745136795987, -1.398273908924602127 ) ) ;
#387 = ORIENTED_EDGE ( 'NONE', *, *, #230, .F. ) ;
#388 = PERSON_AND_ORGANIZATION ( #119, #57 ) ;
#389 = AXIS2_PLACEMENT_3D ( 'NONE', #586, #248, #256 ) ;
#390 = CARTESIAN_POINT ( 'NONE',  ( 1.569570876164329887, 0.4157221745136795987, -0.8162054716666869991 ) ) ;
#391 = CIRCLE ( 'NONE', #482, 0.2000000000000000389 ) ;
#392 = AXIS2_PLACEMENT_3D ( 'NONE', #311, #459, #637 ) ;
#393 = DIRECTION ( 'NONE',  ( 0.8660282609909311091, 0.000000000000000000, -0.4999950511405324982 ) ) ;
#394 = VERTEX_POINT ( 'NONE', #622 ) ;
#395 = DATE_AND_TIME ( #170, #605 ) ;
#396 = DIRECTION ( 'NONE',  ( 0.000000000000000000, 0.000000000000000000, 1.000000000000000000 ) ) ;
#397 = EDGE_CURVE ( 'NONE', #444, #312, #186, .T. ) ;
#398 = DIRECTION ( 'NONE',  ( 0.000000000000000000, 0.000000000000000000, -1.000000000000000000 ) ) ;
#399 = EDGE_LOOP ( 'NONE', ( #387, #732, #476, #524 ) ) ;
#400 = LINE ( 'NONE', #557, #124 ) ;
#401 = CARTESIAN_POINT ( 'NONE',  ( 0.005618745919300675157, 0.2877221745136795961, -1.747745766880081097 ) ) ;
#402 = ORIENTED_EDGE ( 'NONE', *, *, #258, .F. ) ;
#403 = CC_DESIGN_APPROVAL ( #516, ( #730 ) ) ;
#404 = CARTESIAN_POINT ( 'NONE',  ( 1.894219143257591886, 0.2757221745136795854, -0.5568054716666870352 ) ) ;
#405 = DIRECTION ( 'NONE',  ( -0.000000000000000000, -1.000000000000000000, -0.000000000000000000 ) ) ;
#406 = EDGE_LOOP ( 'NONE', ( #335, #102, #331, #209 ) ) ;
#407 =( CONVERSION_BASED_UNIT ( 'INCH', #183 ) LENGTH_UNIT ( ) NAMED_UNIT ( #552 ) );
#408 = FACE_OUTER_BOUND ( 'NONE', #452, .T. ) ;
#409 = CARTESIAN_POINT ( 'NONE',  ( -1.819029493588835811, 0.4157221745136795987, -0.7774366815104608586 ) ) ;
#410 = ORIENTED_EDGE ( 'NONE', *, *, #747, .F. ) ;
#411 = LINE ( 'NONE', #132, #445 ) ;
#412 = DIRECTION ( 'NONE',  ( 0.000000000000000000, 0.000000000000000000, 1.000000000000000000 ) ) ;
#413 = EDGE_LOOP ( 'NONE', ( #61, #659 ) ) ;
#414 = LINE ( 'NONE', #251, #566 ) ;
#415 = DIRECTION ( 'NONE',  ( 0.000000000000000000, -1.000000000000000000, 0.000000000000000000 ) ) ;
#416 = ORIENTED_EDGE ( 'NONE', *, *, #99, .F. ) ;
#417 = CARTESIAN_POINT ( 'NONE',  ( -1.558380593041562401, 0.4157221745136795987, -0.7432054716666869343 ) ) ;
#418 = EDGE_CURVE ( 'NONE', #232, #236, #315, .T. ) ;
#419 = FACE_BOUND ( 'NONE', #438, .T. ) ;
#420 = ORIENTED_EDGE ( 'NONE', *, *, #510, .T. ) ;
#421 = ADVANCED_BREP_SHAPE_REPRESENTATION ( 'Top brace s_Default_sldprt', ( #72, #501 ), #92 ) ;
#422 = DIRECTION ( 'NONE',  ( 0.000000000000000000, 0.000000000000000000, -1.000000000000000000 ) ) ;
#423 = ORIENTED_EDGE ( 'NONE', *, *, #641, .T. ) ;
#424 = EDGE_CURVE ( 'NONE', #194, #426, #171, .T. ) ;
#425 = DIRECTION ( 'NONE',  ( -0.8660225465496684816, 0.000000000000000000, -0.5000049488431359546 ) ) ;
#426 = VERTEX_POINT ( 'NONE', #643 ) ;
#427 = CARTESIAN_POINT ( 'NONE',  ( 0.1056197356879278459, 0.2877221745136795961, -1.920950276190015016 ) ) ;
#428 = VECTOR ( 'NONE', #16, 39.37007874015748143 ) ;
#429 = ORIENTED_EDGE ( 'NONE', *, *, #281, .T. ) ;
#430 = CARTESIAN_POINT ( 'NONE',  ( -1.883028860134823956, 0.4157221745136795987, -0.5568054716666870352 ) ) ;
#431 = VERTEX_POINT ( 'NONE', #365 ) ;
#432 = DIRECTION ( 'NONE',  ( -3.296518273749230354E-15, -0.000000000000000000, -1.000000000000000000 ) ) ;
#433 = LOCAL_TIME ( 22, 51, 6.000000000000000000, #473 ) ;
#434 = EDGE_CURVE ( 'NONE', #426, #194, #581, .T. ) ;
#435 = ORIENTED_EDGE ( 'NONE', *, *, #719, .T. ) ;
#436 = DIRECTION ( 'NONE',  ( 0.000000000000000000, 1.000000000000000000, -0.000000000000000000 ) ) ;
#437 = AXIS2_PLACEMENT_3D ( 'NONE', #636, #125, #347 ) ;
#438 = EDGE_LOOP ( 'NONE', ( #68, #191 ) ) ;
#439 = DIRECTION ( 'NONE',  ( -3.296518273749230354E-15, -0.000000000000000000, -1.000000000000000000 ) ) ;
#440 = LINE ( 'NONE', #572, #718 ) ;
#441 = PERSON_AND_ORGANIZATION ( #119, #57 ) ;
#442 = CARTESIAN_POINT ( 'NONE',  ( -0.5547531019448790346, 0.4157221745136795987, -1.398273908924602127 ) ) ;
#443 = DIRECTION ( 'NONE',  ( -0.000000000000000000, -1.000000000000000000, -0.000000000000000000 ) ) ;
#444 = VERTEX_POINT ( 'NONE', #362 ) ;
#445 = VECTOR ( 'NONE', #313, 39.37007874015748143 ) ;
#446 = DIRECTION ( 'NONE',  ( 0.000000000000000000, 0.000000000000000000, 1.000000000000000000 ) ) ;
#447 = AXIS2_PLACEMENT_3D ( 'NONE', #83, #466, #201 ) ;
#448 = DIRECTION ( 'NONE',  ( 1.000000000000000000, 0.000000000000000000, 0.000000000000000000 ) ) ;
#449 = FACE_OUTER_BOUND ( 'NONE', #406, .T. ) ;
#450 = CARTESIAN_POINT ( 'NONE',  ( -1.558380593041562401, 0.4157221745136795987, -0.8162054716666869991 ) ) ;
#451 = CARTESIAN_POINT ( 'NONE',  ( 0.005620065612980815022, 0.4157221745136795987, -1.978685874552160717 ) ) ;
#452 = EDGE_LOOP ( 'NONE', ( #2, #24, #18, #304, #179, #378, #154 ) ) ;
#453 = COORDINATED_UNIVERSAL_TIME_OFFSET ( 6, 0, .BEHIND. ) ;
#454 = CARTESIAN_POINT ( 'NONE',  ( 0.005618745919300675157, 0.2757221745136795854, -1.947745766880081053 ) ) ;
#455 = EDGE_CURVE ( 'NONE', #426, #653, #702, .T. ) ;
#456 = CARTESIAN_POINT ( 'NONE',  ( 1.894219143257591886, 0.4157221745136795987, -0.5568054716666870352 ) ) ;
#457 =( LENGTH_UNIT ( ) NAMED_UNIT ( * ) SI_UNIT ( $, .METRE. ) );
#458 = CYLINDRICAL_SURFACE ( 'NONE', #11, 0.07300000000000000933 ) ;
#459 = DIRECTION ( 'NONE',  ( 0.000000000000000000, 1.000000000000000000, -0.000000000000000000 ) ) ;
#460 = VECTOR ( 'NONE', #220, 39.37007874015748143 ) ;
#461 = ORIENTED_EDGE ( 'NONE', *, *, #33, .T. ) ;
#462 = CARTESIAN_POINT ( 'NONE',  ( -1.558380593041562401, 0.4157221745136795987, -0.8162054716666869991 ) ) ;
#463 = DIRECTION ( 'NONE',  ( -0.000000000000000000, -1.000000000000000000, -0.000000000000000000 ) ) ;
#464 = VERTEX_POINT ( 'NONE', #135 ) ;
#465 = EDGE_CURVE ( 'NONE', #307, #236, #518, .T. ) ;
#466 = DIRECTION ( 'NONE',  ( 0.000000000000000000, 1.000000000000000000, -0.000000000000000000 ) ) ;
#467 = PLANE ( 'NONE',  #519 ) ;
#468 = VERTEX_POINT ( 'NONE', #145 ) ;
#469 = CYLINDRICAL_SURFACE ( 'NONE', #592, 0.07300000000000000933 ) ;
#470 = CARTESIAN_POINT ( 'NONE',  ( 0.005618745919300675157, 0.2877221745136795961, -1.747745766880081097 ) ) ;
#471 = VECTOR ( 'NONE', #379, 39.37007874015748143 ) ;
#472 = EDGE_LOOP ( 'NONE', ( #727, #612, #300, #285 ) ) ;
#473 = COORDINATED_UNIVERSAL_TIME_OFFSET ( 6, 0, .BEHIND. ) ;
#474 = VECTOR ( 'NONE', #573, 39.37007874015748143 ) ;
#475 = CARTESIAN_POINT ( 'NONE',  ( -0.5547531019448790346, 0.2757221745136795854, -1.398273908924602127 ) ) ;
#476 = ORIENTED_EDGE ( 'NONE', *, *, #731, .F. ) ;
#477 = DIRECTION ( 'NONE',  ( -0.000000000000000000, -1.000000000000000000, -0.000000000000000000 ) ) ;
#478 = ADVANCED_FACE ( 'NONE', ( #593 ), #714, .F. ) ;
#479 = ORIENTED_EDGE ( 'NONE', *, *, #510, .F. ) ;
#480 = DIRECTION ( 'NONE',  ( -1.000000000000000000, 0.000000000000000000, 3.296518273749231143E-15 ) ) ;
#481 = ORIENTED_EDGE ( 'NONE', *, *, #455, .T. ) ;
#482 = AXIS2_PLACEMENT_3D ( 'NONE', #470, #584, #523 ) ;
#483 = CARTESIAN_POINT ( 'NONE',  ( 1.894219143257590776, 0.4157221745136795987, -0.8882882989173001009 ) ) ;
#484 = EDGE_LOOP ( 'NONE', ( #624, #139, #529, #435, #713 ) ) ;
#485 = FACE_OUTER_BOUND ( 'NONE', #399, .T. ) ;
#486 = EDGE_CURVE ( 'NONE', #46, #215, #553, .T. ) ;
#487 = ORIENTED_EDGE ( 'NONE', *, *, #434, .F. ) ;
#488 = LINE ( 'NONE', #660, #195 ) ;
#489 = ORIENTED_EDGE ( 'NONE', *, *, #564, .T. ) ;
#490 = DIRECTION ( 'NONE',  ( 3.296518273749231143E-15, 0.000000000000000000, 1.000000000000000000 ) ) ;
#491 = CIRCLE ( 'NONE', #47, 0.2000000000000000389 ) ;
#492 = AXIS2_PLACEMENT_3D ( 'NONE', #142, #77, #67 ) ;
#493 = CIRCLE ( 'NONE', #372, 0.07300000000000000933 ) ;
#494 = EDGE_CURVE ( 'NONE', #121, #134, #411, .T. ) ;
#495 = DIRECTION ( 'NONE',  ( -0.000000000000000000, -1.000000000000000000, -0.000000000000000000 ) ) ;
#496 = DATE_AND_TIME ( #508, #627 ) ;
#497 = CARTESIAN_POINT ( 'NONE',  ( 0.005618745919300675157, 0.2877221745136795961, -1.747745766880081097 ) ) ;
#498 = ORIENTED_EDGE ( 'NONE', *, *, #465, .T. ) ;
#499 = PERSON_AND_ORGANIZATION_ROLE ( 'design_supplier' ) ;
#500 = CARTESIAN_POINT ( 'NONE',  ( 1.569570876164329887, 0.4157221745136795987, -0.8892054716666870640 ) ) ;
#501 = AXIS2_PLACEMENT_3D ( 'NONE', #621, #446, #340 ) ;
#502 = DIRECTION ( 'NONE',  ( -3.557093741750345580E-15, 0.000000000000000000, 1.000000000000000000 ) ) ;
#503 = ORIENTED_EDGE ( 'NONE', *, *, #258, .T. ) ;
#504 = APPROVAL_STATUS ( 'not_yet_approved' ) ;
#505 = PLANE ( 'NONE',  #301 ) ;
#506 = DIRECTION ( 'NONE',  ( 0.000000000000000000, 1.000000000000000000, -0.000000000000000000 ) ) ;
#507 = ORIENTED_EDGE ( 'NONE', *, *, #424, .T. ) ;
#508 = CALENDAR_DATE ( 2025, 7, 3 ) ;
#509 = LINE ( 'NONE', #66, #228 ) ;
#510 = EDGE_CURVE ( 'NONE', #606, #312, #594, .T. ) ;
#511 = DIRECTION ( 'NONE',  ( 0.000000000000000000, 1.000000000000000000, -0.000000000000000000 ) ) ;
#512 =( NAMED_UNIT ( * ) PLANE_ANGLE_UNIT ( ) SI_UNIT ( $, .RADIAN. ) );
#513 = DIRECTION ( 'NONE',  ( -0.000000000000000000, -1.000000000000000000, -0.000000000000000000 ) ) ;
#514 = FACE_BOUND ( 'NONE', #219, .T. ) ;
#515 = ORIENTED_EDGE ( 'NONE', *, *, #122, .F. ) ;
#516 = APPROVAL ( #517, 'UNSPECIFIED' ) ;
#517 = APPROVAL_STATUS ( 'not_yet_approved' ) ;
#518 = LINE ( 'NONE', #357, #428 ) ;
#519 = AXIS2_PLACEMENT_3D ( 'NONE', #707, #712, #355 ) ;
#520 = FACE_OUTER_BOUND ( 'NONE', #538, .T. ) ;
#521 = ORIENTED_EDGE ( 'NONE', *, *, #525, .F. ) ;
#522 = DIRECTION ( 'NONE',  ( 0.000000000000000000, 0.000000000000000000, 1.000000000000000000 ) ) ;
#523 = DIRECTION ( 'NONE',  ( 0.000000000000000000, 0.000000000000000000, 1.000000000000000000 ) ) ;
#524 = ORIENTED_EDGE ( 'NONE', *, *, #631, .F. ) ;
#525 = EDGE_CURVE ( 'NONE', #98, #134, #369, .T. ) ;
#526 = LINE ( 'NONE', #141, #607 ) ;
#527 = ADVANCED_FACE ( 'NONE', ( #354 ), #648, .T. ) ;
#528 = DIRECTION ( 'NONE',  ( -0.8660282609909311091, 0.000000000000000000, 0.4999950511405324982 ) ) ;
#529 = ORIENTED_EDGE ( 'NONE', *, *, #541, .T. ) ;
#530 = DIRECTION ( 'NONE',  ( 0.000000000000000000, 0.000000000000000000, -1.000000000000000000 ) ) ;
#531 = ORIENTED_EDGE ( 'NONE', *, *, #287, .F. ) ;
#532 = CARTESIAN_POINT ( 'NONE',  ( 0.005618745919300675157, 0.4157221745136795987, -1.747745766880081097 ) ) ;
#533 = EDGE_CURVE ( 'NONE', #642, #312, #526, .T. ) ;
#534 = ORIENTED_EDGE ( 'NONE', *, *, #319, .F. ) ;
#535 = CARTESIAN_POINT ( 'NONE',  ( 1.569570876164329887, 0.2757221745136795854, -0.8162054716666869991 ) ) ;
#536 = ORIENTED_EDGE ( 'NONE', *, *, #241, .T. ) ;
#537 = DIRECTION ( 'NONE',  ( 0.000000000000000000, 0.000000000000000000, -1.000000000000000000 ) ) ;
#538 = EDGE_LOOP ( 'NONE', ( #360, #73, #536, #461, #598, #90, #609 ) ) ;
#539 = CARTESIAN_POINT ( 'NONE',  ( 1.894219143257590776, 0.2877221745136795961, -0.8882882989173001009 ) ) ;
#540 = ORIENTED_EDGE ( 'NONE', *, *, #161, .T. ) ;
#541 = EDGE_CURVE ( 'NONE', #646, #339, #414, .T. ) ;
#542 = CARTESIAN_POINT ( 'NONE',  ( 1.894219143257590998, 0.4157221745136798208, -0.8270666411267605378 ) ) ;
#543 = ADVANCED_FACE ( 'NONE', ( #29 ), #261, .F. ) ;
#544 = ORIENTED_EDGE ( 'NONE', *, *, #27, .F. ) ;
#545 = DIRECTION ( 'NONE',  ( 0.8660282609909311091, 0.000000000000000000, -0.4999950511405324982 ) ) ;
#546 = APPROVAL_PERSON_ORGANIZATION ( #345, #94, #278 ) ;
#547 = ORIENTED_EDGE ( 'NONE', *, *, #424, .F. ) ;
#548 = AXIS2_PLACEMENT_3D ( 'NONE', #263, #658, #613 ) ;
#549 = MECHANICAL_CONTEXT ( 'NONE', #131, 'mechanical' ) ;
#550 = VECTOR ( 'NONE', #724, 39.37007874015748143 ) ;
#551 = AXIS2_PLACEMENT_3D ( 'NONE', #282, #332, #679 ) ;
#552 = DIMENSIONAL_EXPONENTS ( 1.000000000000000000, 0.000000000000000000, 0.000000000000000000, 0.000000000000000000, 0.000000000000000000, 0.000000000000000000, 0.000000000000000000 ) ;
#553 = CIRCLE ( 'NONE', #13, 0.1280000000000000027 ) ;
#554 = CARTESIAN_POINT ( 'NONE',  ( 0.5659433850676461875, 0.2757221745136795854, -1.398273908924602127 ) ) ;
#555 = VERTEX_POINT ( 'NONE', #79 ) ;
#556 = PERSON_AND_ORGANIZATION_ROLE ( 'classification_officer' ) ;
#557 = CARTESIAN_POINT ( 'NONE',  ( 0.005620065612980815022, 0.2757221745136795854, -1.978685874552160717 ) ) ;
#558 = DIRECTION ( 'NONE',  ( -0.000000000000000000, -1.000000000000000000, 0.000000000000000000 ) ) ;
#559 = ORIENTED_EDGE ( 'NONE', *, *, #153, .T. ) ;
#560 = APPLICATION_PROTOCOL_DEFINITION ( 'international standard', 'config_control_design', 1994, #147 ) ;
#561 = DIRECTION ( 'NONE',  ( 5.335640612625518369E-15, 0.000000000000000000, 1.000000000000000000 ) ) ;
#562 = CARTESIAN_POINT ( 'NONE',  ( 1.894219143257590998, 0.2877221745136795961, -0.8882882989173001009 ) ) ;
#563 = VECTOR ( 'NONE', #706, 39.37007874015748143 ) ;
#564 = EDGE_CURVE ( 'NONE', #468, #606, #204, .T. ) ;
#565 =( NAMED_UNIT ( * ) SI_UNIT ( $, .STERADIAN. ) SOLID_ANGLE_UNIT ( ) );
#566 = VECTOR ( 'NONE', #709, 39.37007874015748143 ) ;
#567 = DIRECTION ( 'NONE',  ( -0.000000000000000000, -1.000000000000000000, -0.000000000000000000 ) ) ;
#568 = DIRECTION ( 'NONE',  ( -0.000000000000000000, -1.000000000000000000, 0.000000000000000000 ) ) ;
#569 = ORIENTED_EDGE ( 'NONE', *, *, #723, .F. ) ;
#570 = DATE_AND_TIME ( #736, #720 ) ;
#571 = DIRECTION ( 'NONE',  ( 0.000000000000000000, 0.000000000000000000, -1.000000000000000000 ) ) ;
#572 = CARTESIAN_POINT ( 'NONE',  ( 0.5659433850676461875, 0.4157221745136795987, -1.325273908924601951 ) ) ;
#573 = DIRECTION ( 'NONE',  ( 0.000000000000000000, -1.000000000000000000, 0.000000000000000000 ) ) ;
#574 = CYLINDRICAL_SURFACE ( 'NONE', #257, 0.07300000000000000933 ) ;
#575 = AXIS2_PLACEMENT_3D ( 'NONE', #451, #173, #743 ) ;
#576 = ORIENTED_EDGE ( 'NONE', *, *, #58, .F. ) ;
#577 = DIRECTION ( 'NONE',  ( 0.000000000000000000, 0.000000000000000000, -1.000000000000000000 ) ) ;
#578 = LINE ( 'NONE', #249, #273 ) ;
#579 = CIRCLE ( 'NONE', #697, 0.07300000000000000933 ) ;
#580 = VERTEX_POINT ( 'NONE', #25 ) ;
#581 = CIRCLE ( 'NONE', #267, 0.07300000000000000933 ) ;
#582 = VECTOR ( 'NONE', #477, 39.37007874015748143 ) ;
#583 = CARTESIAN_POINT ( 'NONE',  ( -1.558380593041562401, 0.4157221745136795987, -0.8162054716666869991 ) ) ;
#584 = DIRECTION ( 'NONE',  ( 0.000000000000000000, 1.000000000000000000, -0.000000000000000000 ) ) ;
#585 = EDGE_LOOP ( 'NONE', ( #368, #212 ) ) ;
#586 = CARTESIAN_POINT ( 'NONE',  ( 0.04161910223600669839, 0.2877221745136795961, -1.810099390231657113 ) ) ;
#587 = CIRCLE ( 'NONE', #652, 0.1280000000000001137 ) ;
#588 = CARTESIAN_POINT ( 'NONE',  ( -1.558380593041562401, 0.4157221745136795987, -0.8892054716666870640 ) ) ;
#589 = ORIENTED_EDGE ( 'NONE', *, *, #161, .F. ) ;
#590 = EDGE_CURVE ( 'NONE', #194, #580, #302, .T. ) ;
#591 = DESIGN_CONTEXT ( 'detailed design', #147, 'design' ) ;
#592 = AXIS2_PLACEMENT_3D ( 'NONE', #192, #326, #32 ) ;
#593 = FACE_OUTER_BOUND ( 'NONE', #149, .T. ) ;
#594 = CIRCLE ( 'NONE', #389, 0.1279999999999999194 ) ;
#595 = PRODUCT_DEFINITION ( 'UNKNOWN', '', #366, #591 ) ;
#596 = VECTOR ( 'NONE', #178, 39.37007874015748854 ) ;
#597 = AXIS2_PLACEMENT_3D ( 'NONE', #169, #692, #393 ) ;
#598 = ORIENTED_EDGE ( 'NONE', *, *, #723, .T. ) ;
#599 = DIRECTION ( 'NONE',  ( 0.000000000000000000, -1.000000000000000000, 0.000000000000000000 ) ) ;
#600 = EDGE_LOOP ( 'NONE', ( #507, #481, #722, #242 ) ) ;
#601 = CARTESIAN_POINT ( 'NONE',  ( -1.883028860134823956, 0.2757221745136795854, -0.5568054716666870352 ) ) ;
#602 = ADVANCED_FACE ( 'NONE', ( #305 ), #469, .F. ) ;
#603 = EDGE_LOOP ( 'NONE', ( #669, #269 ) ) ;
#604 = CARTESIAN_POINT ( 'NONE',  ( -1.883028860134823956, 0.2877221745136795961, -0.8882882989173001009 ) ) ;
#605 = LOCAL_TIME ( 22, 51, 6.000000000000000000, #52 ) ;
#606 = VERTEX_POINT ( 'NONE', #427 ) ;
#607 = VECTOR ( 'NONE', #425, 39.37007874015748854 ) ;
#608 = VECTOR ( 'NONE', #374, 39.37007874015748143 ) ;
#609 = ORIENTED_EDGE ( 'NONE', *, *, #397, .F. ) ;
#610 = ADVANCED_FACE ( 'NONE', ( #485 ), #217, .T. ) ;
#611 = PLANE ( 'NONE',  #8 ) ;
#612 = ORIENTED_EDGE ( 'NONE', *, *, #214, .F. ) ;
#613 = DIRECTION ( 'NONE',  ( 0.000000000000000000, 0.000000000000000000, 1.000000000000000000 ) ) ;
#614 = EDGE_CURVE ( 'NONE', #555, #307, #367, .T. ) ;
#615 = AXIS2_PLACEMENT_3D ( 'NONE', #745, #238, #694 ) ;
#616 = FACE_OUTER_BOUND ( 'NONE', #674, .T. ) ;
#617 = COORDINATED_UNIVERSAL_TIME_OFFSET ( 6, 0, .BEHIND. ) ;
#618 = CYLINDRICAL_SURFACE ( 'NONE', #38, 0.07300000000000000933 ) ;
#619 = CARTESIAN_POINT ( 'NONE',  ( 0.5659433850676461875, 0.4157221745136795987, -1.325273908924601951 ) ) ;
#620 = ORIENTED_EDGE ( 'NONE', *, *, #661, .T. ) ;
#621 = CARTESIAN_POINT ( 'NONE',  ( 0.000000000000000000, 0.000000000000000000, 0.000000000000000000 ) ) ;
#622 = CARTESIAN_POINT ( 'NONE',  ( 1.569570876164329887, 0.4157221745136795987, -0.7432054716666869343 ) ) ;
#623 = CARTESIAN_POINT ( 'NONE',  ( 0.005618745919300675157, 0.4157221745136795987, -1.747745766880081097 ) ) ;
#624 = ORIENTED_EDGE ( 'NONE', *, *, #241, .F. ) ;
#625 = PERSON_AND_ORGANIZATION ( #119, #57 ) ;
#626 = CARTESIAN_POINT ( 'NONE',  ( -1.883028860134823956, 0.2757221745136795854, -0.8882882989173001009 ) ) ;
#627 = LOCAL_TIME ( 22, 51, 6.000000000000000000, #116 ) ;
#628 = CARTESIAN_POINT ( 'NONE',  ( -0.09438026430880612494, 0.2757221745136795854, -1.920951419078267497 ) ) ;
#629 = ORIENTED_EDGE ( 'NONE', *, *, #465, .F. ) ;
#630 = CALENDAR_DATE ( 2025, 7, 3 ) ;
#631 = EDGE_CURVE ( 'NONE', #93, #646, #704, .T. ) ;
#632 = DIRECTION ( 'NONE',  ( 0.000000000000000000, 0.000000000000000000, -1.000000000000000000 ) ) ;
#633 = AXIS2_PLACEMENT_3D ( 'NONE', #554, #511, #689 ) ;
#634 = DIRECTION ( 'NONE',  ( 0.000000000000000000, 0.000000000000000000, 1.000000000000000000 ) ) ;
#635 = ORIENTED_EDGE ( 'NONE', *, *, #319, .T. ) ;
#636 = CARTESIAN_POINT ( 'NONE',  ( 1.239389381841401017, 0.2877221745136795961, -1.118557270726833197 ) ) ;
#637 = DIRECTION ( 'NONE',  ( 0.000000000000000000, 0.000000000000000000, 1.000000000000000000 ) ) ;
#638 = EDGE_LOOP ( 'NONE', ( #316, #725, #686, #705 ) ) ;
#639 = DIRECTION ( 'NONE',  ( 0.000000000000000000, 1.000000000000000000, 0.000000000000000000 ) ) ;
#640 = FACE_OUTER_BOUND ( 'NONE', #28, .T. ) ;
#641 = EDGE_CURVE ( 'NONE', #320, #225, #488, .T. ) ;
#642 = VERTEX_POINT ( 'NONE', #150 ) ;
#643 = CARTESIAN_POINT ( 'NONE',  ( -1.558380593041562401, 0.4157221745136795987, -0.7432054716666869343 ) ) ;
#644 = CYLINDRICAL_SURFACE ( 'NONE', #208, 0.07300000000000000933 ) ;
#645 = EDGE_CURVE ( 'NONE', #699, #657, #666, .T. ) ;
#646 = VERTEX_POINT ( 'NONE', #155 ) ;
#647 = CC_DESIGN_DATE_AND_TIME_ASSIGNMENT ( #123, #677, ( #595 ) ) ;
#648 = CYLINDRICAL_SURFACE ( 'NONE', #206, 0.2000000000000000389 ) ;
#649 = DIRECTION ( 'NONE',  ( 0.000000000000000000, 0.000000000000000000, -1.000000000000000000 ) ) ;
#650 = ORIENTED_EDGE ( 'NONE', *, *, #19, .F. ) ;
#651 = DIRECTION ( 'NONE',  ( -0.000000000000000000, -1.000000000000000000, -0.000000000000000000 ) ) ;
#652 = AXIS2_PLACEMENT_3D ( 'NONE', #126, #181, #290 ) ;
#653 = VERTEX_POINT ( 'NONE', #321 ) ;
#654 = VECTOR ( 'NONE', #405, 39.37007874015748143 ) ;
#655 = CARTESIAN_POINT ( 'NONE',  ( 0.1056197356879280402, 0.4157221745136795987, -1.920950276190014572 ) ) ;
#656 = CC_DESIGN_PERSON_AND_ORGANIZATION_ASSIGNMENT ( #388, #499, ( #366 ) ) ;
#657 = VERTEX_POINT ( 'NONE', #152 ) ;
#658 = DIRECTION ( 'NONE',  ( 0.000000000000000000, 1.000000000000000000, 0.000000000000000000 ) ) ;
#659 = ORIENTED_EDGE ( 'NONE', *, *, #216, .T. ) ;
#660 = CARTESIAN_POINT ( 'NONE',  ( 1.894219143257590776, 0.2757221745136795854, -0.8882882989173001009 ) ) ;
#661 = EDGE_CURVE ( 'NONE', #657, #320, #159, .T. ) ;
#662 = ORIENTED_EDGE ( 'NONE', *, *, #486, .F. ) ;
#663 = EDGE_CURVE ( 'NONE', #394, #373, #376, .T. ) ;
#664 = APPROVAL_PERSON_ORGANIZATION ( #62, #184, #291 ) ;
#665 = CIRCLE ( 'NONE', #23, 0.2000000000000000389 ) ;
#666 = LINE ( 'NONE', #430, #608 ) ;
#667 = APPROVAL_PERSON_ORGANIZATION ( #308, #516, #296 ) ;
#668 = EDGE_CURVE ( 'NONE', #464, #642, #221, .T. ) ;
#669 = ORIENTED_EDGE ( 'NONE', *, *, #418, .T. ) ;
#670 = VECTOR ( 'NONE', #439, 39.37007874015748143 ) ;
#671 = CIRCLE ( 'NONE', #344, 0.07199999999999993905 ) ;
#672 = FACE_OUTER_BOUND ( 'NONE', #81, .T. ) ;
#673 = AXIS2_PLACEMENT_3D ( 'NONE', #297, #448, #233 ) ;
#674 = EDGE_LOOP ( 'NONE', ( #416, #749, #662, #559 ) ) ;
#675 = LINE ( 'NONE', #162, #550 ) ;
#676 = DIRECTION ( 'NONE',  ( 0.000000000000000000, 0.000000000000000000, 1.000000000000000000 ) ) ;
#677 = DATE_TIME_ROLE ( 'creation_date' ) ;
#678 = AXIS2_PLACEMENT_3D ( 'NONE', #64, #506, #235 ) ;
#679 = DIRECTION ( 'NONE',  ( 0.000000000000000000, 0.000000000000000000, 1.000000000000000000 ) ) ;
#680 = PLANE ( 'NONE',  #597 ) ;
#681 = PERSON_AND_ORGANIZATION ( #119, #57 ) ;
#682 = CIRCLE ( 'NONE', #551, 0.07300000000000000933 ) ;
#683 = FACE_BOUND ( 'NONE', #413, .T. ) ;
#684 = ADVANCED_FACE ( 'NONE', ( #383 ), #156, .T. ) ;
#685 = LINE ( 'NONE', #456, #380 ) ;
#686 = ORIENTED_EDGE ( 'NONE', *, *, #590, .T. ) ;
#687 = LINE ( 'NONE', #70, #474 ) ;
#688 = EDGE_CURVE ( 'NONE', #373, #431, #695, .T. ) ;
#689 = DIRECTION ( 'NONE',  ( 0.000000000000000000, 0.000000000000000000, -1.000000000000000000 ) ) ;
#690 = DIRECTION ( 'NONE',  ( 0.000000000000000000, 1.000000000000000000, -0.000000000000000000 ) ) ;
#691 = LOCAL_TIME ( 22, 51, 6.000000000000000000, #453 ) ;
#692 = DIRECTION ( 'NONE',  ( 0.4999950511405324982, -0.000000000000000000, 0.8660282609909311091 ) ) ;
#693 = ORIENTED_EDGE ( 'NONE', *, *, #418, .F. ) ;
#694 = DIRECTION ( 'NONE',  ( 0.000000000000000000, 0.000000000000000000, -1.000000000000000000 ) ) ;
#695 = CIRCLE ( 'NONE', #370, 0.07300000000000000933 ) ;
#696 = FACE_OUTER_BOUND ( 'NONE', #484, .T. ) ;
#697 = AXIS2_PLACEMENT_3D ( 'NONE', #229, #180, #571 ) ;
#698 = CARTESIAN_POINT ( 'NONE',  ( -0.09438026430880612494, 0.2877221745136795961, -1.920951419078267497 ) ) ;
#699 = VERTEX_POINT ( 'NONE', #272 ) ;
#700 = ADVANCED_FACE ( 'NONE', ( #672 ), #611, .F. ) ;
#701 = DATE_AND_TIME ( #361, #433 ) ;
#702 = LINE ( 'NONE', #417, #582 ) ;
#703 = FACE_BOUND ( 'NONE', #14, .T. ) ;
#704 =( BOUNDED_CURVE ( )  B_SPLINE_CURVE ( 3, ( #318, #323, #95, #604 ),
 .UNSPECIFIED., .F., .F. ) 
 B_SPLINE_CURVE_WITH_KNOTS ( ( 4, 4 ),
 ( 4.712388980384689674, 6.283185307179586232 ),
 .UNSPECIFIED. ) 
 CURVE ( )  GEOMETRIC_REPRESENTATION_ITEM ( )  RATIONAL_B_SPLINE_CURVE ( ( 1.000000000000000000, 0.8047378541243649375, 0.8047378541243649375, 1.000000000000000000 ) ) 
 REPRESENTATION_ITEM ( '' )  );
#705 = ORIENTED_EDGE ( 'NONE', *, *, #216, .F. ) ;
#706 = DIRECTION ( 'NONE',  ( -0.000000000000000000, -1.000000000000000000, -0.000000000000000000 ) ) ;
#707 = CARTESIAN_POINT ( 'NONE',  ( -1.883028860134823956, 0.4157221745136795987, -0.5568054716666870352 ) ) ;
#708 = EDGE_LOOP ( 'NONE', ( #268, #489, #540, #375 ) ) ;
#709 = DIRECTION ( 'NONE',  ( -0.000000000000000000, -1.000000000000000000, -0.000000000000000000 ) ) ;
#710 = EDGE_CURVE ( 'NONE', #255, #468, #491, .T. ) ;
#711 = CIRCLE ( 'NONE', #633, 0.07300000000000000933 ) ;
#712 = DIRECTION ( 'NONE',  ( 0.000000000000000000, 0.000000000000000000, -1.000000000000000000 ) ) ;
#713 = ORIENTED_EDGE ( 'NONE', *, *, #645, .F. ) ;
#714 = CYLINDRICAL_SURFACE ( 'NONE', #210, 0.07300000000000000933 ) ;
#715 = ORIENTED_EDGE ( 'NONE', *, *, #42, .F. ) ;
#716 = CARTESIAN_POINT ( 'NONE',  ( 1.569570876164329887, 0.4157221745136795987, -0.8162054716666869991 ) ) ;
#717 = VERTEX_POINT ( 'NONE', #266 ) ;
#718 = VECTOR ( 'NONE', #348, 39.37007874015748143 ) ;
#719 = EDGE_CURVE ( 'NONE', #339, #657, #100, .T. ) ;
#720 = LOCAL_TIME ( 22, 51, 6.000000000000000000, #617 ) ;
#721 = CARTESIAN_POINT ( 'NONE',  ( 0.005618745919300675157, 0.2757221745136795854, -1.747745766880081097 ) ) ;
#722 = ORIENTED_EDGE ( 'NONE', *, *, #333, .F. ) ;
#723 = EDGE_CURVE ( 'NONE', #717, #642, #211, .T. ) ;
#724 = DIRECTION ( 'NONE',  ( 0.8660282609909311091, -0.000000000000000000, -0.4999950511405324982 ) ) ;
#725 = ORIENTED_EDGE ( 'NONE', *, *, #434, .T. ) ;
#726 = DIRECTION ( 'NONE',  ( 1.000000000000000000, 0.000000000000000000, 0.000000000000000000 ) ) ;
#727 = ORIENTED_EDGE ( 'NONE', *, *, #281, .F. ) ;
#728 = VECTOR ( 'NONE', #343, 39.37007874015748143 ) ;
#729 = DIRECTION ( 'NONE',  ( 0.000000000000000000, 0.000000000000000000, 1.000000000000000000 ) ) ;
#730 = SECURITY_CLASSIFICATION ( '', '', #740 ) ;
#731 = EDGE_CURVE ( 'NONE', #646, #215, #675, .T. ) ;
#732 = ORIENTED_EDGE ( 'NONE', *, *, #486, .T. ) ;
#733 = CC_DESIGN_PERSON_AND_ORGANIZATION_ASSIGNMENT ( #625, #336, ( #115 ) ) ;
#734 = CARTESIAN_POINT ( 'NONE',  ( -1.883028860134823956, 0.2757221745136795854, -0.8882882989173001009 ) ) ;
#735 = CARTESIAN_POINT ( 'NONE',  ( -0.03038089776281793775, 0.4157221745136795987, -1.810099801671428255 ) ) ;
#736 = CALENDAR_DATE ( 2025, 7, 3 ) ;
#737 = DIRECTION ( 'NONE',  ( 0.000000000000000000, 1.000000000000000000, -0.000000000000000000 ) ) ;
#738 = DIRECTION ( 'NONE',  ( 0.000000000000000000, 0.000000000000000000, 1.000000000000000000 ) ) ;
#739 = EDGE_LOOP ( 'NONE', ( #547, #487 ) ) ;
#740 = SECURITY_CLASSIFICATION_LEVEL ( 'unclassified' ) ;
#741 = FACE_OUTER_BOUND ( 'NONE', #600, .T. ) ;
#742 = CC_DESIGN_APPROVAL ( #94, ( #366 ) ) ;
#743 = DIRECTION ( 'NONE',  ( 0.8660225465496684816, 0.000000000000000000, 0.5000049488431359546 ) ) ;
#744 = EDGE_LOOP ( 'NONE', ( #260, #143, #576, #534 ) ) ;
#745 = CARTESIAN_POINT ( 'NONE',  ( 1.569570876164329887, 0.4157221745136795987, -0.8162054716666869991 ) ) ;
#746 = CYLINDRICAL_SURFACE ( 'NONE', #259, 0.07300000000000000933 ) ;
#747 = EDGE_CURVE ( 'NONE', #394, #317, #26, .T. ) ;
#748 = DIRECTION ( 'NONE',  ( 0.000000000000000000, 1.000000000000000000, -0.000000000000000000 ) ) ;
#749 = ORIENTED_EDGE ( 'NONE', *, *, #108, .T. ) ;
#750 = PERSON_AND_ORGANIZATION_ROLE ( 'creator' ) ;
#751 = CARTESIAN_POINT ( 'NONE',  ( 0.5659433850676461875, 0.4157221745136795987, -1.398273908924602127 ) ) ;
ENDSEC;
END-ISO-10303-21;
